<svg width="15" height="15" viewBox="0 0 15 15" fill="none" xmlns="http://www.w3.org/2000/svg">
<path d="M7.5 0C8.86 0 10.115 0.335 11.265 1.005C12.415 1.675 13.325 2.585 13.995 3.735C14.665 4.885 15 6.14 15 7.5C15 8.86 14.665 10.115 13.995 11.265C13.325 12.415 12.415 13.325 11.265 13.995C10.115 14.665 8.86 15 7.5 15C6.14 15 4.885 14.665 3.735 13.995C2.585 13.325 1.675 12.415 1.005 11.265C0.335 10.115 0 8.86 0 7.5C0 6.14 0.335 4.885 1.005 3.735C1.675 2.585 2.585 1.675 3.735 1.005C4.885 0.335 6.14 0 7.5 0ZM3.9 6.705L3.09 7.5C3.8 8.21 4.445 8.8775 5.025 9.5025C5.605 10.1275 6.01 10.575 6.24 10.845L6.57 11.235C6.65 11.105 6.76 10.9275 6.9 10.7025C7.04 10.4775 7.3225 10.05 7.7475 9.42C8.1725 8.79 8.59 8.1975 9 7.6425C9.41 7.0875 9.885 6.49 10.425 5.85C10.965 5.21 11.46 4.69 11.91 4.29C11.73 3.94 11.55 3.765 11.37 3.765C11.27 3.825 11.11 3.935 10.89 4.095C10.67 4.255 10.1025 4.7425 9.1875 5.5575C8.2725 6.3725 7.22 7.375 6.03 8.565L3.9 6.705Z" fill="#DB3125"/>
</svg>
