<?xml version="1.0" encoding="utf-8"?>
<!-- Generator: Adobe Illustrator 24.0.1, SVG Export Plug-In . SVG Version: 6.00 Build 0)  -->
<svg version="1.1" id="Layer_1" xmlns="http://www.w3.org/2000/svg" xmlns:xlink="http://www.w3.org/1999/xlink" x="0px" y="0px"
	 viewBox="0 0 210 70" style="enable-background:new 0 0 210 70;" xml:space="preserve">
<style type="text/css">
	.st0{fill:#DB3125;}
	.st1{fill:#FFFFFF;}
</style>
<g>
	<rect class="st0" width="210" height="70"/>
</g>
<g>
	<path class="st1" d="M13.7,54.8V14.5h12.9v13.7h12.1V14.5h12.9v40.3H38.7V39.2H26.6v15.6H13.7z"/>
	<path class="st1" d="M59.1,14.5h12.9v24.8c0,2.3,0.5,3.9,1.4,4.9c1,1,2.6,1.5,4.8,1.5c2.2,0,3.8-0.5,4.7-1.4c0.9-1,1.4-2.6,1.4-4.9
		V14.5h12.9v25.8c0,5-1.6,8.9-4.9,11.6c-3.3,2.7-8,4-14.2,4c-6.2,0-11-1.3-14.2-4c-3.3-2.7-4.9-6.5-4.9-11.6V14.5z"/>
	<path class="st1" d="M116.6,54.8h-11.7V14.5h15.8l5.6,20.1c0.1,0.3,0.2,0.9,0.4,1.9c0.2,1,0.5,2.3,0.9,4c0.3-1.3,0.5-2.5,0.7-3.5
		s0.4-1.8,0.6-2.3l5.7-20.2h15.7v40.3h-11.7l0.1-19.8c0-1.2,0-2.4,0-3.5c0-1.1,0-2.3,0-3.5c-0.4,2.1-1,4.3-1.6,6.8l-0.1,0.4l-5,19.7
		h-9l-5-19.3c-0.2-0.9-0.5-1.9-0.7-3c-0.2-1.1-0.5-2.7-0.9-4.6c0.1,1.7,0.1,3.2,0.1,4.5c0,1.2,0,2.2,0,3V54.8z"/>
	<path class="st1" d="M156.2,34.7c0-6.6,1.9-11.7,5.6-15.5c3.7-3.8,8.9-5.7,15.3-5.7c6.5,0,11.5,1.9,15.3,5.7
		c3.7,3.8,5.6,9,5.6,15.5c0,6.5-1.9,11.7-5.6,15.5c-3.7,3.8-8.8,5.7-15.3,5.7c-6.5,0-11.6-1.9-15.3-5.7S156.2,41.2,156.2,34.7z
		 M169.2,34.7c0,3.8,0.6,6.6,1.9,8.4c1.3,1.8,3.3,2.7,6,2.7c2.7,0,4.7-0.9,5.9-2.7s1.9-4.6,1.9-8.4c0-3.8-0.6-6.7-1.9-8.4
		s-3.2-2.7-5.9-2.7c-2.7,0-4.7,0.9-6,2.7C169.8,28.1,169.2,30.9,169.2,34.7z"/>
</g>
</svg>
