<?xml version="1.0" encoding="utf-8"?>
<!-- Generator: Adobe Illustrator 24.0.1, SVG Export Plug-In . SVG Version: 6.00 Build 0)  -->
<svg version="1.1" id="Layer_1" xmlns="http://www.w3.org/2000/svg" xmlns:xlink="http://www.w3.org/1999/xlink" x="0px" y="0px"
	 viewBox="0 0 138 46" style="enable-background:new 0 0 138 46;" xml:space="preserve">
<style type="text/css">
	.st0{fill:#DB3125;}
	.st1{fill:#FFFFFF;}
</style>
<g>
	<rect class="st0" width="138" height="46"/>
</g>
<g>
	<path class="st1" d="M8.6,35.3V8.7h8.5v9h8v-9h8.5v26.6h-8.5V25h-8v10.3H8.6z"/>
	<path class="st1" d="M38.6,8.7h8.5v16.4c0,1.5,0.3,2.6,0.9,3.2c0.6,0.6,1.7,1,3.2,1c1.4,0,2.5-0.3,3.1-0.9c0.6-0.6,0.9-1.7,0.9-3.3
		V8.7h8.5v17.1c0,3.3-1.1,5.9-3.2,7.6c-2.2,1.8-5.3,2.6-9.3,2.6c-4.1,0-7.2-0.9-9.4-2.6c-2.2-1.8-3.3-4.3-3.3-7.6V8.7z"/>
	<path class="st1" d="M76.6,35.3h-7.7V8.7h10.4L82.9,22c0,0.2,0.1,0.6,0.3,1.2c0.1,0.6,0.3,1.5,0.6,2.7c0.2-0.9,0.3-1.7,0.5-2.3
		c0.1-0.7,0.3-1.2,0.4-1.5l3.8-13.3h10.4v26.6h-7.7l0.1-13.1c0-0.8,0-1.6,0-2.3c0-0.8,0-1.5,0-2.3c-0.3,1.4-0.6,2.9-1,4.5l-0.1,0.2
		l-3.3,13h-6l-3.3-12.7c-0.2-0.6-0.3-1.2-0.5-2c-0.2-0.7-0.4-1.8-0.6-3c0,1.1,0.1,2.1,0.1,2.9c0,0.8,0,1.5,0,2V35.3z"/>
	<path class="st1" d="M102.7,22.1c0-4.3,1.2-7.8,3.7-10.3c2.5-2.5,5.9-3.8,10.1-3.8c4.3,0,7.6,1.3,10.1,3.8
		c2.5,2.5,3.7,5.9,3.7,10.3c0,4.3-1.2,7.7-3.7,10.3c-2.5,2.5-5.8,3.8-10.1,3.8c-4.3,0-7.7-1.3-10.1-3.8
		C104,29.8,102.7,26.4,102.7,22.1z M111.3,22.1c0,2.5,0.4,4.4,1.3,5.5c0.8,1.2,2.2,1.8,4,1.8c1.8,0,3.1-0.6,3.9-1.8
		c0.8-1.2,1.2-3,1.2-5.6c0-2.5-0.4-4.4-1.2-5.6c-0.8-1.2-2.1-1.8-3.9-1.8c-1.8,0-3.1,0.6-4,1.8C111.8,17.7,111.3,19.5,111.3,22.1z"
		/>
</g>
</svg>
