<svg width="38" height="69" viewBox="0 0 38 69" fill="none" xmlns="http://www.w3.org/2000/svg">
<line x1="10.9226" y1="50.9381" x2="18.3875" y2="63.6284" stroke="#FFFDEE" stroke-width="5" stroke-linecap="round"/>
<line x1="19.0002" y1="34.5508" x2="19.0002" y2="57.5508" stroke="#FFFDEE" stroke-width="5" stroke-linecap="round"/>
<line x1="24.0002" y1="46.5508" x2="24.0002" y2="57.5508" stroke="#FFFDEE" stroke-width="5" stroke-linecap="round"/>
<line x1="29.0002" y1="48.5508" x2="29.0002" y2="59.5508" stroke="#FFFDEE" stroke-width="5" stroke-linecap="round"/>
<line x1="34.0002" y1="50.5508" x2="34.0002" y2="61.5508" stroke="#FFFDEE" stroke-width="5" stroke-linecap="round"/>
<path d="M36.5002 56.4037L19.363 56.0508L17.1081 58.8743L15.3042 59.2273L13.5002 60.0508L16.7257 66.4081C17.2369 67.4158 18.2711 68.0508 19.401 68.0508H31.5002C34.2617 68.0508 36.5002 65.8122 36.5002 63.0508V56.4037Z" fill="#FFFDEE"/>
<path fill-rule="evenodd" clip-rule="evenodd" d="M25.7913 22.1053C25.2272 21.7174 24.6282 21.3764 24 21.0881V22.3687L25.7913 22.1053ZM29.1838 25.6494L24.6324 26.3188C26.0945 27.7684 27 29.7784 27 32C27 34.9611 25.3912 37.5465 23 38.9297V43.3172C27.6608 41.6698 31 37.2249 31 32C31 29.668 30.3348 27.4913 29.1838 25.6494ZM20 24.0619V22.957V20.0411C19.6703 20.0139 19.3368 20 19 20C18.6632 20 18.3297 20.0139 18 20.0411V24.0619C18.3276 24.021 18.6613 24 19 24C19.3387 24 19.6724 24.021 20 24.0619ZM7 32C7 29.693 7.65099 27.5381 8.7793 25.7089L15.7631 24.6819C12.9574 25.9247 11 28.7338 11 32C11 34.9611 12.6088 37.5465 15 38.9297V43.3172C10.3392 41.6698 7 37.2249 7 32Z" fill="#FFFDEE"/>
<path d="M0 2.5L17 0V23L0 25.5V2.5Z" fill="#FFFDEE"/>
<path d="M23 23.1844V4.22739L36 2.31563V21.2726L23 23.1844Z" stroke="#FFFDEE" stroke-width="4"/>
</svg>
