<svg width="20" height="19" viewBox="0 0 20 19" fill="none" xmlns="http://www.w3.org/2000/svg">
<path d="M19 0H12C11.2596 0.00250783 10.5466 0.280565 10 0.78C9.45338 0.280565 8.74042 0.00250783 8 0H1C0.734784 0 0.48043 0.105357 0.292893 0.292893C0.105357 0.48043 0 0.734784 0 1V16C0 16.2652 0.105357 16.5196 0.292893 16.7071C0.48043 16.8946 0.734784 17 1 17H6.758C7.284 17 7.8 17.214 8.172 17.586L9.293 18.707C9.302 18.716 9.314 18.719 9.323 18.728C9.409 18.807 9.505 18.877 9.617 18.924H9.619C9.86296 19.025 10.137 19.025 10.381 18.924H10.383C10.495 18.877 10.591 18.807 10.677 18.728C10.686 18.719 10.698 18.716 10.707 18.707L11.828 17.586C12.2039 17.2123 12.7119 17.0017 13.242 17H19C19.2652 17 19.5196 16.8946 19.7071 16.7071C19.8946 16.5196 20 16.2652 20 16V1C20 0.734784 19.8946 0.48043 19.7071 0.292893C19.5196 0.105357 19.2652 0 19 0ZM6.758 15H2V2H8C8.552 2 9 2.449 9 3V15.689C8.33745 15.2422 7.5571 15.0024 6.758 15ZM18 15H13.242C12.443 15 11.658 15.246 11 15.689V3C11 2.449 11.448 2 12 2H18V15Z" fill="#DB3125"/>
</svg>
