<svg width="74" height="72" viewBox="0 0 74 72" fill="none" xmlns="http://www.w3.org/2000/svg">
<path d="M0 6.99999C0 3.134 3.13401 0 7 0H66.3807C70.2467 0 73.3807 3.13401 73.3807 7V64.852C73.3807 68.718 70.2467 71.852 66.3807 71.852H7.00001C3.13402 71.852 0 68.7179 0 64.852V6.99999Z" fill="#FFFDEE"/>
<path fill-rule="evenodd" clip-rule="evenodd" d="M66.3807 3H7C4.79086 3 3 4.79086 3 6.99999V64.852C3 67.0611 4.79087 68.852 7.00001 68.852H66.3807C68.5899 68.852 70.3807 67.0611 70.3807 64.852V7C70.3807 4.79087 68.5899 3 66.3807 3ZM7 0C3.13401 0 0 3.134 0 6.99999V64.852C0 68.7179 3.13402 71.852 7.00001 71.852H66.3807C70.2467 71.852 73.3807 68.718 73.3807 64.852V7C73.3807 3.13401 70.2467 0 66.3807 0H7Z" fill="#2C2A39"/>
<path d="M60.7392 66.6795C60.5472 66.6795 60.4512 66.6035 60.4512 66.4515V66.4035C60.4512 66.3155 60.5072 66.2155 60.6192 66.1035C60.7392 65.9915 60.8552 65.8635 60.9672 65.7195C61.0872 65.5755 61.1472 65.4195 61.1472 65.2515V60.4755C61.1472 60.2995 61.1032 60.1635 61.0152 60.0675C60.9272 59.9635 60.8272 59.8955 60.7152 59.8635C60.6112 59.8315 60.5152 59.7875 60.4272 59.7315C60.3392 59.6675 60.2952 59.5875 60.2952 59.4915V59.4315C60.2952 59.2875 60.4152 59.1595 60.6552 59.0475L62.5512 58.2315C62.8552 58.1195 63.0952 58.1075 63.2712 58.1955C63.4552 58.2755 63.5472 58.4035 63.5472 58.5795C63.5472 58.6835 63.5032 58.8315 63.4152 59.0235C63.3272 59.2155 63.2832 59.4395 63.2832 59.6955V65.2515C63.2832 65.4195 63.3432 65.5755 63.4632 65.7195C63.5912 65.8635 63.7152 65.9915 63.8352 66.1035C63.9552 66.2155 64.0152 66.3155 64.0152 66.4035V66.4515C64.0152 66.6035 63.9192 66.6795 63.7272 66.6795H60.7392Z" fill="#2C2A39"/>
<path d="M55.8903 49.024C56.3596 50.176 57.0849 51.2427 58.0663 52.224C59.0903 53.1627 59.6023 53.9307 59.6023 54.528V54.784C59.6023 55.5947 59.0903 56 58.0663 56H41.4902C40.5089 56 40.0182 55.5947 40.0182 54.784V54.528C40.0182 54.0587 40.3169 53.568 40.9143 53.056C41.5543 52.5013 42.0876 51.904 42.5143 51.264C42.9836 50.624 43.0689 49.8773 42.7703 49.024L41.3623 45.056H25.1063L23.6982 49.024C23.3996 49.8773 23.4636 50.624 23.8903 51.264C24.3596 51.904 24.8929 52.5013 25.4902 53.056C26.1302 53.568 26.4503 54.0587 26.4503 54.528V54.784C26.4503 55.5947 25.9382 56 24.9142 56H15.4423C14.4183 56 13.9062 55.5947 13.9062 54.784V54.528C13.9062 53.9733 14.3969 53.2053 15.3783 52.224C16.4023 51.2427 17.1489 50.176 17.6182 49.024L29.5863 18.048C29.8849 17.3227 29.8209 16.576 29.3943 15.808C29.0103 15.04 28.5409 14.3147 27.9863 13.632C27.4743 12.9493 27.2183 12.416 27.2183 12.032V11.776C27.2183 10.9653 27.7089 10.56 28.6903 10.56H36.8823C38.9729 10.56 40.4449 11.584 41.2983 13.632L55.8903 49.024ZM26.8343 40.256H39.6343L33.2343 22.4L26.8343 40.256Z" fill="#2C2A39"/>
</svg>
