<svg id="Layer_1" data-name="Layer 1" xmlns="http://www.w3.org/2000/svg" viewBox="0 0 485 760">
  <defs>
    <style>
      .cls-1 {
        fill: #ffcb00;
      }

      .cls-2 {
        fill: #ffe300;
      }

      .cls-3 {
        fill: #787fff;
      }

      .cls-4 {
        fill: #5061ff;
      }

      .cls-5 {
        fill: #fff;
      }

      .cls-6 {
        fill: #ffbd7b;
      }

      .cls-7 {
        fill: #2b293a;
      }

      .cls-8 {
        fill: #666;
      }

      .cls-9 {
        fill: #727272;
      }

      .cls-10 {
        fill: #7c7c7c;
      }
    </style>
  </defs>
  <title>Commandant</title>
  <polyline class="cls-1" points="4.49 439.37 31.89 422.81 32.83 456.27 2.81 466.6 4.49 439.37"/>
  <polyline class="cls-2" points="1.9 215.05 32.46 255.42 31.59 427.26 4.49 439.37 1.9 215.05"/>
  <polyline class="cls-3" points="341.51 342.95 457.35 455.01 459.41 733.44 420.6 733.44 298.07 371.56 341.51 342.95"/>
  <path class="cls-3" d="M384.5,246.5h73s1-98-62-148l-53,51S385.5,200.5,384.5,246.5Z"/>
  <path class="cls-3" d="M247.5,112.5s-53,4-91,39l-61-61s28-30,74-46,79-12,79-12Z"/>
  <path class="cls-3" d="M27.5,247.5l86-1s2,55,40,93l-125,127Z"/>
  <polygon class="cls-3" points="78.5 734.5 169.5 736.5 192.5 514.5 152.5 518.5 78.5 734.5"/>
  <path class="cls-3" d="M247.5,112.5s76,8,95,37l-14,15s-38-33-78-30Z"/>
  <path class="cls-3" d="M364.5,245.5l17-1s7,47-37,96l-14-8S361.5,288.5,364.5,245.5Z"/>
  <polygon class="cls-3" points="169.5 327.5 201.5 351.5 188.5 363.5 153.5 339.5 169.5 327.5"/>
  <path class="cls-3" d="M156.5,151.5l14,14s-33,28-34,80h-19S123.5,173.5,156.5,151.5Z"/>
  <path class="cls-4" d="M385.2,243.55h72.08V458.93L344.5,340.5S385.9,301.6,385.2,243.55Z"/>
  <path class="cls-4" d="M250.5,134.5l-2,43,35,28,45-41S288.5,129.5,250.5,134.5Z"/>
  <path class="cls-4" d="M168.26,166.77,205.5,202.5l-6,43h-63S130.28,205.21,168.26,166.77Z"/>
  <path class="cls-4" d="M156.5,151.5l14,14s35-36,80-31l-3-22S175.5,120.5,156.5,151.5Z"/>
  <path class="cls-4" d="M136.5,245.5s-7,44,33,82l-15.7,14.77s-38.3-34.77-36.3-96.77Z"/>
  <path class="cls-4" d="M152.5,152.49s-36,40-38,91h-86s2-56,14-77,45-77,53-76Z"/>
  <path class="cls-4" d="M251.55,113.59s54.95,5.91,90.95,35.91l53-55s-60-60-143-63Z"/>
  <path class="cls-4" d="M331.5,167.5s33,41,31,79l19-2s-2.59-64.36-40.8-91.68Z"/>
  <path class="cls-3" d="M286.7,207.33l38.72-39.74S364.5,185.5,362.5,246.5h-71Z"/>
  <path class="cls-3" d="M206.5,201.5l-36-36s20.09-23.91,54-27.46,21.91-4.58,21.91-4.58l2.05,44s-15-2-17-1S206.5,201.5,206.5,201.5Z"/>
  <path class="cls-3" d="M199.5,245.5l-63.6,3.1s3.6,54.9,33.6,78.9l38-41Z"/>
  <polygon class="cls-4" points="182.5 313.5 169.5 327.5 207.5 352.5 216.5 332.5 182.5 313.5"/>
  <polygon class="cls-4" points="153.5 342.5 28.5 466.5 27.5 734.5 78.5 734.5 152.5 518.5 129.5 489.5 137.5 461.5 139.5 424.5 173.5 382.5 181.5 364.5 153.5 342.5"/>
  <polygon class="cls-4" points="326.38 466.68 420.5 733.5 330.5 736.5 332.5 507.5 326.38 466.68"/>
  <polygon class="cls-4" points="291.5 355.5 320.5 337.5 335.26 335.15 338.3 346.27 298.5 371.5 291.5 355.5"/>
  <polygon class="cls-3" points="290.5 352.5 313.5 340.5 299.5 335.5 290.5 352.5"/>
  <polygon class="cls-3" points="285.5 355.5 291.5 361.5 288.5 367.5 280.5 363.5 285.5 355.5"/>
  <polygon class="cls-4" points="290.5 246.5 365.24 248 355.5 289.5 332.53 325.05 282.63 281.07 290.5 246.5"/>
  <polygon class="cls-3" points="283.5 284.5 312.01 314.52 271.5 310.5 283.5 284.5"/>
  <polyline class="cls-4" points="209.02 291.02 177.06 321.5 218.58 311.94 209.02 291.02"/>
  <path d="M249.5,384.5c-75.54,0-137-61.46-137-137s61.46-137,137-137,137,61.46,137,137S325,384.5,249.5,384.5Zm0-266a129,129,0,1,0,129,129A129.15,129.15,0,0,0,249.5,118.5Z"/>
  <path d="M249.5,364.93A117.43,117.43,0,1,1,366.93,247.5,117.56,117.56,0,0,1,249.5,364.93Zm0-228A110.57,110.57,0,1,0,360.07,247.5,110.69,110.69,0,0,0,249.5,136.93Z"/>
  <rect x="245" y="29.5" width="8" height="217.5"/>
  <rect x="168.05" y="59.3" width="8" height="219" transform="translate(-68.97 171.1) rotate(-45)"/>
  <rect x="26.5" y="241.75" width="223.75" height="8"/>
  <rect x="-19.83" y="353.82" width="315.52" height="8" transform="translate(-212.63 202.36) rotate(-45)"/>
  <rect x="215.59" y="167.55" width="211.22" height="8" transform="translate(-27.24 277.34) rotate(-45)"/>
  <rect x="245.75" y="241.75" width="212.75" height="8"/>
  <rect x="349.26" y="202.03" width="8.13" height="302.08" transform="translate(-146.17 353.25) rotate(-45)"/>
  <rect x="332.01" y="230.42" width="8" height="519.94" transform="translate(-143.12 138.5) rotate(-19.29)"/>
  <rect x="-95.96" y="486.39" width="519.94" height="8" transform="translate(-353.03 483.2) rotate(-70.71)"/>
  <rect x="287" y="354.5" width="8" height="382"/>
  <rect x="287.5" y="37.5" width="8" height="84"/>
  <rect x="329.5" y="351.5" width="8" height="385"/>
  <rect x="329.5" y="52.5" width="8" height="92"/>
  <rect x="372" y="289.5" width="8" height="447"/>
  <rect x="372.5" y="75.5" width="8" height="130"/>
  <rect x="414.5" y="118.5" width="8" height="618"/>
  <rect x="67" y="118.5" width="8" height="618"/>
  <rect x="111.5" y="73.5" width="8" height="663"/>
  <rect x="155.5" y="45.5" width="8" height="103"/>
  <rect x="155.5" y="346.5" width="8" height="103"/>
  <rect x="202.5" y="31.5" width="8" height="88"/>
  <polyline class="cls-5" points="276.93 311.57 248.5 340.5 262.44 357.51 280.32 335.62 284.5 320.5 276.93 311.57"/>
  <polygon class="cls-5" points="211.5 314.5 243.5 340.5 234.49 356.33 210.91 327.73 211.5 314.5"/>
  <polyline class="cls-5" points="265.11 354.2 251.5 365.5 259.5 394.5 274.77 352.32 265.11 354.2"/>
  <polygon class="cls-5" points="213.5 334.5 242.5 368.5 232.49 401 217.81 371.51 213.5 334.5"/>
  <polyline class="cls-6" points="205.73 269.04 201.27 241.53 219.62 221.61 222.5 204.5 263.9 205.89 286.5 245.5 282.5 269.5 269.5 282.5 245.5 298.5 228.5 289.5 205.73 269.04"/>
  <polygon class="cls-6" points="239.5 331.5 256.96 331.23 243.5 340.5 239.5 331.5"/>
  <polyline class="cls-7" points="282.12 313.02 280.5 395.5 279.5 492.5 286.5 564.5 288.5 686.5 293.5 735.5 326.5 735.5 332.5 733.5 350.5 736.5"/>
  <polyline class="cls-7" points="344.5 734.5 355.5 734.5 365.41 732.97 356.5 666.5 345.46 618.64 344.5 583.5 366.99 597.42 379.5 594.5 384.6 479.27 374.07 365.45 347.5 330.5 321.2 318.45 278.5 311.5"/>
  <line class="cls-7" x1="188.67" y1="323.23" x2="199.87" y2="595.17"/>
  <polyline class="cls-6" points="345.47 591.59 377.28 599.65 380.5 636.5 349.95 640.42 346.37 622.5 345.47 591.59"/>
  <polyline class="cls-6" points="129.53 606.82 152.38 605.92 160.45 625.63 156.86 638.18 147.01 620.26 131.77 621.15 132.67 636.39 138.49 644.9 121.5 642.5 121.47 618.47 129.53 606.82"/>
  <polygon class="cls-7" points="248.52 342.91 255.56 360.53 245.45 366.07 236.5 355.5 243.5 342.5 248.52 342.91"/>
  <polygon class="cls-7" points="248.5 369.5 255.5 399.5 248.5 416.5 233.5 401.5 243.5 369.5 248.5 369.5"/>
  <polyline class="cls-8" points="277.5 341.5 250.7 418.63 221.5 390.5 208.99 311.52 189.31 319.53 197.5 561.5 199.05 637.2 222.5 641.5 252.5 634.5 265.07 647.48 286.5 643.5 283.5 551.5 282.17 495.72 285.44 446.59 279.5 370.5 278.5 340.5"/>
  <path class="cls-8" d="M195.86,640.05l58.68-1.38,22,11.83,10-6s1,90,0,91-32-1-32-1l-4-44h-6l-2,44-40,1-4-22-2.64-73.45"/>
  <polyline class="cls-9" points="208.07 275.33 214.5 275.5 233.5 296.5 266.5 291.5 281.5 268.5 269.57 312.01 245.5 332.5 214.5 306.5 204.5 277.5 208.07 275.33"/>
  <polyline class="cls-10" points="277.3 181.45 288.17 213.62 288.17 242.1 265.5 215.5 263.38 204.27 224.5 206.5 203.38 241.01 200.77 212.75 210.5 181.5 233.16 168.18 262.5 168.5 277.3 181.45"/>
  <polygon class="cls-7" points="182.62 324.12 140.77 334.14 134.87 352.41 119.5 381.5 125.5 603.5 156.5 604.5 163.12 619.39 156.5 641.5 160.5 734.5 199.5 735.5 195.29 558.07 190.48 329.3 183.87 320.28 182.62 324.12"/>
  <circle class="cls-5" cx="230.5" cy="250.5" r="8"/>
  <path d="M188.5,466.57c-.51-29.11-10.57-71.72-13.23-82.51-2.5,0-6.83.15-10.46.43l-4.23-4.8,4.9-23.69c-16.85-.42-31.41-18.14-32.09-19l3.11-6.52c5.35,0,33-8.61,49.1-14,9.12-3.27,20.1-7.88,21.8-9.48a3.65,3.65,0,0,0-.23.29l7.33,2.31c0,.84-1.48,84,36.06,106.48l-4.12,6.86c-17.62-10.57-29.69-33-35.87-66.71a261.49,261.49,0,0,1-4-39.62A190.87,190.87,0,0,1,188.23,324c-3.59,1.2-29.28,9.78-43.65,13.13,5.75,5.36,15.63,12.65,25,10.45l4.84,4.7-4.94,23.86c9.85-.5,10.83.48,11.85,1.5l1,1.83c.55,2.13,13.53,52.58,14.13,86.93Z"/>
  <path d="M266.38,651.36c-6.79,0-9.53-1.63-11-3.18a6.37,6.37,0,0,1-1.81-3.65c-18.93-36.67-33.39-173.75-34-179.62l-.22-2.1,1.62-1.36c24.77-21,53.44-122,53.73-123l7.7,2.16c-1.17,4.17-28.5,100.45-54.66,125.52,1.91,17.53,16.12,143.8,33.33,175.49l.69,1.28c1.76.58,7.51,1.43,23.91-2.27l1.76,7.8C277.79,650.57,271.1,651.36,266.38,651.36Z"/>
  <path d="M221.58,647.77a83.31,83.31,0,0,1-24.35-3.48l2.53-7.59c.26.09,25.88,8.33,50.06-2.83l3.36,7.26A75.34,75.34,0,0,1,221.58,647.77Z"/>
  <path d="M238,444.46c-25.48-14-50.11-70-51.15-72.36l7.34-3.2a326.23,326.23,0,0,0,15.31,29.81c11.77,20.17,23,33.57,32.36,38.75Z"/>
  <path d="M227.75,468.14l-4.54-6.59c.3-.21,30.41-21.49,52.61-73.62l7.36,3.14C260,445.51,229.06,467.24,227.75,468.14Z"/>
  <rect x="359.5" y="724.67" width="8" height="11.66" transform="matrix(0.86, -0.51, 0.51, 0.86, -324.04, 291.12)"/>
  <path d="M284.45,419.12l-7.9-1.24c4.32-27.53,24.82-61.54,34.12-75.87-2.79-.24-6.35-.72-10.91-1.58l-.52-7.72c4-1.34,11.08-7.76,17.14-14-11.7-.27-26.82-3.42-30.73-4.27l1.7-7.82c21.13,4.62,34.57,4.73,37.36,3.33l4.84,6.17A165.35,165.35,0,0,1,311.74,334a18.86,18.86,0,0,0,4.85,0,2.6,2.6,0,0,0-.92.61l6.1,5.13C321.45,340.25,289.67,385.87,284.45,419.12Z"/>
  <path d="M156.84,612.14c-19.31-8.78-30.46-.79-30.93-.45l-6.41-3c-.06-1.46-6-145.79-4-200.32,2.06-56.61,23.17-68.86,24.07-69.35l3.86,7-1.93-3.5,2,3.47c-.18.11-18.12,11.34-20,62.68-1.74,47.77,2.64,165.26,3.75,193.51,5.58-2,14.73-3.63,26.73.28L140.51,441.83l8-.66,14,167Z"/>
  <polygon points="234.02 365.8 208.22 331.8 214.6 326.96 232.98 351.2 238.43 341.38 208.87 315.51 214.13 309.49 248.57 339.62 234.02 365.8"/>
  <polygon points="259.94 366.1 243.41 339.93 278.11 305.24 290.68 307.19 289.44 315.1 280.89 313.76 253.59 341.07 261.06 352.9 275.53 336.82 281.47 342.18 259.94 366.1"/>
  <path d="M367.83,602.05c-13.12,0-23.33-10-27.46-16.45l-.57-.88-10-167.1,8-.48,9.91,165c2.33,3.21,11.59,14.5,24.39,11.46,2.07-15.26,12.48-97.29,6.69-169.55-6.39-79.65-17.15-83.8-57.19-99.21l2.88-7.47c20.34,7.83,35,13.49,44.91,28.45,9.13,13.84,14,35.6,17.37,77.59,6.46,80.56-7,172.94-7.1,173.86l-.35,2.37-2.25.81A26.87,26.87,0,0,1,367.83,602.05Z"/>
  <polygon points="246.38 372.77 233.82 361.47 239.18 355.53 246.62 362.23 254.97 355.4 260.03 361.6 246.38 372.77"/>
  <rect x="216.26" y="380.5" width="41.48" height="8" transform="translate(-196.58 511.08) rotate(-74.63)"/>
  <rect x="250.5" y="364.05" width="8" height="35.9" transform="translate(-78.72 66.31) rotate(-12.87)"/>
  <path d="M244.7,326.5h-.2c-34.45-.17-43.2-44.91-46.78-78.58s.62-57,12.88-71c8-9.19,19.48-14,34-14.42v0c14.51.38,25.95,5.23,34,14.42,12.26,14,16.47,37.22,12.88,71-2.7,25.4-7.31,43.91-14.08,56.59-7.75,14.52-18.76,21.92-32.7,22Zm-.1-156c-12.26.37-21.42,4.19-28,11.69-10.56,12.05-14.24,33.89-11,64.89,6.8,63.86,25.45,71.38,38.93,71.42s32.13-7.56,38.92-71.42c3.3-31-.38-52.84-10.94-64.89C266,174.69,256.86,170.87,244.6,170.5Z"/>
  <path d="M246.5,334.5l-1.23,0-1.23,0v-.12c-30.09-3-40.5-60.29-40.94-62.79l-.83-4.69H207c11.2,0,15.34,7.18,19,13.52,3.91,6.79,7.3,12.69,19.24,13.06,11.94-.37,15.33-6.27,19.24-13.06,3.65-6.34,7.78-13.52,19-13.52h4.76l-.82,4.69c-.44,2.5-10.85,59.8-40.94,62.79ZM212.17,276c4.08,17.68,15.06,49.1,33.1,50.47,18-1.37,29-32.79,33.1-50.47-2.77,1.43-4.53,4.26-6.92,8.43-4,6.86-9.3,16.14-24.95,17v.07H244v-.07c-15.65-.88-21-10.16-24.95-17C216.7,280.24,214.93,277.41,212.17,276Z"/>
  <path d="M243.5,288.64a21.25,21.25,0,0,1-7.4-1.39c-7.43-2.79-5-12.75-2.6-22.39,1.43-5.8,3.59-14.57,1.8-17-3.09-4.11-15.2-.84-20.25,1.29l-3.1-7.38c2.24-.94,22.1-8.91,29.75,1.29,4.07,5.42,1.78,14.7-.43,23.67-1,4.19-2.73,11.09-2.07,13.09,4.25,1.5,7.7.63,9.14-.85.28-.28.58-.69.45-1l7.42-3a8.8,8.8,0,0,1-2.15,9.6A14.59,14.59,0,0,1,243.5,288.64Z"/>
  <path d="M228.5,262.5a12,12,0,1,1,12-12A12,12,0,0,1,228.5,262.5Zm0-16a4,4,0,1,0,4,4A4,4,0,0,0,228.5,246.5Z"/>
  <path d="M253.28,250.08l-3.57-7.16c.66-.33,16.27-8,28.08.3l-4.58,6.56C265.32,244.25,253.4,250,253.28,250.08Z"/>
  <path d="M201.36,246,197.64,239l1.86,3.54L197.63,239c.78-.41,19.08-10.43,20.88-34.76l.42-5.69,5.21,2.34a56.32,56.32,0,0,0,39.9-.08l4.9-1.91.54,5.23c0,.26,3,26.66,18.47,32.68l-2.9,7.46c-15.4-6-20.94-25.21-22.75-34.39a64.33,64.33,0,0,1-36.42.08A51.34,51.34,0,0,1,201.36,246Z"/>
  <path d="M244.4,201.59A65.26,65.26,0,0,1,207,189.65l4.93-6.3-2.47,3.15,2.46-3.16c1.22.95,30.32,22.87,65.44-.18l4.39,6.68C268.12,198.81,255.19,201.59,244.4,201.59Z"/>
  <path d="M287.6,229.4c-7.1-1.64-11.88-9.06-14.2-22.05A104,104,0,0,1,271.93,190l8,.1c-.14,11.8,2.76,30,9.47,31.51Z"/>
  <path d="M200.82,230.4l-1.77-7.8c8.55-1.94,10.11-26.1,9.55-30.81a3.94,3.94,0,0,0,4.34,3.23l-.88-8a4,4,0,0,1,4.44,3.46C217,193.49,217.21,226.68,200.82,230.4Z"/>
  <path d="M245.37,191.29a62.39,62.39,0,0,1-32.07-8.95l4.4-6.68c1.06.7,26.38,16.84,54.75-.09l4.1,6.87A60.13,60.13,0,0,1,245.37,191.29Z"/>
  <path d="M246.43,180.62a49.21,49.21,0,0,1-25.11-6.77l4.35-6.71a41.93,41.93,0,0,0,40,.78l3.58,7.16A50.73,50.73,0,0,1,246.43,180.62Z"/>
  <path d="M241.5,498.5a10,10,0,1,1,10-10A10,10,0,0,1,241.5,498.5Zm0-12a2,2,0,1,0,2,2A2,2,0,0,0,241.5,486.5Z"/>
  <path d="M246.5,535.85a10,10,0,1,1,10-10A10,10,0,0,1,246.5,535.85Zm0-12a2,2,0,1,0,2,2A2,2,0,0,0,246.5,523.85Z"/>
  <path d="M252.5,572.5a10,10,0,1,1,10-10A10,10,0,0,1,252.5,572.5Zm0-12a2,2,0,1,0,2,2A2,2,0,0,0,252.5,560.5Z"/>
  <path d="M259.5,605.5a10,10,0,1,1,10-10A10,10,0,0,1,259.5,605.5Zm0-12a2,2,0,1,0,2,2A2,2,0,0,0,259.5,593.5Z"/>
  <path d="M369,647.62l-5.27-3.46a16.51,16.51,0,0,1-1.9,1.59l-3.76-2.49c-2.43,2.86-4.92,4.24-7.57,4.24a5.89,5.89,0,0,1-5.11-2.55c-2.48-3.67-.36-8.92,2.57-16.19,1.57-3.92,3.54-8.8,3.54-11.26h8c0,4-2.1,9.21-4.12,14.25-.42,1-.9,2.22-1.36,3.42a79.54,79.54,0,0,0,6.65-15.84l6.87,1.83c.95-1.7,2-2.66,4-2.66l3.23,1.6a3.33,3.33,0,0,1,.75,1.42l.9.12c0-2.11-.09-4.11-.24-5.79a100.49,100.49,0,0,0-3.47-18.18l7.66-2.34c1.22,4,11.46,39.42-5.95,48.7l-1.8-1.22A14.83,14.83,0,0,1,369,647.62Zm-18.65-8.1Z"/>
  <path d="M348.84,629.45c-.61-.11-3.81-.82-6.37-4.76-4.47-6.87-4.42-19.38.16-37.19l7.74,2c-5.43,21.14-2.65,28.6-1.2,30.83a12.28,12.28,0,0,0,1,1.22Z"/>
  <path d="M133.86,650.39c-4,0-8-2.51-9.52-3.53-6.28-4-9.31-11.41-8.78-21.34.48-8.85,4.41-21.73,8.15-23.6l3.58,7.16a3,3,0,0,0,1-.77c-1.34,1.8-6.16,14.23-4.42,23.81.68,3.76,2.25,6.38,4.79,8,4,2.56,5.39,2.22,5.41,2.22a4.93,4.93,0,0,0,.51-2.2,16.63,16.63,0,0,1-7.26-14.38c.2-2.41,1.81-10.28,14.18-10.28,7,0,10.67,3,12.51,5.61a17.09,17.09,0,0,1,2.91,9.4,10.58,10.58,0,0,0,.94-2.65c1.83-8.59-6.37-18.72-6.45-18.82l6.17-5.09c.44.53,10.73,13.16,8.11,25.55-1.31,6.21-5.49,11.12-12.4,14.58l-5.58-4.84c.77-2.35,2.4-9.88-.19-13.46-.41-.56-1.65-2.28-6-2.28-3.88,0-6,.94-6.19,2.79-.38,3.07,2.64,7,3.86,7.27l3.29,3.41c.2,1.47.92,8.94-4.15,12.16A8.13,8.13,0,0,1,133.86,650.39Z"/>
  <g>
    <circle cx="143" cy="631" r="9.5"/>
    <path d="M143,644.5A13.5,13.5,0,1,1,156.5,631,13.52,13.52,0,0,1,143,644.5Zm0-19a5.5,5.5,0,1,0,5.5,5.5A5.51,5.51,0,0,0,143,625.5Z"/>
  </g>
  <rect x="142.5" y="639.5" width="8" height="96"/>
  <rect x="135.5" y="639.5" width="8" height="96"/>
  <polygon points="248.53 737 248.1 733.56 241.5 733.41 242.5 688.41 250.47 688 256.47 736 248.53 737"/>
  <path d="M232.44,325.93c-2.18-1.31-5-4.43-10.55-25-2.8-10.36-5-20.48-5-20.58l7.82-1.71c4.88,22.38,10.13,38.54,12.19,40.68a2.36,2.36,0,0,0-.3-.22Z"/>
  <rect x="236.12" y="296.08" width="8" height="27.62" transform="translate(-49.9 46.11) rotate(-9.94)"/>
  <path d="M260.82,322.93l-4.12-6.86a2.36,2.36,0,0,0-.3.22c2.06-2.14,7.31-18.3,12.19-40.68l7.82,1.71c0,.1-2.24,10.22-5,20.58C265.79,318.5,263,321.62,260.82,322.93Z"/>
  <rect x="239.33" y="305.9" width="27.62" height="8" transform="translate(-95.82 505.7) rotate(-80.05)"/>
  <polygon points="284.6 739.56 274.5 312.6 282.5 312.4 292.4 731.44 355.13 730.56 347.52 646.86 355.48 646.14 363.88 738.44 284.6 739.56"/>
  <polygon points="204.62 738.5 154.66 738.5 150.5 637.66 158.5 637.34 162.34 730.5 196.38 730.5 184.5 316.62 192.5 316.38 204.62 738.5"/>
  <circle cx="229" cy="248.5" r="4"/>
  <rect class="cls-4" x="459.5" y="638.5" width="23" height="117"/>
  <rect class="cls-3" x="459.5" y="532.5" width="23" height="107"/>
  <rect class="cls-3" x="459.5" y="309.5" width="23" height="107"/>
  <rect class="cls-4" x="459.5" y="420.5" width="23" height="107"/>
  <rect class="cls-3" x="3.5" y="532.5" width="23" height="107"/>
  <rect class="cls-3" x="355.5" y="734.5" width="104" height="22"/>
  <rect class="cls-4" x="248.5" y="734.5" width="104" height="22"/>
  <rect class="cls-4" x="138.5" y="734.5" width="104" height="22"/>
  <rect class="cls-4" x="-39.5" y="687.5" width="114" height="22" transform="translate(716 681) rotate(90)"/>
  <rect class="cls-4" x="-39.5" y="463.5" width="114" height="22" transform="translate(492 457) rotate(90)"/>
  <rect class="cls-3" x="-38.5" y="353.5" width="114" height="22" transform="translate(383 346) rotate(90)"/>
  <rect class="cls-3" x="26.5" y="734.5" width="109" height="22"/>
  <polygon class="cls-4" points="459.5 309.5 482.5 309.5 479.5 213.5 472.5 196.5 456.5 201.5 460.5 257.5 459.5 309.5"/>
  <path class="cls-4" d="M9.5,196.5l21,8S28,284.66,25.24,309.58L1.5,309.5Z"/>
  <polygon class="cls-3" points="61.5 87.5 79.11 106.56 50.5 147.5 30.5 204.5 9.5 196.5 21.5 156.5 42.5 117.5 61.5 87.5"/>
  <polygon class="cls-4" points="61.5 87.5 99.5 56.5 156.5 24.5 166.22 44.18 116.22 73.22 83.42 102.25 73.74 100.1 61.5 87.5"/>
  <polygon class="cls-3" points="156.5 24.5 208.5 9.5 273.5 11.5 326.5 23.5 319.21 45.74 256.34 31.33 203.27 35.36 169.5 44.5 156.5 24.5"/>
  <path class="cls-4" d="M317.5,42.5l9-19,67,39,30,29-16.26,14.74S371.5,58.5,317.5,42.5Z"/>
  <path class="cls-3" d="M423.5,91.5l-16,15,18.12,25.65S456.5,176.5,456.5,201.5l16-5-11-49Z"/>
  <path d="M485,760H1V246A242,242,0,0,1,414.12,74.88,240.41,240.41,0,0,1,485,246ZM9,752H477V246A234,234,0,0,0,77.54,80.54,232.45,232.45,0,0,0,9,246Z"/>
  <path d="M463.5,739.5H22.5V248A220.5,220.5,0,0,1,398.92,92.08,219.09,219.09,0,0,1,463.5,248Zm-433-8h425V248c0-117.17-95.33-212.5-212.5-212.5S30.5,130.83,30.5,248Z"/>
  <rect x="2.5" y="635.5" width="21" height="8"/>
  <rect x="2.5" y="525.5" width="21" height="8"/>
  <rect x="2.5" y="415.5" width="21" height="8"/>
  <rect x="2.5" y="305.5" width="21" height="8"/>
  <rect x="15" y="189" width="8" height="21" transform="translate(-179.58 172.56) rotate(-76.83)"/>
  <rect x="68" y="87" width="8" height="21" transform="translate(-47.85 79.47) rotate(-45)"/>
  <rect x="158" y="23" width="8" height="21" transform="translate(2.04 75.68) rotate(-26.46)"/>
  <rect x="461.25" y="635.5" width="21" height="8"/>
  <rect x="461.25" y="525.5" width="21" height="8"/>
  <rect x="461.25" y="415.5" width="21" height="8"/>
  <rect x="461.25" y="305.5" width="21" height="8"/>
  <rect x="455.25" y="195.5" width="21" height="8" transform="translate(-33.2 111.33) rotate(-13.17)"/>
  <rect x="402.25" y="93.5" width="21" height="8" transform="translate(51.93 320.38) rotate(-45)"/>
  <rect x="312.25" y="29.5" width="21" height="8" transform="translate(158.21 313.17) rotate(-65.46)"/>
  <rect x="22.5" y="738.5" width="8" height="15"/>
  <rect x="132.5" y="738.5" width="8" height="15"/>
  <rect x="242.5" y="738.5" width="8" height="15"/>
  <rect x="352.5" y="738.5" width="8" height="15"/>
  <rect x="455.5" y="738.5" width="8" height="15"/>
</svg>
