<svg width="19" height="19" viewBox="0 0 19 19" fill="none" xmlns="http://www.w3.org/2000/svg">
<path d="M11.8749 1C12.0849 1 12.2862 1.08341 12.4347 1.23187C12.5832 1.38034 12.6666 1.5817 12.6666 1.79167C12.6666 2.00163 12.5832 2.20299 12.4347 2.35146C12.2862 2.49993 12.0849 2.58333 11.8749 2.58333H3.16659V12.875C3.16659 13.085 3.08318 13.2863 2.93471 13.4348C2.78625 13.5833 2.58488 13.6667 2.37492 13.6667C2.16496 13.6667 1.96359 13.5833 1.81513 13.4348C1.66666 13.2863 1.58325 13.085 1.58325 12.875V2.58333C1.58325 1.7125 2.29575 1 3.16659 1H11.8749Z" fill="#7DE957"/>
<path fill-rule="evenodd" clip-rule="evenodd" d="M15.0417 4.16669H6.33333C5.91341 4.16669 5.51068 4.3335 5.21375 4.63043C4.91681 4.92737 4.75 5.33009 4.75 5.75002V16.8334C4.75 17.2533 4.91681 17.656 5.21375 17.9529C5.51068 18.2499 5.91341 18.4167 6.33333 18.4167H15.0417C15.4616 18.4167 15.8643 18.2499 16.1613 17.9529C16.4582 17.656 16.625 17.2533 16.625 16.8334V5.75002C16.625 5.33009 16.4582 4.92737 16.1613 4.63043C15.8643 4.3335 15.4616 4.16669 15.0417 4.16669ZM15.8742 7.69399C16.1424 7.2112 15.9685 6.6024 15.4857 6.33419C15.0029 6.06597 14.3941 6.23992 14.1259 6.7227L9.87481 14.3747L7.80006 11.6083C7.46869 11.1665 6.84189 11.077 6.40006 11.4083C5.95823 11.7397 5.86869 12.3665 6.20006 12.8083L9.20006 16.8083C9.40337 17.0794 9.73014 17.2291 10.0682 17.206C10.4063 17.1829 10.7097 16.9902 10.8742 16.694L15.8742 7.69399Z" fill="#7DE957"/>
</svg>
