<svg width="19" height="19" viewBox="0 0 19 19" fill="none" xmlns="http://www.w3.org/2000/svg">
<path d="M11.8749 0.791656C12.0849 0.791656 12.2862 0.875064 12.4347 1.02353C12.5832 1.172 12.6666 1.37336 12.6666 1.58332C12.6666 1.79329 12.5832 1.99465 12.4347 2.14312C12.2862 2.29158 12.0849 2.37499 11.8749 2.37499H3.16659V12.6667C3.16659 12.8766 3.08318 13.078 2.93471 13.2264C2.78625 13.3749 2.58488 13.4583 2.37492 13.4583C2.16496 13.4583 1.96359 13.3749 1.81513 13.2264C1.66666 13.078 1.58325 12.8766 1.58325 12.6667V2.37499C1.58325 1.50416 2.29575 0.791656 3.16659 0.791656H11.8749Z" fill="#FFFDEE"/>
<path d="M6.33333 3.95834H15.0417C15.4616 3.95834 15.8643 4.12516 16.1613 4.42209C16.4582 4.71902 16.625 5.12175 16.625 5.54168V16.625C16.625 17.0449 16.4582 17.4477 16.1613 17.7446C15.8643 18.0415 15.4616 18.2083 15.0417 18.2083H6.33333C5.91341 18.2083 5.51068 18.0415 5.21375 17.7446C4.91681 17.4477 4.75 17.0449 4.75 16.625V5.54168C4.75 5.12175 4.91681 4.71902 5.21375 4.42209C5.51068 4.12516 5.91341 3.95834 6.33333 3.95834V3.95834Z" fill="#FFFDEE"/>
</svg>
