<svg width="74" height="72" viewBox="0 0 74 72" fill="none" xmlns="http://www.w3.org/2000/svg">
<path d="M0 6.99999C0 3.134 3.13401 0 7 0H66.3807C70.2467 0 73.3807 3.13401 73.3807 7V64.852C73.3807 68.718 70.2467 71.852 66.3807 71.852H7.00001C3.13402 71.852 0 68.7179 0 64.852V6.99999Z" fill="#FFFDEE"/>
<path fill-rule="evenodd" clip-rule="evenodd" d="M66.3807 3H7C4.79086 3 3 4.79086 3 6.99999V64.852C3 67.0611 4.79087 68.852 7.00001 68.852H66.3807C68.5899 68.852 70.3807 67.0611 70.3807 64.852V7C70.3807 4.79087 68.5899 3 66.3807 3ZM7 0C3.13401 0 0 3.134 0 6.99999V64.852C0 68.7179 3.13402 71.852 7.00001 71.852H66.3807C70.2467 71.852 73.3807 68.718 73.3807 64.852V7C73.3807 3.13401 70.2467 0 66.3807 0H7Z" fill="#2C2A39"/>
<path d="M65.3538 64.2315C65.4418 64.2315 65.5058 64.2595 65.5458 64.3155C65.5938 64.3715 65.6098 64.4395 65.5938 64.5195L65.2098 66.3915C65.1618 66.5835 65.0618 66.6795 64.9098 66.6795H59.1018C59.0138 66.6795 58.9378 66.6515 58.8738 66.5955C58.8098 66.5395 58.7778 66.4715 58.7778 66.3915V66.2355C58.7778 65.7635 58.9178 65.2995 59.1978 64.8435C59.4858 64.3795 59.8298 63.9595 60.2298 63.5835C60.6378 63.2075 61.0418 62.8435 61.4418 62.4915C61.8418 62.1315 62.1818 61.7555 62.4618 61.3635C62.7498 60.9635 62.8938 60.5755 62.8938 60.1995C62.8938 59.7995 62.8058 59.4795 62.6298 59.2395C62.4538 58.9915 62.2418 58.8675 61.9938 58.8675C61.8178 58.8675 61.6698 58.9475 61.5498 59.1075C61.4298 59.2675 61.3298 59.4595 61.2498 59.6835C61.1698 59.9075 61.0818 60.1315 60.9858 60.3555C60.8898 60.5795 60.7498 60.7715 60.5658 60.9315C60.3818 61.0915 60.1578 61.1715 59.8938 61.1715C59.5898 61.1715 59.3378 61.0835 59.1378 60.9075C58.9378 60.7235 58.8378 60.4755 58.8378 60.1635C58.8378 59.5715 59.1458 59.0715 59.7618 58.6635C60.3858 58.2475 61.1418 58.0395 62.0298 58.0395C63.0138 58.0395 63.7898 58.2315 64.3578 58.6155C64.9338 58.9995 65.2218 59.5955 65.2218 60.4035C65.2218 60.8515 65.0898 61.2715 64.8258 61.6635C64.5618 62.0475 64.2298 62.3795 63.8298 62.6595C63.4378 62.9395 63.0338 63.2035 62.6178 63.4515C62.2098 63.6995 61.8298 63.9715 61.4778 64.2675C61.1258 64.5635 60.8938 64.8595 60.7818 65.1555H63.8658C64.0738 65.1555 64.2538 65.1075 64.4058 65.0115C64.5578 64.9155 64.6658 64.8115 64.7298 64.6995C64.8018 64.5795 64.8778 64.4715 64.9578 64.3755C65.0378 64.2795 65.1178 64.2315 65.1978 64.2315H65.3538Z" fill="#2C2A39"/>
<path d="M16.0663 56C15.0423 56 14.5303 55.5947 14.5303 54.784V54.528C14.5303 54.016 14.9569 53.248 15.8103 52.224C16.6636 51.1573 17.0903 50.0907 17.0903 49.024V17.536C17.0903 16.4693 16.6636 15.424 15.8103 14.4C14.9569 13.3333 14.5303 12.544 14.5303 12.032V11.776C14.5303 10.9653 15.0423 10.56 16.0663 10.56H31.1703C40.0876 10.56 47.0209 12.672 51.9703 16.896C56.9623 21.12 59.4583 26.6667 59.4583 33.536C59.4583 40.2347 57.1543 45.6533 52.5463 49.792C47.9809 53.9307 41.9223 56 34.3703 56H16.0663ZM34.1143 51.52H36.6743C39.8316 51.52 42.3916 50.432 44.3543 48.256C46.3169 46.08 47.2983 42.9653 47.2983 38.912C47.2983 34.7733 46.6583 30.8907 45.3783 27.264C44.0983 23.5947 42.2849 20.6507 39.9383 18.432C37.5916 16.1707 34.9889 15.04 32.1303 15.04H31.4263C29.5063 15.04 28.5463 16.064 28.5463 18.112V44.928C28.5463 47.0187 29.0369 48.64 30.0183 49.792C30.9996 50.944 32.3649 51.52 34.1143 51.52Z" fill="#2C2A39"/>
</svg>
