<svg id="Layer_1" data-name="Layer 1" xmlns="http://www.w3.org/2000/svg" viewBox="0 0 485 760">
  <defs>
    <style>
      .cls-1 {
        fill: #787fff;
      }

      .cls-2 {
        fill: #5061ff;
      }

      .cls-3 {
        fill: #fff;
      }

      .cls-4 {
        fill: #ffbd7b;
      }

      .cls-5 {
        fill: #ff4848;
      }

      .cls-6 {
        fill: #bb2121;
      }
    </style>
  </defs>
  <title>Dienstmaagden</title>
  <polyline class="cls-1" points="340.91 342.27 456.75 454.33 458.81 732.77 420 732.77 297.46 370.88 340.91 342.27"/>
  <path class="cls-1" d="M383.9,245.82h73s1-98-62-148l-53,51S384.9,199.82,383.9,245.82Z"/>
  <path class="cls-1" d="M246.9,111.82s-53,4-91,39l-61-61s28-30,74-46,79-12,79-12Z"/>
  <path class="cls-1" d="M26.9,246.82l86-1s2,55,40,93l-125,127Z"/>
  <polygon class="cls-1" points="77.9 733.82 168.9 735.82 191.9 513.82 151.9 517.82 77.9 733.82"/>
  <path class="cls-1" d="M246.9,111.82s76,8,95,37l-14,15s-38-33-78-30Z"/>
  <path class="cls-1" d="M363.9,244.82l17-1s7,47-37,96l-14-8S360.9,287.82,363.9,244.82Z"/>
  <polygon class="cls-1" points="168.9 326.82 194.9 346.82 187.9 362.82 152.9 338.82 168.9 326.82"/>
  <path class="cls-1" d="M155.9,150.82l14,14s-33,28-34,80h-19S122.9,172.82,155.9,150.82Z"/>
  <path class="cls-2" d="M384.6,242.87h72.07V458.25L343.9,339.82S385.3,300.92,384.6,242.87Z"/>
  <path class="cls-2" d="M333.9,245.82c-.77-.64,28,0,28,0s2,36-13,52C348.9,297.82,352.9,261.82,333.9,245.82Z"/>
  <path class="cls-2" d="M249.9,133.82l-2,43,35,28,45-41S287.9,128.82,249.9,133.82Z"/>
  <path class="cls-2" d="M167.66,166.09l31.68,29.07L179.9,245.82l-44-1S129.68,204.53,167.66,166.09Z"/>
  <path class="cls-2" d="M155.9,150.82l14,14s35-36,80-31l-3-22S174.9,119.82,155.9,150.82Z"/>
  <path class="cls-2" d="M135.9,244.82s-7,44,33,82l-15.7,14.77s-38.3-34.77-36.3-96.77Z"/>
  <path class="cls-2" d="M151.9,151.82s-36,40-38,91h-86s2-56,14-77,45-77,53-76Z"/>
  <path class="cls-2" d="M251,112.91s54.95,5.91,90.95,35.91l53-55s-60-60-143-63Z"/>
  <path class="cls-2" d="M330.9,166.82s33,41,31,79l19-2s-2.59-64.36-40.8-91.68Z"/>
  <path class="cls-1" d="M286.1,206.65l38.72-39.73s39.08,17.9,37.08,78.9l-24.85-1Z"/>
  <path class="cls-1" d="M194.39,189.84l-24.49-25s20.09-23.91,54-27.45,21.91-4.59,21.91-4.59l2.05,44s-15-15-17-14S194.39,189.84,194.39,189.84Z"/>
  <path class="cls-1" d="M176.56,245.88l-41.26,2s3.6,54.9,33.6,78.9l13-14Z"/>
  <polygon class="cls-2" points="181.9 312.82 168.9 326.82 184.26 339.56 191.9 337.82 181.9 312.82"/>
  <polygon class="cls-2" points="152.9 341.82 27.9 465.82 26.9 733.82 77.9 733.82 151.9 517.82 122.9 488.82 116.9 461.82 132.9 422.82 172.9 381.82 172.9 356.82 152.9 341.82"/>
  <polygon class="cls-2" points="325.78 466 419.9 732.82 329.9 735.82 331.9 506.82 325.78 466"/>
  <polygon class="cls-2" points="290.9 354.82 319.9 336.82 334.66 334.47 337.7 345.59 297.9 370.82 290.9 354.82"/>
  <polygon class="cls-1" points="289.9 351.82 312.9 339.82 298.9 334.82 289.9 351.82"/>
  <polygon class="cls-1" points="284.9 354.82 290.9 360.82 287.9 366.82 279.9 362.82 284.9 354.82"/>
  <path d="M248.9,383.82c-75.54,0-137-61.46-137-137s61.46-137,137-137,137,61.46,137,137S324.44,383.82,248.9,383.82Zm0-266a129,129,0,1,0,129,129A129.15,129.15,0,0,0,248.9,117.82Z"/>
  <path d="M248.9,364.25A117.43,117.43,0,1,1,366.33,246.82,117.56,117.56,0,0,1,248.9,364.25Zm0-228A110.57,110.57,0,1,0,359.47,246.82,110.69,110.69,0,0,0,248.9,136.25Z"/>
  <rect x="244.4" y="28.82" width="8" height="217.5"/>
  <rect x="167.45" y="58.63" width="8" height="219" transform="translate(-68.67 170.48) rotate(-45)"/>
  <rect x="25.9" y="241.07" width="223.75" height="8"/>
  <rect x="-20.43" y="353.14" width="315.52" height="8" transform="translate(-212.33 201.74) rotate(-45)"/>
  <rect x="214.99" y="166.88" width="211.22" height="8" transform="translate(-26.94 276.71) rotate(-45)"/>
  <rect x="245.15" y="241.07" width="212.75" height="8"/>
  <rect x="348.65" y="201.35" width="8.13" height="302.08" transform="translate(-145.87 352.63) rotate(-45)"/>
  <rect x="331.41" y="229.75" width="8" height="519.94" transform="translate(-142.93 138.27) rotate(-19.29)"/>
  <rect x="-96.56" y="485.71" width="519.94" height="8" transform="translate(-352.79 482.18) rotate(-70.71)"/>
  <rect x="286.4" y="353.82" width="8" height="382"/>
  <rect x="286.9" y="36.82" width="8" height="84"/>
  <rect x="328.9" y="350.82" width="8" height="385"/>
  <rect x="328.9" y="51.82" width="8" height="92"/>
  <rect x="371.4" y="288.82" width="8" height="447"/>
  <rect x="371.9" y="74.82" width="8" height="130"/>
  <rect x="413.9" y="117.82" width="8" height="618"/>
  <rect x="66.4" y="117.82" width="8" height="618"/>
  <rect x="110.9" y="72.82" width="8" height="663"/>
  <rect x="154.9" y="44.82" width="8" height="103"/>
  <rect x="154.9" y="345.82" width="8" height="103"/>
  <rect x="201.9" y="30.82" width="8" height="88"/>
  <polygon class="cls-3" points="329.9 731.82 331.9 641.82 353.9 652.82 381.9 657.82 394.9 638.82 394.9 618.82 382.9 610.82 361.9 606.82 349.9 596.82 338.9 598.82 331.9 594.82 327.9 483.82 308.9 384.82 299.9 382.82 293.29 371.44 275.51 357.76 285.9 349.82 292.9 335.82 307.9 338.82 333.9 336.82 349.9 317.82 348.9 278.82 335.9 248.82 314.9 229.82 232.9 165.82 197.9 187.82 182.9 217.82 177.9 272.82 184.9 323.82 189.9 332.82 180.9 343.82 172.9 368.82 172.9 382.82 128.9 426.82 119.9 457.82 119.9 481.82 140.9 508.82 156.9 516.82 127.9 731.82 329.9 731.82"/>
  <path class="cls-4" d="M314.9,235.82s13,31-5,69-40,63-40,63v20s18,4,19,16-4,7-4,7-28-22-41-18,8-17-26-26l3-26,21-42,35-43S305.9,231.82,314.9,235.82Z"/>
  <path class="cls-4" d="M334.9,598.82l8-1,17,1,6,13,17-1,11,10s3,14,2,16-6.27,16.39-6.27,16.39l-19.73,2.61-23-7-17.83-11.61,12.83-12.39Z"/>
  <polygon class="cls-5" points="330.34 728.47 328.9 636.82 318.9 642.82 305.9 635.82 322.9 620.82 313.9 590.82 328.9 594.82 331.26 519.95 312.97 403.79 292.9 429.82 269.9 413.82 243.9 409.82 212.9 423.82 190.9 451.82 172.9 492.82 162.9 540.82 154.9 583.82 149.9 641.82 141.94 736.7 329.9 735.82 330.34 728.47"/>
  <polygon class="cls-6" points="313.9 590.82 322.9 620.82 305.9 635.82 319.9 639.82 341.9 624.82 328.9 594.82 313.9 590.82"/>
  <polygon class="cls-6" points="290.61 425.92 311.9 398.82 305.9 383.82 284.9 410.82 254.66 394.22 223.9 399.82 190.9 428.82 171.9 466.82 153.9 543.82 127.9 731.82 143.49 732.92 152 608.99 172.9 492.82 195.9 438.82 220.6 419.29 237.9 409.82 263.9 409.82 290.61 425.92"/>
  <polygon class="cls-5" points="237.15 398 216.9 376.82 185.9 383.82 142.9 428.82 127.9 454.82 135.9 482.82 159.9 508.82 175.66 459.03 190.9 428.82 214.92 405.1 237.15 398"/>
  <polygon class="cls-5" points="289.88 400.75 301.17 382.23 279.9 362.82 269.33 370.36 270.2 385.99 289.88 400.75"/>
  <polygon class="cls-5" points="220.99 344.02 213.9 339.82 203.9 345.82 194.9 346.82 184.9 372.82 214.9 366.82 220.99 344.02"/>
  <path class="cls-6" d="M243.9,392.82l-21-24.66-29,.66-36,24-27.42,38-12.19,26.57,7.32,34.13,29.29,28.31,5-11s-25.06-29.47-25-30.23-6-30.77-6-30.77l12-17,23-28,25-18,24.95-6.42,19.05,12.42,4,7,7-5"/>
  <polygon class="cls-6" points="199.9 344.82 189.9 355.82 184.9 372.82 176.31 380.35 174.9 364.82 188.9 336.82 199.9 344.82"/>
  <polygon class="cls-3" points="295.9 267.82 316.9 265.82 315.9 280.82 302.9 281.82 295.9 267.82"/>
  <path d="M203.9,348.82c-5.16,0-9.76-2.34-13.67-7-9.95-11.75-13.58-36.33-14.87-54.88-1.53-21.85-.53-47.07,2.59-65.82,7.32-43.9,51.84-58.55,53.74-59.15l2-.64,96.67,75.3c.95.73,23.54,18.76,23.54,68.15,0,14.16-4.42,24.58-13.14,31-17.3,12.68-44.9,4.2-46.06,3.84l2.4-7.63c.24.07,24.93,7.62,38.94-2.67,6.54-4.81,9.86-13.06,9.86-24.52,0-23.64-5.58-39.21-10.26-48.11-5.05-9.59-10.15-13.7-10.2-13.74l-6-4.7-.08.51c-30.6-4.45-55.85,35.54-76.14,67.67C228.23,330.13,216.42,348.82,203.9,348.82Zm28.29-178.48c-8.27,3.24-40.65,18-46.35,52.14-3,18.17-4,42.67-2.5,63.94,1.71,24.54,6.32,42.39,13,50.26,2.36,2.79,4.84,4.14,7.57,4.14,8.11,0,20.52-19.64,32.51-38.64,19.31-30.57,42.85-67.85,73.29-71.47Z"/>
  <path d="M266.51,370.75c-20.06,0-48.19-25.61-51.68-28.86l5.46-5.86c13.34,12.43,38.77,30.49,50.16,26.06,6.93-2.69,21.07-22.35,31.83-49.41,12.14-30.52,15.6-58.61,9.51-77.08l7.59-2.51c9.48,28.72-3.6,67.29-9.66,82.54-12.85,32.33-27.86,50.61-36.37,53.92A18.65,18.65,0,0,1,266.51,370.75Z"/>
  <path d="M283.83,326c-1.17,0-2.29-.08-3.31-.18-3.3-.31-13.35-1.27-15.61-8-2-5.93,3.64-11.31,4.29-11.91l5.4,5.9c-1.32,1.24-2.25,3-2.11,3.46,0,0,1.1,1.88,8.79,2.61,5.1.49,6.12-.49,6.22-.6,1-1.14-.22-6.77-1.13-10.87-1.45-6.59-3.25-14.79-2.46-23.89.65-7.43,3.55-13.06,8.64-16.76,9.69-7.05,23.66-3.93,24.25-3.8l-1.79,7.8c-.11,0-11.06-2.42-17.78,2.49-3.16,2.3-4.9,5.89-5.35,11-.68,7.89,1,15.42,2.31,21.48,1.68,7.66,3,13.71-.7,17.9C291,325.32,287.25,326,283.83,326Z"/>
  <path d="M273.46,282c-.29-.22-7.1-5.29-13.62-1.67l-3.88-7c11.18-6.22,21.94,2,22.4,2.34Z"/>
  <path d="M293.9,407.82h-8c0-11.95-17.16-18.16-17.33-18.22l-2.63-.94-.22-19.73,8-.08.15,14.28C279.88,385.83,293.9,393.66,293.9,407.82Z"/>
  <path d="M298,388.57c-3.45-18.12-18.77-22.42-19.42-22.59l2-7.74a36.57,36.57,0,0,1,25.27,28.83Z"/>
  <path d="M132.86,733.35l-7.93-1.06c3.26-24.42,6.15-49.25,8.94-73.27,6.44-55.33,12.51-107.59,22.41-151.12,11.28-49.63,25.92-80.5,46.07-97.16,18.76-15.52,36.89-22.19,53.87-19.84A50.59,50.59,0,0,1,285.29,406l14.85-25.33,1.27-.51a8.28,8.28,0,0,1,6.67.41c2.75,1.4,4.67,4.21,5.7,8.33,1.15,4.62,28.23,114.19,23.11,205.2l-8-.45c5-89.81-21.75-198.24-22.89-202.81a8.47,8.47,0,0,0-1-2.6l-18.8,32.07-3.56-5.17c-.09-.12-9.89-13.88-27.6-16.28-14.64-2-30.64,4.1-47.56,18.1-41.34,34.18-53.14,135.63-65.63,243C139,684,136.13,708.86,132.86,733.35Z"/>
  <path d="M146.61,733.55l-8-.26c.34-10.34,8.95-253.81,61.52-304.35,17.88-17.2,36.22-25.38,54.53-24.34s31.43,11,37.54,16.75l16.12-26.08,6.8,4.21-21.75,35.19-3.55-4.3c-.14-.16-14.07-16.59-35.72-17.79-16-.88-32.25,6.56-48.43,22.13C155.43,483,146.69,731.05,146.61,733.55Z"/>
  <path d="M154.74,523.19c-26.22-16.83-39.57-36.64-39.7-58.88-.11-17.36,7.84-35.66,23.62-54.38,15.54-18.46,34.26-32,44-38.45,13.23-8.71,25.73-11.32,37.14-7.74,18.92,5.94,27.42,26.72,27.77,27.6l-7.42,3c-.08-.18-7.51-18.18-22.79-22.95-9-2.81-19.19-.52-30.3,6.8C156,398.64,122.85,432,123,464.26c.11,19.36,12.23,36.92,36,52.2Z"/>
  <path d="M157,513.22a112.38,112.38,0,0,1-21.78-23.81c-12.78-19.2-14-37.47-3.65-52.83,16.46-24.34,52.09-65,81-63.13,11.36.74,20.39,7.67,26.85,20.58l-7.16,3.58c-5.17-10.33-11.78-15.63-20.21-16.18-10.52-.69-24.09,6.08-39.27,19.58-17.07,15.19-29.9,33.07-34.63,40.05-20.63,30.5,23.29,65.51,23.74,65.86Z"/>
  <path d="M186.74,377l-8-.5c2-32,22.67-35.46,23.55-35.59l1.2,7.91-.6-4,.64,3.95C202.92,348.88,188.33,351.73,186.74,377Z"/>
  <path d="M169.9,380.92c-1.08-44.38,20.85-46,21.79-46.09l.42,8h.09c-.15,0-15.18,1.95-14.3,37.91Z"/>
  <rect x="206.73" y="350.55" width="24.94" height="8" transform="translate(-187.04 447.95) rotate(-71.22)"/>
  <path d="M302.9,286.82a9.16,9.16,0,0,1-7.52-3.48c-4.17-5.29-2.22-14.5-1.79-16.29l7.78,1.87-3.89-.94,3.89.93c-.7,2.94-1,7.87.29,9.48.13.16.34.43,1.24.43a17.51,17.51,0,0,0,11.58-4.21l5.62,5.69A25.63,25.63,0,0,1,302.9,286.82Z"/>
  <circle cx="306.9" cy="273.82" r="4"/>
  <rect x="118.84" y="627.36" width="207.37" height="8" transform="translate(-434.84 757.86) rotate(-81.48)"/>
  <polygon points="321.81 645.06 223.67 626.5 225.16 618.64 319.99 636.58 338.77 623.52 326.06 598.09 234.63 567.62 237.16 560.03 331.74 591.55 349.02 626.13 321.81 645.06"/>
  <polygon points="305.84 640.23 300.98 633.88 320.89 618.62 307.88 591.32 315.1 587.88 330.9 621.03 305.84 640.23"/>
  <path d="M365.11,621.51a11.24,11.24,0,0,1-2-.18c-5.61-1-11.5-5.73-17.48-14.2l6.54-4.61c4.13,5.85,7.48,8.73,9.86,10-2.87-6.57-6.42-10.67-10.4-12-4.91-1.61-9.35,1.44-9.39,1.48l-1.72,1.24-13-4.73,2.74-7.52,9.24,3.36A19.16,19.16,0,0,1,354.12,593c7.64,2.5,13.55,10.1,17.59,22.6l.89,2.79-2.38,1.7A9,9,0,0,1,365.11,621.51Z"/>
  <path d="M347.78,651.14c-3.7,0-8.13-1.7-13.43-5.15a71.34,71.34,0,0,1-8.13-6.2l5.36-5.94c5.71,5.15,13.89,10.07,16.94,9.2l2.19,7.69A10.37,10.37,0,0,1,347.78,651.14Z"/>
  <path d="M371.9,660.88a34.73,34.73,0,0,1-9.06-1.2c-12.38-3.41-18.61-8.21-19-14.67-.38-5.71,3.92-11.36,13.15-17.27a93.77,93.77,0,0,1,11.66-6.28,15.11,15.11,0,0,0,2-2.58c-.16,0-.36-.06-.58-.08l.72-7.19a32.89,32.89,0,0,0-4.3.18l-1.05-7.93c.67-.09,16.59-2.1,26.67,6.72,5.21,4.57,7.86,11,7.86,19.24,0,14.45-5.81,21.91-10.68,25.62A28.39,28.39,0,0,1,371.9,660.88Zm3-49a6.65,6.65,0,0,1,3.68,4c1.72,5-3.37,10.36-5,11.88l-.52.49-.66.28c-10.22,4.36-21,11.82-20.69,16,.12,1.91,3.66,4.88,13.18,7.5,5.55,1.52,13.56,1.57,19.41-2.89,5-3.81,7.53-10.29,7.53-19.26,0-5.86-1.67-10.18-5.11-13.2S378.89,612.4,374.94,611.9Z"/>
  <path d="M369.06,648.89c-12.37,0-17-8.23-17.76-12.83l7.9-1.25-3.95.63,3.94-.69c1.28,6.61,10.39,6.16,11.42,6.08l.57,8C370.45,648.86,369.75,648.89,369.06,648.89Z"/>
  <path d="M371,638.76a9.16,9.16,0,0,1-4.68-1.23c-4.62-2.72-5.28-8.68-5.34-9.35l8-.72-4,.36,4-.39c.11,1,.69,2.77,1.44,3.2.49.29,1.56.11,2.85-.46l3.25,7.31A13.54,13.54,0,0,1,371,638.76Z"/>
  <rect x="325.96" y="635.82" width="8" height="98.04" transform="translate(-0.83 0.4) rotate(-0.07)"/>
  <rect class="cls-1" x="458.9" y="637.82" width="23" height="117"/>
  <rect class="cls-2" x="458.9" y="531.82" width="23" height="107"/>
  <rect class="cls-2" x="458.9" y="308.82" width="23" height="107"/>
  <rect class="cls-1" x="458.9" y="419.82" width="23" height="107"/>
  <rect class="cls-2" x="2.9" y="531.82" width="23" height="107"/>
  <rect class="cls-2" x="354.9" y="733.82" width="104" height="22"/>
  <rect class="cls-1" x="247.9" y="733.82" width="104" height="22"/>
  <rect class="cls-1" x="137.9" y="733.82" width="104" height="22"/>
  <rect class="cls-1" x="-40.1" y="686.82" width="114" height="22" transform="translate(714.72 680.92) rotate(90)"/>
  <rect class="cls-1" x="-40.1" y="462.82" width="114" height="22" transform="translate(490.72 456.92) rotate(90)"/>
  <rect class="cls-2" x="-39.1" y="352.82" width="114" height="22" transform="translate(381.72 345.92) rotate(90)"/>
  <rect class="cls-2" x="25.9" y="733.82" width="109" height="22"/>
  <polygon class="cls-1" points="458.9 308.82 481.9 308.82 478.9 212.82 471.9 195.82 455.9 200.82 459.9 256.82 458.9 308.82"/>
  <path class="cls-1" d="M8.9,195.82l21,8S27.38,284,24.64,308.9L.9,308.82Z"/>
  <polygon class="cls-2" points="60.9 86.82 78.51 105.88 49.9 146.82 29.9 203.82 8.9 195.82 20.9 155.82 41.9 116.82 60.9 86.82"/>
  <polygon class="cls-1" points="60.9 86.82 98.9 55.82 155.9 23.82 165.63 43.5 115.62 72.54 82.81 101.58 73.14 99.42 60.9 86.82"/>
  <polygon class="cls-2" points="155.9 23.82 207.9 8.82 272.9 10.82 325.9 22.82 318.61 45.07 255.74 30.65 202.67 34.69 168.9 43.82 155.9 23.82"/>
  <path class="cls-1" d="M316.9,41.82l9-19,67,39,30,29-16.26,14.75S370.9,57.82,316.9,41.82Z"/>
  <path class="cls-2" d="M422.9,90.82l-16,15L425,131.48s30.89,44.34,30.89,69.34l16-5-11-49Z"/>
  <path d="M484.4,759.32H.4v-514a242,242,0,0,1,242-242h0a242,242,0,0,1,242,242Zm-476-8h468v-506A234,234,0,0,0,76.94,79.86,232.46,232.46,0,0,0,8.4,245.32Z"/>
  <path d="M462.9,738.82H21.9V247.32A220.51,220.51,0,0,1,242.4,26.82h0a220.51,220.51,0,0,1,220.5,220.5Zm-433-8h425V247.32c0-117.17-95.33-212.5-212.5-212.5S29.9,130.15,29.9,247.32Z"/>
  <rect x="1.9" y="634.82" width="21" height="8"/>
  <rect x="1.9" y="524.82" width="21" height="8"/>
  <rect x="1.9" y="414.82" width="21" height="8"/>
  <rect x="1.9" y="304.82" width="21" height="8"/>
  <rect x="14.4" y="188.32" width="8" height="21" transform="translate(-179.39 171.45) rotate(-76.83)"/>
  <rect x="67.4" y="86.32" width="8" height="21" transform="translate(-47.55 78.84) rotate(-45)"/>
  <rect x="157.4" y="22.32" width="8" height="21" transform="translate(2.28 75.34) rotate(-26.45)"/>
  <rect x="460.65" y="634.82" width="21" height="8"/>
  <rect x="460.65" y="524.82" width="21" height="8"/>
  <rect x="460.65" y="414.82" width="21" height="8"/>
  <rect x="460.65" y="304.82" width="21" height="8"/>
  <rect x="454.65" y="194.82" width="21" height="8" transform="translate(-33.06 111.17) rotate(-13.17)"/>
  <rect x="401.65" y="92.82" width="21" height="8" transform="translate(52.23 319.76) rotate(-45)"/>
  <rect x="311.65" y="28.82" width="21" height="8" transform="translate(158.47 312.23) rotate(-65.46)"/>
  <rect x="21.9" y="737.82" width="8" height="15"/>
  <rect x="131.9" y="737.82" width="8" height="15"/>
  <rect x="241.9" y="737.82" width="8" height="15"/>
  <rect x="351.9" y="737.82" width="8" height="15"/>
  <rect x="454.9" y="737.82" width="8" height="15"/>
</svg>
