<svg width="74" height="72" viewBox="0 0 74 72" fill="none" xmlns="http://www.w3.org/2000/svg">
<path d="M0.580078 6.99999C0.580078 3.134 3.71409 0 7.58008 0H66.9608C70.8268 0 73.9608 3.13401 73.9608 7V64.852C73.9608 68.718 70.8268 71.852 66.9608 71.852H7.58009C3.7141 71.852 0.580078 68.7179 0.580078 64.852V6.99999Z" fill="#FFFDEE"/>
<path fill-rule="evenodd" clip-rule="evenodd" d="M66.9608 3H7.58008C5.37093 3 3.58008 4.79086 3.58008 6.99999V64.852C3.58008 67.0611 5.37094 68.852 7.58009 68.852H66.9608C69.1699 68.852 70.9608 67.0611 70.9608 64.852V7C70.9608 4.79087 69.1699 3 66.9608 3ZM7.58008 0C3.71409 0 0.580078 3.134 0.580078 6.99999V64.852C0.580078 68.7179 3.7141 71.852 7.58009 71.852H66.9608C70.8268 71.852 73.9608 68.718 73.9608 64.852V7C73.9608 3.13401 70.8268 0 66.9608 0H7.58008Z" fill="#2C2A39"/>
<path d="M61.3192 66.6795C61.1272 66.6795 61.0312 66.6035 61.0312 66.4515V66.4035C61.0312 66.3155 61.0872 66.2155 61.1992 66.1035C61.3192 65.9915 61.4352 65.8635 61.5472 65.7195C61.6672 65.5755 61.7272 65.4195 61.7272 65.2515V60.4755C61.7272 60.2995 61.6832 60.1635 61.5952 60.0675C61.5072 59.9635 61.4072 59.8955 61.2952 59.8635C61.1912 59.8315 61.0952 59.7875 61.0072 59.7315C60.9192 59.6675 60.8752 59.5875 60.8752 59.4915V59.4315C60.8752 59.2875 60.9952 59.1595 61.2352 59.0475L63.1312 58.2315C63.4352 58.1195 63.6752 58.1075 63.8512 58.1955C64.0352 58.2755 64.1272 58.4035 64.1272 58.5795C64.1272 58.6835 64.0832 58.8315 63.9952 59.0235C63.9072 59.2155 63.8632 59.4395 63.8632 59.6955V65.2515C63.8632 65.4195 63.9232 65.5755 64.0432 65.7195C64.1712 65.8635 64.2952 65.9915 64.4152 66.1035C64.5352 66.2155 64.5952 66.3155 64.5952 66.4035V66.4515C64.5952 66.6035 64.4992 66.6795 64.3072 66.6795H61.3192Z" fill="#2C2A39"/>
<path d="M21.7535 56C20.7295 56 20.2175 55.5947 20.2175 54.784V54.528C20.2175 54.016 20.6442 53.248 21.4975 52.224C22.3509 51.1573 22.7775 50.0693 22.7775 48.96V17.6C22.7775 16.4907 22.3509 15.424 21.4975 14.4C20.6442 13.3333 20.2175 12.544 20.2175 12.032V11.776C20.2175 10.9653 20.7082 10.56 21.6895 10.56H51.0015C51.6842 10.56 52.1749 10.7093 52.4735 11.008C52.8149 11.3067 53.0495 11.8187 53.1775 12.544L54.7135 20.608C54.7989 21.1627 54.6922 21.6107 54.3935 21.952C54.0949 22.2933 53.6682 22.464 53.1135 22.464H52.7935C51.9829 22.464 51.1509 22.08 50.2975 21.312C49.4869 20.5013 48.7615 19.648 48.1215 18.752C47.5242 17.8133 46.7349 16.96 45.7535 16.192C44.8149 15.3813 43.8335 14.976 42.8095 14.976H37.1775C35.2575 14.976 34.2975 16.0213 34.2975 18.112V30.656H41.0175C41.7855 30.656 42.4682 30.4 43.0655 29.888C43.6629 29.3333 44.1109 28.736 44.4095 28.096C44.7082 27.456 45.0495 26.88 45.4335 26.368C45.8602 25.8133 46.2655 25.536 46.6495 25.536H47.1615C48.0149 25.536 48.4415 26.0267 48.4415 27.008V38.528C48.4415 39.5093 48.0149 40 47.1615 40H46.6495C46.2655 40 45.8602 39.744 45.4335 39.232C45.0495 38.72 44.7082 38.1653 44.4095 37.568C44.1109 36.9707 43.6629 36.416 43.0655 35.904C42.4682 35.392 41.7855 35.136 41.0175 35.136H34.2975V46.912C34.2975 48.192 34.5962 49.3013 35.1935 50.24C35.7909 51.136 36.7722 51.584 38.1375 51.584H44.8575C45.8815 51.584 46.8202 51.1787 47.6735 50.368C48.5695 49.5147 49.2949 48.5973 49.8495 47.616C50.4042 46.6347 51.0655 45.7387 51.8335 44.928C52.6442 44.0747 53.4762 43.648 54.3295 43.648H54.9055C55.3749 43.648 55.7375 43.8613 55.9935 44.288C56.2495 44.672 56.3349 45.0987 56.2495 45.568L54.8415 53.952C54.7135 54.6773 54.4789 55.2107 54.1375 55.552C53.8389 55.8507 53.3269 56 52.6015 56H21.7535Z" fill="#2C2A39"/>
</svg>
