<svg id="Layer_1" data-name="Layer 1" xmlns="http://www.w3.org/2000/svg" viewBox="0 0 485 760">
  <defs>
    <style>
      .cls-1 {
        fill: #ffe300;
      }

      .cls-2 {
        fill: #ffcb00;
      }

      .cls-3 {
        fill: #787fff;
      }

      .cls-4 {
        fill: #5061ff;
      }

      .cls-5 {
        fill: #ffbd7b;
      }

      .cls-6 {
        fill: #fff;
      }

      .cls-7 {
        fill: #29a4db;
      }

      .cls-8 {
        fill: #fff37d;
      }
    </style>
  </defs>
  <title>Echtgenotes</title>
  <polyline class="cls-1" points="450.09 424.56 479.94 440.6 479.05 462.87 450.98 451.29 450.09 424.56"/>
  <polygon class="cls-2" points="480.84 212.62 450.55 252.72 453.46 424.51 480.85 436.96 480.84 212.62"/>
  <polyline class="cls-3" points="341.35 342.06 457.19 454.13 459.25 732.56 420.44 732.56 297.91 370.67 341.35 342.06"/>
  <path class="cls-3" d="M384.34,245.62h73s1-98-62-148l-53,51S385.34,199.62,384.34,245.62Z"/>
  <path class="cls-3" d="M247.34,111.62s-53,4-91,39l-61-61s28-30,74-46,79-12,79-12Z"/>
  <path class="cls-3" d="M27.34,246.62l86-1s2,55,40,93l-125,127Z"/>
  <polygon class="cls-3" points="78.34 733.62 169.34 735.62 192.34 513.62 152.34 517.62 78.34 733.62"/>
  <path class="cls-3" d="M247.34,111.62s76,8,95,37l-14,15s-38-33-78-30Z"/>
  <path class="cls-3" d="M364.34,244.62l17-1s7,47-37,96l-14-8S361.34,287.62,364.34,244.62Z"/>
  <polygon class="cls-3" points="169.34 326.62 201.34 350.62 188.34 362.62 153.34 338.62 169.34 326.62"/>
  <path class="cls-3" d="M156.34,150.62l14,14s-33,28-34,80h-19S123.34,172.62,156.34,150.62Z"/>
  <path class="cls-4" d="M385,242.67h72.07V458.05L344.34,339.62S385.74,300.72,385,242.67Z"/>
  <path class="cls-4" d="M301.34,246.62c-.77-.65,61-1,61-1s2,36-13,52C349.34,297.62,320.34,262.62,301.34,246.62Z"/>
  <path class="cls-4" d="M250.34,133.62l-2,43,35,28,45-41S288.34,128.62,250.34,133.62Z"/>
  <path class="cls-4" d="M168.1,165.88l37.24,35.74-25,44-44-1S130.12,204.32,168.1,165.88Z"/>
  <path class="cls-4" d="M156.34,150.62l14,14s35-36,80-31l-3-22S175.34,119.62,156.34,150.62Z"/>
  <path class="cls-4" d="M136.34,244.62s-7,44,33,82l-15.7,14.76s-38.3-34.76-36.3-96.76Z"/>
  <path class="cls-4" d="M152.34,151.61s-36,40-38,91h-86s2-56,14-77,45-77,53-76Z"/>
  <path class="cls-4" d="M251.39,112.71s54.95,5.91,90.95,35.91l53-55s-60-60-143-63Z"/>
  <path class="cls-4" d="M331.34,166.62s33,41,31,79l19-2s-2.59-64.37-40.8-91.69Z"/>
  <path class="cls-3" d="M286.54,206.45l38.72-39.74s39.08,17.91,37.08,78.91l-61,1Z"/>
  <path class="cls-3" d="M206.34,200.62l-36-36s20.09-23.92,54-27.46,21.91-4.59,21.91-4.59l2.05,44.05s-15-2-17-1S206.34,200.62,206.34,200.62Z"/>
  <path class="cls-3" d="M177,245.68l-41.26,2s3.6,54.9,33.6,78.9l13-14Z"/>
  <polygon class="cls-4" points="182.34 312.62 169.34 326.62 207.34 351.62 216.34 331.62 182.34 312.62"/>
  <polygon class="cls-4" points="153.34 341.62 28.34 465.62 27.34 733.62 78.34 733.62 152.34 517.62 129.34 488.62 137.34 460.62 139.34 423.62 173.34 381.62 181.34 363.62 153.34 341.62"/>
  <polygon class="cls-4" points="326.22 465.8 420.34 732.62 330.34 735.62 332.34 506.62 326.22 465.8"/>
  <polygon class="cls-4" points="291.34 354.62 320.34 336.62 335.1 334.26 338.14 345.39 298.34 370.62 291.34 354.62"/>
  <polygon class="cls-3" points="290.34 351.62 313.34 339.62 299.34 334.62 290.34 351.62"/>
  <polygon class="cls-3" points="285.34 354.62 291.34 360.62 288.34 366.62 280.34 362.62 285.34 354.62"/>
  <polyline class="cls-4" points="301.34 246.62 298.34 259.62 323.99 267.21 339.34 267.62 301.34 246.62"/>
  <path d="M249.34,383.62c-75.54,0-137-61.46-137-137s61.46-137,137-137,137,61.45,137,137S324.88,383.62,249.34,383.62Zm0-266a129,129,0,1,0,129,129A129.15,129.15,0,0,0,249.34,117.62Z"/>
  <path d="M249.34,364A117.43,117.43,0,1,1,366.77,246.62,117.56,117.56,0,0,1,249.34,364Zm0-228A110.58,110.58,0,1,0,359.91,246.62,110.7,110.7,0,0,0,249.34,136Z"/>
  <rect x="244.84" y="28.62" width="8" height="217.5"/>
  <rect x="167.89" y="58.42" width="8" height="219" transform="translate(-68.39 170.73) rotate(-45)"/>
  <rect x="26.34" y="240.87" width="223.75" height="8"/>
  <rect x="-19.99" y="352.94" width="315.52" height="8" transform="translate(-212.06 201.99) rotate(-45)"/>
  <rect x="215.43" y="166.67" width="211.22" height="8" transform="translate(-26.66 276.97) rotate(-45)"/>
  <rect x="245.59" y="240.87" width="212.75" height="8"/>
  <rect x="349.1" y="201.15" width="8.13" height="302.08" transform="translate(-145.6 352.88) rotate(-45)"/>
  <rect x="331.85" y="229.54" width="8" height="519.94" transform="translate(-142.83 138.4) rotate(-19.29)"/>
  <rect x="-96.12" y="485.51" width="519.94" height="8" transform="translate(-352.31 482.46) rotate(-70.71)"/>
  <rect x="286.84" y="353.62" width="8" height="382"/>
  <rect x="287.34" y="36.62" width="8" height="84"/>
  <rect x="329.34" y="350.62" width="8" height="385"/>
  <rect x="329.34" y="51.62" width="8" height="92"/>
  <rect x="371.84" y="288.62" width="8" height="447"/>
  <rect x="372.34" y="74.62" width="8" height="130"/>
  <rect x="414.34" y="117.62" width="8" height="618"/>
  <rect x="66.84" y="117.62" width="8" height="618"/>
  <rect x="111.34" y="72.62" width="8" height="663"/>
  <rect x="155.34" y="44.62" width="8" height="103"/>
  <rect x="155.34" y="345.62" width="8" height="103"/>
  <rect x="202.34" y="30.62" width="8" height="88"/>
  <path class="cls-5" d="M253.83,347l17.51-11.34,5-23-13,9s-15,4-16,4-4,9-4,9l4,7Z"/>
  <polygon class="cls-5" points="260.49 323.28 283.34 298.62 266.34 284.62 258.34 248.62 259.34 236.62 238.34 206.62 221.34 233.62 201.34 249.62 213.34 293.62 242.34 323.62 260.49 323.28"/>
  <ellipse class="cls-6" cx="224.34" cy="251.12" rx="8" ry="6.5"/>
  <polygon class="cls-7" points="339.34 383.62 363.34 411.62 418.34 735.62 94.34 730.62 141.34 422.62 165.34 379.62 169.34 386.62 162.34 419.62 173.34 441.62 203.34 448.62 223.34 436.62 219.34 411.62 201.34 396.62 190.34 394.62 208.34 381.62 234.34 359.62 239.34 341.62 248.34 344.62 258.81 345.3 268.51 338.97 273.34 348.62 283.34 372.62 306.34 384.62 339.34 383.62"/>
  <polygon class="cls-5" points="243.34 609.62 269.34 627.62 274.34 639.62 252.34 650.62 230.34 627.62 243.34 609.62"/>
  <polygon class="cls-8" points="283.34 298.62 263.34 280.62 258.27 255.78 262.34 239.62 246.24 221.07 237.34 201.62 225.87 227.09 201.34 249.62 211.06 282.63 234.34 320.62 244.85 328.44 229.57 362.69 192.34 390.62 196.71 397.87 221.71 419.62 218.93 439.98 191.62 448.78 167.34 433.62 164.34 394.62 193.34 359.62 219.34 338.62 222.34 327.62 188.34 319.62 161.34 287.62 157.34 257.62 171.34 228.62 203.34 206.62 223.34 181.62 246.34 169.62 265.34 173.62 293.34 201.62 299.34 239.62 298.34 259.62 335.34 278.62 356.34 317.62 358.34 355.62 331.39 382.59 299.46 382.59 276.34 362.62 271.23 328.91 283.34 298.62"/>
  <path d="M97.29,735.22,89.39,734l48-311.86c.32-3.7,5.43-47.22,71.32-77.18l3.32,7.29c-18.15,8.25-42.8,23-57.21,46.22-8.57,13.84-9.45,24.32-9.46,24.42l0,.32Z"/>
  <path d="M414.4,733.29,361.35,423v-.27c0-.21-2.45-27.14-63.34-70.9l4.67-6.49c61.87,44.46,66.33,73.15,66.64,76.76l53,309.81Z"/>
  <rect x="66.65" y="583.12" width="203.38" height="8" transform="translate(-440.89 630.56) rotate(-78.08)"/>
  <path d="M229.92,630.71l-59.19-55.58,5.47-5.83,54.44,51.11a29.12,29.12,0,0,0,9.39-14l-60-87.53,6.6-4.53,61.91,90.33-.26,1.59a36.79,36.79,0,0,1-15.73,22.67Z"/>
  <rect x="328.34" y="485.42" width="8" height="203.38" transform="translate(-114.08 81.29) rotate(-11.92)"/>
  <path d="M270.76,630.71l-2.64-1.77a36.79,36.79,0,0,1-15.73-22.67l-.26-1.59L314,514.35l6.6,4.53-60,87.53a29.22,29.22,0,0,0,9.4,14l54.43-51.12,5.48,5.83Z"/>
  <path d="M259.65,661.58c-.91-.83-22.39-20.4-31.51-32.56l6.4-4.8c3.86,5.15,10.3,11.92,16.26,17.85l2.22-1.82-.94-1.31,4.2-4.37,2.06-7c2.89,0,6.32,1.84,9.74,4.49-9.38-12.11-23-17.7-23.23-17.78l3-7.43c1.31.53,32.19,13.21,36.47,43.15l-2,.86a5.53,5.53,0,0,1,0,.71L276.15,655l-5.22-3.41,2.66,3.73-5.91,5.32-3.26-2.91Z"/>
  <rect x="250.51" y="605.62" width="5.66" height="8" transform="translate(-356.86 357.69) rotate(-45)"/>
  <path d="M250.34,330.62c-20.93,0-53-42.12-53-94,0-28.74,10.91-45.56,20.06-54.6,11.51-11.37,24.94-15.4,32.94-15.4s21.43,4,32.94,15.4c9.15,9,20.06,25.86,20.06,54.6C303.34,288.5,271.27,330.62,250.34,330.62Zm0-156c-14.1,0-45,15.61-45,62,0,48.82,30,86,45,86s45-37.18,45-86C295.34,190.23,264.44,174.62,250.34,174.62Z"/>
  <path d="M297.48,254.42c-20.55-1.58-36.71-9.11-48-22.38-20-23.43-17.58-56.11-17.47-57.49l8,.65-4-.32,4,.32c0,.3-2.23,30.83,15.61,51.69,9.89,11.57,24.2,18.14,42.52,19.55Z"/>
  <path d="M298.84,240.59c-30.85-3.86-44.33-22-50.21-36.6a75.84,75.84,0,0,1-5.28-30.66l8,.57-4-.28,4,.28c-.15,2.13-3,52.31,48.51,58.75Z"/>
  <path d="M296,224.6c-43.46-3.25-40.72-49.79-40.69-50.26l8,.55-4-.27,4,.27c-.11,1.59-2.18,39.08,33.31,41.74Z"/>
  <path d="M288.28,207.17a18.54,18.54,0,0,1-12.67-4.59c-9.07-8-8.77-23.58-8.75-24.24l8,.2c-.08,3.48.86,13.48,6.06,18.05,2.55,2.24,5.88,3,10.22,2.35l1.2,7.91A26.08,26.08,0,0,1,288.28,207.17Z"/>
  <path d="M284.05,299.84c-11.53-3.71-19.81-10.45-24.61-20-9.52-19-1.74-42.21-1.41-43.19l7.57,2.6-3.78-1.3,3.78,1.29c-.07.21-7,21.09,1,37.06,3.81,7.57,10.5,12.94,19.89,16Z"/>
  <path d="M287.33,288.49c-11.1-2.9-18-11.78-19.91-25.7a66.86,66.86,0,0,1,.32-19.15l7.87,1.45-3.93-.72,3.93.72c-.06.31-5.37,30.67,13.74,35.66Z"/>
  <path d="M293.37,276.5c-15.4-3.85-17.29-21.05-16.14-29.61l7.93,1.07-4-.53,4,.52c-.09.72-2.15,17.71,10.15,20.79Z"/>
  <path d="M295.56,263.54c-6.66-1.33-8-8.93-7.7-13.22l8,.51-4-.25,4,.23c-.11,2,.5,4.73,1.28,4.88Z"/>
  <path d="M202.65,251.28l-2.37-7.64,1.19,3.82-1.2-3.82c1.58-.5,38.65-12.92,32.13-66.13l7.94-1c2.11,17.2,1.08,41.57-15.84,59.94C214.28,247.58,203.12,251.13,202.65,251.28Z"/>
  <path d="M202.62,231.48l-1.05-7.93c.77-.12,19.75-3.46,16.48-38.68l8-.73c1.65,17.73-1.61,31.05-9.66,39.57C210.11,230.32,203.36,231.38,202.62,231.48Z"/>
  <path d="M208,298.18a28,28,0,0,1-5.66-55.42l1.64,7.83a20,20,0,0,0,8.16,39.16l1.63,7.83A28.27,28.27,0,0,1,208,298.18Z"/>
  <path d="M214.35,315.42A47.34,47.34,0,0,1,203.53,222l1.83,7.79a39.34,39.34,0,0,0,18,76.59l1.83,7.79A47.34,47.34,0,0,1,214.35,315.42Z"/>
  <path d="M216.58,332c-25.28,0-53.59-17.62-61.22-50.14a65.19,65.19,0,0,1,48.49-78.28l1.83,7.79A57.18,57.18,0,0,0,163.14,280c7.25,30.87,35.55,46.43,58.72,43.65l1,7.95A53.75,53.75,0,0,1,216.58,332Z"/>
  <path d="M195.14,452c-23.65,0-31.66-16.4-34.09-23.93-6.9-21.42,2.66-53.77,27.9-67.78,34.52-19.14,31.57-46,31.42-47.15l7.93-1.05c.19,1.35,4,33.29-35.47,55.2-21.48,11.92-30,40.3-24.16,58.33,4.37,13.56,15.81,20,32.2,18,8.59-1.07,14.32-4.63,16.53-10.28,2.64-6.74.19-16.27-6.08-23.71s-14.45-10.71-22.17-9.12l-1.62-7.83c10.64-2.2,21.81,2.21,29.9,11.79,8.24,9.76,11.15,22.24,7.42,31.79-2.33,6-8.22,13.46-23,15.3A56.85,56.85,0,0,1,195.14,452Z"/>
  <path d="M195,440.11A23.91,23.91,0,0,1,170.36,418c-.84-8.41-3.4-34,31.06-52.9a54.91,54.91,0,0,0,28.92-45.5h8a62.91,62.91,0,0,1-33.08,52.5c-29.81,16.36-27.73,37.24-26.94,45.1a16.72,16.72,0,0,0,6.31,11.7c3.84,2.91,8.89,3.84,15,2.76,14-2.46,16.66-16.19,16.76-16.78l7.88,1.41c-.14.81-3.71,19.8-23.24,23.25A35.11,35.11,0,0,1,195,440.11Z"/>
  <path d="M196,427.21a14.59,14.59,0,0,1-7.74-2.2c-4.29-2.68-7-9.21-6.81-16.24.22-7.25,3.77-21.13,25-32.67,32.37-17.57,32.9-48.2,32.91-49.49h8c0,1.48-.42,36.61-37.09,56.51-17.74,9.63-20.67,20.35-20.84,25.88-.17,5.37,2,8.57,3.05,9.21a7.36,7.36,0,0,0,7.55-.1c4.44-2.39,7.18-7.85,7.33-14.59l8,.18c-.22,9.66-4.53,17.68-11.53,21.45A16.49,16.49,0,0,1,196,427.21Z"/>
  <path d="M313.22,358.21l-7.17-3.54c5.79-11.74,6.88-22.37,3.23-31.6-6.19-15.7-24.16-22.64-24.35-22.71l2.81-7.49c.87.32,21.42,8.18,29,27.19C321.24,331.5,320.07,344.33,313.22,358.21Z"/>
  <path d="M322.68,365.81l-5.63-5.68c.53-.55,13.48-14.1,4.52-39.17-9.12-25.55-31.18-31.78-32.12-32l2.05-7.73c1.1.29,27,7.43,37.61,37.07C339.84,348.32,323.39,365.11,322.68,365.81Z"/>
  <path d="M332.42,373.64l-5.2-6.08c.9-.78,22-19.63,8.44-51.37-5.85-13.66-14.56-24.49-25.87-32.17a54.14,54.14,0,0,0-15.4-7.52l1.89-7.77c1.26.3,31.13,7.89,46.74,44.31,8.31,19.4,5.05,34.81.84,44.31A48.9,48.9,0,0,1,332.42,373.64Z"/>
  <path d="M340.13,380.19,336.55,373c1.16-.59,28.55-15.22,13-59.09-16.36-46.18-49.25-50.21-50.64-50.35l.8-8c1.6.15,39.25,4.45,57.38,55.64,5.13,14.49,9.05,35.51-1.45,53.36A41.56,41.56,0,0,1,340.13,380.19Z"/>
  <path d="M316.39,389.83a49,49,0,0,1-22.5-92.58l3.67,7.11a41,41,0,1,0,37.56,72.89l3.67,7.11A48.81,48.81,0,0,1,316.39,389.83Z"/>
  <path d="M318.52,378.33A38,38,0,0,1,301,306.54l3.67,7.11A30,30,0,1,0,332.2,367l3.67,7.11A37.72,37.72,0,0,1,318.52,378.33Z"/>
  <path d="M321.9,368.59l-1.38-.15c-8.59-.92-16.7-1.79-23.48-14.95a28.22,28.22,0,0,1,12.14-38l3.66,7.11a20.2,20.2,0,0,0-8.69,27.18c4.81,9.34,9.22,9.81,17.22,10.67l1.41.15Z"/>
  <polygon points="251.34 609.62 243.34 609.62 243.34 344.19 240.63 342.96 243.94 335.68 251.34 339.04 251.34 609.62"/>
  <rect x="243.34" y="643.62" width="8" height="88"/>
  <path d="M205.5,284.32A12.94,12.94,0,0,1,192.88,274a12.94,12.94,0,0,1,10-15.28l1.63,7.83a4.92,4.92,0,0,0,2,9.63l1.63,7.83A12.59,12.59,0,0,1,205.5,284.32Z"/>
  <path d="M251.52,352.44l-2.36-7.65A43.63,43.63,0,0,0,268,332.68l6.16,5.1A51.08,51.08,0,0,1,251.52,352.44Z"/>
  <path d="M223.34,263.62c-7.72,0-14-5.61-14-12.5s6.28-12.5,14-12.5,14,5.6,14,12.5S231.06,263.62,223.34,263.62Zm0-17c-3.25,0-6,2.06-6,4.5s2.75,4.5,6,4.5,6-2.06,6-4.5S226.59,246.62,223.34,246.62Z"/>
  <circle cx="223.84" cy="250.12" r="4"/>
  <rect x="249.72" y="238.98" width="11.91" height="8" transform="translate(-81.19 138.45) rotate(-26.3)"/>
  <path d="M243.05,293.49a29.92,29.92,0,0,1-11.5-2.3c-4.71-2.35-3-8.56-.07-18.86,2-7.16,5.37-19.15,3.36-22.77-2.93-5.28-14.12-4.64-17.81-4l-1.39-7.88a44.26,44.26,0,0,1,10.13-.43c7.78.6,13.34,3.51,16.07,8.42,3.61,6.5.28,18.36-2.66,28.82a100.05,100.05,0,0,0-2.5,10.13c3.37,1,8.76,1.24,9.93.27a.73.73,0,0,0-.19.29l7.88-1.13a7.47,7.47,0,0,1-3,7.34C249.12,292.94,246.11,293.49,243.05,293.49Z"/>
  <path d="M235.44,310.46l-2.2-7.69c.07,0,6.95-2,9.84-2.95l3.48.47a2.08,2.08,0,0,0,.6.22,1,1,0,0,0-.65.28l4.41-.85,7,3-3.16,7.35-5.16-2.21a8.13,8.13,0,0,1-5.57-.16C240.67,309,235.69,310.39,235.44,310.46Z"/>
  <rect class="cls-4" x="459.34" y="637.62" width="23" height="117"/>
  <rect class="cls-3" x="459.34" y="531.62" width="23" height="107"/>
  <rect class="cls-3" x="459.34" y="308.62" width="23" height="107"/>
  <rect class="cls-4" x="459.34" y="419.62" width="23" height="107"/>
  <rect class="cls-3" x="3.34" y="528.62" width="23" height="110"/>
  <rect class="cls-3" x="355.34" y="733.62" width="104" height="22"/>
  <rect class="cls-4" x="248.34" y="733.62" width="104" height="22"/>
  <rect class="cls-4" x="138.34" y="733.62" width="104" height="22"/>
  <rect class="cls-4" x="-39.66" y="686.62" width="114" height="22" transform="translate(714.96 680.28) rotate(90)"/>
  <rect class="cls-4" x="-39.66" y="462.62" width="114" height="22" transform="translate(490.96 456.28) rotate(90)"/>
  <rect class="cls-3" x="-38.66" y="352.62" width="114" height="22" transform="translate(381.96 345.28) rotate(90)"/>
  <rect class="cls-3" x="26.34" y="733.62" width="109" height="22"/>
  <polygon class="cls-4" points="459.34 308.62 482.34 308.62 479.34 212.62 472.34 195.62 456.34 200.62 460.34 256.62 459.34 308.62"/>
  <path class="cls-4" d="M9.34,195.62l21,8s-2.52,80.16-5.26,105.08l-23.74-.08Z"/>
  <polygon class="cls-3" points="61.34 86.62 78.95 105.67 50.34 146.62 30.34 203.62 9.34 195.62 21.34 155.62 42.34 116.62 61.34 86.62"/>
  <polygon class="cls-4" points="61.34 86.62 99.34 55.62 156.34 23.62 166.06 43.29 116.06 72.33 83.25 101.37 73.58 99.22 61.34 86.62"/>
  <polygon class="cls-3" points="156.34 23.62 208.34 8.62 273.34 10.62 326.34 22.62 319.05 44.86 256.18 30.44 203.11 34.48 169.34 43.62 156.34 23.62"/>
  <path class="cls-4" d="M317.34,41.62l9-19,67,39,30,29-16.26,14.74S371.34,57.62,317.34,41.62Z"/>
  <path class="cls-3" d="M423.34,90.62l-16,15,18.11,25.65s30.89,44.35,30.89,69.35l16-5-11-49Z"/>
  <path d="M484.84,759.12H.84v-514a242,242,0,0,1,242-242h0a242,242,0,0,1,242,242Zm-476-8h468v-506A234,234,0,0,0,77.38,79.65,232.47,232.47,0,0,0,8.84,245.12Z"/>
  <path d="M463.34,738.62h-441V247.12a220.49,220.49,0,0,1,220.5-220.5h0a220.49,220.49,0,0,1,220.5,220.5Zm-433-8h425V247.12c0-117.18-95.33-212.5-212.5-212.5s-212.5,95.32-212.5,212.5Z"/>
  <rect x="2.34" y="632.62" width="21" height="8"/>
  <rect x="2.34" y="522.62" width="21" height="8"/>
  <rect x="2.34" y="412.62" width="21" height="8"/>
  <rect x="2.34" y="302.62" width="21" height="8"/>
  <rect x="14.84" y="188.12" width="8" height="21" transform="translate(-178.85 171.73) rotate(-76.84)"/>
  <rect x="67.84" y="86.12" width="8" height="21" transform="translate(-47.28 79.1) rotate(-45)"/>
  <rect x="157.84" y="22.12" width="8" height="21" transform="translate(2.42 75.51) rotate(-26.45)"/>
  <rect x="461.09" y="634.62" width="21" height="8"/>
  <rect x="461.09" y="524.62" width="21" height="8"/>
  <rect x="461.09" y="414.62" width="21" height="8"/>
  <rect x="461.09" y="304.62" width="21" height="8"/>
  <rect x="455.09" y="194.62" width="21" height="8" transform="translate(-33 111.27) rotate(-13.17)"/>
  <rect x="402.09" y="92.62" width="21" height="8" transform="translate(52.51 320.01) rotate(-45)"/>
  <rect x="312.09" y="28.62" width="21" height="8" transform="translate(158.92 312.51) rotate(-65.46)"/>
  <rect x="22.34" y="737.62" width="8" height="15"/>
  <rect x="132.34" y="737.62" width="8" height="15"/>
  <rect x="242.34" y="737.62" width="8" height="15"/>
  <rect x="352.34" y="737.62" width="8" height="15"/>
  <rect x="455.34" y="737.62" width="8" height="15"/>
</svg>
