<svg id="Layer_1" data-name="Layer 1" xmlns="http://www.w3.org/2000/svg" viewBox="0 0 485 760">
  <defs>
    <style>
      .cls-1 {
        fill: #787fff;
      }

      .cls-2 {
        fill: #5061ff;
      }

      .cls-3 {
        fill: #ff4848;
      }

      .cls-4 {
        fill: #ffbd7b;
      }

      .cls-5 {
        fill: #2b293a;
      }

      .cls-6 {
        fill: #fff;
      }
    </style>
  </defs>
  <title>Econovrouwen</title>
  <polyline class="cls-1" points="340.67 342.1 456.51 454.17 458.57 732.6 419.76 732.6 297.23 370.71 340.67 342.1"/>
  <path class="cls-1" d="M383.66,245.66h73s1-98-62-148l-53,51S384.66,199.66,383.66,245.66Z"/>
  <path class="cls-1" d="M246.66,111.66s-53,4-91,39l-61-61s28-30,74-46,79-12,79-12Z"/>
  <path class="cls-1" d="M26.66,246.66l86-1s2,55,40,93l-125,127Z"/>
  <polygon class="cls-1" points="77.66 733.66 168.66 735.66 191.66 513.66 151.66 517.66 77.66 733.66"/>
  <path class="cls-1" d="M246.66,111.66s76,8,95,37l-14,15s-38-33-78-30Z"/>
  <path class="cls-1" d="M363.66,244.66l17-1s7,47-37,96l-14-8S360.66,287.66,363.66,244.66Z"/>
  <polygon class="cls-1" points="168.66 326.66 202.52 352.28 187.66 362.66 152.66 338.66 168.66 326.66"/>
  <path class="cls-1" d="M155.66,150.66l14,14s-33,28-34,80h-19S122.66,172.66,155.66,150.66Z"/>
  <path class="cls-2" d="M384.36,242.71h72.08V458.09L343.66,339.66S385.06,300.76,384.36,242.71Z"/>
  <path class="cls-2" d="M283.52,246.28c.81-.58,78.14-.62,78.14-.62s-1.14,61.62-33.14,80.62C328.52,326.28,255.52,266.28,283.52,246.28Z"/>
  <path class="cls-2" d="M249.66,133.66l-2,43,35,28,45-41S287.66,128.66,249.66,133.66Z"/>
  <path class="cls-2" d="M167.42,165.92,199.11,195l-2.59,53.29-60.86-3.62S129.44,204.36,167.42,165.92Z"/>
  <path class="cls-2" d="M155.66,150.66l14,14s35-36,80-31l-3-22S174.66,119.66,155.66,150.66Z"/>
  <path class="cls-2" d="M135.66,244.66s-7,44,33,82L153,341.42s-38.3-34.76-36.3-96.76Z"/>
  <path class="cls-2" d="M151.66,151.65s-36,40-38,91h-86s2-56,14-77,45-77,53-76Z"/>
  <path class="cls-2" d="M250.71,112.75s55,5.91,91,35.91l53-55s-60-60-143-63Z"/>
  <path class="cls-2" d="M330.66,166.66s33,41,31,79l19-2s-2.59-64.37-40.79-91.69Z"/>
  <path class="cls-1" d="M246.86,314.11l33.66-26.83s37.86,18,46,41l-34,27Z"/>
  <path class="cls-1" d="M194.16,189.68l-24.5-25s20.09-23.92,54.05-27.46,21.91-4.59,21.91-4.59l2,44s-25.14,25.62-27.14,26.62S194.16,189.68,194.16,189.68Z"/>
  <path class="cls-1" d="M197.52,245.28l-62.46,2.48s3.6,54.9,33.6,78.9l36.86-36.38Z"/>
  <path class="cls-1" d="M298.91,248.66l62.46-2.48s-3.6-54.9-33.6-78.9l-36.86,36.38Z"/>
  <polygon class="cls-2" points="208.52 289.28 168.66 326.66 200.52 350.28 213.52 326.28 208.52 289.28"/>
  <polygon class="cls-2" points="152.66 341.66 27.66 465.66 26.66 733.66 77.66 733.66 151.66 517.66 122.66 488.66 116.66 461.66 132.66 422.66 172.66 381.66 175.52 357.28 152.66 341.66"/>
  <polygon class="cls-2" points="325.54 465.84 419.66 732.66 329.66 735.66 283.52 518.28 325.54 465.84"/>
  <polygon class="cls-2" points="290.66 354.66 319.66 336.66 329.52 327.28 337.46 345.43 297.66 370.66 290.66 354.66"/>
  <polygon class="cls-1" points="289.66 351.66 312.66 339.66 298.66 334.66 289.66 351.66"/>
  <polygon class="cls-1" points="284.66 354.66 290.66 360.66 287.66 366.66 279.66 362.66 284.66 354.66"/>
  <path d="M248.66,383.66c-75.54,0-137-61.46-137-137s61.46-137,137-137,137,61.45,137,137S324.21,383.66,248.66,383.66Zm0-266a129,129,0,1,0,129,129A129.15,129.15,0,0,0,248.66,117.66Z"/>
  <path d="M248.66,364.08A117.43,117.43,0,1,1,366.09,246.66,117.56,117.56,0,0,1,248.66,364.08Zm0-228A110.58,110.58,0,1,0,359.23,246.66,110.7,110.7,0,0,0,248.66,136.08Z"/>
  <rect x="244.16" y="28.66" width="8" height="217.5"/>
  <rect x="167.22" y="58.46" width="8" height="219" transform="translate(-68.62 170.26) rotate(-45)"/>
  <rect x="25.66" y="240.91" width="223.75" height="8"/>
  <rect x="-20.67" y="352.98" width="315.52" height="8" transform="translate(-212.28 201.52) rotate(-45)"/>
  <rect x="214.75" y="166.71" width="211.22" height="8" transform="translate(-26.88 276.51) rotate(-45)"/>
  <rect x="244.91" y="240.91" width="212.75" height="8"/>
  <rect x="348.42" y="201.19" width="8.13" height="302.08" transform="translate(-145.82 352.41) rotate(-45)"/>
  <rect x="331.17" y="229.58" width="8" height="519.94" transform="translate(-142.88 138.18) rotate(-19.29)"/>
  <rect x="-96.8" y="485.55" width="519.94" height="8" transform="translate(-352.8 481.85) rotate(-70.71)"/>
  <rect x="286.16" y="353.66" width="8" height="382"/>
  <rect x="286.66" y="36.66" width="8" height="84"/>
  <rect x="328.66" y="350.66" width="8" height="385"/>
  <rect x="328.66" y="51.66" width="8" height="92"/>
  <rect x="371.16" y="288.66" width="8" height="447"/>
  <rect x="371.66" y="74.66" width="8" height="130"/>
  <rect x="413.66" y="117.66" width="8" height="618"/>
  <rect x="66.16" y="117.66" width="8" height="618"/>
  <rect x="110.66" y="72.66" width="8" height="663"/>
  <rect x="154.66" y="44.66" width="8" height="103"/>
  <rect x="154.66" y="345.66" width="8" height="103"/>
  <rect x="201.66" y="30.66" width="8" height="88"/>
  <rect class="cls-1" x="458.66" y="637.66" width="23" height="117"/>
  <rect class="cls-2" x="458.66" y="531.66" width="23" height="107"/>
  <rect class="cls-2" x="458.66" y="308.66" width="23" height="107"/>
  <rect class="cls-1" x="458.66" y="419.66" width="23" height="107"/>
  <rect class="cls-2" x="2.66" y="531.66" width="23" height="107"/>
  <rect class="cls-2" x="354.66" y="733.66" width="104" height="22"/>
  <rect class="cls-1" x="247.66" y="733.66" width="104" height="22"/>
  <rect class="cls-1" x="137.66" y="733.66" width="104" height="22"/>
  <rect class="cls-1" x="-40.34" y="686.66" width="114" height="22" transform="translate(714.32 680.99) rotate(90)"/>
  <rect class="cls-1" x="-40.34" y="462.66" width="114" height="22" transform="translate(490.32 456.99) rotate(90)"/>
  <rect class="cls-2" x="-39.34" y="352.66" width="114" height="22" transform="translate(381.32 345.99) rotate(90)"/>
  <rect class="cls-2" x="25.66" y="733.66" width="109" height="22"/>
  <polygon class="cls-1" points="458.66 308.66 481.66 308.66 478.66 212.66 471.66 195.66 455.66 200.66 459.66 256.66 458.66 308.66"/>
  <path class="cls-1" d="M8.66,195.66l21,8s-2.52,80.16-5.26,105.08L.66,308.66Z"/>
  <polygon class="cls-2" points="60.66 86.66 78.28 105.71 49.66 146.66 29.66 203.66 8.66 195.66 20.66 155.66 41.66 116.66 60.66 86.66"/>
  <polygon class="cls-1" points="60.66 86.66 98.66 55.66 155.66 23.66 165.39 43.33 115.38 72.37 82.58 101.41 72.9 99.26 60.66 86.66"/>
  <polygon class="cls-2" points="155.66 23.66 207.66 8.66 272.66 10.66 325.66 22.66 318.37 44.9 255.5 30.48 202.44 34.52 168.66 43.66 155.66 23.66"/>
  <path class="cls-1" d="M316.66,41.66l9-19,67,39,30,29L406.41,105.4S370.66,57.66,316.66,41.66Z"/>
  <path class="cls-2" d="M422.66,90.66l-16,15,18.12,25.65s30.88,44.35,30.88,69.35l16-5-11-49Z"/>
  <path d="M484.16,759.16H.16v-514a242,242,0,0,1,242-242h0a242,242,0,0,1,242,242Zm-476-8h468v-506A234,234,0,0,0,76.7,79.69,232.47,232.47,0,0,0,8.16,245.16Z"/>
  <path d="M462.66,738.66h-441V247.16A220.5,220.5,0,0,1,398.08,91.24a219,219,0,0,1,64.58,155.92Zm-433-8h425V247.16c0-117.18-95.32-212.5-212.5-212.5S29.66,130,29.66,247.16Z"/>
  <rect x="1.66" y="634.66" width="21" height="8"/>
  <rect x="1.66" y="524.66" width="21" height="8"/>
  <rect x="1.66" y="414.66" width="21" height="8"/>
  <rect x="1.66" y="304.66" width="21" height="8"/>
  <rect x="14.16" y="188.16" width="8" height="21" transform="translate(-179.41 171.1) rotate(-76.84)"/>
  <rect x="67.16" y="86.16" width="8" height="21" transform="translate(-47.5 78.63) rotate(-45)"/>
  <rect x="157.16" y="22.16" width="8" height="21" transform="translate(2.33 75.22) rotate(-26.45)"/>
  <rect x="460.41" y="634.66" width="21" height="8"/>
  <rect x="460.41" y="524.66" width="21" height="8"/>
  <rect x="460.41" y="414.66" width="21" height="8"/>
  <rect x="460.41" y="304.66" width="21" height="8"/>
  <rect x="454.41" y="194.66" width="21" height="8" transform="translate(-33.03 111.12) rotate(-13.17)"/>
  <rect x="401.41" y="92.66" width="21" height="8" transform="translate(52.28 319.55) rotate(-45)"/>
  <rect x="311.41" y="28.66" width="21" height="8" transform="translate(158.49 311.92) rotate(-65.46)"/>
  <rect x="21.66" y="737.66" width="8" height="15"/>
  <rect x="131.66" y="737.66" width="8" height="15"/>
  <rect x="241.66" y="737.66" width="8" height="15"/>
  <rect x="351.66" y="737.66" width="8" height="15"/>
  <rect x="454.66" y="737.66" width="8" height="15"/>
  <path class="cls-3" d="M198.52,315.28l49,9,56-13-7,26,24,16,13,29-43,42-8,19-44-3-6,151-24,2-38-71-7-85,18-35-28-10s7-23-2-42l45-39Z"/>
  <polygon class="cls-4" points="188.52 283.28 196.52 311.28 247.52 324.28 303.52 311.28 309.52 283.28 265.52 243.28 226.52 240.28 188.52 283.28"/>
  <polygon class="cls-4" points="223.52 630.28 254.52 639.28 265.52 631.28 288.52 651.28 274.52 672.28 248.52 679.28 202.52 649.28 223.52 630.28"/>
  <polygon class="cls-5" points="154.81 367.17 102.52 402.28 90.52 519.28 87.52 731.28 244.52 731.28 245.7 677.71 202.52 649.28 223.52 626.28 170.52 522.28 164.52 433.28 181.74 405.64 153.52 392.28 154.81 367.17"/>
  <polygon class="cls-5" points="212.52 597.28 231.52 594.28 239.63 442.53 282.52 443.28 293.52 425.28 335.52 381.28 334.52 367.28 384.52 402.28 394.52 432.28 399.52 731.28 244.52 731.28 245.61 682.03 265.52 678.28 286.9 656.97 286.52 646.28 262.7 631.91 252.73 638.46 227.1 630.48 212.52 597.28"/>
  <path class="cls-5" d="M179.52,294.28c1,0,21-53,67-55s70,61,70,61,14-121-68-129S179.52,294.28,179.52,294.28Z"/>
  <g>
    <circle class="cls-6" cx="224.92" cy="283.34" r="8"/>
    <path d="M224.92,295.34a12,12,0,1,1,12-12A12,12,0,0,1,224.92,295.34Zm0-16a4,4,0,1,0,4,4A4,4,0,0,0,224.92,279.34Z"/>
  </g>
  <circle cx="225.42" cy="281.34" r="4"/>
  <path d="M284,445.87l-47.44-1.39-1-.84c-15.77-12.61-61-45.33-80.93-45.33H150l3-24.26L146.19,348l52.5-45.21,19.44,54.13,28.74,16.25,48.61,51.3Zm-44.54-9.31,39.84,1.17,6.44-12-43.8-46.24L211.6,362.41l-16.5-46-39.9,34.36,6,22.72L159,390.67c11.44,1.71,27.9,9.56,49,23.4C223,423.81,235.73,433.68,239.41,436.56Z"/>
  <path d="M293.46,427.9l-5.74-5.57L329,379.83c-.22-11.07-9.1-21.26-16.69-28a111.61,111.61,0,0,0-15.15-11.13c-21.16,34-50.8,39.36-52.09,39.57l-1.33-7.89c.29,0,29.28-5.4,48.54-39.11l1.92-3.37,3.43,1.83c1.67.88,40.73,22.05,39.34,49.93l-.08,1.5Z"/>
  <polygon points="201.06 584.86 168.63 523.88 158.1 437.06 179.99 401.01 186.83 405.16 166.38 438.84 176.39 521.44 208.13 581.1 201.06 584.86"/>
  <polygon points="207.75 600.25 196.81 540.06 204.68 538.63 214.27 591.38 227.69 589.7 233.97 440.35 241.96 440.69 235.4 596.79 207.75 600.25"/>
  <rect x="267.97" y="390.06" width="27.05" height="8" transform="translate(-199.46 337.48) rotate(-47.75)"/>
  <path d="M403.52,733.3l-8,0c0-.76.35-77.27-.72-155.14C392.86,436.85,388,413.83,386,410.49c-10.82-18.05-58.26-42.35-58.74-42.59l3.63-7.13c2,1,50,25.6,62,45.6,1.92,3.21,7.78,13,10,171.65C403.87,656,403.52,732.53,403.52,733.3Z"/>
  <rect x="332.16" y="477.46" width="8" height="255.09" transform="translate(-38.92 23.33) rotate(-3.76)"/>
  <polygon points="288.58 653.85 257.24 630.35 325.54 498.99 332.64 502.69 267.47 628.02 287.46 643.02 332.77 591.66 338.77 596.95 288.58 653.85"/>
  <rect x="292.41" y="647.84" width="8" height="85.04" transform="translate(-111.24 59.27) rotate(-9.62)"/>
  <rect x="240.38" y="679.24" width="8" height="56.04"/>
  <path d="M299.47,336.66l-7.5-2.77,6.19-16.8c-11.86,3.44-34.94,9.35-53.78,9.35v-8c24.71,0,58.72-11.23,59.06-11.35l7.89-2.62Z"/>
  <path d="M315.47,315.14c-.88,0-3.8-.33-4.33-4.49A30.23,30.23,0,0,1,311,307c0-13.67-8.39-29.54-22.45-42.46C274.9,252.07,258,244.3,244.38,244.3v-8c15.77,0,34.29,8.37,49.55,22.39,9,8.3,15.88,17.56,20.11,27,.14-23.62-3.41-59.59-19.93-83.6-11.77-17.11-28.5-25.78-49.73-25.78v-8c29.29,0,50.83,14.42,64,42.86,11.9,25.65,13.68,56.48,13.68,72.57a190.48,190.48,0,0,1-1,20.21C320.37,310.19,319.82,315.14,315.47,315.14Z"/>
  <path d="M91.52,734.28h-8c0-.76.09-77.59,1.59-155.77,3-159.18,8.89-168.92,10.81-172.13,12-20,59.94-44.57,62-45.6l3.63,7.13c-.48.24-47.91,24.54-58.74,42.59-2,3.34-7,26.42-9.68,168.15C91.61,656.76,91.52,733.52,91.52,734.28Z"/>
  <rect x="24.21" y="602.01" width="257.07" height="8" transform="matrix(0.06, -1, 1, 0.06, -461.8, 719.67)"/>
  <polygon points="200.19 653.85 150 596.95 155.99 591.66 201.3 643.02 221.3 628.02 156.13 502.69 163.22 498.99 231.53 630.35 200.19 653.85"/>
  <rect x="147.93" y="687.86" width="88.12" height="8" transform="translate(-522.41 763.67) rotate(-80.23)"/>
  <path d="M244.38,326.44a130.67,130.67,0,0,1-47.8-9.32l3.2-7.33a124.79,124.79,0,0,0,44.6,8.65Z"/>
  <path d="M181,316.45c-4.16,0-4.68-4.54-5.29-9.78-.53-4.64-.9-10.61-1-16.8-.32-16.16.68-47.3,10.95-74.31,11.47-30.13,31.73-46.48,58.59-47.28l.24,8c-17.45.52-31.51,8.39-41.78,23.39-16.11,23.55-20,59.69-20.1,84.38,10.78-26,36.82-47.75,61.76-47.75v8c-28.07,0-58.89,33.51-58.89,64,0,3.22,0,8.08-4.4,8.13Z"/>
  <path d="M190.21,312.28c-.2-.9-5-22.07-3.67-35.4l8,.8c-1.2,12,3.46,32.6,3.51,32.81Z"/>
  <rect x="290.29" y="294.48" width="30.65" height="8" transform="translate(-28.53 564.64) rotate(-82.86)"/>
  <path d="M245.83,323.9c-5.39,0-11.08-2.08-13.63-5.48-2.83-3.76-.73-8.78,1.71-14.6,3.7-8.84,6.14-16,1.23-20.9-9.11-9.11-24.38.44-24.54.54l-4.32-6.74a42.26,42.26,0,0,1,11.65-4.85c9.2-2.24,17.1-.37,22.86,5.39,9.1,9.09,3.92,21.46.5,29.65-1,2.28-2.37,5.65-2.44,7,1.62,1.53,7,2.81,10.28,1.46a2.13,2.13,0,0,0,1.55-2.69l7.94-1a10.06,10.06,0,0,1-6.49,11.1A17,17,0,0,1,245.83,323.9Z"/>
  <path d="M289.47,282c-12.62-9.46-24.12-.47-24.6-.09l-5.05-6.2a28,28,0,0,1,34.45-.11Z"/>
  <path d="M261.07,684.52a17.18,17.18,0,0,1-6.83-1.3,130.37,130.37,0,0,1-17.9-5.55C219,670.84,205.91,661,198.63,649.26l6.8-4.22c9.17,14.82,27,23.12,40.19,27.44a2.71,2.71,0,0,1-.06-.38l5.63-4.2c.72.33,1.42.63,2.1.89a26.13,26.13,0,0,1-8.7-9.72l4.5-4.15a26.27,26.27,0,0,1-4.43-6l6.07-4.91a31.68,31.68,0,0,0,13.89,6.68c-8.09-6.35-26-12.27-39-15.05l1.67-7.82a185.93,185.93,0,0,1,22.19,6.41c16.21,5.87,25.05,12.26,27,19.55l-1.4,2.32.89-.1,4.08,5.75a10.83,10.83,0,0,1-5.07,4.59l3,6.72c-.32.33-6.05,5.94-16.5,5.57Z"/>
  <rect x="252.45" y="630.96" width="12.11" height="8" transform="translate(-297.27 233.56) rotate(-32.01)"/>
  <path d="M257.36,684.57l-1.7-7.81C281.16,671.21,283.94,649,284,648l8,.84C292,649.14,288.64,677.76,257.36,684.57Z"/>
</svg>
