<svg id="Layer_1" data-name="Layer 1" xmlns="http://www.w3.org/2000/svg" viewBox="0 0 485 760">
  <defs>
    <style>
      .cls-1 {
        fill: #787fff;
      }

      .cls-2 {
        fill: #5061ff;
      }

      .cls-3 {
        fill: #ffeca7;
      }

      .cls-4 {
        fill: #c5b097;
      }

      .cls-5 {
        fill: #615f85;
      }

      .cls-6 {
        fill: #2b293a;
      }

      .cls-7 {
        fill: #ffbd7b;
      }
    </style>
  </defs>
  <title>Engelen</title>
  <polyline class="cls-1" points="340.77 343.1 456.61 455.17 458.67 733.6 419.85 733.6 297.32 371.71 340.77 343.1"/>
  <path class="cls-1" d="M383.76,246.66h73s1-98-62-148l-53,51S384.76,200.66,383.76,246.66Z"/>
  <path class="cls-1" d="M246.76,112.66s-53,4-91,39l-61-61s28-30,74-46,79-12,79-12Z"/>
  <path class="cls-1" d="M26.76,247.66l86-1s2,55,40,93l-125,127Z"/>
  <polygon class="cls-1" points="77.76 734.66 168.76 736.66 191.76 514.66 151.76 518.66 77.76 734.66"/>
  <path class="cls-1" d="M246.76,112.66s76,8,95,37l-14,15s-38-33-78-30Z"/>
  <path class="cls-1" d="M363.76,245.66l17-1s7,47-37,96l-14-8S360.76,288.66,363.76,245.66Z"/>
  <polygon class="cls-1" points="168.76 327.66 202.62 353.28 187.76 363.66 152.76 339.66 168.76 327.66"/>
  <path class="cls-1" d="M155.76,151.66l14,14s-33,28-34,80h-19S122.76,173.66,155.76,151.66Z"/>
  <path class="cls-2" d="M384.46,243.71h72.07V459.09L343.76,340.66S385.15,301.76,384.46,243.71Z"/>
  <path class="cls-2" d="M283.62,247.28c.81-.58,78.14-.62,78.14-.62s-1.14,61.62-33.14,80.62C328.62,327.28,255.62,267.28,283.62,247.28Z"/>
  <path class="cls-2" d="M249.76,134.66l-2,43,35,28,45-41S287.76,129.66,249.76,134.66Z"/>
  <path class="cls-2" d="M167.52,166.92,199.2,196l-2.58,53.29-60.86-3.62S129.54,205.36,167.52,166.92Z"/>
  <path class="cls-2" d="M155.76,151.66l14,14s35-36,80-31l-3-22S174.76,120.66,155.76,151.66Z"/>
  <path class="cls-2" d="M135.76,245.66s-7,44,33,82l-15.7,14.76s-38.3-34.76-36.3-96.76Z"/>
  <path class="cls-2" d="M151.76,152.65s-36,40-38,91h-86s2-56,14-77,45-77,53-76Z"/>
  <path class="cls-2" d="M250.81,113.75s54.95,5.91,90.95,35.91l53-55s-60-60-143-63Z"/>
  <path class="cls-2" d="M330.76,167.66s33,41,31,79l19-2S378.17,180.29,340,153Z"/>
  <path class="cls-1" d="M247,315.11l33.66-26.83s37.85,18,46,41l-34,27Z"/>
  <path class="cls-1" d="M194.25,190.68l-24.49-25s20.09-23.92,54-27.46,21.91-4.58,21.91-4.58l2,44s-15.14-10.38-17.14-9.38S194.25,190.68,194.25,190.68Z"/>
  <path class="cls-1" d="M197.62,246.28l-62.46,2.48s3.6,54.9,33.6,78.9l36.86-36.38Z"/>
  <path class="cls-1" d="M299,249.66l62.46-2.48s-3.61-54.9-33.61-78.9L291,204.66Z"/>
  <polygon class="cls-2" points="208.62 290.28 168.76 327.66 200.62 351.28 213.62 327.28 208.62 290.28"/>
  <polygon class="cls-2" points="152.76 342.66 27.76 466.66 26.76 734.66 77.76 734.66 151.76 518.66 122.76 489.66 116.76 462.66 132.76 423.66 172.76 382.66 175.62 358.28 152.76 342.66"/>
  <polygon class="cls-2" points="325.63 466.84 419.76 733.66 329.76 736.66 283.62 519.28 325.63 466.84"/>
  <polygon class="cls-2" points="290.76 355.66 319.76 337.66 329.62 328.28 337.56 346.43 297.76 371.66 290.76 355.66"/>
  <polygon class="cls-1" points="289.76 352.66 312.76 340.66 298.76 335.66 289.76 352.66"/>
  <polygon class="cls-1" points="284.76 355.66 290.76 361.66 287.76 367.66 279.76 363.66 284.76 355.66"/>
  <path d="M248.76,384.66c-75.54,0-137-61.46-137-137s61.46-137,137-137,137,61.45,137,137S324.3,384.66,248.76,384.66Zm0-266a129,129,0,1,0,129,129A129.15,129.15,0,0,0,248.76,118.66Z"/>
  <path d="M248.76,365.09A117.43,117.43,0,1,1,366.19,247.66,117.56,117.56,0,0,1,248.76,365.09Zm0-228A110.57,110.57,0,1,0,359.33,247.66,110.69,110.69,0,0,0,248.76,137.09Z"/>
  <rect x="244.26" y="29.66" width="8" height="217.5"/>
  <rect x="167.31" y="59.46" width="8" height="219" transform="translate(-69.3 170.62) rotate(-45)"/>
  <rect x="25.76" y="241.91" width="223.75" height="8"/>
  <rect x="-20.57" y="353.98" width="315.52" height="8" transform="translate(-212.96 201.88) rotate(-45)"/>
  <rect x="214.85" y="167.71" width="211.22" height="8" transform="translate(-27.56 276.87) rotate(-45)"/>
  <rect x="245.01" y="241.91" width="212.75" height="8"/>
  <rect x="348.51" y="202.19" width="8.13" height="302.08" transform="translate(-146.5 352.77) rotate(-45)"/>
  <rect x="331.27" y="230.58" width="8" height="519.94" transform="translate(-143.21 138.27) rotate(-19.29)"/>
  <rect x="-96.7" y="486.55" width="519.94" height="8" transform="translate(-353.68 482.61) rotate(-70.71)"/>
  <rect x="286.26" y="354.66" width="8" height="382"/>
  <rect x="286.76" y="37.66" width="8" height="84"/>
  <rect x="328.76" y="351.66" width="8" height="385"/>
  <rect x="328.76" y="52.66" width="8" height="92"/>
  <rect x="371.26" y="289.66" width="8" height="447"/>
  <rect x="371.76" y="75.66" width="8" height="130"/>
  <rect x="413.76" y="118.66" width="8" height="618"/>
  <rect x="66.26" y="118.66" width="8" height="618"/>
  <rect x="110.76" y="73.66" width="8" height="663"/>
  <rect x="154.76" y="45.66" width="8" height="103"/>
  <rect x="154.76" y="346.66" width="8" height="103"/>
  <rect x="201.76" y="31.66" width="8" height="88"/>
  <rect class="cls-1" x="458.76" y="638.66" width="23" height="117"/>
  <rect class="cls-2" x="458.76" y="532.66" width="23" height="107"/>
  <rect class="cls-2" x="458.76" y="309.66" width="23" height="107"/>
  <rect class="cls-1" x="458.76" y="420.66" width="23" height="107"/>
  <rect class="cls-2" x="2.76" y="532.66" width="23" height="107"/>
  <rect class="cls-2" x="354.76" y="734.66" width="104" height="22"/>
  <rect class="cls-1" x="247.76" y="734.66" width="104" height="22"/>
  <rect class="cls-1" x="137.76" y="734.66" width="104" height="22"/>
  <rect class="cls-1" x="-40.24" y="687.66" width="114" height="22" transform="translate(715.41 681.9) rotate(90)"/>
  <rect class="cls-1" x="-40.24" y="463.66" width="114" height="22" transform="translate(491.41 457.9) rotate(90)"/>
  <rect class="cls-2" x="-39.24" y="353.66" width="114" height="22" transform="translate(382.41 346.9) rotate(90)"/>
  <rect class="cls-2" x="25.76" y="734.66" width="109" height="22"/>
  <polygon class="cls-1" points="458.76 309.66 481.76 309.66 478.76 213.66 471.76 196.66 455.76 201.66 459.76 257.66 458.76 309.66"/>
  <path class="cls-1" d="M8.76,196.66l21,8s-2.53,80.16-5.26,105.08L.76,309.66Z"/>
  <polygon class="cls-2" points="60.76 87.66 78.37 106.71 49.76 147.66 29.76 204.66 8.76 196.66 20.76 156.66 41.76 117.66 60.76 87.66"/>
  <polygon class="cls-1" points="60.76 87.66 98.76 56.66 155.76 24.66 165.48 44.34 115.47 73.37 82.67 102.41 72.99 100.26 60.76 87.66"/>
  <polygon class="cls-2" points="155.76 24.66 207.76 9.66 272.76 11.66 325.76 23.66 318.46 45.9 255.6 31.48 202.53 35.52 168.76 44.66 155.76 24.66"/>
  <path class="cls-1" d="M316.76,42.66l9-19,67,39,30,29L406.5,106.4S370.76,58.66,316.76,42.66Z"/>
  <path class="cls-2" d="M422.76,91.66l-16,15,18.11,25.65s30.89,44.35,30.89,69.35l16-5-11-49Z"/>
  <path d="M484.26,760.16H.26v-514a242,242,0,0,1,242-242h0a242,242,0,0,1,242,242Zm-476-8h468v-506A234,234,0,0,0,76.8,80.69,232.47,232.47,0,0,0,8.26,246.16Z"/>
  <path d="M462.76,739.66h-441V248.16a220.49,220.49,0,0,1,220.5-220.5h0a220.51,220.51,0,0,1,220.5,220.5Zm-433-8h425V248.16c0-117.18-95.33-212.5-212.5-212.5S29.76,131,29.76,248.16Z"/>
  <rect x="1.76" y="635.66" width="21" height="8"/>
  <rect x="1.76" y="525.66" width="21" height="8"/>
  <rect x="1.76" y="415.66" width="21" height="8"/>
  <rect x="1.76" y="305.66" width="21" height="8"/>
  <rect x="14.26" y="189.16" width="8" height="21" transform="translate(-180.31 171.96) rotate(-76.83)"/>
  <rect x="67.26" y="87.16" width="8" height="21" transform="translate(-48.18 78.99) rotate(-45)"/>
  <rect x="157.26" y="23.16" width="8" height="21" transform="translate(1.89 75.37) rotate(-26.46)"/>
  <rect x="460.51" y="635.66" width="21" height="8"/>
  <rect x="460.51" y="525.66" width="21" height="8"/>
  <rect x="460.51" y="415.66" width="21" height="8"/>
  <rect x="460.51" y="305.66" width="21" height="8"/>
  <rect x="454.51" y="195.66" width="21" height="8" transform="translate(-33.25 111.16) rotate(-13.17)"/>
  <rect x="401.51" y="93.66" width="21" height="8" transform="translate(51.62 319.94) rotate(-45)"/>
  <rect x="311.51" y="29.66" width="21" height="8" transform="translate(157.63 312.59) rotate(-65.46)"/>
  <rect x="21.76" y="738.66" width="8" height="15"/>
  <rect x="131.76" y="738.66" width="8" height="15"/>
  <rect x="241.76" y="738.66" width="8" height="15"/>
  <rect x="351.76" y="738.66" width="8" height="15"/>
  <rect x="454.76" y="738.66" width="8" height="15"/>
  <polygon class="cls-3" points="399.3 365.48 442.66 365.19 454.62 360.31 454.62 343.26 442.76 338.08 454.62 332.48 454.62 295.53 387.4 304.27 340.76 322.08 273.77 392.12 289.76 407.08 281.76 422.08 292.19 447.37 295.87 435.47 315.76 454.08 313.76 429.08 357.08 444.82 332.71 415.92 338.09 412.8 402.13 411.67 375.21 388.43 411.76 399.08 447.47 388.71 434.44 383.61 399.3 365.48"/>
  <path d="M454.62,357.45c-19.94,4.89-47.13,5.12-81.34.66a129.17,129.17,0,0,0-40.41.93c.94-.37,1.91-.73,2.91-1.1,14.49-5.31,38.76-11.85,72.1-12.86a184.43,184.43,0,0,0,27.62-2.92l-.1.14c5.22,3.83,12.17,6.1,19.22,7.43v-8.12a53.19,53.19,0,0,1-7.3-2q3.76-1,7.3-2.07V329a168.16,168.16,0,0,1-47,8.05c-26.86.81-48.15,5-64.08,9.8,18.49-11.29,40.42-21.12,62.51-22.81a384.52,384.52,0,0,0,48.55-6.48V309.4a369.43,369.43,0,0,1-49.16,6.69c-37.14,2.86-73.1,26.24-97.88,46.63l-.15.11h0c-5.62,4.63-10.66,9.1-15,13.13,23-26.68,61.39-70.9,116.93-70.9h3.8a196.05,196.05,0,0,0,41.45-4.47v-8.18a188,188,0,0,1-41.43,4.65h-3.85c-59.33,0-99.24,46.21-123.16,73.91-7.22,8.37-13.46,15.59-17,17.5l3.77,7.06a19.06,19.06,0,0,0,2.27-1.46l5.62,5c.11-.12,7.5-8.45,19.67-19.49l0,.06c.27-.2,27.79-19.31,71.73-13.58,34.39,4.49,61.69,4.41,82.38-.29Z"/>
  <path d="M454.62,357.45c-19.94,4.89-47.13,5.12-81.34.66a129.17,129.17,0,0,0-40.41.93c.94-.37,1.91-.73,2.91-1.1,14.49-5.31,38.76-11.85,72.1-12.86a184.43,184.43,0,0,0,27.62-2.92l-.1.14c5.22,3.83,12.17,6.1,19.22,7.43v-8.12a53.19,53.19,0,0,1-7.3-2q3.76-1,7.3-2.07V329a168.16,168.16,0,0,1-47,8.05c-26.86.81-48.15,5-64.08,9.8,18.49-11.29,40.42-21.12,62.51-22.81a384.52,384.52,0,0,0,48.55-6.48V309.4a369.43,369.43,0,0,1-49.16,6.69c-37.14,2.86-73.1,26.24-97.88,46.63l-.15.11h0c-5.62,4.63-10.66,9.1-15,13.13,23-26.68,61.39-70.9,116.93-70.9h3.8a196.05,196.05,0,0,0,41.45-4.47v-8.18a188,188,0,0,1-41.43,4.65h-3.85c-59.33,0-99.24,46.21-123.16,73.91-7.22,8.37-13.46,15.59-17,17.5l3.77,7.06a19.06,19.06,0,0,0,2.27-1.46l5.62,5c.11-.12,7.5-8.45,19.67-19.49l0,.06c.27-.2,27.79-19.31,71.73-13.58,34.39,4.49,61.69,4.41,82.38-.29Z"/>
  <path d="M416.33,400.36c-16.29,0-31.78-4.58-45.36-8.59-9.86-2.9-18.37-5.42-25.37-5.7-20.66-.83-47.54,4.63-56.37,6.42a19.12,19.12,0,0,1-3.47.59v-8a2.1,2.1,0,0,0-.45,0c.32-.05,1.12-.22,2.33-.46,9.07-1.84,36.65-7.44,58.28-6.57,8,.32,17.38,3.09,27.31,6,19.56,5.78,43.33,12.79,66.79,4.09-12.72-3.57-34.06-10.52-50.38-20.72l4.24-6.78c23.12,14.45,58.4,22.4,58.75,22.48l10.05,2.24-8.92,5.13A73.49,73.49,0,0,1,416.33,400.36Z"/>
  <path d="M380.72,419c-7.93,0-17.7-.22-29.19-.9-34.86-2.05-64-24.89-65.25-25.86l5-6.27c.28.22,28.46,22.24,60.75,24.14,19.7,1.16,34.39,1,43.12.6-9-7.84-25.26-20.52-38-22.66l1.32-7.89c21.1,3.54,48,30,49.16,31.1l6,5.94-8.39.88C404.66,418.11,396.2,419,380.72,419Z"/>
  <polygon class="cls-3" points="84.46 365.48 41.1 365.19 29.14 360.31 29.14 343.26 41 338.08 29.14 332.48 29.14 295.53 96.36 304.27 143 322.08 209.99 392.12 194 407.08 202 422.08 191.57 447.37 187.89 435.47 168 454.08 170 429.08 126.68 444.82 151.05 415.92 145.66 412.8 81.62 411.67 108.54 388.43 72 399.08 36.29 388.71 49.32 383.61 84.46 365.48"/>
  <path d="M29.14,357.45c19.94,4.89,47.13,5.12,81.34.66a129.17,129.17,0,0,1,40.41.93c-.94-.37-1.91-.73-2.91-1.1-14.49-5.31-38.76-11.85-72.1-12.86a184.71,184.71,0,0,1-27.63-2.92l.11.14c-5.22,3.83-12.17,6.1-19.22,7.43v-8.12a53.19,53.19,0,0,0,7.3-2q-3.77-1-7.3-2.07V329a168.16,168.16,0,0,0,47,8.05c26.86.81,48.15,5,64.08,9.8-18.49-11.29-40.43-21.12-62.51-22.81a384.52,384.52,0,0,1-48.55-6.48V309.4a369.43,369.43,0,0,0,49.16,6.69c37.14,2.86,73.1,26.24,97.88,46.63l.15.11h0c5.62,4.63,10.66,9.1,15,13.13-23-26.68-61.39-70.9-116.93-70.9h-3.8a196.05,196.05,0,0,1-41.45-4.47v-8.18a188,188,0,0,0,41.43,4.65h3.84c59.34,0,99.25,46.21,123.17,73.91,7.22,8.37,13.46,15.59,17,17.5l-3.77,7.06a19.06,19.06,0,0,1-2.27-1.46l-5.63,5c-.1-.12-7.49-8.45-19.66-19.49l0,.06c-.27-.2-27.79-19.31-71.74-13.58-34.38,4.49-61.68,4.41-82.37-.29Z"/>
  <path d="M67.43,400.36A73.39,73.39,0,0,1,30,390.54l-8.93-5.13,10.06-2.24c.35-.08,35.62-8,58.75-22.48l4.24,6.78c-16.32,10.2-37.66,17.15-50.38,20.72,23.46,8.7,47.22,1.69,66.79-4.09,9.93-2.93,19.32-5.7,27.31-6,21.61-.87,49.21,4.73,58.28,6.57,1.21.24,2,.41,2.33.46a2.1,2.1,0,0,0-.45,0v8a19.12,19.12,0,0,1-3.47-.59c-8.83-1.79-35.71-7.24-56.37-6.42-7,.28-15.51,2.8-25.37,5.7C99.21,395.78,83.72,400.35,67.43,400.36Z"/>
  <path d="M103,419c-15.49,0-23.94-.86-24.46-.92l-8.39-.88,6-5.94c1.14-1.12,28.05-27.56,49.16-31.1l1.32,7.89c-12.78,2.14-29,14.82-38,22.66,8.72.36,23.41.56,43.12-.6,32.29-1.9,60.47-23.92,60.75-24.14l5,6.27c-1.22,1-30.39,23.81-65.25,25.86C120.74,418.75,111,419,103,419Z"/>
  <path d="M377.09,468.71a15.2,15.2,0,0,1-2.07-1.17c-7.49-4.51-34.56-23.05-38.23-57l7.95-.86c1.83,16.91,10.47,29.71,18.82,38.36-.4-1.43-.79-2.92-1.15-4.48a127.42,127.42,0,0,1-2.8-18.6l8-.51c.74,11.67,4.5,31,11.52,36.23.94.57,1.49.87,1.53.89Z"/>
  <path d="M349.22,455.44l-5.33-2.83c-8.37-4.43-12.69-12.72-12.5-24A51.19,51.19,0,0,1,334,413.72l7.53,2.71c-.07.18-5.32,15.3.93,24.51l.71-8.18,8,.69Z"/>
  <path d="M128.7,468.71l-3.55-7.17s.59-.32,1.53-.89c7-5.24,10.78-24.56,11.51-36.23l8,.51a129,129,0,0,1-2.8,18.6c-.36,1.56-.75,3.05-1.16,4.48,8.35-8.65,17-21.45,18.83-38.36l7.95.86c-3.67,34-30.74,52.52-38.23,57A15.2,15.2,0,0,1,128.7,468.71Z"/>
  <path d="M156.57,455.44l-1.92-22,8-.69.71,8.2c6.31-9.22,1-24.35.93-24.53l7.53-2.71a51.19,51.19,0,0,1,2.61,14.91c.19,11.26-4.13,19.55-12.5,24Z"/>
  <polygon class="cls-2" points="178.67 438.85 131.06 409.3 106.82 405.44 101.84 423.7 167.18 465.12 178.67 438.85"/>
  <polygon class="cls-1" points="180.31 433.93 142.55 414.23 165.54 406.02 180.31 433.93"/>
  <polygon class="cls-1" points="188.52 438.85 178.67 448.7 183.6 458.55 196.73 451.99 188.52 438.85"/>
  <polyline class="cls-4" points="128.62 732.28 146.55 647.98 312.37 647.98 326.62 732.28"/>
  <polyline class="cls-5" points="230.62 735.28 228.62 731.28 227.62 736.28"/>
  <polygon class="cls-6" points="281.62 440.28 226.62 482.28 217.62 476.28 175.62 510.28 174.46 480.52 164.62 469.28 130.62 508.28 158.62 528.28 25.61 638.28 26.61 649.28 52.62 627.28 62.62 632.28 81.61 617.28 94.61 618.28 126.85 600.37 155.62 638.28 163.62 630.28 140.62 593.28 167.9 574.1 194.16 613.51 227 631.57 238.49 616.79 204.01 577.39 185.96 560.97 195.81 554.4 212.22 562.61 225.36 559.33 245.06 572.46 263.12 559.33 231.93 537.98 231.93 518.28 259.84 490.37 284.46 477.24 309.09 503.51 322.22 496.94 315.66 462.46 281.62 440.28"/>
  <polygon class="cls-4" points="322.22 649.63 333.72 625 327.15 600.37 343.62 590.28 345.21 551.12 322.22 496.94 308.62 504.28 289.95 485.75 280.62 475.28 237.62 511.73 233.57 536.34 263.12 559.33 245.06 572.46 225.62 560.28 209.62 565.28 194.62 555.28 186.62 560.28 225.91 601.75 233.6 624.07 218.79 633.21 164.44 576.86 139.99 593.8 162.97 628.28 154.76 636.49 133.42 613.51 125.21 626.64 138.62 651.28 322.22 649.63"/>
  <path class="cls-4" d="M316,466.5,342,541.38l46.58,54.9L410.88,584V483.81l-23-70.6-39.4-37.76-57.46-23s-7.41-24.82-7.41-23.18-32,44.53-32,44.53l-39-44.53L199.09,359l-78.47,32.25-43,108L89.09,584l47.53-43.67-6-34,21,25,4.85-16.66-17.85.66-6-10,38.56-41.18,4.94,40.34,44.31-32.13,7.19,10,56.84-49.37,19.7-21.34,31.46,7.71,6.3,12Z"/>
  <polygon class="cls-4" points="300.88 268.73 300.62 249.28 251.63 232.61 205.66 242.46 192.52 270.37 174.46 242.46 190.88 191.57 236.85 170.22 283.62 175.28 315.66 216.19 315.62 262.28 300.88 268.73"/>
  <polygon class="cls-7" points="277.62 341.28 300.62 254.28 290.62 243.28 272.97 276.94 249.99 260.52 199.62 246.28 202.37 258.88 205.66 301.57 220.54 338.79 240.13 370.52 251.63 373.81 277.62 341.28"/>
  <polygon class="cls-7" points="338.62 429.28 320.58 408.28 285.62 424.28 283.62 465.28 308.62 469.28 338.62 429.28"/>
  <polygon class="cls-7" points="128.62 598.28 126.85 639.77 136.7 656.19 113.72 659.48 94.02 638.13 98.94 616.79 128.62 598.28"/>
  <polygon class="cls-6" points="288.29 244.47 282.5 269.98 262.21 272.88 249.99 260.52 230.9 273.45 214.62 271.28 205.66 242.46 251.63 232.61 288.29 244.47"/>
  <path d="M394.78,598.73a21.78,21.78,0,0,1-10.46-3.06c-48.61-26.82-71.6-123.28-72.56-127.37l-.27-1.15.4-1.11a95.14,95.14,0,0,1,26.7-38.7l2.68-2.17,2.54,2.33C363.82,445.85,399,516,400.5,519l-7.15,3.57c-.35-.68-33-65.71-52.38-86.57-4.86,4.68-15.23,15.93-21.14,31.66a374.75,374.75,0,0,0,17,50.87c10.42,24.84,27.79,57.17,51.36,70.17,4.06,2.24,8.76,3.82,12.83-1.45,8.89-11.51,10.43-47.24,3.93-91-6.35-42.77-18.33-79.63-29.81-91.71-20.59-21.68-28.68-25-30.88-25.47l-1,1.28-36.24-14.21,2.92-7.45,31.85,12.5a6.45,6.45,0,0,1,1.31-.19c7.12-.41,19.49,8.75,37.8,28,15.46,16.27,26.86,61.9,31.92,96,3.15,21.18,4.51,41.1,3.93,57.61-.67,19-3.84,32.25-9.43,39.49A15.89,15.89,0,0,1,394.78,598.73Z"/>
  <polygon points="304.81 412.33 296.95 410.81 305.88 364.67 304.76 364.67 290.66 356.77 294.57 349.79 306.85 356.67 315.58 356.67 304.81 412.33"/>
  <polygon points="173.53 511.96 165.54 511.47 168.88 456.42 193.25 410.93 182.75 356.67 191.58 356.67 200.58 352.17 204.16 359.32 193.47 364.67 192.45 364.67 201.65 412.2 176.76 458.65 173.53 511.96"/>
  <path d="M295.38,487.13c-3.06-2-4.05-6.28,0-20.41-1.3,2.75-2.62,5.69-3.93,8.79l-6.72,1.05c-3.11-3.63-4.36-8.77-3.75-15.35l-1.47.19c-4.37-6.56-3.67-20,1.66-31.9,5.61-12.55,14.75-20.32,25.73-21.89,20.5-2.93,33.19,12,37,20.34l-7.25,3.37c-.36-.77-9-18.61-28.65-15.79-11,1.57-17,11.47-19.55,17.23a44.92,44.92,0,0,0-2.55,7.35c5.64-12.84,8.11-12.84,10-12.84l3.46,6a112.27,112.27,0,0,0-7.53,16.47A54.4,54.4,0,0,0,289,461.59c5-10.28,12.35-23.31,18.65-25.83l5.2,5.2c-3.32,8.3-6.59,17.53-8.9,25.14,5.35-8,10.55-14.57,13.77-15.64l2.53,7.59a1.55,1.55,0,0,0,.24-.1c-2.19,1.27-10.22,12.29-19.4,27.88Z"/>
  <path d="M28.17,653.35l-6.55-3.07v-14L23,633.22,216.22,470.89l5.77.66,4.65,6.2,53.62-44.63,5.12,6.15Zm1.45-15.21v3.6L220.48,482.88l-2.35-3.14Z"/>
  <path d="M156.75,641.61l-5.23-1.14-27.11-37.65-27.92,22-5.6-.64-4.12-5.15L62,638l-4.86-6.36L85,610.33l5.55.68,4.09,5.1L122.73,594l5.73.8,27.44,38.12,4.46-2.54-25.23-34.15.69-5.48,26.27-21.34,6.21,1.54c14.88,35.17,47.63,53.26,56.42,57.59l7.61-6.52c-8-25.83-48.41-57.52-48.83-57.84l-.1-6.23,9.85-8.21,6.08,1.17c2.91,5.41,6.13,8.37,9.57,8.8,5.27.65,10.16-4.61,10.21-4.66l5.18-.64,22.17,14.77,10.86-8.88c-17.27-8.68-27-19-28.82-30.58-2.48-15.52,10.06-27,10.6-27.5l.19-.16,39.41-31.19,5.46.47L310,500.17l8.7-4.51-5.84-19.38,7.66-2.31,6.8,22.56-2,4.71-14.4,7.46-4.82-.88-25.4-28.39-36.33,28.76c-.87.82-9.71,9.57-8,20.27,1.61,9.86,12,19.27,30,27.21l.91,6.75L249.23,577.2l-4.75.23-22-14.69c-3,2.39-8.28,5.61-14.47,4.87-5-.6-9.41-3.57-13.15-8.83l-2.57,2.14c11.16,9.27,42.77,37.25,48.48,61.52l-1.29,3.95L228,636.24l-4.16.65c-1.74-.73-41.25-17.84-60.69-58L143.83,594.5l25.64,34.69L168.24,635Z"/>
  <path d="M284.62,382.87c-.08-.1-8.58-10.48-19-11-4.9-.26-9.45,1.66-13.87,5.87l-.65.63-5.6-5.71.52-.5c3.94-3.92,32.16-32.77,33.59-57.08l8,.47a47.3,47.3,0,0,1-1.34,8.55c5.66,6.53,17.83,25.49,5.2,57.77Zm-19.87-19.06c.45,0,.9,0,1.36,0,8.46.46,15.57,5.29,20,9.15,6.07-19.8,1.34-32.83-2.89-39.66-4.7,11.43-12.31,22.29-18.95,30.47Z"/>
  <polygon points="271.25 417.21 248.34 417.21 248.34 409.21 264.84 409.21 273.71 369.41 281.52 371.15 271.25 417.21"/>
  <path d="M212.06,382.88l-6.84-1.05c-12.68-32.38-.38-51.36,5.25-57.83a49.63,49.63,0,0,1-1.85-10.49l8-.47c1.53,26.06,34.24,59.26,34.57,59.59l-5.67,5.65c-4.6-4.61-9.33-6.72-14.45-6.45C220.64,372.39,212.14,382.77,212.06,382.88ZM213.7,333c-4.28,6.74-9.28,19.86-3.1,40,4.4-3.86,11.52-8.69,20-9.15a21.89,21.89,0,0,1,2.29,0C226.3,355.53,218.64,344.51,213.7,333Z"/>
  <polygon points="248.34 417.21 225.5 417.21 214.73 373.23 222.5 371.33 231.78 409.21 248.34 409.21 248.34 417.21"/>
  <path d="M83.65,585.83c-.41-3-10.07-72.6-8.38-86.1C77,486,100.1,408.12,117.32,389.17S181.51,360.45,183.5,360l1.62,7.83c-.46.1-46.53,9.8-61.88,26.69C116.7,401.75,107.5,421.67,98,449.2c-7.72,22.36-14,45.1-14.79,51.52-1.29,10.34,5.6,64.15,8.37,84Z"/>
  <path d="M150.61,536.39l-8-.23c0-.54,1.57-54.19,1.57-65.49,0-11.88,10.89-16.38,16.64-17.1l.41,0,11.28-.26.19,8-11.05.25c-1.53.24-9.47,1.83-9.47,9.14C152.19,482.09,150.68,534.18,150.61,536.39Z"/>
  <path d="M262.17,545.61a11.52,11.52,0,0,1-6.94-2.18c-3.41-2.52-5.14-6.84-5.14-12.83,0-13.85.52-36.19.53-36.42l8,.19c0,.23-.52,22.48-.52,36.23,0,3.19.66,5.46,1.87,6.38,1.39,1,3.65.46,3.67.45l1.13-.16H297.6c5.76,0,7.24-6.45,7.49-7.82v-24.3h8l0,25.19c-.74,5.16-4.92,14.93-15.45,14.93H265.26A14.42,14.42,0,0,1,262.17,545.61Z"/>
  <path d="M324.06,602.92H227v-8h97.06c17.34,0,17.54-16.82,17.54-17.53V544.55h8v32.84C349.6,586.22,344.26,602.92,324.06,602.92Z"/>
  <path d="M143.64,521.93H138l-12.32-12.31V504l38.59-38.58h5.65l12.32,12.31v5.66Zm-9.49-15.14,6.66,6.66,32.92-32.93-6.65-6.65Z"/>
  <rect x="144.91" y="501.86" width="36.12" height="13.13" transform="translate(637.72 752.71) rotate(135)"/>
  <rect x="131.06" y="513.36" width="8" height="29.55"/>
  <polygon points="324.42 653.63 132.59 653.63 120.92 630.3 128.87 603.58 136.54 605.86 129.49 629.55 137.53 645.63 320.03 645.63 329.36 630.96 320.03 599.88 327.7 597.58 338.07 632.17 324.42 653.63"/>
  <rect x="225.62" y="703.25" width="8" height="32.06" transform="translate(-44.42 15.72) rotate(-3.58)"/>
  <rect x="315.12" y="650.6" width="8" height="83.36" transform="translate(-119.36 68.72) rotate(-10.37)"/>
  <rect x="211.61" y="715.78" width="33.02" height="8" transform="translate(-498.24 926) rotate(-88.27)"/>
  <rect x="94.86" y="689.28" width="85.51" height="8" transform="translate(-569.17 698.81) rotate(-79.22)"/>
  <polygon points="155.57 735.9 147.66 734.66 150.31 717.83 136.86 712.44 139.83 705.02 159.21 712.77 155.57 735.9"/>
  <polygon points="300.65 733.81 297.8 712.74 317.12 705.02 320.09 712.44 306.56 717.85 308.58 732.74 300.65 733.81"/>
  <rect x="226.28" y="652.55" width="8" height="24.63"/>
  <path d="M297.9,277.65l-4.26-4.6,3-19.5c-14.16-15.08-47.95-15.29-48.3-15.3v-8c1.62,0,39.84.23,55.64,19.53l.85,3.14-2.28,14.85c5.21-3,12.39-10.69,12.39-30.23,0-15.84-7.06-32.09-19.37-44.6-12.92-13.13-29.69-20.36-47.23-20.36v-8c19.7,0,38.49,8.08,52.93,22.75,13.77,14,21.67,32.29,21.67,50.21,0,10.65-2.09,25.19-12,34A23.91,23.91,0,0,1,297.9,277.65Z"/>
  <path d="M271.33,279.3c-10.48,0-15.23-6.38-18.38-10.6-2.16-2.91-3.25-4.18-4.61-4.18v-8c5.52,0,8.44,3.93,11,7.4,2.95,4,5.5,7.38,12,7.38A9.86,9.86,0,0,0,279.1,268c4.07-4.55,5.86-14.05,4.67-24.79l8-.88c.7,6.3,1.46,21.94-6.66,31A17.9,17.9,0,0,1,271.33,279.3Z"/>
  <path d="M248.59,342h-.42c-1.94,0-4.08-1.06-6-2-4.36-2.15-11.27-6.18-20.55-12-27.88-17.42-27-77.2-27-79.74l8,.16a183.65,183.65,0,0,0,2.66,31.33c2.59,14.68,8.25,33.79,20.55,41.47,15.76,9.85,20.8,12.15,22.27,12.68l.25-.15h.11l.23.14c1.5-.56,6.55-2.91,22.17-12.67,12.28-7.68,17.83-26.77,20.33-41.44a184,184,0,0,0,2.44-31.33l8-.22c.07,2.54,1.37,62.34-26.52,79.77-9.25,5.79-16.14,9.81-20.46,12C252.58,340.92,250.49,342,248.59,342Zm.29-8,2.91,1.86a4.15,4.15,0,0,0-.3-.43A3.79,3.79,0,0,0,248.88,334Zm-1,0a3.78,3.78,0,0,0-2.58,1.39c-.09.12-.18.24-.26.37Z"/>
  <path d="M198.76,277.65a23.89,23.89,0,0,1-13-6.13c-9.94-8.79-12-23.33-12-34,0-17.92,7.89-36.22,21.67-50.21,14.43-14.67,33.23-22.75,52.92-22.75v8c-17.53,0-34.3,7.23-47.22,20.36-12.31,12.51-19.37,28.76-19.37,44.6,0,19.52,7.17,27.21,12.39,30.22l-2.29-14.84.86-3.14c15.79-19.3,54-19.53,55.63-19.53v8c-.35,0-34.14.22-48.31,15.3l3,19.5Z"/>
  <path d="M225.34,279.3a17.94,17.94,0,0,1-13.74-6c-8.11-9.07-7.36-24.71-6.66-31l8,.88c-1.2,10.74.59,20.24,4.67,24.79a9.83,9.83,0,0,0,7.77,3.32c6.46,0,9-3.42,12-7.38,2.58-3.47,5.51-7.4,11-7.4v8c-1.35,0-2.44,1.27-4.61,4.18C240.57,272.92,235.81,279.3,225.34,279.3Z"/>
  <path d="M252.59,299.78a27.33,27.33,0,0,1-10.8-2.77L245,289.7c5.62,2.5,8.58,2.4,9.42,1.55,2.84-2.88-.61-16.7-5.48-27.3l7.27-3.34a107.6,107.6,0,0,1,5.1,13.89c3.15,11.05,2.76,18.36-1.2,22.37A10.15,10.15,0,0,1,252.59,299.78Z"/>
  <path d="M233,316.91l-2.19-7.7,11.49-3.28,3.93,1a1,1,0,0,0-.14-.13,4.44,4.44,0,0,0,4.46,0l-.13.13,3.93-1,11.49,3.28-2.2,7.7-9.73-2.78a12.74,12.74,0,0,1-11.17,0Z"/>
  <path d="M265.48,239.28H231.21V162.94h34.27Zm-26.27-8h18.27V170.94H239.21Z"/>
  <rect x="153.08" y="444.51" width="18.13" height="8" transform="translate(-299.2 569.36) rotate(-84.8)"/>
  <rect x="142.32" y="595.21" width="37.07" height="8"/>
  <path d="M126.85,670c-3.31,0-7.6-1.15-11.77-5.63l-2.23,2.25c-7.7-1.71-13.62-10.06-17.59-24.83a131,131,0,0,1-3.63-20.21l8-.69c.81,9.27,3.31,21.26,7.12,29.28L105.28,644c-.26-1.05-.39-1.7-.41-1.78l7.82-1.68.47,2.05c.1.36.2.75.32,1.16l4.93-3.26a100.62,100.62,0,0,0,14.07,13.78L131,650.93l7.29-3.3,5.37,11.83-1.86,5.23c-3.48,1.75-8,.15-12.6-3l1.26,2.51Zm11.59-12.58Z"/>
  <rect x="56.51" y="624.26" width="8" height="12.55" transform="translate(-397.71 193.19) rotate(-40.85)"/>
</svg>
