<svg id="Layer_1" data-name="Layer 1" xmlns="http://www.w3.org/2000/svg" viewBox="0 0 186.29 109">
  <defs>
    <style>
      .cls-1 {
        fill: #fff;
      }

      .cls-2 {
        fill: #29a6dd;
      }
    </style>
  </defs>
  <title>eye</title>
  <g>
    <path class="cls-1" d="M99.81,150.3c40,0,88-52,88-52s-35-49-88-49-88,49-88,49S59.81,150.3,99.81,150.3Z" transform="translate(-6.66 -45.3)"/>
    <path d="M99.81,154.3c-41.28,0-88.93-51.11-90.94-53.29L6.66,98.62,8.55,96C10,93.91,45.38,45.3,99.81,45.3S189.58,93.91,191.06,96L193,98.62l-2.2,2.39C188.74,103.19,141.08,154.3,99.81,154.3ZM17.09,98c10,10.11,49.78,48.28,82.72,48.28S172.55,108.13,182.52,98c-8.05-9.92-39.4-44.72-82.71-44.72S25.15,88.1,17.09,98Z" transform="translate(-6.66 -45.3)"/>
  </g>
  <g>
    <circle class="cls-2" cx="93.15" cy="53" r="29"/>
    <path d="M99.81,131.3a33,33,0,1,1,33-33A33,33,0,0,1,99.81,131.3Zm0-58a25,25,0,1,0,25,25A25,25,0,0,0,99.81,73.3Z" transform="translate(-6.66 -45.3)"/>
  </g>
  <circle cx="93.15" cy="53" r="15"/>
  <g>
    <line x1="93.15" y1="25" x2="93.15" y2="49"/>
    <rect x="89.15" y="25" width="8" height="24"/>
  </g>
  <g>
    <line x1="67.75" y1="38" x2="88.54" y2="50"/>
    <rect x="80.81" y="77.3" width="8" height="24" transform="translate(-41.59 72.8) rotate(-60)"/>
  </g>
  <g>
    <line x1="69.75" y1="67" x2="90.54" y2="55"/>
    <rect x="74.81" y="102.3" width="24" height="8" transform="translate(-48.18 12.35) rotate(-30)"/>
  </g>
  <g>
    <line x1="119.54" y1="38" x2="98.75" y2="50"/>
    <rect x="103.81" y="85.3" width="24" height="8" transform="translate(-35.8 24.56) rotate(-30)"/>
  </g>
  <g>
    <line x1="117.54" y1="67" x2="96.75" y2="55"/>
    <rect x="109.81" y="94.3" width="8" height="24" transform="translate(-41.82 106.41) rotate(-60)"/>
  </g>
  <g>
    <line x1="93.15" y1="58" x2="93.15" y2="82"/>
    <rect x="89.15" y="58" width="8" height="24"/>
  </g>
</svg>
