<svg id="e3iima4ldrdc1" xmlns="http://www.w3.org/2000/svg" xmlns:xlink="http://www.w3.org/1999/xlink" viewBox="0 0 700 230" shape-rendering="geometricPrecision" text-rendering="geometricPrecision"><style>
<![CDATA[#e3iima4ldrdc7_to {animation: e3iima4ldrdc7_to__to 3000ms linear infinite normal forwards}@keyframes e3iima4ldrdc7_to__to { 0% {transform: translate(0px,0px);animation-timing-function: cubic-bezier(0,0,0.580000,1)} 16.666667% {transform: translate(-16.362309px,12.799994px);animation-timing-function: cubic-bezier(0,0,0.580000,1)} 50% {transform: translate(27.100072px,12.799994px);animation-timing-function: cubic-bezier(0,0,0.580000,1)} 83.333333% {transform: translate(-13px,9px)} 100% {transform: translate(-4.840031px,-0.000006px)} }]]>
</style><polyline id="e3iima4ldrdc2" points="423.200000,153.700000 490.200000,83.600000 536.900000,65.800000 621.900000,54.800000 685.600000,23.300000 649.200000,62.600000 648.800000,72.900000 592.200000,99.600000 624.200000,113.600000 592.100000,126.700000 548.800000,127 583.900000,145.200000 597,150.300000 561.200000,160.600000 524.700000,150 551.600000,173.200000 487.600000,174.300000 482.200000,177.500000 506.600000,206.400000 463.200000,190.600000 465.200000,215.600000 445.400000,197 441.700000,208.900000 431.200000,183.600000 439.200000,168.600000 423.200000,153.700000" fill="rgb(255,237,168)" stroke="none" stroke-width="1"/><polyline id="e3iima4ldrdc3" points="280.500000,154.500000 213.500000,84.500000 166.900000,66.700000 81.900000,55.600000 18.100000,24.200000 54.500000,63.500000 54.900000,73.800000 111.500000,100.500000 78,113 111.600000,127.600000 155,127.900000 119.800000,146 106.800000,151.100000 142.500000,161.500000 179.100000,150.900000 152.100000,174.100000 216.200000,175.200000 221.600000,178.300000 197.200000,207.200000 240.500000,191.500000 238.500000,216.500000 258.400000,197.900000 262.100000,209.800000 272.500000,184.500000 264.500000,169.500000 280.500000,154.500000" fill="rgb(255,237,168)" stroke="none" stroke-width="1"/><g id="e3iima4ldrdc4"><path id="e3iima4ldrdc5" d="M350.200000,223.600000C390.200000,223.600000,438.200000,171.600000,438.200000,171.600000C438.200000,171.600000,403.200000,122.600000,350.200000,122.600000C297.200000,122.600000,262.200000,171.600000,262.200000,171.600000C262.200000,171.600000,310.200000,223.600000,350.200000,223.600000Z" fill="rgb(255,255,255)" stroke="none" stroke-width="1"/><path id="e3iima4ldrdc6" d="M350.200000,227.600000C308.900000,227.600000,261.300000,176.500000,259.300000,174.300000L257.100000,171.900000L259,169.300000C260.500000,167.200000,295.800000,118.600000,350.300000,118.600000C404.800000,118.600000,440.100000,167.200000,441.600000,169.300000L443.500000,171.900000L441.300000,174.300000C439.200000,176.500000,391.500000,227.600000,350.200000,227.600000ZM267.500000,171.300000C277.500000,181.400000,317.300000,219.600000,350.200000,219.600000C383.100000,219.600000,422.900000,181.400000,432.900000,171.300000C424.800000,161.400000,393.500000,126.600000,350.200000,126.600000C306.900000,126.600000,275.600000,161.400000,267.500000,171.300000Z" fill="rgb(0,0,0)" stroke="none" stroke-width="1"/></g><g id="e3iima4ldrdc7_to" transform="translate(0,0)"><g id="e3iima4ldrdc7" transform="translate(0,0)"><circle id="e3iima4ldrdc8" r="29" transform="matrix(1 0 0 1 348.19999999999999 170.59999999999999)" fill="rgb(41,166,221)" stroke="none" stroke-width="1"/><g id="e3iima4ldrdc9"><circle id="e3iima4ldrdc10" r="29" transform="matrix(1 0 0 1 350.19999999999999 171.59999999999999)" fill="rgb(41,166,221)" stroke="none" stroke-width="1"/><path id="e3iima4ldrdc11" d="M350.200000,204.600000C332,204.600000,317.200000,189.800000,317.200000,171.600000C317.200000,153.400000,332,138.600000,350.200000,138.600000C368.400000,138.600000,383.200000,153.400000,383.200000,171.600000C383.200000,189.800000,368.400000,204.600000,350.200000,204.600000ZM350.200000,146.600000C336.400000,146.600000,325.200000,157.800000,325.200000,171.600000C325.200000,185.400000,336.400000,196.600000,350.200000,196.600000C364,196.600000,375.200000,185.400000,375.200000,171.600000C375.200000,157.800000,364,146.600000,350.200000,146.600000Z" fill="rgb(0,0,0)" stroke="none" stroke-width="1"/></g><circle id="e3iima4ldrdc12" r="15" transform="matrix(1 0 0 1 350.19999999999999 171.59999999999999)" fill="rgb(0,0,0)" stroke="none" stroke-width="1"/><g id="e3iima4ldrdc13"><line id="e3iima4ldrdc14" x1="350.200000" y1="143.600000" x2="350.200000" y2="167.600000" fill="rgb(0,0,0)" stroke="none" stroke-width="1"/><rect id="e3iima4ldrdc15" width="8" height="24" rx="0" ry="0" transform="matrix(1 0 0 1 346.19999999999999 143.59999999999999)" fill="rgb(0,0,0)" stroke="none" stroke-width="1"/></g><g id="e3iima4ldrdc16"><line id="e3iima4ldrdc17" x1="324.800000" y1="156.600000" x2="345.600000" y2="168.600000" fill="rgb(0,0,0)" stroke="none" stroke-width="1"/><rect id="e3iima4ldrdc18" width="8" height="24" rx="0" ry="0" transform="matrix(0.50000000000000 -0.86600000000000 0.86600000000000 0.50000000000000 322.80249999999995 160.11680000000001)" fill="rgb(0,0,0)" stroke="none" stroke-width="1"/></g><g id="e3iima4ldrdc19"><line id="e3iima4ldrdc20" x1="326.800000" y1="185.600000" x2="347.600000" y2="173.600000" fill="rgb(0,0,0)" stroke="none" stroke-width="1"/><rect id="e3iima4ldrdc21" width="24" height="8" rx="0" ry="0" transform="matrix(0.86600000000000 -0.50000000000000 0.50000000000000 0.86600000000000 324.79369999999994 182.16659999999999)" fill="rgb(0,0,0)" stroke="none" stroke-width="1"/></g><g id="e3iima4ldrdc22"><line id="e3iima4ldrdc23" x1="376.600000" y1="156.600000" x2="355.800000" y2="168.600000" fill="rgb(0,0,0)" stroke="none" stroke-width="1"/><rect id="e3iima4ldrdc24" width="24" height="8" rx="0" ry="0" transform="matrix(0.86600000000000 -0.50000000000000 0.50000000000000 0.86600000000000 353.79129999999998 165.14259999999999)" fill="rgb(0,0,0)" stroke="none" stroke-width="1"/></g><g id="e3iima4ldrdc25"><line id="e3iima4ldrdc26" x1="374.600000" y1="185.600000" x2="353.800000" y2="173.600000" fill="rgb(0,0,0)" stroke="none" stroke-width="1"/><rect id="e3iima4ldrdc27" width="8" height="24" rx="0" ry="0" transform="matrix(0.50000000000000 -0.86600000000000 0.86600000000000 0.50000000000000 351.80649999999997 177.12479999999994)" fill="rgb(0,0,0)" stroke="none" stroke-width="1"/></g><g id="e3iima4ldrdc28"><line id="e3iima4ldrdc29" x1="350.200000" y1="176.600000" x2="350.200000" y2="200.600000" fill="rgb(0,0,0)" stroke="none" stroke-width="1"/><rect id="e3iima4ldrdc30" width="8" height="24" rx="0" ry="0" transform="matrix(1 0 0 1 346.19999999999999 176.59999999999999)" fill="rgb(0,0,0)" stroke="none" stroke-width="1"/></g></g></g><path id="e3iima4ldrdc31" d="M430.300000,160.600000L424.700000,155.600000C423.900000,156.200000,423.200000,156.700000,422.400000,157.100000L418.600000,150C422.200000,148.100000,428.400000,140.900000,435.600000,132.500000C459.500000,104.800000,499.400000,58.600000,558.800000,58.600000C559.300000,58.600000,559.800000,58.600000,560.300000,58.600000C635.800000,59.600000,686,14.100000,686.500000,13.700000L700.100000,1.200000L692.900000,18.200000C683.500000,40.500000,666.500000,56.700000,641.100000,67.800000C619.700000,77.100000,592.500000,82.800000,555.600000,85.600000C523.100000,88.100000,490.800000,108.300000,469.500000,124.700000C446.100000,142.800000,430.400000,160.400000,430.300000,160.600000ZM558.800000,66.600000C503.300000,66.600000,464.900000,110.800000,441.900000,137.500000C465.400000,115.600000,509.300000,81.100000,554.900000,77.600000C590.900000,74.800000,617.300000,69.400000,637.900000,60.400000C654.500000,53.200000,667.200000,43.600000,676.200000,31.500000C670.700000,35.200000,663.900000,39.300000,655.900000,43.500000C635.400000,54.100000,602.700000,66.600000,562.700000,66.600000C561.900000,66.600000,561.100000,66.600000,560.200000,66.600000C559.700000,66.600000,559.300000,66.600000,558.800000,66.600000Z" fill="rgb(0,0,0)" stroke="none" stroke-width="1"/><path id="e3iima4ldrdc32" d="M461.600000,130.900000L456.900000,124.400000C458.200000,123.400000,490.700000,100.700000,557.100000,98.600000C590.200000,97.600000,614.900000,87.700000,629.700000,79.500000C636.100000,76,641.200000,72.500000,645.100000,69.600000L633.500000,70.600000L632.800000,62.600000L667.200000,59.700000L660,67.300000C658.600000,68.800000,624.100000,104.500000,557.200000,106.600000C523.900000,107.600000,499.600000,114.200000,485.100000,119.500000C469.600000,125.200000,461.600000,130.800000,461.600000,130.900000Z" fill="rgb(0,0,0)" stroke="none" stroke-width="1"/><path id="e3iima4ldrdc33" d="M450,141.200000L445.400000,134.700000C446.600000,133.800000,475.800000,113.600000,522.800000,119.700000C567.800000,125.600000,600.700000,123.300000,620.900000,113C609.800000,112.700000,594.500000,110.900000,584.900000,103.900000L589.600000,97.400000C603.200000,107.400000,633.600000,104.700000,633.900000,104.600000L645.800000,103.500000L636.900000,111.600000C616.800000,129.900000,579.100000,135.100000,521.700000,127.600000C477.800000,121.900000,450.300000,141,450,141.200000Z" fill="rgb(0,0,0)" stroke="none" stroke-width="1"/><path id="e3iima4ldrdc34" d="M565.800000,161.900000C549.500000,161.900000,534,157.300000,520.400000,153.300000C510.500000,150.400000,502,147.900000,495,147.600000C474.300000,146.800000,447.500000,152.200000,438.600000,154C436,154.500000,435.700000,154.600000,435.100000,154.600000L435.100000,146.600000C435,146.600000,434.900000,146.600000,434.600000,146.600000C434.900000,146.600000,435.700000,146.400000,436.900000,146.100000C446,144.300000,473.500000,138.700000,495.200000,139.500000C503.200000,139.800000,512.600000,142.600000,522.500000,145.500000C542.100000,151.300000,565.800000,158.300000,589.300000,149.600000C576.600000,146,555.200000,139.100000,538.900000,128.900000L543.100000,122.100000C566.200000,136.600000,601.500000,144.500000,601.800000,144.600000L611.900000,146.800000L603,151.900000C590.600000,159.300000,578,161.900000,565.800000,161.900000Z" fill="rgb(0,0,0)" stroke="none" stroke-width="1"/><path id="e3iima4ldrdc35" d="M530.200000,180.500000C522.300000,180.500000,512.500000,180.300000,501,179.600000C466.100000,177.500000,437,154.700000,435.800000,153.700000L440.800000,147.400000C441.100000,147.600000,469.300000,169.600000,501.600000,171.500000C521.300000,172.700000,536,172.500000,544.700000,172.100000C535.700000,164.300000,519.400000,151.600000,506.700000,149.400000L508,141.500000C529.100000,145,556,171.500000,557.200000,172.600000L563.200000,178.500000L554.800000,179.400000C554.100000,179.700000,545.700000,180.500000,530.200000,180.500000Z" fill="rgb(0,0,0)" stroke="none" stroke-width="1"/><path id="e3iima4ldrdc36" d="M525.600000,215.700000L511.600000,213.600000C479.900000,208.800000,460.400000,192.900000,449.600000,180.400000C437.800000,166.800000,433.600000,154.400000,433.500000,153.900000L441.100000,151.400000C441.100000,151.500000,445.100000,163,455.900000,175.400000C467.300000,188.400000,481.500000,197.500000,498.500000,202.500000C490.200000,194.500000,479.500000,183.100000,474.700000,173.400000L481.900000,169.800000C489.400000,184.900000,514.700000,206.300000,514.900000,206.500000L525.600000,215.700000Z" fill="rgb(0,0,0)" stroke="none" stroke-width="1"/><path id="e3iima4ldrdc37" d="M474.600000,230.300000C473.900000,230,473.200000,229.600000,472.500000,229.100000C465,224.600000,437.900000,206.100000,434.300000,172.100000L442.300000,171.200000C444.100000,188.100000,452.800000,200.900000,461.100000,209.600000C460.700000,208.200000,460.300000,206.700000,459.900000,205.100000C457.700000,195.500000,457.100000,186.900000,457.100000,186.500000L465.100000,186C465.800000,197.700000,469.600000,217,476.600000,222.200000C477.500000,222.800000,478.100000,223.100000,478.100000,223.100000L474.600000,230.300000Z" fill="rgb(0,0,0)" stroke="none" stroke-width="1"/><path id="e3iima4ldrdc38" d="M446.700000,217L441.400000,214.200000C433,209.800000,428.700000,201.500000,428.900000,190.200000C429,182.300000,431.400000,175.600000,431.500000,175.300000L439,178C438.900000,178.200000,433.700000,193.300000,439.900000,202.500000L440.600000,194.300000L448.600000,195L446.700000,217Z" fill="rgb(0,0,0)" stroke="none" stroke-width="1"/><path id="e3iima4ldrdc39" d="M270.500000,160.600000C270.300000,160.400000,254.700000,142.800000,231.300000,124.700000C210,108.200000,177.800000,88.100000,145.200000,85.600000C108.300000,82.800000,81.100000,77.100000,59.700000,67.800000C34.200000,56.700000,17.200000,40.500000,7.800000,18.200000L0.600000,1.200000L14.200000,13.700000C14.700000,14.200000,65.100000,59.600000,140.400000,58.600000C200.500000,57.800000,240.900000,104.600000,265,132.500000C272.200000,140.900000,278.500000,148.100000,282,150L278.200000,157.100000C277.500000,156.700000,276.700000,156.200000,275.900000,155.600000L270.500000,160.600000ZM24.600000,31.600000C33.600000,43.700000,46.300000,53.300000,62.900000,60.500000C83.500000,69.500000,109.800000,74.900000,145.900000,77.700000C191.500000,81.200000,235.400000,115.700000,258.900000,137.600000C235.700000,110.700000,196.900000,66,140.600000,66.700000C99.500000,67.200000,65.900000,54.400000,45,43.600000C36.900000,39.400000,30,35.200000,24.600000,31.600000Z" fill="rgb(0,0,0)" stroke="none" stroke-width="1"/><path id="e3iima4ldrdc40" d="M239.200000,130.900000C238.900000,130.700000,207.200000,108.600000,143.400000,106.600000C76.500000,104.600000,42,68.900000,40.600000,67.400000L33.400000,59.800000L67.800000,62.700000L67.100000,70.700000L55.600000,69.700000C69.600000,80.100000,99.300000,97.300000,143.600000,98.700000C210.100000,100.700000,242.500000,123.500000,243.800000,124.500000L239.200000,130.900000Z" fill="rgb(0,0,0)" stroke="none" stroke-width="1"/><path id="e3iima4ldrdc41" d="M250.800000,141.200000C250.700000,141.200000,243.800000,136.300000,231.500000,132.200000C220.200000,128.500000,201.900000,124.600000,179.100000,127.600000C121.700000,135.100000,84,129.900000,63.900000,111.600000L55,103.500000L66.900000,104.600000C67.200000,104.600000,97.600000,107.300000,111.200000,97.400000L115.900000,103.900000C106.400000,110.900000,91.100000,112.700000,79.900000,113C100.100000,123.300000,132.900000,125.600000,178,119.700000C225,113.600000,254.200000,133.800000,255.400000,134.700000L250.800000,141.200000L253.100000,137.900000L250.800000,141.200000Z" fill="rgb(0,0,0)" stroke="none" stroke-width="1"/><path id="e3iima4ldrdc42" d="M134.900000,161.900000C122.700000,161.900000,110.100000,159.300000,97.500000,152.100000L88.600000,147L98.700000,144.800000C99.100000,144.700000,134.300000,136.800000,157.400000,122.300000L161.600000,129.100000C145.300000,139.300000,123.900000,146.300000,111.200000,149.800000C134.700000,158.500000,158.400000,151.500000,178,145.700000C187.900000,142.800000,197.300000,140,205.300000,139.700000C226.900000,138.800000,254.500000,144.400000,263.600000,146.300000C264.800000,146.500000,265.600000,146.700000,265.900000,146.800000C265.700000,146.800000,265.500000,146.800000,265.400000,146.800000L265.400000,154.800000C264.800000,154.800000,264.500000,154.700000,261.900000,154.200000C253.100000,152.400000,226.200000,147,205.500000,147.800000C198.500000,148.100000,190,150.600000,180.100000,153.500000C166.700000,157.300000,151.200000,161.900000,134.900000,161.900000Z" fill="rgb(0,0,0)" stroke="none" stroke-width="1"/><path id="e3iima4ldrdc43" d="M170.600000,180.500000C155.100000,180.500000,146.700000,179.600000,146.100000,179.600000L137.700000,178.700000L143.700000,172.800000C144.800000,171.700000,171.800000,145.200000,192.900000,141.700000L194.200000,149.600000C181.400000,151.700000,165.200000,164.400000,156.200000,172.300000C164.900000,172.700000,179.600000,172.900000,199.300000,171.700000C231.600000,169.800000,259.800000,147.800000,260.100000,147.600000L265.100000,153.900000C263.900000,154.900000,234.700000,177.700000,199.800000,179.800000C188.300000,180.300000,178.500000,180.500000,170.600000,180.500000Z" fill="rgb(0,0,0)" stroke="none" stroke-width="1"/><path id="e3iima4ldrdc44" d="M175.100000,215.700000L185.900000,206.600000C186.200000,206.400000,211.400000,184.900000,218.900000,169.900000L226.100000,173.500000C221.300000,183.100000,210.600000,194.500000,202.300000,202.500000C246.600000,189.200000,259.600000,151.800000,259.700000,151.400000L267.300000,153.900000C267.100000,154.400000,262.900000,166.800000,251.200000,180.400000C240.400000,192.900000,220.800000,208.800000,189.200000,213.600000L175.100000,215.700000Z" fill="rgb(0,0,0)" stroke="none" stroke-width="1"/><path id="e3iima4ldrdc45" d="M226.200000,230.300000L222.700000,223.100000C222.700000,223.100000,223.300000,222.800000,224.200000,222.200000C231.200000,217,235,197.600000,235.700000,186L243.700000,186.500000C243.700000,186.900000,243.100000,195.500000,240.900000,205.100000C240.500000,206.700000,240.200000,208.200000,239.700000,209.600000C248,200.900000,256.700000,188.200000,258.500000,171.200000L266.500000,172.100000C262.800000,206.100000,235.800000,224.600000,228.300000,229.100000C227.600000,229.500000,226.900000,229.900000,226.200000,230.300000Z" fill="rgb(0,0,0)" stroke="none" stroke-width="1"/><path id="e3iima4ldrdc46" d="M254,217L252.100000,195L260.100000,194.300000L260.800000,202.500000C267.100000,193.300000,261.800000,178.200000,261.700000,178L269.200000,175.300000C269.300000,175.600000,271.700000,182.300000,271.800000,190.200000C272,201.500000,267.700000,209.700000,259.300000,214.200000L254,217Z" fill="rgb(0,0,0)" stroke="none" stroke-width="1"/></svg>
