<svg width="74" height="72" viewBox="0 0 74 72" fill="none" xmlns="http://www.w3.org/2000/svg">
<path d="M0.580078 6.99999C0.580078 3.134 3.71409 0 7.58008 0H66.9608C70.8268 0 73.9608 3.13401 73.9608 7V64.852C73.9608 68.718 70.8268 71.852 66.9608 71.852H7.58009C3.7141 71.852 0.580078 68.7179 0.580078 64.852V6.99999Z" fill="#FFFDEE"/>
<path fill-rule="evenodd" clip-rule="evenodd" d="M66.9608 3H7.58008C5.37093 3 3.58008 4.79086 3.58008 6.99999V64.852C3.58008 67.0611 5.37094 68.852 7.58009 68.852H66.9608C69.1699 68.852 70.9608 67.0611 70.9608 64.852V7C70.9608 4.79087 69.1699 3 66.9608 3ZM7.58008 0C3.71409 0 0.580078 3.134 0.580078 6.99999V64.852C0.580078 68.7179 3.7141 71.852 7.58009 71.852H66.9608C70.8268 71.852 73.9608 68.718 73.9608 64.852V7C73.9608 3.13401 70.8268 0 66.9608 0H7.58008Z" fill="#2C2A39"/>
<path d="M65.7858 63.7635C65.9538 63.7635 66.0378 63.8435 66.0378 64.0035V64.4115C66.0378 64.5715 65.9538 64.6515 65.7858 64.6515H65.0778V65.3595C65.0778 65.5675 65.1658 65.7715 65.3418 65.9715C65.5258 66.1635 65.6178 66.3075 65.6178 66.4035V66.4515C65.6178 66.6035 65.5258 66.6795 65.3418 66.6795H62.7018C62.5098 66.6795 62.4138 66.6035 62.4138 66.4515V66.4035C62.4138 66.3075 62.4938 66.1635 62.6538 65.9715C62.8218 65.7715 62.9058 65.5675 62.9058 65.3595V64.6515H59.7498C59.3818 64.6515 59.1978 64.5035 59.1978 64.2075V64.1475C59.1978 63.8915 59.2658 63.6555 59.4018 63.4395L62.5098 58.6875C62.7338 58.3355 63.0418 58.1595 63.4338 58.1595H64.7658C64.9738 58.1595 65.0778 58.2635 65.0778 58.4715V63.7635H65.7858ZM60.3378 63.7635H62.9058V59.8275L60.3378 63.7635Z" fill="#2C2A39"/>
<path d="M16.2535 56C15.2295 56 14.7175 55.5947 14.7175 54.784V54.528C14.7175 54.016 15.1442 53.248 15.9975 52.224C16.8509 51.1573 17.2775 50.0907 17.2775 49.024V17.536C17.2775 16.4693 16.8509 15.424 15.9975 14.4C15.1442 13.3333 14.7175 12.544 14.7175 12.032V11.776C14.7175 10.9653 15.2295 10.56 16.2535 10.56H30.2055C31.2295 10.56 31.7415 10.9653 31.7415 11.776V12.032C31.7415 12.544 31.2722 13.3333 30.3335 14.4C29.4375 15.424 28.9895 16.4693 28.9895 17.536L28.9255 30.592H45.7575L45.8215 17.536C45.8215 16.4693 45.3949 15.424 44.5415 14.4C43.7309 13.3333 43.3255 12.544 43.3255 12.032V11.776C43.3255 10.9653 43.8162 10.56 44.7975 10.56H58.7495C59.7735 10.56 60.2855 10.9653 60.2855 11.776V12.032C60.2855 12.544 59.7949 13.3333 58.8135 14.4C57.8749 15.424 57.4055 16.4693 57.4055 17.536V49.024C57.4055 50.0907 57.8749 51.1573 58.8135 52.224C59.7949 53.248 60.2855 54.016 60.2855 54.528V54.784C60.2855 55.5947 59.7735 56 58.7495 56H44.7975C43.8162 56 43.3255 55.5947 43.3255 54.784V54.528C43.3255 54.016 43.7309 53.248 44.5415 52.224C45.3949 51.1573 45.8215 50.0907 45.8215 49.024L45.7575 35.584H28.9895L28.9255 49.024C28.9255 50.0907 29.3949 51.1573 30.3335 52.224C31.2722 53.248 31.7415 54.016 31.7415 54.528V54.784C31.7415 55.5947 31.2295 56 30.2055 56H16.2535Z" fill="#2C2A39"/>
</svg>
