<svg id="Layer_1" data-name="Layer 1" xmlns="http://www.w3.org/2000/svg" viewBox="0 0 485 760">
  <defs>
    <style>
      .cls-1 {
        fill: #787fff;
      }

      .cls-2 {
        fill: #5061ff;
      }

      .cls-3 {
        fill: #615f85;
      }

      .cls-4 {
        fill: #2b293a;
      }

      .cls-5 {
        fill: #ffbd7b;
      }
    </style>
  </defs>
  <title>Hoeders</title>
  <polyline class="cls-1" points="341.82 343.08 457.66 455.14 459.72 733.58 420.91 733.58 298.38 371.69 341.82 343.08"/>
  <path class="cls-1" d="M384.81,246.64h73s1-98-62-148l-53,51S385.81,200.64,384.81,246.64Z"/>
  <path class="cls-1" d="M247.81,112.64s-53,4-91,39l-61-61s28-30,74-46,79-12,79-12Z"/>
  <path class="cls-1" d="M27.81,247.64l86-1s2,55,40,93l-125,127Z"/>
  <polygon class="cls-1" points="78.81 734.63 169.81 736.63 192.81 514.63 152.81 518.63 78.81 734.63"/>
  <path class="cls-1" d="M247.81,112.64s76,8,95,37l-14,15s-38-33-78-30Z"/>
  <path class="cls-1" d="M364.81,245.64l17-1s7,47-37,96l-14-8S361.81,288.64,364.81,245.64Z"/>
  <polygon class="cls-1" points="169.81 327.63 203.67 353.26 188.81 363.63 153.81 339.63 169.81 327.63"/>
  <path class="cls-1" d="M156.81,151.64l14,14s-33,28-34,80h-19S123.81,173.64,156.81,151.64Z"/>
  <path class="cls-2" d="M385.51,243.68h72.08V459.07L344.81,340.64S386.21,301.73,385.51,243.68Z"/>
  <path class="cls-2" d="M284.67,247.26c.81-.58,78.14-.62,78.14-.62s-1.14,61.62-33.14,80.62C329.67,327.26,256.67,267.26,284.67,247.26Z"/>
  <path class="cls-2" d="M250.81,134.64l-2,43,35,28,45-41S288.81,129.64,250.81,134.64Z"/>
  <path class="cls-2" d="M168.57,166.9,200.25,196l-2.58,53.29-60.86-3.62S130.59,205.34,168.57,166.9Z"/>
  <path class="cls-2" d="M156.81,151.64l14,14s35-36,80-31l-3-22S175.81,120.64,156.81,151.64Z"/>
  <path class="cls-2" d="M136.81,245.64s-7,44,33,82l-15.7,14.76s-38.3-34.76-36.3-96.76Z"/>
  <path class="cls-2" d="M152.81,152.63s-36,40-38,91h-86s2-56,14-77,45-77,53-76Z"/>
  <path class="cls-2" d="M251.86,113.72s54.95,5.92,90.95,35.92l53-55s-60-60-143-63Z"/>
  <path class="cls-2" d="M331.81,167.64s33,41,31,79l19-2S379.22,180.27,341,153Z"/>
  <path class="cls-1" d="M248,315.09l33.66-26.83s37.86,18,46,41l-34,27Z"/>
  <path class="cls-1" d="M195.31,190.65l-24.5-25s20.09-23.92,54.05-27.46,21.9-4.59,21.9-4.59l2.05,44s-15.14-10.38-17.14-9.38S195.31,190.65,195.31,190.65Z"/>
  <path class="cls-1" d="M198.67,246.26l-62.46,2.47s3.6,54.91,33.6,78.91l36.86-36.38Z"/>
  <path class="cls-1" d="M300.06,249.64l62.46-2.48s-3.6-54.9-33.6-78.9l-36.86,36.38Z"/>
  <polygon class="cls-2" points="209.67 290.26 169.81 327.63 201.67 351.26 214.67 327.26 209.67 290.26"/>
  <polygon class="cls-2" points="153.81 342.63 28.81 466.63 27.81 734.63 78.81 734.63 152.81 518.63 123.81 489.63 117.81 462.63 133.81 423.63 173.81 382.63 176.67 358.26 153.81 342.63"/>
  <polygon class="cls-2" points="326.69 466.82 420.81 733.63 330.81 736.63 284.67 519.26 326.69 466.82"/>
  <polygon class="cls-2" points="291.81 355.63 320.81 337.63 330.67 328.26 338.61 346.41 298.81 371.63 291.81 355.63"/>
  <polygon class="cls-1" points="290.81 352.63 313.81 340.63 299.81 335.63 290.81 352.63"/>
  <polygon class="cls-1" points="285.81 355.63 291.81 361.63 288.81 367.63 280.81 363.63 285.81 355.63"/>
  <path d="M249.81,384.63c-75.54,0-137-61.45-137-137s61.46-137,137-137,137,61.45,137,137S325.35,384.63,249.81,384.63Zm0-266a129.14,129.14,0,0,0-129,129c0,71.13,57.87,129,129,129s129-57.86,129-129A129.14,129.14,0,0,0,249.81,118.64Z"/>
  <path d="M249.81,365.06A117.43,117.43,0,1,1,367.24,247.64,117.56,117.56,0,0,1,249.81,365.06Zm0-228A110.58,110.58,0,1,0,360.38,247.64,110.7,110.7,0,0,0,249.81,137.06Z"/>
  <rect x="245.31" y="29.64" width="8" height="217.5"/>
  <rect x="168.36" y="59.44" width="8" height="219" transform="translate(-68.97 171.36) rotate(-45)"/>
  <rect x="26.81" y="241.89" width="223.75" height="8"/>
  <rect x="-19.52" y="353.96" width="315.52" height="8" transform="translate(-212.64 202.62) rotate(-45)"/>
  <rect x="215.9" y="167.69" width="211.22" height="8" transform="translate(-27.24 277.6) rotate(-45)"/>
  <rect x="246.06" y="241.89" width="212.75" height="8"/>
  <rect x="349.57" y="202.17" width="8.13" height="302.08" transform="translate(-146.18 353.51) rotate(-45)"/>
  <rect x="332.32" y="230.56" width="8" height="519.94" transform="matrix(0.94, -0.33, 0.33, 0.94, -143.14, 138.61)"/>
  <rect x="-95.65" y="486.53" width="519.94" height="8" transform="translate(-352.95 483.59) rotate(-70.71)"/>
  <rect x="287.31" y="354.64" width="8" height="382"/>
  <rect x="287.81" y="37.64" width="8" height="84"/>
  <rect x="329.81" y="351.64" width="8" height="385"/>
  <rect x="329.81" y="52.64" width="8" height="92"/>
  <rect x="372.31" y="289.64" width="8" height="447"/>
  <rect x="372.81" y="75.64" width="8" height="130"/>
  <rect x="414.81" y="118.64" width="8" height="618"/>
  <rect x="67.31" y="118.64" width="8" height="618"/>
  <rect x="111.81" y="73.64" width="8" height="663"/>
  <rect x="155.81" y="45.64" width="8" height="103"/>
  <rect x="155.81" y="346.64" width="8" height="103"/>
  <rect x="202.81" y="31.64" width="8" height="88"/>
  <rect class="cls-1" x="459.81" y="638.64" width="23" height="117"/>
  <rect class="cls-2" x="459.81" y="532.64" width="23" height="107"/>
  <rect class="cls-2" x="459.81" y="309.64" width="23" height="107"/>
  <rect class="cls-1" x="459.81" y="420.64" width="23" height="107"/>
  <rect class="cls-2" x="3.81" y="532.64" width="23" height="107"/>
  <rect class="cls-2" x="355.81" y="734.64" width="104" height="22"/>
  <rect class="cls-1" x="248.81" y="734.64" width="104" height="22"/>
  <rect class="cls-1" x="138.81" y="734.64" width="104" height="22"/>
  <rect class="cls-1" x="-39.19" y="687.64" width="114" height="22" transform="translate(716.45 680.82) rotate(90)"/>
  <rect class="cls-1" x="-39.19" y="463.64" width="114" height="22" transform="translate(492.45 456.82) rotate(90)"/>
  <rect class="cls-2" x="-38.19" y="353.64" width="114" height="22" transform="translate(383.45 345.82) rotate(90)"/>
  <rect class="cls-2" x="26.81" y="734.64" width="109" height="22"/>
  <polygon class="cls-1" points="459.81 309.63 482.81 309.63 479.81 213.63 472.81 196.63 456.81 201.63 460.81 257.63 459.81 309.63"/>
  <path class="cls-1" d="M9.81,196.64l21,8s-2.52,80.16-5.26,105.08l-23.74-.08Z"/>
  <polygon class="cls-2" points="61.81 87.64 79.42 106.69 50.81 147.63 30.81 204.63 9.81 196.63 21.81 156.63 42.81 117.64 61.81 87.64"/>
  <polygon class="cls-1" points="61.81 87.64 99.81 56.63 156.81 24.64 166.54 44.31 116.53 73.35 83.73 102.39 74.05 100.24 61.81 87.64"/>
  <polygon class="cls-2" points="156.81 24.64 208.81 9.63 273.81 11.63 326.81 23.64 319.52 45.88 256.65 31.46 203.59 35.5 169.81 44.63 156.81 24.64"/>
  <path class="cls-1" d="M317.81,42.64l9-19,67,39,30,29-16.26,14.74S371.81,58.64,317.81,42.64Z"/>
  <path class="cls-2" d="M423.81,91.64l-16,15,18.12,25.65s30.88,44.35,30.88,69.35l16-5-11-49Z"/>
  <path d="M485.31,760.13H1.31v-514a242,242,0,0,1,242-242h0a242,242,0,0,1,242,242Zm-476-8h468v-506A234,234,0,0,0,77.85,80.67,232.46,232.46,0,0,0,9.31,246.13Z"/>
  <path d="M463.81,739.63h-441V248.13A220.49,220.49,0,0,1,243.31,27.64h0a220.49,220.49,0,0,1,220.5,220.49Zm-433-8h425V248.13c0-117.17-95.33-212.49-212.5-212.49S30.81,131,30.81,248.13Z"/>
  <rect x="2.81" y="635.63" width="21" height="8"/>
  <rect x="2.81" y="525.63" width="21" height="8"/>
  <rect x="2.81" y="415.63" width="21" height="8"/>
  <rect x="2.81" y="305.64" width="21" height="8"/>
  <rect x="15.31" y="189.14" width="8" height="21" transform="translate(-179.48 172.97) rotate(-76.83)"/>
  <rect x="68.31" y="87.13" width="8" height="21" transform="translate(-47.86 79.73) rotate(-45)"/>
  <rect x="158.31" y="23.14" width="8" height="21" transform="translate(2.01 75.83) rotate(-26.46)"/>
  <rect x="461.56" y="635.63" width="21" height="8"/>
  <rect x="461.56" y="525.63" width="21" height="8"/>
  <rect x="461.56" y="415.63" width="21" height="8"/>
  <rect x="461.56" y="305.64" width="21" height="8"/>
  <rect x="455.56" y="195.64" width="21" height="8" transform="translate(-33.22 111.4) rotate(-13.17)"/>
  <rect x="402.56" y="93.64" width="21" height="8" transform="translate(51.93 320.64) rotate(-45)"/>
  <rect x="312.56" y="29.64" width="21" height="8" transform="translate(158.27 313.53) rotate(-65.46)"/>
  <rect x="22.81" y="738.64" width="8" height="15"/>
  <rect x="132.81" y="738.64" width="8" height="15"/>
  <rect x="242.81" y="738.64" width="8" height="15"/>
  <rect x="352.81" y="738.64" width="8" height="15"/>
  <rect x="455.81" y="738.64" width="8" height="15"/>
  <polygon class="cls-2" points="179.73 438.83 132.11 409.28 107.87 405.41 102.89 423.68 168.23 465.1 179.73 438.83"/>
  <polygon class="cls-1" points="181.37 433.91 143.61 414.2 166.59 406 181.37 433.91"/>
  <polygon class="cls-1" points="189.58 438.83 179.73 448.68 184.65 458.53 197.78 451.97 189.58 438.83"/>
  <polyline class="cls-3" points="129.67 732.26 147.61 647.96 313.43 647.96 327.67 732.26"/>
  <polyline class="cls-3" points="231.67 735.26 229.67 731.26 228.67 736.26"/>
  <polygon class="cls-4" points="282.67 440.26 227.67 482.26 218.67 476.26 176.67 510.26 175.52 480.5 165.67 469.26 131.67 508.26 159.67 528.26 30.67 633.26 30.67 647.26 53.67 627.26 63.67 632.26 82.67 617.26 95.67 618.26 127.9 600.35 156.67 638.26 164.67 630.26 141.67 593.26 168.95 574.08 195.22 613.48 228.05 631.54 239.54 616.77 205.07 577.37 187.01 560.95 196.86 554.38 213.28 562.59 226.41 559.3 246.11 572.44 264.17 559.3 232.98 537.96 232.98 518.26 260.89 490.35 285.51 477.22 310.14 503.49 323.28 496.92 316.71 462.44 282.67 440.26"/>
  <polygon class="cls-3" points="323.28 649.6 334.77 624.98 328.2 600.35 344.67 590.26 346.26 551.1 323.28 496.92 309.67 504.26 291 485.72 281.67 475.26 238.68 511.7 234.62 536.32 264.17 559.3 246.11 572.44 226.67 560.26 210.67 565.26 195.67 555.26 187.67 560.26 226.97 601.73 234.65 624.05 219.84 633.19 165.49 576.84 141.04 593.78 164.02 628.26 155.81 636.47 134.47 613.48 126.26 626.62 139.67 651.26 323.28 649.6"/>
  <path class="cls-3" d="M317,466.48l26,74.88,46.58,54.9,22.26-12.33V483.78l-23-70.59-39.41-37.76-57.46-23s-7.41-24.82-7.41-23.18-32,44.52-32,44.52l-39-44.52L200.14,359l-78.47,32.25-43,108,11.47,84.67,47.53-43.67-6-34,21,25,4.85-16.67-17.85.67-6-10,38.56-41.18,5,40.34,44.31-32.13,7.18,10,56.85-49.37,19.7-21.34,31.45,7.71,6.31,12Z"/>
  <polygon class="cls-3" points="301.93 268.71 301.67 249.26 252.68 232.59 206.71 242.44 193.57 270.35 175.52 242.44 191.93 191.55 237.9 170.2 284.67 175.26 316.71 216.17 316.67 262.26 301.93 268.71"/>
  <polygon class="cls-5" points="278.67 341.26 301.67 254.26 291.67 243.26 274.02 276.92 251.04 260.5 200.67 246.26 203.43 258.86 206.71 301.55 221.59 338.76 241.19 370.5 252.68 373.78 278.67 341.26"/>
  <polygon class="cls-5" points="339.67 429.26 321.63 408.26 286.67 424.26 284.67 465.26 309.67 469.26 339.67 429.26"/>
  <polygon class="cls-5" points="129.67 598.26 127.9 639.75 137.75 656.17 114.77 659.45 95.07 638.11 99.99 616.77 129.67 598.26"/>
  <polygon class="cls-4" points="289.35 244.45 283.55 269.95 263.26 272.85 251.04 260.5 231.96 273.43 215.67 271.26 206.71 242.44 252.68 232.59 289.35 244.45"/>
  <path d="M395.84,598.7a21.67,21.67,0,0,1-10.47-3.06c-48.61-26.82-71.6-123.27-72.56-127.36l-.26-1.15.39-1.11a95.14,95.14,0,0,1,26.7-38.7l2.68-2.17,2.54,2.33c20,18.35,55.21,88.48,56.69,91.45l-7.15,3.58c-.34-.68-33-65.71-52.38-86.57-4.86,4.68-15.23,15.93-21.14,31.66a373.86,373.86,0,0,0,17,50.87c10.42,24.83,27.79,57.17,51.35,70.17,4.06,2.24,8.77,3.82,12.84-1.45,8.88-11.51,10.43-47.24,3.92-91-6.35-42.76-18.32-79.62-29.8-91.7-20.6-21.68-28.68-25-30.88-25.48l-1,1.29L308.11,366,311,358.6l31.86,12.49a8,8,0,0,1,1.3-.19c7.11-.45,19.49,8.76,37.81,28,15.45,16.26,26.85,61.9,31.92,96,3.14,21.18,4.5,41.1,3.92,57.6-.66,19-3.84,32.25-9.43,39.5A15.86,15.86,0,0,1,395.84,598.7Z"/>
  <polygon points="305.86 412.31 298.01 410.79 306.94 364.65 305.81 364.65 291.71 356.75 295.62 349.77 307.9 356.65 316.63 356.65 305.86 412.31"/>
  <polygon points="174.58 511.94 166.6 511.45 169.94 456.4 194.3 410.91 183.8 356.65 192.63 356.65 201.64 352.15 205.22 359.3 194.52 364.65 193.5 364.65 202.7 412.18 177.81 458.63 174.58 511.94"/>
  <path d="M296.43,487.11c-3.06-2-4.05-6.29,0-20.41-1.31,2.75-2.63,5.69-3.93,8.79l-6.73,1.05c-3.11-3.63-4.36-8.77-3.74-15.35l-1.48.19c-4.37-6.56-3.67-20,1.67-31.91,5.61-12.54,14.74-20.32,25.72-21.89,20.51-2.92,33.2,12,37,20.35l-7.27,3.35,3.64-1.68-3.63,1.69c-.36-.76-9-18.6-28.64-15.79-11,1.58-17,11.48-19.56,17.24a45.54,45.54,0,0,0-2.55,7.35c5.65-12.84,8.12-12.84,10.05-12.84l3.46,6a113.48,113.48,0,0,0-7.53,16.47A53.74,53.74,0,0,0,290,461.57c5-10.28,12.35-23.31,18.65-25.83l5.2,5.2c-3.32,8.3-6.59,17.52-8.9,25.14,5.34-8,10.54-14.57,13.77-15.64l2.53,7.59a1.17,1.17,0,0,0,.23-.1c-2.18,1.27-10.22,12.29-19.39,27.88Z"/>
  <polygon points="29.25 640.31 24.09 634.2 217.26 470.88 223.04 471.53 227.97 478.1 221.57 482.9 219.19 479.73 29.25 640.31"/>
  <rect x="-12.05" y="539.21" width="334.64" height="8" transform="translate(-311.6 225.06) rotate(-39.78)"/>
  <path d="M157.8,641.58l-5.23-1.13L125.46,602.8l-27.91,22-5.6-.64L87.82,619,63,638l-4.86-6.35,27.91-21.34,5.55.68,4.09,5.1,28.07-22.16,5.73.8L157,632.85l4.46-2.55-25.24-34.14.69-5.48,26.27-21.35,6.21,1.55c14.88,35.17,47.63,53.25,56.42,57.59l7.61-6.53c-8-25.82-48.41-57.51-48.83-57.84l-.1-6.23,9.85-8.2,6.08,1.17c2.92,5.43,6.15,8.39,9.6,8.8,5.25.63,10.13-4.6,10.17-4.65l5.2-.65,22.16,14.77,10.86-8.89c-17.27-8.68-27-19-28.81-30.58-2.49-15.51,10.06-27,10.59-27.49l.2-.16,39.4-31.19,5.46.47,25.84,28.88,8.71-4.51-5.85-19.39,7.66-2.31,6.81,22.57-2,4.7L312,508.68l-4.82-.89-25.4-28.38-36.32,28.75c-.87.83-9.72,9.58-8,20.27,1.61,9.87,12,19.28,30,27.22l.92,6.75-18.06,14.78-4.75.23-22-14.69c-3,2.39-8.29,5.61-14.47,4.86-5-.6-9.41-3.56-13.15-8.82l-2.57,2.14c11.17,9.27,42.78,37.25,48.49,61.52l-1.29,4L229,636.22l-4.16.65c-1.73-.74-41.25-17.84-60.69-58.06l-19.28,15.67,25.64,34.69L169.29,635Z"/>
  <path d="M285.68,382.85c-.08-.1-8.58-10.49-19-11-4.91-.26-9.44,1.66-13.87,5.87-.33.33-.56.55-.65.63l-5.59-5.71.51-.5c3.94-3.92,32.17-32.77,33.59-57.08l8,.47a48.17,48.17,0,0,1-1.33,8.55c5.65,6.53,17.82,25.49,5.19,57.77ZM265.8,363.79l1.36,0c8.46.47,15.58,5.3,20,9.16,6.08-19.81,1.34-32.83-2.89-39.66-4.7,11.43-12.31,22.28-18.95,30.47Z"/>
  <polygon points="272.3 417.19 249.4 417.19 249.4 409.19 265.89 409.19 274.76 369.39 282.57 371.13 272.3 417.19"/>
  <path d="M213.12,382.85l-6.85-1c-12.67-32.38-.38-51.37,5.25-57.83a50.27,50.27,0,0,1-1.85-10.49l8-.47c1.53,26.06,34.24,59.25,34.57,59.59l-5.66,5.64c-4.62-4.62-9.35-6.72-14.5-6.44C221.77,372.38,213.2,382.75,213.12,382.85ZM214.75,333c-4.28,6.74-9.27,19.86-3.1,40,4.41-3.86,11.52-8.69,20-9.16.77,0,1.53,0,2.29,0C227.35,355.51,219.69,344.49,214.75,333Z"/>
  <polygon points="249.4 417.19 226.56 417.19 215.78 373.21 223.55 371.31 232.83 409.19 249.4 409.19 249.4 417.19"/>
  <path d="M84.71,585.81c-.42-3-10.07-72.6-8.39-86.1C78,486,101.15,408.1,118.38,389.15c17.09-18.8,64.18-28.72,66.18-29.13l1.62,7.83c-.47.1-46.53,9.8-61.88,26.68-6.54,7.2-15.74,27.11-25.24,54.64-7.72,22.37-14,45.11-14.8,51.53-1.29,10.34,5.6,64.15,8.37,84Z"/>
  <path d="M151.67,536.37l-8-.23c0-.54,1.58-54.19,1.58-65.49,0-11.88,10.88-16.38,16.64-17.1l.4,0,11.29-.26.18,8-11,.25c-1.53.24-9.46,1.83-9.46,9.14C153.25,482.07,151.73,534.16,151.67,536.37Z"/>
  <path d="M263.23,545.58a11.49,11.49,0,0,1-6.94-2.17c-3.42-2.52-5.15-6.84-5.15-12.84,0-13.84.52-36.18.53-36.41l8,.19c0,.22-.53,22.48-.53,36.22,0,3.23.68,5.5,1.9,6.41s3.58.45,3.6.44l1.17-.17h32.84c5.76,0,7.24-6.45,7.49-7.82v-24.3h8l0,25.19c-.74,5.16-4.91,14.93-15.45,14.93H266.31A14.51,14.51,0,0,1,263.23,545.58Z"/>
  <path d="M325.11,602.9H228.05v-8h97.06c17.34,0,17.54-16.82,17.54-17.53V544.53h8v32.84C350.65,586.2,345.31,602.9,325.11,602.9Z"/>
  <path d="M144.69,521.91H139L126.72,509.6v-5.66l38.58-38.58H171l12.31,12.31v5.66Zm-9.49-15.14,6.66,6.65,32.92-32.92-6.65-6.66Z"/>
  <rect x="145.96" y="501.84" width="36.12" height="13.13" transform="translate(639.51 751.93) rotate(135)"/>
  <rect x="132.11" y="513.34" width="8" height="29.55"/>
  <polygon points="325.47 653.6 133.64 653.6 121.98 630.28 129.92 603.55 137.59 605.83 130.55 629.53 138.59 645.6 321.08 645.6 330.41 630.94 321.09 599.86 328.75 597.56 339.13 632.15 325.47 653.6"/>
  <rect x="226.67" y="703.23" width="8" height="32.06" transform="translate(-44.42 15.79) rotate(-3.58)"/>
  <rect x="316.17" y="650.58" width="8" height="83.36" transform="translate(-119.34 68.91) rotate(-10.37)"/>
  <rect x="212.66" y="715.76" width="33.02" height="8" transform="translate(-497.2 927.03) rotate(-88.27)"/>
  <rect x="95.91" y="689.26" width="85.51" height="8" transform="translate(-568.29 699.82) rotate(-79.22)"/>
  <polygon points="156.62 735.88 148.72 734.63 151.37 717.8 137.91 712.42 140.88 704.99 160.26 712.75 156.62 735.88"/>
  <polygon points="301.7 733.79 298.85 712.72 318.17 704.99 321.14 712.42 307.62 717.83 309.63 732.72 301.7 733.79"/>
  <rect x="227.34" y="652.53" width="8" height="24.63"/>
  <path d="M299,277.62,294.7,273l3-19.5c-14.17-15.08-48-15.3-48.31-15.3v-8c1.61,0,39.83.23,55.63,19.53l.86,3.14-2.29,14.85c5.21-3,12.39-10.69,12.39-30.23,0-15.84-7.06-32.09-19.37-44.6-12.92-13.13-29.69-20.36-47.22-20.36v-8c19.69,0,38.49,8.08,52.92,22.74,13.77,14,21.67,32.3,21.67,50.22,0,10.65-2.08,25.19-12,34A23.75,23.75,0,0,1,299,277.62Z"/>
  <path d="M272.38,279.28c-10.47,0-15.23-6.38-18.38-10.61-2.16-2.9-3.25-4.17-4.6-4.17v-8c5.51,0,8.44,3.93,11,7.39,2.95,4,5.5,7.39,12,7.39a9.85,9.85,0,0,0,7.77-3.32c4.08-4.55,5.87-14,4.67-24.79l7.95-.89c.7,6.31,1.46,22-6.66,31A17.9,17.9,0,0,1,272.38,279.28Z"/>
  <path d="M249.64,341.94h-.41c-1.95,0-4.09-1.06-6-2-4.36-2.15-11.27-6.18-20.55-12-27.87-17.42-27-77.21-27-79.74l8,.16a183,183,0,0,0,2.65,31.33c2.59,14.68,8.25,33.79,20.55,41.47,15.76,9.85,20.8,12.15,22.27,12.68l.26-.15h.1l.23.14c1.5-.56,6.55-2.91,22.17-12.67,12.29-7.68,17.84-26.78,20.33-41.45a182.79,182.79,0,0,0,2.44-31.33l8-.21c.07,2.54,1.36,62.34-26.53,79.77-9.25,5.79-16.14,9.81-20.46,12C253.63,340.9,251.54,341.94,249.64,341.94Zm.29-8,2.91,1.86a4.15,4.15,0,0,0-.3-.43A3.79,3.79,0,0,0,249.93,333.94Zm-1,0a3.78,3.78,0,0,0-2.58,1.39c-.09.12-.18.24-.26.37Z"/>
  <path d="M199.82,277.62a23.74,23.74,0,0,1-13-6.12c-9.94-8.79-12-23.33-12-34,0-17.92,7.9-36.22,21.67-50.22,14.43-14.66,33.23-22.74,52.93-22.74v8c-17.54,0-34.31,7.23-47.23,20.36-12.31,12.51-19.37,28.76-19.37,44.6,0,19.52,7.17,27.21,12.39,30.22l-2.28-14.84.85-3.14c15.8-19.3,54-19.53,55.64-19.53v8c-.35,0-34.14.22-48.3,15.3l3,19.5Z"/>
  <path d="M226.39,279.28a17.9,17.9,0,0,1-13.73-6c-8.12-9.07-7.36-24.71-6.66-31l7.95.89c-1.2,10.74.59,20.24,4.67,24.79a9.86,9.86,0,0,0,7.77,3.32c6.46,0,9-3.42,12-7.39,2.59-3.46,5.51-7.39,11-7.39v8c-1.36,0-2.45,1.27-4.61,4.17C241.62,272.9,236.86,279.28,226.39,279.28Z"/>
  <path d="M253.64,299.76A27.25,27.25,0,0,1,242.85,297l3.25-7.31c5.61,2.5,8.58,2.39,9.41,1.55,2.84-2.88-.6-16.7-5.48-27.3l7.27-3.35a108.75,108.75,0,0,1,5.1,13.9c3.15,11,2.76,18.36-1.19,22.37A10.19,10.19,0,0,1,253.64,299.76Z"/>
  <path d="M234.08,316.88l-2.2-7.69,11.49-3.28,3.93,1-.13-.13a3.6,3.6,0,0,0,2.23.6,3.55,3.55,0,0,0,2.22-.6l-.13.13,3.93-1,11.49,3.28-2.2,7.69L255,314.1a12.65,12.65,0,0,1-11.17,0Z"/>
  <path d="M266.53,239.26H232.26V162.92h34.27Zm-26.27-8h18.27V170.92H240.26Z"/>
  <rect x="154.14" y="444.49" width="18.13" height="8" transform="translate(-298.22 570.39) rotate(-84.8)"/>
  <rect x="143.37" y="595.19" width="37.07" height="8"/>
  <path d="M127.9,670c-3.31,0-7.59-1.16-11.76-5.63l-2.24,2.25c-7.7-1.71-13.61-10.06-17.58-24.84a131.45,131.45,0,0,1-3.64-20.2l8-.69c.82,9.27,3.32,21.26,7.12,29.28L106.33,644c-.26-1.05-.39-1.7-.41-1.78l7.82-1.68.47,2c.1.37.2.76.32,1.17l4.93-3.26a100.62,100.62,0,0,0,14.07,13.78l-1.5-3.32,7.28-3.31,5.37,11.84-1.85,5.23c-3.48,1.74-8,.14-12.6-2.95l1.25,2.51Zm11.59-12.58Z"/>
  <rect x="57.57" y="624.24" width="8" height="12.55" transform="translate(-397.44 193.88) rotate(-40.85)"/>
</svg>
