<svg width="74" height="72" viewBox="0 0 74 72" fill="none" xmlns="http://www.w3.org/2000/svg">
<path d="M0.580078 6.99999C0.580078 3.134 3.71409 0 7.58008 0H66.9608C70.8268 0 73.9608 3.13401 73.9608 7V64.852C73.9608 68.718 70.8268 71.852 66.9608 71.852H7.58009C3.7141 71.852 0.580078 68.7179 0.580078 64.852V6.99999Z" fill="#FFFDEE"/>
<path fill-rule="evenodd" clip-rule="evenodd" d="M66.9608 3H7.58008C5.37093 3 3.58008 4.79086 3.58008 6.99999V64.852C3.58008 67.0611 5.37094 68.852 7.58009 68.852H66.9608C69.1699 68.852 70.9608 67.0611 70.9608 64.852V7C70.9608 4.79087 69.1699 3 66.9608 3ZM7.58008 0C3.71409 0 0.580078 3.134 0.580078 6.99999V64.852C0.580078 68.7179 3.7141 71.852 7.58009 71.852H66.9608C70.8268 71.852 73.9608 68.718 73.9608 64.852V7C73.9608 3.13401 70.8268 0 66.9608 0H7.58008Z" fill="#2C2A39"/>
<path d="M61.3192 66.6795C61.1272 66.6795 61.0312 66.6035 61.0312 66.4515V66.4035C61.0312 66.3155 61.0872 66.2155 61.1992 66.1035C61.3192 65.9915 61.4352 65.8635 61.5472 65.7195C61.6672 65.5755 61.7272 65.4195 61.7272 65.2515V60.4755C61.7272 60.2995 61.6832 60.1635 61.5952 60.0675C61.5072 59.9635 61.4072 59.8955 61.2952 59.8635C61.1912 59.8315 61.0952 59.7875 61.0072 59.7315C60.9192 59.6675 60.8752 59.5875 60.8752 59.4915V59.4315C60.8752 59.2875 60.9952 59.1595 61.2352 59.0475L63.1312 58.2315C63.4352 58.1195 63.6752 58.1075 63.8512 58.1955C64.0352 58.2755 64.1272 58.4035 64.1272 58.5795C64.1272 58.6835 64.0832 58.8315 63.9952 59.0235C63.9072 59.2155 63.8632 59.4395 63.8632 59.6955V65.2515C63.8632 65.4195 63.9232 65.5755 64.0432 65.7195C64.1712 65.8635 64.2952 65.9915 64.4152 66.1035C64.5352 66.2155 64.5952 66.3155 64.5952 66.4035V66.4515C64.5952 66.6035 64.4992 66.6795 64.3072 66.6795H61.3192Z" fill="#2C2A39"/>
<path d="M29.03 54.784V54.528C29.03 54.016 29.4567 53.248 30.31 52.224C31.1634 51.1573 31.59 50.0907 31.59 49.024V17.536C31.59 16.4693 31.1634 15.424 30.31 14.4C29.4567 13.3333 29.03 12.544 29.03 12.032V11.776C29.03 10.9653 29.542 10.56 30.566 10.56H44.454C45.478 10.56 45.99 10.9653 45.99 11.776V12.032C45.99 12.544 45.5207 13.3333 44.582 14.4C43.6434 15.424 43.174 16.4693 43.174 17.536V49.024C43.174 50.0907 43.6434 51.1573 44.582 52.224C45.5207 53.248 45.99 54.016 45.99 54.528V54.784C45.99 55.5947 45.478 56 44.454 56H30.566C29.542 56 29.03 55.5947 29.03 54.784Z" fill="#2C2A39"/>
</svg>
