<svg xmlns="http://www.w3.org/2000/svg" xmlns:xlink="http://www.w3.org/1999/xlink" viewBox="0 0 1920 1080">
  <defs>
    <style>
      .cls-1 {
        fill: none;
      }

      .cls-2, .cls-5 {
        fill: #00a89c;
      }

      .cls-3 {
        fill: #29aae1;
      }

      .cls-4 {
        fill: #39b44a;
      }

      .cls-4, .cls-5 {
        stroke: #000;
        stroke-miterlimit: 10;
        stroke-width: 8px;
      }

      .cls-6 {
        fill: url(#New_Pattern_Swatch_8);
      }

      .cls-7 {
        fill: #ff4848;
      }

      .cls-8 {
        fill: #bd2121;
      }

      .cls-9 {
        fill: #ffe500;
      }

      .cls-10 {
        fill: #ffcd00;
      }

      .cls-11 {
        fill: #29a6dd;
      }

      .cls-12 {
        fill: #ffeda8;
      }

      .cls-13 {
        fill: #fff;
      }

      .cls-14 {
        fill: url(#New_Pattern_Swatch_7);
      }

      .cls-15 {
        fill: #666;
      }

      .cls-16 {
        fill: #615f86;
      }

      .cls-17 {
        fill: url(#New_Pattern_Swatch_7-3);
      }

      .cls-18 {
        fill: #ffbd7b;
      }

      .cls-19 {
        fill: #7f3300;
      }
    </style>
    <pattern id="New_Pattern_Swatch_8" data-name="New Pattern Swatch 8" width="206" height="198" patternUnits="userSpaceOnUse" viewBox="0 0 206 198">
      <rect class="cls-1" width="206" height="198"/>
      <rect class="cls-4" x="-51" y="-60.5" width="51" height="122" rx="25.5"/>
      <g>
        <rect class="cls-5" y="-61.5" width="51" height="122" rx="25.5"/>
        <rect class="cls-4" x="52" y="-60.5" width="51" height="122" rx="25.5"/>
      </g>
      <g>
        <rect class="cls-5" x="103" y="-61.5" width="51" height="122" rx="25.5"/>
        <rect class="cls-4" x="155" y="-60.5" width="51" height="122" rx="25.5"/>
      </g>
      <rect class="cls-5" x="206" y="-61.5" width="51" height="122" rx="25.5"/>
      <g>
        <rect class="cls-5" x="-51.5" y="37.5" width="51" height="122" rx="25.5"/>
        <rect class="cls-4" x="0.5" y="38.5" width="51" height="122" rx="25.5"/>
      </g>
      <g>
        <rect class="cls-5" x="51.5" y="37.5" width="51" height="122" rx="25.5"/>
        <rect class="cls-4" x="103.5" y="38.5" width="51" height="122" rx="25.5"/>
      </g>
      <g>
        <rect class="cls-5" x="154.5" y="37.5" width="51" height="122" rx="25.5"/>
        <rect class="cls-4" x="206.5" y="38.5" width="51" height="122" rx="25.5"/>
      </g>
      <rect class="cls-4" x="-51" y="137.5" width="51" height="122" rx="25.5"/>
      <g>
        <rect class="cls-5" y="136.5" width="51" height="122" rx="25.5"/>
        <rect class="cls-4" x="52" y="137.5" width="51" height="122" rx="25.5"/>
      </g>
      <g>
        <rect class="cls-5" x="103" y="136.5" width="51" height="122" rx="25.5"/>
        <rect class="cls-4" x="155" y="137.5" width="51" height="122" rx="25.5"/>
      </g>
      <rect class="cls-5" x="206" y="136.5" width="51" height="122" rx="25.5"/>
    </pattern>
    <pattern id="New_Pattern_Swatch_7" data-name="New Pattern Swatch 7" width="272" height="270" patternTransform="translate(-1)" patternUnits="userSpaceOnUse" viewBox="0 0 272 270">
      <rect class="cls-1" width="272" height="270"/>
      <g>
        <polygon class="cls-2" points="255.06 253 289 219.06 322.94 253 289 286.94 255.06 253"/>
        <path d="M289,224.72,260.72,253,289,281.28,317.28,253,289,224.72m0-11.32L328.6,253,289,292.6,249.4,253,289,213.4Z"/>
      </g>
      <g>
        <g>
          <polygon class="cls-3" points="153.06 287 187 253.06 220.94 287 187 320.94 153.06 287"/>
          <path d="M187,258.72,158.72,287,187,315.28,215.28,287,187,258.72m0-11.32L226.6,287,187,326.6,147.4,287,187,247.4Z"/>
        </g>
        <g>
          <polygon class="cls-3" points="221.06 287 255 253.06 288.94 287 255 320.94 221.06 287"/>
          <path d="M255,258.72,226.72,287,255,315.28,283.28,287,255,258.72m0-11.32L294.6,287,255,326.6,215.4,287,255,247.4Z"/>
        </g>
        <g>
          <polygon class="cls-3" points="153.06 219 187 185.06 220.94 219 187 252.94 153.06 219"/>
          <path d="M187,190.72,158.72,219,187,247.28,215.28,219,187,190.72m0-11.32L226.6,219,187,258.6,147.4,219,187,179.4Z"/>
        </g>
        <g>
          <polygon class="cls-3" points="221.06 219 255 185.06 288.94 219 255 252.94 221.06 219"/>
          <path d="M255,190.72,226.72,219,255,247.28,283.28,219,255,190.72m0-11.32L294.6,219,255,258.6,215.4,219,255,179.4Z"/>
        </g>
        <g>
          <polygon class="cls-2" points="119.06 253 153 219.06 186.94 253 153 286.94 119.06 253"/>
          <path d="M153,224.72,124.72,253,153,281.28,181.28,253,153,224.72m0-11.32L192.6,253,153,292.6,113.4,253,153,213.4Z"/>
        </g>
        <g>
          <polygon class="cls-2" points="187.06 253 221 219.06 254.94 253 221 286.94 187.06 253"/>
          <path d="M221,224.72,192.72,253,221,281.28,249.28,253,221,224.72m0-11.32L260.6,253,221,292.6,181.4,253,221,213.4Z"/>
        </g>
      </g>
      <g>
        <g>
          <polygon class="cls-3" points="17.06 287 51 253.06 84.94 287 51 320.94 17.06 287"/>
          <path d="M51,258.72,22.72,287,51,315.28,79.28,287,51,258.72m0-11.32L90.6,287,51,326.6,11.4,287,51,247.4Z"/>
        </g>
        <g>
          <polygon class="cls-3" points="85.06 287 119 253.06 152.94 287 119 320.94 85.06 287"/>
          <path d="M119,258.72,90.72,287,119,315.28,147.28,287,119,258.72m0-11.32L158.6,287,119,326.6,79.4,287,119,247.4Z"/>
        </g>
        <g>
          <polygon class="cls-3" points="17.06 219 51 185.06 84.94 219 51 252.94 17.06 219"/>
          <path d="M51,190.72,22.72,219,51,247.28,79.28,219,51,190.72m0-11.32L90.6,219,51,258.6,11.4,219,51,179.4Z"/>
        </g>
        <g>
          <polygon class="cls-3" points="85.06 219 119 185.06 152.94 219 119 252.94 85.06 219"/>
          <path d="M119,190.72,90.72,219,119,247.28,147.28,219,119,190.72m0-11.32L158.6,219,119,258.6,79.4,219,119,179.4Z"/>
        </g>
        <g>
          <polygon class="cls-2" points="-16.94 253 17 219.06 50.94 253 17 286.94 -16.94 253"/>
          <path d="M17,224.72-11.28,253,17,281.28,45.28,253,17,224.72m0-11.32L56.6,253,17,292.6-22.6,253,17,213.4Z"/>
        </g>
        <g>
          <polygon class="cls-2" points="51.06 253 85 219.06 118.94 253 85 286.94 51.06 253"/>
          <path d="M85,224.72,56.72,253,85,281.28,113.28,253,85,224.72m0-11.32L124.6,253,85,292.6,45.4,253,85,213.4Z"/>
        </g>
      </g>
      <g>
        <g>
          <polygon class="cls-3" points="-50.94 287 -17 253.06 16.94 287 -17 320.94 -50.94 287"/>
          <path d="M-17,258.72-45.28,287-17,315.28,11.28,287-17,258.72m0-11.32L22.6,287-17,326.6-56.6,287-17,247.4Z"/>
        </g>
        <g>
          <polygon class="cls-3" points="-50.94 219 -17 185.06 16.94 219 -17 252.94 -50.94 219"/>
          <path d="M-17,190.72-45.28,219-17,247.28,11.28,219-17,190.72m0-11.32L22.6,219-17,258.6-56.6,219-17,179.4Z"/>
        </g>
      </g>
      <g>
        <g>
          <polygon class="cls-3" points="221.06 152 255 118.06 288.94 152 255 185.94 221.06 152"/>
          <path d="M255,123.72,226.72,152,255,180.28,283.28,152,255,123.72m0-11.32L294.6,152,255,191.6,215.4,152,255,112.4Z"/>
        </g>
        <g>
          <polygon class="cls-3" points="221.06 84 255 50.06 288.94 84 255 117.94 221.06 84"/>
          <path d="M255,55.72,226.72,84,255,112.28,283.28,84,255,55.72m0-11.32L294.6,84,255,123.6,215.4,84,255,44.4Z"/>
        </g>
        <g>
          <polygon class="cls-2" points="187.06 118 221 84.06 254.94 118 221 151.94 187.06 118"/>
          <path d="M221,89.72,192.72,118,221,146.28,249.28,118,221,89.72m0-11.32L260.6,118,221,157.6,181.4,118,221,78.4Z"/>
        </g>
        <g>
          <polygon class="cls-2" points="255.06 118 289 84.06 322.94 118 289 151.94 255.06 118"/>
          <path d="M289,89.72,260.72,118,289,146.28,317.28,118,289,89.72m0-11.32L328.6,118,289,157.6,249.4,118,289,78.4Z"/>
        </g>
        <g>
          <polygon class="cls-2" points="187.06 186 221 152.06 254.94 186 221 219.94 187.06 186"/>
          <path d="M221,157.72,192.72,186,221,214.28,249.28,186,221,157.72m0-11.32L260.6,186,221,225.6,181.4,186,221,146.4Z"/>
        </g>
        <g>
          <polygon class="cls-2" points="255.06 186 289 152.06 322.94 186 289 219.94 255.06 186"/>
          <path d="M289,157.72,260.72,186,289,214.28,317.28,186,289,157.72m0-11.32L328.6,186,289,225.6,249.4,186,289,146.4Z"/>
        </g>
      </g>
      <g>
        <g>
          <polygon class="cls-3" points="85.06 152 119 118.06 152.94 152 119 185.94 85.06 152"/>
          <path d="M119,123.72,90.72,152,119,180.28,147.28,152,119,123.72m0-11.32L158.6,152,119,191.6,79.4,152,119,112.4Z"/>
        </g>
        <g>
          <polygon class="cls-3" points="153.06 152 187 118.06 220.94 152 187 185.94 153.06 152"/>
          <path d="M187,123.72,158.72,152,187,180.28,215.28,152,187,123.72m0-11.32L226.6,152,187,191.6,147.4,152,187,112.4Z"/>
        </g>
        <g>
          <polygon class="cls-3" points="85.06 84 119 50.06 152.94 84 119 117.94 85.06 84"/>
          <path d="M119,55.72,90.72,84,119,112.28,147.28,84,119,55.72m0-11.32L158.6,84,119,123.6,79.4,84,119,44.4Z"/>
        </g>
        <g>
          <polygon class="cls-3" points="153.06 84 187 50.06 220.94 84 187 117.94 153.06 84"/>
          <path d="M187,55.72,158.72,84,187,112.28,215.28,84,187,55.72m0-11.32L226.6,84,187,123.6,147.4,84,187,44.4Z"/>
        </g>
        <g>
          <polygon class="cls-2" points="51.06 118 85 84.06 118.94 118 85 151.94 51.06 118"/>
          <path d="M85,89.72,56.72,118,85,146.28,113.28,118,85,89.72M85,78.4,124.6,118,85,157.6,45.4,118,85,78.4Z"/>
        </g>
        <g>
          <polygon class="cls-2" points="119.06 118 153 84.06 186.94 118 153 151.94 119.06 118"/>
          <path d="M153,89.72,124.72,118,153,146.28,181.28,118,153,89.72m0-11.32L192.6,118,153,157.6,113.4,118,153,78.4Z"/>
        </g>
        <g>
          <polygon class="cls-2" points="51.06 186 85 152.06 118.94 186 85 219.94 51.06 186"/>
          <path d="M85,157.72,56.72,186,85,214.28,113.28,186,85,157.72m0-11.32L124.6,186,85,225.6,45.4,186,85,146.4Z"/>
        </g>
        <g>
          <polygon class="cls-2" points="119.06 186 153 152.06 186.94 186 153 219.94 119.06 186"/>
          <path d="M153,157.72,124.72,186,153,214.28,181.28,186,153,157.72m0-11.32L192.6,186,153,225.6,113.4,186,153,146.4Z"/>
        </g>
      </g>
      <g>
        <g>
          <polygon class="cls-3" points="-50.94 152 -17 118.06 16.94 152 -17 185.94 -50.94 152"/>
          <path d="M-17,123.72-45.28,152-17,180.28,11.28,152-17,123.72m0-11.32L22.6,152-17,191.6-56.6,152-17,112.4Z"/>
        </g>
        <g>
          <polygon class="cls-3" points="17.06 152 51 118.06 84.94 152 51 185.94 17.06 152"/>
          <path d="M51,123.72,22.72,152,51,180.28,79.28,152,51,123.72m0-11.32L90.6,152,51,191.6,11.4,152,51,112.4Z"/>
        </g>
        <g>
          <polygon class="cls-3" points="-50.94 84 -17 50.06 16.94 84 -17 117.94 -50.94 84"/>
          <path d="M-17,55.72-45.28,84-17,112.28,11.28,84-17,55.72m0-11.32L22.6,84-17,123.6-56.6,84-17,44.4Z"/>
        </g>
        <g>
          <polygon class="cls-3" points="17.06 84 51 50.06 84.94 84 51 117.94 17.06 84"/>
          <path d="M51,55.72,22.72,84,51,112.28,79.28,84,51,55.72M51,44.4,90.6,84,51,123.6,11.4,84,51,44.4Z"/>
        </g>
        <g>
          <polygon class="cls-2" points="-16.94 118 17 84.06 50.94 118 17 151.94 -16.94 118"/>
          <path d="M17,89.72-11.28,118,17,146.28,45.28,118,17,89.72M17,78.4,56.6,118,17,157.6-22.6,118,17,78.4Z"/>
        </g>
        <g>
          <polygon class="cls-2" points="-16.94 186 17 152.06 50.94 186 17 219.94 -16.94 186"/>
          <path d="M17,157.72-11.28,186,17,214.28,45.28,186,17,157.72m0-11.32L56.6,186,17,225.6-22.6,186,17,146.4Z"/>
        </g>
      </g>
      <g>
        <g>
          <polygon class="cls-2" points="255.06 -17 289 -50.94 322.94 -17 289 16.94 255.06 -17"/>
          <path d="M289-45.28,260.72-17,289,11.28,317.28-17,289-45.28m0-11.32L328.6-17,289,22.6,249.4-17,289-56.6Z"/>
        </g>
        <g>
          <polygon class="cls-2" points="255.06 51 289 17.06 322.94 51 289 84.94 255.06 51"/>
          <path d="M289,22.72,260.72,51,289,79.28,317.28,51,289,22.72m0-11.32L328.6,51,289,90.6,249.4,51,289,11.4Z"/>
        </g>
      </g>
      <g>
        <g>
          <polygon class="cls-3" points="153.06 17 187 -16.94 220.94 17 187 50.94 153.06 17"/>
          <path d="M187-11.28,158.72,17,187,45.28,215.28,17,187-11.28m0-11.32L226.6,17,187,56.6,147.4,17,187-22.6Z"/>
        </g>
        <g>
          <polygon class="cls-3" points="221.06 17 255 -16.94 288.94 17 255 50.94 221.06 17"/>
          <path d="M255-11.28,226.72,17,255,45.28,283.28,17,255-11.28m0-11.32L294.6,17,255,56.6,215.4,17,255-22.6Z"/>
        </g>
        <g>
          <polygon class="cls-2" points="119.06 -17 153 -50.94 186.94 -17 153 16.94 119.06 -17"/>
          <path d="M153-45.28,124.72-17,153,11.28,181.28-17,153-45.28m0-11.32L192.6-17,153,22.6,113.4-17,153-56.6Z"/>
        </g>
        <g>
          <polygon class="cls-2" points="187.06 -17 221 -50.94 254.94 -17 221 16.94 187.06 -17"/>
          <path d="M221-45.28,192.72-17,221,11.28,249.28-17,221-45.28m0-11.32L260.6-17,221,22.6,181.4-17,221-56.6Z"/>
        </g>
        <g>
          <polygon class="cls-2" points="119.06 51 153 17.06 186.94 51 153 84.94 119.06 51"/>
          <path d="M153,22.72,124.72,51,153,79.28,181.28,51,153,22.72m0-11.32L192.6,51,153,90.6,113.4,51,153,11.4Z"/>
        </g>
        <g>
          <polygon class="cls-2" points="187.06 51 221 17.06 254.94 51 221 84.94 187.06 51"/>
          <path d="M221,22.72,192.72,51,221,79.28,249.28,51,221,22.72m0-11.32L260.6,51,221,90.6,181.4,51,221,11.4Z"/>
        </g>
      </g>
      <g>
        <g>
          <polygon class="cls-3" points="17.06 17 51 -16.94 84.94 17 51 50.94 17.06 17"/>
          <path d="M51-11.28,22.72,17,51,45.28,79.28,17,51-11.28M51-22.6,90.6,17,51,56.6,11.4,17,51-22.6Z"/>
        </g>
        <g>
          <polygon class="cls-3" points="85.06 17 119 -16.94 152.94 17 119 50.94 85.06 17"/>
          <path d="M119-11.28,90.72,17,119,45.28,147.28,17,119-11.28m0-11.32L158.6,17,119,56.6,79.4,17,119-22.6Z"/>
        </g>
        <g>
          <polygon class="cls-2" points="-16.94 -17 17 -50.94 50.94 -17 17 16.94 -16.94 -17"/>
          <path d="M17-45.28-11.28-17,17,11.28,45.28-17,17-45.28M17-56.6,56.6-17,17,22.6-22.6-17,17-56.6Z"/>
        </g>
        <g>
          <polygon class="cls-2" points="51.06 -17 85 -50.94 118.94 -17 85 16.94 51.06 -17"/>
          <path d="M85-45.28,56.72-17,85,11.28,113.28-17,85-45.28M85-56.6,124.6-17,85,22.6,45.4-17,85-56.6Z"/>
        </g>
        <g>
          <polygon class="cls-2" points="-16.94 51 17 17.06 50.94 51 17 84.94 -16.94 51"/>
          <path d="M17,22.72-11.28,51,17,79.28,45.28,51,17,22.72M17,11.4,56.6,51,17,90.6-22.6,51,17,11.4Z"/>
        </g>
        <g>
          <polygon class="cls-2" points="51.06 51 85 17.06 118.94 51 85 84.94 51.06 51"/>
          <path d="M85,22.72,56.72,51,85,79.28,113.28,51,85,22.72M85,11.4,124.6,51,85,90.6,45.4,51,85,11.4Z"/>
        </g>
      </g>
      <g>
        <polygon class="cls-3" points="-50.94 17 -17 -16.94 16.94 17 -17 50.94 -50.94 17"/>
        <path d="M-17-11.28-45.28,17-17,45.28,11.28,17-17-11.28m0-11.32L22.6,17-17,56.6-56.6,17-17-22.6Z"/>
      </g>
    </pattern>
    <pattern id="New_Pattern_Swatch_7-3" data-name="New Pattern Swatch 7" width="272" height="270" patternTransform="matrix(-1, 0, 0, 1, 63, 0)" patternUnits="userSpaceOnUse" viewBox="0 0 272 270">
      <rect class="cls-1" width="272" height="270"/>
      <g>
        <polygon class="cls-2" points="255.06 253 289 219.06 322.94 253 289 286.94 255.06 253"/>
        <path d="M289,224.72,260.72,253,289,281.28,317.28,253,289,224.72m0-11.32L328.6,253,289,292.6,249.4,253,289,213.4Z"/>
      </g>
      <g>
        <g>
          <polygon class="cls-3" points="153.06 287 187 253.06 220.94 287 187 320.94 153.06 287"/>
          <path d="M187,258.72,158.72,287,187,315.28,215.28,287,187,258.72m0-11.32L226.6,287,187,326.6,147.4,287,187,247.4Z"/>
        </g>
        <g>
          <polygon class="cls-3" points="221.06 287 255 253.06 288.94 287 255 320.94 221.06 287"/>
          <path d="M255,258.72,226.72,287,255,315.28,283.28,287,255,258.72m0-11.32L294.6,287,255,326.6,215.4,287,255,247.4Z"/>
        </g>
        <g>
          <polygon class="cls-3" points="153.06 219 187 185.06 220.94 219 187 252.94 153.06 219"/>
          <path d="M187,190.72,158.72,219,187,247.28,215.28,219,187,190.72m0-11.32L226.6,219,187,258.6,147.4,219,187,179.4Z"/>
        </g>
        <g>
          <polygon class="cls-3" points="221.06 219 255 185.06 288.94 219 255 252.94 221.06 219"/>
          <path d="M255,190.72,226.72,219,255,247.28,283.28,219,255,190.72m0-11.32L294.6,219,255,258.6,215.4,219,255,179.4Z"/>
        </g>
        <g>
          <polygon class="cls-2" points="119.06 253 153 219.06 186.94 253 153 286.94 119.06 253"/>
          <path d="M153,224.72,124.72,253,153,281.28,181.28,253,153,224.72m0-11.32L192.6,253,153,292.6,113.4,253,153,213.4Z"/>
        </g>
        <g>
          <polygon class="cls-2" points="187.06 253 221 219.06 254.94 253 221 286.94 187.06 253"/>
          <path d="M221,224.72,192.72,253,221,281.28,249.28,253,221,224.72m0-11.32L260.6,253,221,292.6,181.4,253,221,213.4Z"/>
        </g>
      </g>
      <g>
        <g>
          <polygon class="cls-3" points="17.06 287 51 253.06 84.94 287 51 320.94 17.06 287"/>
          <path d="M51,258.72,22.72,287,51,315.28,79.28,287,51,258.72m0-11.32L90.6,287,51,326.6,11.4,287,51,247.4Z"/>
        </g>
        <g>
          <polygon class="cls-3" points="85.06 287 119 253.06 152.94 287 119 320.94 85.06 287"/>
          <path d="M119,258.72,90.72,287,119,315.28,147.28,287,119,258.72m0-11.32L158.6,287,119,326.6,79.4,287,119,247.4Z"/>
        </g>
        <g>
          <polygon class="cls-3" points="17.06 219 51 185.06 84.94 219 51 252.94 17.06 219"/>
          <path d="M51,190.72,22.72,219,51,247.28,79.28,219,51,190.72m0-11.32L90.6,219,51,258.6,11.4,219,51,179.4Z"/>
        </g>
        <g>
          <polygon class="cls-3" points="85.06 219 119 185.06 152.94 219 119 252.94 85.06 219"/>
          <path d="M119,190.72,90.72,219,119,247.28,147.28,219,119,190.72m0-11.32L158.6,219,119,258.6,79.4,219,119,179.4Z"/>
        </g>
        <g>
          <polygon class="cls-2" points="-16.94 253 17 219.06 50.94 253 17 286.94 -16.94 253"/>
          <path d="M17,224.72-11.28,253,17,281.28,45.28,253,17,224.72m0-11.32L56.6,253,17,292.6-22.6,253,17,213.4Z"/>
        </g>
        <g>
          <polygon class="cls-2" points="51.06 253 85 219.06 118.94 253 85 286.94 51.06 253"/>
          <path d="M85,224.72,56.72,253,85,281.28,113.28,253,85,224.72m0-11.32L124.6,253,85,292.6,45.4,253,85,213.4Z"/>
        </g>
      </g>
      <g>
        <g>
          <polygon class="cls-3" points="-50.94 287 -17 253.06 16.94 287 -17 320.94 -50.94 287"/>
          <path d="M-17,258.72-45.28,287-17,315.28,11.28,287-17,258.72m0-11.32L22.6,287-17,326.6-56.6,287-17,247.4Z"/>
        </g>
        <g>
          <polygon class="cls-3" points="-50.94 219 -17 185.06 16.94 219 -17 252.94 -50.94 219"/>
          <path d="M-17,190.72-45.28,219-17,247.28,11.28,219-17,190.72m0-11.32L22.6,219-17,258.6-56.6,219-17,179.4Z"/>
        </g>
      </g>
      <g>
        <g>
          <polygon class="cls-3" points="221.06 152 255 118.06 288.94 152 255 185.94 221.06 152"/>
          <path d="M255,123.72,226.72,152,255,180.28,283.28,152,255,123.72m0-11.32L294.6,152,255,191.6,215.4,152,255,112.4Z"/>
        </g>
        <g>
          <polygon class="cls-3" points="221.06 84 255 50.06 288.94 84 255 117.94 221.06 84"/>
          <path d="M255,55.72,226.72,84,255,112.28,283.28,84,255,55.72m0-11.32L294.6,84,255,123.6,215.4,84,255,44.4Z"/>
        </g>
        <g>
          <polygon class="cls-2" points="187.06 118 221 84.06 254.94 118 221 151.94 187.06 118"/>
          <path d="M221,89.72,192.72,118,221,146.28,249.28,118,221,89.72m0-11.32L260.6,118,221,157.6,181.4,118,221,78.4Z"/>
        </g>
        <g>
          <polygon class="cls-2" points="255.06 118 289 84.06 322.94 118 289 151.94 255.06 118"/>
          <path d="M289,89.72,260.72,118,289,146.28,317.28,118,289,89.72m0-11.32L328.6,118,289,157.6,249.4,118,289,78.4Z"/>
        </g>
        <g>
          <polygon class="cls-2" points="187.06 186 221 152.06 254.94 186 221 219.94 187.06 186"/>
          <path d="M221,157.72,192.72,186,221,214.28,249.28,186,221,157.72m0-11.32L260.6,186,221,225.6,181.4,186,221,146.4Z"/>
        </g>
        <g>
          <polygon class="cls-2" points="255.06 186 289 152.06 322.94 186 289 219.94 255.06 186"/>
          <path d="M289,157.72,260.72,186,289,214.28,317.28,186,289,157.72m0-11.32L328.6,186,289,225.6,249.4,186,289,146.4Z"/>
        </g>
      </g>
      <g>
        <g>
          <polygon class="cls-3" points="85.06 152 119 118.06 152.94 152 119 185.94 85.06 152"/>
          <path d="M119,123.72,90.72,152,119,180.28,147.28,152,119,123.72m0-11.32L158.6,152,119,191.6,79.4,152,119,112.4Z"/>
        </g>
        <g>
          <polygon class="cls-3" points="153.06 152 187 118.06 220.94 152 187 185.94 153.06 152"/>
          <path d="M187,123.72,158.72,152,187,180.28,215.28,152,187,123.72m0-11.32L226.6,152,187,191.6,147.4,152,187,112.4Z"/>
        </g>
        <g>
          <polygon class="cls-3" points="85.06 84 119 50.06 152.94 84 119 117.94 85.06 84"/>
          <path d="M119,55.72,90.72,84,119,112.28,147.28,84,119,55.72m0-11.32L158.6,84,119,123.6,79.4,84,119,44.4Z"/>
        </g>
        <g>
          <polygon class="cls-3" points="153.06 84 187 50.06 220.94 84 187 117.94 153.06 84"/>
          <path d="M187,55.72,158.72,84,187,112.28,215.28,84,187,55.72m0-11.32L226.6,84,187,123.6,147.4,84,187,44.4Z"/>
        </g>
        <g>
          <polygon class="cls-2" points="51.06 118 85 84.06 118.94 118 85 151.94 51.06 118"/>
          <path d="M85,89.72,56.72,118,85,146.28,113.28,118,85,89.72M85,78.4,124.6,118,85,157.6,45.4,118,85,78.4Z"/>
        </g>
        <g>
          <polygon class="cls-2" points="119.06 118 153 84.06 186.94 118 153 151.94 119.06 118"/>
          <path d="M153,89.72,124.72,118,153,146.28,181.28,118,153,89.72m0-11.32L192.6,118,153,157.6,113.4,118,153,78.4Z"/>
        </g>
        <g>
          <polygon class="cls-2" points="51.06 186 85 152.06 118.94 186 85 219.94 51.06 186"/>
          <path d="M85,157.72,56.72,186,85,214.28,113.28,186,85,157.72m0-11.32L124.6,186,85,225.6,45.4,186,85,146.4Z"/>
        </g>
        <g>
          <polygon class="cls-2" points="119.06 186 153 152.06 186.94 186 153 219.94 119.06 186"/>
          <path d="M153,157.72,124.72,186,153,214.28,181.28,186,153,157.72m0-11.32L192.6,186,153,225.6,113.4,186,153,146.4Z"/>
        </g>
      </g>
      <g>
        <g>
          <polygon class="cls-3" points="-50.94 152 -17 118.06 16.94 152 -17 185.94 -50.94 152"/>
          <path d="M-17,123.72-45.28,152-17,180.28,11.28,152-17,123.72m0-11.32L22.6,152-17,191.6-56.6,152-17,112.4Z"/>
        </g>
        <g>
          <polygon class="cls-3" points="17.06 152 51 118.06 84.94 152 51 185.94 17.06 152"/>
          <path d="M51,123.72,22.72,152,51,180.28,79.28,152,51,123.72m0-11.32L90.6,152,51,191.6,11.4,152,51,112.4Z"/>
        </g>
        <g>
          <polygon class="cls-3" points="-50.94 84 -17 50.06 16.94 84 -17 117.94 -50.94 84"/>
          <path d="M-17,55.72-45.28,84-17,112.28,11.28,84-17,55.72m0-11.32L22.6,84-17,123.6-56.6,84-17,44.4Z"/>
        </g>
        <g>
          <polygon class="cls-3" points="17.06 84 51 50.06 84.94 84 51 117.94 17.06 84"/>
          <path d="M51,55.72,22.72,84,51,112.28,79.28,84,51,55.72M51,44.4,90.6,84,51,123.6,11.4,84,51,44.4Z"/>
        </g>
        <g>
          <polygon class="cls-2" points="-16.94 118 17 84.06 50.94 118 17 151.94 -16.94 118"/>
          <path d="M17,89.72-11.28,118,17,146.28,45.28,118,17,89.72M17,78.4,56.6,118,17,157.6-22.6,118,17,78.4Z"/>
        </g>
        <g>
          <polygon class="cls-2" points="-16.94 186 17 152.06 50.94 186 17 219.94 -16.94 186"/>
          <path d="M17,157.72-11.28,186,17,214.28,45.28,186,17,157.72m0-11.32L56.6,186,17,225.6-22.6,186,17,146.4Z"/>
        </g>
      </g>
      <g>
        <g>
          <polygon class="cls-2" points="255.06 -17 289 -50.94 322.94 -17 289 16.94 255.06 -17"/>
          <path d="M289-45.28,260.72-17,289,11.28,317.28-17,289-45.28m0-11.32L328.6-17,289,22.6,249.4-17,289-56.6Z"/>
        </g>
        <g>
          <polygon class="cls-2" points="255.06 51 289 17.06 322.94 51 289 84.94 255.06 51"/>
          <path d="M289,22.72,260.72,51,289,79.28,317.28,51,289,22.72m0-11.32L328.6,51,289,90.6,249.4,51,289,11.4Z"/>
        </g>
      </g>
      <g>
        <g>
          <polygon class="cls-3" points="153.06 17 187 -16.94 220.94 17 187 50.94 153.06 17"/>
          <path d="M187-11.28,158.72,17,187,45.28,215.28,17,187-11.28m0-11.32L226.6,17,187,56.6,147.4,17,187-22.6Z"/>
        </g>
        <g>
          <polygon class="cls-3" points="221.06 17 255 -16.94 288.94 17 255 50.94 221.06 17"/>
          <path d="M255-11.28,226.72,17,255,45.28,283.28,17,255-11.28m0-11.32L294.6,17,255,56.6,215.4,17,255-22.6Z"/>
        </g>
        <g>
          <polygon class="cls-2" points="119.06 -17 153 -50.94 186.94 -17 153 16.94 119.06 -17"/>
          <path d="M153-45.28,124.72-17,153,11.28,181.28-17,153-45.28m0-11.32L192.6-17,153,22.6,113.4-17,153-56.6Z"/>
        </g>
        <g>
          <polygon class="cls-2" points="187.06 -17 221 -50.94 254.94 -17 221 16.94 187.06 -17"/>
          <path d="M221-45.28,192.72-17,221,11.28,249.28-17,221-45.28m0-11.32L260.6-17,221,22.6,181.4-17,221-56.6Z"/>
        </g>
        <g>
          <polygon class="cls-2" points="119.06 51 153 17.06 186.94 51 153 84.94 119.06 51"/>
          <path d="M153,22.72,124.72,51,153,79.28,181.28,51,153,22.72m0-11.32L192.6,51,153,90.6,113.4,51,153,11.4Z"/>
        </g>
        <g>
          <polygon class="cls-2" points="187.06 51 221 17.06 254.94 51 221 84.94 187.06 51"/>
          <path d="M221,22.72,192.72,51,221,79.28,249.28,51,221,22.72m0-11.32L260.6,51,221,90.6,181.4,51,221,11.4Z"/>
        </g>
      </g>
      <g>
        <g>
          <polygon class="cls-3" points="17.06 17 51 -16.94 84.94 17 51 50.94 17.06 17"/>
          <path d="M51-11.28,22.72,17,51,45.28,79.28,17,51-11.28M51-22.6,90.6,17,51,56.6,11.4,17,51-22.6Z"/>
        </g>
        <g>
          <polygon class="cls-3" points="85.06 17 119 -16.94 152.94 17 119 50.94 85.06 17"/>
          <path d="M119-11.28,90.72,17,119,45.28,147.28,17,119-11.28m0-11.32L158.6,17,119,56.6,79.4,17,119-22.6Z"/>
        </g>
        <g>
          <polygon class="cls-2" points="-16.94 -17 17 -50.94 50.94 -17 17 16.94 -16.94 -17"/>
          <path d="M17-45.28-11.28-17,17,11.28,45.28-17,17-45.28M17-56.6,56.6-17,17,22.6-22.6-17,17-56.6Z"/>
        </g>
        <g>
          <polygon class="cls-2" points="51.06 -17 85 -50.94 118.94 -17 85 16.94 51.06 -17"/>
          <path d="M85-45.28,56.72-17,85,11.28,113.28-17,85-45.28M85-56.6,124.6-17,85,22.6,45.4-17,85-56.6Z"/>
        </g>
        <g>
          <polygon class="cls-2" points="-16.94 51 17 17.06 50.94 51 17 84.94 -16.94 51"/>
          <path d="M17,22.72-11.28,51,17,79.28,45.28,51,17,22.72M17,11.4,56.6,51,17,90.6-22.6,51,17,11.4Z"/>
        </g>
        <g>
          <polygon class="cls-2" points="51.06 51 85 17.06 118.94 51 85 84.94 51.06 51"/>
          <path d="M85,22.72,56.72,51,85,79.28,113.28,51,85,22.72M85,11.4,124.6,51,85,90.6,45.4,51,85,11.4Z"/>
        </g>
      </g>
      <g>
        <polygon class="cls-3" points="-50.94 17 -17 -16.94 16.94 17 -17 50.94 -50.94 17"/>
        <path d="M-17-11.28-45.28,17-17,45.28,11.28,17-17-11.28m0-11.32L22.6,17-17,56.6-56.6,17-17-22.6Z"/>
      </g>
    </pattern>
  </defs>
  <title>Illustration5</title>
  <g id="Layer_10" data-name="Layer 10">
    <rect class="cls-6" width="1920" height="1080"/>
  </g>
  <g id="Layer_13" data-name="Layer 13">
    <polygon class="cls-7" points="186 1080 191.31 1043.56 182.43 1041.66 175 1080 186 1080"/>
    <polygon class="cls-8" points="406.42 1044.2 387.38 1008.03 367.08 990.9 302.99 1076.56 406.42 1044.2"/>
    <polygon class="cls-7" points="303.62 1079.1 406.42 1046.1 413 1080 302 1080 303.62 1079.1"/>
    <polygon class="cls-8" points="298.55 1077.83 299.18 966.79 260.26 973.77 231.55 989.63 298.55 1077.83"/>
    <polygon class="cls-7" points="193.26 1042.29 212.4 1006.13 232.82 989 295.38 1075.92 193.26 1042.29"/>
    <polygon class="cls-8" points="294.72 1079.1 191.35 1046.1 184 1080 297 1080 294.72 1079.1"/>
    <polygon class="cls-8" points="183.07 1039.76 202.74 1002.32 226.21 980.75 231.92 987.73 202.1 1019.45 192.58 1043.56 183.07 1039.76"/>
    <polygon class="cls-7" points="228.75 979.48 265.55 960.44 299.18 957.27 297.91 965.52 250.96 976.94 234.41 988.28 228.75 979.48"/>
    <polygon class="cls-8" points="299.82 956 300.45 966.15 341.69 974.4 366.44 988.36 372.15 980.75 337.89 962.35 299.82 956"/>
    <polygon class="cls-7" points="299.82 1077.83 299.18 966.79 337.89 973.77 366.44 989.63 299.82 1077.83"/>
    <polygon class="cls-8" points="636.07 1039.76 655.74 1002.32 679.21 980.75 684.92 987.73 655.1 1019.45 645.58 1043.56 636.07 1039.76"/>
    <polygon class="cls-8" points="1175.07 1039.76 1194.74 1002.32 1218.21 980.75 1223.92 987.73 1194.1 1019.45 1184.58 1043.56 1175.07 1039.76"/>
    <polygon class="cls-8" points="1724.42 1044.2 1705.38 1008.03 1685.08 990.9 1620.99 1076.56 1724.42 1044.2"/>
    <polygon class="cls-7" points="1621.62 1079.1 1724.42 1046.1 1731 1080 1620 1080 1621.62 1079.1"/>
    <polygon class="cls-8" points="1616.55 1077.83 1617.18 966.79 1578.26 973.77 1549.55 989.63 1616.55 1077.83"/>
    <polygon class="cls-7" points="1511.26 1042.29 1530.4 1006.13 1550.82 989 1613.38 1075.92 1511.26 1042.29"/>
    <polygon class="cls-8" points="1612.72 1079.1 1509.35 1046.1 1502 1080 1615 1080 1612.72 1079.1"/>
    <polygon class="cls-8" points="1501.07 1039.76 1520.74 1002.32 1544.21 980.75 1549.92 987.73 1520.1 1019.45 1510.58 1043.56 1501.07 1039.76"/>
    <polygon class="cls-7" points="1546.75 979.48 1583.55 960.44 1617.18 957.27 1615.91 965.52 1568.96 976.94 1552.41 988.28 1546.75 979.48"/>
    <polygon class="cls-8" points="1617.82 956 1618.45 966.15 1659.69 974.4 1684.44 988.36 1690.15 980.75 1655.89 962.35 1617.82 956"/>
    <polygon class="cls-7" points="1692.37 979.03 1721.39 1008.6 1734.33 1039.81 1726.07 1041.02 1701.33 999.51 1685.62 987.03 1692.37 979.03"/>
    <polygon class="cls-8" points="1741 1080 1735.73 1040.04 1726.21 1043.63 1730 1080 1741 1080"/>
    <polygon class="cls-7" points="1617.82 1077.83 1617.18 966.79 1655.89 973.77 1684.44 989.63 1617.82 1077.83"/>
    <polygon points="1617.06 1080 1618.67 1075.06 1500.99 1036.82 1498.52 1044.43 1607.99 1080 1617.06 1080"/>
    <polygon points="1617.76 1080 1621.04 1077.62 1548.31 977.52 1541.84 982.22 1612.88 1080 1617.76 1080"/>
    <rect x="1613.61" y="956.63" width="8" height="123.37"/>
    <polygon points="1623.34 1080 1694.38 982.22 1687.9 977.52 1615.18 1077.62 1618.45 1080 1623.34 1080"/>
    <polygon points="1628.22 1080 1737.69 1044.43 1735.22 1036.82 1617.55 1075.06 1619.15 1080 1628.22 1080"/>
    <path d="M1735.18,1080a117.71,117.71,0,0,0-200.72-83,116.22,116.22,0,0,0-34.46,83h8a109.29,109.29,0,0,1,109.61-109.21A109.7,109.7,0,0,1,1727.18,1080Z"/>
    <path d="M1745.33,1080c-.2-70.26-57.41-127.37-127.72-127.37A127.32,127.32,0,0,0,1490,1080h8a119.31,119.31,0,0,1,119.61-119.37A119.87,119.87,0,0,1,1737.33,1080Z"/>
    <polygon points="299.06 1080 300.67 1075.06 182.99 1036.82 180.52 1044.43 289.99 1080 299.06 1080"/>
    <polygon points="299.76 1080 303.04 1077.62 230.31 977.52 223.84 982.22 294.88 1080 299.76 1080"/>
    <rect x="295.61" y="956.63" width="8" height="123.37"/>
    <polygon points="305.34 1080 376.38 982.22 369.9 977.52 297.18 1077.62 300.45 1080 305.34 1080"/>
    <polygon points="310.22 1080 419.69 1044.43 417.22 1036.82 299.55 1075.06 301.15 1080 310.22 1080"/>
    <path d="M299.61,952.63c-70.31,0-127.53,57.11-127.73,127.37h8A119.56,119.56,0,0,1,419,1080h8A127.28,127.28,0,0,0,299.61,952.63Z"/>
    <path d="M299.61,962.79A117.7,117.7,0,0,0,182,1080h8a109.49,109.49,0,0,1,219,0h8A117.24,117.24,0,0,0,299.61,962.79Z"/>
  </g>
  <g id="Layer_12" data-name="Layer 12">
    <polygon class="cls-7" points="368.35 988.36 373.42 982.01 401.98 1009.3 416.57 1041.03 408.32 1043.56 391.32 1013.86 368.35 988.36"/>
    <polygon class="cls-8" points="415 1080 424 1080 417.2 1042.93 408.32 1044.83 415 1080"/>
    <g>
      <polygon class="cls-7" points="527 1076 526 901 587 912 632 937 527 1076"/>
      <path d="M526.51,1077.48l-1-177.08,61.74,11.16,45.51,25.28Zm0-175.88,1,172.92L631.25,937.16l-44.42-24.68Z"/>
    </g>
    <polygon class="cls-8" points="695 1023 665 966 633 939 532 1074 695 1023"/>
    <polygon class="cls-7" points="533 1078 695 1026 706 1080 530 1080 533 1078"/>
    <polygon class="cls-8" points="524.99 1076 526 901 464.66 912 419.41 937 524.99 1076"/>
    <polygon class="cls-7" points="359.06 1020 389.23 963 421.41 936 520 1073 359.06 1020"/>
    <polygon class="cls-8" points="518.96 1078 356.06 1026 345 1080 521.98 1080 518.96 1078"/>
    <polygon class="cls-7" points="348 1080 356 1022 342 1019 330 1080 348 1080"/>
    <polygon class="cls-8" points="343 1016 374 957 411 923 420 934 373 984 358 1022 343 1016"/>
    <polygon class="cls-7" points="415 921 473 891 526 886 524 899 450 917 423.92 934.88 415 921"/>
    <polygon class="cls-8" points="527 884 528 900 593 913 632 935 641 923 587 894 527 884"/>
    <polygon class="cls-7" points="635 935 643 925 688 968 711 1018 698 1022 671.21 975.19 635 935"/>
    <polygon class="cls-8" points="708 1080 723 1080 712 1021 698 1024 708 1080"/>
    <polygon class="cls-7" points="1233.35 988.36 1238.42 982.01 1266.97 1009.3 1281.57 1041.03 1273.32 1043.56 1256.32 1013.86 1233.35 988.36"/>
    <polygon class="cls-8" points="1279.66 1080.37 1289.18 1080.37 1282.2 1042.93 1273.32 1044.83 1279.66 1080.37"/>
    <g>
      <polygon class="cls-7" points="1392 1076 1391 901 1452 912 1497 937 1392 1076"/>
      <path d="M1391.51,1077.48l-1-177.08,61.74,11.16,45.51,25.28Zm0-175.88,1,172.92,103.76-137.36-44.42-24.68Z"/>
    </g>
    <polygon class="cls-8" points="1560 1023 1530 966 1498 939 1397 1074 1560 1023"/>
    <polygon class="cls-7" points="1398 1078 1560 1026 1571 1080 1395 1080 1398 1078"/>
    <polygon class="cls-8" points="1389.99 1076 1391 901 1329.66 912 1284.41 937 1389.99 1076"/>
    <polygon class="cls-7" points="1224.06 1020 1254.23 963 1286.41 936 1385 1073 1224.06 1020"/>
    <polygon class="cls-8" points="1383.96 1078 1221.06 1026 1210 1080 1386.98 1080 1383.96 1078"/>
    <polygon class="cls-8" points="1208 1016 1239 957 1276 923 1285 934 1238 984 1223 1022 1208 1016"/>
    <polygon class="cls-7" points="1280 921 1338 891 1391 886 1389 899 1315 917 1288.92 934.88 1280 921"/>
    <polygon class="cls-8" points="1392 884 1393 900 1458 913 1497 935 1506 923 1452 894 1392 884"/>
    <polygon class="cls-7" points="1500 935 1508 925 1553 968 1576 1018 1563 1022 1536.21 975.19 1500 935"/>
    <polygon class="cls-8" points="1573 1080 1588 1080 1577 1021 1563 1024 1573 1080"/>
    <polygon class="cls-7" points="87 83 132 83 125 62 103 42 86 41 87 83"/>
    <polygon class="cls-3" points="85 83 40 83 47 62 69 42 86 41 85 83"/>
    <polygon points="87 85 132 85 125 106 103 126 86 127 87 85"/>
    <polygon class="cls-9" points="85 85 40 85 47 106 69 126 86 127 85 85"/>
    <polygon class="cls-7" points="87 997 132 997 125 976 103 956 86 955 87 997"/>
    <polygon class="cls-3" points="85 997 40 997 47 976 69 956 86 955 85 997"/>
    <polygon points="87 999 132 999 125 1020 103 1040 86 1041 87 999"/>
    <polygon class="cls-9" points="85 999 40 999 47 1020 69 1040 86 1041 85 999"/>
    <polygon class="cls-7" points="1837 83 1882 83 1875 62 1853 42 1836 41 1837 83"/>
    <polygon class="cls-3" points="1835 83 1790 83 1797 62 1819 42 1836 41 1835 83"/>
    <polygon points="1837 85 1882 85 1875 106 1853 126 1836 127 1837 85"/>
    <polygon class="cls-9" points="1835 85 1790 85 1797 106 1819 126 1836 127 1835 85"/>
    <polygon class="cls-7" points="1837 997 1882 997 1875 976 1853 956 1836 955 1837 997"/>
    <polygon class="cls-3" points="1835 997 1790 997 1797 976 1819 956 1836 955 1835 997"/>
    <polygon points="1837 999 1882 999 1875 1020 1853 1040 1836 1041 1837 999"/>
    <polygon class="cls-9" points="1835 999 1790 999 1797 1020 1819 1040 1836 1041 1835 999"/>
  </g>
  <g id="Layer_11" data-name="Layer 11">
    <path d="M725.67,1080h-8c0-105.32-85.69-191-191-191s-191,85.68-191,191h-8c0-109.73,89.27-199,199-199S725.67,970.27,725.67,1080Z"/>
    <path d="M709.67,1080h-8c0-96.5-78.51-175-175-175s-175,78.5-175,175h-8c0-100.91,82.09-183,183-183S709.67,979.09,709.67,1080Z"/>
    <path d="M1590.67,1080h-8c0-105.32-85.69-191-191-191s-191,85.68-191,191h-8c0-109.73,89.27-199,199-199S1590.67,970.27,1590.67,1080Z"/>
    <path d="M1574.67,1080h-8c0-96.5-78.51-175-175-175s-175,78.5-175,175h-8c0-100.91,82.09-183,183-183S1574.67,979.09,1574.67,1080Z"/>
    <path d="M86,132.5a48,48,0,1,1,48-48A48.05,48.05,0,0,1,86,132.5Zm0-88a40,40,0,1,0,40,40A40,40,0,0,0,86,44.5Z"/>
    <path d="M86,115.5a31,31,0,1,1,31-31A31,31,0,0,1,86,115.5Zm0-54a23,23,0,1,0,23,23A23,23,0,0,0,86,61.5Z"/>
    <rect x="82" y="18.5" width="8" height="132"/>
    <rect x="20" y="80.5" width="132" height="8"/>
    <path d="M86,1046.5a48,48,0,1,1,48-48A48.05,48.05,0,0,1,86,1046.5Zm0-88a40,40,0,1,0,40,40A40,40,0,0,0,86,958.5Z"/>
    <path d="M86,1029.5a31,31,0,1,1,31-31A31,31,0,0,1,86,1029.5Zm0-54a23,23,0,1,0,23,23A23,23,0,0,0,86,975.5Z"/>
    <rect x="82" y="932.5" width="8" height="132"/>
    <rect x="20" y="994.5" width="132" height="8"/>
    <path d="M1836,132.5a48,48,0,1,1,48-48A48.05,48.05,0,0,1,1836,132.5Zm0-88a40,40,0,1,0,40,40A40,40,0,0,0,1836,44.5Z"/>
    <path d="M1836,115.5a31,31,0,1,1,31-31A31,31,0,0,1,1836,115.5Zm0-54a23,23,0,1,0,23,23A23,23,0,0,0,1836,61.5Z"/>
    <rect x="1832" y="18.5" width="8" height="132"/>
    <rect x="1770" y="80.5" width="132" height="8"/>
    <path d="M1836,1046.5a48,48,0,1,1,48-48A48.05,48.05,0,0,1,1836,1046.5Zm0-88a40,40,0,1,0,40,40A40,40,0,0,0,1836,958.5Z"/>
    <path d="M1836,1029.5a31,31,0,1,1,31-31A31,31,0,0,1,1836,1029.5Zm0-54a23,23,0,1,0,23,23A23,23,0,0,0,1836,975.5Z"/>
    <rect x="1832" y="932.5" width="8" height="132"/>
    <rect x="1770" y="994.5" width="132" height="8"/>
    <polygon points="1390.62 1080 1392.63 1073.82 1207.17 1013.57 1204.7 1021.18 1385.75 1080 1390.62 1080"/>
    <polygon points="1391.12 1080 1395.21 1077.03 1280.59 919.27 1274.12 923.97 1387.48 1080 1391.12 1080"/>
    <rect x="1387.67" y="885" width="8" height="195"/>
    <polygon points="1397.43 1080 1510.79 923.97 1504.32 919.27 1389.7 1077.03 1393.79 1080 1397.43 1080"/>
    <polygon points="1399.17 1080 1580.21 1021.18 1577.74 1013.57 1392.28 1073.82 1394.29 1080 1399.17 1080"/>
    <polygon points="525.62 1080 527.63 1073.82 342.17 1013.57 339.7 1021.18 520.75 1080 525.62 1080"/>
    <polygon points="526.12 1080 530.21 1077.03 415.59 919.27 409.12 923.97 522.48 1080 526.12 1080"/>
    <rect x="522.67" y="885" width="8" height="195"/>
    <polygon points="532.43 1080 645.79 923.97 639.32 919.27 524.7 1077.03 528.79 1080 532.43 1080"/>
    <polygon points="534.17 1080 715.21 1021.18 712.74 1013.57 527.28 1073.82 529.29 1080 534.17 1080"/>
  </g>
  <g id="Layer_7" data-name="Layer 7">
    <polyline class="cls-10" points="1523 0 1548 0 1572.77 94.55 1549.51 96.18 1523 -0.48"/>
    <polyline class="cls-10" points="1561 205.52 1587 206.52 1571.45 313.3 1549.49 305.45 1561 205.52"/>
    <polyline class="cls-9" points="1551.45 99.45 1574.4 96.99 1581.25 202.5 1558.13 199.46 1551.45 99.45"/>
    <polygon class="cls-9" points="339 206.52 359 206.52 367.71 308.37 342 310.52 339 206.52"/>
    <polyline class="cls-10" points="344.78 96.92 369.1 101.87 358.79 203.66 333 200.52 344.78 96.92"/>
    <polyline class="cls-9" points="374 0 396 0 368.81 98.93 345 91.52 373 0"/>
    <polyline class="cls-9" points="1551.06 311.08 1574.97 314.56 1547.3 420.23 1523.46 410.5 1551.06 311.08"/>
    <polyline class="cls-10" points="1478.9 506.45 1523.13 413.15 1545 422 1498 520 1478.9 506.45"/>
    <polyline class="cls-9" points="1477.72 510.26 1418.12 592.74 1434.62 609.24 1501.14 518.24 1477.72 510.26"/>
    <polyline class="cls-10" points="1344.16 665.46 1418.12 592.74 1436.01 611.43 1359.65 687.43 1344.16 665.46"/>
    <polyline class="cls-9" points="1257.36 726.69 1344.16 668.7 1356.77 685.99 1269.96 749.02 1257.36 726.69"/>
    <polyline class="cls-10" points="1162.99 770.63 1257.36 726.69 1269.96 749.02 1170.55 794.77 1162.99 770.63"/>
    <polyline class="cls-9" points="1059.26 797.65 1161.55 771.84 1169 793 1085.94 817.86 1060.95 806.25 1059.26 797.65"/>
    <polygon class="cls-9" points="848 798 844.22 816.28 872.39 800.59 848 798"/>
    <polyline class="cls-10" points="739.57 790.92 748.83 768.79 848 798 847.03 812.66 836.16 818.7 739.57 790.92"/>
    <polyline class="cls-9" points="675.17 760.74 736.75 788.51 746.01 767.58 716.63 758.73 675.17 760.74"/>
  </g>
  <g id="Layer_8" data-name="Layer 8">
    <rect x="957" y="199.52" width="627" height="8"/>
    <rect x="951.78" y="144.51" width="627" height="8" transform="translate(-6.57 221.95) rotate(-10)"/>
    <rect x="1260.5" y="-54.98" width="8" height="627" transform="translate(790.33 1458.92) rotate(-80)"/>
    <rect x="1248" y="-2.42" width="8" height="629.83" transform="translate(530.89 1382.62) rotate(-70.04)"/>
    <rect x="1225" y="45.18" width="8" height="630.63" transform="translate(296.34 1238.31) rotate(-59.61)"/>
    <rect x="1193" y="89.95" width="8" height="629.1" transform="translate(111.44 1051.02) rotate(-49.45)"/>
    <rect x="1154" y="129.41" width="8" height="629.17" transform="translate(-16.49 842.33) rotate(-39.71)"/>
    <rect x="1110" y="160.21" width="8" height="631.59" transform="translate(-89.22 616.83) rotate(-29.81)"/>
    <rect x="1059.5" y="182.45" width="8" height="630.09" transform="translate(-105.57 388.8) rotate(-19.76)"/>
    <rect x="1005.58" y="197.5" width="8" height="619.54" transform="translate(-71.46 178.74) rotate(-9.77)"/>
    <rect x="587.95" y="504" width="626.1" height="8" transform="translate(239.97 1303.55) rotate(-79.69)"/>
    <rect x="536.52" y="493.5" width="623.95" height="8" transform="translate(86.9 1119.94) rotate(-69.64)"/>
    <rect x="638.29" y="516.5" width="635" height="8" transform="translate(431.56 1474.25) rotate(-89.78)"/>
    <rect x="638.29" y="516.5" width="635" height="8" transform="translate(431.56 1474.25) rotate(-89.78)"/>
    <rect x="334.76" y="199.52" width="627" height="8"/>
    <rect x="649.49" y="-164.99" width="8" height="627" transform="translate(393.75 766.28) rotate(-80)"/>
    <rect x="340.76" y="254.52" width="627" height="8" transform="translate(-34.95 117.54) rotate(-10)"/>
  </g>
  <g id="Layer_6" data-name="Layer 6">
    <polygon class="cls-9" points="1313.45 78.59 1520.7 4.73 1550 100.52 1559.89 200.36 1334 200.52 1313.45 78.59"/>
    <path class="cls-10" d="M1182,205.52h374c1,0-1.52,71.45-1.52,71.45L1542,346.52,1532,379l-13,42-175.3-64.1L1162,287.52Z"/>
    <polyline class="cls-10" points="1309.29 78.39 1336.48 201.6 1044 200.52 1018.08 176.46 1309.29 78.39"/>
    <polyline class="cls-9" points="1040.32 197.39 1178 206.52 1165.49 287.85 1017.47 228 1043 204.52 1040.32 197.39"/>
    <polyline class="cls-9" points="1060.37 246.88 1305.4 343.16 1194.62 514.68 1018.61 288.29 1060.37 246.88"/>
    <polyline class="cls-10" points="991 246.17 1020.38 288.47 1059 246.52 1017.47 228 991 246.17"/>
    <polyline class="cls-10" points="957 257.78 989.1 248.2 1123 428 959 477 957 322.26 957 257.78"/>
    <polyline class="cls-9" points="923.58 247.94 955 257.52 954 687 680 583 923.58 247.94"/>
    <polyline class="cls-9" points="491.92 206.05 865 201.52 887.5 225.09 544.29 341.52 516.59 330.26 491.92 206.05"/>
    <polyline class="cls-10" points="362.38 202.62 492.13 203.41 521.69 334.2 441 328.52 377 348.52 360 218.52 362.38 202.62"/>
    <polyline class="cls-10" points="617.06 75.96 610.85 203.93 868 199.52 890.84 179.89 617.06 75.96"/>
    <polyline class="cls-9" points="415 0 613.4 77.27 609 201.52 361.28 203.63 373.5 85.63 399 0"/>
    <polygon class="cls-9" points="959 0 959 152.52 988.2 159.37 1106 0 959 0"/>
    <polygon class="cls-10" points="1521 0.52 1020.74 177.99 990.83 157.62 1106 0 1519 0 1521 0.52"/>
    <polyline class="cls-10" points="838.94 42.89 959.91 26.15 953 157.52 920 157.52 838.94 42.89"/>
    <polyline class="cls-10" points="423 0 808 0 926.56 159.97 886 180.52 423 0"/>
    <path class="cls-9" d="M809,0s24.92,40.31,25.46,39.92S957,22,957,22V0H809"/>
    <polygon class="cls-10" points="890.19 225.6 921 248 886 299 677 298 890.19 225.6"/>
    <polygon class="cls-10" points="1190.95 515.05 1310.64 341.48 1517 424 1483.34 496.71 1414.19 599.13 1318.06 685.3 1190.95 515.05"/>
    <polyline class="cls-9" points="958.29 474.71 1126 428.15 1314.58 686.04 1242.45 732.33 1160.63 773.24 1010.99 803.38 957.16 520.25 959 473"/>
    <polygon class="cls-10" points="738 761 869.84 801.58 880 791 870 761 738 761"/>
  </g>
  <g id="Layer_5" data-name="Layer 5">
    <rect x="1320.5" y="75.49" width="8" height="129.07" transform="translate(-3.75 238.27) rotate(-10.27)"/>
    <rect x="1132.21" y="240.52" width="81.58" height="8" transform="translate(703.1 1346.75) rotate(-78.69)"/>
    <rect x="1013.09" y="263.52" width="53.81" height="8" transform="translate(145.48 861.67) rotate(-48.02)"/>
    <rect x="500.5" y="200.93" width="8" height="134.17" transform="translate(-46 115.38) rotate(-12.48)"/>
    <rect x="546.93" y="134.52" width="128.14" height="8" transform="translate(443.99 742.36) rotate(-87.31)"/>
    <rect x="838.58" y="27.52" width="117.83" height="8" transform="translate(2.61 106.82) rotate(-6.82)"/>
    <rect x="953" width="8" height="802"/>
    <rect x="506.43" y="170.02" width="1046.14" height="8" transform="translate(-0.5 345.07) rotate(-19.02)"/>
    <rect x="365" y="199.52" width="1193" height="8"/>
    <circle class="cls-11" cx="955" cy="202.52" r="29"/>
    <g>
      <line x1="981.39" y1="217.52" x2="960.61" y2="205.52"/>
      <rect x="967" y="199.52" width="8" height="24" transform="translate(302.32 946.67) rotate(-60)"/>
    </g>
    <g>
      <line class="cls-10" x1="1308" y1="344" x2="1191.48" y2="516.89"/>
      <rect x="1145.5" y="426.44" width="208.49" height="8" transform="translate(194.41 1226.32) rotate(-56.03)"/>
    </g>
    <g>
      <line class="cls-10" x1="1123" y1="428" x2="959" y2="473"/>
      <rect x="955.97" y="446.5" width="170.06" height="8" transform="translate(-82.11 291.56) rotate(-15.35)"/>
    </g>
    <g>
      <line class="cls-10" x1="679.57" y1="582.36" x2="947.7" y2="689.29"/>
      <rect x="809.64" y="491.49" width="8" height="288.66" transform="translate(-78.35 1156.04) rotate(-68.26)"/>
    </g>
    <path d="M1544.78,0A616.93,616.93,0,0,1,1580,206.52,620.68,620.68,0,0,1,1201.33,777.8,619.49,619.49,0,0,1,521.59,644.93,620.92,620.92,0,0,1,375.22,0h-8.48A625,625,0,0,0,332,206.52,628.75,628.75,0,0,0,715.55,785.17a627.44,627.44,0,0,0,688.51-134.59A628.92,628.92,0,0,0,1553.26,0Z"/>
    <path d="M1518.18,0A591.64,591.64,0,0,1,1555,206.52a595.65,595.65,0,0,1-363.4,548.24A594.51,594.51,0,0,1,539.27,627.25,595.78,595.78,0,0,1,401.82,0h-8.53A599.54,599.54,0,0,0,357,206.52,603.64,603.64,0,0,0,725.28,762.13a602.52,602.52,0,0,0,661.11-129.22A603.84,603.84,0,0,0,1526.71,0Z"/>
    <polygon points="411.45 0 1517.56 425.73 1520.44 418.27 433.72 0 411.45 0"/>
    <polygon points="803.74 0 1314.79 690.38 1321.21 685.62 813.69 0 803.74 0"/>
    <polygon points="1099.73 0 600.77 682.64 607.23 687.36 1109.64 0 1099.73 0"/>
    <polyline class="cls-12" points="1030.01 185.56 1097 115.52 1143.64 97.71 1228.65 86.66 1292.41 55.21 1256 94.52 1255.57 104.8 1199 131.52 1231 145.52 1198.89 158.64 1155.54 158.92 1190.68 177.06 1203.71 182.16 1168 192.52 1131.45 181.87 1158.37 205.11 1094.33 206.24 1088.95 209.36 1113.32 238.26 1070 222.52 1072 247.52 1052.11 228.91 1048.43 240.81 1038 215.52 1046 200.52 1030.01 185.56"/>
    <polyline class="cls-12" points="887.26 186.44 820.27 116.4 773.63 98.6 688.62 87.55 624.86 56.09 661.27 95.4 661.7 105.68 718.27 132.4 686.27 146.4 718.37 159.52 761.73 159.8 726.59 177.94 713.56 183.04 749.27 193.4 785.82 182.76 758.9 205.99 822.94 207.13 828.32 210.24 803.95 239.15 847.27 223.4 845.27 248.4 865.16 229.79 868.84 241.7 879.27 216.4 871.27 201.4 887.26 186.44"/>
    <g>
      <path class="cls-13" d="M957,255.52c40,0,88-52,88-52s-35-49-88-49-88,49-88,49S917,255.52,957,255.52Z"/>
      <path d="M957,259.52c-41.28,0-88.93-51.11-90.94-53.29l-2.21-2.39,1.9-2.64c1.47-2.07,36.82-50.68,91.25-50.68s89.78,48.61,91.25,50.68l1.9,2.64-2.21,2.39C1045.93,208.41,998.28,259.52,957,259.52Zm-82.71-56.28c10,10.11,49.78,48.28,82.71,48.28s72.74-38.17,82.71-48.28c-8-9.92-39.4-44.72-82.71-44.72S882.34,193.32,874.29,203.24Z"/>
    </g>
    <g>
      <circle class="cls-11" cx="957" cy="203.52" r="29"/>
      <path d="M957,236.52a33,33,0,1,1,33-33A33,33,0,0,1,957,236.52Zm0-58a25,25,0,1,0,25,25A25,25,0,0,0,957,178.52Z"/>
    </g>
    <circle cx="957" cy="203.52" r="15"/>
    <rect x="953" y="175.52" width="8" height="24"/>
    <g>
      <line x1="931.61" y1="188.52" x2="952.39" y2="200.52"/>
      <rect x="938" y="182.52" width="8" height="24" transform="translate(302.53 913.05) rotate(-60)"/>
    </g>
    <g>
      <line x1="963.61" y1="207.52" x2="984.39" y2="219.52"/>
      <rect x="970" y="201.52" width="8" height="24" transform="translate(302.09 950.28) rotate(-60)"/>
    </g>
    <g>
      <line x1="933.61" y1="217.52" x2="954.39" y2="205.52"/>
      <rect x="932" y="207.52" width="24" height="8" transform="translate(20.72 500.37) rotate(-30)"/>
    </g>
    <g>
      <line x1="983.39" y1="188.52" x2="962.61" y2="200.52"/>
      <rect x="961" y="190.52" width="24" height="8" transform="translate(33.09 512.53) rotate(-30)"/>
    </g>
    <rect x="953" y="208.52" width="8" height="24"/>
    <path d="M1037,192.5l-5.63-5a19.3,19.3,0,0,1-2.26,1.45l-3.77-7.06c3.57-1.9,9.81-9.13,17-17.5,23.92-27.7,63.83-73.91,123.16-73.91h1.47l2.38,0c74.21,0,123.37-44.51,123.86-45l13.58-12.51-7.19,17c-9.42,22.31-26.37,38.54-51.84,49.61-21.42,9.32-48.6,15-85.53,17.82-32.55,2.5-64.79,22.66-86.1,39.12A315.1,315.1,0,0,0,1037,192.5Zm128.57-94c-55.55,0-93.89,44.23-116.94,70.91,23.51-21.85,67.38-56.38,113-59.89,36-2.77,62.38-8.23,83-17.18,16.59-7.22,29.25-16.75,38.28-28.9a209.1,209.1,0,0,1-20.35,12c-20.52,10.6-53.18,23.08-93.18,23.09l-2.46,0Z"/>
    <path d="M1068.33,162.77l-4.66-6.5c1.34-1,33.75-23.73,100.21-25.75,33.12-1,57.78-10.93,72.62-19.08a130.92,130.92,0,0,0,15.45-9.9l-11.62,1-.66-8,34.42-2.86-7.18,7.6c-1.44,1.52-35.91,37.22-102.79,39.25-33.34,1-57.61,7.55-72.1,12.86C1076.33,157.13,1068.41,162.72,1068.33,162.77Z"/>
    <path d="M1056.75,173.06l-4.64-6.53c1.22-.86,30.4-21.1,77.41-15,45,5.88,77.92,3.62,98.07-6.69-11.12-.3-26.42-2.12-36-9.11l4.74-6.46c13.59,10,44,7.28,44.26,7.25l11.91-1.11-8.85,8c-20.09,18.26-57.77,23.5-115.21,16C1084.54,153.76,1057,172.86,1056.75,173.06Z"/>
    <path d="M1172.57,193.8c-16.29,0-31.78-4.57-45.36-8.58-9.86-2.91-18.37-5.42-25.37-5.7-20.67-.83-47.54,4.62-56.37,6.41a19.12,19.12,0,0,1-3.47.59v-8a3.11,3.11,0,0,0-.45,0c.32-.05,1.12-.22,2.33-.46,9.07-1.84,36.65-7.44,58.28-6.57,8,.32,17.37,3.09,27.31,6,19.56,5.78,43.33,12.79,66.79,4.09-12.72-3.57-34.06-10.52-50.38-20.72l4.24-6.78c23.12,14.45,58.39,22.41,58.75,22.49l10.05,2.23L1210,184A73.41,73.41,0,0,1,1172.57,193.8Z"/>
    <path d="M1137,212.42c-7.93,0-17.7-.23-29.2-.91-34.85-2-64-24.89-65.25-25.86l5-6.27c.28.23,28.47,22.25,60.76,24.15,19.7,1.16,34.39.95,43.11.59-9-7.84-25.25-20.52-38-22.65l1.32-7.9c21.1,3.54,48,30,49.15,31.11l6,5.93-8.39.89C1160.9,211.55,1152.44,212.42,1137,212.42Z"/>
    <path d="M1132.41,247.61l-14-2.14c-31.68-4.83-51.23-20.72-62.05-33.21-11.76-13.57-16-25.95-16.14-26.47l7.58-2.54c0,.11,4,11.64,14.84,24a89,89,0,0,0,42.6,27.09c-8.33-8-19-19.44-23.84-29.08l7.16-3.56c7.52,15.07,32.78,36.51,33,36.72Z"/>
    <path d="M1081.32,262.15a13.72,13.72,0,0,1-2.06-1.17c-7.49-4.51-34.56-23-38.24-57l8-.86c1.83,16.91,10.47,29.71,18.82,38.36-.41-1.42-.79-2.92-1.15-4.48a125.86,125.86,0,0,1-2.8-18.6l8-.5c.74,11.67,4.5,31,11.52,36.22.94.58,1.49.88,1.53.9Z"/>
    <path d="M1053.46,248.88l-5.33-2.82c-8.37-4.44-12.7-12.73-12.5-24a51.1,51.1,0,0,1,2.61-14.91l7.53,2.7c-.07.18-5.32,15.3.93,24.51l.71-8.18,8,.7Z"/>
    <path d="M877.22,192.5a314.22,314.22,0,0,0-39.17-35.87C816.74,140.17,784.5,120,752,117.51c-36.93-2.84-64.11-8.5-85.54-17.82C641,88.62,624,72.39,614.58,50.08l-7.18-17L621,45.58c.49.46,50.87,45.91,126.23,44.94h1.47c59.34,0,99.24,46.21,123.16,73.91,7.23,8.37,13.47,15.6,17,17.5L885.12,189a19.38,19.38,0,0,1-2.27-1.45Zm-245.89-129c9,12.15,21.68,21.68,38.28,28.9,20.59,9,46.95,14.41,83,17.18,45.65,3.51,89.52,38,113,59.89-23.23-26.9-62-71.64-118.27-70.9-41.11.54-74.71-12.26-95.64-23.07A209.1,209.1,0,0,1,631.33,63.45Z"/>
    <path d="M845.94,162.77c-.32-.22-32-22.32-95.8-24.25-66.88-2-101.35-37.73-102.78-39.25l-7.18-7.6,34.42,2.86-.67,8-11.54-1c14,10.39,43.67,27.64,88,29,66.45,2,98.86,24.78,100.21,25.75Z"/>
    <path d="M857.53,173.06c-.07-.05-7-4.89-19.33-9a118.42,118.42,0,0,0-52.42-4.6c-57.43,7.49-95.12,2.25-115.21-16l-8.85-8,11.92,1.11c.3,0,30.67,2.72,44.26-7.25l4.73,6.46c-9.54,7-24.84,8.81-36,9.11,20.16,10.31,53,12.57,98.08,6.69,47-6.13,76.18,14.12,77.4,15l-4.63,6.53,2.31-3.26Z"/>
    <path d="M741.7,193.8A73.47,73.47,0,0,1,704.27,184l-8.93-5.14,10.06-2.23c.35-.08,35.62-8,58.74-22.49l4.24,6.78c-16.31,10.2-37.66,17.15-50.37,20.72,23.46,8.7,47.22,1.69,66.78-4.09,9.94-2.93,19.32-5.7,27.31-6,21.62-.86,49.22,4.73,58.29,6.57,1.21.24,2,.41,2.33.46a3.15,3.15,0,0,0-.46,0v8a19.24,19.24,0,0,1-3.46-.59c-8.84-1.79-35.72-7.23-56.38-6.41-7,.28-15.5,2.79-25.36,5.7C773.47,189.23,758,193.8,741.7,193.8Z"/>
    <path d="M777.31,212.42c-15.49,0-23.94-.87-24.46-.92l-8.4-.89,6-5.93c1.14-1.13,28-27.57,49.15-31.11l1.33,7.9c-12.76,2.13-29,14.81-38,22.65,8.73.36,23.41.57,43.12-.59,32.29-1.9,60.47-23.92,60.75-24.15l5,6.27c-1.22,1-30.39,23.81-65.25,25.86C795,212.19,785.24,212.42,777.31,212.42Z"/>
    <path d="M781.86,247.61l10.82-9.15c.26-.21,25.52-21.65,33-36.72l7.16,3.56c-4.79,9.62-15.47,21-23.8,29,44.28-13.26,57.26-50.68,57.4-51.1l7.59,2.54c-.17.52-4.39,12.9-16.15,26.47-10.82,12.49-30.36,28.38-62,33.21Z"/>
    <path d="M832.94,262.15,829.39,255s.59-.31,1.53-.89c7-5.24,10.78-24.56,11.51-36.22l8,.5a129,129,0,0,1-2.8,18.6c-.37,1.56-.75,3.06-1.16,4.48,8.35-8.65,17-21.45,18.83-38.36l8,.86c-3.67,34-30.74,52.52-38.23,57A13.34,13.34,0,0,1,832.94,262.15Z"/>
    <path d="M860.8,248.88l-1.91-22,8-.7.71,8.2c6.31-9.21,1-24.34.93-24.52l7.53-2.71a51.48,51.48,0,0,1,2.61,14.91c.19,11.25-4.13,19.54-12.5,24Z"/>
  </g>
  <g id="Layer_9" data-name="Layer 9">
    <path class="cls-7" d="M61.93,355.65H79.21V420H61.93S62.71,354.86,61.93,355.65Z"/>
    <path class="cls-8" d="M61.93,427H79.21v64H61.93S62.71,426.23,61.93,427Z"/>
    <path class="cls-7" d="M61.93,498H79.21v64H61.93S62.71,497.23,61.93,498Z"/>
    <path class="cls-8" d="M61.93,568H79.21v64H61.93S62.71,567.23,61.93,568Z"/>
    <path class="cls-7" d="M61.93,638H79.21v64H61.93S62.71,637.23,61.93,638Z"/>
    <path class="cls-7" d="M904.93,355.65h17.28V420H904.93S905.71,354.86,904.93,355.65Z"/>
    <path class="cls-8" d="M904.93,427h17.28v64H904.93S905.71,426.23,904.93,427Z"/>
    <path class="cls-7" d="M904.93,498h17.28v64H904.93S905.71,497.23,904.93,498Z"/>
    <path class="cls-8" d="M904.93,568h17.28v64H904.93S905.71,567.23,904.93,568Z"/>
    <path class="cls-7" d="M904.93,638h17.28v64H904.93S905.71,637.23,904.93,638Z"/>
    <polygon class="cls-8" points="64 708 94.63 708.67 115.54 733.38 115.22 757.78 99 757 86.08 731.8 59 722 64 708"/>
    <polygon class="cls-8" points="111.62 303.46 110.94 334.09 86.23 355 61.84 354.68 62.62 338.46 87.82 325.54 97.62 298.46 111.62 303.46"/>
    <polygon class="cls-8" points="919 351.62 888.37 350.94 867.46 326.23 867.77 301.84 884 302.62 896.92 327.82 924 337.62 919 351.62"/>
    <rect class="cls-7" x="115" y="301" width="84" height="17"/>
    <rect class="cls-8" x="199" y="301" width="84" height="17"/>
    <rect class="cls-7" x="284" y="301" width="84" height="17"/>
    <rect class="cls-8" x="366" y="301" width="84" height="17"/>
    <rect class="cls-7" x="450" y="301" width="84" height="17"/>
    <rect class="cls-8" x="534" y="301" width="84" height="17"/>
    <rect class="cls-7" x="616" y="301" width="84" height="17"/>
    <rect class="cls-8" x="700" y="301" width="84" height="17"/>
    <rect class="cls-7" x="783" y="301" width="84" height="17"/>
    <rect class="cls-7" x="115" y="742" width="84" height="17"/>
    <rect class="cls-8" x="199" y="742" width="84" height="17"/>
    <rect class="cls-7" x="284" y="742" width="84" height="17"/>
    <rect class="cls-8" x="366" y="742" width="84" height="17"/>
    <rect class="cls-7" x="450" y="742" width="84" height="17"/>
    <rect class="cls-8" x="534" y="742" width="84" height="17"/>
    <rect class="cls-7" x="616" y="742" width="84" height="17"/>
    <rect class="cls-8" x="700" y="742" width="84" height="17"/>
    <rect class="cls-7" x="783" y="742" width="84" height="17"/>
    <g>
      <path class="cls-14" d="M80,353V706a35,35,0,0,1,35,34H868a35,35,0,0,1,35-34V353a35,35,0,0,1-35-35H115A35,35,0,0,1,80,353Z"/>
      <path d="M871.91,744H111.09l-.11-3.89A30.83,30.83,0,0,0,80,710H76V349h4a31,31,0,0,0,31-31v-4H872v4a31,31,0,0,0,31,31h4V710h-4a30.83,30.83,0,0,0-31,30.11Zm-753.23-8H864.32A38.74,38.74,0,0,1,899,702.2V356.8A39.08,39.08,0,0,1,864.2,322H118.8A39.08,39.08,0,0,1,84,356.8V702.2A38.74,38.74,0,0,1,118.68,736Z"/>
    </g>
    <path class="cls-15" d="M126,550h15v-8l144-1-3-126h41l10,21,24,12h6l2,7,86-1,13-23,12-6,20-72h32l-2,49,1,33,27,2-14-31,10-3,10,32,59,2s11-37,36-36,43,20,43,41l104,1,10,8v21l19,1,11,10v12l7,5,10,1,1,28H830v18l-17,5-1,131H288l-3-63-82,1-79-36Z"/>
    <path class="cls-16" d="M356,383a32,32,0,1,0,32,32A32,32,0,0,0,356,383Zm0,53a21,21,0,1,1,21-21A21,21,0,0,1,356,436Z"/>
    <path class="cls-12" d="M221.58,492c-.14-3.65-.14-23.27,13.18-61,13.08-37.08,0-73.09,0-73.09H152.41c-26.93,0-25.39,21.53-25.39,21.53h29.6c.87-3.72-22.17,133-21.91,130.06L221.29,492H157.8s-3.08,18.5-20,18.5l20-131.09h-1.18C148.1,416,114.32,488.65,137,511h97.74S254,505.35,254,492Z"/>
    <path class="cls-7" d="M1858.07,355.65h-17.28V420h17.28S1857.29,354.86,1858.07,355.65Z"/>
    <path class="cls-8" d="M1858.07,427h-17.28v64h17.28S1857.29,426.23,1858.07,427Z"/>
    <path class="cls-7" d="M1858.07,498h-17.28v64h17.28S1857.29,497.23,1858.07,498Z"/>
    <path class="cls-8" d="M1858.07,568h-17.28v64h17.28S1857.29,567.23,1858.07,568Z"/>
    <path class="cls-7" d="M1858.07,638h-17.28v64h17.28S1857.29,637.23,1858.07,638Z"/>
    <path class="cls-7" d="M1015.07,355.65H997.79V420h17.28S1014.29,354.86,1015.07,355.65Z"/>
    <path class="cls-8" d="M1015.07,427H997.79v64h17.28S1014.29,426.23,1015.07,427Z"/>
    <path class="cls-7" d="M1015.07,498H997.79v64h17.28S1014.29,497.23,1015.07,498Z"/>
    <path class="cls-8" d="M1015.07,568H997.79v64h17.28S1014.29,567.23,1015.07,568Z"/>
    <path class="cls-7" d="M1015.07,638H997.79v64h17.28S1014.29,637.23,1015.07,638Z"/>
    <polygon class="cls-8" points="1856 708 1825.37 708.67 1804.46 733.38 1804.78 757.78 1821 757 1833.92 731.8 1861 722 1856 708"/>
    <polygon class="cls-8" points="1808.38 303.46 1809.06 334.09 1833.77 355 1858.16 354.68 1857.38 338.46 1832.18 325.54 1822.38 298.46 1808.38 303.46"/>
    <polygon class="cls-8" points="1001 351.62 1031.63 350.94 1052.54 326.23 1052.22 301.84 1036 302.62 1023.08 327.82 996 337.62 1001 351.62"/>
    <rect class="cls-7" x="1721" y="301" width="84" height="17" transform="translate(3526 619) rotate(-180)"/>
    <rect class="cls-8" x="1637" y="301" width="84" height="17" transform="translate(3358 619) rotate(-180)"/>
    <rect class="cls-7" x="1552" y="301" width="84" height="17" transform="translate(3188 619) rotate(-180)"/>
    <rect class="cls-8" x="1470" y="301" width="84" height="17" transform="translate(3024 619) rotate(-180)"/>
    <rect class="cls-7" x="1386" y="301" width="84" height="17" transform="translate(2856 619) rotate(-180)"/>
    <rect class="cls-8" x="1302" y="301" width="84" height="17" transform="translate(2688 619) rotate(-180)"/>
    <rect class="cls-7" x="1220" y="301" width="84" height="17" transform="translate(2524 619) rotate(-180)"/>
    <rect class="cls-8" x="1136" y="301" width="84" height="17" transform="translate(2356 619) rotate(-180)"/>
    <rect class="cls-7" x="1053" y="301" width="84" height="17" transform="translate(2190 619) rotate(-180)"/>
    <rect class="cls-7" x="1721" y="742" width="84" height="17" transform="translate(3526 1501) rotate(-180)"/>
    <rect class="cls-8" x="1637" y="742" width="84" height="17" transform="translate(3358 1501) rotate(-180)"/>
    <rect class="cls-7" x="1552" y="742" width="84" height="17" transform="translate(3188 1501) rotate(-180)"/>
    <rect class="cls-8" x="1470" y="742" width="84" height="17" transform="translate(3024 1501) rotate(-180)"/>
    <rect class="cls-7" x="1386" y="742" width="84" height="17" transform="translate(2856 1501) rotate(-180)"/>
    <rect class="cls-8" x="1302" y="742" width="84" height="17" transform="translate(2688 1501) rotate(-180)"/>
    <rect class="cls-7" x="1220" y="742" width="84" height="17" transform="translate(2524 1501) rotate(-180)"/>
    <rect class="cls-8" x="1136" y="742" width="84" height="17" transform="translate(2356 1501) rotate(-180)"/>
    <rect class="cls-7" x="1053" y="742" width="84" height="17" transform="translate(2190 1501) rotate(-180)"/>
    <g>
      <path class="cls-17" d="M1840,353V706a35,35,0,0,0-35,34H1052a35,35,0,0,0-35-34V353a35,35,0,0,0,35-35h753A35,35,0,0,0,1840,353Z"/>
      <path d="M1808.92,744H1048.08l-.1-3.89A30.83,30.83,0,0,0,1017,710h-4V349h4a31,31,0,0,0,31-31v-4h761v4a31,31,0,0,0,31,31h4V710h-4a30.83,30.83,0,0,0-31,30.11Zm-753.24-8h745.64A38.74,38.74,0,0,1,1836,702.2V356.8a39.08,39.08,0,0,1-34.8-34.8H1055.8a39.08,39.08,0,0,1-34.8,34.8V702.2A38.74,38.74,0,0,1,1055.68,736Z"/>
    </g>
    <path class="cls-15" d="M1794,550h-15v-8l-144-1,3-126h-41l-10,21-24,12h-6l-2,7-86-1-13-23-12-6-20-72h-32l2,49-1,33-27,2,14-31-10-3-10,32-59,2s-11-37-36-36-43,20-43,41l-104,1-10,8v21l-19,1-11,10v12l-7,5-10,1-1,28h30v18l17,5,1,131h524l3-63,82,1,79-36Z"/>
    <path class="cls-16" d="M1532,415a32,32,0,1,0,32-32A32,32,0,0,0,1532,415Zm11,0a21,21,0,1,1,21,21A21,21,0,0,1,1543,415Z"/>
    <path class="cls-12" d="M1698.42,492c.14-3.65.14-23.27-13.18-61-13.08-37.08,0-73.09,0-73.09h82.35c26.93,0,25.39,21.53,25.39,21.53h-29.6c-.87-3.72,22.17,133,21.91,130.06L1698.71,492h63.49s3.08,18.5,20,18.5l-20-131.09h1.18c8.52,36.62,42.3,109.25,19.6,131.6h-97.74S1666,505.35,1666,492Z"/>
  </g>
  <g id="Layer_4" data-name="Layer 4">
    <path d="M889.3,763H93.7l-.11-3.89c-.5-18.6-14.82-33.17-32.59-33.17H57V333.15h4c18,0,32.62-15.32,32.62-34.15v-4H889.38v4c0,18.83,14.64,34.15,32.62,34.15h4V725.94h-4c-17.77,0-32.09,14.57-32.59,33.17Zm-788-8H881.69c2.24-19.71,17.29-35,36.31-36.86V341C898.74,339,883.39,323,881.56,303H101.44C99.61,323,84.26,339,65,341V718.14C84,720,99.07,735.29,101.31,755Z"/>
    <polygon points="814.89 688.1 281.86 688.1 279.93 410.51 323.94 410.51 323.94 418.51 287.98 418.51 289.81 680.1 806.89 680.1 806.89 551.89 814.89 551.89 814.89 688.1"/>
    <polygon points="284.31 590.71 120 590.71 120 546 284.86 546 284.86 554 128 554 128 582.71 284.31 582.71 284.31 590.71"/>
    <polygon points="286.22 625.52 201.22 625.52 124.35 590.64 127.65 583.36 202.96 617.52 286.22 617.52 286.22 625.52"/>
    <polygon points="145 548.97 137 548.97 137 536.6 283.95 536.6 283.95 544.6 145 544.6 145 548.97"/>
    <path d="M355.94,451a36,36,0,1,1,36-36A36,36,0,0,1,355.94,451Zm0-64a28,28,0,1,0,28,28A28,28,0,0,0,355.94,387Z"/>
    <path d="M355.94,440a25,25,0,1,1,25-25A25,25,0,0,1,355.94,440Zm0-42a17,17,0,1,0,17,17A17,17,0,0,0,355.94,398Z"/>
    <path d="M355.94,422.75A7.77,7.77,0,1,1,363.7,415,7.78,7.78,0,0,1,355.94,422.75Zm0-8a.23.23,0,0,0-.24.23c0,.26.47.26.47,0A.23.23,0,0,0,355.94,414.75Z"/>
    <rect x="353.58" y="390.05" width="4.7" height="21.64"/>
    <rect x="341.35" y="410.75" width="4.7" height="21.64" transform="translate(150.46 930.01) rotate(-120)"/>
    <rect x="365.35" y="411.69" width="4.7" height="21.64" transform="translate(917.45 315.33) rotate(120)"/>
    <path d="M448.15,652.47H286.08v-8h157c-.73-4.49-.89-11,2.53-16.46,2.74-4.38,7.15-7.22,13.13-8.5v-33h22l-15.37-11.92v-14c-.29-.54-1-1-2.75-.91l-4.31.33V486.73h-15l-.07-3.93c0-2.21-.6-53,29.5-62.17l21.38-72.22h37.57v90.1h-8v-82.1H500.07l-21,70.91-2.3.51c-21.68,4.82-25,39.15-25.48,50.9h15V552a9.53,9.53,0,0,1,7,7.1l.08.38v11.14l30.74,23.84H466.73v32.08l-3.59.36c-5.25.54-8.86,2.33-10.75,5.32-3.66,5.81-.51,14.79-.48,14.88l1.92,5.35Z"/>
    <path d="M365.49,617.31a10.53,10.53,0,0,1-10-6.5c-1.5-3.64-10.34-4.91-15.85-4.62H285.83v-8h53.53c2.46-.13,19.39-.58,23.57,9.57,1,2.41,4.11,1.26,4.24,1.21,1.18-.45,3.78-1.92,2.4-5.9-2.05-5.87-.55-13,4.1-19.53,3.46-4.87,9.07-9.78,13.79-9.78,3.58,0,6,1.82,8.11,3.44s4.15,3.14,7.88,3.14c6.63,0,10.59-5.18,10.59-13.87,0-8.4-6.34-13.41-12.47-13.41-2.62,0-3.46.7-5,2a13.53,13.53,0,0,1-9.59,3.67c-4.64,0-8.5-3-10.09-7.9s-.78-11.87,4-15.33a12.1,12.1,0,0,0,4.3-14.53,10.23,10.23,0,0,0-5.74-5.67c-3.57-1.34-8.31-.62-13.71,2.08l-5.65,2.83-.14-6.32c0-.17-.34-16.69-.52-33.16-.37-34.94.09-35.42,1.62-37l1.18-1.2,1.72,0h4.28l-.29,4.27a3.66,3.66,0,0,0,.7,2.25,2.6,2.6,0,0,0,1.9.54H451v8H370.52a12.25,12.25,0,0,1-3.19-.4c-.11,12.34.17,33.95.49,50.72,5.29-1.67,10.12-1.7,14.42-.1a18.21,18.21,0,0,1,10.33,10.13c4.13,10-.73,19.49-7,24-1.2.88-1.91,3.79-1.07,6.38.51,1.58,1.35,2.38,2.48,2.38,2.26,0,3-.61,4.48-1.83a14.1,14.1,0,0,1,10.1-3.81,20.46,20.46,0,0,1,14,5.76A21.48,21.48,0,0,1,422,566.48c0,13.08-7.47,21.87-18.59,21.87-6.42,0-10.05-2.75-12.71-4.77-1.57-1.19-2.43-1.81-3.28-1.81-1.19.15-5.21,3-8.11,7.68-1.45,2.34-3.66,6.87-2.23,11,2,5.66.59,13.09-7.11,16A12.63,12.63,0,0,1,365.49,617.31Z"/>
    <rect x="388.9" y="513.63" width="71.49" height="8"/>
    <rect x="388.9" y="520.68" width="71.49" height="8"/>
    <g>
      <circle class="cls-16" cx="374.28" cy="526.02" r="6.28"/>
      <path d="M374.28,536.3A10.29,10.29,0,1,1,384.57,526,10.29,10.29,0,0,1,374.28,536.3Zm0-12.57a2.29,2.29,0,1,0,2.29,2.29A2.29,2.29,0,0,0,374.28,523.73Z"/>
    </g>
    <g>
      <circle class="cls-16" cx="402.04" cy="567.42" r="7.04"/>
      <path d="M402,578.46a11,11,0,1,1,11-11A11,11,0,0,1,402,578.46Zm0-14.08a3,3,0,1,0,3,3A3,3,0,0,0,402,564.38Z"/>
    </g>
    <g>
      <path class="cls-16" d="M339.47,655.87h57.4A28.23,28.23,0,0,1,425.1,684.1v0a0,0,0,0,1,0,0H311.24a0,0,0,0,1,0,0v0A28.23,28.23,0,0,1,339.47,655.87Z"/>
      <path d="M429.1,688.1H307.24v-4a32.27,32.27,0,0,1,32.23-32.23h57.4A32.27,32.27,0,0,1,429.1,684.1Zm-113.53-8h105.2a24.28,24.28,0,0,0-23.9-20.23h-57.4A24.26,24.26,0,0,0,315.57,680.1Z"/>
    </g>
    <g>
      <rect class="cls-16" x="506.96" y="597.53" width="31.05" height="31.05"/>
      <path d="M542,632.58H503V593.53H542Zm-31.05-8H534V601.53H511Z"/>
    </g>
    <g>
      <rect class="cls-16" x="550.71" y="597.53" width="31.05" height="31.05"/>
      <path d="M585.76,632.58h-39V593.53h39Zm-31-8h23V601.53h-23Z"/>
    </g>
    <g>
      <rect class="cls-16" x="594.47" y="597.53" width="31.05" height="31.05"/>
      <path d="M629.52,632.58h-39V593.53h39Zm-31-8h23V601.53h-23Z"/>
    </g>
    <path d="M822.48,555.42H621.75c-15.54,0-24.81-8.31-24.81-22.23,0-11.38-11.22-12.69-13-12.82H500.14c-12.09,0-16.47-9.85-16.47-16.47V460.15c0-20,14.67-26.73,22.42-27.5l.4,0H619.87v8H506.72c-2.14.29-15.05,2.69-15.05,19.53V503.9c0,2,.73,8.47,8.47,8.47h84.2c7.12.4,20.6,5.26,20.6,20.81,0,9.44,5.66,14.23,16.81,14.23H821.82c1.21-.24,5.77-1.42,5.77-5.41V525.78h28.23l0-20.07a2.56,2.56,0,0,0-.43-1.64,3.47,3.47,0,0,0-2.43-.64c-4.76,0-17.4,0-17.4-12.23v-.93c0-4.18,0-10.49-2.32-12.85a4,4,0,0,0-3.09-1H807.83v-21.7c-.17-1.72-1.33-8.88-8.71-8.88H698.91v-8H799.12c12.25,0,16.28,10.73,16.7,16.41v14.17h14.35a11.87,11.87,0,0,1,8.75,3.39c4.69,4.71,4.67,12.69,4.66,18.52v.91c0,2.18,0,4.23,9.4,4.23,4.56,0,7.12,1.85,8.47,3.4a10.61,10.61,0,0,1,2.36,7.62v27.33H835.59V542c0,9-8.39,12.7-12.82,13.37Z"/>
    <path d="M792.2,550.71h-8v-47h59.35c5.31.27,13.21,4.06,13.21,13.41v13.38h-8V517.08c0-4.57-4.13-5.3-5.55-5.41h-51Z"/>
    <g>
      <circle class="cls-16" cx="510.25" cy="370.76" r="11.29"/>
      <path d="M510.25,386.05a15.29,15.29,0,1,1,15.29-15.29A15.31,15.31,0,0,1,510.25,386.05Zm0-22.58a7.29,7.29,0,1,0,7.29,7.29A7.3,7.3,0,0,0,510.25,363.47Z"/>
    </g>
    <path d="M739.37,541a23.46,23.46,0,1,1,23.46-23.45A23.48,23.48,0,0,1,739.37,541Zm0-38.91a15.46,15.46,0,1,0,15.46,15.46A15.47,15.47,0,0,0,739.37,502.09Z"/>
    <g>
      <circle class="cls-16" cx="739.37" cy="517.55" r="9.45"/>
      <path d="M739.37,531a13.46,13.46,0,1,1,13.46-13.45A13.47,13.47,0,0,1,739.37,531Zm0-18.91a5.46,5.46,0,1,0,5.46,5.46A5.46,5.46,0,0,0,739.37,512.09Z"/>
    </g>
    <circle cx="592.11" cy="538.25" r="3.76"/>
    <g>
      <circle class="cls-16" cx="810.42" cy="528.84" r="11.29"/>
      <path d="M810.42,544.13a15.29,15.29,0,1,1,15.29-15.29A15.31,15.31,0,0,1,810.42,544.13Zm0-22.58a7.29,7.29,0,1,0,7.29,7.29A7.31,7.31,0,0,0,810.42,521.55Z"/>
    </g>
    <path d="M838.64,526a7.51,7.51,0,1,1,7.52-7.51A7.52,7.52,0,0,1,838.64,526Zm0-8a.49.49,0,1,0,.49.49A.49.49,0,0,0,838.64,518Z"/>
    <path d="M708.09,482a8.47,8.47,0,1,1,8.47-8.47A8.48,8.48,0,0,1,708.09,482Zm0-8.94a.47.47,0,1,0,.47.47A.47.47,0,0,0,708.09,473.09Z"/>
    <path d="M728.32,482a8.47,8.47,0,1,1,8.47-8.47A8.48,8.48,0,0,1,728.32,482Zm0-8.94a.47.47,0,1,0,.47.47A.47.47,0,0,0,728.32,473.09Z"/>
    <rect x="711.29" y="466.35" width="13.41" height="8"/>
    <rect x="711.29" y="472.94" width="13.41" height="8"/>
    <path d="M674,555.42v-8c5.7,0,10.08-1.57,13-4.68,5-5.3,4.63-13.58,4.63-13.67V459.85c-5.61-3.86-25.4-16.4-46.34-16.4-20.7,0-36.53,12.35-40.87,16.12v70.34h-8V456.13L597.6,455c.8-.79,20-19.5,47.68-19.5,27.38,0,51.75,18.39,52.77,19.17l1.57,1.2v72.92c.06,1.44.26,12-6.75,19.44C688.35,553,682,555.42,674,555.42Z"/>
    <path d="M702,446h-8a50.33,50.33,0,0,0-9.75-29.15c-6.48-8.64-15-13.39-23.92-13.39C640.64,403.46,624,420.65,624,441h-8c0-24.69,20.3-45.54,44.33-45.54C684.89,395.46,702,422.09,702,446Z"/>
    <polygon points="529.04 414.37 525.44 407.22 530.12 404.87 526.99 398.67 647.7 337.77 655.67 350.73 529.04 414.37"/>
    <rect x="542.67" y="403.54" width="8" height="33.93" transform="translate(-111.2 213.43) rotate(-20.1)"/>
    <rect x="551.37" y="398.79" width="8" height="38.78" transform="translate(-108.48 211.74) rotate(-19.7)"/>
    <rect x="665.14" y="552.06" width="8" height="132.12"/>
    <path d="M577.38,554.06a7.59,7.59,0,0,1-5.5-2.16c-3.1-3.1-2.22-7.32-1.22-9.32l.37-.75L594.72,522l5.14,6.13L579,545.61l22-8.08,2.75,7.51-22.39,8.22A10.44,10.44,0,0,1,577.38,554.06Z"/>
    <path d="M661.46,399h-8c0-31-20.32-36.84-21.18-37.07l2-7.75a33.9,33.9,0,0,1,13.89,8.43C654.23,368.53,661.46,379.64,661.46,399Z"/>
    <path d="M655.87,401.34h-8c0-13.24-3.83-23.35-11.37-30a26.81,26.81,0,0,0-10.84-6l1.6-7.84C627.55,357.49,655.87,363.72,655.87,401.34Z"/>
    <rect x="111" y="299.25" width="8" height="18.75"/>
    <rect x="194.56" y="299.25" width="8" height="18.75"/>
    <rect x="278.24" y="299.25" width="8" height="18.75"/>
    <rect x="361.92" y="299.25" width="8" height="18.75"/>
    <rect x="445.6" y="299.25" width="8" height="18.75"/>
    <rect x="529.28" y="299.25" width="8" height="18.75"/>
    <rect x="612.96" y="299.25" width="8" height="18.75"/>
    <rect x="696.64" y="299.25" width="8" height="18.75"/>
    <rect x="780.32" y="299.25" width="8" height="18.75"/>
    <rect x="864" y="299.25" width="8" height="18.75"/>
    <rect x="111" y="740.25" width="8" height="18.75"/>
    <rect x="194.56" y="740.25" width="8" height="18.75"/>
    <rect x="278.24" y="740.25" width="8" height="18.75"/>
    <rect x="361.92" y="740.25" width="8" height="18.75"/>
    <rect x="445.6" y="740.25" width="8" height="18.75"/>
    <rect x="529.28" y="740.25" width="8" height="18.75"/>
    <rect x="612.96" y="740.25" width="8" height="18.75"/>
    <rect x="696.64" y="740.25" width="8" height="18.75"/>
    <rect x="780.32" y="740.25" width="8" height="18.75"/>
    <rect x="864" y="740.25" width="8" height="18.75"/>
    <rect x="61.64" y="349" width="18.36" height="8"/>
    <rect x="61.64" y="490.2" width="18.36" height="8"/>
    <rect x="61.64" y="560.8" width="18.36" height="8"/>
    <rect x="61.64" y="631.4" width="18.36" height="8"/>
    <rect x="61.64" y="702" width="18.36" height="8"/>
    <rect x="903.64" y="349" width="18.36" height="8"/>
    <rect x="903.64" y="419.6" width="18.36" height="8"/>
    <rect x="903.64" y="490.2" width="18.36" height="8"/>
    <rect x="903.64" y="560.8" width="18.36" height="8"/>
    <rect x="903.64" y="631.4" width="18.36" height="8"/>
    <rect x="903.64" y="702" width="18.36" height="8"/>
    <rect x="61.64" y="419.6" width="18.36" height="8"/>
    <g>
      <path class="cls-13" d="M649,521c17.82,0,39.21-23.17,39.21-23.17S672.61,476,649,476s-39.21,21.83-39.21,21.83S631.18,521,649,521Z"/>
      <path d="M649,525c-19.35,0-41.23-23.46-42.15-24.46l-2.2-2.39,1.89-2.64c.68-1,17.08-23.51,42.46-23.51s41.78,22.55,42.46,23.51l1.89,2.64-2.2,2.39C690.23,501.54,668.35,525,649,525Zm-33.85-27.41C622.36,504.66,637.38,517,649,517s26.64-12.34,33.85-19.41C678.08,492.16,665.55,480,649,480S619.92,492.16,615.15,497.59Z"/>
    </g>
    <circle cx="649" cy="497" r="15"/>
    <path d="M235.34,515h-100l-1.17-1.15c-18.73-18.45-4.18-63.1,8.65-102.49,3-9.1,6.27-19.22,8.61-28H123.29l-.26-3.72a24.94,24.94,0,0,1,6.32-17.44c5.16-5.55,12.93-8.37,23.06-8.37a9.12,9.12,0,0,1,7.77,3.73c5.67,7.81.29,25.55-9.71,56.24-11.12,34.11-24.85,76.27-12.13,92.64,12.91-.4,15.41-14.54,15.51-15.15l.56-3.34H258v4c0,16.17-21.21,22.58-22.11,22.85Zm-80.54-8h79.33a38.77,38.77,0,0,0,8.23-3.95q5-3.27,6.76-7.06H160.94A29.72,29.72,0,0,1,154.8,507ZM131.37,375.4h22c1.33-6.37,1.68-11.21.3-13.1-.11-.16-.3-.43-1.29-.43-7.78,0-13.55,1.94-17.15,5.75A16,16,0,0,0,131.37,375.4Z"/>
    <path d="M217.63,493c-.07-.84-1.61-20.91,13.36-63.35,10.45-29.63,3.41-59,.84-67.76H152.41v-8h82.35l3.76,2.63c.55,1.53,13.42,37.8,0,75.79-14.28,40.5-12.94,59.81-12.93,60Z"/>
    <rect x="223.32" y="353.85" width="11.44" height="8"/>
    <path d="M1826.3,763H1030.7l-.11-3.89c-.5-18.6-14.82-33.17-32.59-33.17h-4V333.15h4c18,0,32.62-15.32,32.62-34.15v-4h795.76v4c0,18.83,14.64,34.15,32.62,34.15h4V725.94h-4c-17.77,0-32.09,14.57-32.59,33.17Zm-788-8h780.36c2.25-19.71,17.3-35,36.32-36.86V341c-19.26-2-34.61-17.94-36.43-37.95H1038.43c-1.82,20-17.17,36-36.43,37.95V718.14C1021,720,1036.07,735.29,1038.32,755Z"/>
    <polygon points="1638.14 688.1 1105.11 688.1 1105.11 551.89 1113.11 551.89 1113.11 680.1 1630.19 680.1 1632.02 418.51 1596.06 418.51 1596.06 410.51 1640.08 410.51 1638.14 688.1"/>
    <polygon points="1800 590.71 1635.69 590.71 1635.69 582.71 1792 582.71 1792 554 1635.14 554 1635.14 546 1800 546 1800 590.71"/>
    <polygon points="1718.78 625.52 1633.78 625.52 1633.78 617.52 1717.05 617.52 1792.35 583.36 1795.65 590.64 1718.78 625.52"/>
    <polygon points="1783 548.97 1775 548.97 1775 544.6 1636.05 544.6 1636.05 536.6 1783 536.6 1783 548.97"/>
    <path d="M1564.06,451a36,36,0,1,1,36-36A36,36,0,0,1,1564.06,451Zm0-64a28,28,0,1,0,28,28A28,28,0,0,0,1564.06,387Z"/>
    <path d="M1564.06,440a25,25,0,1,1,25-25A25,25,0,0,1,1564.06,440Zm0-42a17,17,0,1,0,17,17A17,17,0,0,0,1564.06,398Z"/>
    <path d="M1564.06,422.75a7.77,7.77,0,1,1,7.77-7.77A7.78,7.78,0,0,1,1564.06,422.75Zm0-8a.23.23,0,0,0-.23.23c0,.26.47.26.47,0A.23.23,0,0,0,1564.06,414.75Z"/>
    <rect x="1561.71" y="390.05" width="4.7" height="21.64" transform="translate(3128.13 801.74) rotate(-180)"/>
    <rect x="1573.94" y="410.75" width="4.7" height="21.64" transform="translate(423.06 1575.9) rotate(-60)"/>
    <rect x="1549.95" y="411.69" width="4.7" height="21.64" transform="translate(1142.06 -1133.08) rotate(60)"/>
    <path d="M1633.92,652.47H1466.13l2-5.38c0-.07,3.18-9.05-.48-14.86-1.89-3-5.5-4.78-10.75-5.32l-3.59-.36V594.47h-37.33l30.74-23.84V559.49l.08-.38a9.53,9.53,0,0,1,7-7.1V478.73h15c-.49-11.75-3.8-46.08-25.49-50.9l-2.29-.51-21-70.91h-23.59v82.1h-8v-90.1h37.57l21.38,72.22c30.1,9.18,29.54,60,29.5,62.17l-.07,3.93h-15V560l-4.31-.33c-1.73-.13-2.46.37-2.75.91v14l-15.37,11.92h22v33c6,1.28,10.4,4.12,13.13,8.5,3.42,5.45,3.26,12,2.53,16.46h157Z"/>
    <path d="M1554.51,617.31a12.63,12.63,0,0,1-4.52-.85c-7.7-2.92-9.08-10.35-7.11-16,1.44-4.13-.78-8.66-2.23-11-2.9-4.67-6.92-7.53-8.17-7.69-.79,0-1.65.63-3.22,1.82-2.65,2-6.29,4.77-12.71,4.77-11.12,0-18.59-8.79-18.59-21.87a21.48,21.48,0,0,1,6.46-15.65,20.46,20.46,0,0,1,14-5.76,14.1,14.1,0,0,1,10.1,3.81c1.47,1.22,2.22,1.83,4.48,1.83,1.13,0,2-.8,2.48-2.38.84-2.59.13-5.5-1.07-6.38-6.26-4.55-11.12-14-7-24a18.21,18.21,0,0,1,10.33-10.13c4.3-1.6,9.13-1.57,14.42.1.32-16.77.6-38.38.49-50.72a12.25,12.25,0,0,1-3.19.4H1469v-8h80.45a2.6,2.6,0,0,0,1.92-.56,3.84,3.84,0,0,0,.68-2.23l-.29-4.27h6l1.22,1.23c1.53,1.56,2,2,1.62,37-.18,16.47-.52,33-.52,33.16l-.14,6.32-5.65-2.83c-5.4-2.7-10.14-3.42-13.71-2.08a10.23,10.23,0,0,0-5.74,5.67,12.1,12.1,0,0,0,4.3,14.53c4.75,3.46,5.59,10.33,4,15.33s-5.45,7.9-10.09,7.9a13.53,13.53,0,0,1-9.59-3.67c-1.53-1.27-2.37-2-5-2-6.13,0-12.47,5-12.47,13.41,0,8.69,4,13.87,10.59,13.87,3.73,0,5.65-1.45,7.88-3.14s4.53-3.44,8.11-3.44c4.72,0,10.33,4.91,13.79,9.78,4.65,6.54,6.15,13.66,4.11,19.53-1.39,4,1.21,5.45,2.39,5.9.13,0,3.25,1.2,4.24-1.21,4.18-10.15,21.12-9.69,23.56-9.57h53.54v8h-53.86c-5.5-.29-14.34,1-15.84,4.62A10.53,10.53,0,0,1,1554.51,617.31Z"/>
    <rect x="1459.62" y="513.63" width="71.49" height="8"/>
    <rect x="1459.62" y="520.68" width="71.49" height="8"/>
    <g>
      <circle class="cls-16" cx="1545.72" cy="526.02" r="6.28"/>
      <path d="M1545.72,536.3A10.29,10.29,0,1,1,1556,526,10.29,10.29,0,0,1,1545.72,536.3Zm0-12.57A2.29,2.29,0,1,0,1548,526,2.3,2.3,0,0,0,1545.72,523.73Z"/>
    </g>
    <g>
      <circle class="cls-16" cx="1517.96" cy="567.42" r="7.04"/>
      <path d="M1518,578.46a11,11,0,1,1,11-11A11,11,0,0,1,1518,578.46Zm0-14.08a3,3,0,1,0,3,3A3,3,0,0,0,1518,564.38Z"/>
    </g>
    <g>
      <path class="cls-16" d="M1494.9,655.87h113.86a0,0,0,0,1,0,0v0a28.23,28.23,0,0,1-28.23,28.23h-57.4a28.23,28.23,0,0,1-28.23-28.23v0A0,0,0,0,1,1494.9,655.87Z" transform="translate(3103.66 1339.96) rotate(-180)"/>
      <path d="M1612.76,688.1H1490.9v-4a32.27,32.27,0,0,1,32.23-32.23h57.4a32.27,32.27,0,0,1,32.23,32.23Zm-113.53-8h105.2a24.26,24.26,0,0,0-23.9-20.23h-57.4A24.28,24.28,0,0,0,1499.23,680.1Z"/>
    </g>
    <g>
      <rect class="cls-16" x="1381.99" y="597.53" width="31.05" height="31.05" transform="translate(2795.03 1226.11) rotate(-180)"/>
      <path d="M1417,632.58h-39V593.53h39Zm-31-8h23V601.53h-23Z"/>
    </g>
    <g>
      <rect class="cls-16" x="1338.24" y="597.53" width="31.05" height="31.05" transform="translate(2707.52 1226.11) rotate(-180)"/>
      <path d="M1373.29,632.58h-39V593.53h39Zm-31-8h23V601.53h-23Z"/>
    </g>
    <g>
      <rect class="cls-16" x="1294.48" y="597.53" width="31.05" height="31.05" transform="translate(2620.01 1226.11) rotate(-180)"/>
      <path d="M1329.53,632.58h-39V593.53h39Zm-31-8h23V601.53h-23Z"/>
    </g>
    <path d="M1298.25,555.42H1097.52l-.29,0c-4.43-.67-12.82-4.32-12.82-13.37v-8.23h-28.23V506.45a10.6,10.6,0,0,1,2.36-7.62c1.35-1.55,3.91-3.4,8.47-3.4,9.4,0,9.4-2.05,9.4-4.23v-.91c0-5.83,0-13.81,4.66-18.51a11.84,11.84,0,0,1,8.75-3.4h14.35V454.21c.42-5.68,4.45-16.41,16.7-16.41h100.21v8H1120.88c-7.54,0-8.58,7.49-8.71,8.87v21.71h-22.35a4,4,0,0,0-3.09,1c-2.35,2.36-2.33,8.67-2.32,12.85v.93c0,12.23-12.64,12.23-17.4,12.23a3.47,3.47,0,0,0-2.43.64,2.58,2.58,0,0,0-.42,1.71l0,.27v19.73h28.23V542c0,4,4.52,5.16,5.77,5.41h200.07c11.16,0,16.81-4.79,16.81-14.23,0-15.55,13.48-20.41,20.6-20.81h84.2c7.74,0,8.44-6.5,8.47-8.5V460.15c0-16.79-12.84-19.23-15.06-19.53H1300.13v-8h113.58l.2,0c7.76.77,22.42,7.52,22.42,27.5V503.9c0,6.62-4.38,16.47-16.47,16.47H1336c-1.68.13-13,1.41-13,12.82C1323.06,547.11,1313.79,555.42,1298.25,555.42Z"/>
    <path d="M1135.8,550.71h-8v-39h-51c-1.36.1-5.54.82-5.54,5.41v13.38h-8V517.08c0-9.35,7.9-13.14,13.21-13.41h59.35Z"/>
    <g>
      <circle class="cls-16" cx="1409.75" cy="370.76" r="11.29"/>
      <path d="M1409.75,386.05A15.29,15.29,0,1,1,1425,370.76,15.31,15.31,0,0,1,1409.75,386.05Zm0-22.58a7.29,7.29,0,1,0,7.29,7.29A7.3,7.3,0,0,0,1409.75,363.47Z"/>
    </g>
    <path d="M1180.63,541a23.46,23.46,0,1,1,23.45-23.45A23.48,23.48,0,0,1,1180.63,541Zm0-38.91a15.46,15.46,0,1,0,15.45,15.46A15.48,15.48,0,0,0,1180.63,502.09Z"/>
    <g>
      <circle class="cls-16" cx="1180.63" cy="517.55" r="9.45"/>
      <path d="M1180.63,531a13.46,13.46,0,1,1,13.45-13.45A13.48,13.48,0,0,1,1180.63,531Zm0-18.91a5.46,5.46,0,1,0,5.45,5.46A5.47,5.47,0,0,0,1180.63,512.09Z"/>
    </g>
    <circle cx="1327.89" cy="538.25" r="3.76"/>
    <g>
      <circle class="cls-16" cx="1109.58" cy="528.84" r="11.29"/>
      <path d="M1109.58,544.13a15.29,15.29,0,1,1,15.3-15.29A15.31,15.31,0,0,1,1109.58,544.13Zm0-22.58a7.29,7.29,0,1,0,7.3,7.29A7.3,7.3,0,0,0,1109.58,521.55Z"/>
    </g>
    <path d="M1081.36,526a7.51,7.51,0,1,1,7.51-7.51A7.52,7.52,0,0,1,1081.36,526Zm0-8a.49.49,0,1,0,.48.49A.49.49,0,0,0,1081.36,518Z"/>
    <path d="M1211.91,482a8.47,8.47,0,1,1,8.47-8.47A8.48,8.48,0,0,1,1211.91,482Zm0-8.94a.47.47,0,1,0,.47.47A.47.47,0,0,0,1211.91,473.09Z"/>
    <path d="M1191.68,482a8.47,8.47,0,1,1,8.47-8.47A8.48,8.48,0,0,1,1191.68,482Zm0-8.94a.47.47,0,1,0,.47.47A.47.47,0,0,0,1191.68,473.09Z"/>
    <rect x="1195.3" y="466.35" width="13.41" height="8"/>
    <rect x="1195.3" y="472.94" width="13.41" height="8"/>
    <path d="M1246,555.42c-8,0-14.38-2.44-18.89-7.24-7-7.47-6.81-18-6.75-19.44V455.82l1.57-1.2c1-.78,25.39-19.17,52.77-19.17,27.68,0,46.88,18.71,47.68,19.5l1.19,1.18v73.78h-8V459.57c-4.34-3.77-20.16-16.12-40.87-16.12-20.94,0-40.73,12.53-46.34,16.4v69.24c0,.07-.39,8.35,4.63,13.65,2.94,3.11,7.32,4.68,13,4.68Z"/>
    <path d="M1226,446h-8c0-23.91,17.11-50.54,41.67-50.54,24,0,44.33,20.85,44.33,45.54h-8c0-20.35-16.64-37.54-36.33-37.54-9,0-17.44,4.75-23.92,13.39A50.33,50.33,0,0,0,1226,446Z"/>
    <polygon points="1390.96 414.37 1264.33 350.73 1272.3 337.77 1393.01 398.67 1389.88 404.87 1394.56 407.22 1390.96 414.37"/>
    <rect x="1356.37" y="416.5" width="33.93" height="8" transform="translate(506.56 1565.74) rotate(-69.9)"/>
    <rect x="1345.24" y="414.18" width="38.78" height="8" transform="translate(510.82 1561.91) rotate(-70.3)"/>
    <rect x="1246.86" y="552.06" width="8" height="132.12"/>
    <path d="M1342.62,554.06a10.44,10.44,0,0,1-4-.8L1316.26,545l2.75-7.51,22,8.08-20.88-17.47,5.14-6.13L1349,541.83l.37.75c1,2,1.88,6.22-1.22,9.32A7.59,7.59,0,0,1,1342.62,554.06Z"/>
    <path d="M1266.54,399h-8c0-19.37,7.23-30.48,13.3-36.39a33.9,33.9,0,0,1,13.89-8.43l2,7.75C1286.86,362.17,1266.54,368,1266.54,399Z"/>
    <path d="M1272.13,401.34h-8c0-19.46,7.64-30.33,14-36a34.46,34.46,0,0,1,14.56-7.88l1.6,7.84-.8-3.92.82,3.91C1293.46,365.46,1272.13,370.44,1272.13,401.34Z"/>
    <rect x="1801" y="299.25" width="8" height="18.75"/>
    <rect x="1717.44" y="299.25" width="8" height="18.75"/>
    <rect x="1633.76" y="299.25" width="8" height="18.75"/>
    <rect x="1550.08" y="299.25" width="8" height="18.75"/>
    <rect x="1466.4" y="299.25" width="8" height="18.75"/>
    <rect x="1382.72" y="299.25" width="8" height="18.75"/>
    <rect x="1299.04" y="299.25" width="8" height="18.75"/>
    <rect x="1215.36" y="299.25" width="8" height="18.75"/>
    <rect x="1131.68" y="299.25" width="8" height="18.75"/>
    <rect x="1048" y="299.25" width="8" height="18.75"/>
    <rect x="1801" y="740.25" width="8" height="18.75"/>
    <rect x="1717.44" y="740.25" width="8" height="18.75"/>
    <rect x="1633.76" y="740.25" width="8" height="18.75"/>
    <rect x="1550.08" y="740.25" width="8" height="18.75"/>
    <rect x="1466.4" y="740.25" width="8" height="18.75"/>
    <rect x="1382.72" y="740.25" width="8" height="18.75"/>
    <rect x="1299.04" y="740.25" width="8" height="18.75"/>
    <rect x="1215.36" y="740.25" width="8" height="18.75"/>
    <rect x="1131.68" y="740.25" width="8" height="18.75"/>
    <rect x="1048" y="740.25" width="8" height="18.75"/>
    <rect x="1840" y="349" width="18.36" height="8"/>
    <rect x="1840" y="490.2" width="18.36" height="8"/>
    <rect x="1840" y="560.8" width="18.36" height="8"/>
    <rect x="1840" y="631.4" width="18.36" height="8"/>
    <rect x="1840" y="702" width="18.36" height="8"/>
    <rect x="998" y="349" width="18.36" height="8"/>
    <rect x="998" y="419.6" width="18.36" height="8"/>
    <rect x="998" y="490.2" width="18.36" height="8"/>
    <rect x="998" y="560.8" width="18.36" height="8"/>
    <rect x="998" y="631.4" width="18.36" height="8"/>
    <rect x="998" y="702" width="18.36" height="8"/>
    <rect x="1840" y="419.6" width="18.36" height="8"/>
    <g>
      <path class="cls-13" d="M1271,521c-17.82,0-39.21-23.17-39.21-23.17S1247.39,476,1271,476s39.21,21.83,39.21,21.83S1288.82,521,1271,521Z"/>
      <path d="M1271,525c-19.35,0-41.23-23.46-42.15-24.46l-2.2-2.39,1.89-2.64c.68-1,17.08-23.51,42.46-23.51s41.78,22.55,42.46,23.51l1.89,2.64-2.2,2.39C1312.23,501.54,1290.35,525,1271,525Zm-33.85-27.41c7.21,7.07,22.23,19.41,33.85,19.41s26.64-12.34,33.85-19.41c-4.77-5.43-17.3-17.59-33.85-17.59S1241.92,492.16,1237.15,497.59Z"/>
    </g>
    <circle cx="1271" cy="497" r="15"/>
    <path d="M1784.62,515h-99.95l-.56-.16c-.9-.27-22.11-6.68-22.11-22.85v-4h103.59l.56,3.34c.1.6,2.71,14.75,15.51,15.15,12.72-16.37-1-58.53-12.13-92.64-10-30.69-15.38-48.43-9.71-56.24a9.12,9.12,0,0,1,7.77-3.73c10.13,0,17.9,2.82,23.07,8.37a25,25,0,0,1,6.31,17.44l-.26,3.72h-28.18c2.34,8.74,5.64,18.86,8.61,28,12.83,39.39,27.38,84,8.65,102.49Zm-98.75-8h79.33a29.72,29.72,0,0,1-6.14-11h-88.18q1.72,3.78,6.76,7.06A38.54,38.54,0,0,0,1685.87,507Zm80.73-131.6h22a15.93,15.93,0,0,0-3.89-7.78c-3.6-3.81-9.37-5.75-17.15-5.75-1,0-1.18.27-1.29.43C1764.92,364.19,1765.28,369,1766.6,375.4Z"/>
    <path d="M1702.37,493l-8-.7c0-.18,1.35-19.49-12.93-60-13.41-38-.54-74.26,0-75.79l3.76-2.63h82.35v8h-79.42c-2.57,8.78-9.61,38.13.84,67.76C1704,472.07,1702.44,492.14,1702.37,493Z"/>
    <rect x="1685.24" y="353.85" width="11.44" height="8"/>
    <g>
      <line class="cls-12" x1="227.09" y1="357.59" x2="238" y2="358"/>
      <rect x="228.55" y="352.34" width="8" height="10.91" transform="matrix(0.04, -1, 1, 0.04, -133.73, 576.75)"/>
    </g>
  </g>
  <g id="Layer_2" data-name="Layer 2">
    <polygon class="cls-18" points="846 659 859 657 865 679 881 646 894 604 900 552 921 577 953 600 973 608 1000 616 1013 617 1035 662 1053 669 1067 655 1076 663 1071 692 1054 724 1041.01 787 1040.01 822 982 901 960 916 914 874 882 821 883 791 865 719 852 696 846 659"/>
    <path class="cls-16" d="M663,1080l3-75,20-84,31-51,93-37,73-42v41l72.83,82.52,17.84-6.61,65.43-80-1.1-31,97,49,63,20s69,57,59,214Z"/>
    <polygon class="cls-13" points="881.62 827.61 939 903 958 919 912 957 889 925 881.62 827.61"/>
    <polygon class="cls-13" points="1038.01 827.61 980.62 903 961.62 919 1007.62 957 1030.62 925 1038.01 827.61"/>
    <polygon class="cls-13" points="890.06 928.44 910 961 931.81 941.32 948 979 918 1076 890.06 928.44"/>
    <polygon class="cls-13" points="1030.01 928.44 1010.06 961 988.25 941.32 972.06 979 1002.06 1076 1030.01 928.44"/>
    <polygon class="cls-19" points="900 547 927.63 584.95 991.31 614.22 1018 616 1022 645 1057 673 1065 580 1041 522 990 500 929 504 891 524 876 533 862 579 860 651 862.92 675.85 886.03 634.76 900 575 900 547"/>
    <polygon class="cls-7" points="927.73 942.88 953.73 975.58 917.39 1067.27 921 1080 999 1080 1001.07 1070.27 973.06 974.25 986.07 940.58 959.61 917.51 927.73 942.88"/>
  </g>
  <g id="Layer_1" data-name="Layer 1">
    <path d="M960,859c-18.88,0-36.31-7.7-51.8-22.89-12.24-12-23-28.33-31.85-48.5-6.39-14.48-11.76-42.56-16-83.45-3.1-30.26-4.38-56.71-4.39-57-.21-3.77-5-93.35,20.39-120.18,4.7-5,10.19-7.65,16.32-8,5.9-3.9,35.57-22,77.28-22,34.4,0,59.15,9.42,75.65,28.81,21.16,24.85,27.33,65.76,18.34,121.61-.33,6.81-5.4,106.37-20.32,140.19C1031.9,814.27,1005.39,859,960,859Zm10-354c-43.09,0-73.39,21-73.69,21.26l-1,.74H894c-4.43,0-8.28,1.8-11.78,5.51-9.35,9.89-15.49,32.63-17.74,65.77a443,443,0,0,0-.48,48.49c0,1.08,5.14,104.68,19.66,137.62C894.64,809.26,919.15,851,960,851s65.37-41.74,76.34-66.61c14.53-32.94,19.62-136.54,19.67-137.58l0-.45c8.65-53.53,3.1-92.35-16.5-115.37C1024.67,513.5,1001.92,505,970,505Z"/>
    <path d="M865.68,723.68c-1.87-1.33-18.22-13.35-16.64-24.8.31-2.29-.19-3-1.7-5.19-2.52-3.65-6.34-9.15-6.34-24.26,0-9.49,2.31-15.19,7.06-17.42,6.5-3,13.7,2.68,14.5,3.34l-5.1,6.16c-1.62-1.32-4.68-2.88-6-2.26-.25.12-2.45,1.42-2.45,10.18,0,12.6,2.73,16.54,4.92,19.7,1.77,2.56,3.78,5.46,3,10.84-.66,4.8,7.42,12.95,13.36,17.2Z"/>
    <path d="M974.71,760.69a12.41,12.41,0,0,1-6.92-2.36,3.65,3.65,0,0,0-2.47-.85,2,2,0,0,0-.89.58l-.81,1.35-1.52.44c-1.61.46-9.66,2.46-13.22-2.34a8.45,8.45,0,0,0-5.06,1.33c-2.12,2.12-5.86,2.42-9.08.73-1.81-1-7.57-4.85-5.68-15.29,1.32-7.21,4.46-12.66,7.23-17.47a38.31,38.31,0,0,0,3.86-7.91c1.22-4.25,2.75-31.32-6-43.51-2.5-3.47-5.53-5.23-9.28-5.39a143.91,143.91,0,0,0-39.76,3.85l-2.14-7.7A148.53,148.53,0,0,1,925.18,662c6.17.27,11.51,3.28,15.42,8.71,10.69,14.84,8.94,44.46,7.25,50.39a44.62,44.62,0,0,1-4.63,9.7c-2.57,4.46-5.22,9.07-6.28,14.92-.7,3.81.21,5.53.82,6.21a2.16,2.16,0,0,0,1,.69,16.29,16.29,0,0,1,10.66-3.09,7.66,7.66,0,0,1,5.72,3,9.46,9.46,0,0,0,3.62-.12,9.64,9.64,0,0,1,4.78-2.74c1.94-.43,5-.44,8.66,2,1.43,1,2.47,1.16,2.87.94.66-.35,1.91-2.4,1.91-7.61,0-7.48-3.78-9-4.21-9.19l.11,0,2.2-7.7c.4.12,9.9,3,9.9,16.85,0,9.41-3.33,13.17-6.13,14.67A8.84,8.84,0,0,1,974.71,760.69Z"/>
    <rect x="961" y="691.96" width="8" height="25.08" transform="translate(-53.11 79.2) rotate(-4.57)"/>
    <path d="M1028.22,675.58c-.24-.12-24.94-12-54.81-.83l-2.81-7.5c33.25-12.46,60.07.61,61.19,1.17Z"/>
    <path d="M1006.3,964l-49-45,1-6.58c26.69-12.39,74.83-85.59,76.89-90.63l-.09.29,7.77,1.94c-1.31,5.22-46.84,73.86-76.12,92.81L1008,954.63l21.53-38.58,7,3.9-24,43Z"/>
    <polygon points="973.42 980 960 980 960 972 968.59 972 984.64 941.41 991.72 945.13 973.42 980"/>
    <rect x="982.5" y="973.63" width="8" height="103.74" transform="translate(-261.37 341.65) rotate(-17.39)"/>
    <path d="M1060.76,966.59l-3.51-7.18,45-22,8.54-101.48c-15.92-5.76-64.3-32.62-74.7-38.43l3.91-7C1073,809,1110.32,828.45,1115.45,829l3.54,4.31-9,107-2.23,3.26Z"/>
    <path d="M913.71,964l-6.2-1-24-43,7-3.9L912,954.63l41.21-37.85C924,897.83,878.43,829.19,877.12,824l7.77-1.94-.09-.29c2.06,5,50.2,78.24,76.89,90.63l1,6.58Z"/>
    <polygon points="960 980 946.59 980 928.29 945.13 935.37 941.41 951.42 972 960 972 960 980"/>
    <rect x="881.63" y="1021.5" width="103.74" height="8" transform="translate(-324.09 1609.92) rotate(-72.61)"/>
    <path d="M859.25,966.59l-47-23L810,940.33l-9-107,3.54-4.31c5.13-.57,42.41-20,75.49-38.51l3.91,7c-10.4,5.81-58.78,32.67-74.7,38.43L817.8,937.4l45,22Z"/>
    <g>
      <path class="cls-13" d="M931,677s-12-10-23-10-19,13-19,13,7.33,11.31,17.67,11.65S925,681,928,682,931,677,931,677Z"/>
      <path d="M907.15,695.66h-.62c-12.28-.41-20.54-12.94-20.88-13.48l-1.38-2.12,1.33-2.15c.37-.61,9.32-14.9,22.4-14.9,12.31,0,25,10.48,25.57,10.93l1.43,1.2V677c0,1.75-.3,6-3.14,8.08a5.58,5.58,0,0,1-4.11,1c-.72.41-2,1.35-3,2.07C920.7,691.13,914.59,695.66,907.15,695.66ZM894,679.92c2.38,2.83,7.17,7.54,12.84,7.74,4.91.15,9.53-3.24,13.23-6,2.14-1.59,4-3,5.87-3.51-3.81-2.66-11.24-7.17-17.9-7.17C902.22,671,896.82,676.27,894,679.92Z"/>
    </g>
    <g>
      <path class="cls-13" d="M981,677s12-10,23-10,19,13,19,13-7.32,11.31-17.66,11.65S987,681,984,682,981,677,981,677Z"/>
      <path d="M1004.86,695.66c-7.44,0-13.55-4.53-17.64-7.55-1-.72-2.24-1.66-3-2.07a5.54,5.54,0,0,1-4.11-1C977.31,683,977,678.75,977,677v-1.87l1.44-1.2C979,673.48,991.7,663,1004,663c13.09,0,22,14.29,22.41,14.9l1.33,2.16-1.38,2.12c-.34.53-8.6,13.06-20.89,13.47Zm-18.75-17.49c1.87.55,3.73,1.92,5.87,3.51,3.7,2.74,8.26,6.13,13.23,6,5.67-.19,10.46-4.91,12.84-7.75-2.85-3.63-8.25-8.91-14-8.91C997.35,671,989.92,675.51,986.11,678.17Z"/>
    </g>
    <circle cx="1004" cy="676" r="6"/>
    <circle cx="908" cy="676" r="6"/>
    <path d="M1055.28,723.68l-4.65-6.51c5.95-4.25,14-12.4,13.36-17.2-.74-5.38,1.27-8.28,3-10.84,2.19-3.16,4.92-7.1,4.92-19.7,0-8.76-2.21-10.06-2.46-10.18-1.31-.62-4.38.94-6,2.26l-5.1-6.16c.8-.67,8-6.39,14.5-3.34,4.75,2.23,7.06,7.93,7.06,17.42,0,15.11-3.82,20.61-6.35,24.26-1.5,2.17-2,2.9-1.69,5.19C1073.5,710.33,1057.15,722.35,1055.28,723.68Z"/>
    <path d="M865.25,682.33l-6.5-4.66A191.6,191.6,0,0,0,895,572.44,184,184,0,0,0,893,538a64.92,64.92,0,0,1-3-14.84l7.83-1.35a116.84,116.84,0,0,1,3,14.19,90.58,90.58,0,0,0,19.35,33.08c27.67,30.5,77,46.62,142.63,46.62v8c-37.94,0-70.6-5.18-97.08-15.38-21.4-8.26-38.86-19.8-51.87-34.32A101.94,101.94,0,0,1,903,559.62c.12,4,.12,8.28,0,12.77A199.61,199.61,0,0,1,865.25,682.33Z"/>
    <path d="M1063.61,610.73c-35.23,0-65.56-4.81-90.15-14.29-19.9-7.67-36.13-18.41-48.24-31.91-20.83-23.22-22.17-46.36-22.22-47.34l8-.38-4,.19,4-.2c0,.21,1.38,21.67,20.56,42.81,25.61,28.21,71.28,43.12,132.06,43.12Z"/>
    <path d="M1061.91,596.73c-31.75,0-59.09-4.34-81.26-12.88-18-6.93-32.62-16.62-43.55-28.82-18.84-21-20.05-42-20.1-42.84l8-.39c0,.19,1.25,19.4,18.43,38.3,23,25.27,63.94,38.63,118.49,38.63Z"/>
    <path d="M1060.82,582.23c-35.28,0-83.09-6.41-110.47-37-16.73-18.65-17.81-37.3-17.85-38.09l8-.4c0,.17,1.11,17,16.19,33.56,20.18,22.16,56.19,33.88,104.14,33.88Z"/>
    <path d="M1058.74,567.73c-44.63,0-77-10.83-96.13-32.2C948,519.23,947,502.88,947,502.19l8-.4c0,.15,1,14.6,13.94,28.81,17.4,19.06,48.45,29.13,89.81,29.13Z"/>
    <path d="M1057,553.23c-37.68,0-65-9.17-81.23-27.26-12.43-13.86-13.24-27.81-13.27-28.4l8-.38-4,.19,4-.21c0,.12.82,12.1,11.61,23.87,14.49,15.82,40.39,24.19,74.9,24.19Z"/>
    <path d="M1048.36,538.73c-26.33,0-45.48-6.46-56.9-19.2-8.85-9.87-9.43-19.91-9.46-20.34l8-.41c.09,1.3,2.64,32,58.37,32Z"/>
    <path d="M1038,527c-37.86,0-38.5-24.72-38.5-25l8-.11c0,.7.88,17.08,30.5,17.08Z"/>
    <path d="M864.51,659.91l-7-3.82c28.68-52.68,20.62-124.9,20.54-125.62l7.94-.94C886.33,532.59,894.44,605,864.51,659.91Z"/>
    <path d="M862.86,631.52l-7.4-3c14.29-34.67,9.61-80.6,9.56-81.06l8-.84C873.19,548.54,877.91,595,862.86,631.52Z"/>
    <path d="M1056.89,674.26C1016.05,664.78,1012,620.44,1012,620h4l4-.2c0,.39,4.38,38.7,38.71,46.67Z"/>
    <path d="M1056.7,659.9c-28.49-6.61-31.32-37.59-31.32-37.9h4l4-.24c0,.25,2.7,25.14,25.12,30.34Z"/>
    <path d="M1058.1,647.25c-17.45-4-21.12-22.2-21.12-25.6h4l4-.28c0,.15,1.56,15,14.93,18.09Z"/>
    <path d="M1060.1,634.33c-10-2.31-12.12-12.39-12.12-14.76h8a2.33,2.33,0,0,0,0-.35c0,.25.74,6.11,5.93,7.32Z"/>
    <path d="M923.37,809.68c-.28-.6-6.7-14.85,0-29.36l7.26,3.36c-5.12,11.09,0,22.54,0,22.66Z"/>
    <path d="M938.07,808.73a84.14,84.14,0,0,1,0-27.46l7.86,1.46c-2.23,12.07,0,24.42,0,24.54Z"/>
    <path d="M997,809.68l-7.26-3.36c5.12-11.09,0-22.54,0-22.66l7.26-3.34C997.24,780.92,1003.66,795.17,997,809.68Z"/>
    <path d="M982.27,808.73l-7.87-1.46c2.24-12.07,0-24.42,0-24.54l7.87-1.46A84.77,84.77,0,0,1,982.27,808.73Z"/>
    <rect x="956" y="784" width="8" height="21"/>
    <rect x="917" y="790" width="86" height="8"/>
    <g>
      <path class="cls-15" d="M963.37,950H953a34.63,34.63,0,0,0-34.52,37.48l4.59,55.73A34.64,34.64,0,0,0,957.62,1075h0a34.64,34.64,0,0,0,34.46-31.08l5.74-55.73A34.63,34.63,0,0,0,963.37,950Z"/>
      <path d="M957.62,1079a38.86,38.86,0,0,1-38.5-35.46l-4.6-55.73A38.64,38.64,0,0,1,953,946h10.34a38.64,38.64,0,0,1,38.43,42.6l-5.75,55.73A38.53,38.53,0,0,1,957.62,1079ZM953,954a30.64,30.64,0,0,0-30.54,33.15l4.6,55.73a30.64,30.64,0,0,0,61,.63l5.74-55.73A30.63,30.63,0,0,0,963.37,954Z"/>
    </g>
    <rect x="946" y="1074" width="23" height="6"/>
    <g>
      <path class="cls-15" d="M919.57,980.55S934.16,993,950,993"/>
      <path d="M950,997c-17.11,0-32.38-12.86-33-13.41l5.19-6.09c.13.12,13.7,11.5,27.83,11.5Z"/>
    </g>
    <g>
      <path class="cls-15" d="M919.57,999.55S934.16,1012,950,1012"/>
      <path d="M950,1016c-17.11,0-32.38-12.86-33-13.41l5.19-6.09c.13.12,13.7,11.5,27.83,11.5Z"/>
    </g>
    <g>
      <path class="cls-15" d="M921,1020s13.16,11,29,11"/>
      <path d="M950,1035c-17.09,0-31-11.44-31.56-11.93l5.12-6.14c.12.1,12.31,10.07,26.44,10.07Z"/>
    </g>
    <g>
      <path class="cls-15" d="M922,1037s12.16,11,28,11"/>
      <path d="M950,1052c-17.18,0-30.14-11.54-30.68-12l5.36-5.94c.11.1,11.29,10,25.32,10Z"/>
    </g>
    <g>
      <path class="cls-15" d="M926,1055s8.16,9,24,9"/>
      <path d="M950,1068c-17.41,0-26.58-9.89-27-10.31l5.9-5.4c.3.32,7.35,7.71,21.06,7.71Z"/>
    </g>
    <g>
      <path class="cls-15" d="M996,980.55S981.41,993,965.57,993"/>
      <path d="M965.58,997v-8c14.12,0,27.69-11.38,27.83-11.5l5.19,6.09C998,984.14,982.69,997,965.58,997Z"/>
    </g>
    <g>
      <path class="cls-15" d="M996,999.55S981.41,1012,965.57,1012"/>
      <path d="M965.58,1016v-8c14.12,0,27.69-11.38,27.83-11.5l5.19,6.09C998,1003.14,982.69,1016,965.58,1016Z"/>
    </g>
    <g>
      <path class="cls-15" d="M994.57,1020s-13.16,11-29,11"/>
      <path d="M965.58,1035v-8c14.13,0,26.31-10,26.44-10.07l5.12,6.14C996.56,1023.56,982.67,1035,965.58,1035Z"/>
    </g>
    <g>
      <path class="cls-15" d="M993.57,1037s-12.16,11-28,11"/>
      <path d="M965.58,1052v-8c14,0,25.21-9.87,25.32-10l5.36,5.94C995.71,1040.46,982.75,1052,965.58,1052Z"/>
    </g>
    <g>
      <path class="cls-15" d="M989.57,1055s-8.16,9-24,9"/>
      <path d="M965.58,1068v-8c13.71,0,20.76-7.39,21-7.71l5.91,5.4C992.16,1058.11,983,1068,965.58,1068Z"/>
    </g>
    <path d="M1253,1080h8c1-48.2-3.06-116.1-27.4-170.14-15-33.28-30.55-45.52-31.2-46l-1.11-.6-85-30-2.67,7.54L1198,870.53c2.58,2.23,15.9,14.66,28.69,43.36C1250.16,966.54,1254,1032.91,1253,1080Z"/>
    <path d="M1042.21,790.91l-8,.88c.11,1.05,10.76,105.6-38.24,288.21h8.29c25.08-94,34.14-166.54,37.3-211.29C1045.15,818.51,1042.33,792,1042.21,790.91Z"/>
    <path d="M924,1080c-49-182.61-38.35-287.16-38.24-288.21l-8-.88c-.12,1.1-2.94,27.6.6,77.8C881.56,913.46,890.62,986,915.7,1080Z"/>
    <polygon points="1046.59 1080 1056.3 1080 1096.66 1021.28 1037.55 908.15 1030.46 911.85 1087.35 1020.72 1046.59 1080"/>
    <polygon points="873.42 1080 832.66 1020.72 889.55 911.85 882.46 908.15 823.35 1021.28 863.71 1080 873.42 1080"/>
    <path d="M803.67,833.23l-85,30-1.11.6c-.65.51-16.21,12.75-31.2,46C662,963.9,658,1031.8,659,1080h8c-1-47.09,2.88-113.46,26.35-166.11,12.8-28.73,26.14-41.15,28.69-43.36l84.33-29.76Z"/>
  </g>
</svg>
