<svg xmlns="http://www.w3.org/2000/svg" xmlns:xlink="http://www.w3.org/1999/xlink" viewBox="0 0 1920 1080">
  <defs>
    <style>
      .cls-1, .cls-3 {
        fill: none;
      }

      .cls-2 {
        fill: #bd2121;
      }

      .cls-3 {
        stroke: #000;
        stroke-miterlimit: 10;
        stroke-width: 8px;
      }

      .cls-4 {
        fill: #ff4848;
      }

      .cls-5 {
        fill: url(#New_Pattern_Swatch_2);
      }

      .cls-6 {
        fill: #ffcb00;
      }

      .cls-7 {
        fill: #ffe300;
      }

      .cls-8 {
        fill: #2b293a;
      }

      .cls-9 {
        fill: #29a6dd;
      }

      .cls-10 {
        fill: #787fff;
      }

      .cls-11 {
        fill: #5061ff;
      }

      .cls-12 {
        fill: #ffeda8;
      }

      .cls-13 {
        fill: #c59b6d;
      }

      .cls-14 {
        fill: #603813;
      }

      .cls-15 {
        fill: #42210b;
      }

      .cls-16 {
        fill: #754c24;
      }

      .cls-17 {
        fill: #615f85;
      }

      .cls-18 {
        fill: #ffbe7b;
      }

      .cls-19 {
        fill: #fff57d;
      }

      .cls-20 {
        fill: #ffcd00;
      }
    </style>
    <pattern id="New_Pattern_Swatch_2" data-name="New Pattern Swatch 2" width="116" height="200" patternTransform="translate(-10 14)" patternUnits="userSpaceOnUse" viewBox="0 0 116 200">
      <rect class="cls-1" width="116" height="200"/>
      <g>
        <polygon class="cls-2" points="59 33.5 117 33.5 112.79 -20.43 82.25 -28.39 59.99 -11.07 59 33.5"/>
        <line class="cls-3" x1="116" y1="-0.5" x2="116" y2="33.5"/>
      </g>
      <g>
        <polygon class="cls-4" points="1.34 33.5 57.18 33.5 57.18 -16.18 24.97 -30.39 2.06 -11.02 1.34 33.5"/>
        <polygon class="cls-2" points="-57 33.5 1 33.5 -3.21 -20.43 -33.75 -28.39 -56.01 -11.07 -57 33.5"/>
        <line class="cls-3" y1="-0.5" y2="33.5"/>
        <line class="cls-3" x1="58" y1="-0.5" x2="58" y2="33.5"/>
      </g>
      <g>
        <polygon class="cls-4" points="88.34 83.5 144.18 83.5 144.18 33.82 111.97 19.61 89.06 38.98 88.34 83.5"/>
        <polygon class="cls-2" points="30 83.5 88 83.5 83.79 29.57 53.25 21.61 30.99 38.93 30 83.5"/>
        <path class="cls-3" d="M29,49.5a29,29,0,0,1,58,0"/>
        <line class="cls-3" x1="87" y1="49.5" x2="87" y2="83.5"/>
        <path class="cls-3" d="M87,49.5a29,29,0,0,1,58,0"/>
      </g>
      <g>
        <polygon class="cls-4" points="-27.66 83.5 28.18 83.5 28.18 33.82 -4.03 19.61 -26.94 38.98 -27.66 83.5"/>
        <line class="cls-3" x1="29" y1="49.5" x2="29" y2="83.5"/>
        <path class="cls-3" d="M-29,49.5a29,29,0,0,1,29-29,29,29,0,0,1,29,29"/>
      </g>
      <path class="cls-3" d="M116,99.5a29,29,0,0,1,58,0"/>
      <g>
        <polygon class="cls-4" points="59.34 133.5 115.18 133.5 115.18 83.82 82.97 69.61 60.06 88.98 59.34 133.5"/>
        <polygon class="cls-2" points="1 133.5 59 133.5 54.79 79.57 24.25 71.61 1.99 88.93 1 133.5"/>
        <path class="cls-3" d="M0,99.5a29,29,0,0,1,58,0"/>
        <line class="cls-3" x1="58" y1="99.5" x2="58" y2="133.5"/>
        <line class="cls-3" x1="116" y1="99.5" x2="116" y2="133.5"/>
        <path class="cls-3" d="M58,99.5a29,29,0,0,1,58,0"/>
      </g>
      <g>
        <line class="cls-3" y1="99.5" y2="133.5"/>
        <path class="cls-3" d="M-58,99.5a29,29,0,0,1,29-29,29,29,0,0,1,29,29"/>
      </g>
      <g>
        <polygon class="cls-2" points="88 183.5 146 183.5 141.79 129.57 111.25 121.61 88.99 138.93 88 183.5"/>
        <path class="cls-3" d="M87,149.5a29,29,0,0,1,58,0"/>
      </g>
      <g>
        <polygon class="cls-4" points="30.34 183.5 86.18 183.5 86.18 133.82 53.97 119.61 31.06 138.98 30.34 183.5"/>
        <polygon class="cls-2" points="-28 183.5 30 183.5 25.79 129.57 -4.75 121.61 -27.01 138.93 -28 183.5"/>
        <path class="cls-3" d="M-29,149.5a29,29,0,0,1,29-29,29,29,0,0,1,29,29"/>
        <line class="cls-3" x1="29" y1="149.5" x2="29" y2="183.5"/>
        <line class="cls-3" x1="87" y1="149.5" x2="87" y2="183.5"/>
        <path class="cls-3" d="M29,149.5a29,29,0,0,1,58,0"/>
      </g>
      <g>
        <polygon class="cls-2" points="59 233.5 117 233.5 112.79 179.57 82.25 171.61 59.99 188.93 59 233.5"/>
        <path class="cls-3" d="M58,199.5a29,29,0,0,1,58,0"/>
        <line class="cls-3" x1="116" y1="199.5" x2="116" y2="233.5"/>
        <path class="cls-3" d="M116,199.5a29,29,0,0,1,58,0"/>
      </g>
      <g>
        <polygon class="cls-4" points="1.34 233.5 57.18 233.5 57.18 183.82 24.97 169.61 2.06 188.98 1.34 233.5"/>
        <polygon class="cls-2" points="-57 233.5 1 233.5 -3.21 179.57 -33.75 171.61 -56.01 188.93 -57 233.5"/>
        <path class="cls-3" d="M-58,199.5a29,29,0,0,1,29-29,29,29,0,0,1,29,29"/>
        <line class="cls-3" y1="199.5" y2="233.5"/>
        <line class="cls-3" x1="58" y1="199.5" x2="58" y2="233.5"/>
        <path class="cls-3" d="M0,199.5a29,29,0,0,1,58,0"/>
      </g>
    </pattern>
  </defs>
  <title>Illustration9</title>
  <g id="Layer_6" data-name="Layer 6">
    <rect class="cls-5" width="1920" height="1080"/>
  </g>
  <g id="Layer_5" data-name="Layer 5">
    <path class="cls-6" d="M767.44,603.51l38.43-50.83,106.07,47.63,6.8,66.45S839.89,661,767.44,603.51Z"/>
    <path class="cls-7" d="M1046.92,458l107,149s95-70,121-164l-172-58S1081.92,441,1046.92,458Z"/>
    <path class="cls-6" d="M1099,382.06l173.52,59.52s36.92-112.08,3.68-203.77l-173.81,52.31S1117.66,347.93,1099,382.06Z"/>
    <path class="cls-7" d="M1101.15,293.14l174.45-56.71s-37.86-111.77-119.53-165.08L1048.6,217.62S1095.58,254.63,1101.15,293.14Z"/>
    <path class="cls-6" d="M1044.57,220.48,1154,73.23S1058.37,4,960.92,7.85L958,189.35S1017.73,192.31,1044.57,220.48Z"/>
    <path class="cls-7" d="M961.92,191,961.26,7.56s-118,1.87-193.72,63.33L874,218S923.55,184.53,961.92,191Z"/>
    <path class="cls-7" d="M874.27,456.56,806,553s14,8,104,42l50.85-107.3S901.11,484.73,874.27,456.56Z"/>
    <path class="cls-6" d="M956.92,486.05l.66,183.43s118-1.87,193.72-63.32L1044.89,459.1S995.29,492.52,956.92,486.05Z"/>
    <path class="cls-6" d="M875.44,219.66,768.68,70.48s-95.11,69.85-121.27,163.8l171.91,58.29S840.41,236.6,875.44,219.66Z"/>
    <path class="cls-7" d="M822.06,290.8l-175-55.06s-34,113,1.53,203.8L821,382.8S804.25,325.4,822.06,290.8Z"/>
    <path class="cls-6" d="M826,382.81,651.43,439.24S689.1,551.07,770.68,604.51L874.92,457S831.48,421.33,826,382.81Z"/>
    <path class="cls-6" d="M1034.92,236s44,32,45,64l20-8s-17-54-55-72Z"/>
    <path class="cls-7" d="M959.11,216.82s54.25-4.15,75.75,19.57l10.05-19s-48-30.11-88.55-19.19Z"/>
    <path class="cls-6" d="M888.1,236.68s39.36-35,68.9-22.68l1-20s-48.18-.17-80.31,26.95Z"/>
    <path class="cls-7" d="M839.2,297.71s18.71-51.09,49.21-60.82l-13.18-17S828,251,821.07,292.48Z"/>
    <path class="cls-7" d="M886,442.67s-44-32-45-64l-20,8s17,54,55,72Z"/>
    <path class="cls-6" d="M961.84,461.89s-54.25,4.14-75.75-19.58L876,461.36s47.94,30.11,88.55,19.19Z"/>
    <path class="cls-7" d="M1032.85,442S985.49,468.8,956,456.44l-1,21.52s56.19,6.91,88.32-20.21Z"/>
    <path class="cls-6" d="M1081.75,381s-18.71,51.09-49.21,60.82l13.18,17s47.27-31.15,54.16-72.63Z"/>
    <polygon class="cls-7" points="1080.92 377.03 1099.36 380.92 1101.92 370.03 1085.92 369.03 1080.92 377.03"/>
    <polygon class="cls-6" points="840.92 370.92 822.48 367.03 819.92 377.92 835.92 378.92 840.92 370.92"/>
    <polygon class="cls-7" points="1082 374 1106 361 1103.92 298.03 1087.92 297.03 1082 374"/>
    <polygon class="cls-6" points="842.92 298.92 824.48 295.03 816 339 837 352 842.92 298.92"/>
    <path class="cls-7" d="M974.92,321l57-82s35.77,10.45,47.38,57.72L979.92,330Z"/>
    <path class="cls-6" d="M982,338.06l93.58-34.84s23.42,29,6,74.44L981,348.31Z"/>
    <path class="cls-7" d="M984.63,347.32,1079,380.05s-.4,37.26-42.78,61.21l-58.89-86.7Z"/>
    <path class="cls-6" d="M972.14,360.73l58.83,80.7s-21.58,30.38-70.05,25.88L962,362.51Z"/>
    <path class="cls-7" d="M962.67,363.58l-4.6,99.76s-35.85,10.19-70.84-23.64l66.42-81.08Z"/>
    <path class="cls-6" d="M946.26,355.41l-60.68,79.32s-35.25-12.07-44.7-59.82l100.8-28.72Z"/>
    <path class="cls-7" d="M939.35,352.06,842,374.12s-19.34-31.84,4-74.57L934,328Z"/>
    <path class="cls-6" d="M937.87,336.07l-92.59-37.42s2.27-37.2,45.8-59l54.46,89.54Z"/>
    <path class="cls-7" d="M947.14,320.53l-59.92-79.89s21.17-30.66,69.7-26.83l.34,104.81Z"/>
    <path class="cls-6" d="M965,316.39l-3.66-99.79s34.88-13.12,72.56,17.7l-59.5,86.29Z"/>
    <path class="cls-7" d="M750.84,409.76,825.92,520,809.35,540.2S799.07,564.93,769,598c-10,11-26.76-15.8-26.76-15.8s-81.94-81.14-93.63-142.66h0l102.23-29.78"/>
    <path class="cls-6" d="M647.75,239,673.92,249l5.57,180-32.86,7.85S612.57,319.92,647.75,239Z"/>
    <path class="cls-6" d="M767,75.38l15,15.8,177.09-52.1L956.92,7s-69.84,5.5-95.42,16.25S784.07,54.73,767,75.38"/>
    <path class="cls-7" d="M956.92,72l150,59,44.27-61.23s-32.61-29.4-85.44-44.59S961.17,11.05,961.17,11.05Z"/>
    <path class="cls-7" d="M1245.92,247l29.77-7.19s38.31,87.3-.23,200.24h0L1241.92,428l4-181"/>
    <path d="M961.92,488.78c-82.71,0-150-67.29-150-150s67.29-150,150-150,150,67.29,150,150S1044.63,488.78,961.92,488.78Zm0-292c-78.3,0-142,63.7-142,142s63.7,142,142,142,142-63.7,142-142S1040.22,196.78,961.92,196.78Z"/>
    <path d="M961.92,468.78c-71.68,0-130-58.32-130-130s58.32-130,130-130,130,58.32,130,130S1033.6,468.78,961.92,468.78Zm0-252a122,122,0,1,0,122,122A122.14,122.14,0,0,0,961.92,216.78Z"/>
    <path d="M961.92,672.78A334,334,0,0,1,725.74,102.61,334,334,0,1,1,1198.09,575,331.79,331.79,0,0,1,961.92,672.78Zm0-660A326,326,0,0,0,731.4,569.3a326,326,0,0,0,461-461A323.89,323.89,0,0,0,961.92,12.78Z"/>
    <rect x="954.92" y="8.78" width="8" height="660"/>
    <rect x="954.92" y="8.78" width="8" height="660"/>
    <rect x="954.92" y="8.78" width="8" height="660" transform="translate(-15.99 628.34) rotate(-36)"/>
    <rect x="954.92" y="8.78" width="8" height="660" transform="translate(340.4 1146.08) rotate(-72)"/>
    <rect x="628.92" y="334.78" width="660" height="8" transform="translate(-57.75 312.85) rotate(-18)"/>
    <rect x="628.92" y="334.78" width="660" height="8" transform="translate(121.15 915.36) rotate(-54)"/>
    <g>
      <line class="cls-8" x1="1091.71" y1="521.57" x2="1175.92" y2="411.03"/>
      <rect x="1064.33" y="462.3" width="138.97" height="8" transform="translate(75.8 1085.63) rotate(-52.7)"/>
    </g>
    <rect x="1153.51" y="335.19" width="184.68" height="8" transform="translate(888.45 1579.94) rotate(-89.16)"/>
    <rect x="1107.02" y="169.6" width="8" height="122.46" transform="translate(114.03 772.73) rotate(-40.26)"/>
    <rect x="1030.83" y="25.5" width="8" height="158.16" transform="translate(557.17 1028.52) rotate(-68.43)"/>
    <rect x="767.4" y="239.6" width="107.74" height="8" transform="translate(68.29 652.07) rotate(-45)"/>
    <rect x="774.43" y="59.95" width="189.18" height="8" transform="translate(19.72 258.8) rotate(-17.13)"/>
    <rect x="842.48" y="162.01" width="119.96" height="8" transform="translate(-3.66 310.72) rotate(-19.5)"/>
    <rect x="674.96" y="246.98" width="8" height="184.42" transform="translate(-10.8 22.54) rotate(-1.89)"/>
    <rect x="784.46" y="394.49" width="8" height="138.13" transform="translate(-123.07 538.82) rotate(-35.17)"/>
    <rect x="889.12" y="455.38" width="8" height="68.89" transform="translate(120.11 1153.18) rotate(-69.38)"/>
    <g>
      <circle class="cls-9" cx="959.92" cy="335.03" r="29"/>
      <path d="M959.92,368a33,33,0,1,1,33-33A33,33,0,0,1,959.92,368Zm0-58a25,25,0,1,0,25,25A25,25,0,0,0,959.92,310Z"/>
    </g>
    <circle cx="959.92" cy="335.03" r="15"/>
    <rect x="955.92" y="307.03" width="8" height="24"/>
    <g>
      <line x1="934.53" y1="320.03" x2="955.31" y2="332.03"/>
      <rect x="940.92" y="314.03" width="8" height="24" transform="translate(190.11 981.34) rotate(-60)"/>
    </g>
    <g>
      <line x1="936.53" y1="349.03" x2="957.31" y2="337.03"/>
      <rect x="934.92" y="339.03" width="24" height="8" transform="translate(-44.65 519.45) rotate(-30)"/>
    </g>
    <g>
      <line x1="964.53" y1="333.03" x2="985.31" y2="321.03"/>
      <rect x="962.92" y="323.03" width="24" height="8" transform="translate(-32.89 531.3) rotate(-30)"/>
    </g>
    <g>
      <line x1="984.31" y1="349.03" x2="963.53" y2="337.03"/>
      <rect x="969.92" y="331.03" width="8" height="24" transform="translate(189.88 1014.95) rotate(-60)"/>
    </g>
    <rect x="955.92" y="340.03" width="8" height="24"/>
    <rect x="853.14" y="515.25" width="8" height="117.15" transform="translate(-10.48 1131.68) rotate(-66.54)"/>
    <polyline class="cls-10" points="423.87 562.66 568.58 702.66 571.16 1050.5 522.66 1050.5 369.59 598.41 423.87 562.66"/>
    <path class="cls-10" d="M477.57,442.18h91.2S570,319.75,491.31,257.29L425.1,321S478.82,384.71,477.57,442.18Z"/>
    <path class="cls-10" d="M306.42,274.78s-66.21,5-113.68,48.72l-76.2-76.21s35-37.48,92.44-57.46,98.69-15,98.69-15Z"/>
    <path class="cls-10" d="M31.59,443.43,139,442.18s2.5,68.71,50,116.18L32.84,717Z"/>
    <polygon class="cls-10" points="95.3 1051.82 306 1054 305 762 187.74 781.98 95.3 1051.82"/>
    <path class="cls-10" d="M306.42,274.78s94.95,10,118.68,46.22l-17.49,18.74s-47.47-41.23-97.44-37.48Z"/>
    <path class="cls-10" d="M452.59,440.93l21.23-1.25s8.75,58.71-46.22,119.93l-17.49-10S448.84,494.65,452.59,440.93Z"/>
    <polygon class="cls-10" points="208.98 543.37 251.28 575.38 232.72 588.34 188.99 558.36 208.98 543.37"/>
    <path class="cls-10" d="M192.74,323.5,210.23,341S169,376,167.76,440.93H144S151.51,351,192.74,323.5Z"/>
    <path class="cls-11" d="M478.44,438.49h90.05V707.56L427.6,559.61S479.32,511,478.44,438.49Z"/>
    <path class="cls-11" d="M352.47,443c1-.72,97.62-.77,97.62-.77s-1.43,77-41.41,100.71C408.68,542.89,317.49,467.94,352.47,443Z"/>
    <path class="cls-11" d="M310.17,302.26,307.67,356l43.73,35,56.21-51.22S357.64,296,310.17,302.26Z"/>
    <path class="cls-11" d="M207.43,342.57,254,388l-10.22,57.45-76-4.52S160,390.59,207.43,342.57Z"/>
    <path class="cls-11" d="M192.74,323.5,210.23,341s43.72-45,99.94-38.73l-3.75-27.48S216.48,284.77,192.74,323.5Z"/>
    <path class="cls-11" d="M167.76,440.93S159,495.9,209,543.37l-19.62,18.45S141.52,518.38,144,440.93Z"/>
    <path class="cls-11" d="M187.74,324.74s-45,50-47.46,113.69H32.85s2.49-70,17.47-96.2,56.21-96.2,66.21-95Z"/>
    <path class="cls-11" d="M311.48,276.14S380.13,283.52,425.1,321l66.21-68.71s-74.95-75-178.64-78.7Z"/>
    <path class="cls-11" d="M404,340s48.59,54.7,46.09,102.18l23.73-2.5s-3.23-80.41-51-114.54Z"/>
    <path class="cls-10" d="M306.67,527.69l42.05-33.52s47.29,22.49,57.47,51.22l-42.48,33.73Z"/>
    <path class="cls-10" d="M259,390l-48.77-49s25.1-29.88,67.52-34.3S305.11,301,305.11,301l2.56,55s-18.91-13-21.41-11.72S259,390,259,390Z"/>
    <path class="cls-10" d="M245,441.7l-78,3.1s4.5,68.58,42,98.57L255,497.92Z"/>
    <path class="cls-10" d="M360,445l89.72-2.17s-4.5-68.59-42-98.57l-46,45.45Z"/>
    <polygon class="cls-11" points="258.77 496.67 208.98 543.37 248.78 572.88 265.02 542.89 258.77 496.67"/>
    <polygon class="cls-11" points="188.99 562.11 32.84 717.01 31.59 1051.82 95.3 1051.82 187.74 781.98 151.51 745.75 144.02 712.02 192 660 213.98 612.08 217.55 581.62 188.99 562.11"/>
    <polygon class="cls-11" points="393 680 522.55 1050.57 305 1054 304 797 393 680"/>
    <polygon class="cls-11" points="361.39 578.35 397.62 555.86 409.93 544.14 419.86 566.82 370.14 598.34 361.39 578.35"/>
    <polygon class="cls-10" points="360.14 574.6 388.88 559.61 371.38 553.36 360.14 574.6"/>
    <polygon class="cls-10" points="353.89 578.35 361.39 585.84 357.64 593.34 347.65 588.34 353.89 578.35"/>
    <path d="M308.92,613.58c-93.82,0-170.15-76.33-170.15-170.15S215.1,273.27,308.92,273.27,479.07,349.6,479.07,443.43,402.74,613.58,308.92,613.58Zm0-332.31c-89.41,0-162.15,72.75-162.15,162.16s72.74,162.15,162.15,162.15,162.15-72.74,162.15-162.15S398.33,281.27,308.92,281.27Z"/>
    <path d="M308.92,589.27c-80.42,0-145.84-65.43-145.84-145.84S228.5,297.58,308.92,297.58,454.77,363,454.77,443.43,389.34,589.27,308.92,589.27Zm0-284.83c-76.64,0-139,62.35-139,139s62.35,139,139,139,139-62.35,139-139S385.56,304.44,308.92,304.44Z"/>
    <rect x="304.3" y="171.09" width="8" height="271.71"/>
    <rect x="208.17" y="208.32" width="8" height="273.59" transform="translate(-181.89 251.11) rotate(-45)"/>
    <rect x="30.34" y="437.24" width="279.52" height="8"/>
    <rect x="-27.54" y="577.25" width="394.17" height="8" transform="translate(-361.37 290.17) rotate(-45)"/>
    <rect x="266.56" y="344.55" width="263.87" height="8" transform="translate(-129.75 383.86) rotate(-45)"/>
    <rect x="304.24" y="437.24" width="265.78" height="8"/>
    <rect x="434.56" y="386.62" width="8.13" height="377.38" transform="translate(-278.34 478.66) rotate(-45)"/>
    <rect x="412.99" y="422.09" width="8" height="649.54" transform="translate(-223.28 179.65) rotate(-19.29)"/>
    <rect x="-122.65" y="742.86" width="649.54" height="8" transform="translate(-569.58 690.93) rotate(-70.71)"/>
    <rect x="356.77" y="577.1" width="8" height="477.22"/>
    <rect x="357.39" y="181.08" width="8" height="104.94"/>
    <rect x="409.86" y="573.35" width="8" height="480.97"/>
    <rect x="409.86" y="199.82" width="8" height="114.93"/>
    <rect x="462.95" y="495.9" width="8" height="558.42"/>
    <rect x="463.58" y="228.55" width="8" height="162.4"/>
    <rect x="516.05" y="282.27" width="8" height="772.04"/>
    <rect x="81.93" y="282.27" width="8" height="772.04"/>
    <rect x="137.52" y="226.05" width="8" height="828.26"/>
    <rect x="193.52" y="563" width="8" height="491.32"/>
    <rect x="251.52" y="547" width="8" height="507.32"/>
    <rect x="301.52" y="547" width="8" height="507.32"/>
    <rect x="192.49" y="191.08" width="8" height="128.67"/>
    <rect x="192.49" y="567.1" width="8" height="128.67"/>
    <rect x="251.2" y="173.59" width="8" height="109.94"/>
    <rect class="cls-10" x="571.27" y="931.89" width="28.73" height="146.16"/>
    <rect class="cls-11" x="571.27" y="799.47" width="28.73" height="133.67"/>
    <rect class="cls-11" x="571.27" y="520.88" width="28.73" height="133.67"/>
    <rect class="cls-10" x="571.27" y="659.55" width="28.73" height="133.67"/>
    <rect class="cls-11" x="1.6" y="799.47" width="28.73" height="133.67"/>
    <rect class="cls-11" x="441.34" y="1051.82" width="129.92" height="27.48"/>
    <rect class="cls-10" x="307.67" y="1051.82" width="129.92" height="27.48"/>
    <rect class="cls-10" x="170.25" y="1051.82" width="129.92" height="27.48"/>
    <rect class="cls-10" x="-52.11" y="993.1" width="142.42" height="27.48" transform="translate(1025.94 987.75) rotate(90)"/>
    <rect class="cls-10" x="-52.11" y="713.27" width="142.42" height="27.48" transform="translate(746.1 707.92) rotate(90)"/>
    <rect class="cls-11" x="-50.87" y="575.85" width="142.42" height="27.48" transform="translate(609.93 569.25) rotate(90)"/>
    <rect class="cls-11" x="30.34" y="1051.82" width="136.17" height="27.48"/>
    <polygon class="cls-10" points="571.27 520.88 600 520.88 596.25 400.95 587.51 379.71 567.52 385.96 572.52 455.92 571.27 520.88"/>
    <path class="cls-10" d="M9.1,379.71l26.23,10S32.18,489.85,28.76,521l-29.66-.1Z"/>
    <polygon class="cls-11" points="74.06 243.54 96.06 267.35 60.32 318.5 35.33 389.71 9.1 379.71 24.09 329.74 50.33 281.02 74.06 243.54"/>
    <polygon class="cls-10" points="74.06 243.54 121.53 204.82 192.74 164.84 204.89 189.42 142.42 225.7 101.44 261.97 89.35 259.29 74.06 243.54"/>
    <polygon class="cls-11" points="192.74 164.84 257.7 146.1 338.9 148.6 405.12 163.59 396 191.38 317.46 173.37 251.17 178.41 208.98 189.83 192.74 164.84"/>
    <path class="cls-10" d="M393.87,187.33l11.25-23.74,83.7,48.72,37.47,36.23L506,267S461.33,207.32,393.87,187.33Z"/>
    <path class="cls-11" d="M526.29,248.54l-20,18.74,22.63,32.05s38.58,55.4,38.58,86.63l20-6.25L573.77,318.5Z"/>
    <path d="M602.13,1082.68H-.52V441.55A301.3,301.3,0,0,1,300.8,140.23h0A301.32,301.32,0,0,1,602.13,441.55Zm-594.65-8H594.13V441.55A293.33,293.33,0,0,0,93.39,234.14,291.4,291.4,0,0,0,7.48,441.55Z"/>
    <path d="M575.27,1057.07H26.34v-613A274.45,274.45,0,0,1,300.8,169.59h0A274.45,274.45,0,0,1,575.27,444.05Zm-540.93-8H567.27v-605A266.47,266.47,0,0,0,112.38,255.63a264.72,264.72,0,0,0-78,188.42Z"/>
    <rect x="0.35" y="929.14" width="26.23" height="8"/>
    <rect x="0.35" y="791.72" width="26.23" height="8"/>
    <rect x="0.35" y="654.3" width="26.23" height="8"/>
    <rect x="0.35" y="516.88" width="26.23" height="8"/>
    <rect x="16.97" y="370.34" width="8" height="26.23" transform="translate(-357.19 316.54) rotate(-76.84)"/>
    <rect x="83.18" y="242.92" width="8" height="26.23" transform="translate(-155.51 136.64) rotate(-45)"/>
    <rect x="195.61" y="162.97" width="8" height="26.23" transform="translate(-57.54 107.36) rotate(-26.45)"/>
    <rect x="573.45" y="929.14" width="26.23" height="8"/>
    <rect x="573.45" y="791.72" width="26.23" height="8"/>
    <rect x="573.45" y="654.3" width="26.23" height="8"/>
    <rect x="573.45" y="516.88" width="26.23" height="8"/>
    <rect x="565.96" y="379.46" width="26.23" height="8" transform="translate(-72.12 141.98) rotate(-13.17)"/>
    <rect x="499.75" y="252.04" width="26.23" height="8" transform="translate(-30.83 437.64) rotate(-45)"/>
    <rect x="387.31" y="172.08" width="26.23" height="8" transform="translate(73.92 467.19) rotate(-65.46)"/>
    <rect x="25.34" y="1056.81" width="9.99" height="18.74"/>
    <rect x="162.76" y="1056.81" width="9.99" height="18.74"/>
    <rect x="300.18" y="1056.81" width="9.99" height="18.74"/>
    <rect x="437.6" y="1056.81" width="9.99" height="18.74"/>
    <rect x="566.27" y="1056.81" width="9.99" height="18.74"/>
    <polyline class="cls-10" points="1495.24 562.66 1350.53 702.66 1347.95 1050.5 1396.44 1050.5 1549.51 598.41 1495.24 562.66"/>
    <path class="cls-10" d="M1441.53,442.18h-91.19s-1.25-122.43,77.45-184.89L1494,321S1440.28,384.71,1441.53,442.18Z"/>
    <path class="cls-10" d="M1612.68,274.78s66.21,5,113.68,48.72l76.21-76.21s-35-37.48-92.45-57.46-98.69-15-98.69-15Z"/>
    <path class="cls-10" d="M1887.52,443.43l-107.44-1.25s-2.5,68.71-50,116.18L1886.27,717Z"/>
    <polygon class="cls-10" points="1823.81 1051.82 1613.11 1054 1614.11 762 1731.36 781.98 1823.81 1051.82"/>
    <path class="cls-10" d="M1612.68,274.78s-94.94,10-118.68,46.22l17.49,18.74s47.47-41.23,97.44-37.48Z"/>
    <path class="cls-10" d="M1466.52,440.93l-21.24-1.25s-8.74,58.71,46.22,119.93l17.49-10S1470.27,494.65,1466.52,440.93Z"/>
    <polygon class="cls-10" points="1710.12 543.37 1667.83 575.38 1686.39 588.34 1730.11 558.36 1710.12 543.37"/>
    <path class="cls-10" d="M1726.36,323.5,1708.87,341s41.23,35,42.48,99.94h23.74S1767.59,351,1726.36,323.5Z"/>
    <path class="cls-11" d="M1440.66,438.49h-90V707.56L1491.5,559.61S1439.79,511,1440.66,438.49Z"/>
    <path class="cls-11" d="M1566.64,443c-1-.72-97.62-.77-97.62-.77s1.42,77,41.4,100.71C1510.42,542.89,1601.62,467.94,1566.64,443Z"/>
    <path class="cls-11" d="M1608.93,302.26l2.5,53.72-43.72,35-56.22-51.22S1561.46,296,1608.93,302.26Z"/>
    <path class="cls-11" d="M1711.68,342.57,1665.1,388l10.22,57.45,76-4.52S1759.12,390.59,1711.68,342.57Z"/>
    <path class="cls-11" d="M1726.36,323.5,1708.87,341s-43.72-45-99.94-38.73l3.75-27.48S1702.63,284.77,1726.36,323.5Z"/>
    <path class="cls-11" d="M1751.35,440.93s8.74,55-41.23,102.44l19.62,18.45s47.84-43.44,45.35-120.89Z"/>
    <path class="cls-11" d="M1731.36,324.74s45,50,47.46,113.69h107.44s-2.49-70-17.48-96.2-56.21-96.2-66.2-95Z"/>
    <path class="cls-11" d="M1607.63,276.14S1539,283.52,1494,321l-66.21-68.71s75-75,178.65-78.7Z"/>
    <path class="cls-11" d="M1515.1,340s-48.58,54.7-46.08,102.18l-23.74-2.5s3.24-80.41,51-114.54Z"/>
    <path class="cls-10" d="M1612.43,527.69l-42-33.52s-47.3,22.49-57.47,51.22l42.47,33.73Z"/>
    <path class="cls-10" d="M1660.1,390l48.77-49s-25.09-29.88-67.51-34.3S1614,301,1614,301l-2.56,55s18.92-13,21.42-11.72S1660.1,390,1660.1,390Z"/>
    <path class="cls-10" d="M1674.07,441.7l78,3.1s-4.5,68.58-42,98.57l-46-45.45Z"/>
    <path class="cls-10" d="M1559.1,445l-89.72-2.17s4.5-68.59,42-98.57l46,45.45Z"/>
    <polygon class="cls-11" points="1660.33 496.67 1710.12 543.37 1670.33 572.88 1654.09 542.89 1660.33 496.67"/>
    <polygon class="cls-11" points="1730.11 562.11 1886.27 717.01 1887.52 1051.82 1823.81 1051.82 1731.36 781.98 1767.59 745.75 1775.09 712.02 1727.11 660 1705.13 612.08 1701.56 581.62 1730.11 562.11"/>
    <polygon class="cls-11" points="1526.11 680 1396.56 1050.57 1614.11 1054 1615.11 797 1526.11 680"/>
    <polygon class="cls-11" points="1557.71 578.35 1521.48 555.86 1509.17 544.14 1499.25 566.82 1548.97 598.34 1557.71 578.35"/>
    <polygon class="cls-10" points="1558.96 574.6 1530.23 559.61 1547.72 553.36 1558.96 574.6"/>
    <polygon class="cls-10" points="1565.21 578.35 1557.71 585.84 1561.46 593.34 1571.46 588.34 1565.21 578.35"/>
    <path d="M1610.18,613.58c-93.82,0-170.15-76.33-170.15-170.15s76.33-170.16,170.15-170.16,170.15,76.33,170.15,170.16S1704,613.58,1610.18,613.58Zm0-332.31C1520.77,281.27,1448,354,1448,443.43s72.74,162.15,162.15,162.15,162.15-72.74,162.15-162.15S1699.59,281.27,1610.18,281.27Z"/>
    <path d="M1610.18,589.27c-80.42,0-145.84-65.43-145.84-145.84s65.42-145.85,145.84-145.85S1756,363,1756,443.43,1690.6,589.27,1610.18,589.27Zm0-284.83c-76.64,0-139,62.35-139,139s62.34,139,139,139,139-62.35,139-139S1686.82,304.44,1610.18,304.44Z"/>
    <rect x="1606.81" y="171.09" width="8" height="271.71"/>
    <rect x="1570.14" y="341.11" width="273.59" height="8" transform="translate(255.84 1307.94) rotate(-45)"/>
    <rect x="1609.25" y="437.24" width="279.52" height="8"/>
    <rect x="1745.57" y="384.16" width="8" height="394.17" transform="translate(101.43 1407.38) rotate(-45)"/>
    <rect x="1516.61" y="216.61" width="8" height="263.87" transform="translate(198.92 1177.32) rotate(-45)"/>
    <rect x="1349.09" y="437.24" width="265.78" height="8"/>
    <rect x="1291.79" y="571.25" width="377.38" height="8.13" transform="translate(26.81 1215.36) rotate(-45)"/>
    <rect x="1177.34" y="742.86" width="649.54" height="8" transform="translate(300.98 1917.94) rotate(-70.71)"/>
    <rect x="1712.99" y="422.09" width="8" height="649.54" transform="translate(-150.32 609.03) rotate(-19.29)"/>
    <rect x="1554.34" y="577.1" width="8" height="477.22"/>
    <rect x="1553.71" y="181.08" width="8" height="104.94"/>
    <rect x="1501.25" y="573.35" width="8" height="480.97"/>
    <rect x="1501.25" y="199.82" width="8" height="114.93"/>
    <rect x="1448.15" y="495.9" width="8" height="558.42"/>
    <rect x="1447.53" y="228.55" width="8" height="162.4"/>
    <rect x="1395.06" y="282.27" width="8" height="772.04"/>
    <rect x="1829.18" y="282.27" width="8" height="772.04"/>
    <rect x="1773.58" y="226.05" width="8" height="828.26"/>
    <rect x="1717.58" y="563" width="8" height="491.32"/>
    <rect x="1659.58" y="547" width="8" height="507.32"/>
    <rect x="1609.58" y="547" width="8" height="507.32"/>
    <rect x="1718.62" y="191.08" width="8" height="128.67"/>
    <rect x="1718.62" y="567.1" width="8" height="128.67"/>
    <rect x="1659.9" y="173.59" width="8" height="109.94"/>
    <rect class="cls-10" x="1319.1" y="931.89" width="28.73" height="146.16" transform="translate(2666.94 2009.94) rotate(-180)"/>
    <rect class="cls-11" x="1319.1" y="799.47" width="28.73" height="133.67" transform="translate(2666.94 1732.6) rotate(-180)"/>
    <rect class="cls-11" x="1319.1" y="520.88" width="28.73" height="133.67" transform="translate(2666.94 1175.43) rotate(-180)"/>
    <rect class="cls-10" x="1319.1" y="659.55" width="28.73" height="133.67" transform="translate(2666.94 1452.77) rotate(-180)"/>
    <rect class="cls-11" x="1888.77" y="799.47" width="28.73" height="133.67" transform="translate(3806.27 1732.6) rotate(-180)"/>
    <rect class="cls-11" x="1347.84" y="1051.82" width="129.92" height="27.48" transform="translate(2825.6 2131.12) rotate(-180)"/>
    <rect class="cls-10" x="1481.51" y="1051.82" width="129.92" height="27.48" transform="translate(3092.94 2131.12) rotate(-180)"/>
    <rect class="cls-10" x="1618.93" y="1051.82" width="129.92" height="27.48" transform="translate(3367.78 2131.12) rotate(-180)"/>
    <rect class="cls-10" x="1828.8" y="993.1" width="142.42" height="27.48" transform="translate(2906.86 -893.17) rotate(90)"/>
    <rect class="cls-10" x="1828.8" y="713.27" width="142.42" height="27.48" transform="translate(2627.02 -1173) rotate(90)"/>
    <rect class="cls-11" x="1827.55" y="575.85" width="142.42" height="27.48" transform="translate(2488.35 -1309.17) rotate(90)"/>
    <rect class="cls-11" x="1752.6" y="1051.82" width="136.17" height="27.48" transform="translate(3641.37 2131.12) rotate(-180)"/>
    <polygon class="cls-10" points="1347.84 520.88 1319.11 520.88 1322.85 400.95 1331.6 379.71 1351.59 385.96 1346.59 455.92 1347.84 520.88"/>
    <path class="cls-10" d="M1910,379.71l-26.24,10s3.15,100.14,6.57,131.27l29.66-.1Z"/>
    <polygon class="cls-11" points="1845.04 243.54 1823.04 267.35 1858.79 318.5 1883.77 389.71 1910.01 379.71 1895.02 329.74 1868.78 281.02 1845.04 243.54"/>
    <polygon class="cls-10" points="1845.04 243.54 1797.57 204.82 1726.36 164.84 1714.21 189.42 1776.69 225.7 1817.67 261.97 1829.76 259.29 1845.04 243.54"/>
    <polygon class="cls-11" points="1726.36 164.84 1661.4 146.1 1580.2 148.6 1513.99 163.59 1523.1 191.38 1601.64 173.37 1667.93 178.41 1710.12 189.83 1726.36 164.84"/>
    <path class="cls-10" d="M1525.23,187.33,1514,163.59l-83.7,48.72-37.48,36.23L1413.12,267S1457.77,207.32,1525.23,187.33Z"/>
    <path class="cls-11" d="M1392.81,248.54l20,18.74-22.63,32.05s-38.58,55.4-38.58,86.63l-20-6.25,13.74-61.21Z"/>
    <path d="M1919.63,1082.68H1317V441.55a301.33,301.33,0,0,1,602.65,0Zm-594.65-8h586.65V441.55A293.33,293.33,0,0,0,1618.3,148.23h0A293.32,293.32,0,0,0,1325,441.55Z"/>
    <path d="M1892.77,1057.07H1343.84v-613a274.47,274.47,0,1,1,548.93,0Zm-540.93-8h532.93v-605A266.46,266.46,0,0,0,1618.3,177.59h0a266.45,266.45,0,0,0-266.46,266.46Z"/>
    <rect x="1892.52" y="929.14" width="26.23" height="8"/>
    <rect x="1892.52" y="791.72" width="26.23" height="8"/>
    <rect x="1892.52" y="654.3" width="26.23" height="8"/>
    <rect x="1892.52" y="516.88" width="26.23" height="8"/>
    <rect x="1885.02" y="379.46" width="26.23" height="8" transform="translate(-37.45 442.43) rotate(-13.17)"/>
    <rect x="1818.81" y="252.04" width="26.23" height="8" transform="translate(355.42 1370.23) rotate(-45)"/>
    <rect x="1706.38" y="172.08" width="26.23" height="8" transform="translate(795.73 1637.02) rotate(-63.54)"/>
    <rect x="1319.42" y="929.14" width="26.23" height="8"/>
    <rect x="1319.42" y="791.72" width="26.23" height="8"/>
    <rect x="1319.42" y="654.3" width="26.23" height="8"/>
    <rect x="1319.42" y="516.88" width="26.23" height="8"/>
    <rect x="1336.03" y="370.34" width="8" height="26.23" transform="translate(661.44 1600.94) rotate(-76.83)"/>
    <rect x="1402.24" y="242.92" width="8" height="26.23" transform="translate(230.84 1069.37) rotate(-45)"/>
    <rect x="1514.67" y="162.97" width="8" height="26.24" transform="translate(64.09 646.79) rotate(-24.55)"/>
    <rect x="1883.77" y="1056.81" width="9.99" height="18.74" transform="translate(3777.54 2132.37) rotate(-180)"/>
    <rect x="1746.35" y="1056.81" width="9.99" height="18.74" transform="translate(3502.7 2132.37) rotate(-180)"/>
    <rect x="1608.93" y="1056.81" width="9.99" height="18.74" transform="translate(3227.86 2132.37) rotate(-180)"/>
    <rect x="1471.51" y="1056.81" width="9.99" height="18.74" transform="translate(2953.02 2132.37) rotate(-180)"/>
    <rect x="1342.84" y="1056.81" width="9.99" height="18.74" transform="translate(2695.68 2132.37) rotate(-180)"/>
  </g>
  <g id="Layer_3" data-name="Layer 3">
    <polyline class="cls-12" points="1046.15 419.75 1113.14 349.71 1159.78 331.91 1244.79 320.86 1308.55 289.4 1272.14 328.71 1271.71 338.99 1215.14 365.71 1247.14 379.71 1215.04 392.83 1171.68 393.11 1206.82 411.25 1219.86 416.35 1184.14 426.71 1147.6 416.07 1174.52 439.3 1110.48 440.44 1105.09 443.55 1129.46 472.46 1086.14 456.71 1088.14 481.71 1068.26 463.11 1064.57 475.01 1054.14 449.71 1062.14 434.71 1046.15 419.75"/>
    <polyline class="cls-12" points="903.41 420.63 836.41 350.6 789.77 332.79 704.76 321.74 641.01 290.28 677.41 329.6 677.85 339.87 734.41 366.6 702.41 380.6 734.52 393.71 777.87 394 742.74 412.13 729.7 417.23 765.41 427.6 801.96 416.95 775.04 440.19 839.08 441.32 844.47 444.44 820.1 473.34 863.41 457.6 861.41 482.6 881.3 463.99 884.99 475.89 895.41 450.6 887.41 435.6 903.41 420.63"/>
    <path d="M1053.19,426.69l-5.63-5a18.15,18.15,0,0,1-2.27,1.45l-3.76-7.05c3.57-1.91,9.81-9.14,17-17.51,23.93-27.7,63.83-73.91,123.17-73.91h1.47l2.38,0c74.21,0,123.36-44.5,123.85-45L1323,267.26l-7.18,17c-9.42,22.31-26.38,38.54-51.84,49.61-21.43,9.32-48.61,15-85.54,17.82-32.54,2.5-64.78,22.66-86.09,39.12A314.22,314.22,0,0,0,1053.19,426.69Zm128.56-94c-55.54,0-93.89,44.23-116.93,70.91,23.5-21.85,67.37-56.37,113-59.89,36-2.77,62.37-8.23,83-17.18,16.6-7.21,29.26-16.75,38.28-28.89a209.23,209.23,0,0,1-20.35,12c-20.51,10.6-53.18,23.09-93.17,23.09l-2.47,0Z"/>
    <path d="M1084.47,397l-4.66-6.5c1.35-1,33.76-23.73,100.21-25.75,33.13-1,57.78-10.93,72.63-19.08a131.54,131.54,0,0,0,15.44-9.9l-11.61,1-.67-8,34.42-2.87-7.18,7.6c-1.43,1.52-35.9,37.22-102.78,39.25-33.35,1-57.62,7.55-72.11,12.86C1092.47,391.33,1084.55,396.91,1084.47,397Z"/>
    <path d="M1072.88,407.26l-4.62-6.53c1.22-.87,30.39-21.11,77.4-15,45,5.87,77.93,3.61,98.08-6.7-11.12-.3-26.42-2.12-36-9.11l4.73-6.45c13.59,10,44,7.27,44.26,7.24l11.92-1.11-8.86,8.05c-20.08,18.27-57.77,23.5-115.2,16a118.31,118.31,0,0,0-52.43,4.61C1079.92,402.36,1073,407.21,1072.88,407.26Z"/>
    <path d="M1188.71,428c-16.29,0-31.77-4.57-45.36-8.58-9.86-2.91-18.37-5.42-25.37-5.7-20.66-.82-47.53,4.62-56.37,6.41a18.09,18.09,0,0,1-3.47.59v-8a3.19,3.19,0,0,0-.45,0c.32-.05,1.12-.21,2.33-.46,9.07-1.84,36.66-7.44,58.28-6.56,8,.32,17.38,3.08,27.31,6,19.57,5.77,43.33,12.78,66.79,4.09-12.71-3.57-34.06-10.53-50.38-20.73l4.24-6.78c23.13,14.45,58.4,22.41,58.75,22.49l10.06,2.24-8.93,5.13A73.37,73.37,0,0,1,1188.71,428Z"/>
    <path d="M1153.1,446.61c-7.93,0-17.7-.23-29.19-.9-34.86-2.06-64-24.89-65.25-25.86l5-6.27c.28.22,28.46,22.24,60.75,24.14,19.7,1.16,34.39,1,43.12.59-9-7.84-25.26-20.52-38-22.65l1.32-7.89c21.11,3.53,48,30,49.16,31.1l6,5.94-8.4.88C1177,445.75,1168.58,446.61,1153.1,446.61Z"/>
    <path d="M1148.55,481.8l-14-2.13c-31.68-4.84-51.22-20.73-62-33.21-11.76-13.57-16-26-16.15-26.48l7.59-2.54c0,.12,4,11.65,14.83,24a89.12,89.12,0,0,0,42.6,27.1c-8.32-8-19-19.45-23.83-29.08l7.16-3.57c7.51,15.07,32.77,36.51,33,36.73Z"/>
    <path d="M1097.47,496.34a14.14,14.14,0,0,1-2.07-1.16c-7.49-4.52-34.56-23.05-38.23-57l7.95-.86C1067,454.2,1075.6,467,1084,475.65c-.41-1.43-.8-2.92-1.16-4.49a128.83,128.83,0,0,1-2.8-18.6l8-.5c.74,11.67,4.49,31,11.52,36.22.93.58,1.48.88,1.52.9Z"/>
    <path d="M1069.6,483.07l-5.33-2.82c-8.37-4.43-12.69-12.73-12.5-24a51.48,51.48,0,0,1,2.61-14.91l7.53,2.7c-.06.18-5.32,15.31.93,24.52l.71-8.19,8,.7Z"/>
    <path d="M893.37,426.69a315.1,315.1,0,0,0-39.17-35.87c-21.32-16.46-53.55-36.62-86.1-39.12-36.93-2.84-64.11-8.5-85.54-17.82-25.46-11.07-42.41-27.3-51.84-49.61l-7.18-17,13.58,12.51c.5.46,50.86,45.87,126.24,44.94,60.11-.79,100.51,46,124.63,73.9,7.22,8.37,13.47,15.6,17,17.51l-3.77,7.05a18.91,18.91,0,0,1-2.27-1.45Zm-245.9-129c9,12.14,21.68,21.68,38.28,28.89,20.59,8.95,47,14.41,83,17.18,45.64,3.51,89.51,38,113,59.89-23.23-26.9-62-71.61-118.27-70.9-41.11.54-74.7-12.25-95.64-23.07A209.23,209.23,0,0,1,647.47,297.65Z"/>
    <path d="M862.08,397c-.31-.22-32-22.32-95.79-24.25-66.89-2-101.35-37.73-102.79-39.25l-7.18-7.6,34.42,2.87-.66,8-11.54-1c14,10.38,43.67,27.63,88,29,66.46,2,98.87,24.79,100.21,25.75Z"/>
    <path d="M873.67,407.26c-.07-.05-7-4.9-19.32-9a118.29,118.29,0,0,0-52.42-4.61c-57.44,7.49-95.12,2.25-115.21-16l-8.86-8.05,11.92,1.11c.31,0,30.68,2.72,44.26-7.24l4.73,6.45c-9.53,7-24.83,8.81-35.95,9.11,20.15,10.31,53,12.57,98.07,6.7,47-6.14,76.19,14.11,77.4,15l-4.63,6.52L876,404Z"/>
    <path d="M757.84,428a73.31,73.31,0,0,1-37.42-9.81l-8.93-5.13,10-2.24c.35-.08,35.63-8,58.75-22.49l4.24,6.78c-16.32,10.2-37.66,17.16-50.38,20.73,23.46,8.69,47.23,1.68,66.79-4.09,9.94-2.94,19.32-5.7,27.31-6,21.61-.87,49.21,4.72,58.28,6.56,1.21.25,2,.41,2.33.46a3.11,3.11,0,0,0-.45,0v8a18.09,18.09,0,0,1-3.47-.59c-8.83-1.79-35.71-7.23-56.37-6.41-7,.28-15.51,2.79-25.37,5.7C789.62,423.42,774.13,428,757.84,428Z"/>
    <path d="M793.45,446.61c-15.48,0-23.94-.86-24.46-.92l-8.39-.88,6-5.94c1.13-1.12,28-27.57,49.15-31.1l1.32,7.89c-12.78,2.14-29,14.82-38,22.65,8.73.36,23.42.57,43.12-.59,32.29-1.9,60.47-23.92,60.76-24.14l5,6.27c-1.22,1-30.39,23.8-65.25,25.86C811.15,446.38,801.38,446.61,793.45,446.61Z"/>
    <path d="M798,481.8l10.83-9.14c.25-.22,25.51-21.66,33-36.73L849,439.5c-4.79,9.61-15.47,21-23.79,29,44.27-13.26,57.26-50.68,57.39-51.09L890.2,420c-.17.52-4.38,12.91-16.14,26.48-10.82,12.48-30.37,28.37-62,33.21Z"/>
    <path d="M849.09,496.34l-3.55-7.16s.59-.32,1.52-.9c7-5.24,10.78-24.55,11.52-36.22l8,.5a127.23,127.23,0,0,1-2.8,18.6c-.36,1.57-.75,3.06-1.15,4.49,8.35-8.66,17-21.45,18.82-38.37l8,.86c-3.68,34-30.75,52.52-38.24,57A14.58,14.58,0,0,1,849.09,496.34Z"/>
    <path d="M877,483.07l-1.92-22,8-.7.72,8.21c6.3-9.22,1-24.35.93-24.53l7.52-2.71a51.1,51.1,0,0,1,2.61,14.91c.19,11.25-4.13,19.55-12.5,24Z"/>
    <path class="cls-13" d="M268,1021h34l-7-19s-41-46-42-64-3-37-3-37l-62-55-16-57,22,27s32,20,34,30l39,17,28-61s93-57,95-117c0,0-42-58-82-55,0,0-56,49-124,26,0,0-69,58-57,126,0,0,17,42,40,53l-23,66-11,17s6,29,25,48,33,57,33,57l23-3s-17-44-17-63l-18-33s11-35,23-38l15,53S270,994,268,1021Z"/>
    <path class="cls-14" d="M171,784s35.93,40.38,29,73.19C200,857.19,170,814,171,784Z"/>
    <path class="cls-15" d="M194,816l5.53,26L234,865S213,820,194,816Z"/>
    <polygon class="cls-16" points="200 857 234 865 200 842 200 857"/>
    <path class="cls-14" d="M228,846l10,23s53,8,70,45l35,23S302,865,228,846Z"/>
    <path class="cls-15" d="M208.86,863.41,226,884s50-2,65,31,23,31,23,31-9-56-35-64S208.86,863.41,208.86,863.41Z"/>
    <path class="cls-16" d="M234.92,884.93s39.23-.13,58.66,33S309,973,309,973s-23-48-42-59S234.92,884.93,234.92,884.93Z"/>
    <path class="cls-16" d="M310.17,916.31,317,945l23,33s-1-47-10-54A40.07,40.07,0,0,0,310.17,916.31Z"/>
    <path class="cls-14" d="M310.63,943.36S340,967,341,988s-32-26-32-26Z"/>
    <path class="cls-17" d="M184,452s-19,10-22,35l-8,4,9,82,7,1s-18,75,37,74,115-43,115-43l21-20-11-15-72,9,1-6,12-9V545l19,10,65-36-5-17-49,16s-20-67-50-69-21,14-21,14-16,25-31,3l-2-15Z"/>
    <path class="cls-15" d="M187.1,642.48S255.65,660,313.82,608L380,660l13-7,9,6-7,28s-42-56-87-57c0,0-51.92,35.8-90,33.9S177.21,652,187.1,642.48Z"/>
    <path class="cls-13" d="M253,581l74.51-11.1L385,632l29-13s11-32,29-40l11,15,22-8-15-16s55,5,55,27l18,9-5-26-47-52s-14-11-36,6-31,17-31,17l-26-34-7-7-16,13-13.5-1.29-66,32.13L269,545l.2,23.71Z"/>
    <path class="cls-13" d="M298.27,502.32,346,490l12,1-7-23,11-11,1-33s2,9,70,33l9-18-7-28-53-54-9-34-22-16,5-12-9-23-7,4-24,59,10,45L293.4,490.14Z"/>
    <path class="cls-15" d="M329,287s-46-6-82,123c0,0-5,33-11,42l3,5,14-12s27.82,12.46,39.91,41.73l9.26-16.57L326,380s-22.19-59.58,5.4-83.79Z"/>
    <polygon class="cls-13" points="289 279 292.05 308.25 309.11 293.38 289 279"/>
    <polygon class="cls-15" points="354.16 288.13 366 295 366 308 351 307 354.16 288.13"/>
    <path class="cls-8" d="M299.34,506,346,490l12,1,103-37-2-9,11-4,5,6,6,5,65-21,2,8-61,25v7l-80,28,24,42-20,9-25-41s-16-10-21-10-23,3.81-23,3.81L303,518Z"/>
    <polygon class="cls-8" points="343 584 385 632 397 649 380 660 319.16 608.48 343 584"/>
    <polygon class="cls-8" points="400.15 625.22 428 615 427 628 406 641 400.15 625.22"/>
    <polygon class="cls-15" points="417 636 423 645 402 659 388.37 631.03 400 625 407 643 417 636"/>
    <path class="cls-8" d="M189,424l55.19,8.21S248,389,221,392,192,403,189,424Z"/>
    <path class="cls-15" d="M194,427s10,23,21,20,29-15,29-15Z"/>
    <path class="cls-18" d="M197,442l3,28L218.66,476,237,456V441S221,452,197,442Z"/>
    <polygon class="cls-8" points="191 1023 189 1053 234 1052 214 1020 191 1023"/>
    <polygon class="cls-8" points="268 1021 270 1052 321 1052 302 1021 268 1021"/>
    <polygon class="cls-8" points="455 598 473.56 587.98 495 600 464 619 455 598"/>
    <polygon class="cls-8" points="516.59 598.27 503 615 529 628 531 607 516.59 598.27"/>
    <path class="cls-13" d="M1651.1,1021h-34l7-19s41-46,42-64,3-37,3-37l62-55,16-57-22,27s-32,20-34,30l-39,17-28-61s-93-57-95-117c0,0,42-58,82-55,0,0,56,49,124,26,0,0,69,58,57,126,0,0-17,42-40,53l23,66,11,17s-6,29-25,48-33,57-33,57l-23-3s17-44,17-63l18-33s-11-35-23-38l-15,53S1649.1,994,1651.1,1021Z"/>
    <path class="cls-14" d="M1748.1,784s-35.93,40.38-29,73.19C1719.14,857.19,1749.1,814,1748.1,784Z"/>
    <path class="cls-15" d="M1725.1,816l-5.53,26-34.47,23S1706.1,820,1725.1,816Z"/>
    <polygon class="cls-16" points="1719.11 857 1685.11 865 1719.11 842 1719.11 857"/>
    <path class="cls-14" d="M1691.1,846l-10,23s-53,8-70,45l-35,23S1617.1,865,1691.1,846Z"/>
    <path class="cls-15" d="M1710.24,863.41,1693.1,884s-50-2-65,31-23,31-23,31,9-56,35-64S1710.24,863.41,1710.24,863.41Z"/>
    <path class="cls-16" d="M1684.18,884.93s-39.23-.13-58.65,33S1610.1,973,1610.1,973s23-48,42-59S1684.18,884.93,1684.18,884.93Z"/>
    <path class="cls-16" d="M1608.93,916.31,1602.1,945l-23,33s1-47,10-54A40.07,40.07,0,0,1,1608.93,916.31Z"/>
    <path class="cls-14" d="M1608.48,943.36S1579.1,967,1578.1,988s32-26,32-26Z"/>
    <path class="cls-17" d="M1735.1,452s19,10,22,35l8,4-9,82-7,1s18,75-37,74-115-43-115-43l-21-20,11-15,72,9-1-6-12-9V545l-19,10-65-36,5-17,49,16s20-67,50-69,21,14,21,14,16,25,31,3l2-15Z"/>
    <path class="cls-15" d="M1732,642.48S1663.46,660,1605.28,608l-66.18,52-13-7-9,6,7,28s42-56,87-57c0,0,51.92,35.8,90,33.9S1741.9,652,1732,642.48Z"/>
    <path class="cls-13" d="M1666.1,581l-74.5-11.1L1534.1,632l-29-13s-11-32-29-40l-11,15-22-8,15-16s-55,5-55,27l-18,9,5-26,47-52s14-11,36,6,31,17,31,17l26-34,7-7,16,13,13.51-1.29,66,32.13L1650.1,545l-.2,23.71Z"/>
    <path class="cls-13" d="M1620.83,502.32,1573.1,490l-12,1,7-23-11-11-1-33s-2,9-70,33l-9-18,7-28,53-54,9-34,22-16-5-12,9-23,7,4,24,59-10,45,32.61,110.14Z"/>
    <path class="cls-15" d="M1590.1,287s46-6,82,123c0,0,5,33,11,42l-3,5-14-12s-27.82,12.46-39.91,41.73l-9.25-16.57L1593.1,380s22.2-59.58-5.4-83.79Z"/>
    <polygon class="cls-13" points="1630.11 279 1627.05 308.25 1609.99 293.38 1630.11 279"/>
    <polygon class="cls-15" points="1564.94 288.13 1553.11 295 1553.11 308 1568.11 307 1564.94 288.13"/>
    <path class="cls-8" d="M1619.77,506l-46.67-16-12,1-103-37,2-9-11-4-5,6-6,5-65-21-2,8,61,25v7l80,28-24,42,20,9,25-41s16-10,21-10,23,3.81,23,3.81l39,15.19Z"/>
    <polygon class="cls-8" points="1576.11 584 1534.11 632 1522.11 649 1539.11 660 1599.95 608.48 1576.11 584"/>
    <polygon class="cls-8" points="1518.95 625.22 1491.11 615 1492.11 628 1513.11 641 1518.95 625.22"/>
    <polygon class="cls-15" points="1502.11 636 1496.11 645 1517.11 659 1530.73 631.03 1519.11 625 1512.11 643 1502.11 636"/>
    <path class="cls-8" d="M1730.1,424l-55.18,8.21S1671.1,389,1698.1,392,1727.1,403,1730.1,424Z"/>
    <path class="cls-15" d="M1725.1,427s-10,23-21,20-29-15-29-15Z"/>
    <path class="cls-18" d="M1722.1,442l-3,28L1700.45,476,1682.1,456V441S1698.1,452,1722.1,442Z"/>
    <polygon class="cls-8" points="1728.11 1023 1730.11 1053 1685.11 1052 1705.11 1020 1728.11 1023"/>
    <polygon class="cls-8" points="1651.11 1021 1649.11 1052 1598.11 1052 1617.11 1021 1651.11 1021"/>
    <polygon class="cls-8" points="1464.11 598 1445.54 587.98 1424.11 600 1455.11 619 1464.11 598"/>
    <polygon class="cls-8" points="1402.51 598.27 1416.11 615 1390.11 628 1388.11 607 1402.51 598.27"/>
    <polyline class="cls-18" points="354.62 504.98 359.2 524.94 373.75 510.8 369.18 499.98 354.62 504.98"/>
    <polyline class="cls-18" points="1552.15 501.64 1548 522 1557 526 1567.11 502 1552.15 501.64"/>
  </g>
  <g id="Layer_4" data-name="Layer 4">
    <polygon class="cls-18" points="1073 800 1096 864 1138 903 1166 884 1155 875 1113 831 1107 785 1073 800"/>
    <path class="cls-18" d="M927,784l-21,58-1,10-48,19-3,47s21-6,27-11,33-17,33-17l15-30,43-80-8-4Z"/>
    <path class="cls-4" d="M814,431s-4,53-9,57l17,11,10-12s36,18,66,10l24,171L903,793l14.09,13.59L927,784l37-8,35,37,66-2,13.4-15,28.6-11,22-34-98-268,15-33,42-8,8-50-8-9-4,33-10,8-22-19,1-35-26,7v7l-46,18s-5,40-30,43-34-44-34-44-61,18-84,36l-13-7Z"/>
    <polygon class="cls-18" points="1074 424 1088.28 403.45 1090 284 1103 255 1088 235 1073 255 1081 278 1071 292 1050 400 1074 424"/>
    <path class="cls-18" d="M813.6,440.25,728,403l1-33-14-10,4,72,85,46S812.19,481.5,813.6,440.25Z"/>
    <path class="cls-18" d="M712,366l-8,51-8-3-11-24S700,367,712,366Z"/>
    <rect class="cls-13" x="703" y="299" width="17" height="163"/>
    <rect class="cls-13" x="599" y="169" width="230" height="136"/>
    <path class="cls-18" d="M918.81,403.52s4.81,42.39,37,39.44S979,394,979,394l-2-12,7-13-11-3,1-8,15-14s1-33-22-40c-13.72-4.17-23.86,16-33,30-3.45,5.27-12.19-.51-13,6-.65,5.17,7.29,15,8,20C933,388,925.62,401,918.81,403.52Z"/>
    <path class="cls-19" d="M929.75,383.08S926,350,918,339l16-3s13-38,27-36,28.89,22.26,26.45,37.63S1001,326,1001,326l17-20s-47-35-76-22-46,42-39,62S929.75,383.08,929.75,383.08Z"/>
    <path class="cls-19" d="M986,396l-5.82-20.61L987,362l38-39s16,39,29,43l-1,4-26,7v7Z"/>
    <path class="cls-19" d="M1102,397s50,48,17,110c0,0-34,38.31-59.51,44.16L1031,483l15-33,42-8Z"/>
    <path class="cls-20" d="M1089,230l35-53s14-39,37-1-17,31-17,31l-45.9,40.75L1087,232Z"/>
    <polygon class="cls-20" points="972.88 362.43 1067 252 1077.31 270.74 977.97 370.07 972.88 362.43"/>
  </g>
  <g id="Layer_2" data-name="Layer 2">
    <polygon points="1048.56 456.08 1022.91 425.97 1022.91 374.31 1054.52 367.1 1056.3 374.9 1030.91 380.69 1030.91 423.03 1051.27 446.92 1083.59 437.32 1094.51 393.63 1083.97 382.21 1089.85 376.79 1103.32 391.38 1090.24 443.68 1048.56 456.08"/>
    <path d="M1078.63,435.87l-31-30-1.15-3.62,22-116,.61-1.47,5.18-7.77c-.85-6.21-4-19.53-11.21-24.78l2.35-7.23a26.38,26.38,0,0,1,7.07,1.17l-1.23-.81,3.77-7a4,4,0,0,0-.44-.54l5.16-6.08h0l2.62-4.64c1.87.47,3.64,2.2,5.24,4.52,6.79,7.13,16.79,18.78,16.79,25.36,0,7.08-7.65,23.91-10,28.92-.12,10.89-1.25,105.56-6.13,124.1l-7.73-2c4.81-18.3,5.85-122,5.86-123l.39-1.68c3.72-7.81,9.61-21.84,9.61-26.28,0-1.14-1.33-3.53-3.51-6.59l-2.88.47c.06.13.12.26.17.39a7.27,7.27,0,0,1,1.22,3.73l-5.32,1.05a30.47,30.47,0,0,1,.32,3.95l-7.75,1.37a11.84,11.84,0,0,0-.93-2,68.81,68.81,0,0,1,4.67,18.21l-.66,2.6-5.55,8.32-21.44,113.09,29.45,28.5Z"/>
    <rect x="1067.06" y="409.68" width="28.45" height="8" transform="translate(124.06 1064.84) rotate(-55.16)"/>
    <path d="M980.12,372h-1.71c-4.3,0-7.47-1.3-9.41-3.88a9.83,9.83,0,0,1-1.43-8.22l.25-.87,95.6-107.69,19.21-22.22c.3-.28,29.41-28.69,39-58.35l7.61,2.46c-10,30.85-38.41,59.09-40.89,61.52l-18.89,21.86L975.23,362.73a1.05,1.05,0,0,0,.16.58,2.41,2.41,0,0,0,1.44.57l95.68-99.37,5.77,5.55Z"/>
    <path d="M1150.18,211.82a24.17,24.17,0,0,1-9.15-1.88,34.45,34.45,0,0,1-20.21-35c1-7.2,4.62-13,10.23-16.18s12.39-3.51,19.13-.77A33.09,33.09,0,0,1,1166,172.21h0a33.05,33.05,0,0,1,4.43,20.79c-1,7.2-4.62,12.95-10.23,16.18A19.76,19.76,0,0,1,1150.18,211.82Zm-9.13-47.7a11.83,11.83,0,0,0-6,1.56c-3.42,2-5.66,5.64-6.3,10.34a26.5,26.5,0,0,0,15.3,26.52c4.4,1.79,8.7,1.69,12.11-.29s5.66-5.64,6.3-10.34a25,25,0,0,0-3.43-15.7h0a25,25,0,0,0-11.87-10.82A16.24,16.24,0,0,0,1141.05,164.12Z"/>
    <path d="M1101.44,250.62l-6-5.24c1.09-1.26,27.09-30.94,61.69-43.15l2.67,7.54C1127.18,221.26,1101.69,250.33,1101.44,250.62Z"/>
    <path d="M974.41,390c-16.36,0-29.76-5.1-39.82-15.17l5.65-5.66c8.36,8.35,19.58,12.67,33.38,12.83,2.35-2.38,7.23-13.54,11-25.22l7.61,2.44C982.33,390,976.58,390,974.41,390Z"/>
    <path d="M974.31,359.19A15.69,15.69,0,0,1,964,355.57c-2-1.81-4.9-5.9-2.34-12.94l7.51,2.74c-1.06,2.93-.2,3.85.08,4.15a7,7,0,0,0,4.22,1.61c-.51-2.58-1.75-6.68-2.57-9.41a83.78,83.78,0,0,1-2.43-9.06,6.82,6.82,0,0,1,1.69-5.82c3.91-4.32,13.63-4,16.52-3.83l-.53,8h0c-3.77-.24-8.11.22-9.67,1,.39,1.86,1.24,4.69,2.07,7.44,3.16,10.43,5.06,16.72.18,19A11,11,0,0,1,974.31,359.19Z"/>
    <path d="M945.24,332.83l-5.65-5.66c9.91-9.91,20.9-5.83,25.32-2.29l-5,6.26C959.19,330.56,952.39,325.68,945.24,332.83Z"/>
    <path d="M954.41,419c-4.9,0-8.11-3.41-9.78-6.45-6.89-1.27-14-2.5-15.26-2.55l0-8c2.14,0,13.82,2.15,18.74,3.07l2.31.43.75,2.23s1.24,3.27,3.2,3.27,3.21-3.26,3.22-3.3l.63-1.79,1.81-.68,14-5,2.69,7.54-12.37,4.41C962.79,415.3,959.52,419,954.41,419Z"/>
    <path d="M952.83,448c-25,0-37.31-22.79-38.41-45.84l-.1-2.16,11.47-8.34a77.06,77.06,0,0,0-2-32.8c-2.53-3.19-9.85-13.24-8.13-20.5a8.66,8.66,0,0,1,5.12-6.05c4.28-1.9,7.33-1.51,9.32-.61C934.73,319,945.8,296.37,965.75,298c8.14.68,18.84,5.45,23.6,24.32a80.18,80.18,0,0,1,2.17,21l-8-.38c0-.35,1.41-35.29-18.45-36.94-8.21-.69-15.64,4.89-22.09,16.56A89.67,89.67,0,0,0,935.3,342l-3.7,15.1a82.2,82.2,0,0,1,1.71,37.87l-.34,1.44-10.43,7.58c2.08,27.46,18.22,36.63,31.71,36.06,18.87-.78,21-32.88,21.15-36.73l-2.93-16.57,7.88-1.4,3.07,17.4v.4a84.33,84.33,0,0,1-3.69,21.25c-6.07,18.93-17,23.31-25.14,23.65ZM926.49,339a6.54,6.54,0,0,0-2.45.69c-.51.22-.54.37-.59.57-.45,1.9,1.41,6,4,10V341a3.47,3.47,0,0,0-.61-2A.74.74,0,0,0,926.49,339Z"/>
    <path d="M929.48,377.68a49.49,49.49,0,1,1,74.73-55.8l7.06-4.08a57.49,57.49,0,1,0-82.12,69Z"/>
    <path d="M928.17,363.43l3.58-.53a36.49,36.49,0,1,1,61.66-26.4c0,.78,0,1.55-.08,2.32l7.61-8.76a44.5,44.5,0,1,0-72.47,40.63Z"/>
    <path d="M1034.12,379.28c-21.1-14.77-26.42-42.38-26.64-43.55l7.87-1.46c0,.25,5,25.59,23.36,38.45Z"/>
    <path d="M1014.39,313c-23.49-26-56.63-26-56.93-26l-.1-8c1.5,0,37-.13,63,28.6Z"/>
    <path d="M1056.08,370.87c-23.31-9.44-36-49-36.48-50.67l7.63-2.4c.12.38,12,37.63,31.85,45.65Z"/>
    <path d="M1015.81,389c-16-13.7-19.27-40.4-19.4-41.53l8-.93h0c0,.41,3.12,24.78,16.66,36.38Z"/>
    <path d="M982.25,405.82l-5.68-5.64c.56-.56,14.09-13.86,49.63-19.06l1.16,7.91C994.44,393.86,982.37,405.7,982.25,405.82Z"/>
    <path d="M998.71,393.62c-6.78-3.38-12.85-23.2-15.15-31.56l7.71-2.12c3.48,12.65,8.64,25.05,11.05,26.54Z"/>
    <rect x="979.41" y="381.92" width="8" height="16.05" transform="translate(-74.16 416.17) rotate(-23.05)"/>
    <path d="M1098,390.49l-2.32,8.44a83.94,83.94,0,0,1-42.45,147.23l2.42,7.74A92,92,0,0,0,1098,390.49Z"/>
    <path d="M1093.29,407.48l-2.44,8.85a64.44,64.44,0,0,1-44.3,108.6l2.46,7.87a72.44,72.44,0,0,0,44.28-125.32Z"/>
    <path d="M1085.16,437a47.47,47.47,0,0,1-41.25,71c-.9,0-1.8,0-2.69-.08l2.53,8.08h.16A55.46,55.46,0,0,0,1088,426.8Z"/>
    <path d="M1069.64,446.08a29.49,29.49,0,0,1-34.45,42.6l2.77,8.84a37.47,37.47,0,0,0,43.45-37,37.14,37.14,0,0,0-3.44-15.66Z"/>
    <path d="M1043.41,450v0c.17,0,.33,0,.5,0a10.5,10.5,0,1,1-6.23,18.93l-2.4,7.92a18.47,18.47,0,0,0,22.15-28.94Z"/>
    <polygon points="1074.74 803.93 1036.19 704.95 1043.64 702.05 1079.09 793.07 1104.21 781.35 1124.51 750.89 1087.14 635.83 1029.12 483.97 1043.29 448.46 1050.72 451.43 1037.71 484.03 1094.72 633.26 1133.32 752.11 1109.62 787.65 1074.74 803.93"/>
    <polygon points="996.6 821.39 1003.37 781.94 983.45 642.57 991.37 641.43 1011.46 782.06 1006.23 812.61 1062.63 808.13 1074.59 796.17 1080.24 801.83 1066.2 815.87 996.6 821.39"/>
    <polygon points="999.41 819.64 962.24 777.31 970.38 706.03 960.45 629.52 968.38 628.48 978.44 705.97 978.39 706.45 970.59 774.69 1005.42 814.36 999.41 819.64"/>
    <polygon points="914.59 809.83 894.59 789.83 965.44 772.12 967.38 779.88 910.24 794.17 920.24 804.17 914.59 809.83"/>
    <rect x="809.59" y="679.5" width="219.65" height="8" transform="translate(101.84 1486.03) rotate(-81.1)"/>
    <path d="M916.44,678.48,894.94,501.6c-38.68,5.44-64.45-9.5-65.56-10.16l4.07-6.88c.26.15,26.34,15.14,64.27,8.5l4.16-.73,22.5,185.19Z"/>
    <path d="M837,439,831.82,433c11.61-9.9,29.46-18.61,53-25.91a296.68,296.68,0,0,1,31.85-8l1.41,7.88C917.57,407,862.86,417,837,439Z"/>
    <path d="M1142.64,906c-10.47,0-20.44-11-30.09-21.63-5.18-5.71-10.07-11.11-14.41-14.11-13.84-9.58-26.38-58.54-27.77-64.09l7.76-1.93c4.95,19.83,16,53.51,24.56,59.44,5.1,3.53,10.29,9.25,15.79,15.31s11.41,12.58,16.82,16.2l4.26-4.6,3.77,2.4,2-1.63-2.16-3.11,5.57-5.57,4.39,3,3.23-3.27,1.36.73a13.86,13.86,0,0,0-3.31-3.78c-5.21-3.12-33.9-28.49-41.47-42.53-7.31-13.59-10.34-50-10.46-51.58l8-.64c.82,10.06,4.12,38.37,9.54,48.42,6.51,12.09,34.1,36.81,38.53,39.47,5.82,3.49,11.53,16.32,12.62,18.85l-5.57,5.1-4-2.17-3.69,3.35-4.43,4.73-2.7-1.62-4.39,3.57-1.42-.91L1143.7,906C1143.35,906,1143,906,1142.64,906Z"/>
    <path d="M859.41,922c-5,0-11-3.89-12.21-4.67l-.82-5.93.62-.71-3.33-4.09a22,22,0,0,1,5-7.48l-1.09-.54-1.88-5.16a17.84,17.84,0,0,1,5.29-6.81l-.74-4.11a22.21,22.21,0,0,1,4.08-3.88l-.78-.79-.5-5.05A22.5,22.5,0,0,1,869,864c5.6-.62,22.24-9.38,32.63-15.42l.83-9.93.49-1.61,4.83-8.7,14.38-41.66,7.56,2.61-14.49,42-.29.64-4.58,8.25-.93,11.14-1.95,3.11c-2.84,1.68-28,16.47-37.59,17.54a15.67,15.67,0,0,0-7.81,3l2.19,2.19L861.41,884a2.83,2.83,0,0,0-1.22.4l.28.17L858.41,892a4.55,4.55,0,0,0-3.11,1.47l3.9,1.95-1.12,6.89,1.73-.26,1.39,7.87c-1.4.28-3.35,1.6-5.14,3.13a11.05,11.05,0,0,0,3.06.94c1.79-.65,7.48-4.29,12.08-7.24,10.23-6.56,23-14.72,31.31-16.65,4.42-1,13.84-8.56,21.11-30.36,2.06-6.19,39.09-72.19,43.31-79.7l7,3.92c-15.76,28.06-41.28,74.13-42.69,78.31A107,107,0,0,1,923,880.63c-5.74,9.92-12,15.73-18.69,17.27-7,1.61-19.6,9.69-28.79,15.58C865.64,919.81,862.09,922,859.41,922Zm-.49-8Z"/>
    <path d="M825,506.92l-25.28-17.3,7.71-24.24V428.5l22.87-3.05.12,4.08,4.33-2.88,11,37.71Zm-15.85-20.54,12.72,8.7,15.29-31.44-6.38-22c.29,10.12.65,22.7.65,23.36h-8c0-.87-.48-17.34-.86-30.46l-7.14.95v31.12Z"/>
    <path d="M809.63,444.58c-2-1-59.76-27-81.86-36.93l-2.43-1.1,1-35c-3.09-3.08-7.3-5.93-9.3-5.59l-1.31-7.9c7.78-1.3,16.06,7.51,17.64,9.29l1.06,1.19-1,32.92c15,6.75,77.83,35,79.71,36Z"/>
    <path d="M802,481.74a329.1,329.1,0,0,1-31.43-14.44c-23.29-12.16-41.15-24.8-53.07-37.57l5.85-5.46c27,29,81,49.79,81.5,50Z"/>
    <path d="M700.36,422a83.56,83.56,0,0,1-10.87-12c-7.26-9.82-9.93-18.58-7.94-26,3.85-14.42,14.9-17.39,20.2-17l1.31.11,1,.87a88.38,88.38,0,0,1,8,8.16c3.85,4.52,8.65,11.15,5.91,16.64a6.11,6.11,0,0,1-5.08,3.54c-3,.21-8.11-1.89-15.79-13.06l6.57-4.52c-1.16-1.23-2.43-2.49-3.77-3.72-2.53.27-8.22,1.9-10.64,11-2.75,10.31,10.88,25.13,16.37,30Zm3.45-43.12a56.51,56.51,0,0,0,5.21,6.43A52.61,52.61,0,0,0,703.81,378.88Z"/>
    <path d="M719.29,390l-7.48-2.82c.45-1.24,4.18-12.4-6.19-17.58-3.82-1.92-5.63-2.09-6.29-2.07a3.12,3.12,0,0,0,0,.71l-7.85,1.56c-.52-2.6-.09-6.44,2.84-8.67,4.84-3.7,12.39.07,14.87,1.31C722.83,369.23,721.76,383.43,719.29,390Z"/>
    <path d="M716.44,383.19a6,6,0,0,1-.75-.05l1.06-7.93a1.33,1.33,0,0,0-1.46.67s.6-1.7-1.61-7.44c-1.25-3.24-2.88-3.74-3.42-3.9-3.23-1-8.08,1.7-9.53,2.72l-4.64-6.51c.89-.64,8.91-6.15,16.46-3.88,2.71.81,6.4,3,8.6,8.69,2.78,7.23,3,12,.53,15.1A6.72,6.72,0,0,1,716.44,383.19Z"/>
    <path d="M704.9,365.13l-5-6.26c.92-.73,9.25-7.15,16.79-5,2.56.73,6,2.74,8,8.2l-7.54,2.69c-1-2.72-2.21-3.08-2.62-3.19C711.7,360.74,706.82,363.61,704.9,365.13Z"/>
    <polygon points="724.41 467 700.21 467 700.21 382.8 708.21 382.8 708.21 459 716.41 459 716.41 369 724.41 369 724.41 467"/>
    <polygon points="724.41 364 700.21 364 700.21 299.8 708.21 299.8 708.21 356 716.41 356 716.41 301 724.41 301 724.41 364"/>
    <path d="M831.59,306h-239V164h239Zm-231-8h223V172h-223Z"/>
    <path d="M712.09,267a43,43,0,1,1,43-43A43,43,0,0,1,712.09,267Zm0-78a35,35,0,1,0,35,35A35,35,0,0,0,712.09,189Z"/>
    <rect x="708.09" y="238" width="8" height="55"/>
    <rect x="694.59" y="274" width="35" height="8"/>
    <g>
      <path d="M715.52,243.06S691.73,247,691.73,229s8-4,8-4-3-25,10-14c0,0,8-4,8,6,0,0,8-8,8,3,0,0,7-8,6,3S739.32,243.12,715.52,243.06Z"/>
      <path d="M710.22,244.44c-4.42,0-10.59-.76-14.82-4.34-3.1-2.63-4.67-6.37-4.67-11.1,0-6.42.95-9.54,3.08-10.11,1.64-.43,3.33,1,4.64,2.51-.18-4.57.13-11.78,3.71-13.71,2-1.08,4.61-.36,7.73,2.15,1.19-.45,3.86-1.21,6,.12,1.48.92,2.39,2.59,2.7,5,1.46-1.07,3.65-2.27,5.5-1.5,1.37.56,2.2,2,2.5,4.33,1.23-1,2.92-2,4.34-1.39,2.06.89,2,4.25,1.78,6.71a34,34,0,0,0,.35,7.26c.46,3.74.9,7.28-1.38,9.85s-7.38,3.88-16.09,3.86A35.81,35.81,0,0,1,710.22,244.44Zm-15.75-23.63-.14,0c-.17,0-1.6.64-1.6,8.17,0,4.12,1.33,7.34,4,9.57,6.42,5.45,18.55,3.52,18.67,3.5h.17c8,0,12.71-1,14.66-3.19,1.68-1.89,1.34-4.71.9-8.28a35.3,35.3,0,0,1-.36-7.68c.38-4.23-.54-4.67-.58-4.69-.63-.27-2.46,1.06-3.67,2.44l-1.75,2V220c0-2.67-.5-4.35-1.39-4.72-1.33-.54-3.88,1.4-4.91,2.43l-1.7,1.7V217c0-2.77-.63-4.56-1.87-5.33-1.85-1.15-4.66.21-4.69.23l-.59.29-.5-.43c-1.82-1.54-4.34-3.19-6-2.31-2.89,1.56-3,10.29-2.38,15.43l.59,4.89-2.45-4.27C697.54,223.2,695.48,220.81,694.47,220.81Z"/>
    </g>
    <path d="M268.31,866.25l-6.62-4.5c.17-.24,16.8-24.88,25.52-51,8.47-25.42-5.84-67-6-67.42l7.56-2.64c.63,1.81,15.34,44.61,6,72.58C285.72,840.48,269,865.21,268.31,866.25Z"/>
    <path d="M314,989.35l-8-.7c0-.08.72-11.11-7.58-28.1-14-28.66-42.36-51.84-63.68-66.24-44.67-30.16-61-71.51-66.79-100.88-6.29-31.76-2.09-56.11-1.91-57.13l7.88,1.4c0,.24-4.13,24.13,1.93,54.47,8.09,40.44,29.41,72.58,63.37,95.52C317.29,940.4,314.16,987.37,314,989.35Z"/>
    <path d="M196.42,856.4c-1.78-26.14-8.94-42.73-14.65-52-6.13-10-11.92-14-12-14l4.4-6.68c1.08.71,26.53,18,30.21,72.21Z"/>
    <path d="M235.41,869.52c-3,0-7.52-1.64-14.09-7.55-9.3-8.37-21.63-13.19-21.76-13.24l2.88-7.46c.56.21,13.81,5.37,24.24,14.76,6.17,5.55,8.63,5.44,8.65,5.45a2.06,2.06,0,0,0-1.16.69l5.66,5.66A6.05,6.05,0,0,1,235.41,869.52Z"/>
    <path d="M311,952.56c-8.44-60-31.44-66.55-51.73-72.31l-1.41-.4c-20.84-6-55.91-17.62-56.26-17.74l2.53-7.59c.35.11,35.25,11.73,55.93,17.63l1.39.4C283,878.67,309.8,886.28,319,951.44Z"/>
    <path d="M314.37,986.33l-7.92-1.14c.05-.37,5-37.56-17.65-67.79C266.34,887.45,228.38,887,228,887v-8c1.71,0,42.29.38,67.2,33.6C319.91,945.55,314.61,984.68,314.37,986.33Z"/>
    <path d="M233.44,869.82c-23.55-46.16-42.1-52.49-42.28-52.55l2.23-7.68c.88.25,21.67,6.61,47.17,56.59Z"/>
    <path d="M346.09,945.75c-.21-.23-21.38-22.42-41-27.47l2-7.75c7.6,2,15.21,6,21.95,10.51-44.81-56.28-102.31-69.58-103-69.73l1.73-7.81c.79.18,19.65,4.44,44.54,18.6A220.26,220.26,0,0,1,352.44,941Z"/>
    <path d="M339,1000.64c-5.95-6.75-23-24.94-30.49-27.93l3-7.42c6.56,2.62,17,12.55,24.51,20.34-6.2-20.62-24.7-40.66-24.93-40.9l5.85-5.46C318.11,940.54,346,970.74,346,998Z"/>
    <path d="M341.68,980.58l-7.36-3.16c8.11-18.91-8.22-48.29-8.39-48.59l7-3.93C333.66,926.24,351.35,958,341.68,980.58Z"/>
    <path d="M190.5,851.71A145.25,145.25,0,0,1,156,830.46C133.08,811.52,121,788.54,121,764c0-58.12,57.86-110.76,60.33-113l5.34,6c-.57.52-57.67,52.51-57.67,107,0,53.68,63.85,80,64.5,80.29Z"/>
    <path d="M324,1057H267l-4-4.11,1-34.94c-.06-20.43-33.07-55.64-43.92-67.21-12.2-13-16.29-36.63-19.27-53.86-.95-5.47-1.76-10.2-2.69-13.91-3.9-15.61-15.76-48.27-15.88-48.6l7.52-2.74c.49,1.36,12.12,33.38,16.12,49.4,1,4,1.84,8.86,2.81,14.48,2.81,16.24,6.66,38.48,17.23,49.75C245.7,966.37,272,996.86,272,1018v.11l-.88,30.89h44.77l-18.06-23.57-.82-2.68c.23-3.91-.33-15.09-5.64-19.74-6.38-5.58-58.67-65.35-44.77-103.58l7.51,2.73C242.61,933.83,288,989.41,296.63,997c7.86,6.87,8.45,20.15,8.41,24.7l22.13,28.88Z"/>
    <rect x="269.95" y="1019.2" width="31.05" height="8" transform="translate(-13.46 3.85) rotate(-0.76)"/>
    <path d="M197.15,1027.64a41.39,41.39,0,0,1-8-.73l-3.14-3.55c-1.27-13.9-16.09-37.71-44.07-70.78-15.5-18.31-13.74-37.81-5.12-49,7.83-10.18,21.62-53.07,26.27-68.73l7.67,2.27c-.7,2.36-17.27,57.9-27.6,71.34-9.24,12-4.21,28.23,4.88,39,37.7,44.55,44.14,63.84,45.54,72,3.47.33,9.66.43,15.09-2-3.27-6.58-9.87-21.16-10.67-33.16-1-14.47-14.69-48.08-17.85-51.45-6.15-6.15-7.73-21.9,8-37.65,12.6-12.6,6.55-24.8,6.29-25.31l7.07-3.74a26.37,26.37,0,0,1,2.59,11.17c.14,5.91-1.54,14.79-10.29,23.54-7.45,7.44-9.54,13.75-10,17.74-.52,4.71,1.07,7.69,2,8.6,5.09,5.09,19.13,41.06,20.16,56.56.93,14,11.41,33.15,11.51,33.34l-1.21,5.21C210.07,1026.63,202.66,1027.64,197.15,1027.64Z"/>
    <polygon points="237 1056 187 1056 183.02 1051.59 186.02 1022.59 193.98 1023.41 191.44 1048 229.34 1048 210.72 1021.29 217.28 1016.71 240.28 1049.71 237 1056"/>
    <path d="M294.27,809,291,801.69h0c.36-.17,20.07-9.31,43.08-31.54,21.29-20.57,49.87-56.91,65.08-113.19l7.72,2.08c-15.73,58.23-45.4,95.84-67.52,117.13C315.27,799.34,295.12,808.59,294.27,809Z"/>
    <path d="M388.29,691.89c-.26-.53-26.67-53.16-82.63-57.9l.68-8c25.09,2.13,48.46,13.59,67.58,33.14,14.39,14.7,21.27,28.65,21.56,29.24Z"/>
    <path d="M222,667c-25.3,0-38.61-3.93-41.88-12.36-2.46-6.33,2.1-12.78,5.18-15.59l5.4,5.9c-1.38,1.28-4,4.65-3.12,6.81C188.06,653,192,659,222,659c54.64,0,99.64-47.26,100.08-47.74l5.84,5.48C326,618.79,280.06,667,222,667Z"/>
    <path d="M211,651c-16.54,0-29.05-5.3-37.18-15.74-17.13-22-8.09-58.69-7.7-60.24l7.76,2L170,576l3.88,1c-.09.34-8.47,34.48,6.27,53.38C186.68,638.75,197.06,643,211,643c56.72,0,100.9-38.6,101.34-39l5.32,6C315.77,611.66,270.83,651,211,651Z"/>
    <path d="M380.35,663.64c-4.39,0-6.57-2.79-10.55-7.84-1.5-1.9-3.36-4.27-5.85-7.22-10.48-12.37-62.54-44.86-63.06-45.18l4.22-6.8c2.19,1.37,53.67,33.49,64.94,46.82,2.59,3.05,4.5,5.48,6,7.44,1.77,2.25,3.61,4.58,4.23,4.8a7.51,7.51,0,0,0,2.58-.51c2.55-.72,11.17-7.68,17.46-12.75,10.4-8.39,17.41-13.89,22.15-15.78a33.79,33.79,0,0,0,3.63-6.56c-7,1.37-27.35,9.18-44.55,16.61l-3.18-7.34c.11-.05,11.21-4.83,22.77-9.31,24.72-9.57,27.48-8.46,29.31-7.73a6.19,6.19,0,0,1,3.75,4.16c1.46,5.19-3.74,12.88-6,15.95L426,633.88c-3.34.84-13.31,8.87-20.59,14.74-10,8.09-16.37,13.11-20.28,14.23A17.59,17.59,0,0,1,380.35,663.64Z"/>
    <polygon points="380 631.65 328.45 573.28 245.6 585.95 244.4 578.05 331.55 564.72 386 626.35 380 631.65"/>
    <path d="M315.21,611l-.42-8,.21,4-.23-4c.66,0,16.39-1.28,22.42-20.22l7.62,2.42C337.06,609.57,316.1,611,315.21,611Z"/>
    <path d="M216.4,584.36q-7.29,0-15.09-.62a210,210,0,0,1-39.45-6.91l-1.49-.44-.8-1.33c-9.32-15.53-8.67-76.25-8.57-83.12l0-2.26,1.95-1.14c22.12-12.89,28.05-40.08,28.1-40.36l.73-3.43,16.5,1.26-.62,8-9.65-.74c-2.37,8.17-10,28.85-29.07,41-.17,18.85.75,62.33,6.76,75.35a211.93,211.93,0,0,0,36.38,6.17c18.69,1.48,44.82.71,64.81-11L266,540.15l8-.3,1.08,29.3-1.94,1.23C258.48,579.68,239.44,584.36,216.4,584.36Z"/>
    <path d="M165.89,486.11l-8-.22c.5-17.43,7.46-27.28,13.2-32.48a31.83,31.83,0,0,1,13-7.31l1.76,7.8L185,450l.9,3.9C185.12,454.08,166.67,458.81,165.89,486.11Z"/>
    <path d="M204.4,464c-.63-.54-15.4-13.51-15.4-40h8c0,22.9,12.48,33.85,12.6,34Z"/>
    <path d="M293.86,558.09l-13.6-1.23-1-1c-1.47-1.39-36-34.23-40.21-60.28-3.22-20.14,7.64-36.41,13.59-43.59l-2.45-1.36-11.59,7.73c-1.9,8-8.81,20.72-24.38,21.58-7.2.41-11.51-2.52-13.86-5-6.92-7.46-5.51-20.06-5.33-21.47l7.94,1-4-.52,4,.51c-.36,2.82-.46,11,3.27,15,1.73,1.86,4.2,2.67,7.54,2.49,14.48-.81,17.16-16,17.27-16.65l.28-1.71,1.45-1,17-11.35,15.89,8.83-3.95,3.75c-.17.17-18.41,17.92-14.8,40.47,3.38,21.1,31.22,49.28,36.82,54.77l8.37.77,61-33.8-3.63-10.89-54.1,20.52-2.84-7.48,61.9-23.48,8.37,25.11Z"/>
    <path d="M299.24,516.37c-5.39-14.81-23-54.58-39.61-60.61l2.74-7.52c23.48,8.54,43.55,63.08,44.39,65.39Z"/>
    <path d="M260.43,581c-.49-9,0-9.77.57-10.75l6.85,4.13a3.54,3.54,0,0,0,.44-1.12,69.73,69.73,0,0,0,.13,7.3Z"/>
    <path d="M235.89,436.52c-24.63,0-46.32-8.39-47.35-8.8l-2.64-1,.1-2.84c.57-15.27,4.5-25.66,12-31.74,6.86-5.56,16.24-7.21,28.68-5.05,11.13,1.94,18.69,10.61,21.84,25.09A76.56,76.56,0,0,1,250,432.32l-.27,3.3-3.29.36A98.83,98.83,0,0,1,235.89,436.52Zm-41.73-15.28c7.13,2.41,27.35,8.43,48,7.08,0-8.56-1.35-30.69-16.81-33.38-10-1.74-17.31-.64-22.27,3.38S195,410.15,194.16,421.24Z"/>
    <path d="M229.22,462.33l-4.44-6.66c6.39-4.26,12-18.95,13.59-24.25l7.66,2.33C245.35,436,239.12,455.72,229.22,462.33Z"/>
    <path d="M214,451c-15.37,0-23.29-16.6-23.62-17.31l7.24-3.39c.06.13,6.13,12.7,16.38,12.7,11.54,0,25.73-10,25.87-10.14l4.66,6.51C243.86,439.84,228.12,451,214,451Z"/>
    <path d="M200,444.29c-1.52-3.87-.15-12,.51-15.31l7.84,1.56c-.89,4.51-1.31,9.57-.9,10.83Z"/>
    <path d="M211,446.29c-1.52-3.87-.15-12,.51-15.31l7.84,1.56c-.89,4.51-1.31,9.57-.9,10.83Z"/>
    <path d="M222,446.29c-1.52-3.87-.15-12,.51-15.31l7.84,1.56c-.89,4.51-1.31,9.57-.9,10.83Z"/>
    <path d="M216.81,434.33,204,430.86l-3-3.74c-.11-3.55-.63-34.9,15.21-40.3l1.84-.18,12.7,1.76,2,7c-.62.53-15.54,13.41-11,34.17ZM209,423.94l4,1.08a43.32,43.32,0,0,1,9.1-29.74l-4.1-.57c-3.59,1.82-6.37,7.58-7.87,16.37A90.45,90.45,0,0,0,209,423.94Z"/>
    <path d="M205.29,598.24a97,97,0,0,1-36.88-7.39l3.31-7.28c.24.11,25.07,11.11,51.31,4.55l1.94,7.76A81.07,81.07,0,0,1,205.29,598.24Z"/>
    <path d="M300.86,488.05l-7.72-2.1,29.64-108.69c-2.38-5.94-11.45-30.26-7.69-48.08l7.82,1.64c-3.68,17.53,7.65,44.34,7.77,44.61l.18,2.62Z"/>
    <path d="M249.38,415.51l-7.66-2.31c.76-2.52,18.83-62.23,39.85-97.26,22.23-37,51.08-31.12,52.3-30.84l-1.71,7.81c-1-.21-24.6-4.73-43.73,27.15C267.93,354.22,249.56,414.9,249.38,415.51Z"/>
    <path d="M324,327.33l-8-.66a83.82,83.82,0,0,1,2.25-12.82c2.62-9.89,6.76-15.21,12.3-15.83l.88,8C328.23,306.33,324.79,317.75,324,327.33Z"/>
    <path d="M288.42,305.66l-5.35-27.91,4.66-4.68c.67.12,16.6,3.23,22.67,18.26l-7.42,3a22,22,0,0,0-10.73-11.18l4,21Z"/>
    <path d="M345.83,319.83l-5.66-5.66c7.25-7.26,12.6-16.46,10.79-18.57-5.27-6.15-6-14.61-6-18.65l-.09-.07c-3.25,4-8.91,17.91-13,32.22l-7.7-2.2c.11-.36,2.59-9,6-17.95,6.67-17.53,10.81-20.41,14.29-20.91l3,.76,4,3,1.58,3.56c0,.08-.74,9.44,4.06,15,3.81,4.44,2.81,11-3,19.48A79.48,79.48,0,0,1,345.83,319.83Z"/>
    <polygon points="355.42 308.43 355.1 300.43 362 300.16 362 297.78 351.63 293.91 354.43 286.41 370 292.22 370 307.84 355.42 308.43"/>
    <path d="M435.87,454.49c-30-37.8-74-88.78-113-116.93C299.45,320.63,288.84,320,288.74,320l.07-8h0c1.83,0,45.39,1.58,153.32,137.49Z"/>
    <path d="M293.29,492l-.58-8c81.59-5.83,131.69-48,132.18-48.39l5.21,6.07C428,443.49,377.63,486,293.29,492Z"/>
    <path d="M360,475.15l-7.58-2.57c11.77-34.7,3.69-79.4,3.61-79.85l7.86-1.46C364.29,393.18,372.49,438.44,360,475.15Z"/>
    <path d="M435.9,463.76l-18.41-8.05L371.68,438.4l-10.81-12,5.93-5.37,9.52,10.53,44.28,16.74,13.06,5.71a44.28,44.28,0,0,0,4.48-11.1c2.07-7.57-3.74-22.71-6.48-28.65l-52.18-54.19L368.54,326.3,350.86,311l5.23-6,19.37,16.73,11.06,34.19,51.81,53.8.28.59a108.48,108.48,0,0,1,4.82,12.37c3.06,9.54,3.88,17.08,2.43,22.4-3.19,11.69-7.55,16.29-8,16.78Z"/>
    <rect x="304.84" y="304.11" width="8" height="79.33" transform="translate(-113.27 155.66) rotate(-24.04)"/>
    <rect x="295.84" y="321.68" width="8" height="89.18" transform="translate(-123.19 153.88) rotate(-24.04)"/>
    <rect x="286.84" y="343.17" width="8" height="97.21" transform="translate(-136.31 155.94) rotate(-24.51)"/>
    <rect x="278.84" y="366.89" width="8" height="100.77" transform="translate(-149.1 157.38) rotate(-24.84)"/>
    <rect x="269.84" y="390.89" width="8" height="100.77" transform="translate(-160.01 155.82) rotate(-24.84)"/>
    <rect x="248" y="424.68" width="8" height="28.64" transform="translate(-160.77 146.01) rotate(-24.78)"/>
    <path d="M315.57,362.29c-.72-1.55-17.52-38.18-6.42-58.93,4-7.38,10.76-11.85,20.24-13.31l1.22,7.9c-7,1.07-11.67,4.07-14.4,9.18-3.72,6.94-3.82,18-.29,31.89a128.08,128.08,0,0,0,6.91,19.89Z"/>
    <path d="M369.64,458.83c-4.16,0-6.66-.23-6.94-.26l.79-8c.19,0,18.92,1.76,42.08-5.17l2.29,7.66A135.77,135.77,0,0,1,369.64,458.83Z"/>
    <polygon points="392 520.46 386.35 518.63 383.95 513.25 373.3 517.87 370.11 510.53 384.41 504.33 389.65 506.38 391.85 511.31 403.31 504.67 401.67 502.22 403.64 496.24 482.72 467.65 476.75 453.05 351.34 497.77 346.05 494.66 345.81 493.21 303.22 506.81 300.78 499.19 347.78 484.19 352.95 487.34 353.16 488.63 477.66 444.23 482.7 446.49 491.7 468.49 489.36 473.76 411.16 502.03 412.33 503.78 411 509.46 392 520.46"/>
    <polygon points="457.56 453.65 456.06 444.66 458.38 440.35 467.38 436.35 472.58 438.21 476.58 446.21 469.42 449.79 467.13 445.21 464.46 446.4 465.45 452.33 457.56 453.65"/>
    <polygon points="354.26 490.42 346.26 469.42 348.95 464.14 359.95 461.14 364.83 463.85 366.63 469.83 379.67 465.23 384.87 467.98 388.11 480.24 380.38 482.28 378.24 474.21 365.33 478.77 360.17 476.15 358.29 469.88 355.31 470.7 361.74 487.58 354.26 490.42"/>
    <polygon points="488.39 465.75 485.61 458.25 543.85 436.65 543.63 436.08 485.34 456.77 482.66 449.23 544.66 427.23 549.75 429.6 552.75 437.6 550.39 442.75 488.39 465.75"/>
    <path d="M415.79,554.58l-4.91-1.08c-.67-.84-16.44-20.64-22.59-36l7.42-3c4.49,11.23,15,25.67,19.44,31.44l12-6C416,528.13,405,507.86,404.48,506.9l7-3.8c.14.26,13.78,25.44,25,34.83l-.77,6.65Z"/>
    <rect x="400.76" y="469.5" width="83.49" height="8" transform="translate(-129.34 168.52) rotate(-18.87)"/>
    <path d="M360.33,534,356,530V520l5.58-3.68,2.67,1.15.6-1.12L363.32,515l1.59-3-.93-.53,1.77-6.54-.93,0a32.68,32.68,0,0,0-8.76,1l-2.13-7.71c.86-.24,21.15-5.7,28.58,7.93l-3.05,5.14.56.32-2.29,5.63.95.86-2.49,4.56.47.42-4.24,6.67-.38-.17.29,3.48Z"/>
    <path d="M415.81,623.23l-7.62-2.46L412,622l-3.81-1.23c.11-.33,10.53-33.43,1.92-68.82l7.78-1.9C427.05,587.72,416.27,621.8,415.81,623.23Z"/>
    <path d="M404.94,644.92c-9.52-6.58-9-18.63-8.93-19.14l8,.42c0,.08-.3,8.14,5.49,12.13Z"/>
    <path d="M396.21,651.58c-9.77-4.89-11.08-20.54-11.2-22.31l8-.54c.23,3.3,2,13.28,6.8,15.69Z"/>
    <polygon points="404.45 663.16 399.12 662.77 392.28 655.67 398.05 650.13 402.39 654.64 418.22 642.41 414.29 637.82 420.36 632.61 427.04 640.4 426.45 646.16 404.45 663.16"/>
    <path d="M528.36,631.65l-29-13-1.46-6.17,12.24-15.07.74-7.42c-8.16-11.47-35.69-16.07-46.62-17-4.69,1.24-20.37,11.88-44.61,36.46l-5.7-5.62c6-6.11,36.75-36.71,49.39-38.82l1,0c1.76.13,43.22,3.37,54.16,22l.53,2.43-1,10-.88,2.12-9.71,12,19.33,8.67,3.2-24.79-5.41-17.14c-4.59-4.23-26.91-25.11-36.84-40-8.52-12.78-21.16-16.75-31.45-9.89-11.71,7.8-25,15.8-25.12,15.88L427,539.36c.13-.08,13.25-8,24.8-15.69A26.78,26.78,0,0,1,474.36,520c7.67,2.21,14.57,7.66,20,15.75,10.32,15.48,36.1,39,36.36,39.26l1.12,1.76,6,19,.16,1.71-4,31Z"/>
    <path d="M465.62,623.66l-5.33-2.15-12.48-30.72L442,587.47l4-6.94,7,4,1.73,2,11.42,28.11c9.12-4.4,18.48-10.14,22.36-14.31-7.65-4.87-25.62-17-31.3-27.28l7-3.88c5.06,9.13,24.71,22.18,31.86,26.43l1.74,4.7C494.41,610.42,470.4,621.53,465.62,623.66Z"/>
    <rect x="456.88" y="587.5" width="19.24" height="8" transform="translate(-222.54 287.01) rotate(-27.9)"/>
    <rect x="519.7" y="592.67" width="8" height="21.2" transform="translate(-239.46 839.46) rotate(-66.24)"/>
    <path d="M1650.8,866.25c-.71-1-17.42-25.77-26.49-53-9.32-28,5.39-70.77,6-72.58l7.55,2.64c-.14.41-14.44,42-6,67.42,8.71,26.13,25.35,50.77,25.51,51Z"/>
    <path d="M1605.12,989.35c-.17-2-3.31-49,74.75-101.66,34-22.94,55.28-55.08,63.36-95.52,6.06-30.34,2-54.23,1.94-54.47l7.87-1.4c.18,1,4.38,25.37-1.9,57.13-5.82,29.37-22.13,70.72-66.8,100.88-21.32,14.4-49.67,37.58-63.68,66.24-8.3,17-7.58,28-7.57,28.13Z"/>
    <path d="M1722.69,856.4l-8-.54c3.69-54.23,29.13-71.5,30.21-72.21l4.39,6.7s-5.83,4-12,14C1731.63,813.67,1724.46,830.26,1722.69,856.4Z"/>
    <path d="M1683.7,869.52a6,6,0,0,1-4.42-1.69l5.65-5.66a2.09,2.09,0,0,0-1.15-.69s2.46.12,8.65-5.45c10.43-9.39,23.68-14.55,24.24-14.76l2.87,7.46L1718.1,845l1.44,3.73c-.12,0-12.46,4.87-21.76,13.24C1691.22,867.88,1686.69,869.52,1683.7,869.52Z"/>
    <path d="M1608.07,952.56l-7.93-1.12c9.17-65.16,35.95-72.77,57.47-78.89l1.4-.4c20.67-5.9,55.58-17.52,55.93-17.63l2.53,7.59c-.36.12-35.43,11.78-56.27,17.74l-1.4.4C1639.5,886,1616.5,892.55,1608.07,952.56Z"/>
    <path d="M1604.74,986.33c-.24-1.65-5.55-40.78,19.16-73.73,24.92-33.22,65.49-33.6,67.2-33.6v8c-.38,0-38.34.45-60.81,30.4-22.67,30.23-17.7,67.42-17.64,67.8Z"/>
    <path d="M1685.67,869.82l-7.13-3.64c25.5-50,46.3-56.34,47.17-56.59l1.09,3.85,1.14,3.83C1727.76,817.33,1709.22,823.66,1685.67,869.82Z"/>
    <path d="M1573,945.75l-6.34-4.79a220.17,220.17,0,0,1,80.13-78.86c24.89-14.16,43.75-18.42,44.54-18.6l1.73,7.81h0c-.33.08-18.79,4.32-42.59,17.9A212.07,212.07,0,0,0,1590.13,921c6.74-4.49,14.34-8.54,21.93-10.49l2,7.75C1594.39,923.33,1573.22,945.52,1573,945.75Z"/>
    <path d="M1580.11,1000.64l-7-2.64c0-27.26,27.89-57.46,29.08-58.73l5.85,5.46c-.22.24-18.73,20.28-24.93,40.9,7.53-7.79,18-17.72,24.52-20.34l3,7.42C1603.12,975.7,1586.05,993.89,1580.11,1000.64Z"/>
    <path d="M1577.43,980.58c-9.67-22.56,8-54.34,8.78-55.68l7,3.93-3.48-2,3.48,2c-.16.3-16.5,29.68-8.39,48.59Z"/>
    <path d="M1728.6,851.71l-3-7.42c.78-.32,64.49-26.76,64.49-80.29,0-54.52-57.09-106.51-57.67-107l5.35-6c2.46,2.22,60.32,54.86,60.32,113,0,24.54-12.08,47.52-34.94,66.46A145.2,145.2,0,0,1,1728.6,851.71Zm-1.5-3.71-1.49-3.71h0Z"/>
    <path d="M1652.1,1057h-57l-3.17-6.43,22.14-28.88c0-4.55.55-17.83,8.4-24.7,8.67-7.58,54-63.16,42.52-94.83l7.52-2.73c13.89,38.23-38.4,98-44.77,103.58-5.32,4.65-5.88,15.83-5.64,19.75l-.82,2.67L1603.21,1049H1648l-.89-31c0-21.14,26.3-51.63,46.09-72.74,10.56-11.27,14.41-33.51,17.22-49.75,1-5.62,1.81-10.48,2.81-14.48,4-16,15.63-48,16.13-49.4l7.51,2.74c-.12.33-12,33-15.87,48.6-.93,3.71-1.75,8.44-2.7,13.91-3,17.23-7.06,40.84-19.27,53.86-10.85,11.57-43.85,46.78-43.92,67.21l1,34.94Z"/>
    <rect x="1629.63" y="1007.68" width="8" height="31.05" transform="translate(588.93 2643.17) rotate(-89.24)"/>
    <path d="M1722,1027.64c-5.5,0-12.91-1-19.14-5.36l-1.21-5.21c.11-.19,10.59-19.41,11.51-33.34,1-15.5,15.07-51.47,20.17-56.56.91-.91,2.5-3.89,2-8.6-.44-4-2.53-10.3-10-17.74-8.75-8.75-10.43-17.63-10.3-23.54a26.13,26.13,0,0,1,2.6-11.17l7.05,3.76c-.25.49-6.3,12.69,6.3,25.29,9.09,9.09,11.69,17.26,12.28,22.51.8,7.22-1.69,12.56-4.28,15.15-3.14,3.36-16.87,37-17.83,51.44-.81,12-7.41,26.59-10.68,33.17,5.49,2.49,11.7,2.37,15.15,2,4.53-23.66,35.12-59.81,45.48-72.05,9.09-10.75,14.13-27,4.88-39-10.33-13.44-26.89-69-27.59-71.34l7.67-2.27c4.65,15.66,18.44,58.55,26.27,68.73,8.61,11.21,10.37,30.71-5.12,49-28,33.07-42.81,56.88-44.07,70.78l-3.15,3.55A41.39,41.39,0,0,1,1722,1027.64Z"/>
    <polygon points="1732.1 1056 1682.1 1056 1678.82 1049.71 1701.82 1016.71 1708.39 1021.29 1689.77 1048 1727.67 1048 1725.13 1023.41 1733.08 1022.59 1736.08 1051.59 1732.1 1056"/>
    <path d="M1624.83,809c-.85-.39-21-9.64-45.06-32.81-22.12-21.29-51.79-58.9-67.53-117.13L1520,657c15.21,56.28,43.78,92.62,65.08,113.19,23.1,22.33,42.88,31.45,43.08,31.54Z"/>
    <path d="M1530.82,691.89l-7.19-3.5c.29-.59,7.17-14.54,21.55-29.24,19.12-19.55,42.49-31,67.59-33.14l.67,8C1557.48,638.73,1531.08,691.36,1530.82,691.89Z"/>
    <path d="M1697.1,667c-58.06,0-104-48.21-105.91-50.26l5.83-5.48c.45.48,45.53,47.74,100.08,47.74,30.05,0,33.94-6,34.42-7.24.85-2.16-1.74-5.53-3.13-6.82l5.41-5.89c3.08,2.81,7.64,9.26,5.18,15.59C1735.71,663.07,1722.41,667,1697.1,667Z"/>
    <path d="M1708.1,651c-59.83,0-104.77-39.34-106.65-41l5.31-6c.44.39,44.63,39,101.34,39,13.94,0,24.33-4.25,30.86-12.64,14.73-18.9,6.35-53,6.27-53.38l7.75-2c.4,1.55,9.43,38.23-7.69,60.24C1737.16,645.7,1724.65,651,1708.1,651Z"/>
    <path d="M1538.75,663.64a17.53,17.53,0,0,1-4.74-.79c-3.91-1.12-10.26-6.14-20.29-14.23-7.28-5.87-17.24-13.9-20.59-14.74l-2.23-1.48c-2.3-3.07-7.49-10.76-6-15.95a6.21,6.21,0,0,1,3.76-4.16c1.82-.73,4.58-1.84,29.3,7.73,11.57,4.48,22.66,9.26,22.77,9.31l-3.17,7.34c-17.2-7.43-37.59-15.24-44.56-16.61a33.9,33.9,0,0,0,3.64,6.56c4.73,1.89,11.74,7.39,22.14,15.78,6.3,5.07,14.92,12,17.46,12.75a7.54,7.54,0,0,0,2.59.51c.62-.22,2.45-2.55,4.22-4.8,1.54-2,3.46-4.39,6-7.44,11.28-13.33,62.75-45.45,64.94-46.82l4.23,6.8c-.53.32-52.59,32.81-63.06,45.18-2.49,2.95-4.36,5.32-5.86,7.22C1545.33,660.85,1543.14,663.64,1538.75,663.64Z"/>
    <polygon points="1539.1 631.65 1533.11 626.35 1587.55 564.72 1674.71 578.05 1673.5 585.95 1590.66 573.28 1539.1 631.65"/>
    <path d="M1603.89,611c-.88,0-21.85-1.42-29.6-25.78l7.63-2.42c6,18.94,21.75,20.17,22.42,20.22Z"/>
    <path d="M1702.71,584.36c-23,0-42.08-4.68-56.75-14l-1.94-1.23,1.09-29.3,8,.3-.91,24.65c11.56,6.75,31.85,13.61,65,11a210.75,210.75,0,0,0,36.21-6.15c6-13,6.93-56.5,6.76-75.35-19.06-12.16-26.69-32.84-29.06-41l-9.66.74-.61-8,16.51-1.27.71,3.45c.06.27,6,27.46,28.1,40.35l2,1.14,0,2.26c.11,6.87.75,67.59-8.57,83.12l-.79,1.33-1.49.44a210.18,210.18,0,0,1-39.45,6.91Q1710,584.36,1702.71,584.36Z"/>
    <path d="M1753.22,486.11c-.78-27.3-19.23-32-20-32.21l1.78-7.8a31.77,31.77,0,0,1,13,7.31c5.75,5.2,12.71,15,13.21,32.48Z"/>
    <path d="M1714.71,464,1709.5,458l2.6,3-2.61-3c.51-.45,12.61-11.3,12.61-34h8C1730.1,450.53,1715.34,463.5,1714.71,464Z"/>
    <path d="M1625.24,558.09l-69-38.2,8.37-25.11,61.89,23.48-2.83,7.48-54.11-20.52L1566,516.11l61,33.8,8.37-.77c5.6-5.49,33.44-33.67,36.81-54.77,3.61-22.55-14.62-40.3-14.81-40.47l-3.92-3.76,15.87-8.82,18.49,12.32.28,1.74c.1.63,2.78,15.82,17.27,16.63,3.35.18,5.8-.63,7.54-2.49,3.73-4,3.62-12.19,3.27-15l7.93-1c.18,1.41,1.6,14-5.33,21.47-2.34,2.52-6.65,5.46-13.86,5-15.56-.86-22.48-13.61-24.37-21.58l-11.59-7.73-2.46,1.36c6,7.18,16.82,23.45,13.59,43.59-4.16,26-38.73,58.89-40.2,60.28l-1,1Z"/>
    <path d="M1619.86,516.37l-7.51-2.74c.84-2.31,20.9-56.85,44.39-65.39l2.73,7.52C1642.88,461.79,1625.25,501.56,1619.86,516.37Z"/>
    <path d="M1658.67,581l-8-.44c.15-2.85.24-6.47.13-7.3a3.12,3.12,0,0,0,.43,1.12l6.86-4.13C1658.7,571.21,1659.17,572,1658.67,581Z"/>
    <path d="M1683.21,436.52a98.65,98.65,0,0,1-10.53-.54l-3.3-.36-.26-3.3a75.83,75.83,0,0,1,1.45-20.17c3.16-14.48,10.71-23.15,21.85-25.09,12.43-2.16,21.81-.51,28.68,5.05,7.51,6.08,11.44,16.47,12,31.74l.11,2.84-2.64,1C1729.53,428.13,1707.84,436.52,1683.21,436.52Zm-6.23-8.2c20.62,1.35,40.84-4.67,48-7.08-.81-11.09-3.79-18.79-8.89-22.92s-12.25-5.12-22.27-3.38C1678.33,397.63,1676.94,419.76,1677,428.32Z"/>
    <path d="M1689.89,462.33c-9.91-6.61-16.13-26.35-16.81-28.58l7.65-2.33c1.62,5.3,7.21,20,13.59,24.25Z"/>
    <path d="M1705.1,451c-14.12,0-29.86-11.16-30.52-11.63l4.66-6.51c.14.1,14.33,10.14,25.86,10.14,10.34,0,16.32-12.56,16.38-12.69l7.25,3.38C1728.4,434.4,1720.48,451,1705.1,451Z"/>
    <path d="M1719.08,444.29l-7.44-2.94c.41-1.24,0-6.3-.91-10.81l7.85-1.56C1719.24,432.3,1720.61,440.43,1719.08,444.29Z"/>
    <path d="M1708.08,446.29l-7.44-2.94c.41-1.24,0-6.3-.91-10.81l7.85-1.56C1708.24,434.3,1709.61,442.43,1708.08,446.29Z"/>
    <path d="M1697.08,446.29l-7.44-2.94c.41-1.24,0-6.3-.91-10.81l7.85-1.56C1697.24,434.3,1698.61,442.43,1697.08,446.29Z"/>
    <path d="M1702.29,434.33l-5-4.72c4.58-20.91-10.84-34-11-34.17l2-7,12.7-1.76,1.84.18c15.84,5.4,15.32,36.75,15.21,40.3l-2.95,3.74Zm-5.3-39.05a43.42,43.42,0,0,1,9.1,29.74l4-1.08a89,89,0,0,0-1.15-12.86c-1.5-8.79-4.28-14.55-7.87-16.37Z"/>
    <path d="M1713.81,598.24a81.13,81.13,0,0,1-19.68-2.36l1.94-7.76c26.34,6.59,51.07-4.44,51.31-4.55l3.32,7.28A97,97,0,0,1,1713.81,598.24Z"/>
    <path d="M1618.25,488.05l-30-110,.18-2.62c.11-.27,11.45-27.08,7.76-44.61l7.83-1.64c3.75,17.82-5.31,42.14-7.7,48.08L1626,486Z"/>
    <path d="M1669.73,415.51c-.19-.61-18.56-61.29-39.06-95.45-19.13-31.89-42.73-27.36-43.72-27.15l-1.71-7.81c1.22-.28,30.06-6.21,52.29,30.84,21,35,39.1,94.74,39.86,97.26Z"/>
    <path d="M1595.12,327.33c-.81-9.58-4.24-21-7.46-21.35l.89-8c5.53.62,9.67,5.94,12.3,15.83a83.12,83.12,0,0,1,2.24,12.82Z"/>
    <path d="M1630.69,305.66l-7.86-1.51,4-21a21.93,21.93,0,0,0-10.72,11.18l-7.42-3c6.06-15,22-18.14,22.67-18.26l4.65,4.68Z"/>
    <path d="M1573.28,319.83a78.14,78.14,0,0,1-8.23-9.95c-5.79-8.48-6.8-15-3-19.48,4.79-5.6,4.06-15,4-15l1.58-3.55,4-3,3-.76c3.49.5,7.63,3.38,14.3,20.91,3.4,8.93,5.88,17.59,6,17.95l-7.69,2.2c-4.17-14.57-9.73-28.22-13-32.22l-.1.07c0,4-.75,12.5-6,18.65-1.8,2.11,3.54,11.31,10.79,18.57Z"/>
    <polygon points="1563.69 308.43 1549.1 307.84 1549.1 292.22 1564.68 286.41 1567.48 293.91 1557.1 297.78 1557.1 300.16 1564.01 300.43 1563.69 308.43"/>
    <path d="M1483.24,454.49l-6.27-5C1584.89,313.61,1628.46,312,1630.29,312h0v4l.08,4c-.11,0-10.71.61-34.15,17.54C1557.23,365.71,1513.26,416.69,1483.24,454.49Z"/>
    <path d="M1625.82,492c-84.35-6-134.71-48.5-136.82-50.3l5.21-6.07-2.6,3,2.6-3c.5.42,50.6,42.56,132.18,48.39Z"/>
    <path d="M1559.06,475.15c-12.44-36.71-4.24-82-3.89-83.88l7.87,1.46c-.09.45-8.16,45.15,3.6,79.85Z"/>
    <path d="M1483.21,463.76l-1.93-1.93c-.49-.49-4.85-5.09-8-16.78-1.46-5.32-.64-12.86,2.42-22.4a110.69,110.69,0,0,1,4.82-12.37l.28-.59.45-.46,51.36-53.34,11.06-34.19L1563,305l5.23,6-17.68,15.28-10.94,33.81-52.18,54.19c-2.74,5.94-8.55,21.08-6.49,28.65a43.77,43.77,0,0,0,4.49,11.1l13.24-5.79,44.1-16.66,9.52-10.53,5.93,5.37-10.82,12-45.81,17.31Z"/>
    <rect x="1570.6" y="339.77" width="79.33" height="8" transform="translate(640.25 1674.27) rotate(-65.96)"/>
    <rect x="1574.68" y="362.27" width="89.18" height="8" transform="translate(625.18 1695.93) rotate(-65.96)"/>
    <rect x="1579.66" y="387.77" width="97.21" height="8" transform="translate(596.39 1710.85) rotate(-65.49)"/>
    <rect x="1585.88" y="413.27" width="100.77" height="8" transform="translate(570.27 1726.9) rotate(-65.16)"/>
    <rect x="1594.88" y="437.27" width="100.77" height="8" transform="translate(553.71 1748.99) rotate(-65.16)"/>
    <rect x="1652.79" y="435" width="28.64" height="8" transform="translate(569.89 1768.69) rotate(-65.22)"/>
    <path d="M1603.53,362.29l-7.25-3.38a127.47,127.47,0,0,0,6.9-19.89c3.53-13.92,3.44-24.95-.28-31.89-2.74-5.11-7.45-8.11-14.4-9.18l1.21-7.9c9.49,1.46,16.3,5.93,20.24,13.31C1621.06,324.11,1604.25,360.74,1603.53,362.29Z"/>
    <path d="M1549.46,458.83a135.77,135.77,0,0,1-38.22-5.73l2.3-7.66c23.25,7,41.88,5.19,42.07,5.17l.8,8C1556.13,458.6,1553.63,458.83,1549.46,458.83Z"/>
    <polygon points="1527.1 520.46 1508.1 509.46 1506.78 503.78 1507.94 502.03 1429.74 473.76 1427.4 468.49 1436.4 446.49 1441.45 444.23 1565.94 488.63 1566.16 487.34 1571.32 484.19 1618.32 499.19 1615.89 506.81 1573.29 493.21 1573.05 494.66 1567.76 497.77 1442.36 453.05 1436.39 467.65 1515.46 496.24 1517.43 502.22 1515.8 504.67 1527.26 511.31 1529.45 506.38 1534.69 504.33 1548.99 510.53 1545.81 517.87 1535.15 513.25 1532.76 518.63 1527.1 520.46"/>
    <polygon points="1461.55 453.65 1453.65 452.33 1454.65 446.4 1451.97 445.21 1449.68 449.79 1442.53 446.21 1446.53 438.21 1451.73 436.35 1460.73 440.35 1463.05 444.66 1461.55 453.65"/>
    <polygon points="1564.84 490.42 1557.37 487.58 1563.8 470.7 1560.82 469.88 1558.94 476.15 1553.77 478.77 1540.86 474.21 1538.73 482.28 1530.99 480.24 1534.24 467.98 1539.44 465.23 1552.48 469.83 1554.27 463.85 1559.16 461.14 1570.16 464.14 1572.84 469.42 1564.84 490.42"/>
    <polygon points="1430.71 465.75 1368.71 442.75 1366.36 437.6 1369.36 429.6 1374.44 427.23 1436.44 449.23 1433.77 456.77 1375.47 436.08 1375.26 436.65 1433.5 458.25 1430.71 465.75"/>
    <path d="M1503.32,554.58l-20-10-.78-6.65c11.28-9.4,24.91-34.57,25-34.83l7.05,3.8c-.52,1-11.5,21.23-22.65,33.06l12,6c4.39-5.77,15-20.23,19.43-31.44l7.43,3c-6.15,15.37-21.92,35.17-22.59,36Z"/>
    <rect x="1472.6" y="431.76" width="8" height="83.49" transform="translate(551.01 1717.62) rotate(-71.13)"/>
    <path d="M1558.77,534l-12-1,.29-3.48-.38.17-4.23-6.67.47-.42-2.49-4.56,1-.86-2.29-5.63.55-.32-3.05-5.14c7.44-13.63,27.73-8.17,28.58-7.93l-2.13,7.71a33.16,33.16,0,0,0-8.76-1l-.93,0,1.77,6.54-.92.53,1.58,3-1.53,1.38.61,1.12,2.67-1.15,5.57,3.68v10Z"/>
    <path d="M1503.3,623.23c-.47-1.43-11.24-35.51-2.08-73.18L1509,552c-8.61,35.39,1.81,68.49,1.92,68.82Z"/>
    <path d="M1514.16,644.92l-4.54-6.59c5.79-4,5.49-12.05,5.49-12.13l8-.42C1523.13,626.29,1523.68,638.34,1514.16,644.92Z"/>
    <path d="M1522.89,651.58l-3.57-7.16c4.82-2.41,6.56-12.39,6.79-15.69l8,.54C1534,631,1532.66,646.69,1522.89,651.58Z"/>
    <polygon points="1514.66 663.16 1492.66 646.16 1492.07 640.4 1498.75 632.61 1504.82 637.82 1500.88 642.41 1516.71 654.64 1521.06 650.12 1526.82 655.67 1519.99 662.77 1514.66 663.16"/>
    <path d="M1390.74,631.65l-5.6-3.14-4-31,.15-1.71,6-19,1.12-1.76c.26-.23,26-23.79,36.37-39.26,5.39-8.09,12.3-13.54,20-15.75a26.76,26.76,0,0,1,22.57,3.64c11.56,7.7,24.68,15.61,24.81,15.69l-4.13,6.85c-.13-.08-13.41-8.08-25.11-15.88-10.3-6.87-22.94-2.89-31.46,9.89-9.93,14.89-32.24,35.77-36.83,40l-5.42,17.14,3.2,24.79,19.34-8.67-9.72-12-.88-2.12-1-10,.54-2.43c10.93-18.59,52.39-21.83,54.15-22l1,0c12.64,2.11,43.36,32.71,49.39,38.82l-5.69,5.62c-24.25-24.58-39.93-35.22-44.62-36.46-10.93.89-38.45,5.49-46.62,17l.74,7.42,12.25,15.07-1.47,6.17Z"/>
    <path d="M1453.48,623.66c-4.78-2.13-28.78-13.24-32.17-23.4l1.75-4.7c7.15-4.26,26.81-17.32,31.86-26.43l7,3.88c-5.67,10.24-23.64,22.41-31.29,27.28,3.87,4.17,13.23,9.91,22.36,14.31l11.42-28.11,1.72-2,7-4,4,6.94-5.8,3.32-12.48,30.72Z"/>
    <rect x="1448.6" y="581.88" width="8" height="19.24" transform="translate(250.19 1598.54) rotate(-62.1)"/>
    <rect x="1384.8" y="599.27" width="21.2" height="8" transform="translate(-124.79 613.56) rotate(-23.77)"/>
  </g>
</svg>
