<svg xmlns="http://www.w3.org/2000/svg" xmlns:xlink="http://www.w3.org/1999/xlink" viewBox="0 0 1920 1080">
  <defs>
    <style>
      .cls-1 {
        fill: none;
      }

      .cls-2 {
        fill: #39b44a;
      }

      .cls-2, .cls-3 {
        stroke: #000;
        stroke-miterlimit: 10;
        stroke-width: 8px;
      }

      .cls-3 {
        fill: #00a89c;
      }

      .cls-4 {
        fill: url(#New_Pattern_Swatch_8);
      }

      .cls-5 {
        fill: #c69c6d;
      }

      .cls-6 {
        fill: #a67c52;
      }

      .cls-7 {
        fill: #787fff;
      }

      .cls-8 {
        fill: #5061ff;
      }

      .cls-9 {
        fill: #ffe500;
      }

      .cls-10 {
        fill: #ffcd00;
      }

      .cls-11 {
        fill: #ff4848;
      }

      .cls-12 {
        fill: #2b293a;
      }

      .cls-13 {
        fill: #ffeda8;
      }

      .cls-14 {
        fill: #ffbe7b;
      }

      .cls-15 {
        fill: #7f3300;
      }

      .cls-16 {
        fill: #615f86;
      }

      .cls-17 {
        fill: #fff57d;
      }

      .cls-18 {
        fill: #87ff76;
      }

      .cls-19 {
        fill: #fff;
      }
    </style>
    <pattern id="New_Pattern_Swatch_8" data-name="New Pattern Swatch 8" width="206" height="198" patternTransform="translate(-51 -31)" patternUnits="userSpaceOnUse" viewBox="0 0 206 198">
      <rect class="cls-1" width="206" height="198"/>
      <rect class="cls-2" x="-51" y="-60.5" width="51" height="122" rx="25.5"/>
      <g>
        <rect class="cls-3" y="-61.5" width="51" height="122" rx="25.5"/>
        <rect class="cls-2" x="52" y="-60.5" width="51" height="122" rx="25.5"/>
      </g>
      <g>
        <rect class="cls-3" x="103" y="-61.5" width="51" height="122" rx="25.5"/>
        <rect class="cls-2" x="155" y="-60.5" width="51" height="122" rx="25.5"/>
      </g>
      <rect class="cls-3" x="206" y="-61.5" width="51" height="122" rx="25.5"/>
      <g>
        <rect class="cls-3" x="-51.5" y="37.5" width="51" height="122" rx="25.5"/>
        <rect class="cls-2" x="0.5" y="38.5" width="51" height="122" rx="25.5"/>
      </g>
      <g>
        <rect class="cls-3" x="51.5" y="37.5" width="51" height="122" rx="25.5"/>
        <rect class="cls-2" x="103.5" y="38.5" width="51" height="122" rx="25.5"/>
      </g>
      <g>
        <rect class="cls-3" x="154.5" y="37.5" width="51" height="122" rx="25.5"/>
        <rect class="cls-2" x="206.5" y="38.5" width="51" height="122" rx="25.5"/>
      </g>
      <rect class="cls-2" x="-51" y="137.5" width="51" height="122" rx="25.5"/>
      <g>
        <rect class="cls-3" y="136.5" width="51" height="122" rx="25.5"/>
        <rect class="cls-2" x="52" y="137.5" width="51" height="122" rx="25.5"/>
      </g>
      <g>
        <rect class="cls-3" x="103" y="136.5" width="51" height="122" rx="25.5"/>
        <rect class="cls-2" x="155" y="137.5" width="51" height="122" rx="25.5"/>
      </g>
      <rect class="cls-3" x="206" y="136.5" width="51" height="122" rx="25.5"/>
    </pattern>
  </defs>
  <title>Illustration8</title>
  <g id="Layer_8" data-name="Layer 8">
    <rect class="cls-4" width="1920" height="1080"/>
  </g>
  <g id="Layer_7" data-name="Layer 7">
    <path class="cls-5" d="M816,519l12.48-26.83S802,406,686,445"/>
    <path class="cls-5" d="M684.31,459.09l26.45,6.9s90.89,53.29,96,123.65h0l8.62,86.84S767.68,599.92,764.82,573h0l-10.92-9.2s-22.25-83.58-69.59-104.67"/>
    <path class="cls-6" d="M677.41,449.89s39.31-4.71,68.43,9.2,67,39.91,73,64.41h0s-11.33,44.88-8.62,74.19h0s-23.58-81-56.94-98.34C724,472,677.41,449.89,677.41,449.89"/>
    <path class="cls-6" d="M677.41,449.89S778.76,440.42,816,519"/>
    <path class="cls-5" d="M1102.89,519l-12.48-26.83S1116.89,406,1232.89,445"/>
    <path class="cls-5" d="M1234.55,459.09,1208.1,466s-90.89,53.29-96,123.65h0l-8.62,86.84S1151.18,599.92,1154,573h0l10.92-9.2s22.25-83.58,69.59-104.67"/>
    <path class="cls-6" d="M1241.45,449.89s-39.32-4.71-68.44,9.2-67,39.91-73,64.41h0s11.34,44.88,8.63,74.19h0s23.58-81,56.94-98.34c29.35-27.35,75.91-49.46,75.91-49.46"/>
    <path class="cls-6" d="M1241.45,449.89S1140.1,440.42,1102.89,519"/>
  </g>
  <g id="Layer_6" data-name="Layer 6">
    <path d="M824.7,493.56c-13.24-35.87-44.65-53.69-93.33-53-37.11.51-70.75,12.14-71.08,12.26l-2.65-7.55c1.41-.5,35.05-12.14,73.44-12.7,51.83-.79,86.78,19.38,101.12,58.26Z"/>
    <path d="M775.84,771.26l-8-.38c8.34-176.46-27.09-252.53-58.28-285.27C685.47,460.32,663.18,460,663,460v-8c1,0,26,.35,52.39,28.09,20.11,21.12,35.59,52.24,46,92.53C774.75,624.43,779.62,691.26,775.84,771.26Z"/>
    <path d="M806.42,627.08c-3.48-36.31-13.42-68-29.53-94.32a169.56,169.56,0,0,0-50-52.25C692.21,457.08,658.84,453,658.51,453l.91-7.94c1.42.16,35.35,4.24,71.66,28.64a177.43,177.43,0,0,1,52.5,54.7c16.83,27.36,27.19,60.32,30.8,98Z"/>
    <path d="M828,571.64c-6.84-41.9-24.73-73.47-53.17-93.83-49.44-35.4-114.57-25-115.22-24.87l-1.33-7.88c2.8-.47,69.09-11.07,121.2,26.24,30.24,21.65,49.22,55,56.41,99.06Z"/>
    <path d="M1094.16,493.56l-7.5-2.77c14.34-38.88,49.28-59,101.12-58.26,38.39.56,72,12.2,73.44,12.7l-2.65,7.55c-.33-.12-34-11.75-71.08-12.26l-2.63,0C1137.66,440.5,1107.16,458.34,1094.16,493.56Z"/>
    <path d="M1143,771.26c-3.79-80,1.09-146.83,14.48-198.64,10.41-40.29,25.89-71.42,46-92.53,26.43-27.74,51.34-28.09,52.39-28.09v4l0,4c-.06,0-5.77.09-14.36,3.32-7.94,3-20,9.35-32.62,22.67-31,32.85-66.25,108.94-57.93,284.89Z"/>
    <path d="M1112.44,627.08l-8-.76c3.6-37.63,14-70.59,30.8-98a177.43,177.43,0,0,1,52.5-54.7c36.31-24.4,70.24-28.48,71.66-28.64l.9,7.94c-.5.06-33.78,4.17-68.4,27.54a169.56,169.56,0,0,0-50,52.25C1125.86,559,1115.92,590.77,1112.44,627.08ZM1260.34,453l-.45-4,.46,4Z"/>
    <path d="M1090.84,571.64l-7.89-1.28c7.19-44.09,26.17-77.41,56.41-99.06,52.11-37.31,118.4-26.71,121.2-26.24l-1.33,7.89c-.65-.11-65.91-10.49-115.27,24.89C1115.55,498.21,1097.68,529.77,1090.84,571.64Z"/>
  </g>
  <g id="Layer_5" data-name="Layer 5">
    <polyline class="cls-7" points="1559.96 814 1534.96 881 1599.58 899.84 1597.96 822 1559.96 814"/>
    <polyline class="cls-8" points="1681.58 803 1706.58 877.93 1641.96 899 1643.58 811.95 1681.58 803"/>
    <rect class="cls-8" x="1832" y="919.8" width="23" height="107" transform="translate(3687 1946.6) rotate(-180)"/>
    <polygon class="cls-7" points="1854 1076 1852 1028.8 1830 1028.8 1832 1078 1854 1076"/>
    <rect class="cls-7" x="1784" y="850.8" width="114" height="22" transform="translate(2702.8 -979.2) rotate(90)"/>
    <rect class="cls-8" x="1783" y="740.8" width="114" height="22" transform="translate(2591.8 -1088.2) rotate(90)"/>
    <path class="cls-7" d="M1849,583.8l-21,8s2.52,80.16,5.26,105.08l23.74-.08Z"/>
    <rect x="1829" y="582.8" width="21" height="8" transform="translate(-85.31 434.47) rotate(-13.17)"/>
    <path class="cls-9" d="M966,805s96-170,104-336c0,0,26-3,39,101,0,73-7.57,115.86-7.57,115.86L1029,793l-24-2Z"/>
    <path class="cls-10" d="M993,399s18,125,9,155-42,137-42,137l10.64,66L963,810s77.09-148,85.54-208,16.75-84.6,16.75-84.6S1026,409,993,399Z"/>
    <path class="cls-9" d="M963.52,673.86l39.62-123.65-7.2-126.66L974,482S949.08,643.73,963.52,673.86Z"/>
    <polygon class="cls-9" points="1001.34 402.54 1043.96 361 1028.95 434.95 1001.34 402.54"/>
    <path class="cls-9" d="M953,806S857,635,849,469c0,0-26-3-39,101,0,73,7.56,115.86,7.56,115.86L889,794l27-4Z"/>
    <path class="cls-10" d="M926,399s-18,125-9,155,42,137,42,137l-11,79,8,34-6-3s-71-139-79.5-199-16.75-84.6-16.75-84.6S893,409,926,399Z"/>
    <path class="cls-9" d="M955.46,673.86,915.84,550.21,923,423.55,945,482S969.9,643.73,955.46,673.86Z"/>
    <polygon class="cls-9" points="917.64 402.54 875.02 361 890.03 434.95 917.64 402.54"/>
    <path class="cls-10" d="M960,296l29,67,11,27-22,87-35,1s-18-56-19-58,2-22,2-22l-9-1,10-35,28-59Z"/>
    <polygon class="cls-10" points="942.01 466.57 959.97 471.78 977.98 468.86 959.52 570.78 942.01 466.57"/>
    <polygon class="cls-9" points="959.97 695.36 947.25 758.19 959.97 804 970.97 757 959.97 695.36"/>
    <polyline class="cls-7" points="1714.01 730.25 1829.85 842.31 1830 1078 1778 1077 1670.57 758.86 1714.01 730.25"/>
    <path class="cls-7" d="M1757,633.8h73s1-98-62-148l-53,51S1758,587.8,1757,633.8Z"/>
    <path class="cls-7" d="M1620,499.8s-53,4-91,39l-61-61s28-30,74-46,79-12,79-12Z"/>
    <path class="cls-7" d="M1400,634.8l86-1s2,55,40,93l-125,127Z"/>
    <polygon class="cls-7" points="1469 1074 1552 1076 1565 901.8 1525 905.8 1469 1074"/>
    <path class="cls-7" d="M1620,499.8s76,8,95,37l-14,15s-38-33-78-30Z"/>
    <path class="cls-7" d="M1737,632.8l17-1s7,47-37,96l-14-8S1734,675.8,1737,632.8Z"/>
    <polygon class="cls-7" points="1542 714.8 1568 734.8 1561 750.8 1526 726.8 1542 714.8"/>
    <path class="cls-7" d="M1529,538.8l14,14s-33,28-34,80h-19S1496,560.8,1529,538.8Z"/>
    <path class="cls-8" d="M1757.7,630.85h72.08V846.23L1717,727.8S1758.4,688.9,1757.7,630.85Z"/>
    <path class="cls-8" d="M1697,634c-.61-.79,38-.2,38-.2s8,31.2-28,77.2C1707,711,1710,651,1697,634Z"/>
    <path class="cls-8" d="M1623,521.8l-1,65.2,34,5.8,45-41S1661,516.8,1623,521.8Z"/>
    <path class="cls-8" d="M1540.76,554.07,1581,591l-28,42.8-44-1S1502.78,592.5,1540.76,554.07Z"/>
    <path class="cls-8" d="M1529,538.8l14,14s35-36,80-31l-3-22S1548,507.8,1529,538.8Z"/>
    <path class="cls-8" d="M1509,632.8s-7,44,33,82l-15.7,14.77S1488,694.8,1490,632.8Z"/>
    <path class="cls-8" d="M1525,539.79s-36,40-38,91h-86s2-56,14-77,45-77,53-76Z"/>
    <path class="cls-8" d="M1624.05,500.89s55,5.91,91,35.91l53-55s-60-60-143-63Z"/>
    <path class="cls-8" d="M1704,554.8s33,41,31,79l19-2s-2.59-64.37-40.8-91.68Z"/>
    <path class="cls-7" d="M1659.2,594.63l38.72-39.74S1737,572.8,1735,633.8l-38,.2Z"/>
    <path class="cls-7" d="M1582,593l-39-40.2s20.09-23.91,54-27.46,21.91-4.58,21.91-4.58l2,44s1,26.2-1,27.2S1582,593,1582,593Z"/>
    <path class="cls-7" d="M1549.66,633.86l-41.26,2s3.6,54.9,33.6,78.9l13-14Z"/>
    <polygon class="cls-8" points="1555 700.8 1542 714.8 1557.36 727.54 1565 725.8 1555 700.8"/>
    <polygon class="cls-8" points="1526 729.8 1401 853.8 1401 1076 1468 1076 1525 905.8 1528.96 898 1534.96 881 1559.96 814 1546 769.8 1546 744.8 1526 729.8"/>
    <polygon class="cls-8" points="1698.88 853.98 1779 1078 1706 1078 1705 894.8 1698.88 853.98"/>
    <polygon class="cls-8" points="1664 742.8 1693 724.8 1703.96 716 1710.8 733.57 1671 758.8 1664 742.8"/>
    <polygon class="cls-7" points="1663 739.8 1686 727.8 1672 722.8 1663 739.8"/>
    <polygon class="cls-7" points="1658 742.8 1664 748.8 1661 754.8 1653 750.8 1658 742.8"/>
    <path d="M1622,771.8c-75.54,0-137-61.46-137-137s61.46-137,137-137,137,61.46,137,137S1697.54,771.8,1622,771.8Zm0-266a129,129,0,1,0,129,129A129.15,129.15,0,0,0,1622,505.8Z"/>
    <path d="M1622,752.23A117.43,117.43,0,1,1,1739.43,634.8,117.56,117.56,0,0,1,1622,752.23Zm0-228A110.57,110.57,0,1,0,1732.57,634.8,110.69,110.69,0,0,0,1622,524.23Z"/>
    <rect x="1617.5" y="416.8" width="8" height="217.5"/>
    <rect x="1540.55" y="446.6" width="8" height="219" transform="translate(59.17 1255.05) rotate(-45)"/>
    <rect x="1399" y="629.05" width="223.75" height="8"/>
    <rect x="1352.67" y="741.12" width="315.52" height="8" transform="translate(-84.49 1286.27) rotate(-45)"/>
    <rect x="1588.09" y="554.85" width="211.22" height="8" transform="translate(100.91 1361.31) rotate(-45)"/>
    <rect x="1618.25" y="629.05" width="212.75" height="8"/>
    <rect x="1721.76" y="589.33" width="8.13" height="302.08" transform="translate(-18.04 1437.19) rotate(-45)"/>
    <rect x="1696.32" y="619.08" width="8" height="469.16" transform="translate(-186.75 611.21) rotate(-19.34)"/>
    <rect x="1309.63" y="850.16" width="470.11" height="8" transform="translate(227.95 2029.68) rotate(-70.7)"/>
    <rect x="1659.5" y="741.8" width="8" height="335.2"/>
    <rect x="1660" y="424.8" width="8" height="84"/>
    <rect x="1702" y="738.8" width="8" height="339.2"/>
    <rect x="1702" y="439.8" width="8" height="92"/>
    <rect x="1744.5" y="676.8" width="8" height="401.2"/>
    <rect x="1787.96" y="490" width="8" height="447"/>
    <rect x="1745" y="462.8" width="8" height="130"/>
    <rect x="1439.5" y="500" width="8" height="576"/>
    <rect x="1484" y="460.8" width="8" height="617.2"/>
    <rect x="1528" y="432.8" width="8" height="103"/>
    <rect x="1528" y="733.8" width="8" height="143.2"/>
    <rect x="1575" y="418.8" width="8" height="88"/>
    <rect class="cls-8" x="1376" y="919.8" width="23" height="107"/>
    <rect class="cls-8" x="1728" y="1055.8" width="104" height="22"/>
    <rect class="cls-7" x="1621" y="1055.8" width="104" height="22"/>
    <rect class="cls-7" x="1511" y="1055.8" width="104" height="22"/>
    <rect class="cls-7" x="1366.4" y="1041.4" width="47.2" height="22" transform="translate(2442.4 -337.6) rotate(90)"/>
    <rect class="cls-7" x="1333" y="850.8" width="114" height="22" transform="translate(2251.8 -528.2) rotate(90)"/>
    <rect class="cls-8" x="1334" y="740.8" width="114" height="22" transform="translate(2142.8 -639.2) rotate(90)"/>
    <rect class="cls-8" x="1399" y="1055.8" width="109" height="22"/>
    <path class="cls-7" d="M1382,583.8l21,8s-2.52,80.16-5.26,105.08L1374,696.8Z"/>
    <polygon class="cls-8" points="1434 474.8 1451.61 493.85 1423 534.8 1403 591.8 1382 583.8 1394 543.8 1415 504.8 1434 474.8"/>
    <polygon class="cls-7" points="1434 474.8 1472 443.8 1529 411.8 1538.72 431.48 1488.72 460.51 1455.91 489.55 1446.24 487.4 1434 474.8"/>
    <polygon class="cls-8" points="1529 411.8 1581 396.8 1646 398.8 1699 410.8 1691.71 433.04 1628.84 418.62 1575.77 422.66 1542 431.8 1529 411.8"/>
    <path class="cls-7" d="M1690,429.8l9-19,67,39,30,29-16.26,14.74S1744,445.8,1690,429.8Z"/>
    <path class="cls-8" d="M1796,478.8l-16,15,18.12,25.65S1829,563.8,1829,588.8l16-5-11-49Z"/>
    <path d="M1857.5,1080h-484V633.3a242,242,0,1,1,484,0Zm-476-8h468V633.3a234,234,0,0,0-468,0Z"/>
    <path d="M1836,1061.34H1395V633.18a220.5,220.5,0,0,1,441,0Zm-433-8h425V633.18c0-117.17-95.33-212.5-212.5-212.5S1403,516,1403,633.18Z"/>
    <rect x="1374.99" y="1023" width="21.03" height="8"/>
    <rect x="1374.99" y="912.87" width="21.03" height="8"/>
    <rect x="1374.99" y="802.73" width="21.03" height="8"/>
    <rect x="1374.99" y="692.6" width="21.03" height="8"/>
    <rect x="1834.99" y="1023" width="21.03" height="8"/>
    <rect x="1834.99" y="912.87" width="21.03" height="8"/>
    <rect x="1834.99" y="802.73" width="21.03" height="8"/>
    <rect x="1834.99" y="692.6" width="21.03" height="8"/>
    <rect x="1387.5" y="576.3" width="8" height="21" transform="translate(503.17 1808.06) rotate(-76.83)"/>
    <rect x="1440.5" y="474.3" width="8" height="21" transform="translate(80.29 1163.43) rotate(-45)"/>
    <rect x="1530.5" y="410.3" width="8" height="21" transform="translate(-26.78 727.67) rotate(-26.45)"/>
    <rect x="1774.75" y="480.8" width="21" height="8" transform="translate(180 1404.22) rotate(-45)"/>
    <rect x="1684.75" y="416.8" width="21" height="8" transform="translate(608.28 1788.07) rotate(-65.46)"/>
    <rect x="1395" y="1059.8" width="8" height="15"/>
    <rect x="1505" y="1059.8" width="8" height="15"/>
    <rect x="1615" y="1059.8" width="8" height="15"/>
    <rect x="1725" y="1059.8" width="8" height="15"/>
    <rect x="1827.97" y="1060" width="8" height="15"/>
    <polyline class="cls-7" points="248.97 814 223.97 881 288.58 899.84 286.96 822 248.97 814"/>
    <polyline class="cls-8" points="370.58 803 395.58 877.93 330.96 899 332.58 811.95 370.58 803"/>
    <rect class="cls-8" x="521" y="919.8" width="23" height="107" transform="translate(1065 1946.6) rotate(-180)"/>
    <rect class="cls-7" x="506.4" y="1041.4" width="47.2" height="22" transform="translate(1582.4 522.4) rotate(90)"/>
    <rect class="cls-7" x="473" y="850.8" width="114" height="22" transform="translate(1391.8 331.8) rotate(90)"/>
    <rect class="cls-8" x="472" y="740.8" width="114" height="22" transform="translate(1280.8 222.8) rotate(90)"/>
    <path class="cls-7" d="M538,583.8l-21,8s2.52,80.16,5.26,105.08L546,696.8Z"/>
    <rect x="518" y="582.8" width="21" height="8" transform="translate(-119.78 135.82) rotate(-13.17)"/>
    <polyline class="cls-7" points="403.01 730.25 518.85 842.31 520 1077 467 1076 359.57 758.86 403.01 730.25"/>
    <path class="cls-7" d="M446,633.8h73s1-98-62-148l-53,51S447,587.8,446,633.8Z"/>
    <path class="cls-7" d="M309,499.8s-53,4-91,39l-61-61s28-30,74-46,79-12,79-12Z"/>
    <path class="cls-7" d="M89,634.8l86-1s2,55,40,93L90,853.8Z"/>
    <line class="cls-7" x1="254" y1="901.8" x2="214" y2="905.8"/>
    <path class="cls-7" d="M309,499.8s76,8,95,37l-14,15s-38-33-78-30Z"/>
    <path class="cls-7" d="M426,632.8l17-1s7,47-37,96l-14-8S423,675.8,426,632.8Z"/>
    <polygon class="cls-7" points="231 714.8 257 734.8 250 750.8 215 726.8 231 714.8"/>
    <path class="cls-7" d="M218,538.8l14,14s-33,28-34,80H179S185,560.8,218,538.8Z"/>
    <path class="cls-8" d="M446.7,630.85h72.08V846.23L406,727.8S447.4,688.9,446.7,630.85Z"/>
    <path class="cls-8" d="M386,634c-.61-.79,38-.2,38-.2s8,31.2-28,77.2C396,711,399,651,386,634Z"/>
    <path class="cls-8" d="M312,521.8,311,587l34,5.8,45-41S350,516.8,312,521.8Z"/>
    <path class="cls-8" d="M229.76,554.07,270,591l-28,42.8-44-1S191.78,592.5,229.76,554.07Z"/>
    <path class="cls-8" d="M218,538.8l14,14s35-36,80-31l-3-22S237,507.8,218,538.8Z"/>
    <path class="cls-8" d="M198,632.8s-7,44,33,82l-15.7,14.77S177,694.8,179,632.8Z"/>
    <path class="cls-8" d="M214,539.79s-36,40-38,91H90s2-56,14-77,45-77,53-76Z"/>
    <path class="cls-8" d="M313.05,500.89S368,506.8,404,536.8l53-55s-60-60-143-63Z"/>
    <path class="cls-8" d="M393,554.8s33,41,31,79l19-2s-2.59-64.37-40.8-91.68Z"/>
    <path class="cls-7" d="M348.2,594.63l38.72-39.74S426,572.8,424,633.8l-38,.2Z"/>
    <path class="cls-7" d="M271,593l-39-40.2s20.09-23.91,54-27.46S308,520.76,308,520.76l2.05,44s1,26.2-1,27.2S271,593,271,593Z"/>
    <path class="cls-7" d="M238.66,633.86l-41.26,2s3.6,54.9,33.6,78.9l13-14Z"/>
    <polygon class="cls-8" points="244 700.8 231 714.8 246.36 727.54 254 725.8 244 700.8"/>
    <polygon class="cls-8" points="215 729.8 90 853.8 91 1075 142 1075 214 905.8 217.97 898 223.97 881 248.97 814 235 769.8 235 744.8 215 729.8"/>
    <polygon class="cls-8" points="387.88 853.98 468 1077 393 1076 394 894.8 387.88 853.98"/>
    <polygon class="cls-8" points="353 742.8 382 724.8 392.96 716 399.8 733.57 360 758.8 353 742.8"/>
    <polygon class="cls-7" points="352 739.8 375 727.8 361 722.8 352 739.8"/>
    <polygon class="cls-7" points="347 742.8 353 748.8 350 754.8 342 750.8 347 742.8"/>
    <path d="M311,771.8c-75.54,0-137-61.46-137-137s61.46-137,137-137,137,61.46,137,137S386.54,771.8,311,771.8Zm0-266a129,129,0,1,0,129,129A129.15,129.15,0,0,0,311,505.8Z"/>
    <path d="M311,752.23A117.43,117.43,0,1,1,428.43,634.8,117.56,117.56,0,0,1,311,752.23Zm0-228A110.57,110.57,0,1,0,421.57,634.8,110.69,110.69,0,0,0,311,524.23Z"/>
    <rect x="306.5" y="416.8" width="8" height="217.5"/>
    <rect x="229.55" y="446.6" width="8" height="219" transform="translate(-324.82 328.03) rotate(-45)"/>
    <rect x="88" y="629.05" width="223.75" height="8"/>
    <rect x="41.67" y="741.12" width="315.52" height="8" transform="translate(-468.5 359.31) rotate(-45)"/>
    <rect x="277.09" y="554.85" width="211.22" height="8" transform="translate(-283.09 434.35) rotate(-45)"/>
    <rect x="307.25" y="629.05" width="212.75" height="8"/>
    <rect x="410.76" y="589.33" width="8.13" height="302.08" transform="translate(-402.02 510.17) rotate(-45)"/>
    <rect x="385.82" y="618.97" width="8" height="471.38" transform="translate(-261.42 177.69) rotate(-19.37)"/>
    <rect x="-0.23" y="849.66" width="468.83" height="8" transform="translate(-648.97 793.63) rotate(-70.77)"/>
    <rect x="348.5" y="741.8" width="8" height="333"/>
    <rect x="349" y="424.8" width="8" height="84"/>
    <rect x="391" y="738.8" width="8" height="336"/>
    <rect x="391" y="439.8" width="8" height="92"/>
    <rect x="433.5" y="676.8" width="8" height="398"/>
    <rect x="476.96" y="490" width="8" height="447"/>
    <rect x="434" y="462.8" width="8" height="130"/>
    <rect x="128.5" y="500" width="8" height="577.8"/>
    <rect x="173" y="460.8" width="8" height="617"/>
    <rect x="217" y="432.8" width="8" height="103"/>
    <rect x="217" y="733.8" width="8" height="143.2"/>
    <rect x="264" y="418.8" width="8" height="88"/>
    <rect class="cls-8" x="65" y="919.8" width="23" height="107"/>
    <rect class="cls-8" x="417" y="1055.8" width="104" height="22"/>
    <rect class="cls-7" x="310" y="1055.8" width="104" height="22"/>
    <rect class="cls-7" x="200" y="1055.8" width="104" height="22"/>
    <rect class="cls-7" x="55.4" y="1041.4" width="47.2" height="22" transform="translate(1131.4 973.4) rotate(90)"/>
    <rect class="cls-7" x="22" y="850.8" width="114" height="22" transform="translate(940.8 782.8) rotate(90)"/>
    <rect class="cls-8" x="23" y="740.8" width="114" height="22" transform="translate(831.8 671.8) rotate(90)"/>
    <rect class="cls-8" x="88" y="1055.8" width="109" height="22"/>
    <path class="cls-7" d="M71,583.8l21,8S89.48,672,86.74,696.88L63,696.8Z"/>
    <polygon class="cls-8" points="123 474.8 140.61 493.85 112 534.8 92 591.8 71 583.8 83 543.8 104 504.8 123 474.8"/>
    <polygon class="cls-7" points="123 474.8 161 443.8 218 411.8 227.72 431.48 177.72 460.51 144.91 489.55 135.24 487.4 123 474.8"/>
    <polygon class="cls-8" points="218 411.8 270 396.8 335 398.8 388 410.8 380.71 433.04 317.84 418.62 264.77 422.66 231 431.8 218 411.8"/>
    <path class="cls-7" d="M379,429.8l9-19,67,39,30,29-16.26,14.74S433,445.8,379,429.8Z"/>
    <path class="cls-8" d="M485,478.8l-16,15,18.12,25.65S518,563.8,518,588.8l16-5-11-49Z"/>
    <path d="M546.5,1080H62.5V633.3A242,242,0,0,1,475.62,462.18,240.41,240.41,0,0,1,546.5,633.3Zm-476-8h468V633.3A234,234,0,0,0,139,467.84,232.43,232.43,0,0,0,70.5,633.3Z"/>
    <path d="M525,1061.34H84V633.18a220.5,220.5,0,0,1,441,0Zm-433-8H517V633.18c0-117.17-95.33-212.5-212.5-212.5S92,516,92,633.18Z"/>
    <rect x="63.99" y="1023" width="21.03" height="8"/>
    <rect x="63.99" y="912.87" width="21.03" height="8"/>
    <rect x="63.99" y="802.73" width="21.03" height="8"/>
    <rect x="63.99" y="692.6" width="21.03" height="8"/>
    <rect x="523.99" y="1023" width="21.03" height="8"/>
    <rect x="523.99" y="912.87" width="21.03" height="8"/>
    <rect x="523.99" y="802.73" width="21.03" height="8"/>
    <rect x="523.99" y="692.6" width="21.03" height="8"/>
    <rect x="76.5" y="576.3" width="8" height="21" transform="translate(-509.21 531.53) rotate(-76.83)"/>
    <rect x="129.5" y="474.3" width="8" height="21" transform="translate(-303.71 236.4) rotate(-45)"/>
    <rect x="219.5" y="410.3" width="8" height="21" transform="translate(-164.06 143.63) rotate(-26.45)"/>
    <rect x="463.75" y="480.8" width="21" height="8" transform="translate(-203.9 477.34) rotate(-45)"/>
    <rect x="373.75" y="416.8" width="21" height="8" transform="translate(-158.14 595.53) rotate(-65.46)"/>
    <rect x="84" y="1059.8" width="8" height="15"/>
    <rect x="194" y="1059.8" width="8" height="15"/>
    <rect x="304" y="1059.8" width="8" height="15"/>
    <rect x="414" y="1059.8" width="8" height="15"/>
    <rect x="516.97" y="1060" width="8" height="15"/>
    <path class="cls-11" d="M896.19,1080c-40.69-40.31-59.65-93.3-63.17-106-5-18-18-109-50.56-177.28S699,683,699,683c30,39,0,192,60,300,24.82,44.68,63.32,75.82,100,97Z"/>
    <path class="cls-10" d="M896.76,1080h56.48C939.79,992.39,903.51,786.74,852,729c-66-74-88-165-88-165-19,194,26,216,59.5,372.13C839,1008.07,868.92,1052.73,896.76,1080Z"/>
    <path class="cls-11" d="M965.15,1080,978,990s-28-13-38,4l14,86Z"/>
    <path class="cls-10" d="M1022.22,1080c27.84-27.27,57.81-71.93,73.24-143.87C1129,780,1174,758,1155,564c0,0-22,91-88,165-51.5,57.74-87.77,263.39-101.23,351Z"/>
    <path class="cls-11" d="M1060,1080c36.63-21.18,75.14-52.32,100-97,60-108,30-261,60-300,0,0-50.88,45.43-83.44,113.72S1091,956,1086,974c-3.53,12.7-22.49,65.69-63.18,106Z"/>
  </g>
  <g id="Layer_4" data-name="Layer 4">
    <path d="M943.2,997.73l-6.17-5.1c24.46-29.57,31.83-73.37,21.89-130.17C950.8,816,931.44,761.91,901.39,701.77c-41-82-54.23-195-57.46-229.89-26.36,38.81-31.56,91.49-31.06,130.11a431,431,0,0,0,9,82.07l-7.8,1.81a440.68,440.68,0,0,1-9.2-83.61c-.57-42.86,5.75-102.59,39-143.81l7.1,2.26c.09,1.41,9.49,141.35,57.52,237.49,30.4,60.83,50,115.63,58.26,162.88C977.16,920.29,969.22,966.27,943.2,997.73Z"/>
    <path d="M955.58,814.5l-5.8-5.51c36.39-38.32-.4-142.35-22.38-204.5-5.16-14.58-9.61-27.18-12.24-36.4-11.9-41.68,1.34-133.39,6.28-163.89-13.1,11.05-29.78,31.23-45.59,68a351.55,351.55,0,0,0-17.26,50.49l-7.78-1.85c.93-3.9,23.29-95.73,74-129.2L931,395.7c-.22,1.22-21.71,122.64-8.14,170.19,2.56,9,7,21.47,12.09,35.93,11.1,31.39,26.3,74.38,33.67,113.83C977.55,763.52,973.29,795.85,955.58,814.5Z"/>
    <path d="M886.31,436.37,866.19,359l6.18-4.27c1.53,1.08,37.62,26.75,46.62,45.51l-7.21,3.46c-5.52-11.5-23.77-26.9-35-35.63l17.24,66.31Z"/>
    <path d="M962,681.32l-8-.64c6.18-76.39-3.56-143.31-12.82-186-10-46.3-21.7-74.88-21.81-75.17l7.39-3c.49,1.17,12,29.37,22.19,76.3C958.33,536,968.22,603.87,962,681.32Z"/>
    <path d="M974.74,997.74c-26-31.48-33.92-77.46-23.54-136.66,8.29-47.25,27.92-102,58.35-162.86,48.1-96.11,57.57-236,57.66-237.45l7.1-2.25c33.28,41.23,39.57,101,39,143.83A438.92,438.92,0,0,1,1104,686l-7.79-1.82a432,432,0,0,0,9-82c.51-38.63-4.65-91.31-31-130.14-3.26,34.85-16.56,147.87-57.59,229.86C986.63,761.93,967.24,816,959.08,862.46c-10,56.8-2.62,100.6,21.82,130.18Z"/>
    <path d="M962.45,814.5c-17.69-18.66-21.94-51-13-98.85,7.39-39.45,22.61-82.43,33.73-113.82,5.12-14.45,9.54-26.93,12.11-35.92,13.6-47.54-7.82-169-8-170.2l6.14-4c50.73,33.5,73,125.34,74,129.24l-7.79,1.85a348.45,348.45,0,0,0-17.23-50.5c-9.42-22-24.64-50.46-45.55-68.06,4.92,30.48,18.12,122.23,6.19,163.91-2.63,9.22-7.09,21.81-12.26,36.39-22,62.15-58.86,166.16-22.49,204.49Z"/>
    <path d="M1031.94,436.41l-7.75-2,17.28-66.31c-11.2,8.73-29.46,24.12-35,35.62l-7.21-3.47c9-18.75,45.12-44.4,46.65-45.48l6.18,4.27Z"/>
    <path d="M956.15,681.32c-6.22-77.46,3.71-145.28,13.13-188.54,10.22-46.93,21.75-75.12,22.23-76.3l7.4,3.06c-.12.28-11.79,28.85-21.86,75.15-9.28,42.68-19.06,109.6-12.93,186Z"/>
    <path d="M998,398.37h0c0-.41-2.78-25.09-17.11-46.11-9.86-14.47-17.5-34.86-21.76-47.82-4.27,13-11.92,33.34-21.79,47.81-14.38,21.07-17.11,45.85-17.13,46.1l-8-.82c.11-1.09,2.92-27,18.48-49.79,14.46-21.19,24.36-57.42,24.46-57.78l3.86-3h.17l3.86,3c.1.36,10,36.62,24.43,57.79,15.54,22.82,18.34,48.71,18.45,49.81Z"/>
    <path d="M864.81,1080c-3.23-1.79-6.49-3.64-9.75-5.6-31.07-18.62-56.84-41.39-76.6-67.67-24.65-32.81-40-71.26-45.58-114.31-8-61.89-12.6-104.1-15.93-134.93-3.37-31.24-5.34-49.51-8.27-61.89a435,435,0,0,1,32,42.68c25.61,38.77,59.47,102.94,75.31,188.41,7.14,38.52,19,72.79,35.21,101.84A231.84,231.84,0,0,0,889.74,1080H901.3c-27.28-25-62.1-71.89-77.46-154.77C807.72,838.3,773.25,773,747.17,733.61c-28.32-42.82-52.51-64.75-53.52-65.66l-5.57,5.74C701,687.22,702,693.6,709,758.35c3.33,30.86,7.89,73.12,16,135.1,5.78,44.49,21.66,84.26,47.22,118.22,19.93,26.47,45.74,49.44,76.72,68.33Z"/>
    <path d="M968.05,1080c4.11-29.25,10.83-71.9,20.44-118,16.13-77.33,43.93-180.44,84.78-232.5,40.48-51.59,61.38-96,71.79-124.22a290.37,290.37,0,0,0,9-28.45c14.37,103.06-23.22,231-23.62,232.4l7.66,2.28a759.4,759.4,0,0,0,19.08-87.67c7.34-46.26,13.46-113.25.95-169.65l-7.89.52c-.07.72-7.24,73-83.21,169.85-33.58,42.78-62.62,122.14-86.34,235.88-9.77,46.85-16.55,90.16-20.67,119.56Z"/>
    <path d="M764.16,576.72a289.51,289.51,0,0,0,8.93,28.45c18.82,51.1,49.39,95.78,71.72,124.27,40.83,52.08,68.57,155.21,84.65,232.55,9.59,46.11,16.28,88.76,20.38,118h8.08c-4.11-29.41-10.87-72.71-20.61-119.57-23.65-113.75-52.65-193.13-86.2-235.93C775.19,627.66,768.06,555.32,768,554.6l-7.89-.52c-12.55,56.4-6.46,123.39.85,169.65a761.11,761.11,0,0,0,19,87.68l7.67-2.28C787.25,807.76,749.73,679.77,764.16,576.72Z"/>
    <path d="M1224.47,668.1c-1,.91-25.22,22.82-53.56,65.63-26.1,39.42-60.61,104.65-76.77,191.58-15.4,82.83-50.23,129.66-77.52,154.69h11.57a232,232,0,0,0,38.55-51.41c16.23-29,28.1-63.3,35.26-101.82,15.89-85.46,49.78-149.61,75.41-188.37a436.88,436.88,0,0,1,32-42.66c-2.94,12.38-4.92,30.64-8.31,61.88-3.34,30.83-7.92,73-16,134.93-5.61,43-21,81.49-45.65,114.28-19.77,26.27-45.55,49-76.63,67.63q-4.85,2.89-9.66,5.54h15.92c31-18.86,56.75-41.79,76.67-68.23,25.57-33.94,41.48-73.7,47.28-118.19,8.09-62,12.68-104.24,16-135.09,7-64.74,8-71.12,21-84.65Z"/>
  </g>
  <g id="Layer_3" data-name="Layer 3">
    <polygon class="cls-12" points="1151.12 827.68 1223.91 943.07 993.89 1010.01 983.89 1030.01 933.89 1029.99 922.89 1009.99 697.91 939.93 765.94 822.95 1151.12 827.68"/>
    <polygon class="cls-13" points="961.89 1027 981.9 996.01 1003.9 981.01 1168.91 951.06 1204.91 936.07 1145.94 823.05 1115.95 815.04 1089.95 818.04 1017.95 790.02 988.95 795.01 958.95 810 915.95 789.99 868.95 801.98 824.95 816.96 795.95 816.96 770.94 826.95 716.91 935.93 774.91 956.95 877.9 974.98 925.9 982.99 948.89 1010 954.89 1026 961.89 1027"/>
    <path class="cls-14" d="M1533,725l9,54s29,68,73,68,72-53,77-87l5-34-19-19-7-54s-26-23-55-23-59,25-59,25l-5,51Z"/>
    <polygon class="cls-14" points="1524.96 715 1532.96 725 1534.96 764 1525.96 759 1524.96 715"/>
    <polygon class="cls-14" points="1706.96 715 1698.96 725 1696.96 764 1705.96 759 1706.96 715"/>
    <path class="cls-15" d="M1671,653l7,54,19,19,12-26-11-61-36-42-51-12-50,17-27,33-13,42,4,35,8,13,19-19,6-55s34-22,58-21S1671,653,1671,653Z"/>
    <polygon class="cls-14" points="1569.96 825 1562.96 884 1571.96 903 1615.96 910 1656.96 902 1665.96 883 1659.15 828.75 1634.99 844.12 1599.13 847.05 1569.96 825"/>
    <path class="cls-16" d="M1420,1054l-1-91s15-28,25-34l100-57,15-21,6.93,14.22L1563,884l9,19s23,7,44,7,41-8,41-8l9-19-3-39.43L1691,876l97,54s20,16,21,39,3,85,3,85Z"/>
    <path class="cls-14" d="M222,725l9,54s29,68,73,68,72-53,77-87l5-34-19-19-7-54s-26-23-55-23-59,25-59,25l-5,51Z"/>
    <polygon class="cls-14" points="213.97 715 221.97 725 223.97 764 214.97 759 213.97 715"/>
    <polygon class="cls-14" points="395.96 715 387.96 725 385.96 764 394.96 759 395.96 715"/>
    <path class="cls-15" d="M360,653l7,54,19,19,12-26-11-61-36-42-51-12-50,17-27,33-13,42,4,35,8,13,19-19,6-55s34-22,58-21S360,653,360,653Z"/>
    <polygon class="cls-14" points="258.96 825 251.97 884 260.96 903 304.96 910 345.96 902 354.96 883 348.15 828.75 323.99 844.12 288.13 847.05 258.96 825"/>
    <path class="cls-16" d="M109,1054l-1-91s15-28,25-34l100-57,15-21,6.93,14.22L252,884l9,19s23,7,44,7,41-8,41-8l9-19-3.05-39.43L380,876l97,54s20,16,21,39,3,85,3,85Z"/>
  </g>
  <g id="Layer_1" data-name="Layer 1">
    <g>
      <polyline class="cls-12" points="612.42 468.48 645.85 454.94 662.75 455.85 659.19 448.89 642.29 447.98 608.86 461.51"/>
      <polygon points="613.92 472.19 611 464.96 610.36 465.22 607.36 457.81 640.79 444.27 642.51 443.98 659.4 444.89 662.75 447.07 666.31 454.03 662.54 459.85 646.53 458.99 613.92 472.19"/>
    </g>
    <g>
      <path class="cls-11" d="M532.26,445,518,489.2l83.09,26.86,14.21-43.95-14.35-21.32L552,435Zm18.66-.65,45.79,14.8-4.11,12.69-45.78-14.8Z"/>
      <path d="M603.65,521.1l-90.71-29.32,16-49.56,22.64-11.58,51.88,16.77,16.2,24.08ZM523,486.63,598.49,511l12.38-38.29-9.69-14.4-6,18.57-53.39-17.26,5.8-18-12,6.16Zm28.85-32.14L590,466.83l1.64-5.09L553.5,449.41Zm-1.17-14.4,48.84,15.79-1.15-1.71-46.09-14.9Z"/>
    </g>
    <polyline class="cls-10" points="569.65 202.93 539.12 185.29 512.31 183.77 508.6 242.89 531.64 252.97 569.65 202.93"/>
    <polyline class="cls-9" points="508.07 180.71 473.44 187.39 452.2 203.8 488.13 250.89 512.14 243.41 508.07 180.71"/>
    <polyline class="cls-10" points="451.31 202.77 421.31 237.77 417.31 252.77 474.04 266.16 484.05 243.12 456.31 210.77"/>
    <polyline class="cls-9" points="415.31 252.77 418.94 301.32 421.31 313.77 481.99 286.63 467.31 268.77 417.31 252.77"/>
    <polyline class="cls-9" points="571.71 201.48 540.22 240 549.22 260.77 558.22 268.77 606.14 251.94 579.22 203.77 571.71 201.48"/>
    <polygon class="cls-10" points="582.31 304.77 602.88 310.76 609.57 276.34 606.22 253.94 559.43 267.98 553.22 289 582.31 304.77"/>
    <polyline class="cls-9" points="443.51 188.37 421.25 207.25 402.86 248.87 418.35 249.35 437.71 213.54 451.31 202.77 443.51 188.37"/>
    <polyline class="cls-10" points="417.31 252.77 402.86 248.87 397.31 285.77 405.81 314.37 413.33 315.19 418.42 311.12 414.31 259.77 417.31 252.77"/>
    <polygon class="cls-10" points="508.31 167.77 509.31 178.77 462.31 193.77 454.31 200.77 444.21 191.91 445.31 183.77 506.63 165.86 508.31 167.77"/>
    <polyline class="cls-9" points="577.31 188.77 539.31 167.77 511.31 166.02 511.31 181.29 560.06 194.46 571.8 203.48 577.31 188.77"/>
    <polyline class="cls-10" points="618.6 246.13 601.41 206.26 580.34 187.74 570.99 199.81 601.48 240.07 605.24 254.39 618.6 246.13"/>
    <polyline class="cls-9" points="617.84 316.22 625.87 273.55 618.75 246.41 604.25 251.2 607.03 301.63 602.14 315.6 617.84 316.22"/>
    <polyline class="cls-10" points="576.31 373.41 608.78 344.59 619.77 318.77 605.37 313.68 576.7 355.26 564.28 363.31 576.31 373.41"/>
    <path class="cls-9" d="M564.22,362l9,11s-37,20-47,20l-5-15Z"/>
    <path class="cls-9" d="M603.22,311c-2,1-36.59-9.43-36.59-9.43L553.51,317l-7.29,12,18,30,24-20Z"/>
    <polygon class="cls-10" points="542.22 329 564.22 359 521.22 378 509.22 364 533.7 327.3 542.22 329"/>
    <polygon class="cls-10" points="451.22 304 421.22 314 433.22 339 456.25 339.13 462.43 326.26 457.8 308.77 451.22 304"/>
    <polygon class="cls-9" points="509.31 362.77 508.51 373.63 478.19 373.3 460.34 352.75 472.46 346.01 499.75 351.74 509.31 362.77"/>
    <path d="M511.31,396a117,117,0,1,1,117-117A117.13,117.13,0,0,1,511.31,396Zm0-226a109,109,0,1,0,109,109A109.12,109.12,0,0,0,511.31,170Z"/>
    <path d="M511.31,380.75A101.73,101.73,0,1,1,613,279,101.84,101.84,0,0,1,511.31,380.75Zm0-195.46A93.73,93.73,0,1,0,605,279,93.83,93.83,0,0,0,511.31,185.29Z"/>
    <rect x="506.72" y="164" width="8" height="228" transform="translate(-1.21 2.24) rotate(-0.25)"/>
    <rect x="273.12" y="341.02" width="386.37" height="8" transform="translate(-87.31 518.21) rotate(-53.87)"/>
    <rect x="394.78" y="279" width="230.87" height="8" transform="translate(-61.79 168.04) rotate(-17.65)"/>
    <rect x="507.22" y="168.81" width="8" height="227.37" transform="translate(83.21 679.94) rotate(-71.8)"/>
    <rect x="505.22" y="166.79" width="8" height="230.42" transform="translate(-68.28 354.92) rotate(-36.17)"/>
    <polyline class="cls-13" points="441.39 364.76 396.89 278.67 357.18 248.42 278.74 213.83 226.45 165.66 250.28 213.64 247.8 223.63 294.52 265.23 259.87 269.63 286.97 291.27 328.48 303.78 289.66 311.26 275.71 312.48 307.05 332.5 345.11 332.6 312.73 347.29 373.85 366.45 378.13 370.96 346.6 391.81 392.6 388.94 383.62 412.36 407.95 400.12 408.13 412.58 425.27 391.25 421.83 374.61 441.39 364.76"/>
    <path d="M432.69,369.44c-.4-.85-40.31-85-99-107.3-34.63-13.15-59.1-26.25-77-41.24-21.3-17.8-33-38.16-35.73-62.22l-2.09-18.35,9.49,15.84c.35.58,35.83,58.39,108.43,78.74,57.92,16.24,83.45,72.47,98.7,106.07,4.57,10.07,8.52,18.77,11.41,21.6l-5.61,5.71a19.32,19.32,0,0,1-1.76-2ZM233.21,176.24c5.23,14.2,14.68,26.92,28.57,38.53,17.22,14.39,41,27.07,74.74,39.89,26,9.88,51.35,31.66,75.28,64.75,6.58,9.09,12.09,17.74,16.45,25.07,0-.07-.05-.13-.08-.19-14.68-32.33-39.25-86.44-93.58-101.67-39.6-11.1-68.21-32.85-85.24-49.13A209.77,209.77,0,0,1,233.21,176.24Z"/>
    <path d="M411.06,332.09c-.06-.08-6.08-7.67-19.51-17.61-12.4-9.19-33.84-22.32-65.54-32.69C262.42,261,239.43,217,238.48,215.12l-4.74-9.32L266,218.27l-2.89,7.46-10.8-4.18c10.48,13.9,34.1,38.83,76.24,52.63,63.19,20.69,87.85,51.68,88.87,53Z"/>
    <path d="M419.28,345.23c-.06-.06-5.37-6.68-16-14.06a118.42,118.42,0,0,0-49-19.21c-57.21-9-91.89-24.68-106-47.87l-6.22-10.22,11.12,4.42c.29.12,28.66,11.27,44.51,5.55l2.72,7.52c-11.13,4-26.32,1.44-37.07-1.41,16.42,15.58,47.34,27,92.2,34.11,46.83,7.38,69.1,35,70,36.22l-6.29,5,3.14-2.48Z"/>
    <path d="M429.62,362.3a17.76,17.76,0,0,1-3.16-1.54c-8-4.21-32.23-17-52.27-22.06-6.8-1.71-15.68-1.71-25.95-1.69-24.75,0-55.56,0-79.07-24.55L262.05,305l10.28.69c.36,0,36.44,2.35,62.71-5l2.15,7.71c-18.53,5.18-41,5.83-54.18,5.66C303.06,329,327.83,329,348.24,329c10.36,0,20.14,0,27.9,1.93,21,5.27,45.87,18.42,54.05,22.75,1.1.57,1.82,1,2.11,1.09a2.81,2.81,0,0,0-.42-.15Z"/>
    <path d="M381.86,370.15a99.5,99.5,0,0,1-22.39-2.43c-33.12-7.66-50.73-14.86-51.47-15.16l-7.8-3.22,7.43-4c1.41-.76,34.69-18.53,55.94-16l-1,7.94c-12.86-1.55-32,6-42.87,11,8.27,2.81,22.3,7.15,41.54,11.6,31.5,7.29,64.76-5.88,65.09-6l3,7.42A139.74,139.74,0,0,1,381.86,370.15Z"/>
    <path d="M355,398.35a114.68,114.68,0,0,1-15.31-1.05l-14.05-1.91,13-5.72c.31-.13,30.59-13.57,42.05-25.91l5.86,5.45c-7.32,7.88-20.81,15.8-31.07,21.17a89.16,89.16,0,0,0,48.52-14c13.88-8.84,20.94-18.78,21-18.88l6.57,4.57c-.32.46-7.85,11.15-23,20.85A98.34,98.34,0,0,1,355,398.35Z"/>
    <path d="M370.55,423.76l-1.38-7.88s.65-.14,1.71-.42c8.23-3,17.28-20.52,21.27-31.5l7.52,2.73a128.89,128.89,0,0,1-7.94,17.06c-.79,1.39-1.58,2.72-2.37,4,10.45-5.94,22.36-15.78,28.89-31.49l7.39,3.07c-13.12,31.57-44.32,41.71-52.78,43.92A13.78,13.78,0,0,1,370.55,423.76Z"/>
    <path d="M401,418.89l4.37-21.63,7.84,1.58-1.63,8.06c8.6-7.08,7.83-23.07,7.82-23.26l8-.47a51.23,51.23,0,0,1-1.7,15c-3,10.86-9.48,17.59-18.76,19.48Z"/>
    <polygon class="cls-17" points="545.22 307 528.22 315 518.22 297 502.22 292 486.22 286 466.22 296 460.22 311 449.22 291 458.22 274 460.22 263 472.22 259 473.22 241 494.22 238 507.22 233 526.22 241 544.22 241 554.22 262 566.22 270 565.22 293 567.22 304 554.22 315 548.22 327 538.22 326 545.22 307"/>
    <polygon class="cls-14" points="540.76 311.56 525.66 312 518.22 297 506.13 295.58 502.22 292 486.22 286 477.71 289.36 466.22 296 460.22 311 460.22 336 434.22 344 423.22 350 408.22 388 398.22 413 399.22 399 373.22 412 357.22 431 364.22 440 397.22 451 402.22 492 380.22 494 384.22 478 373.22 459 355.22 443 345.22 440 336.22 478 337.22 487 325.22 481 311.22 503 302.22 512 288.22 525 280.22 563 296.22 572 300.22 543 355.22 526 363.22 538 399.22 530 418.22 483 457.22 454 481.22 418 509.22 428 512.22 411 507.22 405 517.22 411 544.97 405 523.22 383 505.22 361 540.76 311.56"/>
    <polygon class="cls-14" points="540.97 401 584.97 438 556.22 436 517.22 411 524.48 403.97 540.22 405 540.97 401"/>
    <polygon class="cls-18" points="380.22 392 375.22 370 367.22 371 347.22 404 318.22 420 329.22 451 349.8 442.69 371.22 454 384.22 478 380.22 494 402.22 492 396.5 454.58 361.26 438.87 356.22 418 362.22 399 380.22 392"/>
    <path d="M504.44,434.19c-7.9,0-16.59-5.81-19.09-7.6l-46.42-15.81-2.1-1.65c-.71-1.14-17.56-28.11-18.61-47.92-.35-6.81,1.49-12.4,5.5-16.62,5.49-5.78,14.48-8.59,27.5-8.59a5.53,5.53,0,0,0,4.72-2.06c2.43-3.12,2.54-9.39,1.4-14-1.89-7.56,0-23.29,4.43-29a6.79,6.79,0,0,1,5.45-2.95,7.45,7.45,0,0,1,5.83,2.56c2.79,3.21,2.26,8.06,2.13,9l-7.92-1.13,4,.57-4-.54a7,7,0,0,0,0-1.3c-1.91,4.16-3.64,15.06-2.19,20.87,1.5,6,1.65,15.06-2.86,20.83a13.43,13.43,0,0,1-11,5.14c-10.56,0-17.86,2.05-21.7,6.1-2.47,2.6-3.55,6.1-3.31,10.69.82,15.58,13.48,37.57,16.67,42.89l45.63,15.53,1.11.59c2.91,2.17,8.82,5.6,13.25,6.29l.91-5.07,2.61-.29,1.33-4.7.92-.12.05-.8-1.76-.12-2-6.08c-4.84-.43-9.24-.35-10.69.52h-4.1l-32-19-1.74-2.13-9-26,7.56-2.62,8.52,24.62,29,17.24c6.6-2,17.78-.16,21.4.52l1.43,5.5,6.11.44,1.09,7.75-5,1.8-.93,5.41-1.66.21L513.66,428l-1.06.12.45,2.74A11.71,11.71,0,0,1,504.44,434.19Z"/>
    <path d="M399.22,422h-8c0-13.66,24.7-58,27.51-63l7,3.92C415.46,381.17,399.22,413.29,399.22,422Z"/>
    <polygon points="378.38 500 378.05 492 398.91 491.13 399.14 489.97 392.7 455 362.85 444.4 353.26 432.9 336.01 431.99 336.43 424 357.17 425.1 367.59 437.6 399.73 449 407.29 490.03 405.52 498.86 378.38 500"/>
    <path d="M296.88,577.94l-4.64-3.5,0-.25-3.87-.22-.75-3-3.33-.4-.1-.66-3.54.14c-2.14-1.84-8.25-10.16,2.84-40.42C289.74,512.5,295,510.1,304.62,507c6.64-2.12,15.64-5,30.21-17.52-1.37-7.44-4.29-30.07,7.45-45.14L336,444l.5-8,16,1,1.92.63,17,11,1.16,1.14,16,24,.65,2.55-1,12-.71,2-26,37-2.07,1.51-52.88,16.65-3.17,3.8c.23,2.36.6,6.8.6,11.36C304,568.14,303.16,576.9,296.88,577.94Zm-5.41-14.35,4.42.55a96.94,96.94,0,0,0-.64-15.67l.9-3,5-6,1.87-1.26,52.7-16.59,24.6-35,.8-9.53-14.77-22.15-14.29-9.25c-16.1,13.79-9,44.09-8.95,44.4L341.87,494c-16.87,14.94-27.67,18.39-34.81,20.67-7.68,2.45-10.86,3.47-16.09,17.72-5.63,15.37-6.25,23.77-5.85,28l6.06,2,.2,1.41Z"/>
    <polygon points="327.05 455.06 311.1 418.24 344.34 400.02 364.1 366.74 378.6 368.35 383.64 394.82 363.79 408.4 359.13 429.85 351.31 428.15 356.65 403.6 374.8 391.18 371.84 375.65 368.34 375.26 350.1 405.98 321.34 421.75 331.38 444.94 346.83 439.25 349.6 446.75 327.05 455.06"/>
    <rect x="354.56" y="395" width="14.32" height="8" transform="translate(-104.2 669.11) rotate(-77.91)"/>
    <path d="M409.87,481.83a57.87,57.87,0,0,1-10.19-.91l1.41-7.88c46.47,8.32,74-52.05,74.22-52.66l7.31,3.25a134.74,134.74,0,0,1-21.16,31.91C445.87,472.88,428.2,481.83,409.87,481.83Z"/>
    <path d="M360.26,431.6l-6.08-5.2C385,390.48,401.72,394,403.52,394.56l-2.22,7.68.15,0C401.31,402.25,387.47,399.86,360.26,431.6Z"/>
    <polygon points="366.24 542.87 362.66 542.07 350.66 532.07 355.78 525.92 366.19 534.6 396.25 526.65 416.23 476.51 423.66 479.47 402.93 531.48 400.24 533.87 366.24 542.87"/>
    <path d="M312.56,511.54l-7.82-1.67c.15-.72,3.84-17.71,11.32-27.33a12.35,12.35,0,0,1,9.12-5.06c7.49-.47,14.13,6,14.87,6.69l-5.65,5.66c-1.22-1.2-5.43-4.59-8.74-4.36a4.32,4.32,0,0,0-3.28,2C316,495.61,312.6,511.38,312.56,511.54Z"/>
    <rect x="488.57" y="393.5" width="10.3" height="8" transform="translate(-93.52 636.06) rotate(-60.95)"/>
    <path d="M499.31,366c-19.84,0-34.09-29-34.69-30.28l7.2-3.48c3.58,7.39,15.64,26.42,28.18,25.74,9.62-.53,19.22-16.16,27.69-30,5-8.22,9.82-16,14.7-20.87l5.66,5.66c-4.21,4.21-8.75,11.59-13.55,19.4-10,16.22-20.26,33-34.06,33.76C500.06,366,499.69,366,499.31,366Z"/>
    <path d="M530.15,317.56a15.3,15.3,0,0,1-8-2.13c-3.85-2.31-8.22-7.15-7.17-17.1a37.22,37.22,0,0,1,2.56-9.93l7.33,3.2a29.51,29.51,0,0,0-2,7.73c-.67,6.83,2.35,8.64,3.35,9.24,6.09,3.66,17-3.72,20.32-6.6l5.24,6C551.28,308.5,540.68,317.56,530.15,317.56Z"/>
    <path d="M514.15,301.4c-6.33,0-14.34-2.37-16.79-11.35l7.72-2.1c2,7.18,11.89,5.22,12.32,5.13l1.66,7.83A24.24,24.24,0,0,1,514.15,301.4Z"/>
    <path d="M498,293.29c-4.32,0-9-1.66-13.95-5l4.44-6.66c4.8,3.2,8.84,4.29,12,3.22,4.18-1.39,6-6.18,6-6.22l7.54,2.66c-.12.35-3.09,8.52-11,11.15A15.83,15.83,0,0,1,498,293.29Z"/>
    <path d="M479.75,292.22a24.8,24.8,0,0,1-7.8-1.43l2.53-7.59c3.9,1.3,6.81,1.36,8.2.17,1.89-1.61,1.88-6,1.59-7.71l7.89-1.32c.17,1,1.51,10.17-4.28,15.11A12.07,12.07,0,0,1,479.75,292.22Z"/>
    <path d="M472.22,297v-8a2.61,2.61,0,0,0,.2-.27l7.59,2.53A8.34,8.34,0,0,1,472.22,297Z"/>
    <path d="M456.46,313.9c-1.21-1.16-11.86-11.63-10.66-22.93.58-5.45,3.72-10,9.33-13.39l4.17,6.83c-3.42,2.1-5.24,4.52-5.55,7.4-.67,6.32,5.71,13.9,8.22,16.29Z"/>
    <path d="M456.83,288.12c-.85-1.35-8.09-13.44-3.3-22.91,2.74-5.43,8.59-8.52,17.38-9.2l.61,8c-5.81.44-9.46,2.07-10.85,4.83-2.36,4.67,1.43,12.64,2.94,15.06Z"/>
    <path d="M544.21,330.72a15.84,15.84,0,0,1-8.15-2.36l4.29-6.75s3.17,1.93,5.69.73,4.37-5.41,5.21-11.86l7.93,1c-1.24,9.56-4.54,15.65-9.81,18.09A12.14,12.14,0,0,1,544.21,330.72Z"/>
    <path d="M557.37,318.37l-4.3-6.75,2.15,3.38-2.16-3.37c2.32-1.49,8.91-6.82,8.89-11.69,0-2.56-2-5.11-5.87-7.56l4.27-6.76c6.36,4,9.59,8.83,9.6,14.32C570,310.06,558.66,317.55,557.37,318.37Z"/>
    <path d="M567.88,293.6l-7.33-3.2,3.67,1.6-3.67-1.6c1.64-3.77,5-14.73,1.15-20.06-2.1-2.89-6.51-4-13.08-3.36l-.8-8c9.61-1,16.46,1.26,20.36,6.62,3.21,4.41,4.09,10.55,2.62,18.25A50,50,0,0,1,567.88,293.6Z"/>
    <path d="M556.18,260.56l-7.92-1.13,4,.57-4-.54a13.6,13.6,0,0,0-9.38-14.69c-1.06-.38-10.44-3.48-14,3.92l-7.26-3.35c2.25-5,10.17-13,24-8.11A21.68,21.68,0,0,1,556.18,260.56Z"/>
    <path d="M494,246.4l-7.49-2.81c2.84-7.55,7.35-12.2,13.43-13.81,12.09-3.2,25.32,7.68,25.88,8.15l-5.12,6.15c-2.93-2.43-12-8.35-18.73-6.56C498.46,238.44,495.86,241.35,494,246.4Z"/>
    <path d="M468.34,266c-2.86-11.42-1.94-19.86,2.71-25.07,6.28-7,16.68-5.63,21.12-5,.48.07.86.13,1.11.14l-.06,8a15.59,15.59,0,0,1-2.11-.21c-3.19-.42-10.64-1.42-14.09,2.45-2.75,3.06-3.06,9.22-.92,17.79Z"/>
    <path d="M515.62,341.78c-4.94,0-9-4.74-11.64-8.44l6.48-4.68c3.13,4.33,4.78,5,5.13,5.1,1.41-.86,3.19-6.57,3.87-8.74a30.19,30.19,0,0,1,2.33-6.08,8.15,8.15,0,0,1,5.51-4c4.7-.93,9.32,2.3,10.19,3l-4.79,6.4,2.4-3.2-2.38,3.21c-1.4-1-3.39-1.72-3.91-1.52a2.11,2.11,0,0,0-.16.23,30.28,30.28,0,0,0-1.55,4.34c-1.85,5.92-4.15,13.29-10.22,14.27A7.66,7.66,0,0,1,515.62,341.78Z"/>
    <path d="M509.59,312.68c-.3-.61-3.1-5.88-11.4-3.8l-1.94-7.76c12.07-3,18.77,4.08,20.62,8.25L513.22,311Z"/>
    <circle cx="503.72" cy="311.5" r="4.5"/>
    <path d="M521.76,391.34c-6.28-15-20.92-27.12-21.07-27.24l5.05-6.2c.67.54,16.34,13.42,23.41,30.36Z"/>
    <path d="M582,450.4c-2.08,0-4.11-1.36-6-4.08a27.45,27.45,0,0,1-3.79-8.51c-1.24-4.17-1.43-4.81-4.95-4.81v-6.26c-.81-.36-1.63-.69-2.45-1l-1.06-.62-42.25-34,5-6.24,41.78,33.62c7.72,3.06,20,9.09,20,16.5,0,7,0,13.66-4.66,15.15A5,5,0,0,1,582,450.4Zm-2.66-16.48c.18.55.34,1.08.49,1.59s.24.82.37,1.24c0-.62,0-1.18,0-1.63A3.68,3.68,0,0,0,579.35,433.92Zm.89,1.26Z"/>
    <path d="M575.22,458a5,5,0,0,1-3.64-1.62,4.31,4.31,0,0,1-.39-.46,6.24,6.24,0,0,1-1,.08,5.39,5.39,0,0,1-4.06-1.86,9,9,0,0,1-1.78-3.81c-1.67-.75-3.94-3.17-6.52-11.6l-39.53-21.21,3.78-7,41,22,1.65,2,7.42-.09a34,34,0,0,1,.29,4.29l4.74,0c0,.63.09,1.43.12,2.34l4-.28c.56,8.07-.23,13.32-2.36,15.59A5.05,5.05,0,0,1,575.22,458Z"/>
    <rect x="500.72" y="344.97" width="8" height="8.06" transform="translate(-48.71 614.06) rotate(-60.26)"/>
    <g>
      <polyline class="cls-12" points="1306.44 468.48 1273.01 454.94 1256.11 455.85 1259.67 448.89 1276.57 447.98 1310 461.51"/>
      <polygon points="1304.94 472.19 1272.33 458.99 1256.32 459.85 1252.55 454.03 1256.11 447.07 1259.45 444.89 1276.35 443.98 1278.07 444.27 1311.5 457.81 1308.5 465.22 1307.86 464.96 1304.94 472.19"/>
    </g>
    <g>
      <path class="cls-11" d="M1366.91,435l-49,15.84-14.35,21.32,14.21,43.95,83.09-26.86L1386.6,445Zm5.13,22.11-45.78,14.8-4.11-12.69,45.78-14.8Z"/>
      <path d="M1315.21,521.1l-16-49.61,16.2-24.08,51.88-16.77,22.64,11.58,16,49.56ZM1308,472.73,1320.37,511l75.48-24.39-12.55-38.8-12-6.16,5.8,18-53.39,17.26-6-18.57Zm19.2-11,1.64,5.09L1367,454.49l-1.64-5.08Zm-6.72-7.57-1.15,1.71,48.85-15.79-1.6-.82Z"/>
    </g>
    <polyline class="cls-10" points="1349.21 202.93 1379.74 185.29 1406.55 183.77 1410.26 242.89 1387.22 252.97 1349.21 202.93"/>
    <polyline class="cls-9" points="1410.79 180.71 1445.41 187.39 1466.66 203.8 1430.73 250.89 1406.72 243.41 1410.79 180.71"/>
    <polyline class="cls-10" points="1467.55 202.77 1497.55 237.77 1501.55 252.77 1444.81 266.16 1434.81 243.12 1462.55 210.77"/>
    <polyline class="cls-9" points="1503.55 252.77 1499.92 301.32 1497.55 313.77 1436.87 286.63 1451.55 268.77 1501.55 252.77"/>
    <polyline class="cls-9" points="1347.15 201.48 1378.64 240 1369.64 260.77 1360.64 268.77 1312.72 251.94 1339.64 203.77 1347.15 201.48"/>
    <polygon class="cls-10" points="1336.55 304.77 1315.98 310.76 1309.29 276.34 1312.63 253.94 1359.42 267.98 1365.64 289 1336.55 304.77"/>
    <polyline class="cls-9" points="1475.35 188.37 1497.61 207.25 1516 248.87 1500.51 249.35 1481.15 213.54 1467.55 202.77 1475.35 188.37"/>
    <polyline class="cls-10" points="1501.55 252.77 1516 248.87 1521.55 285.77 1513.05 314.37 1505.52 315.19 1500.44 311.12 1504.55 259.77 1501.55 252.77"/>
    <polygon class="cls-10" points="1410.55 167.77 1409.55 178.77 1456.55 193.77 1464.55 200.77 1474.65 191.91 1473.55 183.77 1412.23 165.86 1410.55 167.77"/>
    <polyline class="cls-9" points="1341.55 188.77 1379.55 167.77 1407.55 166.02 1407.55 181.29 1358.8 194.46 1347.06 203.48 1341.55 188.77"/>
    <polyline class="cls-10" points="1300.26 246.13 1317.45 206.26 1338.52 187.74 1347.87 199.81 1317.38 240.07 1313.62 254.39 1300.26 246.13"/>
    <polyline class="cls-9" points="1301.02 316.22 1292.99 273.55 1300.1 246.41 1314.61 251.2 1311.82 301.63 1316.71 315.6 1301.02 316.22"/>
    <polyline class="cls-10" points="1342.55 373.41 1310.08 344.59 1299.09 318.77 1313.49 313.68 1342.16 355.26 1354.58 363.31 1342.55 373.41"/>
    <path class="cls-9" d="M1354.64,362l-9,11s37,20,47,20l5-15Z"/>
    <path class="cls-9" d="M1315.64,311c2,1,36.59-9.43,36.59-9.43L1365.35,317l7.29,12-18,30-24-20Z"/>
    <polygon class="cls-10" points="1376.64 329 1354.64 359 1397.64 378 1409.64 364 1385.16 327.3 1376.64 329"/>
    <polygon class="cls-10" points="1467.64 304 1497.64 314 1485.64 339 1462.6 339.13 1456.43 326.26 1461.06 308.77 1467.64 304"/>
    <polygon class="cls-9" points="1409.55 362.77 1410.35 373.63 1440.67 373.3 1458.52 352.75 1446.39 346.01 1419.11 351.74 1409.55 362.77"/>
    <path d="M1407.55,396a117,117,0,1,1,117-117A117.14,117.14,0,0,1,1407.55,396Zm0-226a109,109,0,1,0,109,109A109.13,109.13,0,0,0,1407.55,170Z"/>
    <path d="M1407.55,380.75A101.73,101.73,0,1,1,1509.28,279,101.85,101.85,0,0,1,1407.55,380.75Zm0-195.46A93.73,93.73,0,1,0,1501.28,279,93.84,93.84,0,0,0,1407.55,185.29Z"/>
    <rect x="1294.14" y="274" width="228" height="8" transform="translate(1123.96 1684.9) rotate(-89.75)"/>
    <rect x="1448.55" y="151.84" width="8" height="386.37" transform="translate(75.94 922.86) rotate(-36.13)"/>
    <rect x="1404.64" y="167.56" width="8" height="230.87" transform="translate(711.86 1539.52) rotate(-72.35)"/>
    <rect x="1293.96" y="278.5" width="227.37" height="8" transform="translate(-17.82 453.69) rotate(-18.2)"/>
    <rect x="1294.43" y="278" width="230.42" height="8" transform="translate(349.94 1253.42) rotate(-53.82)"/>
    <polyline class="cls-13" points="1477.46 364.76 1521.97 278.67 1561.68 248.42 1640.12 213.83 1692.4 165.66 1668.57 213.64 1671.06 223.63 1624.34 265.23 1658.98 269.63 1631.89 291.27 1590.38 303.78 1629.2 311.26 1643.15 312.48 1611.81 332.5 1573.75 332.6 1606.13 347.29 1545.01 366.45 1540.73 370.96 1572.26 391.81 1526.26 388.94 1535.24 412.36 1510.9 400.12 1510.73 412.58 1493.59 391.25 1497.03 374.61 1477.46 364.76"/>
    <path d="M1486.17,369.44l-6.8-3.18a20.57,20.57,0,0,1-1.76,2l-5.61-5.71c2.89-2.83,6.84-11.53,11.41-21.6,15.25-33.6,40.78-89.83,98.7-106.07,72.6-20.35,108.08-78.16,108.43-78.74L1700,140.4l-2.08,18.28c-2.74,24.06-14.43,44.42-35.73,62.22-17.93,15-42.41,28.09-77,41.24C1526.48,284.43,1486.57,368.59,1486.17,369.44Zm199.48-193.2a209.77,209.77,0,0,1-16.14,17.25c-17,16.28-45.64,38-85.24,49.13-54.33,15.23-78.9,69.34-93.58,101.67,0,.06,0,.12-.08.19,4.35-7.33,9.87-16,16.45-25.07,23.93-33.09,49.26-54.87,75.28-64.75,33.77-12.82,57.52-25.5,74.74-39.89C1671,203.16,1680.42,190.44,1685.65,176.24Z"/>
    <path d="M1507.8,332.08l-6.31-4.91c1-1.31,25.68-32.3,88.87-53,42.28-13.84,65.85-38.76,76.28-52.65l-10.84,4.2-2.89-7.46,32.21-12.47-4.74,9.32c-1,1.86-23.94,45.84-87.53,66.67C1532,301.72,1508,331.78,1507.8,332.08Z"/>
    <path d="M1499.58,345.23l-6.28-5c.93-1.18,23.2-28.84,70-36.22,44.86-7.08,75.78-18.53,92.2-34.11-10.75,2.85-25.94,5.43-37.07,1.41l2.72-7.52c15.85,5.72,44.22-5.43,44.51-5.55l11.12-4.42-6.23,10.22c-14.11,23.19-48.79,38.85-106,47.87a118.36,118.36,0,0,0-49,19.21C1505,338.55,1499.63,345.17,1499.58,345.23Z"/>
    <path d="M1489.24,362.3l-2.26-7.67a2.81,2.81,0,0,0-.42.15c.29-.13,1-.52,2.1-1.09,8.18-4.33,33.08-17.48,54.06-22.75,7.76-1.95,17.53-1.95,27.9-1.93,20.44,0,45.18,0,65.23-14.93-13.2.16-35.65-.48-54.18-5.66l2.15-7.71c26.3,7.35,62.35,5,62.71,5l10.28-.69-7.12,7.45c-23.51,24.59-54.31,24.56-79.08,24.55-10.26,0-19.15,0-25.94,1.69-20.05,5-44.3,17.85-52.27,22.06A18.15,18.15,0,0,1,1489.24,362.3Z"/>
    <path d="M1537,370.15a139.71,139.71,0,0,1-47.5-8.82l3-7.42c.33.13,33.58,13.31,65.09,6,19.24-4.45,33.27-8.79,41.54-11.6-10.87-5-30-12.56-42.87-11l-1-7.94c21.24-2.57,54.53,15.2,55.94,16l7.43,4-7.81,3.22c-.73.3-18.34,7.5-51.46,15.16A99.59,99.59,0,0,1,1537,370.15Z"/>
    <path d="M1563.86,398.35a98.32,98.32,0,0,1-53.58-15.4c-15.12-9.7-22.66-20.39-23-20.85l6.56-4.57c.07.1,7.13,10,21,18.88a89.16,89.16,0,0,0,48.52,14c-10.26-5.37-23.75-13.29-31.07-21.17l5.86-5.45c11.46,12.34,41.74,25.78,42,25.91l13,5.72-14,1.91A114.57,114.57,0,0,1,1563.86,398.35Z"/>
    <path d="M1548.31,423.76a13.78,13.78,0,0,1-2.31-.54c-8.46-2.21-39.66-12.35-52.78-43.92l7.39-3.07c6.53,15.71,18.44,25.55,28.89,31.49-.79-1.25-1.59-2.58-2.37-4a127.41,127.41,0,0,1-7.94-17.06l7.52-2.73c4,11,13.06,28.46,21.27,31.5,1.06.28,1.67.42,1.72.43Z"/>
    <path d="M1517.83,418.89l-5.91-1.2c-9.28-1.89-15.76-8.62-18.76-19.48a51.23,51.23,0,0,1-1.7-15l8,.47c0,.19-.78,16.18,7.81,23.26l-1.62-8.06,7.84-1.58Z"/>
    <polygon class="cls-17" points="1373.64 307 1390.64 315 1400.64 297 1416.64 292 1432.64 286 1452.64 296 1458.64 311 1469.64 291 1460.64 274 1458.64 263 1446.64 259 1445.64 241 1424.64 238 1411.64 233 1392.64 241 1374.64 241 1364.64 262 1352.64 270 1353.64 293 1351.64 304 1364.64 315 1370.64 327 1380.64 326 1373.64 307"/>
    <polygon class="cls-14" points="1378.1 311.56 1393.19 312 1400.64 297 1412.73 295.58 1416.64 292 1432.64 286 1441.14 289.36 1452.64 296 1458.64 311 1458.64 336 1484.64 344 1495.64 350 1510.64 388 1520.64 413 1519.64 399 1545.64 412 1561.64 431 1554.64 440 1521.64 451 1516.64 492 1538.64 494 1534.64 478 1545.64 459 1563.64 443 1573.64 440 1582.64 478 1581.64 487 1593.64 481 1607.64 503 1616.64 512 1630.64 525 1638.64 563 1622.64 572 1618.64 543 1563.64 526 1555.64 538 1519.64 530 1500.64 483 1461.64 454 1437.64 418 1409.64 428 1406.64 411 1411.64 405 1401.64 411 1373.89 405 1395.64 383 1413.64 361 1378.1 311.56"/>
    <polygon class="cls-14" points="1377.89 401 1333.89 438 1362.64 436 1401.64 411 1394.38 403.97 1378.64 405 1377.89 401"/>
    <polygon class="cls-18" points="1538.64 392 1543.64 370 1551.64 371 1571.64 404 1600.64 420 1589.64 451 1569.06 442.69 1547.64 454 1534.64 478 1538.64 494 1516.64 492 1522.36 454.58 1557.59 438.87 1562.64 418 1556.64 399 1538.64 392"/>
    <path d="M1414.41,434.19a11.69,11.69,0,0,1-8.6-3.36l.45-2.74-1.06-.12-1.39-4.79-1.67-.21-.92-5.41-5-1.8,1.09-7.75,6.11-.44,1.43-5.5c3.62-.68,14.79-2.5,21.4-.52l29-17.24,8.52-24.62,7.56,2.62-9,26-1.74,2.13-32,19h-4.1c-1.45-.87-5.86-.95-10.7-.52l-2,6.08-1.76.12,0,.8.92.12,1.32,4.7,2.62.29.9,5c4.31-.67,10.06-3.86,13.26-6.26l1.11-.59L1476,403.68c3.19-5.32,15.85-27.33,16.67-42.89.24-4.59-.85-8.09-3.31-10.69-3.84-4.05-11.14-6.1-21.7-6.1a13.43,13.43,0,0,1-11-5.14c-4.51-5.77-4.36-14.83-2.86-20.83,1.45-5.81-.28-16.71-2.19-20.87a7,7,0,0,0,0,1.3l-7.92,1.1c-.13-.94-.66-5.79,2.12-9a7.49,7.49,0,0,1,5.84-2.56,6.82,6.82,0,0,1,5.45,2.95c4.48,5.73,6.32,21.46,4.43,29-1.14,4.58-1,10.85,1.4,14a5.53,5.53,0,0,0,4.72,2.06c13,0,22,2.81,27.5,8.59,4,4.22,5.85,9.81,5.49,16.62-1,19.81-17.89,46.78-18.6,47.92l-2.1,1.65-46.42,15.81C1431,428.38,1422.31,434.19,1414.41,434.19Z"/>
    <path d="M1527.64,422h-8c0-8.71-16.25-40.83-26.49-59l7-3.92C1502.94,364,1527.64,408.34,1527.64,422Z"/>
    <polygon points="1540.47 500 1513.34 498.86 1511.57 490.03 1519.13 449 1551.27 437.6 1561.69 425.1 1582.43 424 1582.85 431.99 1565.6 432.9 1556.01 444.4 1526.16 455 1519.71 489.97 1519.95 491.13 1540.81 492 1540.47 500"/>
    <path d="M1622,577.94c-6.28-1-7.09-9.8-7.09-17.32,0-4.56.36-9,.59-11.36l-3.16-3.8-52.88-16.65-2.07-1.51-26-37-.72-2-1-12,.66-2.55,16-24,1.16-1.14,17-11,1.92-.63,16-1,.5,8-6.31.39c11.74,15.07,8.82,37.7,7.45,45.14,14.57,12.53,23.57,15.4,30.21,17.52,9.58,3.06,14.88,5.46,21.16,22.58,11.09,30.26,5,38.58,2.84,40.42l-3.54-.14-.1.66-3.33.4-.75,3-3.88.22,0,.25Zm-58.85-56.35,52.71,16.59,1.87,1.26,5,6,.9,3a96.94,96.94,0,0,0-.64,15.67l4.42-.55.09.25.2-1.41,6.06-2c.4-4.26-.22-12.66-5.86-28-5.22-14.25-8.4-15.27-16.08-17.72-7.14-2.28-18-5.73-34.81-20.67l-1.24-3.93c.08-.3,7.1-30.65-9-44.4l-14.29,9.25-14.77,22.15.8,9.53Z"/>
    <polygon points="1591.81 455.06 1569.26 446.75 1572.02 439.25 1587.47 444.94 1597.52 421.75 1568.76 405.98 1550.52 375.26 1547.02 375.65 1544.06 391.18 1562.21 403.6 1567.55 428.15 1559.73 429.85 1555.07 408.4 1535.22 394.82 1540.26 368.35 1554.76 366.74 1574.52 400.02 1607.76 418.24 1591.81 455.06"/>
    <rect x="1553.14" y="391.84" width="8" height="14.32" transform="translate(-49.04 335.12) rotate(-12.09)"/>
    <path d="M1509,481.83c-18.33,0-36-8.95-51.6-26.29a134.88,134.88,0,0,1-21.15-31.91l7.31-3.25c.27.61,27.76,61,74.22,52.66l1.41,7.88A58,58,0,0,1,1509,481.83Z"/>
    <path d="M1558.6,431.6c-27.2-31.74-41.06-29.35-41.19-29.32l.15,0-2.23-7.68c1.81-.53,18.56-4.09,49.35,31.84Z"/>
    <polygon points="1552.62 542.87 1518.62 533.87 1515.92 531.48 1495.19 479.47 1502.63 476.51 1522.61 526.65 1552.67 534.6 1563.08 525.92 1568.2 532.07 1556.2 542.07 1552.62 542.87"/>
    <path d="M1606.29,511.54c0-.16-3.46-15.93-9.81-24.09a4.34,4.34,0,0,0-3.29-2c-3.11-.2-7.22,2.85-8.72,4.36l-5.66-5.66c.74-.73,7.38-7.17,14.87-6.69a12.37,12.37,0,0,1,9.12,5.06c7.48,9.62,11.16,26.61,11.32,27.33Z"/>
    <rect x="1421.14" y="392.35" width="8" height="10.3" transform="translate(-13.7 742.13) rotate(-29.05)"/>
    <path d="M1419.55,366c-.38,0-.75,0-1.13,0-13.8-.76-24.1-17.54-34.07-33.76-4.8-7.81-9.33-15.19-13.54-19.4l5.66-5.66c4.87,4.88,9.65,12.65,14.7,20.87,8.47,13.8,18.07,29.43,27.69,30,.23,0,.45,0,.68,0,12.29,0,24-18.5,27.5-25.76l7.2,3.48C1453.64,337,1439.39,366,1419.55,366Z"/>
    <path d="M1388.71,317.56c-10.53,0-21.13-9.06-21.69-9.54l5.24-6c3.33,2.88,14.22,10.26,20.32,6.6,1-.6,4-2.41,3.35-9.24a29.13,29.13,0,0,0-2-7.74l7.34-3.19a37.22,37.22,0,0,1,2.56,9.93c1.05,9.95-3.32,14.79-7.17,17.1A15.32,15.32,0,0,1,1388.71,317.56Z"/>
    <path d="M1404.71,301.4a24.24,24.24,0,0,1-4.91-.49l1.66-7.83c.42.09,10.36,2.05,12.32-5.13l7.72,2.1C1419.05,299,1411,301.4,1404.71,301.4Z"/>
    <path d="M1420.91,293.29a15.83,15.83,0,0,1-5-.81c-7.92-2.63-10.88-10.8-11-11.15l7.53-2.69c0,.05,1.85,4.9,6,6.27,3.17,1,7.2-.06,12-3.24l4.44,6.66C1429.9,291.63,1425.23,293.29,1420.91,293.29Z"/>
    <path d="M1439.11,292.22a12.07,12.07,0,0,1-8.13-2.77c-5.79-4.94-4.46-14.08-4.28-15.11l7.89,1.32-3.95-.66,3.95.64c-.29,1.84-.28,6.15,1.6,7.74,1.39,1.18,4.3,1.12,8.19-.18l2.53,7.59A24.8,24.8,0,0,1,1439.11,292.22Z"/>
    <path d="M1446.64,297a8.34,8.34,0,0,1-7.79-5.74l7.59-2.53,0-.1a1.26,1.26,0,0,0,.27.39Z"/>
    <path d="M1462.4,313.9l-5.51-5.8,2.75,2.9-2.76-2.9c2.52-2.4,8.9-10,8.22-16.3-.31-2.88-2.12-5.3-5.55-7.39l4.18-6.83c5.61,3.44,8.75,7.94,9.33,13.39C1474.26,302.27,1463.61,312.74,1462.4,313.9Z"/>
    <path d="M1462,288.12l-6.78-4.24,3.39,2.12-3.4-2.12c1.51-2.43,5.3-10.44,3-15.08-1.4-2.75-5-4.37-10.86-4.81l.62-8c8.79.68,14.64,3.77,17.38,9.2C1470.12,274.68,1462.87,286.77,1462,288.12Z"/>
    <path d="M1374.65,330.72a12.11,12.11,0,0,1-5.16-1.11c-5.27-2.44-8.57-8.53-9.82-18.09l7.94-1c.84,6.45,2.69,10.66,5.21,11.86s5.66-.71,5.69-.73l4.29,6.75A15.84,15.84,0,0,1,1374.65,330.72Z"/>
    <path d="M1361.49,318.37c-1.29-.82-12.6-8.31-12.58-18.43,0-5.49,3.24-10.31,9.59-14.32l4.28,6.76c-3.89,2.45-5.86,5-5.87,7.56,0,4.87,6.57,10.2,8.88,11.69Z"/>
    <path d="M1351,293.6a50,50,0,0,1-2.92-9.71c-1.47-7.7-.59-13.84,2.62-18.25,3.9-5.36,10.74-7.58,20.36-6.62l-.8,8c-6.57-.66-11,.47-13.08,3.36-3.89,5.33-.49,16.29,1.15,20.06Z"/>
    <path d="M1362.68,260.56a21.68,21.68,0,0,1,14.61-23.33c13.82-4.93,21.74,3.15,24,8.11l-7.28,3.31c-3.56-7.36-13-4.26-14-3.88a13.63,13.63,0,0,0-9.39,14.69Z"/>
    <path d="M1424.9,246.4c-1.9-5.05-4.51-8-8-8.88-6.71-1.79-15.8,4.13-18.73,6.56l-5.12-6.15c.56-.47,13.8-11.35,25.88-8.15,6.08,1.61,10.59,6.26,13.43,13.81Z"/>
    <path d="M1450.52,266l-7.76-1.94c2.14-8.57,1.83-14.73-.92-17.79-3.45-3.87-10.9-2.87-14.09-2.45a15.59,15.59,0,0,1-2.11.21v-8h-.07c.26,0,.64-.07,1.12-.14,4.44-.59,14.84-2,21.12,5C1452.46,246.11,1453.38,254.55,1450.52,266Z"/>
    <path d="M1403.23,341.78a7.64,7.64,0,0,1-1.25-.11c-6.07-1-8.37-8.35-10.22-14.27a30.28,30.28,0,0,0-1.55-4.34.74.74,0,0,0-.17-.23c-.52-.2-2.5.5-3.9,1.52l-4.77-6.42c.87-.65,5.5-3.88,10.19-2.95a8.15,8.15,0,0,1,5.51,4,30.19,30.19,0,0,1,2.33,6.08c.68,2.17,2.46,7.88,3.86,8.74.36-.1,2-.77,5.14-5.1l6.48,4.68C1412.21,337,1408.18,341.78,1403.23,341.78Z"/>
    <path d="M1409.3,312.62l-7.31-3.25c1.85-4.17,8.55-11.27,20.62-8.25l-1.94,7.76C1412,306.72,1409.4,312.38,1409.3,312.62Z"/>
    <circle cx="1415.14" cy="311.5" r="4.5"/>
    <path d="M1397.1,391.34l-7.39-3.08c7.07-16.94,22.74-29.82,23.41-30.36l5.05,6.2C1418,364.22,1403.38,376.29,1397.1,391.34Z"/>
    <path d="M1336.85,450.4a4.93,4.93,0,0,1-1.55-.25c-4.66-1.49-4.66-8.13-4.66-15.15,0-4.17,3.51-8.06,11.06-12.25a84.71,84.71,0,0,1,8.9-4.24l41.79-33.63,5,6.24-42.25,34-1.06.62c-.82.32-1.64.65-2.45,1V433c-3.52,0-3.71.64-5,4.81a27.45,27.45,0,0,1-3.79,8.51C1341,449,1338.93,450.4,1336.85,450.4Zm1.79-15.28c0,.45,0,1,0,1.63.13-.42.25-.83.37-1.24s.31-1,.49-1.59A3.68,3.68,0,0,0,1338.64,435.12Z"/>
    <path d="M1343.64,458a5.05,5.05,0,0,1-3.73-1.66c-2.13-2.27-2.92-7.52-2.37-15.59l4,.28c0-.91.07-1.71.12-2.34l4.74,0a34,34,0,0,1,.29-4.29l7.42.09,1.65-2,41-22,3.78,7L1361,438.73c-2.58,8.43-4.85,10.85-6.52,11.6a9.07,9.07,0,0,1-1.78,3.81,5.39,5.39,0,0,1-4.06,1.86,6.24,6.24,0,0,1-1-.08,5.9,5.9,0,0,1-.39.46A5,5,0,0,1,1343.64,458Z"/>
    <rect x="1410.11" y="345" width="8.06" height="8" transform="translate(13.15 747.51) rotate(-29.74)"/>
    <path d="M964,1033h-8V958.52c-12.63-47-61.79-39.54-106.91-28.89-6.13,1.45-11.43,2.7-15.48,3.32-26.52,4.09-81.32-10.46-83.64-11.09l-4.68-1.25,53.52-110.25,3.13.75c27.42,6.56,51-4.34,71.72-14,12.93-6,24.1-11.16,34.34-11.16,26.08,0,53.31,21,54.46,21.84L964,809ZM901.45,913.61a104.77,104.77,0,0,1,10.51.5c20.16,2,34.89,10.19,44,24.4V813c-5.94-4.26-28-19-48-19-8.48,0-18.9,4.83-31,10.42-20.13,9.32-45,20.84-73.8,15.16l-46.48,95.75c13.9,3.44,55.07,12.88,75.65,9.72,3.73-.58,8.89-1.8,14.85-3.2C862.29,918.28,882.08,913.61,901.45,913.61Z"/>
    <path d="M951.21,1029.37a134.24,134.24,0,0,0-10.84-21.88c-6-9.73-15.65-21.72-27-23.54-3.6-.58-9.25-1.36-16.4-2.34-40.25-5.56-134.5-18.57-183.63-41l-3.84-1.75,59.6-114,30.27-13.57,3.27,7.3-27.73,12.43-54.38,104c49,20.89,138.68,33.26,177.53,38.62,7.2,1,12.89,1.78,16.58,2.37,27,4.32,43.44,48.7,44.12,50.58Z"/>
    <rect x="712.61" y="923.5" width="40.71" height="8" transform="translate(-348.22 449.44) rotate(-27.83)"/>
    <polygon points="959.97 1033 931.23 1033 923.95 1014.27 690.94 944.37 765.99 816.47 782.08 820 780.37 827.81 769.95 825.53 702.99 939.63 929.99 1007.73 936.7 1025 959.97 1025 959.97 1033"/>
    <rect x="918.16" y="996.07" width="22.38" height="8" transform="translate(-245.65 1695.2) rotate(-77.71)"/>
    <rect x="921.68" y="1010.31" width="29.85" height="8" transform="translate(-227.29 1756.88) rotate(-79.82)"/>
    <path d="M964,1033h-8V809l1.55-1.2C958.66,807,985.89,786,1012,786c10.25,0,21.42,5.17,34.35,11.16,20.76,9.61,44.3,20.51,71.72,14l3.13-.75,53.52,110.25-4.68,1.25c-2.32.63-57.11,15.17-83.64,11.09-4-.62-9.35-1.87-15.48-3.32C1025.76,919,976.6,911.56,964,958.52Zm0-220V938.51c9.12-14.21,23.85-22.39,44-24.4,22.51-2.24,46.92,3.52,64.75,7.74,6,1.4,11.12,2.62,14.85,3.2,20.58,3.16,61.75-6.28,75.65-9.72l-46.48-95.75c-28.78,5.67-53.66-5.84-73.8-15.16-12.07-5.59-22.49-10.42-31-10.42C991.93,794,969.91,808.76,964,813Z"/>
    <path d="M968.72,1029.37l-7.51-2.74c.68-1.88,17.11-46.26,44.12-50.58,3.69-.59,9.38-1.37,16.58-2.37,38.85-5.36,128.48-17.73,177.53-38.62l-54.38-104-27.73-12.43,3.27-7.3,30.27,13.57,59.6,114-3.85,1.75c-49.12,22.41-143.37,35.41-183.62,41-7.15,1-12.8,1.76-16.4,2.34-11.39,1.82-21,13.81-27,23.54A134.24,134.24,0,0,0,968.72,1029.37Z"/>
    <rect x="1182.97" y="907.15" width="8" height="40.71" transform="translate(-187.33 1544.31) rotate(-62.18)"/>
    <polygon points="988.7 1033 959.97 1033 959.97 1025 983.23 1025 989.94 1007.73 991.82 1007.17 1216.94 939.63 1149.98 825.53 1139.56 827.81 1137.85 820 1153.94 816.47 1228.99 944.37 995.99 1014.27 988.7 1033"/>
    <rect x="986.58" y="988.88" width="8" height="22.38" transform="translate(-190.2 233.82) rotate(-12.29)"/>
    <rect x="979.33" y="999.38" width="8" height="29.85" transform="translate(-163.85 189.84) rotate(-10.18)"/>
    <path d="M1615,851c-23.1,0-44.85-13.88-61.22-39.07-15.09-23.22-24.09-54.13-24.76-84.95l-8.89-17.79-.09-.66c-.32-2.43-7.57-59.93,24.23-96.26C1560.66,593.51,1584.46,584,1615,584v8c-28.08,0-49.84,8.58-64.68,25.51-27.72,31.63-23.11,83-22.42,89.33L1537,725v.91c1,63.45,36.75,117.06,78,117.06Z"/>
    <path d="M1535.87,728.75l-5.81-5.5,17.11-18.06,7-54.06,1-1c1-1,24.57-24.17,59.82-24.17v8c-28.22,0-48.66,16.84-53.21,20.94l-7,53.87Z"/>
    <path d="M1537.52,770.17a15.32,15.32,0,0,1-12.2-5.71c-11-13.34-5-46.48-4.28-50.22l.21-1.12,12.86-13.85,5-52.46.39-.73c.78-1.43,19.78-35.08,75.51-35.08v8c-46.9,0-65.3,25.86-68.1,30.28l-5,53.45-13.13,14.14c-1.77,9.94-4.23,34,2.8,42.5a7.3,7.3,0,0,0,6,2.8Z"/>
    <path d="M1537.41,637.07l-6-5.26C1556.49,603,1590.69,597,1615,597v8C1592.35,605,1560.54,610.56,1537.41,637.07Z"/>
    <path d="M1591.45,956.11l-30.36-24.48-49.2-13.78-2.17-6.19,60-83,6.49,4.68-6.33,8.75h.08l-1,42.14,28.66,67.2Zm-71.88-44.42L1564,924.15l1.44.74L1584,939.82l-22.71-53.25-.32-1.66.73-31.5Z"/>
    <path d="M1415,1056.09c0-.45-1-45.49,0-79.21,1-35.77,22-48.77,22.94-49.31l104.06-60,4,6.92-104,60c-.66.42-18.08,11.49-19,42.66-1,33.5,0,78.34,0,78.79Z"/>
    <path d="M1570.91,867.91a13,13,0,0,1-12.76-10.54l-1.9-9.82a13,13,0,0,1,25.53-4.92l1.9,9.82a13,13,0,0,1-12.77,15.46ZM1569,840.09a5.17,5.17,0,0,0-1,.09,5,5,0,0,0-4,5.86l1.89,9.82a5,5,0,0,0,9.82-1.9l-1.89-9.82A5,5,0,0,0,1569,840.09Z"/>
    <path d="M1587.15,909.51a13,13,0,0,1-11.74-7.37l-4.33-9a13,13,0,0,1,23.44-11.26l4.33,9a13,13,0,0,1-11.7,18.63Zm-4.36-27a5,5,0,0,0-4.5,7.17l4.33,9a5,5,0,0,0,6.68,2.34,5,5,0,0,0,2.34-6.67l-4.33-9A5,5,0,0,0,1582.79,882.49Z"/>
    <path d="M1607.15,949.51a13,13,0,0,1-11.74-7.37l-4.33-9a13,13,0,0,1,23.44-11.26l4.33,9a13,13,0,0,1-11.7,18.63Zm-4.36-27a5,5,0,0,0-4.5,7.17l4.33,9a5,5,0,0,0,6.68,2.34,5,5,0,0,0,2.34-6.67l-4.33-9A5,5,0,0,0,1602.79,922.49Z"/>
    <path d="M1581,888a4,4,0,0,1-3.78-2.69l-9-26a4,4,0,0,1,7.57-2.62l9,26a4,4,0,0,1-2.48,5.09A4,4,0,0,1,1581,888Z"/>
    <path d="M1600.82,928.21a4,4,0,0,1-3.56-2.16l-12.69-24.41a4,4,0,0,1,7.1-3.69l12.69,24.41a4,4,0,0,1-1.7,5.39A4,4,0,0,1,1600.82,928.21Z"/>
    <path d="M1615,914a111.81,111.81,0,0,1-38.52-7.3l3-7.4A105.37,105.37,0,0,0,1615,906Z"/>
    <path d="M1615,926a111.81,111.81,0,0,1-38.52-7.3l3-7.4A105.37,105.37,0,0,0,1615,918Z"/>
    <path d="M1614.69,851v-8c41.26,0,77-53.61,78-117.06V725l9.1-18.19c.68-6.29,5.3-57.7-22.42-89.33-14.84-16.93-36.61-25.51-64.69-25.51v-8c30.51,0,54.31,9.51,70.73,28.27,31.8,36.33,24.56,93.83,24.23,96.26l-.08.66-8.9,17.79c-.66,30.82-9.66,61.73-24.75,84.95C1659.54,837.12,1637.8,851,1614.69,851Z"/>
    <path d="M1693.79,728.75l-18.9-19.94-7-53.86c-4.56-4.09-25.09-21-53.22-21v-8c35.25,0,58.84,23.18,59.83,24.17l1,1,7,54.06,17.1,18.06Z"/>
    <path d="M1692.13,770.17v-8a7.28,7.28,0,0,0,6-2.8c7-8.52,4.57-32.56,2.81-42.5l-13.14-14.14-5-53.47c-2.84-4.57-20.88-30.26-68.1-30.26v-8c55.73,0,74.73,33.65,75.51,35.08l.39.73,5,52.46,12.86,13.85.22,1.12c.72,3.74,6.73,36.88-4.29,50.22A15.32,15.32,0,0,1,1692.13,770.17Z"/>
    <path d="M1692.24,637.07c-23.13-26.51-54.94-32.07-77.55-32.07v-8c24.27,0,58.47,6,83.58,34.81Z"/>
    <path d="M1638.2,956.11l-6.19-4.68,28.66-67.2-1-42.14h.08l-6.32-8.75,6.48-4.68,60,83-2.16,6.19-49.21,13.78ZM1668,853.41l.73,31.5-.32,1.66-22.71,53.25,18.52-14.93,1.43-.74,44.48-12.46Z"/>
    <path d="M1814.69,1056.09l-8-.18c0-.45,1-45.29,0-78.79-.92-31.17-18.34-42.24-19.08-42.7l-103.92-60,4-6.92,104,60c1,.57,21.94,13.57,23,49.34C1815.68,1010.6,1814.7,1055.64,1814.69,1056.09Z"/>
    <path d="M1658.77,867.91A13,13,0,0,1,1646,852.45l1.89-9.82a13,13,0,0,1,25.53,4.92l-1.89,9.82a13,13,0,0,1-12.74,10.54Zm1.86-27.82a5,5,0,0,0-4.91,4l-1.89,9.82a5,5,0,0,0,4,5.86h0a5,5,0,0,0,5.85-4l1.89-9.82a5,5,0,0,0-4-5.86A5.09,5.09,0,0,0,1660.63,840.09Z"/>
    <path d="M1642.5,909.51a13,13,0,0,1-11.7-18.63l4.34-9a13,13,0,0,1,23.43,11.26l-4.33,9A13,13,0,0,1,1642.5,909.51Zm4.36-27a5,5,0,0,0-4.51,2.84l-4.33,9a5,5,0,1,0,9,4.33l4.33-9A5,5,0,0,0,1649,883,4.91,4.91,0,0,0,1646.86,882.49Z"/>
    <path d="M1622.5,949.51a13,13,0,0,1-11.7-18.63l4.34-9a13,13,0,0,1,23.43,11.26l-4.33,9A13,13,0,0,1,1622.5,949.51Zm4.36-27a5,5,0,0,0-4.51,2.84l-4.33,9a5,5,0,1,0,9,4.33l4.33-9A5,5,0,0,0,1629,923,4.91,4.91,0,0,0,1626.86,922.49Z"/>
    <path d="M1648.69,888a4,4,0,0,1-3.78-5.31l9-26a4,4,0,1,1,7.56,2.62l-9,26A4,4,0,0,1,1648.69,888Z"/>
    <path d="M1628.84,928.21a4,4,0,0,1-3.55-5.85L1638,898a4,4,0,0,1,7.09,3.69l-12.69,24.41A4,4,0,0,1,1628.84,928.21Z"/>
    <path d="M1614.69,914v-8a105.46,105.46,0,0,0,35.48-6.7l3,7.4A111.74,111.74,0,0,1,1614.69,914Z"/>
    <path d="M1614.69,926v-8a105.46,105.46,0,0,0,35.48-6.7l3,7.4A111.74,111.74,0,0,1,1614.69,926Z"/>
    <g>
      <rect class="cls-5" x="1494.97" y="953" width="239" height="97"/>
      <path d="M1738,1054H1491V949h247Zm-239-8h231V957H1499Z"/>
    </g>
    <g>
      <path d="M1533.86,1018.5q-10,0-15.36,6.42-3-3.54-6.06-3.54t-4.32,3.54h-.36q.3-4.32,2-6.18a12.62,12.62,0,0,1,3.54-2.22,9.93,9.93,0,0,0,3.72-2.7,14.22,14.22,0,0,0,2.76,3.18q2.1,1.92,3.54,1.92,1,0,1-1.14v-5.4q0-4-5.16-4t-7.62,3.6v-6.78q0-4.62-3.3-6.48a22.77,22.77,0,0,0,9-1.92,15.61,15.61,0,0,0,7.14-5.58,15.22,15.22,0,0,0,8.52,7.5h-.42a6.47,6.47,0,0,0-4.44,1.65,7.29,7.29,0,0,0-2.34,4.29,15.7,15.7,0,0,0-2.52-4.38q-2.1-2.64-4-2.64-1,0-1,1.08a17.43,17.43,0,0,0,.66,5.82q1.14,2.82,4.7,2.82a9.77,9.77,0,0,0,7.54-3.72v8.82Q1531,1016.76,1533.86,1018.5Z"/>
      <path d="M1557.14,1017.78q-2.16.06-5.64,2.76-1.56,1.2-4.92,4.38-1.14-2-5.22-4.53t-6.42-2.61q1.68-.12,2.7-2.34a8.6,8.6,0,0,0,.9-3.78v-6.72a7,7,0,0,0-3.66-6.66q10.86,0,15.6-7.08a24.58,24.58,0,0,0,2.64,4.2,12,12,0,0,0,4,2.88q-2.16,1-3.78,5.1a27.52,27.52,0,0,0-1.68,6.42h-.12a31.88,31.88,0,0,0-1.62-7.2q-1.86-5-4.5-4.8v13.38Q1545.44,1017.78,1557.14,1017.78Z"/>
      <path d="M1584.86,1017.84q-2.64,1.38-3.48,5.4a23.61,23.61,0,0,1-2.22,6.9q-2.46,3.9-9.18,5.58v-1q4.5-1.32,4.5-7.62V1002q0-2.16-3-2.88a12.73,12.73,0,0,0-2.7-.24h-.72v12.6a10,10,0,0,0,.54,3.84,5.71,5.71,0,0,0,2.82,2.52,15.51,15.51,0,0,0-4,3.18,26.5,26.5,0,0,0-2.82,4.26,25.81,25.81,0,0,0-2.88-4.26,13.27,13.27,0,0,0-4.08-3.18,4.9,4.9,0,0,0,2.81-2.52,11.11,11.11,0,0,0,.49-3.84v-6.9q0-5-3.42-7a7.58,7.58,0,0,0,2.94-3,12.66,12.66,0,0,0,.48-4.2q0-5.1-3.54-6.54a12.73,12.73,0,0,0,1.44.12q2.76,0,7.56-3.48t7.38-3.48a7.37,7.37,0,0,1,4.38,1.32,4.59,4.59,0,0,1,2.1,3.9,3.9,3.9,0,0,1-1,2.79,3.59,3.59,0,0,1-2.73,1.11q-3.3,0-3.3-3.06a2.89,2.89,0,0,1,.78-2,2.58,2.58,0,0,1,2-.84q2.34,0,2.58,2.88a5,5,0,0,0,.12-.83,3.05,3.05,0,0,0-1.2-2.46,4.33,4.33,0,0,0-2.82-1,5.46,5.46,0,0,0-5.16,3.47,14.44,14.44,0,0,0-1.38,6.46v8.37a10.6,10.6,0,0,0,6.24-1.62,13.61,13.61,0,0,0,3.78-5.22,18.81,18.81,0,0,0,2.58,4.44,11.15,11.15,0,0,0,4.2,2.88,5.57,5.57,0,0,0-3.3,5.4v8.34Q1581.56,1014.54,1584.86,1017.84Z"/>
      <path d="M1612,1018a14.1,14.1,0,0,0-3.84,2.88,19.37,19.37,0,0,0-2.52,4q-3.36-6.06-6.6-6.06t-6.66,6.06a39.3,39.3,0,0,0-2.34-4,11.94,11.94,0,0,0-3.66-2.88q3.12-1,3.12-5.64a6.49,6.49,0,0,0-1.8-5,8.22,8.22,0,0,0,3.42.9,7.06,7.06,0,0,0,4-1.62,6.81,6.81,0,0,1,3.36-1.62,5.36,5.36,0,0,1,3.42,1.68v-4.2a3.85,3.85,0,0,0-.87-2.43A2.57,2.57,0,0,0,1599,999q-3.24,0-6.6,6.06a33.91,33.91,0,0,0-2.34-3.94,10.52,10.52,0,0,0-3.66-2.81,9.49,9.49,0,0,0,3.78-2.87,32.55,32.55,0,0,0,2.22-4.24q3.12,6.66,6.66,6.66t6.6-6.66a20.11,20.11,0,0,0,2.4,4.25,13.69,13.69,0,0,0,4,2.88,5.26,5.26,0,0,0-2.39,2.15,5.9,5.9,0,0,0-.91,3.12v8.08a10.92,10.92,0,0,0,.48,3.78A5.12,5.12,0,0,0,1612,1018Zm-10.08-5.15v-3.76c-.64-1.67-1.66-2.5-3.06-2.5q-2.7,0-2.7,5.43a14.47,14.47,0,0,0,.3,3.58,2.46,2.46,0,0,0,2.52,2Q1602,1017.6,1602,1012.88Z"/>
      <path d="M1639,1018a14.1,14.1,0,0,0-3.84,2.88,19.37,19.37,0,0,0-2.52,4q-3.36-6.06-6.6-6.06t-6.66,6.06a39.3,39.3,0,0,0-2.34-4,11.94,11.94,0,0,0-3.66-2.88q3.12-1,3.12-5.64a6.49,6.49,0,0,0-1.8-5,8.22,8.22,0,0,0,3.42.9,7.06,7.06,0,0,0,4-1.62,6.81,6.81,0,0,1,3.36-1.62,5.36,5.36,0,0,1,3.42,1.68v-4.2a3.85,3.85,0,0,0-.87-2.43A2.57,2.57,0,0,0,1626,999q-3.24,0-6.6,6.06a33.91,33.91,0,0,0-2.34-3.94,10.61,10.61,0,0,0-3.66-2.81,9.49,9.49,0,0,0,3.78-2.87,32.55,32.55,0,0,0,2.22-4.24q3.12,6.66,6.66,6.66c2.31,0,4.52-2.22,6.6-6.66a20.11,20.11,0,0,0,2.4,4.25,13.56,13.56,0,0,0,4,2.88,5.26,5.26,0,0,0-2.39,2.15,5.9,5.9,0,0,0-.91,3.12v8.08a10.92,10.92,0,0,0,.48,3.78A5.12,5.12,0,0,0,1639,1018Zm-10.08-5.15v-3.76c-.64-1.67-1.66-2.5-3.06-2.5q-2.7,0-2.7,5.43a14.47,14.47,0,0,0,.3,3.58,2.45,2.45,0,0,0,2.52,2Q1628.9,1017.6,1628.9,1012.88Z"/>
      <path d="M1679.18,1017.78a12.1,12.1,0,0,0-3.78,3.06,38.23,38.23,0,0,0-2.58,4.08,46.21,46.21,0,0,0-2.58-4.08,12.1,12.1,0,0,0-3.78-3.06,5.1,5.1,0,0,0,2.7-2.58,11.72,11.72,0,0,0,.42-3.72v-8a5.91,5.91,0,0,0-.79-3.06,2.76,2.76,0,0,0-2.51-1.56,2.81,2.81,0,0,0-2.53,1.56,6,6,0,0,0-.77,3.06v8a11.37,11.37,0,0,0,.42,3.78,5,5,0,0,0,2.76,2.52,12.73,12.73,0,0,0-3.84,3.06,29.56,29.56,0,0,0-2.58,4.08,39.17,39.17,0,0,0-2.58-4.08,13.12,13.12,0,0,0-3.78-3.06,5.1,5.1,0,0,0,2.7-2.58,11.72,11.72,0,0,0,.42-3.72v-8a6,6,0,0,0-.78-3.06,2.82,2.82,0,0,0-5,0,5.9,5.9,0,0,0-.78,3.06v8a11.37,11.37,0,0,0,.42,3.78,5,5,0,0,0,2.76,2.52,12.73,12.73,0,0,0-3.84,3.06,29.56,29.56,0,0,0-2.58,4.08c-.57-1-1.42-2.38-2.58-4.14a13.52,13.52,0,0,0-3.79-3,5.09,5.09,0,0,0,2.71-2.58,10.39,10.39,0,0,0,.48-3.72v-8a5.73,5.73,0,0,0-.9-3,5.43,5.43,0,0,0-2.29-2.13,13.11,13.11,0,0,0,3.94-2.79,16.59,16.59,0,0,0,2.43-4.29q3.24,6.54,6.54,6.54c2.19,0,4.38-2.18,6.54-6.54q3.24,6.54,6.54,6.54c2.19,0,4.38-2.18,6.54-6.54a32.59,32.59,0,0,0,2.34,4.26,12.11,12.11,0,0,0,4,2.82,5.19,5.19,0,0,0-3.12,5.16v8a11.11,11.11,0,0,0,.42,3.72A5,5,0,0,0,1679.18,1017.78Z"/>
      <path d="M1696.93,1003.32h-1.26v-2.16a3.84,3.84,0,0,0-.81-2.88,4.81,4.81,0,0,0-3.09-.72v13.62c0,3.72,1.15,6.12,3.42,7.2a23.09,23.09,0,0,0-4,2.64,16.68,16.68,0,0,0-2.82,3.9,18.64,18.64,0,0,0-2.81-4,21.57,21.57,0,0,0-4.08-2.58,5.11,5.11,0,0,0,2.75-3,13.67,13.67,0,0,0,.48-4.2V997.56h-4.08v-2.7h4.08v-6.24a4.07,4.07,0,0,0-1.68-3.06q-.18-.18-1.86-1.5l.06-.06a32.39,32.39,0,0,0,4.12-.9,29.23,29.23,0,0,0,5.5-3.48,13.81,13.81,0,0,1,6.1-2.7l-.06.78q-5.1,1.56-5.1,10.86v6.3q2.82,0,3.42-.78.42-.54.42-3.48h1.32Z"/>
      <path d="M1720.75,1017.79a12.83,12.83,0,0,0-6,2.34,14.39,14.39,0,0,0-4.53,4.79,13.08,13.08,0,0,0-5-4.67,19.17,19.17,0,0,0-6.48-2.46,5.3,5.3,0,0,0,3.42-5.15V1005c0-3.11-1.22-5.35-3.66-6.7a22.33,22.33,0,0,0,8.7-1.68,15.45,15.45,0,0,0,6.9-5.39,24.17,24.17,0,0,0,2.64,4.19,11.41,11.41,0,0,0,4,2.88,8.43,8.43,0,0,0-2.28,4.37,11.28,11.28,0,0,1-1.92,4.55c-1.4,1.6-3.9,2.85-7.5,3.77v1c-.16,2.68,1.22,4.43,4.12,5.27A31.44,31.44,0,0,0,1720.75,1017.79Zm-6.48-13.33a7.75,7.75,0,0,0-1.8-4.23q-1.8-2.49-3.42-2.49v11.82a8.18,8.18,0,0,0,3.63-1.74A4.18,4.18,0,0,0,1714.27,1004.46Z"/>
    </g>
    <path d="M1610.84,786.62a17.31,17.31,0,0,1-7.46-1.6c-3.14-1.49-8.42-5.42-8.42-15,0-8.77,3.08-17.45,6-25.85,5-14,7.49-22.95,1.13-29.32-9.94-9.94-34.2-3.45-42.71-.11l-2.93-7.44c1.45-.57,35.62-13.78,51.29,1.89,10.4,10.4,5.5,24.25.76,37.65-2.75,7.76-5.59,15.78-5.59,23.18,0,4,1.3,6.58,3.84,7.79,3.57,1.69,9.43.64,13.07-2.34,1.26-1,2.67-2.65,2.21-4.48l7.77-1.94c1.13,4.53-.66,9.12-4.91,12.61A23.08,23.08,0,0,1,1610.84,786.62Z"/>
    <g>
      <path class="cls-19" d="M1638.08,714.57s9.08-7.57,17.4-7.57,14.38,9.84,14.38,9.84-5.54,8.55-13.37,8.82-13.87-8.07-16.14-7.31S1638.08,714.57,1638.08,714.57Z"/>
      <path d="M1656.13,729.66c-6,0-10.73-3.54-13.92-5.9-.61-.45-1.38-1-1.89-1.35a5.07,5.07,0,0,1-3.45-.94c-2.52-1.81-2.79-5.43-2.79-6.9v-1.88l1.44-1.2c1-.87,10.47-8.49,20-8.49,10.44,0,17.49,11.26,17.79,11.74l1.32,2.15-1.37,2.12c-.28.42-6.8,10.31-16.59,10.64ZM1644,715.27a33.13,33.13,0,0,1,3,2.06c2.67,2,6,4.47,9.39,4.33s6.52-2.74,8.49-4.91c-2.13-2.54-5.67-5.75-9.37-5.75S1647.13,713.26,1644,715.27Zm-4.87-.72h0Z"/>
    </g>
    <circle cx="1655.48" cy="713.81" r="4.54"/>
    <g>
      <path class="cls-19" d="M1595.86,714.57s-9.08-7.57-17.4-7.57-14.38,9.84-14.38,9.84,5.54,8.55,13.37,8.82,13.87-8.07,16.14-7.31S1595.86,714.57,1595.86,714.57Z"/>
      <path d="M1577.81,729.66h-.5c-9.8-.33-16.31-10.22-16.59-10.64l-1.37-2.12,1.32-2.15c.3-.48,7.35-11.74,17.79-11.74,9.49,0,18.92,7.62,20,8.49l1.44,1.2v1.88c0,1.47-.27,5.09-2.79,6.9a5.07,5.07,0,0,1-3.45.94c-.51.33-1.28.9-1.89,1.35C1588.54,726.12,1583.76,729.66,1577.81,729.66Zm-8.72-12.91c2,2.16,5.12,4.79,8.49,4.91s6.72-2.35,9.39-4.33a31.8,31.8,0,0,1,3-2.06c-3.17-2-7.68-4.27-11.52-4.27S1571.22,714.21,1569.09,716.75Zm25.76-2.2h0Z"/>
    </g>
    <circle cx="1578.46" cy="713.81" r="4.54"/>
    <path d="M1627.36,717.2l-4.8-6.4c10.61-7.95,35.76-18.34,55.1-.76l-5.39,5.92c-8-7.26-17.82-9.33-29.25-6.17A53.22,53.22,0,0,0,1627.36,717.2Z"/>
    <path d="M1591.93,813.68l.07-.08-6.07-5.2c.73-.86,7.81-8.4,29-8.4v8C1597.55,808,1592,813.62,1591.93,813.68Z"/>
    <rect x="1608.96" y="811" width="6" height="8"/>
    <path d="M1638,813.68c-.06-.06-5.62-5.68-23-5.68v-8c21.23,0,28.31,7.54,29,8.4l-6.07,5.2Z"/>
    <rect x="1614.96" y="811" width="6" height="8"/>
    <path d="M304,851c-23.1,0-44.85-13.88-61.22-39.07C227.65,788.71,218.65,757.8,218,727l-8.89-17.79-.09-.66c-.32-2.43-7.57-59.93,24.23-96.26C249.66,593.51,273.46,584,304,584v8c-28.08,0-49.84,8.58-64.68,25.51-27.72,31.63-23.11,83-22.42,89.33L226,725v.91C227,789.39,262.71,843,304,843Z"/>
    <path d="M224.87,728.75l-5.81-5.5,17.11-18.06,7-54.06,1-1c1-1,24.57-24.17,59.82-24.17v8c-28.22,0-48.66,16.84-53.21,20.94l-7,53.87Z"/>
    <path d="M226.52,770.17a15.32,15.32,0,0,1-12.2-5.71c-11-13.34-5-46.48-4.28-50.22l.21-1.12,12.86-13.85,4.95-52.46.39-.73C229.23,644.65,248.23,611,304,611v8c-46.9,0-65.3,25.86-68.1,30.28l-5,53.45-13.13,14.14c-1.77,9.94-4.23,34,2.8,42.5a7.3,7.3,0,0,0,6,2.8Z"/>
    <path d="M226.41,637.07l-6-5.26C245.49,603,279.69,597,304,597v8C281.35,605,249.54,610.56,226.41,637.07Z"/>
    <path d="M280.45,956.11l-30.36-24.48-49.2-13.78-2.17-6.19,60-83,6.49,4.68-6.33,8.75H259l-1,42.14,28.66,67.2Zm-71.88-44.42L253,924.15l1.44.74L273,939.82l-22.71-53.25-.32-1.66.73-31.5Z"/>
    <path d="M104,1056.09c0-.45-1-45.49,0-79.21,1-35.77,22-48.77,22.94-49.31l104.06-60,4,6.92-104,60c-.66.42-18.08,11.49-19,42.66-1,33.5,0,78.34,0,78.79Z"/>
    <path d="M259.91,867.91a13,13,0,0,1-12.76-10.54l-1.9-9.82a13,13,0,0,1,25.53-4.92l1.9,9.82a13,13,0,0,1-10.31,15.22h0A13,13,0,0,1,259.91,867.91ZM258,840.09a5.17,5.17,0,0,0-.95.09,5,5,0,0,0-4,5.86l1.89,9.82a5,5,0,0,0,5.86,4h0a5,5,0,0,0,4-5.86l-1.89-9.82A5,5,0,0,0,258,840.09Z"/>
    <path d="M276.15,909.51a13,13,0,0,1-11.74-7.37l-4.33-9a13,13,0,0,1,23.44-11.26l4.33,9a13,13,0,0,1-6.09,17.34h0A12.92,12.92,0,0,1,276.15,909.51Zm-4.36-27a5,5,0,0,0-4.5,7.17l4.33,9A5,5,0,0,0,278.3,901a5,5,0,0,0,2.34-6.67l-4.33-9A5,5,0,0,0,271.79,882.49Z"/>
    <path d="M296.15,949.51a13,13,0,0,1-11.74-7.37l-4.33-9a13,13,0,0,1,23.44-11.26l4.33,9a13,13,0,0,1-6.09,17.34h0A12.92,12.92,0,0,1,296.15,949.51Zm-4.36-27a5,5,0,0,0-4.5,7.17l4.33,9A5,5,0,0,0,298.3,941a5,5,0,0,0,2.34-6.67l-4.33-9A5,5,0,0,0,291.79,922.49Z"/>
    <path d="M270,888a4,4,0,0,1-3.77-2.69l-9-26a4,4,0,1,1,7.55-2.62l9,26A4,4,0,0,1,270,888Z"/>
    <path d="M289.82,928.21a4,4,0,0,1-3.56-2.16l-12.69-24.41a4,4,0,0,1,7.1-3.69l12.69,24.41a4,4,0,0,1-1.7,5.39A4,4,0,0,1,289.82,928.21Z"/>
    <path d="M304,914a111.81,111.81,0,0,1-38.52-7.3l3-7.4A105.53,105.53,0,0,0,304,906Z"/>
    <path d="M304,926a111.81,111.81,0,0,1-38.52-7.3l3-7.4A105.53,105.53,0,0,0,304,918Z"/>
    <path d="M303.69,851v-8c41.26,0,77-53.61,78-117.06V725l9.1-18.19c.68-6.29,5.3-57.7-22.42-89.33C353.54,600.58,331.77,592,303.69,592v-8c30.51,0,54.31,9.51,70.73,28.27,31.8,36.33,24.56,93.83,24.23,96.26l-.09.66L389.67,727c-.66,30.82-9.66,61.73-24.75,84.95C348.54,837.12,326.8,851,303.69,851Z"/>
    <path d="M382.78,728.75l-18.89-19.94-7-53.86c-4.56-4.09-25.09-21-53.22-21v-8c35.25,0,58.84,23.18,59.83,24.17l1,1,7,54.06,17.1,18.06Z"/>
    <path d="M381.13,770.17v-8a7.28,7.28,0,0,0,6-2.8c7-8.54,4.57-32.56,2.81-42.5l-13.14-14.14-5-53.47C369,644.69,350.91,619,303.69,619v-8c55.73,0,74.73,33.65,75.51,35.08l.39.73,5,52.46,12.86,13.85.22,1.12c.72,3.74,6.73,36.88-4.29,50.22A15.32,15.32,0,0,1,381.13,770.17Z"/>
    <path d="M381.24,637.07C358.11,610.56,326.3,605,303.69,605v-8c24.27,0,58.47,6,83.58,34.81Z"/>
    <path d="M327.2,956.11,321,951.43l28.66-67.2-1-42.14h.08l-6.32-8.75,6.48-4.68,60,83-2.16,6.19-49.21,13.78ZM357,853.41l.74,31.5-.32,1.66-22.71,53.25,18.52-14.93,1.43-.74,44.48-12.46Z"/>
    <path d="M503.69,1056.09l-8-.18c0-.45,1-45.29,0-78.79-.92-31.17-18.34-42.24-19.08-42.7l-103.92-60,4-6.92,104,60c.95.57,21.94,13.57,23,49.34C504.68,1010.6,503.7,1055.64,503.69,1056.09Z"/>
    <path d="M347.75,867.91A13,13,0,0,1,335,852.45l1.89-9.82a13,13,0,0,1,25.53,4.92l-1.89,9.82A13,13,0,0,1,347.75,867.91Zm1.88-27.82a5,5,0,0,0-4.91,4L342.83,854a5,5,0,0,0,9.82,1.9l1.89-9.82a5,5,0,0,0-4-5.86A5.09,5.09,0,0,0,349.63,840.09Z"/>
    <path d="M331.5,909.51a13,13,0,0,1-11.69-18.63l4.33-9a13,13,0,0,1,23.43,11.26l-4.33,9A13,13,0,0,1,331.5,909.51Zm4.36-27a5,5,0,0,0-4.51,2.84l-4.33,9a5,5,0,1,0,9,4.33l4.33-9A5,5,0,0,0,338,883,4.91,4.91,0,0,0,335.86,882.49Z"/>
    <path d="M311.5,949.51a13,13,0,0,1-11.69-18.63l4.33-9a13,13,0,0,1,23.43,11.26l-4.33,9A13,13,0,0,1,311.5,949.51Zm4.36-27a5,5,0,0,0-4.51,2.84l-4.33,9a5,5,0,0,0,9,4.33l4.33-9A5,5,0,0,0,318,923,4.91,4.91,0,0,0,315.86,922.49Z"/>
    <path d="M337.69,888a4,4,0,0,1-3.78-5.31l9-26a4,4,0,1,1,7.56,2.62l-9,26A4,4,0,0,1,337.69,888Z"/>
    <path d="M317.84,928.21a4,4,0,0,1-3.55-5.85L327,898a4,4,0,0,1,7.09,3.69l-12.69,24.41A4,4,0,0,1,317.84,928.21Z"/>
    <path d="M303.69,914v-8a105.53,105.53,0,0,0,35.48-6.7l3,7.4A111.74,111.74,0,0,1,303.69,914Z"/>
    <path d="M303.69,926v-8a105.53,105.53,0,0,0,35.48-6.7l3,7.4A111.74,111.74,0,0,1,303.69,926Z"/>
    <g>
      <rect class="cls-5" x="183.97" y="953" width="239" height="97"/>
      <path d="M427,1054H180V949H427Zm-239-8H419V957H188Z"/>
    </g>
    <g>
      <path d="M222.86,1018.5q-10,0-15.36,6.42-3-3.54-6.06-3.54t-4.32,3.54h-.36q.3-4.32,2-6.18a12.62,12.62,0,0,1,3.54-2.22,9.93,9.93,0,0,0,3.72-2.7,14.22,14.22,0,0,0,2.76,3.18q2.1,1.92,3.54,1.92,1,0,1-1.14v-5.4q0-4-5.16-4t-7.62,3.6v-6.78q0-4.62-3.3-6.48a22.77,22.77,0,0,0,9-1.92,15.61,15.61,0,0,0,7.14-5.58,15.22,15.22,0,0,0,8.52,7.5h-.42a6.47,6.47,0,0,0-4.44,1.65,7.29,7.29,0,0,0-2.34,4.29,15.7,15.7,0,0,0-2.52-4.38q-2.1-2.64-4-2.64-1,0-1,1.08a17.43,17.43,0,0,0,.66,5.82q1.14,2.82,4.7,2.82a9.77,9.77,0,0,0,7.54-3.72v8.82Q220,1016.76,222.86,1018.5Z"/>
      <path d="M246.14,1017.78q-2.16.06-5.64,2.76-1.56,1.2-4.92,4.38-1.14-2-5.22-4.53t-6.42-2.61q1.68-.12,2.7-2.34a8.6,8.6,0,0,0,.9-3.78v-6.72a7,7,0,0,0-3.66-6.66q10.86,0,15.6-7.08a24.58,24.58,0,0,0,2.64,4.2,12,12,0,0,0,4,2.88q-2.16,1-3.78,5.1a27.52,27.52,0,0,0-1.68,6.42h-.12a31.88,31.88,0,0,0-1.62-7.2q-1.86-5-4.5-4.8v13.38Q234.44,1017.78,246.14,1017.78Z"/>
      <path d="M273.86,1017.84q-2.64,1.38-3.48,5.4a23.61,23.61,0,0,1-2.22,6.9q-2.46,3.9-9.18,5.58v-1q4.5-1.32,4.5-7.62V1002q0-2.16-3-2.88a12.73,12.73,0,0,0-2.7-.24h-.72v12.6a10,10,0,0,0,.54,3.84,5.71,5.71,0,0,0,2.82,2.52,15.51,15.51,0,0,0-4,3.18,26.5,26.5,0,0,0-2.82,4.26,25.81,25.81,0,0,0-2.88-4.26,13.27,13.27,0,0,0-4.08-3.18,4.9,4.9,0,0,0,2.81-2.52,11.11,11.11,0,0,0,.49-3.84v-6.9q0-5-3.42-7a7.58,7.58,0,0,0,2.94-3,12.66,12.66,0,0,0,.48-4.2q0-5.1-3.54-6.54a12.73,12.73,0,0,0,1.44.12q2.76,0,7.56-3.48t7.38-3.48a7.37,7.37,0,0,1,4.38,1.32,4.59,4.59,0,0,1,2.1,3.9,3.9,3.9,0,0,1-1.05,2.79,3.59,3.59,0,0,1-2.73,1.11q-3.3,0-3.3-3.06a2.89,2.89,0,0,1,.78-2,2.58,2.58,0,0,1,2-.84q2.34,0,2.58,2.88a5,5,0,0,0,.12-.83,3.05,3.05,0,0,0-1.2-2.46,4.33,4.33,0,0,0-2.82-1,5.46,5.46,0,0,0-5.16,3.47,14.44,14.44,0,0,0-1.38,6.46v8.37a10.6,10.6,0,0,0,6.24-1.62,13.61,13.61,0,0,0,3.78-5.22,18.81,18.81,0,0,0,2.58,4.44,11.15,11.15,0,0,0,4.2,2.88,5.57,5.57,0,0,0-3.3,5.4v8.34Q270.56,1014.54,273.86,1017.84Z"/>
      <path d="M301,1018a14.1,14.1,0,0,0-3.84,2.88,19.37,19.37,0,0,0-2.52,4q-3.36-6.06-6.6-6.06t-6.66,6.06a39.3,39.3,0,0,0-2.34-4,11.94,11.94,0,0,0-3.66-2.88q3.12-1,3.12-5.64a6.49,6.49,0,0,0-1.8-5,8.22,8.22,0,0,0,3.42.9,7.06,7.06,0,0,0,4-1.62,6.81,6.81,0,0,1,3.36-1.62,5.36,5.36,0,0,1,3.42,1.68v-4.2a3.85,3.85,0,0,0-.87-2.43A2.57,2.57,0,0,0,288,999q-3.24,0-6.6,6.06a33.91,33.91,0,0,0-2.34-3.94,10.52,10.52,0,0,0-3.66-2.81,9.49,9.49,0,0,0,3.78-2.87,32.55,32.55,0,0,0,2.22-4.24q3.12,6.66,6.66,6.66t6.6-6.66a20.11,20.11,0,0,0,2.4,4.25,13.69,13.69,0,0,0,4,2.88,5.26,5.26,0,0,0-2.39,2.15,5.9,5.9,0,0,0-.91,3.12v8.08a10.92,10.92,0,0,0,.48,3.78A5.12,5.12,0,0,0,301,1018ZM291,1012.88v-3.76c-.64-1.67-1.66-2.5-3.06-2.5q-2.7,0-2.7,5.43a14.47,14.47,0,0,0,.3,3.58,2.46,2.46,0,0,0,2.52,2Q291,1017.6,291,1012.88Z"/>
      <path d="M328,1018a14.1,14.1,0,0,0-3.84,2.88,19.37,19.37,0,0,0-2.52,4q-3.36-6.06-6.6-6.06t-6.66,6.06a39.3,39.3,0,0,0-2.34-4,11.94,11.94,0,0,0-3.66-2.88q3.12-1,3.12-5.64a6.49,6.49,0,0,0-1.8-5,8.22,8.22,0,0,0,3.42.9,7.06,7.06,0,0,0,4-1.62,6.81,6.81,0,0,1,3.36-1.62,5.36,5.36,0,0,1,3.42,1.68v-4.2a3.85,3.85,0,0,0-.87-2.43A2.57,2.57,0,0,0,315,999q-3.24,0-6.6,6.06a33.91,33.91,0,0,0-2.34-3.94,10.61,10.61,0,0,0-3.66-2.81,9.49,9.49,0,0,0,3.78-2.87,32.55,32.55,0,0,0,2.22-4.24q3.12,6.66,6.66,6.66c2.31,0,4.52-2.22,6.6-6.66a20.11,20.11,0,0,0,2.4,4.25,13.56,13.56,0,0,0,4,2.88,5.26,5.26,0,0,0-2.39,2.15,5.9,5.9,0,0,0-.91,3.12v8.08a10.92,10.92,0,0,0,.48,3.78A5.12,5.12,0,0,0,328,1018Zm-10.08-5.15v-3.76c-.64-1.67-1.66-2.5-3.06-2.5q-2.7,0-2.7,5.43a14.47,14.47,0,0,0,.3,3.58,2.45,2.45,0,0,0,2.52,2Q317.9,1017.6,317.9,1012.88Z"/>
      <path d="M368.18,1017.78a12.1,12.1,0,0,0-3.78,3.06,38.23,38.23,0,0,0-2.58,4.08,46.21,46.21,0,0,0-2.58-4.08,12.1,12.1,0,0,0-3.78-3.06,5.1,5.1,0,0,0,2.7-2.58,11.72,11.72,0,0,0,.42-3.72v-8a5.91,5.91,0,0,0-.79-3.06,2.76,2.76,0,0,0-2.51-1.56,2.81,2.81,0,0,0-2.53,1.56,6,6,0,0,0-.77,3.06v8a11.37,11.37,0,0,0,.42,3.78,5,5,0,0,0,2.76,2.52,12.73,12.73,0,0,0-3.84,3.06,29.56,29.56,0,0,0-2.58,4.08,39.17,39.17,0,0,0-2.58-4.08,13.12,13.12,0,0,0-3.78-3.06,5.1,5.1,0,0,0,2.7-2.58,11.72,11.72,0,0,0,.42-3.72v-8a6,6,0,0,0-.78-3.06,2.82,2.82,0,0,0-5,0,5.9,5.9,0,0,0-.78,3.06v8a11.37,11.37,0,0,0,.42,3.78,5,5,0,0,0,2.76,2.52,12.73,12.73,0,0,0-3.84,3.06,29.56,29.56,0,0,0-2.58,4.08c-.57-1-1.42-2.38-2.58-4.14a13.52,13.52,0,0,0-3.79-3,5.09,5.09,0,0,0,2.71-2.58,10.39,10.39,0,0,0,.48-3.72v-8a5.73,5.73,0,0,0-.9-3,5.43,5.43,0,0,0-2.29-2.13,13.11,13.11,0,0,0,3.94-2.79,16.59,16.59,0,0,0,2.43-4.29q3.24,6.54,6.54,6.54c2.19,0,4.38-2.18,6.54-6.54q3.24,6.54,6.54,6.54c2.19,0,4.38-2.18,6.54-6.54a32.59,32.59,0,0,0,2.34,4.26,12.11,12.11,0,0,0,4,2.82,5.19,5.19,0,0,0-3.12,5.16v8a11.11,11.11,0,0,0,.42,3.72A5,5,0,0,0,368.18,1017.78Z"/>
      <path d="M385.93,1003.32h-1.26v-2.16a3.84,3.84,0,0,0-.81-2.88,4.81,4.81,0,0,0-3.09-.72v13.62c0,3.72,1.15,6.12,3.42,7.2a23.09,23.09,0,0,0-4,2.64,16.68,16.68,0,0,0-2.82,3.9,18.64,18.64,0,0,0-2.81-4,21.57,21.57,0,0,0-4.08-2.58,5.11,5.11,0,0,0,2.75-3,13.67,13.67,0,0,0,.48-4.2V997.56h-4.08v-2.7h4.08v-6.24a4.07,4.07,0,0,0-1.68-3.06q-.18-.18-1.86-1.5l.06-.06a32.39,32.39,0,0,0,4.12-.9,29.23,29.23,0,0,0,5.5-3.48,13.81,13.81,0,0,1,6.1-2.7l-.06.78q-5.1,1.56-5.1,10.86v6.3q2.82,0,3.42-.78.42-.54.42-3.48h1.32Z"/>
      <path d="M409.75,1017.79a12.83,12.83,0,0,0-6,2.34,14.39,14.39,0,0,0-4.53,4.79,13.08,13.08,0,0,0-5-4.67,19.17,19.17,0,0,0-6.48-2.46,5.3,5.3,0,0,0,3.42-5.15V1005c0-3.11-1.22-5.35-3.66-6.7a22.33,22.33,0,0,0,8.7-1.68,15.45,15.45,0,0,0,6.9-5.39,24.17,24.17,0,0,0,2.64,4.19,11.41,11.41,0,0,0,4,2.88,8.43,8.43,0,0,0-2.28,4.37,11.28,11.28,0,0,1-1.92,4.55c-1.4,1.6-3.9,2.85-7.5,3.77v1c-.16,2.68,1.22,4.43,4.12,5.27A31.44,31.44,0,0,0,409.75,1017.79Zm-6.48-13.33a7.75,7.75,0,0,0-1.8-4.23q-1.8-2.49-3.42-2.49v11.82a8.18,8.18,0,0,0,3.63-1.74A4.18,4.18,0,0,0,403.27,1004.46Z"/>
    </g>
    <path d="M299.84,786.62a17.31,17.31,0,0,1-7.46-1.6c-3.14-1.49-8.42-5.42-8.42-15,0-8.77,3.08-17.45,6.05-25.85,4.95-14,7.49-22.95,1.13-29.32-9.94-9.94-34.2-3.45-42.71-.11l-2.93-7.44c1.45-.57,35.62-13.78,51.29,1.89,10.4,10.4,5.5,24.25.76,37.65C294.8,754.58,292,762.6,292,770c0,4,1.3,6.58,3.84,7.79,3.57,1.69,9.43.64,13.07-2.34,1.26-1,2.67-2.65,2.21-4.48l7.77-1.94c1.13,4.53-.66,9.12-4.91,12.61A23.08,23.08,0,0,1,299.84,786.62Z"/>
    <g>
      <path class="cls-19" d="M327.08,714.57s9.08-7.57,17.4-7.57,14.38,9.84,14.38,9.84-5.54,8.55-13.37,8.82-13.87-8.07-16.14-7.31S327.08,714.57,327.08,714.57Z"/>
      <path d="M345.13,729.66c-5.95,0-10.73-3.54-13.92-5.9-.61-.45-1.38-1-1.89-1.35a5.07,5.07,0,0,1-3.45-.94c-2.52-1.82-2.79-5.43-2.79-6.9v-1.88l1.44-1.2c1-.87,10.46-8.49,20-8.49,10.44,0,17.49,11.26,17.79,11.74l1.32,2.15L362.22,719c-.28.42-6.8,10.31-16.59,10.64ZM333,715.27a29.57,29.57,0,0,1,3,2.06c2.67,2,6,4.46,9.39,4.33s6.52-2.74,8.49-4.91c-2.12-2.54-5.67-5.75-9.37-5.75C340.61,711,336.11,713.26,333,715.27Z"/>
    </g>
    <circle cx="344.48" cy="713.81" r="4.54"/>
    <g>
      <path class="cls-19" d="M284.86,714.57s-9.08-7.57-17.4-7.57-14.38,9.84-14.38,9.84,5.54,8.55,13.37,8.82,13.87-8.07,16.14-7.31S284.86,714.57,284.86,714.57Z"/>
      <path d="M266.81,729.66h-.5c-9.79-.33-16.31-10.22-16.59-10.64l-1.37-2.12,1.32-2.15C250,714.26,257,703,267.46,703c9.49,0,18.92,7.62,20,8.49l1.44,1.2v1.88c0,1.47-.27,5.08-2.79,6.9a5.07,5.07,0,0,1-3.45.94c-.52.33-1.28.9-1.89,1.35C277.54,726.12,272.76,729.66,266.81,729.66Zm-8.72-12.91c2,2.16,5.12,4.79,8.49,4.91s6.72-2.35,9.39-4.33a31.8,31.8,0,0,1,3-2.06c-3.17-2-7.68-4.27-11.52-4.27S260.22,714.21,258.09,716.75Z"/>
    </g>
    <circle cx="267.46" cy="713.81" r="4.54"/>
    <path d="M316.36,717.2l-4.8-6.4c10.6-7.95,35.76-18.34,55.1-.76L361.27,716c-8-7.26-17.82-9.33-29.25-6.17A53.22,53.22,0,0,0,316.36,717.2Z"/>
    <path d="M280.93,813.68l.07-.08-6.07-5.2c.73-.86,7.81-8.4,29-8.4v8C286.55,808,281,813.62,280.93,813.68Z"/>
    <rect x="297.96" y="811" width="6" height="8"/>
    <path d="M327,813.68c-.06-.06-5.62-5.68-23-5.68v-8c21.23,0,28.31,7.54,29,8.4l-6.07,5.2Z"/>
    <rect x="303.96" y="811" width="6" height="8"/>
  </g>
</svg>
