<svg xmlns="http://www.w3.org/2000/svg" xmlns:xlink="http://www.w3.org/1999/xlink" viewBox="0 0 1920 1080">
  <defs>
    <style>
      .cls-1 {
        fill: none;
      }

      .cls-2 {
        fill: #29a8df;
        stroke: #000;
        stroke-miterlimit: 10;
        stroke-width: 8px;
      }

      .cls-3 {
        fill: #00a69a;
      }

      .cls-4 {
        fill: url(#New_Pattern_Swatch_13);
      }

      .cls-5 {
        fill: #787fff;
      }

      .cls-6 {
        fill: #5061ff;
      }

      .cls-7 {
        fill: #ffe300;
      }

      .cls-8 {
        fill: #ffcb00;
      }

      .cls-9 {
        fill: #2b293a;
      }

      .cls-10 {
        fill: #29a6dd;
      }

      .cls-11 {
        fill: #fff;
      }

      .cls-12 {
        fill: #86ff76;
      }

      .cls-13 {
        fill: #ffeda8;
      }

      .cls-14 {
        fill: #ff4848;
      }

      .cls-15 {
        fill: #ffbe7b;
      }

      .cls-16 {
        fill: #615f86;
      }

      .cls-17 {
        fill: #c69c6d;
      }
    </style>
    <pattern id="New_Pattern_Swatch_13" data-name="New Pattern Swatch 13" width="70" height="70" patternTransform="translate(-22 1)" patternUnits="userSpaceOnUse" viewBox="0 0 70 70">
      <rect class="cls-1" width="70" height="70"/>
      <polygon class="cls-2" points="73.92 65.83 83.66 75.57 83.66 126.34 73.92 136.09 64.17 126.34 64.17 75.57 73.92 65.83"/>
      <polygon class="cls-2" points="3.92 65.83 13.66 75.57 13.66 126.34 3.92 136.09 -5.83 126.34 -5.83 75.57 3.92 65.83"/>
      <g>
        <polygon class="cls-2" points="73.92 -4.17 83.66 5.57 83.66 56.34 73.92 66.08 64.17 56.34 64.17 5.57 73.92 -4.17"/>
        <polygon class="cls-2" points="144.17 66.08 134.43 75.83 83.66 75.83 73.92 66.08 83.66 56.34 134.43 56.34 144.17 66.08"/>
      </g>
      <g>
        <rect class="cls-3" x="13.66" y="10" width="46.34" height="46.34"/>
        <polygon class="cls-2" points="3.92 -4.17 13.66 5.57 13.66 56.34 3.92 66.08 -5.83 56.34 -5.83 5.57 3.92 -4.17"/>
        <polygon class="cls-2" points="74.17 66.08 64.43 75.83 13.66 75.83 3.92 66.08 13.66 56.34 64.43 56.34 74.17 66.08"/>
      </g>
      <polygon class="cls-2" points="4.17 66.08 -5.57 75.83 -56.34 75.83 -66.08 66.08 -56.34 56.34 -5.57 56.34 4.17 66.08"/>
      <g>
        <polygon class="cls-2" points="73.92 -74.17 83.66 -64.43 83.66 -13.66 73.92 -3.92 64.17 -13.66 64.17 -64.43 73.92 -74.17"/>
        <polygon class="cls-2" points="144.17 -3.92 134.43 5.83 83.66 5.83 73.92 -3.92 83.66 -13.66 134.43 -13.66 144.17 -3.92"/>
      </g>
      <g>
        <polygon class="cls-2" points="3.92 -74.17 13.66 -64.43 13.66 -13.66 3.92 -3.92 -5.83 -13.66 -5.83 -64.43 3.92 -74.17"/>
        <polygon class="cls-2" points="74.17 -3.92 64.43 5.83 13.66 5.83 3.92 -3.92 13.66 -13.66 64.43 -13.66 74.17 -3.92"/>
      </g>
      <polygon class="cls-2" points="4.17 -3.92 -5.57 5.83 -56.34 5.83 -66.08 -3.92 -56.34 -13.66 -5.57 -13.66 4.17 -3.92"/>
    </pattern>
  </defs>
  <title>Illustration10</title>
  <g id="Layer_8" data-name="Layer 8">
    <rect class="cls-4" width="1920" height="1080"/>
  </g>
  <g id="Layer_7" data-name="Layer 7">
    <rect class="cls-5" x="1363.01" y="989" width="20" height="32"/>
    <rect class="cls-5" x="1817.01" y="989" width="20" height="32"/>
    <polyline class="cls-5" points="1699.01 454.25 1814.85 566.31 1816.91 844.75 1817.01 986 1647.01 484 1699.01 454.25"/>
    <path class="cls-5" d="M1742,357.8h73s1-98-62-148l-53,51S1743,311.8,1742,357.8Z"/>
    <path class="cls-5" d="M1605,223.8s-53,4-91,39l-61-61s28-30,74-46,79-12,79-12Z"/>
    <path class="cls-5" d="M1385,358.8l86-1s2,55,40,93l-125,127Z"/>
    <polygon class="cls-5" points="1384.01 1000 1605.01 1002 1603.01 627 1528.01 585 1384.01 1000"/>
    <path class="cls-5" d="M1605,223.8s76,8,95,37l-14,15s-38-33-78-30Z"/>
    <path class="cls-5" d="M1722,356.8l17-1s7,47-37,96l-14-8S1719,399.8,1722,356.8Z"/>
    <polygon class="cls-5" points="1527 438.8 1553 458.8 1546 474.8 1511 450.8 1527 438.8"/>
    <path class="cls-5" d="M1514,262.8l14,14s-33,28-34,80h-19S1481,284.8,1514,262.8Z"/>
    <path class="cls-6" d="M1742.7,354.85h72.08V570.23L1702,451.8S1743.4,412.9,1742.7,354.85Z"/>
    <path class="cls-6" d="M1641.86,358.42c.81-.58,78.14-.62,78.14-.62s-1.14,61.62-33.14,80.62C1686.86,438.42,1613.86,378.42,1641.86,358.42Z"/>
    <path class="cls-6" d="M1608,245.8l-2,43,35,28,45-41S1646,240.8,1608,245.8Z"/>
    <path class="cls-6" d="M1525.76,278.07l31.68,29.07-2.58,53.28L1494,356.8S1487.78,316.51,1525.76,278.07Z"/>
    <path class="cls-6" d="M1514,262.8l14,14s35-36,80-31l-3-22S1533,231.8,1514,262.8Z"/>
    <path class="cls-6" d="M1494,356.8s-7,44,33,82l-15.7,14.77S1473,418.8,1475,356.8Z"/>
    <path class="cls-6" d="M1510,263.8s-36,40-38,91h-86s2-56,14-77,45-77,53-76Z"/>
    <path class="cls-6" d="M1609.05,224.89s55,5.91,91,35.91l53-55s-60-60-143-63Z"/>
    <path class="cls-6" d="M1689,278.8s33,41,31,79l19-2s-2.59-64.36-40.8-91.68Z"/>
    <path class="cls-5" d="M1605.2,426.26l33.66-26.84s37.85,18,46,41l-34,27Z"/>
    <path class="cls-5" d="M1552.5,301.82l-24.5-25s20.09-23.91,54-27.45,21.91-4.59,21.91-4.59l2,44s-15,1.2-17,2.2S1552.5,301.82,1552.5,301.82Z"/>
    <path class="cls-5" d="M1555.86,357.42l-62.46,2.48s3.6,54.9,33.6,78.9l36.86-36.38Z"/>
    <path class="cls-5" d="M1657.25,360.8l62.46-2.47s-3.61-54.91-33.61-78.91l-36.85,36.38Z"/>
    <polygon class="cls-6" points="1566.86 401.42 1527 438.8 1542.36 451.54 1566.86 443.42 1566.86 401.42"/>
    <polygon class="cls-6" points="1511 453.8 1386 577.8 1385 845.8 1386.01 988 1510 629.8 1529.01 580 1504.01 561 1491 534.8 1531 493.8 1531 468.8 1511 453.8"/>
    <polygon class="cls-6" points="1683.88 577.99 1817.01 999 1607.01 1001 1605.01 645 1683.88 577.99"/>
    <polygon class="cls-6" points="1649 466.8 1678 448.8 1687.86 439.42 1695.8 457.57 1656 482.8 1649 466.8"/>
    <polygon class="cls-5" points="1648 463.8 1671 451.8 1657 446.8 1648 463.8"/>
    <polygon class="cls-5" points="1643 466.8 1649 472.8 1646 478.8 1638 474.8 1643 466.8"/>
    <path d="M1607,495.8c-75.54,0-137-61.46-137-137s61.46-137,137-137,137,61.46,137,137S1682.54,495.8,1607,495.8Zm0-266a129,129,0,1,0,129,129A129.15,129.15,0,0,0,1607,229.8Z"/>
    <path d="M1607,476.23A117.43,117.43,0,1,1,1724.43,358.8,117.56,117.56,0,0,1,1607,476.23Zm0-228A110.57,110.57,0,1,0,1717.57,358.8,110.69,110.69,0,0,0,1607,248.23Z"/>
    <rect x="1602.5" y="140.8" width="8" height="217.5"/>
    <rect x="1525.55" y="170.61" width="8" height="219" transform="translate(249.93 1163.6) rotate(-45)"/>
    <rect x="1384" y="353.05" width="223.75" height="8"/>
    <rect x="1337.67" y="465.13" width="315.52" height="8" transform="translate(106.28 1194.83) rotate(-45)"/>
    <rect x="1573.09" y="278.86" width="211.22" height="8" transform="translate(291.59 1269.74) rotate(-45)"/>
    <rect x="1603.25" y="353.05" width="212.75" height="8"/>
    <rect x="1706.76" y="313.33" width="8.13" height="302.08" transform="translate(172.72 1345.74) rotate(-45)"/>
    <rect x="1708.33" y="339.5" width="8" height="668.33" transform="translate(-124.85 570.34) rotate(-18.26)"/>
    <rect x="1159.47" y="670.16" width="673.45" height="8" transform="matrix(0.33, -0.94, 0.94, 0.33, 365.92, 1863.93)"/>
    <rect x="1644.5" y="465.8" width="8" height="382"/>
    <rect x="1645" y="148.8" width="8" height="84"/>
    <rect x="1687" y="520.18" width="8" height="479.82"/>
    <rect x="1643" y="520.18" width="8" height="479.82"/>
    <rect x="1560" y="520.18" width="8" height="479.82"/>
    <rect x="1514" y="520.18" width="8" height="479.82"/>
    <rect x="1687" y="163.8" width="8" height="92"/>
    <rect x="1729.5" y="402" width="8" height="598"/>
    <rect x="1730" y="186.8" width="8" height="130"/>
    <rect x="1772" y="229.8" width="8" height="770.2"/>
    <rect x="1424.5" y="227" width="8" height="773"/>
    <rect x="1469" y="184.8" width="8" height="815.2"/>
    <rect x="1513" y="156.8" width="8" height="103"/>
    <rect x="1513" y="457.8" width="8" height="103"/>
    <rect x="1560" y="142.8" width="8" height="88"/>
    <rect class="cls-5" x="1817" y="749.8" width="23" height="117"/>
    <rect class="cls-6" x="1817" y="643.8" width="23" height="107"/>
    <rect class="cls-6" x="1817" y="420.8" width="23" height="107"/>
    <rect class="cls-5" x="1817" y="531.8" width="23" height="107"/>
    <rect class="cls-6" x="1361" y="643.8" width="23" height="107"/>
    <rect class="cls-6" x="1713.01" y="999" width="104" height="22"/>
    <rect class="cls-5" x="1606.01" y="999" width="104" height="22"/>
    <rect class="cls-5" x="1496.01" y="999" width="104" height="22"/>
    <rect class="cls-5" x="1318" y="798.8" width="114" height="22" transform="translate(2184.8 -565.2) rotate(90)"/>
    <rect class="cls-6" x="1318.01" y="917" width="114" height="22" transform="translate(2303.01 -447.01) rotate(90)"/>
    <rect class="cls-6" x="1771.01" y="917" width="114" height="22" transform="translate(2756.01 -900.01) rotate(90)"/>
    <rect class="cls-5" x="1318" y="574.8" width="114" height="22" transform="translate(1960.8 -789.2) rotate(90)"/>
    <rect class="cls-6" x="1319" y="464.8" width="114" height="22" transform="translate(1851.8 -900.2) rotate(90)"/>
    <rect class="cls-6" x="1384.01" y="999" width="109" height="22"/>
    <polygon class="cls-5" points="1817 420.8 1840 420.8 1837 324.8 1830 307.8 1814 312.8 1818 368.8 1817 420.8"/>
    <path class="cls-5" d="M1367,307.8l21,8s-2.52,80.16-5.26,105.08L1359,420.8Z"/>
    <polygon class="cls-6" points="1419 198.8 1436.61 217.86 1408 258.8 1388 315.8 1367 307.8 1379 267.8 1400 228.8 1419 198.8"/>
    <polygon class="cls-5" points="1419 198.8 1457 167.8 1514 135.8 1523.72 155.48 1473.72 184.52 1440.91 213.56 1431.24 211.4 1419 198.8"/>
    <polygon class="cls-6" points="1514 135.8 1566 120.8 1631 122.8 1684 134.8 1676.71 157.05 1613.84 142.63 1560.77 146.67 1527 155.8 1514 135.8"/>
    <path class="cls-5" d="M1675,153.8l9-19,67,39,30,29-16.26,14.75S1729,169.8,1675,153.8Z"/>
    <path class="cls-6" d="M1781,202.8l-16,15,18.12,25.66S1814,287.8,1814,312.8l16-5-11-49Z"/>
    <path d="M1842.5,1027h-484V357.3a242,242,0,1,1,484,0Zm-476-8h468V357.3a234,234,0,0,0-468,0Z"/>
    <path d="M1821,1004H1380V359.5a220.5,220.5,0,1,1,441,0Zm-433-8h425V359.5c0-117.17-95.33-212.5-212.5-212.5S1388,242.33,1388,359.5Z"/>
    <rect x="1360" y="746.8" width="21" height="8"/>
    <rect x="1360.01" y="865" width="21" height="8"/>
    <rect x="1818.01" y="865" width="21" height="8"/>
    <rect x="1360.01" y="985" width="21" height="8"/>
    <rect x="1818.01" y="985" width="21" height="8"/>
    <rect x="1360" y="636.8" width="21" height="8"/>
    <rect x="1360" y="526.8" width="21" height="8"/>
    <rect x="1360" y="416.8" width="21" height="8"/>
    <rect x="1372.5" y="300.3" width="8" height="21" transform="translate(760.36 1580.34) rotate(-76.83)"/>
    <rect x="1425.5" y="198.3" width="8" height="21" transform="translate(271.06 1071.99) rotate(-45)"/>
    <rect x="1515.5" y="134.3" width="8" height="21" transform="translate(94.6 692.09) rotate(-26.45)"/>
    <rect x="1818.75" y="746.8" width="21" height="8"/>
    <rect x="1818.75" y="636.8" width="21" height="8"/>
    <rect x="1818.75" y="526.8" width="21" height="8"/>
    <rect x="1818.75" y="416.8" width="21" height="8"/>
    <rect x="1812.75" y="306.8" width="21" height="8" transform="translate(-22.87 423.46) rotate(-13.17)"/>
    <rect x="1759.75" y="204.8" width="21" height="8" transform="translate(370.75 1312.79) rotate(-45)"/>
    <rect x="1669.75" y="140.8" width="21" height="8" transform="translate(850.57 1613.08) rotate(-65.46)"/>
    <rect x="1380" y="849.8" width="8" height="15"/>
    <rect x="1490.01" y="1001" width="8" height="19"/>
    <rect x="1380.01" y="1001" width="8" height="19"/>
    <rect x="1813.01" y="1001" width="8" height="19"/>
    <rect x="1600.01" y="1002" width="8" height="18"/>
    <rect x="1710.01" y="1002" width="8" height="18"/>
    <rect x="1813" y="849.8" width="8" height="15"/>
    <rect x="1601.01" y="716" width="8" height="286"/>
    <rect class="cls-5" x="536.99" y="989" width="20" height="32" transform="translate(1093.98 2010) rotate(-180)"/>
    <rect class="cls-5" x="82.99" y="989" width="20" height="32" transform="translate(185.98 2010) rotate(-180)"/>
    <polyline class="cls-5" points="220.99 454.25 105.15 566.31 103.09 844.75 102.99 986 272.99 484 220.99 454.25"/>
    <path class="cls-5" d="M178,357.8H105s-1-98,62-148l53,51S177,311.8,178,357.8Z"/>
    <path class="cls-5" d="M315,223.8s53,4,91,39l61-61s-28-30-74-46-79-12-79-12Z"/>
    <path class="cls-5" d="M535,358.8l-86-1s-2,55-40,93l125,127Z"/>
    <polygon class="cls-5" points="535.99 1000 314.99 1002 316.99 627 391.99 585 535.99 1000"/>
    <path class="cls-5" d="M315,223.8s-76,8-95,37l14,15s38-33,78-30Z"/>
    <path class="cls-5" d="M198,356.8l-17-1s-7,47,37,96l14-8S201,399.8,198,356.8Z"/>
    <polygon class="cls-5" points="393 438.8 367 458.8 374 474.8 409 450.8 393 438.8"/>
    <path class="cls-5" d="M406,262.8l-14,14s33,28,34,80h19S439,284.8,406,262.8Z"/>
    <path class="cls-6" d="M177.3,354.85H105.22V570.23L218,451.8S176.6,412.9,177.3,354.85Z"/>
    <path class="cls-6" d="M278.14,358.42c-.81-.58-78.14-.62-78.14-.62s1.14,61.62,33.14,80.62C233.14,438.42,306.14,378.42,278.14,358.42Z"/>
    <path class="cls-6" d="M312,245.8l2,43-35,28-45-41S274,240.8,312,245.8Z"/>
    <path class="cls-6" d="M394.24,278.07l-31.68,29.07,2.58,53.28L426,356.8S432.22,316.51,394.24,278.07Z"/>
    <path class="cls-6" d="M406,262.8l-14,14s-35-36-80-31l3-22S387,231.8,406,262.8Z"/>
    <path class="cls-6" d="M426,356.8s7,44-33,82l15.7,14.77S447,418.8,445,356.8Z"/>
    <path class="cls-6" d="M410,263.8s36,40,38,91h86s-2-56-14-77-45-77-53-76Z"/>
    <path class="cls-6" d="M311,224.89S256,230.8,220,260.8l-53-55s60-60,143-63Z"/>
    <path class="cls-6" d="M231,278.8s-33,41-31,79l-19-2s2.59-64.36,40.8-91.68Z"/>
    <path class="cls-5" d="M314.8,426.26l-33.66-26.84s-37.85,18-46,41l34,27Z"/>
    <path class="cls-5" d="M367.5,301.82l24.5-25s-20.09-23.91-54-27.45-21.91-4.59-21.91-4.59l-2.05,44s15,1.2,17,2.2S367.5,301.82,367.5,301.82Z"/>
    <path class="cls-5" d="M364.14,357.42l62.46,2.48S423,414.8,393,438.8l-36.86-36.38Z"/>
    <path class="cls-5" d="M262.75,360.8l-62.46-2.47s3.61-54.91,33.61-78.91l36.85,36.38Z"/>
    <polygon class="cls-6" points="353.14 401.42 393 438.8 377.64 451.54 353.14 443.42 353.14 401.42"/>
    <polygon class="cls-6" points="409 453.8 534 577.8 535 845.8 533.99 988 410 629.8 390.99 580 415.99 561 429 534.8 389 493.8 389 468.8 409 453.8"/>
    <polygon class="cls-6" points="236.12 577.99 102.99 999 312.99 1001 314.99 645 236.12 577.99"/>
    <polygon class="cls-6" points="271 466.8 242 448.8 232.14 439.42 224.2 457.57 264 482.8 271 466.8"/>
    <polygon class="cls-5" points="272 463.8 249 451.8 263 446.8 272 463.8"/>
    <polygon class="cls-5" points="277 466.8 271 472.8 274 478.8 282 474.8 277 466.8"/>
    <path d="M313,495.8c-75.54,0-137-61.46-137-137s61.46-137,137-137,137,61.46,137,137S388.54,495.8,313,495.8Zm0-266a129,129,0,1,0,129,129A129.15,129.15,0,0,0,313,229.8Z"/>
    <path d="M313,476.23A117.43,117.43,0,1,1,430.43,358.8,117.56,117.56,0,0,1,313,476.23Zm0-228A110.57,110.57,0,1,0,423.57,358.8,110.69,110.69,0,0,0,313,248.23Z"/>
    <rect x="309.5" y="140.8" width="8" height="217.5"/>
    <rect x="280.95" y="276.1" width="219" height="8" transform="translate(-83.7 358.13) rotate(-45)"/>
    <rect x="312.25" y="353.05" width="223.75" height="8"/>
    <rect x="420.57" y="311.37" width="8" height="315.52" transform="translate(-207.37 437.62) rotate(-45)"/>
    <rect x="237.3" y="177.25" width="8" height="211.22" transform="translate(-129.33 253.47) rotate(-45)"/>
    <rect x="104" y="353.05" width="212.75" height="8"/>
    <rect x="58.14" y="460.31" width="302.08" height="8.13" transform="translate(-267.08 283.88) rotate(-45)"/>
    <rect x="-126.49" y="669.66" width="668.33" height="8" transform="translate(-497.13 659.88) rotate(-71.75)"/>
    <rect x="419.81" y="337.43" width="8" height="673.45" transform="translate(-198.83 177.74) rotate(-19.28)"/>
    <rect x="267.5" y="465.8" width="8" height="382"/>
    <rect x="267" y="148.8" width="8" height="84"/>
    <rect x="225" y="520.18" width="8" height="479.82"/>
    <rect x="269" y="520.18" width="8" height="479.82"/>
    <rect x="352" y="520.18" width="8" height="479.82"/>
    <rect x="398" y="520.18" width="8" height="479.82"/>
    <rect x="225" y="163.8" width="8" height="92"/>
    <rect x="182.5" y="402" width="8" height="598"/>
    <rect x="182" y="186.8" width="8" height="130"/>
    <rect x="140" y="229.8" width="8" height="770.2"/>
    <rect x="487.5" y="227" width="8" height="773"/>
    <rect x="443" y="184.8" width="8" height="815.2"/>
    <rect x="399" y="156.8" width="8" height="103"/>
    <rect x="399" y="457.8" width="8" height="103"/>
    <rect x="352" y="142.8" width="8" height="88"/>
    <rect class="cls-5" x="80" y="749.8" width="23" height="117" transform="translate(183 1616.6) rotate(-180)"/>
    <rect class="cls-6" x="80" y="643.8" width="23" height="107" transform="translate(183 1394.6) rotate(-180)"/>
    <rect class="cls-6" x="80" y="420.8" width="23" height="107" transform="translate(183 948.6) rotate(-180)"/>
    <rect class="cls-5" x="80" y="531.8" width="23" height="107" transform="translate(183 1170.6) rotate(-180)"/>
    <rect class="cls-6" x="536" y="643.8" width="23" height="107" transform="translate(1095 1394.6) rotate(-180)"/>
    <rect class="cls-6" x="102.99" y="999" width="104" height="22" transform="translate(309.98 2020) rotate(-180)"/>
    <rect class="cls-5" x="209.99" y="999" width="104" height="22" transform="translate(523.98 2020) rotate(-180)"/>
    <rect class="cls-5" x="319.99" y="999" width="104" height="22" transform="translate(743.98 2020) rotate(-180)"/>
    <rect class="cls-5" x="488" y="798.8" width="114" height="22" transform="translate(1354.8 264.8) rotate(90)"/>
    <rect class="cls-6" x="487.99" y="917" width="114" height="22" transform="translate(1472.99 383.01) rotate(90)"/>
    <rect class="cls-6" x="34.99" y="917" width="114" height="22" transform="translate(1019.99 836.01) rotate(90)"/>
    <rect class="cls-5" x="488" y="574.8" width="114" height="22" transform="translate(1130.8 40.8) rotate(90)"/>
    <rect class="cls-6" x="487" y="464.8" width="114" height="22" transform="translate(1019.8 -68.2) rotate(90)"/>
    <rect class="cls-6" x="426.99" y="999" width="109" height="22" transform="translate(962.98 2020) rotate(-180)"/>
    <polygon class="cls-5" points="103 420.8 80 420.8 83 324.8 90 307.8 106 312.8 102 368.8 103 420.8"/>
    <path class="cls-5" d="M553,307.8l-21,8s2.52,80.16,5.26,105.08L561,420.8Z"/>
    <polygon class="cls-6" points="501 198.8 483.39 217.86 512 258.8 532 315.8 553 307.8 541 267.8 520 228.8 501 198.8"/>
    <polygon class="cls-5" points="501 198.8 463 167.8 406 135.8 396.27 155.48 446.28 184.52 479.08 213.56 488.76 211.4 501 198.8"/>
    <polygon class="cls-6" points="406 135.8 354 120.8 289 122.8 236 134.8 243.29 157.05 306.16 142.63 359.23 146.67 393 155.8 406 135.8"/>
    <path class="cls-5" d="M245,153.8l-9-19-67,39-30,29,16.26,14.75S191,169.8,245,153.8Z"/>
    <path class="cls-6" d="M139,202.8l16,15-18.12,25.66S106,287.8,106,312.8l-16-5,11-49Z"/>
    <path d="M561.5,1027H77.5V357.3a242,242,0,1,1,484,0Zm-476-8h468V357.3a234,234,0,0,0-468,0Z"/>
    <path d="M540,1004H99V359.5a220.5,220.5,0,1,1,441,0Zm-433-8H532V359.5C532,242.33,436.67,147,319.5,147S107,242.33,107,359.5Z"/>
    <rect x="539" y="746.8" width="21" height="8"/>
    <rect x="538.99" y="865" width="21" height="8"/>
    <rect x="80.99" y="865" width="21" height="8"/>
    <rect x="538.99" y="985" width="21" height="8"/>
    <rect x="80.99" y="985" width="21" height="8"/>
    <rect x="539" y="636.8" width="21" height="8"/>
    <rect x="539" y="526.8" width="21" height="8"/>
    <rect x="539" y="416.8" width="21" height="8"/>
    <rect x="533" y="306.8" width="21" height="8" transform="translate(-56.51 131.96) rotate(-13.17)"/>
    <rect x="480" y="204.8" width="21" height="8" transform="translate(-3.98 407.99) rotate(-45)"/>
    <rect x="390" y="140.8" width="21" height="8" transform="translate(92.45 438.87) rotate(-63.55)"/>
    <rect x="80.25" y="746.8" width="21" height="8"/>
    <rect x="80.25" y="636.8" width="21" height="8"/>
    <rect x="80.25" y="526.8" width="21" height="8"/>
    <rect x="80.25" y="416.8" width="21" height="8"/>
    <rect x="92.75" y="300.3" width="8" height="21" transform="translate(-227.92 334.23) rotate(-76.84)"/>
    <rect x="145.75" y="198.3" width="8" height="21" transform="translate(-103.79 167.05) rotate(-45)"/>
    <rect x="235.75" y="134.3" width="8" height="21" transform="translate(-38.49 112.68) rotate(-24.55)"/>
    <rect x="532" y="849.8" width="8" height="15" transform="translate(1072 1714.6) rotate(-180)"/>
    <rect x="421.99" y="1001" width="8" height="19" transform="translate(851.98 2021) rotate(-180)"/>
    <rect x="531.99" y="1001" width="8" height="19" transform="translate(1071.98 2021) rotate(-180)"/>
    <rect x="98.99" y="1001" width="8" height="19" transform="translate(205.98 2021) rotate(-180)"/>
    <rect x="311.99" y="1002" width="8" height="18" transform="translate(631.98 2022) rotate(-180)"/>
    <rect x="201.99" y="1002" width="8" height="18" transform="translate(411.98 2022) rotate(-180)"/>
    <rect x="99" y="849.8" width="8" height="15" transform="translate(206 1714.6) rotate(-180)"/>
    <rect x="310.99" y="716" width="8" height="286"/>
  </g>
  <g id="Layer_6" data-name="Layer 6">
    <path class="cls-7" d="M1044.68,529.19l107,149s95-70,121-164l-172-58S1079.68,512.19,1044.68,529.19Z"/>
    <path class="cls-8" d="M1096.74,453.22l173.51,59.52s36.92-112.08,3.69-203.77l-173.82,52.31S1115.43,419.09,1096.74,453.22Z"/>
    <path class="cls-7" d="M1098.92,364.3l174.45-56.71s-37.86-111.77-119.53-165.08L1046.36,288.79S1093.34,325.8,1098.92,364.3Z"/>
    <path class="cls-8" d="M1042.33,291.65l109.39-147.26s-95.58-69.2-193-65.38l-2.92,181.5S1015.49,263.48,1042.33,291.65Z"/>
    <path class="cls-7" d="M959.68,262.16,959,78.72s-118,1.87-193.71,63.33l106.4,147.06S921.32,255.69,959.68,262.16Z"/>
    <path class="cls-7" d="M872,527.72,762.65,675s95.58,69.2,193,65.37l2.93-181.49S898.88,555.89,872,527.72Z"/>
    <path class="cls-8" d="M954.68,557.21l.66,183.44s118-1.87,193.72-63.33l-106.4-147.06S993.05,563.68,954.68,557.21Z"/>
    <path class="cls-8" d="M873.2,290.82,766.45,141.64s-95.12,69.85-121.27,163.81l171.91,58.28S838.18,307.76,873.2,290.82Z"/>
    <path class="cls-7" d="M819.83,362l-175-55.06s-34,113,1.54,203.8L818.8,454S802,396.56,819.83,362Z"/>
    <path class="cls-8" d="M823.74,454,649.19,510.4s37.68,111.83,119.26,165.28L872.68,528.19S829.24,492.49,823.74,454Z"/>
    <path class="cls-8" d="M1032.68,307.19s44,32,45,64l20-8s-17-54-55-72Z"/>
    <path class="cls-7" d="M956.88,288s54.25-4.15,75.75,19.57l10-19.05s-47.94-30.11-88.54-19.19Z"/>
    <path class="cls-8" d="M885.87,307.85s47.36-26.78,76.89-14.43l1-21.52s-56.19-6.91-88.32,20.21Z"/>
    <path class="cls-7" d="M837,368.87s18.7-51.09,49.2-60.82L873,291s-47.27,31.15-54.16,72.63Z"/>
    <path class="cls-7" d="M883.8,513.83s-44-32-45-64l-20,8s17,54,55,72Z"/>
    <path class="cls-8" d="M959.6,533.05s-54.25,4.14-75.75-19.58l-10,19.06s47.94,30.1,88.55,19.18Z"/>
    <path class="cls-7" d="M1030.61,513.18S983.26,540,953.72,527.61l-1,21.51S1008.9,556,1041,528.91Z"/>
    <path class="cls-8" d="M1079.52,452.15s-18.71,51.09-49.21,60.83l13.18,17s47.26-31.16,54.16-72.64Z"/>
    <polygon class="cls-7" points="1078.68 448.19 1097.12 452.08 1099.68 441.19 1083.68 440.19 1078.68 448.19"/>
    <polygon class="cls-8" points="838.68 442.08 820.25 438.19 817.68 449.08 833.68 450.08 838.68 442.08"/>
    <polygon class="cls-7" points="1081 380 1102 428 1101.68 369.19 1085.68 368.19 1081 380"/>
    <polygon class="cls-8" points="840.68 370.08 822.25 366.19 813 401 836 401 840.68 370.08"/>
    <path class="cls-7" d="M972.68,392.19l57-82s35.77,10.45,47.39,57.73l-99.39,33.27Z"/>
    <path class="cls-8" d="M979.76,409.23,1077,371s19.77,32.36,2.35,77.82L978.74,419.47Z"/>
    <path class="cls-7" d="M982.4,418.48l94.34,32.73s-.4,37.26-42.78,61.22l-58.88-86.71Z"/>
    <path class="cls-8" d="M969.91,431.89l58.83,80.7s-21.58,30.38-70.06,25.89l1.08-104.81Z"/>
    <path class="cls-7" d="M960.44,434.74l-4.61,99.76S920,544.69,885,510.86l66.42-81.07Z"/>
    <path class="cls-8" d="M944,426.57l-60.68,79.32s-35.25-12.07-44.7-59.82l100.79-28.71Z"/>
    <path class="cls-7" d="M932.12,425.22l-97.4,22.07s-19.35-31.85,4-74.58l95.8,42.5Z"/>
    <path class="cls-8" d="M935.63,407.24l-92.58-37.43s2.27-37.2,45.8-59l54.45,89.55Z"/>
    <path class="cls-7" d="M944.91,391.7,885,311.81s21.17-30.67,69.69-26.84L955,389.78Z"/>
    <path class="cls-8" d="M962.77,387.56l-3.66-99.8s34.88-13.12,72.55,17.71l-59.49,86.28Z"/>
    <path class="cls-7" d="M748.61,480.92l75.07,110.27-16.56,20.18S764,710,740,653.36h0s-81.93-81.14-93.62-142.66h0l102.23-29.78"/>
    <polygon class="cls-8" points="895.68 494.19 959.68 521.19 956.68 581.19 915 570 858 549 895.68 494.19"/>
    <path class="cls-8" d="M645.51,310.14l26.17,10.05,5.58,180-32.87,7.85S610.34,391.08,645.51,310.14Z"/>
    <path class="cls-8" d="M764.76,146.54l15,15.8,177.09-52.1-2.14-32s-69.83,5.5-95.41,16.25-77.43,31.46-94.51,52.1"/>
    <path class="cls-7" d="M954.68,143.19l150,59L1149,141s-32.62-29.4-85.45-44.58S958.94,82.21,958.94,82.21Z"/>
    <path class="cls-7" d="M1243.68,318.19l29.77-7.19s38.32,87.3-.22,200.25h0l-33.55-12.06,4-181"/>
    <path class="cls-8" d="M1174.45,484.31,1088.28,595l9.37,10.28S1129.11,637.53,1159,675c0,0,104.68-100.81,116.68-163.81h0l-101.23-26.88"/>
    <path d="M959.69,559.94c-82.72,0-150-67.29-150-150s67.28-150,150-150,150,67.29,150,150S1042.4,559.94,959.69,559.94Zm0-292c-78.3,0-142,63.7-142,142s63.7,142,142,142,142-63.7,142-142S1038,267.94,959.69,267.94Z"/>
    <path d="M959.69,539.94a130,130,0,1,1,0-260c71.68,0,130,58.32,130,130S1031.37,539.94,959.69,539.94Zm0-252a122,122,0,1,0,122,122A122.13,122.13,0,0,0,959.69,287.94Z"/>
    <path d="M959.69,743.94A334,334,0,0,1,723.51,173.77a334,334,0,0,1,472.35,472.35A331.83,331.83,0,0,1,959.69,743.94Zm0-660A326,326,0,0,0,729.17,640.46a326,326,0,0,0,461-461A323.87,323.87,0,0,0,959.69,83.94Z"/>
    <rect x="952.69" y="79.94" width="8" height="660"/>
    <rect x="952.69" y="79.94" width="8" height="660"/>
    <rect x="952.68" y="79.94" width="8" height="660" transform="translate(-58.25 640.62) rotate(-36)"/>
    <rect x="952.68" y="79.94" width="8" height="660" transform="translate(271.17 1193.12) rotate(-72)"/>
    <rect x="626.68" y="405.94" width="660" height="8" transform="translate(-79.85 315.64) rotate(-18)"/>
    <rect x="626.69" y="405.94" width="660" height="8" transform="translate(62.67 942.88) rotate(-54)"/>
    <g>
      <line class="cls-9" x1="1089.47" y1="592.73" x2="1173.68" y2="482.19"/>
      <rect x="1062.1" y="533.46" width="138.96" height="8" transform="translate(18.31 1111.89) rotate(-52.7)"/>
    </g>
    <rect x="1151.28" y="406.35" width="184.68" height="8" transform="translate(815.09 1647.83) rotate(-89.16)"/>
    <rect x="1104.78" y="240.76" width="8" height="122.46" transform="translate(67.51 788.14) rotate(-40.26)"/>
    <rect x="1028.6" y="96.67" width="8" height="158.16" transform="translate(489.58 1071.45) rotate(-68.43)"/>
    <rect x="765.16" y="310.76" width="107.74" height="8" transform="translate(17.32 671.33) rotate(-45)"/>
    <rect x="772.2" y="131.11" width="189.18" height="8" transform="translate(-1.34 261.3) rotate(-17.13)"/>
    <rect x="841.06" y="237.92" width="91.46" height="8" transform="translate(-29.87 310.19) rotate(-19.52)"/>
    <rect x="672.72" y="318.14" width="8" height="184.42" transform="matrix(1, -0.03, 0.03, 1, -13.15, 22.51)"/>
    <rect x="782.23" y="465.65" width="8" height="138.13" transform="translate(-164.47 550.53) rotate(-35.17)"/>
    <rect x="903.82" y="514.53" width="8" height="104.79" transform="translate(62.53 1223.45) rotate(-69.82)"/>
    <g>
      <circle class="cls-10" cx="957.68" cy="406.19" r="29"/>
      <path d="M957.69,439.19a33,33,0,1,1,33-33A33,33,0,0,1,957.69,439.19Zm0-58a25,25,0,1,0,25,25A25,25,0,0,0,957.69,381.19Z"/>
    </g>
    <polygon class="cls-5" points="1523.92 452.65 1549.92 472.65 1542.92 488.65 1507.92 464.65 1523.92 452.65"/>
    <polygon class="cls-6" points="1645.92 480.65 1674.92 462.65 1689.68 460.29 1692.72 471.42 1652.92 496.65 1645.92 480.65"/>
    <polygon class="cls-5" points="1644.92 477.65 1667.92 465.65 1653.92 460.65 1644.92 477.65"/>
    <polygon class="cls-5" points="396.08 452.65 370.08 472.65 377.08 488.65 412.08 464.65 396.08 452.65"/>
    <polygon class="cls-6" points="274.08 480.65 245.08 462.65 230.31 460.29 227.28 471.42 267.08 496.65 274.08 480.65"/>
    <polygon class="cls-5" points="275.08 477.65 252.08 465.65 266.08 460.65 275.08 477.65"/>
  </g>
  <g id="Layer_1" data-name="Layer 1">
    <g>
      <path class="cls-9" d="M927.58,868s-1,50-28,71l24,5s18-23,18-37c0,0-2,30-8,38h14s8-24,8-34v34l11-2s7-20,4-32l2,31,13-7s0-19-3-23l7,22,8-2s-5-54-31-70"/>
      <path d="M947.58,949h-14l-3.2-6.4a15.27,15.27,0,0,0,1.92-3.93c-3,4.56-5.43,7.62-5.57,7.79l-4,1.46-24-5-1.64-7.08c25.16-19.56,26.45-67.44,26.46-67.92l8,.16c0,2-1.17,44.79-23.54,68.6l13.88,2.89c5-6.8,14.05-20.69,15.47-30.18.08-.93.15-1.82.2-2.66l8,.27a22.93,22.93,0,0,1-.23,3.23c-.55,6.48-2.1,21.19-5.44,30.77h4.77c2.52-8,6.9-23.23,6.9-30h8v29.21l3.94-.72a89.58,89.58,0,0,0,3.7-18.58l-.63-9.65,7.88-1.23a37,37,0,0,1,.76,10.86l.95,14.63,5.38-2.9a110.52,110.52,0,0,0-1.07-14l-1.72-5.4,7-3.61c1.11,1.48,1.9,4,2.46,7l4,12.61.93-.24c-1.59-11.81-8.32-51-28.7-63.56l4.19-6.82c11.66,7.18,20.74,21.74,27,43.29a176.54,176.54,0,0,1,5.89,29.75l-3,4.25-8,2-2-1.13-1.06,1.77-13,7-3.81-2.11-.31.91-3.06,2.62-11,2-4.55-3.8c-.2.62-.33,1-.37,1.12Z"/>
    </g>
    <g>
      <path class="cls-9" d="M880.58,827l-13-7s-10-19-1-25c0,0-19,9-24,7l-15-15s20,4,38-12c0,0-47-2-58-11l-21-36s30,19,64,15c0,0-64-21-73-35l-13-40s45,39,74,39c0,0-57-35-77-58l-2-36s39,47,63,53c0,0-60-65-63-80,0,0-5-34,8-53,0,0,48,94,112,128S941,775,941,775"/>
      <path d="M878.69,830.52l-13-7-1.64-1.66c-.79-1.5-5.49-10.79-5.23-19.16-6.69,2.56-13.94,4.53-17.72,3l-1.34-.88-15-15,3.61-6.75A41.64,41.64,0,0,0,854,778.27c-15.16-1.22-40.47-4.24-49-11.17l-.92-1.08-21-36,5.6-5.4a113.9,113.9,0,0,0,36.1,13.4c-19.68-7.59-44.71-18.67-50.61-27.86l-.44-.92-13-40L767.2,665c.33.28,24.66,21.21,48.29,31.89C797,684.47,771,666,758.57,651.62l-1-2.4-2-36,7.07-2.77c.29.34,21.14,25.32,41.06,40.61-18.39-20.8-45.86-53.31-48.06-64.28l0-.2c-.22-1.45-5.07-35.78,8.65-55.84l6.87.44c.47.93,48.18,93.28,110.31,126.29,27.13,14.41,46.72,39.35,56.66,72.12A154.89,154.89,0,0,1,945,775.13l-8-.26a149.83,149.83,0,0,0-6.61-43.2c-9.46-31-27.18-53.59-52.68-67.14-27.09-14.39-54.47-40.61-81.37-77.94a472.21,472.21,0,0,1-28.77-45.21c-7.46,17.39-4.29,42.11-4,43.94,2.24,10.3,39.17,53.24,62,78l-3.91,6.59c-10.65-2.66-24.89-12.68-42.33-29.77-5.88-5.78-11.1-11.35-15.06-15.72l1.28,23c20.15,22.29,74.62,55.86,75.18,56.2l-2.1,7.41c-21.6,0-50.64-19.7-66-31.46l8.67,26.68c6.83,9.38,46.73,25.14,70.62,33l-.78,7.77c-21.83,2.57-41.84-3.82-54.13-9.18l13.72,23.51c8.11,5.7,37.85,9,55.11,9.7l2.49,7a52.17,52.17,0,0,1-30.71,13.3l7.05,7.05h.06c3,0,12-3.05,20.23-7l3.93,7c-4.17,2.78-.78,13.33,1.8,18.75l11.88,6.4Z"/>
    </g>
    <g>
      <path class="cls-9" d="M802.58,909s13-34,57-40,101,5,146-23c0,0-6.5-10.5-4.5-22.5,0,0,13,14,24,15l22-13s-24-7-29-21c0,0,37,11,47,11,0,0,26-20,31-30,0,0-44,1-66-10,0,0,83-16,90-22l15-31s-88,22-101,20c0,0,87-29,109-48l7-28s-78,45-117,51c0,0,83-34,126-88,0,0,8-34-6-79,0,0-61,101-150,121s11,80-151,175c0,0-40-23-48,26C804.08,872.5,785.08,894.5,802.58,909Z"/>
      <path d="M800,912.08c-5.29-4.39-8.24-9.8-8.77-16.1-1-11.4,6.6-22.05,9.06-25.19,2.78-15.84,9.21-26.26,19.11-31,12.79-6.08,27.18-.45,32.52,2.11,88.26-52.27,95.75-93,101.24-122.85,4.34-23.59,7.77-42.22,49-51.49,44.94-10.1,82.57-41.86,106.23-66.72a345,345,0,0,0,41.22-52.45l7.24.88c14.17,45.52,6.42,79.67,6.08,81.11l-.77,1.57c-20.83,26.17-50.5,47.54-76,62.8,31.59-14.36,61.4-31.48,61.88-31.75l5.88,4.43-7,28-1.27,2.06c-12.76,11-45.79,25-72.43,35.14,19.65-4.09,42.91-9.57,60.85-14l4.57,5.62-15,31-1,1.3c-6,5.09-50.74,14.69-77.5,20.06,21.84,5.47,50.46,4.91,50.8,4.9l3.67,5.79c-5.26,10.52-29.4,29.28-32.14,31.38l-2.44.83c-6.91,0-24.57-4.54-36.56-7.85,6.48,5.24,15.52,8.79,19.69,10l.91,7.28-22,13-2.4.54c-7.09-.64-14.46-5.53-19.65-9.81A34.32,34.32,0,0,0,1009,843.9l-1.29,5.5c-32.21,20-70.79,20.69-104.84,21.26-15.19.26-29.54.5-42.73,2.3-41,5.59-53.31,36.18-53.81,37.48Zm32.09-67a21.36,21.36,0,0,0-9.29,2c-7.59,3.62-12.56,12.39-14.8,26.07l-.92,2c-.08.1-8.72,10.31-7.87,20.24a13.85,13.85,0,0,0,2.32,6.68c5.88-10.41,22.18-32.18,57.48-37,13.67-1.87,28.25-2.11,43.68-2.37,33.44-.57,68-1.15,97.61-18.19-2-4.48-4.69-12.63-3.19-21.64l6.88-2.06c3.16,3.4,12.66,12.09,20.23,13.56l13.6-8c-8.12-3.55-19.89-10.26-23.53-20.46l4.9-5.18c9.64,2.86,35.4,10.06,44.57,10.77,6-4.7,17.79-14.47,24.46-22-13.94-.25-42.87-1.86-60-10.4l1-7.51c38.53-7.43,80.86-17,87.62-20.77l10.83-22.38c-23.1,5.64-82.86,19.79-94.3,18l-.66-7.74c.85-.29,84.06-28.15,106.7-46.44l4.43-17.73c-21.16,11.73-78,42-110.26,46.91l-2.12-7.65c.81-.34,81.78-33.93,123.79-86,1-5,5.48-32.22-3.71-67.69a367.49,367.49,0,0,1-37.29,46.2c-24.45,25.72-63.44,58.59-110.4,69.14-36.09,8.11-38.66,22.05-42.9,45.14-2.81,15.27-6.31,34.27-20.87,56.1-16.83,25.23-45,49.21-86.08,73.31l-4,0C850,849.91,841.42,845.11,832.12,845.11Z"/>
    </g>
    <g>
      <path class="cls-11" d="M818.58,867s-3-14,20-15c0,0-10,6-11,14S818.58,867,818.58,867Z"/>
      <path d="M824.44,873.83c-3.77,0-7.33-2.8-8.49-3.82l-1.28-2.17a14.79,14.79,0,0,1,2.92-11.59c3.9-5,10.9-7.82,20.82-8.25l2.23,7.43c-2.31,1.4-8.47,6.13-9.09,11.07-.55,4.45-2.83,6.2-4.64,6.89A6.93,6.93,0,0,1,824.44,873.83Zm-2-8.92a9.07,9.07,0,0,0,1.14.64v0a16.88,16.88,0,0,1,2-6A8.56,8.56,0,0,0,824,861,7,7,0,0,0,822.47,864.91Z"/>
    </g>
    <g>
      <line class="cls-11" x1="761.56" y1="922.14" x2="735" y2="990"/>
      <rect x="711.84" y="952.07" width="72.88" height="8" transform="translate(-414.75 1304.41) rotate(-68.62)"/>
    </g>
    <g>
      <line class="cls-11" x1="761" y1="922.14" x2="787.56" y2="990"/>
      <rect x="770.28" y="919.63" width="8" height="72.88" transform="translate(-295.16 347.9) rotate(-21.37)"/>
    </g>
    <g>
      <path class="cls-12" d="M789,992a28,28,0,0,1-56,0Z"/>
      <path d="M761,1024a32,32,0,0,1-32-32v-4h64v4A32,32,0,0,1,761,1024Zm-23.67-28a24,24,0,0,0,47.34,0Z"/>
    </g>
    <g>
      <path class="cls-12" d="M803.92,921l76.53-8.51-1.11-9.94s-35.66,5-51.24.67S802.93,912,802.93,912s-12.26-10.71-26.51-3.08-50.13,10.6-50.13,10.6l1.1,9.94Z"/>
      <path d="M723.86,933.88l-2-18,4.1-.34c.35,0,35.23-3,48.58-10.15,12-6.43,22.66-1.86,27.8,1.3,4.31-4.21,13.7-11,26.83-7.38,14.59,4,49.27-.73,49.62-.77l4.07-.57,2,18Zm6.85-10.76.22,1.92,71.73-8-2.36-2c-.41-.35-10.44-8.76-22-2.58C766.29,918.87,740.72,922.07,730.71,923.12Zm91.2-16.81c-9.62,0-15.48,7.69-15.76,8.07l-1.87,2.5,71.75-8-.21-1.92c-10,1.18-35.65,3.67-48.78,0A19.17,19.17,0,0,0,821.91,906.31Z"/>
    </g>
    <g>
      <line class="cls-11" x1="844.44" y1="916.14" x2="871" y2="984"/>
      <rect x="853.72" y="913.63" width="8" height="72.88" transform="translate(-287.24 377.89) rotate(-21.37)"/>
    </g>
    <g>
      <line class="cls-11" x1="845" y1="916.14" x2="818.44" y2="984"/>
      <rect x="795.28" y="946.07" width="72.88" height="8" transform="translate(-356.14 1378.3) rotate(-68.62)"/>
    </g>
    <g>
      <path class="cls-12" d="M817,986a28,28,0,0,0,56,0Z"/>
      <path d="M845,1018a32,32,0,0,1-32-32v-4h64v4A32,32,0,0,1,845,1018Zm-23.67-28a24,24,0,0,0,47.34,0Z"/>
    </g>
  </g>
  <g id="Layer_5" data-name="Layer 5">
    <path class="cls-13" d="M849,233s1-51,50-51,195,2,195,2,40,57-44,214l-7,83,13,35,50-1s-12,42-41,43-189-2-189-2-57-38-43-101,5-55,5-55l63-167Z"/>
    <polygon class="cls-13" points="1569.01 442 1546.01 422 1557.01 319 1540.01 298 1548.01 290 1561.01 302 1595.01 288 1650.01 302 1665.01 294 1669.01 299 1655.01 372 1670.01 384 1670.01 407 1661.01 417 1668.01 425 1659.01 441 1609.01 433 1569.01 442"/>
    <path class="cls-14" d="M1554.3,430.31,1495,471l-1,84,40,42-8,73s115,16,155-3l-3-73,40-40-1-88-51.88-31-6.12,6-50-8-40,9-14.71-11.69"/>
    <path class="cls-15" d="M1584,647s7-22,19-20,28,38,28,38l-25.47,13.36Z"/>
    <polygon class="cls-16" points="1544.83 671.25 1544.01 894 1588.01 910 1604.01 737 1622.01 911 1666.01 892 1666.44 670.67 1606.01 678 1544.83 671.25"/>
    <path class="cls-9" d="M1552.9,894.88,1553,927s-42,40-38,58,63-45,63-45l3.71-33.59Z"/>
    <path class="cls-9" d="M1657.67,893.88l-.11,32.12s42,40,38,58-63-45-63-45l-3.71-33.59Z"/>
    <polygon class="cls-13" points="350.99 442 373.99 422 362.99 319 379.99 298 371.99 290 358.99 302 324.99 288 269.99 302 254.99 294 250.99 299 264.99 372 249.99 384 249.99 407 258.99 417 251.99 425 260.99 441 310.99 433 350.99 442"/>
    <path class="cls-14" d="M365.7,430.31,425,471l1,84-40,42,8,73s-115,16-155-3l3-73-40-40,1-88,51.88-31,6.12,6,50-8,40,9,14.71-11.69"/>
    <path class="cls-15" d="M336,647s-7-22-19-20-28,38-28,38l25.47,13.36Z"/>
    <polygon class="cls-16" points="375.17 671.25 375.99 894 331.99 910 315.99 737 297.99 911 253.99 892 253.56 670.67 313.99 678 375.17 671.25"/>
    <path class="cls-9" d="M367.1,894.88,367,927s42,40,38,58-63-45-63-45l-3.71-33.59Z"/>
    <path class="cls-9" d="M262.33,893.88l.11,32.12s-42,40-38,58,63-45,63-45l3.71-33.59Z"/>
  </g>
  <g id="Layer_3" data-name="Layer 3">
    <path class="cls-13" d="M1608,0h-12.92c-.31,2.87,1.41,6.8,4.7,10.1,4.49,4.49,10.19,6.07,12.73,3.53s1-8.24-3.54-12.73C1608.62.59,1608.3.29,1608,0Z"/>
    <path class="cls-13" d="M312,0c-.33.29-.65.59-1,.9-4.49,4.49-6.07,10.19-3.54,12.73s8.24,1,12.73-3.53c3.29-3.3,5-7.23,4.7-10.1Z"/>
    <g>
      <path class="cls-13" d="M1629,435c4.49,4.49,7,6.09,4.47,8.63s-8.24,1-12.73-3.53"/>
      <path d="M1630.17,448.85c-3.88,0-8.38-2.06-12.25-5.93l5.66-5.65a12.64,12.64,0,0,0,5.54,3.44l-1.1-1.08c-.56-.55-1.18-1.14-1.84-1.8l5.66-5.66c.62.63,1.21,1.19,1.75,1.72,2.72,2.64,4.87,4.72,4.9,7.74a6.67,6.67,0,0,1-2.19,4.83A8.44,8.44,0,0,1,1630.17,448.85Z"/>
    </g>
    <g>
      <ellipse class="cls-13" cx="1604.34" cy="19.5" rx="6.5" ry="11.5" transform="translate(456.11 1140.15) rotate(-45)"/>
      <path d="M1609.17,32.85c-3.88,0-8.38-2.06-12.25-5.93-6.25-6.24-7.77-14.15-3.54-18.38s12.14-2.71,18.39,3.54a20.84,20.84,0,0,1,5.43,8.85c1,3.8.36,7.27-1.9,9.53h0A8.44,8.44,0,0,1,1609.17,32.85Zm-10.12-18.64c-.29.75.31,3.84,3.53,7.06s6.3,3.82,7.06,3.52c.29-.75-.31-3.84-3.53-7.06S1599.81,13.91,1599.05,14.21Z"/>
    </g>
    <g>
      <ellipse class="cls-13" cx="1604.34" cy="32.5" rx="6.5" ry="11.5" transform="translate(446.92 1143.96) rotate(-45)"/>
      <path d="M1609.17,45.85c-3.88,0-8.38-2.06-12.25-5.93-6.25-6.24-7.77-14.15-3.54-18.38s12.14-2.71,18.39,3.54a20.84,20.84,0,0,1,5.43,8.85c1,3.8.36,7.27-1.9,9.53h0A8.44,8.44,0,0,1,1609.17,45.85Zm-10.12-18.64c-.29.75.31,3.84,3.53,7.06s6.3,3.82,7.06,3.52c.29-.75-.31-3.84-3.53-7.06S1599.81,26.91,1599.05,27.21Z"/>
    </g>
    <g>
      <ellipse class="cls-13" cx="1604.34" cy="46.5" rx="6.5" ry="11.5" transform="translate(437.02 1148.06) rotate(-45)"/>
      <path d="M1609.17,59.85c-3.88,0-8.38-2.06-12.25-5.93-6.25-6.24-7.77-14.15-3.54-18.38s12.14-2.71,18.39,3.54a20.84,20.84,0,0,1,5.43,8.85c1,3.8.36,7.27-1.9,9.53h0A8.44,8.44,0,0,1,1609.17,59.85Zm-10.12-18.64c-.29.75.31,3.84,3.53,7.06s6.3,3.82,7.06,3.52c.29-.75-.31-3.84-3.53-7.06S1599.81,40.91,1599.05,41.21Z"/>
    </g>
    <g>
      <ellipse class="cls-13" cx="1604.34" cy="60.5" rx="6.5" ry="11.5" transform="translate(427.12 1152.16) rotate(-45)"/>
      <path d="M1609.17,73.85c-3.88,0-8.38-2.06-12.25-5.93-6.25-6.24-7.77-14.15-3.54-18.38s12.14-2.71,18.39,3.54a20.84,20.84,0,0,1,5.43,8.85c1,3.8.36,7.27-1.9,9.53h0A8.44,8.44,0,0,1,1609.17,73.85Zm-10.12-18.64c-.29.75.31,3.84,3.53,7.06s6.3,3.82,7.06,3.52c.29-.75-.31-3.84-3.53-7.06S1599.81,54.91,1599.05,55.21Z"/>
    </g>
    <g>
      <ellipse class="cls-13" cx="1604.34" cy="73.5" rx="6.5" ry="11.5" transform="translate(417.93 1155.97) rotate(-45)"/>
      <path d="M1609.17,86.85c-3.88,0-8.38-2.06-12.25-5.93-6.25-6.24-7.77-14.15-3.54-18.38s12.14-2.71,18.39,3.54a20.84,20.84,0,0,1,5.43,8.85c1,3.8.36,7.27-1.9,9.53h0A8.44,8.44,0,0,1,1609.17,86.85Zm-10.12-18.64c-.29.75.31,3.84,3.53,7.06s6.3,3.82,7.06,3.52c.29-.75-.31-3.84-3.53-7.06S1599.81,67.91,1599.05,68.21Z"/>
    </g>
    <g>
      <ellipse class="cls-13" cx="1604.34" cy="88.5" rx="6.5" ry="11.5" transform="translate(407.32 1160.36) rotate(-45)"/>
      <path d="M1609.17,101.85c-3.88,0-8.38-2.06-12.25-5.93-6.25-6.24-7.77-14.15-3.54-18.38s12.14-2.71,18.39,3.54a20.84,20.84,0,0,1,5.43,8.85c1,3.8.36,7.27-1.9,9.53h0A8.44,8.44,0,0,1,1609.17,101.85Zm-10.12-18.64c-.29.75.31,3.84,3.53,7.06s6.3,3.82,7.06,3.52c.29-.75-.31-3.84-3.53-7.06S1599.81,82.91,1599.05,83.21Z"/>
    </g>
    <g>
      <ellipse class="cls-13" cx="1604.34" cy="102.5" rx="6.5" ry="11.5" transform="translate(397.42 1164.46) rotate(-45)"/>
      <path d="M1609.17,115.85c-3.88,0-8.38-2.06-12.25-5.93-6.25-6.24-7.77-14.15-3.54-18.38s12.14-2.71,18.39,3.54a20.84,20.84,0,0,1,5.43,8.85c1,3.8.36,7.27-1.9,9.53h0A8.44,8.44,0,0,1,1609.17,115.85Zm-10.12-18.64c-.29.75.31,3.84,3.53,7.06s6.3,3.82,7.06,3.52c.29-.75-.31-3.84-3.53-7.06S1599.81,96.91,1599.05,97.21Z"/>
    </g>
    <g>
      <ellipse class="cls-13" cx="1604.34" cy="115.5" rx="6.5" ry="11.5" transform="translate(388.23 1168.27) rotate(-45)"/>
      <path d="M1609.17,128.85c-3.88,0-8.38-2.06-12.25-5.93-6.25-6.24-7.77-14.15-3.54-18.38s12.14-2.71,18.39,3.54a20.84,20.84,0,0,1,5.43,8.85c1,3.8.36,7.27-1.9,9.53h0A8.44,8.44,0,0,1,1609.17,128.85Zm-10.12-18.64c-.29.75.31,3.84,3.53,7.06s6.3,3.82,7.06,3.52c.29-.75-.31-3.84-3.53-7.06S1599.81,109.91,1599.05,110.21Z"/>
    </g>
    <g>
      <ellipse class="cls-13" cx="1604.34" cy="129.5" rx="6.5" ry="11.5" transform="translate(378.33 1172.37) rotate(-45)"/>
      <path d="M1609.17,142.85c-3.88,0-8.38-2.06-12.25-5.93-6.25-6.24-7.77-14.15-3.54-18.38s12.14-2.71,18.39,3.54a20.84,20.84,0,0,1,5.43,8.85c1,3.8.36,7.27-1.9,9.53h0A8.44,8.44,0,0,1,1609.17,142.85Zm-10.12-18.64c-.29.75.31,3.84,3.53,7.06s6.3,3.82,7.06,3.52c.29-.75-.31-3.84-3.53-7.06S1599.81,123.91,1599.05,124.21Z"/>
    </g>
    <g>
      <ellipse class="cls-13" cx="1604.34" cy="143.5" rx="6.5" ry="11.5" transform="translate(368.43 1176.47) rotate(-45)"/>
      <path d="M1609.17,156.85c-3.88,0-8.38-2.06-12.25-5.93-6.25-6.24-7.77-14.15-3.54-18.38s12.14-2.71,18.39,3.54a20.84,20.84,0,0,1,5.43,8.85c1,3.8.36,7.27-1.9,9.53h0A8.44,8.44,0,0,1,1609.17,156.85Zm-10.12-18.64c-.29.75.31,3.84,3.53,7.06s6.3,3.82,7.06,3.52c.29-.75-.31-3.84-3.53-7.06S1599.81,137.91,1599.05,138.21Z"/>
    </g>
    <g>
      <ellipse class="cls-13" cx="1604.34" cy="156.5" rx="6.5" ry="11.5" transform="translate(359.24 1180.28) rotate(-45)"/>
      <path d="M1609.17,169.85c-3.88,0-8.38-2.06-12.25-5.93-6.25-6.24-7.77-14.15-3.54-18.38s12.14-2.71,18.39,3.54a20.84,20.84,0,0,1,5.43,8.85c1,3.8.36,7.27-1.9,9.53h0A8.44,8.44,0,0,1,1609.17,169.85Zm-10.12-18.64c-.29.75.31,3.84,3.53,7.06s6.3,3.82,7.06,3.52c.29-.75-.31-3.84-3.53-7.06S1599.81,150.91,1599.05,151.21Z"/>
    </g>
    <g>
      <ellipse class="cls-13" cx="1604.34" cy="171.5" rx="6.5" ry="11.5" transform="translate(348.63 1184.67) rotate(-45)"/>
      <path d="M1609.17,184.85c-3.88,0-8.38-2.06-12.25-5.93-6.25-6.24-7.77-14.15-3.54-18.38s12.14-2.71,18.39,3.54a20.84,20.84,0,0,1,5.43,8.85c1,3.8.36,7.27-1.9,9.53h0A8.44,8.44,0,0,1,1609.17,184.85Zm-10.12-18.64c-.29.75.31,3.84,3.53,7.06s6.3,3.82,7.06,3.52c.29-.75-.31-3.84-3.53-7.06S1599.81,165.91,1599.05,166.21Z"/>
    </g>
    <g>
      <ellipse class="cls-13" cx="1604.34" cy="185.5" rx="6.5" ry="11.5" transform="translate(338.73 1188.77) rotate(-45)"/>
      <path d="M1609.17,198.85c-3.88,0-8.38-2.06-12.25-5.93-6.25-6.24-7.77-14.15-3.54-18.38s12.14-2.71,18.39,3.54a20.84,20.84,0,0,1,5.43,8.85c1,3.8.36,7.27-1.9,9.53h0A8.44,8.44,0,0,1,1609.17,198.85Zm-10.12-18.64c-.29.75.31,3.84,3.53,7.06s6.3,3.82,7.06,3.52c.29-.75-.31-3.84-3.53-7.06S1599.81,179.91,1599.05,180.21Z"/>
    </g>
    <g>
      <ellipse class="cls-13" cx="1604.34" cy="198.5" rx="6.5" ry="11.5" transform="translate(329.54 1192.58) rotate(-45)"/>
      <path d="M1609.17,211.85c-3.88,0-8.38-2.06-12.25-5.93-6.25-6.24-7.77-14.15-3.54-18.38s12.14-2.71,18.39,3.54a20.84,20.84,0,0,1,5.43,8.85c1,3.8.36,7.27-1.9,9.53h0A8.44,8.44,0,0,1,1609.17,211.85Zm-10.12-18.64c-.29.75.31,3.84,3.53,7.06s6.3,3.82,7.06,3.52c.29-.75-.31-3.84-3.53-7.06S1599.81,192.91,1599.05,193.21Z"/>
    </g>
    <path d="M1069,562c-23.7,0-183-1-185-1-12,0-27.56-11.47-38.83-28.52-8.3-12.57-18.48-34.31-19.88-66.56-1.37-31.81,6.05-67,22.05-104.49,22.28-52.26,38.83-93.4,47.54-122.52l-48-1,.16-4.07a96.07,96.07,0,0,1,5.5-26.74c6.85-18.38,18.78-28.1,34.5-28.1,8.83,0,15.18,2.85,18.89,8.46,11.32,17.13-.65,58.51-51.21,177.11C839.15,401,832,435,833.27,465.57c1.31,30.42,10.81,50.78,18.56,62.5C863.15,545.2,876.44,553,884,553c21.31,0,28-38.27,28-38.66l.57-3.34h201l-1.85,5.32C1111.13,518.18,1095.54,562,1069,562Zm-166.44-8.89c43.08.27,147.61.89,166.44.89,15,0,27.54-21.87,33.14-35H919.27C917.67,526.19,913,543.08,902.56,553.11Zm-47.21-323,41.77.87c5.28-19.65,6.25-32.8,2.1-39.09-1.38-2.09-4.16-4.87-12.22-4.87-12.21,0-21.28,7.65-26.94,22.74A87.86,87.86,0,0,0,855.35,230.09Z"/>
    <path d="M1056.51,518.16c-.49-.54-12-13.54-18.73-35.77-6.14-20.45-9.1-52.89,11.7-91.3,22.92-42.3,50.4-104.19,51.18-158.74.37-26-5.6-40.57-8-45.35H887v-8h210.13l1.19,1.76c.43.65,10.64,16.18,10.35,50.65-.25,31.13-9.51,84.77-52.15,163.5-15.58,28.75-19.34,57.3-11.18,84.83,6.11,20.62,17,33,17.11,33.07Z"/>
    <g>
      <polygon class="cls-14" points="773.5 461.5 733 421 733 421 807 421 807 502 733 502 733 502 773.5 461.5"/>
      <path d="M811,506H723.34l44.5-44.5L723.34,417H811Zm-68.34-8H803V425H742.66l36.5,36.5Z"/>
    </g>
    <g>
      <line class="cls-14" x1="785" y1="482" x2="807" y2="502"/>
      <rect x="792" y="477.13" width="8" height="29.73" transform="translate(-103.5 750.04) rotate(-47.73)"/>
    </g>
    <g>
      <polygon class="cls-14" points="1110.5 461.5 1151 421 1151 421 1077 421 1077 502 1151 502 1151 502 1110.5 461.5"/>
      <path d="M1160.66,506H1073V417h87.66l-44.5,44.5ZM1081,498h60.34l-36.5-36.5,36.5-36.5H1081Z"/>
    </g>
    <g>
      <rect class="cls-14" x="786" y="400" width="312" height="81"/>
      <path d="M1102,485H782V396h320Zm-312-8h304V404H790Z"/>
    </g>
    <g>
      <line class="cls-14" x1="1099" y1="482" x2="1077" y2="502"/>
      <rect x="1073.13" y="488" width="29.73" height="8" transform="translate(-48.04 859.72) rotate(-42.27)"/>
    </g>
    <g>
      <path d="M815.26,469.41a8.67,8.67,0,0,1-2.59,6.23,8.64,8.64,0,0,1-11.06,1.19,5.15,5.15,0,0,1-2.31-4.34,4.42,4.42,0,0,1,1.18-3.15,3.9,3.9,0,0,1,3-1.26q3.75,0,3.75,3.36a3.29,3.29,0,0,1-.9,2.31,2.91,2.91,0,0,1-2.22,1c-1.61,0-2.56-1.07-2.83-3.22a3.75,3.75,0,0,0,1.4,3.71,5.21,5.21,0,0,0,3.36,1.19,4.36,4.36,0,0,0,3.57-1.65,6.1,6.1,0,0,0,1.33-3.95q0-3-3.36-4.69a13.92,13.92,0,0,0-6-1.26,11.18,11.18,0,0,0-2.73.28,7,7,0,0,0,3.18-2.73,7.2,7.2,0,0,0,1.23-4c0-.47,0-1.68.07-3.64V440.85q0-5.12-3.29-6.72a14.86,14.86,0,0,0,4.55-3.36,32.74,32.74,0,0,0,2.73-4.9,38.89,38.89,0,0,0,2.8,4.9,12.15,12.15,0,0,0,4.48,3.36c-2.24,1.07-3.36,3.27-3.36,6.58v10.08a8.83,8.83,0,0,0,.57,3.64,5.57,5.57,0,0,0,2.79,2.45c-1.54.56-2.31,1.49-2.31,2.8a13,13,0,0,0,1.5,4.69A13,13,0,0,1,815.26,469.41Zm-.56-51.94a14.51,14.51,0,0,0-7.42,7.91q-2.31-6-7.42-7.91a13.38,13.38,0,0,0,7.42-8.26Q809.72,415.44,814.7,417.47Z"/>
      <path d="M846.41,457.3a14.48,14.48,0,0,0-4.55,3,22,22,0,0,0-2.94,4.87q-3.78-7.69-7.63-7.7t-7.63,7.7a23.3,23.3,0,0,0-2.8-4.83,15.29,15.29,0,0,0-4.62-3.08,6.59,6.59,0,0,0,2.66-2.7,7.5,7.5,0,0,0,1.05-3.74v-9.38a11,11,0,0,0-.56-4.2,6.23,6.23,0,0,0-3.15-2.73,17.07,17.07,0,0,0,7.49-8.68,16.31,16.31,0,0,0,7.42,8.68,6.15,6.15,0,0,0-3.15,2.73,10.77,10.77,0,0,0-.56,4.2v9.38a5.22,5.22,0,0,0,1,3.22,3.33,3.33,0,0,0,2.8,1.4,3.39,3.39,0,0,0,2.8-1.33,5.14,5.14,0,0,0,1-3.29v-9.38a11.8,11.8,0,0,0-.49-4.2,6.23,6.23,0,0,0-3.15-2.73,16.73,16.73,0,0,0,7.42-8.68,16.21,16.21,0,0,0,7.49,8.68,6.15,6.15,0,0,0-3.15,2.73,10.77,10.77,0,0,0-.56,4.2v9.38a7.5,7.5,0,0,0,1,3.74A6.53,6.53,0,0,0,846.41,457.3Z"/>
      <path d="M878.33,456.88a14.56,14.56,0,0,0-4.48,3.5,42.17,42.17,0,0,0-3,4.83,44.84,44.84,0,0,0-3-4.76,15.06,15.06,0,0,0-4.41-3.57,5.93,5.93,0,0,0,3.15-3,13.54,13.54,0,0,0,.49-4.34v-9.38a7,7,0,0,0-.91-3.57,3.28,3.28,0,0,0-5.88,0,6.87,6.87,0,0,0-.91,3.57v9.38a12,12,0,0,0,.56,4.34,5.86,5.86,0,0,0,3.15,3,14.91,14.91,0,0,0-4.48,3.57,35.57,35.57,0,0,0-3,4.76q-1-1.75-3-4.83a16,16,0,0,0-4.41-3.5,5.93,5.93,0,0,0,3.15-3,12.2,12.2,0,0,0,.56-4.34v-9.38a6.37,6.37,0,0,0-3.71-6.09,14.86,14.86,0,0,0,4.55-3.36,22.55,22.55,0,0,0,2.87-4.83q3.78,7.63,7.63,7.63t7.63-7.63a32.21,32.21,0,0,0,2.87,4.9,15.91,15.91,0,0,0,4.62,3.29,6.26,6.26,0,0,0-3.71,6.09v9.38a12.68,12.68,0,0,0,.56,4.34A5.82,5.82,0,0,0,878.33,456.88Z"/>
      <path d="M894.92,456.88a14.12,14.12,0,0,0-4.41,3.57,47.31,47.31,0,0,0-3,4.76,44.84,44.84,0,0,0-3-4.76,15.06,15.06,0,0,0-4.41-3.57,5.93,5.93,0,0,0,3.15-2.94,13.84,13.84,0,0,0,.49-4.41v-9.31q0-4.49-3.71-6.09,2.44,0,4.76-3a16.21,16.21,0,0,0,2.73-5.25,17.89,17.89,0,0,0,2.87,5.11q2.37,3,4.55,3.15-3.64,1.68-3.64,6.09v9.31a13.15,13.15,0,0,0,.49,4.41A5.86,5.86,0,0,0,894.92,456.88Zm0-39.34a14.54,14.54,0,0,0-7.42,7.84,12.92,12.92,0,0,0-7.42-7.84,13.81,13.81,0,0,0,7.42-8.33Q889.95,415.44,894.92,417.54Z"/>
      <path d="M927.12,456.6h-.42a20.72,20.72,0,0,0-9.38,2.24,17.2,17.2,0,0,0-7.21,6.37q-6.24-8.19-13.79-8.61,3.57-1.68,3.57-7.63v-9.66q0-4.62-3.57-6.3a14.29,14.29,0,0,0,7.63-8.54,18,18,0,0,0,4.13,6.09q2.45,1.89,7,1.89a34.94,34.94,0,0,1-6.65-19.6,5.12,5.12,0,0,0-3.43-1.26,5.25,5.25,0,0,0-2.87.84,2.85,2.85,0,0,0-1.54,2.45,2.7,2.7,0,0,0,1,2.17,7.06,7.06,0,0,1,1.61,1.54,1.41,1.41,0,0,1-.56.07,3.82,3.82,0,0,1-3.85-3.85,5,5,0,0,1,2-4,6.76,6.76,0,0,1,4.38-1.64q1.82,0,6.72,3t8.4,2.7a5,5,0,0,0-2.24,4.55q0,3.57,2.8,8.05,2.94,4.83,6.16,5.53c-2,1.17-3,3.87-3,8.12v8.05C924,453.05,925,455.53,927.12,456.6Zm-12,2.17V434.48a12.5,12.5,0,0,0-1.33-.07,7.9,7.9,0,0,0-3.71.84,3.09,3.09,0,0,0-2,2.87v12.39a6.17,6.17,0,0,0,2.17,5.11Z"/>
      <path d="M954.21,456.9a15,15,0,0,0-7,2.72,16.85,16.85,0,0,0-5.28,5.59,15.4,15.4,0,0,0-5.81-5.45,22.39,22.39,0,0,0-7.56-2.86,6.21,6.21,0,0,0,4-6v-8.94q0-5.44-4.27-7.82a26.2,26.2,0,0,0,10.16-2,18,18,0,0,0,8.05-6.29,28.09,28.09,0,0,0,3.08,4.89,13.34,13.34,0,0,0,4.69,3.36,9.87,9.87,0,0,0-2.67,5.1,13.13,13.13,0,0,1-2.23,5.31q-2.46,2.79-8.75,4.4v1.19q-.28,4.68,4.8,6.15A37.47,37.47,0,0,0,954.21,456.9Zm-7.56-15.56c0-1.35-.71-3-2.11-4.94s-2.73-2.9-4-2.9v13.79a9.58,9.58,0,0,0,4.23-2A4.87,4.87,0,0,0,946.65,441.34Z"/>
      <path d="M981,456.88q-2.52.08-6.58,3.22c-1.21.93-3.12,2.64-5.74,5.11q-1.32-2.38-6.09-5.29c-3.17-1.93-5.67-2.95-7.49-3q2-.13,3.15-2.73a10,10,0,0,0,1-4.41V441.9q0-5.38-4.27-7.77,12.68,0,18.2-8.26a29,29,0,0,0,3.08,4.9,14.06,14.06,0,0,0,4.69,3.36q-2.52,1.13-4.41,5.95a32.56,32.56,0,0,0-2,7.49h-.14a36.92,36.92,0,0,0-1.89-8.4q-2.16-5.81-5.25-5.6v15.61Q967.36,456.88,981,456.88Z"/>
      <path d="M1009,434.62c-1.68.75-3.1,2.68-4.27,5.81a35,35,0,0,0-1.82,7.35h-.07a23.35,23.35,0,0,0-1.89-7.28c-1.4-3.36-2.91-5-4.55-5-1.4,0-2.1,1.14-2.1,3.43V453.1q3.15,3.57,6,4.27a45.32,45.32,0,0,0,7.42.35,29.12,29.12,0,0,0-6.58,2.94,41,41,0,0,0-5.53,4.55c-1-1.87-3-3.58-6-5.15a17.3,17.3,0,0,0-7.81-2.34q1.62-.14,3-3.15a11.49,11.49,0,0,0,1.26-4.62V442a8,8,0,0,0-4.34-7.42q4.56,0,8.05-8.75,2.73,7.22,6.3,7.21t6.58-7.21L1005,431A8.62,8.62,0,0,0,1009,434.62Z"/>
      <path d="M1035.68,456.9a15,15,0,0,0-7,2.72,17,17,0,0,0-5.29,5.59,15.25,15.25,0,0,0-5.81-5.45,22.24,22.24,0,0,0-7.56-2.86,6.2,6.2,0,0,0,4-6v-8.94q0-5.44-4.27-7.82a26.15,26.15,0,0,0,10.15-2,17.94,17.94,0,0,0,8.05-6.29,28.7,28.7,0,0,0,3.08,4.89,13.43,13.43,0,0,0,4.69,3.36,9.94,9.94,0,0,0-2.66,5.1,13.11,13.11,0,0,1-2.24,5.31q-2.44,2.79-8.75,4.4v1.19q-.27,4.68,4.81,6.15A37.32,37.32,0,0,0,1035.68,456.9Zm-7.56-15.56q0-2-2.1-4.94t-4-2.9v13.79a9.56,9.56,0,0,0,4.24-2A4.89,4.89,0,0,0,1028.12,441.34Z"/>
      <path d="M1062.49,456.9a15,15,0,0,0-7,2.72,16.88,16.88,0,0,0-5.29,5.59,15.33,15.33,0,0,0-5.81-5.45,22.24,22.24,0,0,0-7.56-2.86,6.2,6.2,0,0,0,4-6v-8.94q0-5.44-4.27-7.82a26.19,26.19,0,0,0,10.15-2,18,18,0,0,0,8-6.29,28.7,28.7,0,0,0,3.08,4.89,13.43,13.43,0,0,0,4.69,3.36,9.94,9.94,0,0,0-2.66,5.1,13.11,13.11,0,0,1-2.24,5.31q-2.44,2.79-8.75,4.4v1.19q-.27,4.68,4.81,6.15A37.32,37.32,0,0,0,1062.49,456.9Zm-7.56-15.56q0-2-2.1-4.94t-4-2.9v13.79a9.56,9.56,0,0,0,4.24-2A4.89,4.89,0,0,0,1054.93,441.34Z"/>
      <path d="M1082.37,440h-1.47v-2.52c0-1.68-.31-2.8-.94-3.36s-1.84-.84-3.61-.84v15.89q0,6.51,4,8.4a26.75,26.75,0,0,0-4.69,3.08,19.55,19.55,0,0,0-3.29,4.55,21.59,21.59,0,0,0-3.29-4.62,24.26,24.26,0,0,0-4.76-3,5.93,5.93,0,0,0,3.22-3.5,16.05,16.05,0,0,0,.56-4.9V433.29h-4.76v-3.15h4.76v-7.28a4.74,4.74,0,0,0-2-3.57c-.14-.14-.86-.72-2.17-1.75l.07-.07a37.56,37.56,0,0,0,4.8-1.05c1.08-.37,3.22-1.73,6.42-4.06a16.2,16.2,0,0,1,7.12-3.15l-.07.91q-6,1.81-6,12.67v7.35c2.19,0,3.53-.3,4-.91.33-.42.49-1.77.49-4.06h1.54Z"/>
    </g>
    <rect x="986" y="211" width="8" height="84"/>
    <rect x="961" y="230" width="58" height="8"/>
    <polygon points="1567.99 447.42 1541.81 424.65 1552.85 320.34 1534.77 300.14 1547.46 284.29 1561.81 296.44 1595.76 283.83 1649.15 296.68 1660.53 288.41 1674.61 294.67 1657.92 371.85 1650.1 370.15 1665.41 299.33 1661.5 297.59 1650.87 305.32 1596.26 292.17 1560.21 305.56 1548.57 295.71 1545.25 299.86 1561.17 317.66 1550.21 421.35 1570.03 438.58 1609.81 427.91 1656.98 435.62 1663.03 425.53 1658.03 420.2 1663.87 414.73 1672.99 424.47 1661.05 444.38 1610.22 436.09 1567.99 447.42"/>
    <polygon points="1643.17 430.37 1638.85 423.63 1665.01 406.82 1665.01 384 1642.61 367.2 1647.41 360.8 1673.01 380 1673.01 411.18 1643.17 430.37"/>
    <g>
      <ellipse class="cls-13" cx="1604.34" cy="212.5" rx="6.5" ry="11.5" transform="translate(319.64 1196.68) rotate(-45)"/>
      <path d="M1609.17,225.85c-3.88,0-8.38-2.06-12.25-5.93-6.25-6.24-7.77-14.15-3.54-18.38s12.14-2.71,18.39,3.54a20.84,20.84,0,0,1,5.43,8.85c1,3.8.36,7.27-1.9,9.53h0A8.44,8.44,0,0,1,1609.17,225.85Zm-10.12-18.64c-.29.75.31,3.84,3.53,7.06s6.3,3.82,7.06,3.52c.29-.75-.31-3.84-3.53-7.06S1599.81,206.91,1599.05,207.21Z"/>
    </g>
    <g>
      <ellipse class="cls-13" cx="1604.34" cy="226.5" rx="6.5" ry="11.5" transform="translate(309.74 1200.78) rotate(-45)"/>
      <path d="M1609.17,239.85c-3.88,0-8.38-2.06-12.25-5.93-6.25-6.24-7.77-14.15-3.54-18.38s12.14-2.71,18.39,3.54a20.84,20.84,0,0,1,5.43,8.85c1,3.8.36,7.27-1.9,9.53h0A8.44,8.44,0,0,1,1609.17,239.85Zm-10.12-18.64c-.29.75.31,3.84,3.53,7.06s6.3,3.82,7.06,3.52c.29-.75-.31-3.84-3.53-7.06S1599.81,220.91,1599.05,221.21Z"/>
    </g>
    <g>
      <ellipse class="cls-13" cx="1604.34" cy="239.5" rx="6.5" ry="11.5" transform="translate(300.55 1204.59) rotate(-45)"/>
      <path d="M1609.17,252.85c-3.88,0-8.38-2.06-12.25-5.93-6.25-6.24-7.77-14.15-3.54-18.38s12.14-2.71,18.39,3.54a20.84,20.84,0,0,1,5.43,8.85c1,3.8.36,7.27-1.9,9.53h0A8.44,8.44,0,0,1,1609.17,252.85Zm-10.12-18.64c-.29.75.31,3.84,3.53,7.06s6.3,3.82,7.06,3.52c.29-.75-.31-3.84-3.53-7.06S1599.81,233.91,1599.05,234.21Z"/>
    </g>
    <g>
      <ellipse class="cls-13" cx="1604.34" cy="254.5" rx="6.5" ry="11.5" transform="translate(289.94 1208.98) rotate(-45)"/>
      <path d="M1609.17,267.85c-3.88,0-8.38-2.06-12.25-5.93-6.25-6.24-7.77-14.15-3.54-18.38s12.14-2.71,18.39,3.54a20.84,20.84,0,0,1,5.43,8.85c1,3.8.36,7.27-1.9,9.53h0A8.44,8.44,0,0,1,1609.17,267.85Zm-10.12-18.64c-.29.75.31,3.84,3.53,7.06s6.3,3.82,7.06,3.52c.29-.75-.31-3.84-3.53-7.06S1599.81,248.91,1599.05,249.21Z"/>
    </g>
    <g>
      <ellipse class="cls-13" cx="1604.34" cy="268.5" rx="6.5" ry="11.5" transform="translate(280.04 1213.08) rotate(-45)"/>
      <path d="M1609.17,281.85c-3.88,0-8.38-2.06-12.25-5.93-6.25-6.24-7.77-14.15-3.54-18.38s12.14-2.71,18.39,3.54a20.84,20.84,0,0,1,5.43,8.85c1,3.8.36,7.27-1.9,9.53h0A8.44,8.44,0,0,1,1609.17,281.85Zm-10.12-18.64c-.29.75.31,3.84,3.53,7.06s6.3,3.82,7.06,3.52c.29-.75-.31-3.84-3.53-7.06S1599.81,262.91,1599.05,263.21Z"/>
    </g>
    <g>
      <ellipse class="cls-13" cx="1604.34" cy="281.5" rx="6.5" ry="11.5" transform="translate(270.85 1216.89) rotate(-45)"/>
      <path d="M1609.17,294.85c-3.88,0-8.38-2.06-12.25-5.93-6.25-6.24-7.77-14.15-3.54-18.38s12.14-2.71,18.39,3.54a20.84,20.84,0,0,1,5.43,8.85c1,3.8.36,7.27-1.9,9.53h0A8.44,8.44,0,0,1,1609.17,294.85Zm-10.12-18.64c-.29.75.31,3.84,3.53,7.06s6.3,3.82,7.06,3.52c.29-.75-.31-3.84-3.53-7.06S1599.81,275.91,1599.05,276.21Z"/>
    </g>
    <g>
      <ellipse class="cls-13" cx="1587.34" cy="449.5" rx="6.5" ry="11.5" transform="translate(147.08 1254.08) rotate(-45)"/>
      <path d="M1592.17,462.85c-3.88,0-8.38-2.06-12.25-5.93-6.25-6.24-7.77-14.15-3.54-18.38s12.14-2.71,18.39,3.54a20.84,20.84,0,0,1,5.43,8.85c1,3.8.36,7.27-1.9,9.53h0A8.44,8.44,0,0,1,1592.17,462.85Zm-10.12-18.64c-.29.75.31,3.84,3.53,7.06s6.3,3.82,7.06,3.52c.29-.75-.31-3.84-3.53-7.06S1582.8,443.91,1582.05,444.21Z"/>
    </g>
    <g>
      <ellipse class="cls-13" cx="1603.34" cy="448.5" rx="6.5" ry="11.5" transform="translate(152.47 1265.1) rotate(-45)"/>
      <path d="M1608.17,461.85c-3.88,0-8.38-2.06-12.25-5.93-6.25-6.24-7.77-14.15-3.54-18.38s12.14-2.71,18.39,3.54a20.84,20.84,0,0,1,5.43,8.85c1,3.8.36,7.27-1.9,9.53h0A8.44,8.44,0,0,1,1608.17,461.85Zm-10.12-18.64c-.29.75.31,3.84,3.53,7.06s6.3,3.82,7.06,3.52c.29-.75-.31-3.84-3.53-7.06S1598.81,442.91,1598.05,443.21Z"/>
    </g>
    <g>
      <ellipse class="cls-13" cx="1614.34" cy="442.5" rx="6.5" ry="11.5" transform="translate(159.94 1271.12) rotate(-45)"/>
      <path d="M1619.17,455.85c-3.88,0-8.38-2.06-12.25-5.93-6.25-6.24-7.77-14.15-3.54-18.38s12.14-2.71,18.39,3.54a20.84,20.84,0,0,1,5.43,8.85c1,3.8.36,7.27-1.9,9.53h0A8.44,8.44,0,0,1,1619.17,455.85Zm-10.12-18.64c-.29.75.31,3.84,3.53,7.06s6.31,3.82,7.06,3.52c.29-.75-.31-3.84-3.53-7.06S1609.81,436.91,1609.05,437.21Z"/>
    </g>
    <path d="M1572.7,463.4a10.55,10.55,0,0,1-10.34-8.54l-3.28-17.11,7.86-1.5,3.27,17.1a2.53,2.53,0,0,0,5-1l-1.37-7.13,7.86-1.51,1.37,7.13a10.53,10.53,0,0,1-10.34,12.52Z"/>
    <path d="M1584.47,493.59a10.54,10.54,0,0,1-3.49-.6,10.43,10.43,0,0,1-6-5.38l-3.15-6.54a10.53,10.53,0,1,1,19-9.12l3.14,6.54a10.55,10.55,0,0,1-9.49,15.1ZM1581.32,474a2.53,2.53,0,0,0-2.38,1.69,2.51,2.51,0,0,0,.1,1.94l3.15,6.54a2.52,2.52,0,0,0,3.37,1.18,2.53,2.53,0,0,0,1.19-3.37l-3.14-6.54a2.57,2.57,0,0,0-1.45-1.3A2.69,2.69,0,0,0,1581.32,474Z"/>
    <path d="M1599,522.61a10.55,10.55,0,0,1-9.51-6l-3.15-6.54a10.53,10.53,0,0,1,13-14.5,10.45,10.45,0,0,1,6,5.38l3.14,6.54a10.52,10.52,0,0,1-4.93,14.05A10.55,10.55,0,0,1,1599,522.61ZM1595.83,503a2.63,2.63,0,0,0-1.09.25,2.53,2.53,0,0,0-1.18,3.38l3.14,6.54a2.54,2.54,0,0,0,3.38,1.19,2.59,2.59,0,0,0,1.29-1.45,2.54,2.54,0,0,0-.11-1.93l-3.14-6.54a2.52,2.52,0,0,0-1.45-1.29A2.4,2.4,0,0,0,1595.83,503Z"/>
    <path d="M1580,478a4,4,0,0,1-3.78-2.69l-6.53-18.87a4,4,0,1,1,7.56-2.62l6.53,18.87A4,4,0,0,1,1580,478Z"/>
    <path d="M1594.4,507.15a4,4,0,0,1-3.55-2.15l-9.22-17.72a4,4,0,0,1,7.1-3.69l9.21,17.71a4,4,0,0,1-1.7,5.4A4.06,4.06,0,0,1,1594.4,507.15Z"/>
    <path d="M1636.43,463.4a10.39,10.39,0,0,1-2-.19h0a10.54,10.54,0,0,1-8.35-12.33l1.37-7.13a10.53,10.53,0,1,1,20.68,4l-1.37,7.12A10.55,10.55,0,0,1,1636.43,463.4Zm-.48-8a2.51,2.51,0,0,0,3-2l1.38-7.13a2.53,2.53,0,0,0-5-1l-1.38,7.13a2.53,2.53,0,0,0,2,3Z"/>
    <path d="M1624.65,493.59a10.38,10.38,0,0,1-4.55-1,10.53,10.53,0,0,1-4.93-14.05l3.14-6.54a10.53,10.53,0,1,1,19,9.12l-3.14,6.54a10.55,10.55,0,0,1-9.5,6ZM1627.8,474a2.74,2.74,0,0,0-.84.14,2.56,2.56,0,0,0-1.44,1.3l-3.14,6.54a2.53,2.53,0,0,0,3.12,3.48,2.48,2.48,0,0,0,1.44-1.29l3.14-6.54a2.53,2.53,0,0,0-2.28-3.63Z"/>
    <path d="M1610.13,522.61a10.53,10.53,0,0,1-9.47-15.1l3.14-6.53a10.53,10.53,0,1,1,19,9.12l-3.14,6.54A10.57,10.57,0,0,1,1610.13,522.61Zm3.16-19.61a2.56,2.56,0,0,0-2.28,1.44l-3.14,6.54a2.49,2.49,0,0,0-.11,1.93,2.53,2.53,0,0,0,4.67.26l3.14-6.54a2.55,2.55,0,0,0-1.18-3.38A2.64,2.64,0,0,0,1613.29,503Z"/>
    <path d="M1629.13,478a3.94,3.94,0,0,1-1.3-.22,4,4,0,0,1-2.48-5.09l6.53-18.87a4,4,0,1,1,7.56,2.62l-6.53,18.87A4,4,0,0,1,1629.13,478Z"/>
    <path d="M1614.73,507.15a4.06,4.06,0,0,1-1.84-.45,4,4,0,0,1-1.71-5.4l9.22-17.71a4,4,0,0,1,7.09,3.69L1618.28,505A4,4,0,0,1,1614.73,507.15Z"/>
    <path d="M1581.12,651.77l-90-94L1490,555V469l1.78-3.33,59-39.33,4.44,6.66L1498,471.14v82.25L1582.8,642c2.62-5.11,7.11-12.19,13.11-15.35l-49.7-61.13-.79-1.59-15.3-64,7.78-1.86L1553,561.14l53.12,65.34-3.46,6.5c-6.05-.53-12.63,11.52-14.9,17.45Z"/>
    <polygon points="1591.49 914.63 1540 894.74 1540.7 671.32 1548.7 671.35 1548.02 889.26 1584.53 903.37 1601.03 731.62 1608.99 732.38 1591.49 914.63"/>
    <path d="M1519.55,991.22a12.43,12.43,0,0,1-6.64-1.81,8.41,8.41,0,0,1-4-6.29c-.6-4.52.79-13.29,19.68-37.12,8-10.11,16.26-19.2,19.28-22.46L1546,894.26l8-.52,2.11,32.74-1.19,1.27c-19.5,20.67-39.05,46.64-38,54.32.06.42.14.47.23.52,7.69,4.73,29.26-15.87,40.85-26.94,3.85-3.67,7.48-7.15,10.45-9.69,12.18-10.44,8.67-38.9,8.63-39.19l7.93-1c.18,1.34,4.11,33-11.36,46.3-2.8,2.4-6.36,5.8-10.13,9.4C1549.35,974.94,1532.31,991.22,1519.55,991.22Z"/>
    <path d="M1628.9,651.77l-6.63-1.35c-2.27-5.92-8.93-18-14.9-17.44l-3.46-6.5L1657,561.14l15.09-63.07,7.78,1.86-15.3,64-.78,1.59-49.71,61.13c6,3.16,10.49,10.24,13.11,15.35L1712,553.39V471.13l-50.23-33.81,4.46-6.64,52,35L1720,469v86l-1.11,2.77Z"/>
    <polygon points="1605.01 682.03 1522.83 671.5 1526.6 594.69 1534.59 595.08 1531.19 664.5 1605.01 673.97 1678.83 664.5 1675.43 595.08 1683.42 594.69 1687.19 671.5 1605.01 682.03"/>
    <polygon points="1618.53 914.63 1601.03 732.38 1608.99 731.62 1625.49 903.37 1662 889.26 1661.32 671.35 1669.32 671.32 1670.02 894.74 1618.53 914.63"/>
    <path d="M1690.47,991.22c-12.76,0-29.8-16.28-43.93-29.78-3.77-3.6-7.33-7-10.13-9.4-15.47-13.26-11.54-45-11.36-46.3l7.93,1-4-.52,4,.51c0,.29-3.55,28.75,8.63,39.19,3,2.54,6.6,6,10.45,9.69,11.59,11.07,33.15,31.67,40.85,26.94.09-.05.17-.1.23-.52.67-5.1-10.68-25.33-38-54.32l-1.19-1.27,2.11-32.74,8,.52-1.89,29.28c3,3.26,11.27,12.35,19.29,22.46,18.88,23.83,20.27,32.6,19.67,37.12a8.41,8.41,0,0,1-4,6.29A12.41,12.41,0,0,1,1690.47,991.22Z"/>
    <g>
      <rect class="cls-17" x="1549.01" y="509.04" width="112.58" height="70.38"/>
      <path d="M1665.59,583.43H1545V505h120.58Zm-112.58-8h104.58V513H1553Z"/>
    </g>
    <rect x="1601.01" y="517" width="8" height="55"/>
    <rect x="1586.02" y="552.94" width="37.98" height="8"/>
    <path d="M1621.76,680.75a13.53,13.53,0,0,1-5.55-1.41l-.28,1c-10.92,1.64-20.85-3.64-28.76-15.29a70.23,70.23,0,0,1-8.35-17.25l7.66-2.31-3.83,1.15,3.82-1.15c.08.24,6.12,19.62,18.48,25.48a22.28,22.28,0,0,1-3.91-9.51l7.55-2.28c.21.42.45.87.73,1.36l3.41-.69-1.11-1.77,6.41-4.74c2.13,2.45,4.42,4.86,6.54,6.91-4-9.87-11.58-23.6-23.77-27.48l2.42-7.62c23.89,7.6,32.34,42.42,32.68,43.89l-2.92,4.8a5.5,5.5,0,0,1-3.41-.19l-2.94,5.1a10.71,10.71,0,0,1-3.73-.88Z"/>
    <path d="M1594,690.48l-4.1-4.2-2.43,1.88-2.47-2.41-1.24,1.17-5,.41a5.11,5.11,0,0,1-2.16-3.35c-.67-3.66,2.79-10.83,10.28-21.32l6.23,4.45.49-.46,4,3.53.23-.18,5.89,5.21-.47.78,6.49-3.69,4,7Z"/>
    <g>
      <path class="cls-13" d="M291,435c-4.49,4.49-7,6.09-4.47,8.63s8.24,1,12.73-3.53"/>
      <path d="M289.83,448.85a8.44,8.44,0,0,1-6.13-2.39,6.67,6.67,0,0,1-2.19-4.83c0-3,2.18-5.1,4.9-7.74.54-.53,1.13-1.09,1.75-1.72l5.66,5.66c-.66.66-1.28,1.25-1.84,1.8l-1.12,1.1a12.72,12.72,0,0,0,5.56-3.46l5.66,5.65C298.21,446.79,293.71,448.85,289.83,448.85Z"/>
    </g>
    <g>
      <ellipse class="cls-13" cx="315.66" cy="19.5" rx="11.5" ry="6.5" transform="translate(78.66 228.91) rotate(-45)"/>
      <path d="M310.83,32.85a8.44,8.44,0,0,1-6.13-2.39h0c-4.24-4.23-2.72-12.14,3.53-18.38s14.15-7.77,18.39-3.54c2.26,2.26,2.94,5.73,1.89,9.53a20.84,20.84,0,0,1-5.43,8.85C319.21,30.79,314.71,32.85,310.83,32.85Zm-.47-8.06c.76.3,3.85-.31,7.06-3.52S321.24,15,321,14.21c-.76-.29-3.85.31-7.06,3.52S310.07,24,310.36,24.79Z"/>
    </g>
    <g>
      <ellipse class="cls-13" cx="315.66" cy="32.5" rx="11.5" ry="6.5" transform="translate(69.47 232.72) rotate(-45)"/>
      <path d="M310.83,45.85a8.44,8.44,0,0,1-6.13-2.39h0c-4.24-4.23-2.72-12.14,3.53-18.38s14.15-7.77,18.39-3.54c2.26,2.26,2.94,5.73,1.89,9.53a20.84,20.84,0,0,1-5.43,8.85C319.21,43.79,314.71,45.85,310.83,45.85Zm-.47-8.06c.76.3,3.85-.31,7.06-3.52S321.24,28,321,27.21c-.76-.3-3.85.31-7.06,3.52S310.07,37,310.36,37.79Z"/>
    </g>
    <g>
      <ellipse class="cls-13" cx="315.66" cy="46.5" rx="11.5" ry="6.5" transform="translate(59.57 236.82) rotate(-45)"/>
      <path d="M310.83,59.85a8.44,8.44,0,0,1-6.13-2.39h0c-4.24-4.23-2.72-12.14,3.53-18.38s14.15-7.77,18.39-3.54c2.26,2.26,2.94,5.73,1.89,9.53a20.84,20.84,0,0,1-5.43,8.85C319.21,57.79,314.71,59.85,310.83,59.85Zm-.47-8.06c.76.3,3.85-.31,7.06-3.52S321.24,42,321,41.21c-.76-.3-3.85.31-7.06,3.52S310.07,51,310.36,51.79Z"/>
    </g>
    <g>
      <ellipse class="cls-13" cx="315.66" cy="60.5" rx="11.5" ry="6.5" transform="translate(49.67 240.92) rotate(-45)"/>
      <path d="M310.83,73.85a8.44,8.44,0,0,1-6.13-2.39h0c-4.24-4.23-2.72-12.14,3.53-18.38s14.15-7.77,18.39-3.54c2.26,2.26,2.94,5.73,1.89,9.53a20.84,20.84,0,0,1-5.43,8.85C319.21,71.79,314.71,73.85,310.83,73.85Zm-.47-8.06c.76.3,3.85-.31,7.06-3.52S321.24,56,321,55.21c-.76-.3-3.85.31-7.06,3.52S310.07,65,310.36,65.79Z"/>
    </g>
    <g>
      <ellipse class="cls-13" cx="315.66" cy="73.5" rx="11.5" ry="6.5" transform="translate(40.48 244.73) rotate(-45)"/>
      <path d="M310.83,86.85a8.44,8.44,0,0,1-6.13-2.39h0c-4.24-4.23-2.72-12.14,3.53-18.38s14.15-7.77,18.39-3.54c2.26,2.26,2.94,5.73,1.89,9.53a20.84,20.84,0,0,1-5.43,8.85C319.21,84.79,314.71,86.85,310.83,86.85Zm-.47-8.06c.76.3,3.85-.31,7.06-3.52S321.24,69,321,68.21c-.76-.3-3.85.31-7.06,3.52S310.07,78,310.36,78.79Z"/>
    </g>
    <g>
      <ellipse class="cls-13" cx="315.66" cy="88.5" rx="11.5" ry="6.5" transform="translate(29.87 249.12) rotate(-45)"/>
      <path d="M310.83,101.85a8.44,8.44,0,0,1-6.13-2.39h0c-4.24-4.23-2.72-12.14,3.53-18.38s14.15-7.77,18.39-3.54c2.26,2.26,2.94,5.73,1.89,9.53a20.84,20.84,0,0,1-5.43,8.85C319.21,99.79,314.71,101.85,310.83,101.85Zm-.47-8.06c.76.3,3.85-.31,7.06-3.52S321.24,84,321,83.21c-.76-.3-3.85.31-7.06,3.52S310.07,93,310.36,93.79Z"/>
    </g>
    <g>
      <ellipse class="cls-13" cx="315.66" cy="102.5" rx="11.5" ry="6.5" transform="translate(19.98 253.22) rotate(-45)"/>
      <path d="M310.83,115.85a8.44,8.44,0,0,1-6.13-2.39h0c-4.24-4.23-2.72-12.14,3.53-18.38s14.15-7.77,18.39-3.54c2.26,2.26,2.94,5.73,1.89,9.53a20.84,20.84,0,0,1-5.43,8.85C319.21,113.79,314.71,115.85,310.83,115.85Zm-.47-8.06c.76.3,3.85-.31,7.06-3.52S321.24,98,321,97.21c-.76-.3-3.85.31-7.06,3.52S310.07,107,310.36,107.79Z"/>
    </g>
    <g>
      <ellipse class="cls-13" cx="315.66" cy="115.5" rx="11.5" ry="6.5" transform="translate(10.78 257.03) rotate(-45)"/>
      <path d="M310.83,128.85a8.44,8.44,0,0,1-6.13-2.39h0c-4.24-4.23-2.72-12.14,3.53-18.38s14.15-7.77,18.39-3.54c2.26,2.26,2.94,5.73,1.89,9.53a20.84,20.84,0,0,1-5.43,8.85C319.21,126.79,314.71,128.85,310.83,128.85Zm-.47-8.06c.76.3,3.85-.31,7.06-3.52s3.82-6.31,3.53-7.06c-.76-.3-3.85.31-7.06,3.52S310.07,120,310.36,120.79Z"/>
    </g>
    <g>
      <ellipse class="cls-13" cx="315.66" cy="129.5" rx="11.5" ry="6.5" transform="translate(0.88 261.13) rotate(-45)"/>
      <path d="M310.83,142.85a8.44,8.44,0,0,1-6.13-2.39h0c-4.24-4.23-2.72-12.14,3.53-18.38s14.15-7.77,18.39-3.54c2.26,2.26,2.94,5.73,1.89,9.53a20.84,20.84,0,0,1-5.43,8.85C319.21,140.79,314.71,142.85,310.83,142.85Zm-.47-8.06c.76.3,3.85-.31,7.06-3.52s3.82-6.31,3.53-7.06c-.76-.3-3.85.31-7.06,3.52S310.07,134,310.36,134.79Z"/>
    </g>
    <g>
      <ellipse class="cls-13" cx="315.66" cy="143.5" rx="11.5" ry="6.5" transform="translate(-9.02 265.23) rotate(-45)"/>
      <path d="M310.83,156.85a8.44,8.44,0,0,1-6.13-2.39h0c-4.24-4.23-2.72-12.14,3.53-18.38s14.15-7.77,18.39-3.54c2.26,2.26,2.94,5.73,1.89,9.53a20.84,20.84,0,0,1-5.43,8.85C319.21,154.79,314.71,156.85,310.83,156.85Zm-.47-8.06c.76.3,3.85-.31,7.06-3.52s3.82-6.31,3.53-7.06c-.76-.3-3.85.31-7.06,3.52S310.07,148,310.36,148.79Z"/>
    </g>
    <g>
      <ellipse class="cls-13" cx="315.66" cy="156.5" rx="11.5" ry="6.5" transform="translate(-18.21 269.04) rotate(-45)"/>
      <path d="M310.83,169.85a8.44,8.44,0,0,1-6.13-2.39h0c-4.24-4.23-2.72-12.14,3.53-18.38s14.15-7.77,18.39-3.54c2.26,2.26,2.94,5.73,1.89,9.53a20.84,20.84,0,0,1-5.43,8.85C319.21,167.79,314.71,169.85,310.83,169.85Zm-.47-8.06c.76.3,3.85-.31,7.06-3.52s3.82-6.31,3.53-7.06c-.76-.3-3.85.31-7.06,3.52S310.07,161,310.36,161.79Z"/>
    </g>
    <g>
      <ellipse class="cls-13" cx="315.66" cy="171.5" rx="11.5" ry="6.5" transform="translate(-28.82 273.43) rotate(-45)"/>
      <path d="M310.83,184.85a8.44,8.44,0,0,1-6.13-2.39h0c-4.24-4.23-2.72-12.14,3.53-18.38s14.15-7.77,18.39-3.54c2.26,2.26,2.94,5.73,1.89,9.53a20.84,20.84,0,0,1-5.43,8.85C319.21,182.79,314.71,184.85,310.83,184.85Zm-.47-8.06c.76.3,3.85-.31,7.06-3.52s3.82-6.31,3.53-7.06c-.76-.3-3.85.31-7.06,3.52S310.07,176,310.36,176.79Z"/>
    </g>
    <g>
      <ellipse class="cls-13" cx="315.66" cy="185.5" rx="11.5" ry="6.5" transform="translate(-38.71 277.53) rotate(-45)"/>
      <path d="M310.83,198.85a8.44,8.44,0,0,1-6.13-2.39h0c-4.24-4.23-2.72-12.14,3.53-18.38s14.15-7.77,18.39-3.54c2.26,2.26,2.94,5.73,1.89,9.53a20.84,20.84,0,0,1-5.43,8.85C319.21,196.79,314.71,198.85,310.83,198.85Zm-.47-8.06c.76.29,3.85-.31,7.06-3.52s3.82-6.31,3.53-7.06c-.76-.3-3.85.31-7.06,3.52S310.07,190,310.36,190.79Z"/>
    </g>
    <g>
      <ellipse class="cls-13" cx="315.66" cy="198.5" rx="11.5" ry="6.5" transform="translate(-47.91 281.34) rotate(-45)"/>
      <path d="M310.83,211.85a8.44,8.44,0,0,1-6.13-2.39h0c-4.24-4.23-2.72-12.14,3.53-18.38s14.15-7.77,18.39-3.54c2.26,2.26,2.94,5.73,1.89,9.53a20.84,20.84,0,0,1-5.43,8.85C319.21,209.79,314.71,211.85,310.83,211.85Zm-.47-8.06c.76.29,3.85-.31,7.06-3.52s3.82-6.31,3.53-7.06c-.76-.3-3.85.31-7.06,3.52S310.07,203,310.36,203.79Z"/>
    </g>
    <polygon points="352.01 447.42 309.78 436.09 258.96 444.38 247 424.47 256.13 414.73 261.97 420.2 256.97 425.53 263.02 435.62 310.19 427.91 349.97 438.58 369.79 421.35 358.82 317.66 374.75 299.86 371.43 295.71 359.79 305.56 323.74 292.17 269.13 305.32 258.5 297.59 254.59 299.33 269.9 370.15 262.08 371.85 245.39 294.67 259.48 288.41 270.85 296.68 324.24 283.83 358.19 296.44 372.54 284.29 385.23 300.14 367.15 320.34 378.19 424.65 352.01 447.42"/>
    <polygon points="276.83 430.37 246.99 411.18 246.99 380 272.59 360.8 277.39 367.2 254.99 384 254.99 406.82 281.15 423.63 276.83 430.37"/>
    <g>
      <ellipse class="cls-13" cx="315.66" cy="212.5" rx="11.5" ry="6.5" transform="translate(-57.81 285.44) rotate(-45)"/>
      <path d="M310.83,225.85a8.44,8.44,0,0,1-6.13-2.39h0c-4.24-4.23-2.72-12.14,3.53-18.38s14.15-7.77,18.39-3.54c2.26,2.26,2.94,5.73,1.89,9.53a20.84,20.84,0,0,1-5.43,8.85C319.21,223.79,314.71,225.85,310.83,225.85Zm-.47-8.06c.76.3,3.85-.31,7.06-3.52s3.82-6.31,3.53-7.06c-.76-.3-3.85.31-7.06,3.52S310.07,217,310.36,217.79Z"/>
    </g>
    <g>
      <ellipse class="cls-13" cx="315.66" cy="226.5" rx="11.5" ry="6.5" transform="translate(-67.71 289.54) rotate(-45)"/>
      <path d="M310.83,239.85a8.44,8.44,0,0,1-6.13-2.39h0c-4.24-4.23-2.72-12.14,3.53-18.38s14.15-7.77,18.39-3.54c2.26,2.26,2.94,5.73,1.89,9.53a20.84,20.84,0,0,1-5.43,8.85C319.21,237.79,314.71,239.85,310.83,239.85Zm-.47-8.06c.76.3,3.85-.31,7.06-3.52s3.82-6.31,3.53-7.06c-.76-.3-3.85.31-7.06,3.52S310.07,231,310.36,231.79Z"/>
    </g>
    <g>
      <ellipse class="cls-13" cx="315.66" cy="239.5" rx="11.5" ry="6.5" transform="translate(-76.9 293.35) rotate(-45)"/>
      <path d="M310.83,252.85a8.44,8.44,0,0,1-6.13-2.39h0c-4.24-4.23-2.72-12.14,3.53-18.38s14.15-7.77,18.39-3.54c2.26,2.26,2.94,5.73,1.89,9.53a20.84,20.84,0,0,1-5.43,8.85C319.21,250.79,314.71,252.85,310.83,252.85Zm-.47-8.06c.76.3,3.85-.31,7.06-3.52s3.82-6.31,3.53-7.06c-.76-.3-3.85.31-7.06,3.52S310.07,244,310.36,244.79Z"/>
    </g>
    <g>
      <ellipse class="cls-13" cx="315.66" cy="254.5" rx="11.5" ry="6.5" transform="translate(-87.51 297.74) rotate(-45)"/>
      <path d="M310.83,267.85a8.44,8.44,0,0,1-6.13-2.39h0c-4.24-4.23-2.72-12.14,3.53-18.38s14.15-7.77,18.39-3.54c2.26,2.26,2.94,5.73,1.89,9.53a20.84,20.84,0,0,1-5.43,8.85C319.21,265.79,314.71,267.85,310.83,267.85Zm-.47-8.06c.76.3,3.85-.31,7.06-3.52s3.82-6.31,3.53-7.06c-.76-.3-3.85.31-7.06,3.52S310.07,259,310.36,259.79Z"/>
    </g>
    <g>
      <ellipse class="cls-13" cx="315.66" cy="268.5" rx="11.5" ry="6.5" transform="translate(-97.4 301.84) rotate(-45)"/>
      <path d="M310.83,281.85a8.44,8.44,0,0,1-6.13-2.39h0c-4.24-4.23-2.72-12.14,3.53-18.38s14.15-7.77,18.39-3.54c2.26,2.26,2.94,5.73,1.89,9.53a20.84,20.84,0,0,1-5.43,8.85C319.21,279.79,314.71,281.85,310.83,281.85Zm-.47-8.06c.76.3,3.85-.31,7.06-3.52s3.82-6.31,3.53-7.06c-.76-.3-3.85.31-7.06,3.52S310.07,273,310.36,273.79Z"/>
    </g>
    <g>
      <ellipse class="cls-13" cx="315.66" cy="281.5" rx="11.5" ry="6.5" transform="translate(-106.6 305.65) rotate(-45)"/>
      <path d="M310.83,294.85a8.44,8.44,0,0,1-6.13-2.39h0c-4.24-4.23-2.72-12.14,3.53-18.38s14.15-7.77,18.39-3.54c2.26,2.26,2.94,5.73,1.89,9.53a20.84,20.84,0,0,1-5.43,8.85C319.21,292.79,314.71,294.85,310.83,294.85Zm-.47-8.06c.76.3,3.85-.31,7.06-3.52s3.82-6.31,3.53-7.06c-.76-.3-3.85.31-7.06,3.52S310.07,286,310.36,286.79Z"/>
    </g>
    <g>
      <ellipse class="cls-13" cx="332.66" cy="449.5" rx="11.5" ry="6.5" transform="translate(-220.41 366.88) rotate(-45)"/>
      <path d="M327.83,462.85a8.44,8.44,0,0,1-6.13-2.39h0c-4.24-4.23-2.72-12.14,3.53-18.38s14.15-7.77,18.39-3.54c2.26,2.26,2.94,5.73,1.89,9.53a20.84,20.84,0,0,1-5.43,8.85C336.21,460.79,331.71,462.85,327.83,462.85Zm-.47-8.06c.76.3,3.85-.31,7.06-3.52s3.82-6.31,3.53-7.06c-.76-.3-3.85.31-7.06,3.52S327.07,454,327.36,454.79Z"/>
    </g>
    <g>
      <ellipse class="cls-13" cx="316.66" cy="448.5" rx="11.5" ry="6.5" transform="translate(-224.39 355.27) rotate(-45)"/>
      <path d="M311.83,461.85a8.44,8.44,0,0,1-6.13-2.39h0c-4.24-4.23-2.72-12.14,3.53-18.38s14.15-7.77,18.39-3.54c2.26,2.26,2.94,5.73,1.89,9.53a20.84,20.84,0,0,1-5.43,8.85C320.21,459.79,315.71,461.85,311.83,461.85Zm-.47-8.06c.76.3,3.85-.31,7.06-3.52s3.82-6.31,3.53-7.06c-.76-.3-3.85.31-7.06,3.52S311.07,453,311.36,453.79Z"/>
    </g>
    <g>
      <ellipse class="cls-13" cx="305.66" cy="442.5" rx="11.5" ry="6.5" transform="translate(-223.37 345.74) rotate(-45)"/>
      <path d="M300.83,455.85a8.44,8.44,0,0,1-6.13-2.39h0c-4.24-4.23-2.72-12.14,3.53-18.38s14.15-7.77,18.39-3.54c2.26,2.26,2.94,5.73,1.89,9.53a20.84,20.84,0,0,1-5.43,8.85C309.21,453.79,304.71,455.85,300.83,455.85Zm-.47-8.06c.76.3,3.85-.31,7.06-3.52s3.82-6.31,3.53-7.06c-.76-.3-3.85.31-7.06,3.52S300.07,447,300.36,447.79Z"/>
    </g>
    <path d="M347.32,463.4A10.53,10.53,0,0,1,337,450.88l1.37-7.13,7.86,1.51-1.37,7.13a2.53,2.53,0,0,0,5,1l3.27-17.1,7.86,1.5-3.28,17.11a10.53,10.53,0,0,1-10.32,8.54Z"/>
    <path d="M335.52,493.59a10.45,10.45,0,0,1-4.55-1h0A10.55,10.55,0,0,1,326,478.49l3.14-6.54a10.53,10.53,0,0,1,19,9.12L345,487.61a10.43,10.43,0,0,1-6,5.38A10.56,10.56,0,0,1,335.52,493.59Zm-1.08-8.26a2.52,2.52,0,0,0,3.37-1.18l3.15-6.54a2.54,2.54,0,0,0-1.19-3.38,2.54,2.54,0,0,0-3.38,1.19L333.25,482a2.53,2.53,0,0,0,1.19,3.37Z"/>
    <path d="M321,522.61a10.54,10.54,0,0,1-9.93-7.05,10.44,10.44,0,0,1,.45-8l3.14-6.54a10.53,10.53,0,1,1,19,9.12l-3.14,6.54a10.56,10.56,0,0,1-9.5,6ZM324.17,503a2.4,2.4,0,0,0-.84.15,2.49,2.49,0,0,0-1.45,1.29L318.74,511a2.54,2.54,0,0,0-.11,1.93,2.57,2.57,0,0,0,1.3,1.45h0a2.54,2.54,0,0,0,3.37-1.19l3.14-6.54a2.53,2.53,0,0,0-1.18-3.38A2.63,2.63,0,0,0,324.17,503Z"/>
    <path d="M340,478a4,4,0,0,1-3.78-5.31l6.53-18.87a4,4,0,0,1,7.56,2.62l-6.53,18.87A4,4,0,0,1,340,478Z"/>
    <path d="M325.6,507.15a4.06,4.06,0,0,1-1.84-.45,4,4,0,0,1-1.7-5.4l9.21-17.71a4,4,0,0,1,7.1,3.69L329.15,505A4,4,0,0,1,325.6,507.15Z"/>
    <path d="M283.55,463.4a10.53,10.53,0,0,1-10.32-8.54l-1.37-7.12a10.53,10.53,0,1,1,20.68-4l1.37,7.13a10.53,10.53,0,0,1-10.36,12.52Zm-1.35-20.19a2.61,2.61,0,0,0-.48.05,2.53,2.53,0,0,0-2,3l1.38,7.13a2.45,2.45,0,0,0,1.06,1.61,2.54,2.54,0,0,0,3.52-.67,2.55,2.55,0,0,0,.39-1.9l-1.38-7.13A2.53,2.53,0,0,0,282.2,443.21Z"/>
    <path d="M295.35,493.59a10.55,10.55,0,0,1-9.5-6l-3.14-6.54a10.53,10.53,0,0,1,19-9.12l3.14,6.54a10.53,10.53,0,0,1-4.93,14.05h0A10.38,10.38,0,0,1,295.35,493.59ZM292.2,474a2.53,2.53,0,0,0-2.28,3.63l3.14,6.54a2.48,2.48,0,0,0,1.44,1.29,2.51,2.51,0,0,0,1.94-.11h0a2.53,2.53,0,0,0,1.18-3.37l-3.14-6.54a2.56,2.56,0,0,0-1.44-1.3A2.74,2.74,0,0,0,292.2,474Z"/>
    <path d="M309.86,522.61a10.58,10.58,0,0,1-9.5-6l-3.14-6.54a10.53,10.53,0,1,1,19-9.12l3.14,6.54a10.52,10.52,0,0,1-4.93,14.05h0A10.51,10.51,0,0,1,309.86,522.61ZM306.71,503a2.64,2.64,0,0,0-1.1.25,2.54,2.54,0,0,0-1.18,3.38l3.14,6.54a2.54,2.54,0,0,0,3.38,1.19h0a2.52,2.52,0,0,0,1.29-1.45,2.49,2.49,0,0,0-.11-1.93L309,504.44a2.56,2.56,0,0,0-2.28-1.44Z"/>
    <path d="M290.87,478a4,4,0,0,1-3.78-2.69l-6.53-18.87a4,4,0,1,1,7.56-2.62l6.53,18.87a4,4,0,0,1-3.78,5.31Z"/>
    <path d="M305.27,507.15a4,4,0,0,1-3.55-2.15l-9.21-17.72a4,4,0,1,1,7.09-3.69l9.22,17.71a4,4,0,0,1-1.71,5.4A4.06,4.06,0,0,1,305.27,507.15Z"/>
    <path d="M338.88,651.77l-6.63-1.35c-2.27-5.92-8.9-18-14.9-17.44l-3.46-6.5L367,561.14l15.09-63.07,7.78,1.86-15.3,64-.79,1.59-49.7,61.13c6,3.16,10.49,10.24,13.1,15.35L422,553.39V471.14L364.81,433l4.44-6.66,59,39.33L430,469v86l-1.11,2.77Z"/>
    <polygon points="328.51 914.63 311.01 732.38 318.97 731.62 335.47 903.37 371.98 889.26 371.3 671.35 379.3 671.32 380 894.74 328.51 914.63"/>
    <path d="M400.45,991.22c-12.76,0-29.8-16.28-43.93-29.78-3.77-3.6-7.33-7-10.13-9.4-15.47-13.26-11.54-45-11.36-46.3l7.93,1-4-.52,4,.51c0,.29-3.55,28.75,8.63,39.19,3,2.54,6.6,6,10.45,9.69,11.59,11.07,33.16,31.67,40.85,26.94.09-.05.17-.1.23-.52.67-5.1-10.68-25.33-38-54.32l-1.19-1.27L366,893.74l8,.52-1.89,29.28c3,3.26,11.27,12.35,19.28,22.46,18.89,23.83,20.28,32.6,19.68,37.12a8.41,8.41,0,0,1-4,6.29A12.43,12.43,0,0,1,400.45,991.22Z"/>
    <path d="M291.1,651.77l-90-94L200,555V469l1.77-3.32,52-35,4.46,6.64L208,471.13v82.26L292.78,642c2.62-5.11,7.1-12.19,13.11-15.35l-49.7-61.13-.79-1.59-15.3-64,7.78-1.86L263,561.14l53.12,65.34-3.46,6.5c-6-.54-12.63,11.52-14.9,17.45Z"/>
    <polygon points="314.99 682.03 232.81 671.5 236.58 594.69 244.57 595.08 241.17 664.5 314.99 673.97 388.81 664.5 385.41 595.08 393.4 594.69 397.17 671.5 314.99 682.03"/>
    <polygon points="301.47 914.63 249.98 894.74 250.68 671.32 258.68 671.35 258 889.26 294.51 903.37 311.01 731.62 318.97 732.38 301.47 914.63"/>
    <path d="M229.53,991.22a12.43,12.43,0,0,1-6.64-1.81,8.41,8.41,0,0,1-4-6.29c-.6-4.52.79-13.29,19.67-37.12,8-10.11,16.27-19.2,19.29-22.46L256,894.26l8-.52,2.11,32.74-1.19,1.27c-19.5,20.67-39.06,46.64-38,54.32.06.42.14.47.23.52,7.69,4.73,29.26-15.87,40.85-26.94,3.85-3.67,7.48-7.15,10.45-9.69,12.18-10.44,8.66-38.9,8.63-39.19l7.93-1c.18,1.34,4.11,33-11.36,46.3-2.8,2.4-6.36,5.8-10.13,9.4C259.33,974.94,242.29,991.22,229.53,991.22Z"/>
    <g>
      <rect class="cls-17" x="258.41" y="509.04" width="112.58" height="70.38" transform="translate(629.4 1088.47) rotate(-180)"/>
      <path d="M375,583.43H254.41V505H375Zm-112.58-8H367V513H262.41Z"/>
    </g>
    <rect x="310.99" y="517" width="8" height="55"/>
    <rect x="296" y="552.94" width="37.98" height="8"/>
    <path d="M298.24,680.75l-1.14-2.84a10.71,10.71,0,0,1-3.73.88l-2.94-5.1a5.5,5.5,0,0,1-3.41.19l-2.92-4.8c.34-1.47,8.79-36.29,32.68-43.89l2.42,7.62c-12.19,3.88-19.77,17.61-23.77,27.48,2.12-2,4.41-4.45,6.54-6.91l6.41,4.74-1.1,1.77,3.4.69c.28-.49.52-1,.73-1.36L319,661.5A22.32,22.32,0,0,1,315,671c12.41-5.83,18.41-25.26,18.48-25.5l7.66,2.31a70.66,70.66,0,0,1-8.35,17.25C324.92,676.74,315,682,304.07,680.38l-.27-1A13.61,13.61,0,0,1,298.24,680.75Z"/>
    <path d="M326,690.48l-19.72-11.23,4-7,6.49,3.69-.47-.78,5.89-5.21.23.18,4-3.53.49.46,6.23-4.45c7.49,10.49,11,17.66,10.28,21.32a5.11,5.11,0,0,1-2.16,3.35l-5-.41L335,685.75l-2.47,2.41-2.43-1.88Z"/>
    <path d="M320.79,0a13,13,0,0,1-3.37,5.27c-3.21,3.21-6.3,3.81-7.06,3.52-.29-.75.31-3.84,3.53-7.06A15.45,15.45,0,0,1,315.94,0H305.07c-3.45,5.35-3.76,11.08-.37,14.46h0a8.44,8.44,0,0,0,6.13,2.39c3.88,0,8.38-2.06,12.25-5.93a20.84,20.84,0,0,0,5.43-8.85A13.06,13.06,0,0,0,328.92,0Z"/>
    <path d="M1614.93,0h-10.87a15.45,15.45,0,0,1,2,1.73c3.22,3.22,3.82,6.31,3.53,7.06-.76.3-3.85-.31-7.06-3.52A13,13,0,0,1,1599.21,0h-8.13a19.13,19.13,0,0,0,5.84,10.92c3.87,3.87,8.37,5.93,12.25,5.93a8.44,8.44,0,0,0,6.13-2.39c2.26-2.26,3-5.73,1.9-9.53A18.46,18.46,0,0,0,1614.93,0Z"/>
  </g>
</svg>
