<svg xmlns="http://www.w3.org/2000/svg" xmlns:xlink="http://www.w3.org/1999/xlink" viewBox="0 0 1920 1080">
  <defs>
    <style>
      .cls-1 {
        fill: none;
      }

      .cls-2 {
        fill: #29aae1;
      }

      .cls-3, .cls-5 {
        fill: #00a89c;
      }

      .cls-4 {
        fill: #39b44a;
      }

      .cls-4, .cls-5 {
        stroke: #000;
        stroke-miterlimit: 10;
        stroke-width: 8px;
      }

      .cls-6 {
        fill: url(#New_Pattern_Swatch_8);
      }

      .cls-7 {
        fill: #ff4848;
      }

      .cls-8 {
        fill: url(#New_Pattern_Swatch_1);
      }

      .cls-9 {
        fill: #c59b6d;
      }

      .cls-10 {
        fill: #ffe500;
      }

      .cls-11 {
        fill: #615f85;
      }

      .cls-12 {
        fill: #87ff76;
      }

      .cls-13 {
        fill: #ffeca7;
      }

      .cls-14 {
        fill: #2b293a;
      }

      .cls-15 {
        fill: #fff;
      }

      .cls-16 {
        fill: url(#New_Pattern_Swatch_1-3);
      }
    </style>
    <pattern id="New_Pattern_Swatch_8" data-name="New Pattern Swatch 8" width="206" height="198" patternTransform="translate(-44 -30)" patternUnits="userSpaceOnUse" viewBox="0 0 206 198">
      <rect class="cls-1" width="206" height="198"/>
      <rect class="cls-4" x="-51" y="-60.5" width="51" height="122" rx="25.5"/>
      <g>
        <rect class="cls-5" y="-61.5" width="51" height="122" rx="25.5"/>
        <rect class="cls-4" x="52" y="-60.5" width="51" height="122" rx="25.5"/>
      </g>
      <g>
        <rect class="cls-5" x="103" y="-61.5" width="51" height="122" rx="25.5"/>
        <rect class="cls-4" x="155" y="-60.5" width="51" height="122" rx="25.5"/>
      </g>
      <rect class="cls-5" x="206" y="-61.5" width="51" height="122" rx="25.5"/>
      <g>
        <rect class="cls-5" x="-51.5" y="37.5" width="51" height="122" rx="25.5"/>
        <rect class="cls-4" x="0.5" y="38.5" width="51" height="122" rx="25.5"/>
      </g>
      <g>
        <rect class="cls-5" x="51.5" y="37.5" width="51" height="122" rx="25.5"/>
        <rect class="cls-4" x="103.5" y="38.5" width="51" height="122" rx="25.5"/>
      </g>
      <g>
        <rect class="cls-5" x="154.5" y="37.5" width="51" height="122" rx="25.5"/>
        <rect class="cls-4" x="206.5" y="38.5" width="51" height="122" rx="25.5"/>
      </g>
      <rect class="cls-4" x="-51" y="137.5" width="51" height="122" rx="25.5"/>
      <g>
        <rect class="cls-5" y="136.5" width="51" height="122" rx="25.5"/>
        <rect class="cls-4" x="52" y="137.5" width="51" height="122" rx="25.5"/>
      </g>
      <g>
        <rect class="cls-5" x="103" y="136.5" width="51" height="122" rx="25.5"/>
        <rect class="cls-4" x="155" y="137.5" width="51" height="122" rx="25.5"/>
      </g>
      <rect class="cls-5" x="206" y="136.5" width="51" height="122" rx="25.5"/>
    </pattern>
    <pattern id="New_Pattern_Swatch_1" data-name="New Pattern Swatch 1" width="135" height="135" patternTransform="translate(1)" patternUnits="userSpaceOnUse" viewBox="0 0 135 135">
      <rect class="cls-1" width="135" height="135"/>
      <g>
        <g>
          <polygon class="cls-2" points="16.56 151.5 50.5 117.56 84.44 151.5 50.5 185.44 16.56 151.5"/>
          <path d="M50.5,123.22,22.22,151.5,50.5,179.78,78.78,151.5,50.5,123.22m0-11.32,39.6,39.6L50.5,191.1,10.9,151.5l39.6-39.6Z"/>
        </g>
        <g>
          <polygon class="cls-2" points="84.56 151.5 118.5 117.56 152.44 151.5 118.5 185.44 84.56 151.5"/>
          <path d="M118.5,123.22,90.22,151.5l28.28,28.28,28.28-28.28L118.5,123.22m0-11.32,39.6,39.6-39.6,39.6L78.9,151.5l39.6-39.6Z"/>
        </g>
      </g>
      <g>
        <polygon class="cls-2" points="-50.44 151.5 -16.5 117.56 17.44 151.5 -16.5 185.44 -50.44 151.5"/>
        <path d="M-16.5,123.22-44.78,151.5l28.28,28.28L11.78,151.5-16.5,123.22m0-11.32,39.6,39.6-39.6,39.6-39.6-39.6,39.6-39.6Z"/>
      </g>
      <g>
        <g>
          <polygon class="cls-3" points="117.56 50.5 151.5 16.56 185.44 50.5 151.5 84.44 117.56 50.5"/>
          <path d="M151.5,22.22,123.22,50.5,151.5,78.78,179.78,50.5,151.5,22.22m0-11.32,39.6,39.6L151.5,90.1,111.9,50.5l39.6-39.6Z"/>
        </g>
        <g>
          <polygon class="cls-3" points="117.56 118.5 151.5 84.56 185.44 118.5 151.5 152.44 117.56 118.5"/>
          <path d="M151.5,90.22,123.22,118.5l28.28,28.28,28.28-28.28L151.5,90.22m0-11.32,39.6,39.6-39.6,39.6-39.6-39.6,39.6-39.6Z"/>
        </g>
      </g>
      <g>
        <g>
          <polygon class="cls-2" points="16.56 84.5 50.5 50.56 84.44 84.5 50.5 118.44 16.56 84.5"/>
          <path d="M50.5,56.22,22.22,84.5,50.5,112.78,78.78,84.5,50.5,56.22m0-11.32L90.1,84.5,50.5,124.1,10.9,84.5,50.5,44.9Z"/>
        </g>
        <g>
          <polygon class="cls-2" points="84.56 84.5 118.5 50.56 152.44 84.5 118.5 118.44 84.56 84.5"/>
          <path d="M118.5,56.22,90.22,84.5l28.28,28.28L146.78,84.5,118.5,56.22m0-11.32,39.6,39.6-39.6,39.6L78.9,84.5l39.6-39.6Z"/>
        </g>
        <g>
          <polygon class="cls-2" points="16.56 16.5 50.5 -17.44 84.44 16.5 50.5 50.44 16.56 16.5"/>
          <path d="M50.5-11.78,22.22,16.5,50.5,44.78,78.78,16.5,50.5-11.78m0-11.32L90.1,16.5,50.5,56.1,10.9,16.5,50.5-23.1Z"/>
        </g>
        <g>
          <polygon class="cls-2" points="84.56 16.5 118.5 -17.44 152.44 16.5 118.5 50.44 84.56 16.5"/>
          <path d="M118.5-11.78,90.22,16.5,118.5,44.78,146.78,16.5,118.5-11.78m0-11.32,39.6,39.6L118.5,56.1,78.9,16.5l39.6-39.6Z"/>
        </g>
        <g>
          <polygon class="cls-3" points="-17.44 50.5 16.5 16.56 50.44 50.5 16.5 84.44 -17.44 50.5"/>
          <path d="M16.5,22.22-11.78,50.5,16.5,78.78,44.78,50.5,16.5,22.22m0-11.32L56.1,50.5,16.5,90.1-23.1,50.5,16.5,10.9Z"/>
        </g>
        <g>
          <polygon class="cls-3" points="50.56 50.5 84.5 16.56 118.44 50.5 84.5 84.44 50.56 50.5"/>
          <path d="M84.5,22.22,56.22,50.5,84.5,78.78,112.78,50.5,84.5,22.22m0-11.32,39.6,39.6L84.5,90.1,44.9,50.5,84.5,10.9Z"/>
        </g>
        <g>
          <polygon class="cls-3" points="-17.44 118.5 16.5 84.56 50.44 118.5 16.5 152.44 -17.44 118.5"/>
          <path d="M16.5,90.22-11.78,118.5,16.5,146.78,44.78,118.5,16.5,90.22m0-11.32,39.6,39.6L16.5,158.1l-39.6-39.6L16.5,78.9Z"/>
        </g>
        <g>
          <polygon class="cls-3" points="50.56 118.5 84.5 84.56 118.44 118.5 84.5 152.44 50.56 118.5"/>
          <path d="M84.5,90.22,56.22,118.5,84.5,146.78l28.28-28.28L84.5,90.22m0-11.32,39.6,39.6L84.5,158.1,44.9,118.5,84.5,78.9Z"/>
        </g>
      </g>
      <g>
        <g>
          <polygon class="cls-2" points="-50.44 84.5 -16.5 50.56 17.44 84.5 -16.5 118.44 -50.44 84.5"/>
          <path d="M-16.5,56.22-44.78,84.5l28.28,28.28L11.78,84.5-16.5,56.22m0-11.32L23.1,84.5l-39.6,39.6L-56.1,84.5l39.6-39.6Z"/>
        </g>
        <g>
          <polygon class="cls-2" points="-50.44 16.5 -16.5 -17.44 17.44 16.5 -16.5 50.44 -50.44 16.5"/>
          <path d="M-16.5-11.78-44.78,16.5-16.5,44.78,11.78,16.5-16.5-11.78m0-11.32L23.1,16.5-16.5,56.1-56.1,16.5l39.6-39.6Z"/>
        </g>
      </g>
      <g>
        <polygon class="cls-3" points="117.56 -16.5 151.5 -50.44 185.44 -16.5 151.5 17.44 117.56 -16.5"/>
        <path d="M151.5-44.78,123.22-16.5,151.5,11.78,179.78-16.5,151.5-44.78m0-11.32,39.6,39.6L151.5,23.1,111.9-16.5l39.6-39.6Z"/>
      </g>
      <g>
        <g>
          <polygon class="cls-3" points="-17.44 -16.5 16.5 -50.44 50.44 -16.5 16.5 17.44 -17.44 -16.5"/>
          <path d="M16.5-44.78-11.78-16.5,16.5,11.78,44.78-16.5,16.5-44.78m0-11.32L56.1-16.5,16.5,23.1-23.1-16.5,16.5-56.1Z"/>
        </g>
        <g>
          <polygon class="cls-3" points="50.56 -16.5 84.5 -50.44 118.44 -16.5 84.5 17.44 50.56 -16.5"/>
          <path d="M84.5-44.78,56.22-16.5,84.5,11.78,112.78-16.5,84.5-44.78m0-11.32,39.6,39.6L84.5,23.1,44.9-16.5,84.5-56.1Z"/>
        </g>
      </g>
    </pattern>
    <pattern id="New_Pattern_Swatch_1-3" data-name="New Pattern Swatch 1" width="135" height="135" patternTransform="matrix(-1, 0, 0, 1, -89, 0)" patternUnits="userSpaceOnUse" viewBox="0 0 135 135">
      <rect class="cls-1" width="135" height="135"/>
      <g>
        <g>
          <polygon class="cls-2" points="16.56 151.5 50.5 117.56 84.44 151.5 50.5 185.44 16.56 151.5"/>
          <path d="M50.5,123.22,22.22,151.5,50.5,179.78,78.78,151.5,50.5,123.22m0-11.32,39.6,39.6L50.5,191.1,10.9,151.5l39.6-39.6Z"/>
        </g>
        <g>
          <polygon class="cls-2" points="84.56 151.5 118.5 117.56 152.44 151.5 118.5 185.44 84.56 151.5"/>
          <path d="M118.5,123.22,90.22,151.5l28.28,28.28,28.28-28.28L118.5,123.22m0-11.32,39.6,39.6-39.6,39.6L78.9,151.5l39.6-39.6Z"/>
        </g>
      </g>
      <g>
        <polygon class="cls-2" points="-50.44 151.5 -16.5 117.56 17.44 151.5 -16.5 185.44 -50.44 151.5"/>
        <path d="M-16.5,123.22-44.78,151.5l28.28,28.28L11.78,151.5-16.5,123.22m0-11.32,39.6,39.6-39.6,39.6-39.6-39.6,39.6-39.6Z"/>
      </g>
      <g>
        <g>
          <polygon class="cls-3" points="117.56 50.5 151.5 16.56 185.44 50.5 151.5 84.44 117.56 50.5"/>
          <path d="M151.5,22.22,123.22,50.5,151.5,78.78,179.78,50.5,151.5,22.22m0-11.32,39.6,39.6L151.5,90.1,111.9,50.5l39.6-39.6Z"/>
        </g>
        <g>
          <polygon class="cls-3" points="117.56 118.5 151.5 84.56 185.44 118.5 151.5 152.44 117.56 118.5"/>
          <path d="M151.5,90.22,123.22,118.5l28.28,28.28,28.28-28.28L151.5,90.22m0-11.32,39.6,39.6-39.6,39.6-39.6-39.6,39.6-39.6Z"/>
        </g>
      </g>
      <g>
        <g>
          <polygon class="cls-2" points="16.56 84.5 50.5 50.56 84.44 84.5 50.5 118.44 16.56 84.5"/>
          <path d="M50.5,56.22,22.22,84.5,50.5,112.78,78.78,84.5,50.5,56.22m0-11.32L90.1,84.5,50.5,124.1,10.9,84.5,50.5,44.9Z"/>
        </g>
        <g>
          <polygon class="cls-2" points="84.56 84.5 118.5 50.56 152.44 84.5 118.5 118.44 84.56 84.5"/>
          <path d="M118.5,56.22,90.22,84.5l28.28,28.28L146.78,84.5,118.5,56.22m0-11.32,39.6,39.6-39.6,39.6L78.9,84.5l39.6-39.6Z"/>
        </g>
        <g>
          <polygon class="cls-2" points="16.56 16.5 50.5 -17.44 84.44 16.5 50.5 50.44 16.56 16.5"/>
          <path d="M50.5-11.78,22.22,16.5,50.5,44.78,78.78,16.5,50.5-11.78m0-11.32L90.1,16.5,50.5,56.1,10.9,16.5,50.5-23.1Z"/>
        </g>
        <g>
          <polygon class="cls-2" points="84.56 16.5 118.5 -17.44 152.44 16.5 118.5 50.44 84.56 16.5"/>
          <path d="M118.5-11.78,90.22,16.5,118.5,44.78,146.78,16.5,118.5-11.78m0-11.32,39.6,39.6L118.5,56.1,78.9,16.5l39.6-39.6Z"/>
        </g>
        <g>
          <polygon class="cls-3" points="-17.44 50.5 16.5 16.56 50.44 50.5 16.5 84.44 -17.44 50.5"/>
          <path d="M16.5,22.22-11.78,50.5,16.5,78.78,44.78,50.5,16.5,22.22m0-11.32L56.1,50.5,16.5,90.1-23.1,50.5,16.5,10.9Z"/>
        </g>
        <g>
          <polygon class="cls-3" points="50.56 50.5 84.5 16.56 118.44 50.5 84.5 84.44 50.56 50.5"/>
          <path d="M84.5,22.22,56.22,50.5,84.5,78.78,112.78,50.5,84.5,22.22m0-11.32,39.6,39.6L84.5,90.1,44.9,50.5,84.5,10.9Z"/>
        </g>
        <g>
          <polygon class="cls-3" points="-17.44 118.5 16.5 84.56 50.44 118.5 16.5 152.44 -17.44 118.5"/>
          <path d="M16.5,90.22-11.78,118.5,16.5,146.78,44.78,118.5,16.5,90.22m0-11.32,39.6,39.6L16.5,158.1l-39.6-39.6L16.5,78.9Z"/>
        </g>
        <g>
          <polygon class="cls-3" points="50.56 118.5 84.5 84.56 118.44 118.5 84.5 152.44 50.56 118.5"/>
          <path d="M84.5,90.22,56.22,118.5,84.5,146.78l28.28-28.28L84.5,90.22m0-11.32,39.6,39.6L84.5,158.1,44.9,118.5,84.5,78.9Z"/>
        </g>
      </g>
      <g>
        <g>
          <polygon class="cls-2" points="-50.44 84.5 -16.5 50.56 17.44 84.5 -16.5 118.44 -50.44 84.5"/>
          <path d="M-16.5,56.22-44.78,84.5l28.28,28.28L11.78,84.5-16.5,56.22m0-11.32L23.1,84.5l-39.6,39.6L-56.1,84.5l39.6-39.6Z"/>
        </g>
        <g>
          <polygon class="cls-2" points="-50.44 16.5 -16.5 -17.44 17.44 16.5 -16.5 50.44 -50.44 16.5"/>
          <path d="M-16.5-11.78-44.78,16.5-16.5,44.78,11.78,16.5-16.5-11.78m0-11.32L23.1,16.5-16.5,56.1-56.1,16.5l39.6-39.6Z"/>
        </g>
      </g>
      <g>
        <polygon class="cls-3" points="117.56 -16.5 151.5 -50.44 185.44 -16.5 151.5 17.44 117.56 -16.5"/>
        <path d="M151.5-44.78,123.22-16.5,151.5,11.78,179.78-16.5,151.5-44.78m0-11.32,39.6,39.6L151.5,23.1,111.9-16.5l39.6-39.6Z"/>
      </g>
      <g>
        <g>
          <polygon class="cls-3" points="-17.44 -16.5 16.5 -50.44 50.44 -16.5 16.5 17.44 -17.44 -16.5"/>
          <path d="M16.5-44.78-11.78-16.5,16.5,11.78,44.78-16.5,16.5-44.78m0-11.32L56.1-16.5,16.5,23.1-23.1-16.5,16.5-56.1Z"/>
        </g>
        <g>
          <polygon class="cls-3" points="50.56 -16.5 84.5 -50.44 118.44 -16.5 84.5 17.44 50.56 -16.5"/>
          <path d="M84.5-44.78,56.22-16.5,84.5,11.78,112.78-16.5,84.5-44.78m0-11.32,39.6,39.6L84.5,23.1,44.9-16.5,84.5-56.1Z"/>
        </g>
      </g>
    </pattern>
  </defs>
  <title>Illustration3</title>
  <g id="Layer_3" data-name="Layer 3">
    <rect class="cls-6" width="1920" height="1080"/>
  </g>
  <g id="Layer_1" data-name="Layer 1">
    <g>
      <path class="cls-7" d="M1851.92,942.48l1.08,0V499.57l-1.08,0a50.68,50.68,0,0,1-50.83-50.53c0-.36,0-.71,0-1.07H1426.88c0,.36,0,.71,0,1.07a50.68,50.68,0,0,1-50.83,50.53l-1.08,0V942.5l1.08,0A50.68,50.68,0,0,1,1426.91,993h374.18A50.68,50.68,0,0,1,1851.92,942.48Z"/>
      <path d="M1805.09,997H1422.91v-4a46.73,46.73,0,0,0-46.83-46.52h-.54l-4.54.1V495.48l4.54.1.54,0a46.73,46.73,0,0,0,46.83-46.53c0-.17,0-.35,0-.53l-.11-4.54h382.42l-.11,4.54c0,.18,0,.36,0,.53a46.73,46.73,0,0,0,46.83,46.53l.54,0,4.54-.1V946.59l-4.54-.1h-.54A46.73,46.73,0,0,0,1805.09,993Zm-374.33-8h366.48A54.77,54.77,0,0,1,1849,938.55v-435A54.74,54.74,0,0,1,1797.17,452H1430.83A54.74,54.74,0,0,1,1379,503.52v435A54.77,54.77,0,0,1,1430.76,989Z"/>
    </g>
    <g>
      <path class="cls-8" d="M1834,927c.34,0,.67,0,1,0V515c-.33,0-.66,0-1,0a47,47,0,0,1-47-47c0-.34,0-.67,0-1H1441c0,.33,0,.66,0,1a47,47,0,0,1-47,47c-.34,0-.67,0-1,0V927c.33,0,.66,0,1,0a47,47,0,0,1,47,47h346A47,47,0,0,1,1834,927Z"/>
      <path d="M1791,978H1437v-4a43,43,0,0,0-43-43h-.48l-4.52.1V510.89l4.51.1h.49a43,43,0,0,0,43-43c0-.16,0-.32,0-.48l-.1-4.52h354.22l-.1,4.52c0,.16,0,.32,0,.48a43,43,0,0,0,43,43h.49l4.51-.1V931.11l-4.52-.1H1834a43,43,0,0,0-43,43Zm-346.16-8h338.32A51.07,51.07,0,0,1,1831,923.09V518.91A51.07,51.07,0,0,1,1783.09,471H1444.91A51.07,51.07,0,0,1,1397,518.91V923.09A51.07,51.07,0,0,1,1444.84,970Z"/>
    </g>
    <g>
      <polyline class="cls-9" points="1529.34 843.49 1496 933 1508 933 1564.17 843.97"/>
      <polygon points="1510.21 937 1490.24 937 1525.59 842.1 1533.09 844.89 1501.76 929 1505.79 929 1560.79 841.84 1567.56 846.11 1510.21 937"/>
    </g>
    <g>
      <polyline class="cls-9" points="1687.83 842.49 1721.17 932 1709.17 932 1653 842.97"/>
      <polygon points="1726.93 936 1706.97 936 1649.62 845.11 1656.38 840.84 1711.38 928 1715.41 928 1684.08 843.89 1691.58 841.1 1726.93 936"/>
    </g>
    <g>
      <rect class="cls-9" x="1434" y="623" width="355" height="220"/>
      <path d="M1793,847H1430V619h363Zm-355-8h347V627H1438Z"/>
    </g>
    <polygon class="cls-10" points="1505 772 1460 772 1460 664 1503 649 1505 772"/>
    <polygon class="cls-11" points="1646 772 1691 772 1691 664 1648 649 1646 772"/>
    <polygon class="cls-2" points="1550 772 1505 772 1505 650.83 1549 641 1550 772"/>
    <polygon class="cls-7" points="1599 772 1644 772 1644 650.83 1600 641 1599 772"/>
    <polygon class="cls-12" points="1597 772 1552 772 1552 640 1596 641 1597 772"/>
    <polygon points="1687 806 1574 827 1576 776 1691 776 1687 806"/>
    <polygon class="cls-13" points="1528 821 1478 807 1481 775 1528 775 1528 821"/>
    <rect class="cls-11" x="1531" y="776" width="42" height="47"/>
    <rect class="cls-11" x="1460" y="776" width="20" height="28"/>
    <g>
      <polygon class="cls-13" points="809.5 447 909.5 405 959.5 496 903.5 560 977.5 585 903.5 644 1002.5 691 961.5 635 1061.5 565 973.5 543 1047.5 462 1024.5 418 1131.5 442 1092.5 642 1093.5 809 846.5 812 845.5 644 809.5 447"/>
      <path d="M842.52,816.05l-1-171.68L805,444.56l106.28-44.64,53.08,96.61-53.9,61.6,75.28,25.43L911,643.13l78.93,37.48-34.07-46.54L1052,566.75l-86-21.5,76.64-83.88L1017,412.21,1136.17,439,1096.5,642.37l1,170.58ZM814,449.44,849.5,643.63V644l1,164,239-2.9-1-163.42.07-.4,38.26-196.18L1032,423.79l20.3,38.84L981,540.75l90,22.5L967.14,635.93l47.93,65.46L896,644.87l73.27-58.43-72.72-24.57,58.1-66.4-46.92-85.39Z"/>
    </g>
    <g>
      <path class="cls-14" d="M738.5,387s1,50,28,71l-24,5s-18-23-18-37c0,0,2,30,8,38h-14s-8-24-8-34v34l-11-2s-7-20-4-32l-2,31-13-7s0-19,3-23l-7,22-8-2s5-54,31-70"/>
      <path d="M732.5,468h-14l-3.79-2.73-.37-1.13-4.56,3.8-11-2-3.06-2.62c0-.09-.14-.41-.3-.91l-3.82,2.11-13-7-1.05-1.77-2,1.13-8-2-3-4.25a175.37,175.37,0,0,1,5.89-29.75c6.26-21.55,15.34-36.11,27-43.29l4.2,6.82C681.21,397,674.48,436.16,672.89,448l.94.24,4-12.61c.56-3,1.35-5.52,2.46-7l7,3.61-1.72,5.42a110,110,0,0,0-1.07,14l5.39,2.9.94-14.63a37,37,0,0,1,.77-10.86l7.87,1.23-.62,9.65a89.63,89.63,0,0,0,3.69,18.58l3.94.72V430h8c0,6.77,4.39,22,6.91,30h4.76c-3.33-9.59-4.88-24.3-5.43-30.78a22.43,22.43,0,0,1-.24-3.22l8-.27c.06.84.12,1.73.2,2.66,1.42,9.49,10.46,23.38,15.47,30.18L758,455.68c-22.37-23.81-23.5-66.64-23.54-68.6l8-.16c0,.48,1.3,48.36,26.46,67.92l-1.64,7.08-24,5-4-1.45c-.63-.8-2.83-3.66-5.52-7.67a15.41,15.41,0,0,0,1.87,3.8Z"/>
    </g>
    <g>
      <path class="cls-14" d="M785.5,346l13-7s10-19,1-25c0,0,19,9,24,7l15-15s-20,4-38-12c0,0,47-2,58-11l21-36s-30,19-64,15c0,0,64-21,73-35l13-40s-45,39-74,39c0,0,57-35,77-58l2-36s-39,47-63,53c0,0,60-65,63-80,0,0,5-34-8-53,0,0-48,94-112,128s-60,110-60,110"/>
      <path d="M787.4,349.52l-3.8-7,11.89-6.4c2.58-5.42,6-16,1.79-18.75l3.93-6.95c8.22,3.9,17.2,6.94,20.27,6.94h0l7-7A52.17,52.17,0,0,1,797.84,297l2.49-7c17.26-.73,47-4,55.11-9.7l13.72-23.51c-12.28,5.36-32.3,11.75-54.13,9.18l-.78-7.77c23.9-7.84,63.79-23.6,70.62-33l8.67-26.68c-15.4,11.76-44.43,31.46-66,31.46l-2.09-7.41c.55-.34,55-33.91,75.17-56.2l1.28-23C889,157.6,863,184.24,844.47,188.88l-3.91-6.59c22.83-24.74,59.75-67.67,62-78,.24-1.81,3.41-26.55-4-43.94a472.21,472.21,0,0,1-28.77,45.21c-26.91,37.33-54.29,63.55-81.37,77.94-61,32.43-57.92,105.53-57.89,106.26l-8,.42c0-.8-1-20,6.16-43.61,9.47-31.47,28.82-55.72,56-70.13,62.13-33,109.84-125.36,110.32-126.29l6.86-.44c13.73,20.06,8.87,54.39,8.66,55.84l0,.2c-2.19,11-29.67,43.48-48.06,64.28,19.93-15.29,40.78-40.27,41.06-40.61l7.07,2.77-2,36-1,2.4c-12.47,14.34-38.38,32.85-56.92,45.25,23.62-10.68,47.95-31.61,48.28-31.89l6.42,4.26-13,40-.44.92c-5.9,9.19-30.92,20.27-50.61,27.86a114,114,0,0,0,36.11-13.4L883,249l-21,36L861,286.1c-8.47,6.93-33.78,9.95-48.95,11.17a41.56,41.56,0,0,0,25.65,4.8l3.6,6.76-15,15-1.34.88c-3.79,1.52-11-.45-17.73-3,.26,8.37-4.43,17.66-5.22,19.16l-1.64,1.66Z"/>
    </g>
    <g>
      <path class="cls-14" d="M863.5,428s-13-34-57-40-101,5-146-23c0,0,6.5-10.5,4.5-22.5,0,0-13,14-24,15l-22-13s24-7,29-21c0,0-37,11-47,11,0,0-26-20-31-30,0,0,44,1,66-10,0,0-83-16-90-22l-15-31s88,22,101,20c0,0-87-29-109-48l-7-28s78,45,117,51c0,0-83-34-126-88,0,0-8-34,6-79,0,0,61,101,150,121s-11,80,151,175c0,0,40-23,48,26C862,391.5,881,413.5,863.5,428Z"/>
      <path d="M866.05,431.08l-6.27-1.65h0c-.51-1.3-12.84-31.89-53.81-37.48-13.19-1.8-27.54-2-42.74-2.3-34-.57-72.63-1.22-104.83-21.26l-1.29-5.51A34.22,34.22,0,0,0,661,351.67c-5.19,4.28-12.55,9.17-19.65,9.81l-2.4-.54-22-13,.92-7.28c4.17-1.22,13.21-4.77,19.68-10-12,3.31-29.64,7.85-36.56,7.85l-2.44-.83c-2.73-2.1-26.88-20.86-32.14-31.38l3.67-5.79c.35,0,29,.57,50.8-4.9-26.76-5.37-71.55-15-77.49-20.06l-1-1.3-15-31,4.57-5.62c17.94,4.48,41.2,10,60.84,14-26.64-10.17-59.66-24.12-72.42-35.14l-1.27-2.06-7-28L518,182c.48.27,30.28,17.39,61.87,31.75-25.5-15.26-55.16-36.63-76-62.8l-.76-1.57c-.34-1.44-8.09-35.59,6.07-81.11l7.24-.88a345.16,345.16,0,0,0,41.23,52.44c23.66,24.87,61.29,56.63,106.23,66.73,41.25,9.27,44.68,27.9,49,51.49,5.48,29.82,13,70.58,101.23,122.85,5.35-2.56,19.73-8.19,32.53-2.11,9.89,4.7,16.32,15.12,19.11,31,2.45,3.14,10,13.79,9.05,25.19C874.3,421.28,871.35,426.69,866.05,431.08Zm-200.29-67.6c29.64,17,64.17,17.62,97.6,18.19,15.44.26,30,.5,43.68,2.37,35.3,4.81,51.6,26.57,57.49,37a14.06,14.06,0,0,0,2.32-6.68c.85-9.93-7.79-20.14-7.88-20.24l-.92-2c-2.23-13.67-7.21-22.45-14.8-26.07-11.93-5.69-27.11,2.81-27.26,2.9l-4,0c-41.1-24.1-69.25-48.08-86.08-73.31-14.57-21.83-18.06-40.83-20.87-56.1-4.25-23.09-6.81-37-42.91-45.14-47-10.55-86-43.42-110.39-69.14a367.79,367.79,0,0,1-37.3-46.2c-9.18,35.46-4.69,62.64-3.71,67.69,42,52.12,123,85.71,123.8,86.05l-2.13,7.65c-16.58-2.55-41.57-12-74.28-28.11-14.84-7.31-28-14.39-36-18.81l4.43,17.74c22.65,18.29,105.85,46.15,106.71,46.44l-.66,7.74c-11.42,1.77-71.2-12.39-94.3-18l10.83,22.39c6.68,3.71,49.05,13.33,87.62,20.76l1,7.51c-17.08,8.54-46,10.15-60,10.4,6.67,7.49,18.46,17.26,24.47,22,9.16-.71,34.93-7.91,44.56-10.77l4.91,5.18c-3.65,10.2-15.41,16.91-23.53,20.46l13.59,8c7.58-1.47,17.07-10.16,20.24-13.56l6.88,2.06C670.45,350.85,667.75,359,665.76,363.48Z"/>
    </g>
    <g>
      <path class="cls-15" d="M847.5,386s3-14-20-15c0,0,10,6,11,14S847.5,386,847.5,386Z"/>
      <path d="M841.64,392.84a6.85,6.85,0,0,1-2.46-.45c-1.82-.69-4.09-2.44-4.65-6.89-.62-5-6.93-9.77-9.09-11.07l2.23-7.43c9.92.44,16.93,3.21,20.82,8.25a14.74,14.74,0,0,1,2.92,11.59L850.13,389C849,390,845.42,392.84,841.64,392.84Zm-1.18-14.35a16.88,16.88,0,0,1,2,6v.05a9,9,0,0,0,1.13-.64,7.07,7.07,0,0,0-1.53-3.88A9.18,9.18,0,0,0,840.46,378.49Z"/>
    </g>
    <g>
      <path class="cls-14" d="M1181.5,387s-1,50-28,71l24,5s18-23,18-37c0,0-2,30-8,38h14s8-24,8-34v34l11-2s7-20,4-32l2,31,13-7s0-19-3-23l7,22,8-2s-5-54-31-70"/>
      <path d="M1201.5,468h-14l-3.2-6.4a15,15,0,0,0,1.91-3.93c-3,4.56-5.42,7.62-5.56,7.8l-4,1.45-24-5-1.64-7.08c25.16-19.56,26.45-67.44,26.46-67.92l8,.16c0,2-1.17,44.79-23.54,68.6l13.88,2.89c5-6.8,14-20.69,15.47-30.18.08-.93.14-1.82.2-2.66l8,.27a23,23,0,0,1-.24,3.23c-.55,6.48-2.1,21.19-5.43,30.77h4.76c2.52-8,6.91-23.23,6.91-30h8v29.21l3.94-.72a89.63,89.63,0,0,0,3.69-18.58l-.62-9.65,7.87-1.23a37,37,0,0,1,.77,10.86l.94,14.63,5.39-2.9a112.41,112.41,0,0,0-1.07-14l-1.72-5.4,7-3.61c1.11,1.48,1.9,4,2.46,7l4,12.61.94-.24c-1.59-11.81-8.32-51-28.71-63.56l4.2-6.82c11.65,7.18,20.73,21.74,27,43.29a175.37,175.37,0,0,1,5.89,29.75l-3,4.25-8,2-2-1.13-1,1.77-13,7-3.82-2.11c-.16.5-.27.82-.3.91l-3.06,2.62-11,2-4.56-3.8-.37,1.13Z"/>
    </g>
    <g>
      <path class="cls-14" d="M1134.5,346l-13-7s-10-19-1-25c0,0-19,9-24,7l-15-15s20,4,38-12c0,0-47-2-58-11l-21-36s30,19,64,15c0,0-64-21-73-35l-13-40s45,39,74,39c0,0-57-35-77-58l-2-36s39,47,63,53c0,0-60-65-63-80,0,0-5-34,8-53,0,0,48,94,112,128s60,110,60,110"/>
      <path d="M1132.6,349.52l-13-7-1.64-1.66c-.79-1.5-5.48-10.79-5.22-19.16-6.7,2.56-13.94,4.53-17.73,3l-1.34-.88-15-15,3.61-6.75a41.66,41.66,0,0,0,25.64-4.81c-15.17-1.22-40.48-4.24-49-11.17L1058,285l-21-36,5.6-5.4a114.14,114.14,0,0,0,36.11,13.4c-19.69-7.59-44.71-18.67-50.61-27.86l-.44-.92-13-40,6.42-4.26c.33.28,24.66,21.21,48.28,31.89-18.54-12.4-44.45-30.91-56.92-45.25l-1-2.4-2-36,7.07-2.77c.28.34,21.13,25.32,41.06,40.61-18.39-20.8-45.87-53.31-48.06-64.28l0-.2c-.21-1.45-5.07-35.78,8.66-55.84l6.86.44c.48.93,48.19,93.28,110.32,126.29,27.13,14.41,46.48,38.66,55.95,70.13,7.12,23.64,6.21,42.81,6.16,43.61l-8-.42a135.39,135.39,0,0,0-5.92-41.15c-9-29.66-26.48-51.57-52-65.11-27.08-14.39-54.46-40.61-81.37-77.94a472.21,472.21,0,0,1-28.77-45.21c-7.45,17.39-4.28,42.11-4,43.94,2.25,10.3,39.17,53.24,62,78l-3.91,6.59c-10.65-2.66-24.9-12.68-42.33-29.77-5.89-5.77-11.11-11.35-15.06-15.72l1.28,23c20.14,22.29,74.62,55.86,75.17,56.2L1092.5,230c-21.61,0-50.64-19.7-66-31.46l8.67,26.68c6.83,9.38,46.72,25.14,70.62,33L1105,266a85.42,85.42,0,0,1-10.14.59c-17.8,0-33.64-5.25-44-9.77l13.72,23.51c8.1,5.7,37.85,9,55.11,9.7l2.49,7a52.17,52.17,0,0,1-30.71,13.3l7,7h0c3,0,12-3,20.24-7l3.93,6.95c-4.17,2.78-.79,13.33,1.79,18.75l11.89,6.4Z"/>
    </g>
    <g>
      <path class="cls-14" d="M1056.5,428s13-34,57-40,101,5,146-23c0,0-6.5-10.5-4.5-22.5,0,0,13,14,24,15l22-13s-24-7-29-21c0,0,37,11,47,11,0,0,26-20,31-30,0,0-44,1-66-10,0,0,83-16,90-22l15-31s-88,22-101,20c0,0,87-29,109-48l7-28s-78,45-117,51c0,0,83-34,126-88,0,0,8-34-6-79,0,0-61,101-150,121s11,80-151,175c0,0-40-23-48,26C1058,391.5,1039,413.5,1056.5,428Z"/>
      <path d="M1054,431.08c-5.3-4.39-8.25-9.8-8.77-16.1-1-11.4,6.6-22.05,9-25.19,2.79-15.84,9.22-26.26,19.11-31,12.8-6.08,27.18-.45,32.53,2.11,88.25-52.27,95.75-93,101.23-122.85,4.34-23.59,7.77-42.22,49-51.49,44.94-10.1,82.57-41.86,106.23-66.73a345.16,345.16,0,0,0,41.23-52.44l7.24.88c14.16,45.52,6.41,79.67,6.07,81.11l-.76,1.57c-20.84,26.17-50.5,47.54-76,62.8,31.59-14.36,61.39-31.48,61.87-31.75l5.88,4.43-7,28-1.27,2.06c-12.76,11-45.78,25-72.42,35.14,19.64-4.09,42.9-9.57,60.84-14l4.57,5.62-15,31-1,1.3c-5.94,5.09-50.73,14.69-77.49,20.06,21.84,5.47,50.45,4.91,50.8,4.9l3.67,5.79c-5.26,10.52-29.41,29.28-32.14,31.38l-2.44.83c-6.92,0-24.58-4.54-36.56-7.85,6.47,5.24,15.51,8.79,19.68,10l.92,7.28-22,13-2.4.54c-7.1-.64-14.46-5.53-19.65-9.81a34.32,34.32,0,0,0,3.92,11.23l-1.3,5.5c-32.2,20-70.79,20.69-104.83,21.26-15.2.26-29.55.5-42.74,2.3-41,5.59-53.3,36.18-53.81,37.48Zm32.08-67a21.29,21.29,0,0,0-9.28,2c-7.59,3.62-12.57,12.4-14.8,26.07l-.92,2c-.09.1-8.73,10.31-7.88,20.24a14.06,14.06,0,0,0,2.32,6.68c5.89-10.42,22.19-32.18,57.49-37,13.66-1.87,28.24-2.11,43.68-2.37,33.43-.57,68-1.15,97.6-18.19-2-4.48-4.69-12.63-3.19-21.64l6.88-2.06c3.17,3.4,12.66,12.09,20.24,13.56l13.59-8c-8.12-3.55-19.88-10.26-23.53-20.46l4.91-5.18c9.63,2.86,35.4,10.06,44.56,10.77,6-4.7,17.8-14.47,24.47-22-13.94-.25-42.88-1.86-60-10.4l1-7.51c38.54-7.43,80.87-17,87.62-20.77l10.83-22.38c-23.1,5.64-82.85,19.79-94.3,18l-.65-7.74c.84-.29,84-28.15,106.7-46.44l4.43-17.73c-21.17,11.73-78,42-110.26,46.91l-2.13-7.65c.82-.34,81.79-33.93,123.8-86.05,1-5,5.47-32.22-3.71-67.69a367.79,367.79,0,0,1-37.3,46.2c-24.44,25.72-63.44,58.59-110.39,69.14-36.09,8.11-38.66,22-42.91,45.14-2.81,15.27-6.3,34.27-20.87,56.1-16.83,25.23-45,49.21-86.08,73.31l-4,0C1103.9,368.91,1095.34,364.11,1086,364.11Z"/>
    </g>
    <g>
      <path class="cls-15" d="M1072.5,386s-3-14,20-15c0,0-10,6-11,14S1072.5,386,1072.5,386Z"/>
      <path d="M1078.36,392.84c-3.78,0-7.33-2.81-8.49-3.83l-1.28-2.17a14.79,14.79,0,0,1,2.92-11.59c3.9-5,10.9-7.81,20.82-8.25l2.23,7.43c-2.32,1.4-8.47,6.13-9.09,11.07-.56,4.45-2.83,6.2-4.65,6.89A6.85,6.85,0,0,1,1078.36,392.84Zm-2-8.93a9,9,0,0,0,1.13.64.07.07,0,0,0,0-.05,16.88,16.88,0,0,1,2-6,9.18,9.18,0,0,0-1.62,1.54A7.07,7.07,0,0,0,1076.39,383.91Z"/>
    </g>
    <g>
      <path class="cls-13" d="M1095,811c21-15,18-51,18-51H827c0,36,14,52,14,52Z"/>
      <path d="M839.19,816l-1.2-1.38c-.61-.7-15-17.55-15-54.63v-4h293.68l.31,3.67c.13,1.56,2.93,38.45-19.66,54.58l-1,.75Zm-8.13-52c.48,15.58,3.72,26.75,6.46,33.54A54.15,54.15,0,0,0,843,808l250.67-1c14.27-11.15,15.56-34.08,15.48-43Z"/>
    </g>
    <g>
      <polygon class="cls-7" points="801 691.01 760.5 650.51 760.5 650.51 834.5 650.51 834.5 731.51 760.5 731.51 760.5 731.51 801 691.01"/>
      <path d="M838.5,735.51H750.84l44.5-44.5-44.5-44.5H838.5Zm-68.34-8H830.5v-73H770.16l36.5,36.5Z"/>
    </g>
    <g>
      <line class="cls-7" x1="812.5" y1="711.51" x2="834.5" y2="731.51"/>
      <rect x="819.5" y="706.65" width="8" height="29.73" transform="translate(-264.32 845.51) rotate(-47.73)"/>
    </g>
    <g>
      <polygon class="cls-7" points="1138 691.01 1178.5 650.51 1178.5 650.51 1104.5 650.51 1104.5 731.51 1178.5 731.51 1178.5 731.51 1138 691.01"/>
      <path d="M1188.16,735.51H1100.5v-89h87.66l-44.5,44.5Zm-79.66-8h60.34l-36.5-36.5,36.5-36.5H1108.5Z"/>
    </g>
    <g>
      <rect class="cls-7" x="813.5" y="629.51" width="312" height="81"/>
      <path d="M1129.5,714.51h-320v-89h320Zm-312-8h304v-73h-304Z"/>
    </g>
    <g>
      <line class="cls-7" x1="1126.5" y1="711.51" x2="1104.5" y2="731.51"/>
      <rect x="1100.63" y="717.51" width="29.73" height="8" transform="translate(-195.26 937.9) rotate(-42.27)"/>
    </g>
    <g>
      <path d="M875.44,700.12c-.51,0-1.31-.07-2.38-.07a28.91,28.91,0,0,0-9.45,1.47q-5.39,1.82-7.56,5.46-2.81-4.28-7.14-4.27c-1,0-1.84.65-2.59,2s-1.05,2-.91,2c-.23,0-.35-.42-.35-1.26a9.05,9.05,0,0,1,1.47-5.53,16.7,16.7,0,0,1,3.36-2.73,8.34,8.34,0,0,0,3.08-3.5q4.13,6.09,8.82,6.09a12,12,0,0,0,1.4-.14V684.37q-4.41,0-6.58,1.89c-1,.89-2.24,2.82-3.64,5.81a22.17,22.17,0,0,0-2.87-5,11.9,11.9,0,0,0-4.76-3.29,6.23,6.23,0,0,0,3.71-6v-9.38c0-3.73-1.24-6.21-3.71-7.42a21.31,21.31,0,0,0,9.31-2.38,18.66,18.66,0,0,0,7.35-5.88,16.62,16.62,0,0,0,5.81,5.74,14.35,14.35,0,0,0,7.63,2.52c-1.28.19-2.3,1.14-3.06,2.87a10.62,10.62,0,0,0-.93,4.34V676q0,5.53,3.85,7.77a7.58,7.58,0,0,0-3.36,3.71,16.16,16.16,0,0,0-.49,5C871.45,697,872.78,699.51,875.44,700.12Zm-12.25-17.78v-12.6q0-6.43-6.23-9.38v18.48q0,3.57,4.9,3.57A12.5,12.5,0,0,0,863.19,682.34Z"/>
      <path d="M904.21,661.41c-1.68.75-3.1,2.68-4.27,5.81a34.38,34.38,0,0,0-1.82,7.35h-.07a23.35,23.35,0,0,0-1.89-7.28q-2.1-5-4.55-5c-1.4,0-2.1,1.14-2.1,3.43v14.21q3.15,3.57,6,4.27a45.23,45.23,0,0,0,7.42.35,28.92,28.92,0,0,0-6.58,2.94,41,41,0,0,0-5.53,4.55c-1-1.87-3-3.58-6-5.15a17.23,17.23,0,0,0-7.8-2.34c1.07-.09,2.08-1.14,3-3.15a11.49,11.49,0,0,0,1.26-4.62v-7.91a8,8,0,0,0-4.34-7.42q4.54,0,8-8.75,2.73,7.22,6.3,7.21t6.58-7.21l2.24,5.11A8.58,8.58,0,0,0,904.21,661.41Z"/>
      <path d="M934.87,683.6q-11.7.21-16.31,8.4c-1.08-1.87-3.09-3.71-6.06-5.53s-5.49-2.78-7.59-2.87c1.12-.05,2.05-1,2.8-2.87a11.46,11.46,0,0,0,1-4.27v-7.84q0-5.75-3.71-7.84a21.42,21.42,0,0,0,9.17-2.1,15,15,0,0,0,7-6c1,1.73,3,3.49,6,5.28s5.57,2.75,7.63,2.84q-3.78.91-3.78,7.42V676Q931,681.64,934.87,683.6Zm-11.55.7V668.55a8.06,8.06,0,0,0-2.17-5.46,28.66,28.66,0,0,0-4.76-3.71v17Q916.39,681,923.32,684.3Z"/>
      <path d="M966.16,683.67a14.56,14.56,0,0,0-4.48,3.5,42.17,42.17,0,0,0-3,4.83,44.84,44.84,0,0,0-3-4.76,15.06,15.06,0,0,0-4.41-3.57,5.93,5.93,0,0,0,3.15-3,13.54,13.54,0,0,0,.49-4.34v-9.38a7,7,0,0,0-.91-3.57,3.28,3.28,0,0,0-5.88,0,6.87,6.87,0,0,0-.91,3.57v9.38a12,12,0,0,0,.56,4.34,5.86,5.86,0,0,0,3.15,3,14.91,14.91,0,0,0-4.48,3.57,35.57,35.57,0,0,0-3,4.76q-1-1.75-3-4.83a16,16,0,0,0-4.41-3.5,5.93,5.93,0,0,0,3.15-3,12.2,12.2,0,0,0,.56-4.34v-9.38a6.37,6.37,0,0,0-3.71-6.09,14.86,14.86,0,0,0,4.55-3.36,22.55,22.55,0,0,0,2.87-4.83q3.78,7.64,7.63,7.63t7.63-7.63a32.21,32.21,0,0,0,2.87,4.9,15.91,15.91,0,0,0,4.62,3.29,6.26,6.26,0,0,0-3.71,6.09v9.38a12.68,12.68,0,0,0,.56,4.34A5.82,5.82,0,0,0,966.16,683.67Z"/>
      <path d="M998.64,683.39h-.42a20.72,20.72,0,0,0-9.38,2.24,17.2,17.2,0,0,0-7.21,6.37q-6.24-8.19-13.79-8.61,3.57-1.68,3.57-7.63V666.1q0-4.62-3.57-6.3a14.29,14.29,0,0,0,7.63-8.54,18,18,0,0,0,4.13,6.09q2.45,1.89,7,1.89a34.94,34.94,0,0,1-6.65-19.6,5.12,5.12,0,0,0-3.43-1.26,5.25,5.25,0,0,0-2.87.84,2.85,2.85,0,0,0-1.54,2.45,2.7,2.7,0,0,0,1,2.17,7.06,7.06,0,0,1,1.61,1.54,1.41,1.41,0,0,1-.56.07,3.82,3.82,0,0,1-3.85-3.85,5,5,0,0,1,2-4,6.76,6.76,0,0,1,4.38-1.64q1.82,0,6.72,3t8.4,2.7a5,5,0,0,0-2.24,4.55q0,3.57,2.8,8,2.94,4.83,6.16,5.53c-2,1.17-3,3.87-3,8.12V676C995.49,679.84,996.54,682.32,998.64,683.39Zm-12,2.17V661.27a12.5,12.5,0,0,0-1.33-.07,7.9,7.9,0,0,0-3.71.84,3.09,3.09,0,0,0-2,2.87V677.3a6.17,6.17,0,0,0,2.17,5.11Z"/>
      <path d="M1044.21,684.51a16.22,16.22,0,0,0-8.19,1.89,34.49,34.49,0,0,0-6.37,5.6q-5.19-7.07-10.22-7.07a6.53,6.53,0,0,0-4.87,2.06,11.11,11.11,0,0,0-2.76,5,15.68,15.68,0,0,0-5.22-5.32,12.54,12.54,0,0,0-6.82-2.17,6.09,6.09,0,0,0,2.66-2.66,7.83,7.83,0,0,0,1.05-3.85v-9.45a12.47,12.47,0,0,0-.49-4.27,6,6,0,0,0-3.22-2.87,14.23,14.23,0,0,0,4.69-3.64,30.08,30.08,0,0,0,2.87-5.11q4.13,7.14,7.56,7.14t7.56-7.14a19.76,19.76,0,0,0,2.87,5.14,14.48,14.48,0,0,0,4.69,3.61,6,6,0,0,0-3.22,2.87,12.22,12.22,0,0,0-.49,4.27V678q.84,2.1,4.48,3.92a13,13,0,0,0,5.81,1.75v-16a6,6,0,0,0-1.51-4,7.21,7.21,0,0,0-3.88-2.27,11.52,11.52,0,0,0,4.2-3.64,25.28,25.28,0,0,0,2.45-5.11q1.82,6.38,6.37,8.75c-2,.33-3.29.93-4,1.82s-1,2.38-1,4.48V678Q1039.17,683.33,1044.21,684.51Zm-26,0v-16a12.8,12.8,0,0,0-.63-4.2c-.61-1.73-1.52-2.59-2.73-2.59s-2.27.86-2.87,2.59a12,12,0,0,0-.77,4.2v10.57q0,1.61,2.73,3.5A9.26,9.26,0,0,0,1018.17,684.51Z"/>
      <path d="M1071.79,683.68a15.12,15.12,0,0,0-7,2.73,16.85,16.85,0,0,0-5.28,5.59,15.4,15.4,0,0,0-5.81-5.45,22.63,22.63,0,0,0-7.56-2.87,6.18,6.18,0,0,0,4-6v-8.94q0-5.44-4.27-7.82a26.19,26.19,0,0,0,10.15-2,18,18,0,0,0,8-6.29,28.09,28.09,0,0,0,3.08,4.89,13.34,13.34,0,0,0,4.69,3.36,9.8,9.8,0,0,0-2.66,5.09c-.66,2.61-1.4,4.38-2.24,5.32q-2.46,2.79-8.75,4.4v1.19q-.29,4.68,4.8,6.15A37.07,37.07,0,0,0,1071.79,683.68Zm-7.56-15.55q0-2-2.1-4.94t-4-2.9v13.79a9.58,9.58,0,0,0,4.23-2A4.87,4.87,0,0,0,1064.23,668.13Z"/>
      <path d="M1091.67,666.8h-1.47v-2.52c0-1.68-.32-2.8-1-3.36s-1.83-.84-3.6-.84V676q0,6.51,4,8.4a26.36,26.36,0,0,0-4.69,3.08,19.27,19.27,0,0,0-3.29,4.55,21.59,21.59,0,0,0-3.29-4.62,24.59,24.59,0,0,0-4.76-3,6,6,0,0,0,3.22-3.5,16.05,16.05,0,0,0,.56-4.9V660.08h-4.76v-3.15h4.76v-7.28a4.77,4.77,0,0,0-2-3.57c-.14-.14-.87-.72-2.17-1.75l.07-.07a37.85,37.85,0,0,0,4.79-1c1.08-.37,3.22-1.73,6.42-4.06a16.23,16.23,0,0,1,7.13-3.15l-.08.91q-5.94,1.82-5.94,12.67v7.35c2.19,0,3.52-.3,4-.91.32-.42.49-1.77.49-4.06h1.54Z"/>
    </g>
    <path d="M1575,830c-62.2,0-115.5-25.32-117.74-26.4l-2.26-1.09v-141l2.29-1.09c2.28-1.07,56.52-26.38,117.71-26.38v8c-52.45,0-101,19.81-112,24.59V797.43c10.8,4.78,58.71,24.57,112,24.57Z"/>
    <path d="M1575,830v-8c53.29,0,101.2-19.79,112-24.57V666.59c-11-4.78-59.55-24.59-112-24.59v-8c61.19,0,115.43,25.31,117.71,26.38l2.29,1.09v141l-2.26,1.09C1690.5,804.68,1637.2,830,1575,830Z"/>
    <g>
      <circle class="cls-13" cx="1710" cy="818" r="8"/>
      <path d="M1710,830a12,12,0,1,1,12-12A12,12,0,0,1,1710,830Zm0-16a4,4,0,1,0,4,4A4,4,0,0,0,1710,814Z"/>
    </g>
    <g>
      <circle class="cls-13" cx="1739" cy="818" r="8"/>
      <path d="M1739,830a12,12,0,1,1,12-12A12,12,0,0,1,1739,830Zm0-16a4,4,0,1,0,4,4A4,4,0,0,0,1739,814Z"/>
    </g>
    <g>
      <circle class="cls-13" cx="1768" cy="818" r="8"/>
      <path d="M1768,830a12,12,0,1,1,12-12A12,12,0,0,1,1768,830Zm0-16a4,4,0,1,0,4,4A4,4,0,0,0,1768,814Z"/>
    </g>
    <g>
      <rect class="cls-13" x="1708" y="715" width="67" height="85" rx="9.05"/>
      <path d="M1766,804h-48.9a13.07,13.07,0,0,1-13-13v-66.9a13.07,13.07,0,0,1,13-13H1766a13.07,13.07,0,0,1,13,13V791A13.07,13.07,0,0,1,1766,804Zm-48.9-85a5.06,5.06,0,0,0-5,5V791a5.06,5.06,0,0,0,5,5H1766a5.06,5.06,0,0,0,5-5v-66.9a5.06,5.06,0,0,0-5-5Z"/>
    </g>
    <g>
      <rect class="cls-13" x="1708" y="650" width="67" height="53"/>
      <path d="M1779,707h-75V646h75Zm-67-8h59V654h-59Z"/>
    </g>
    <rect x="1726" y="649" width="8" height="54"/>
    <rect x="1750" y="649" width="8" height="54"/>
    <rect x="1708" y="663" width="66" height="8"/>
    <rect x="1708" y="682" width="66" height="8"/>
    <rect x="1499" y="649" width="8" height="123.98"/>
    <rect x="1547" y="638" width="8" height="136"/>
    <rect x="1595" y="638" width="8" height="136"/>
    <rect x="1643" y="650.02" width="8" height="123.98"/>
    <rect x="1460" y="769" width="230" height="8"/>
    <rect x="1477" y="775" width="8" height="33"/>
    <rect x="1524" y="773" width="8" height="47"/>
    <rect x="1571" y="776.77" width="8" height="47"/>
    <path d="M1741.5,755a16.5,16.5,0,1,1,16.5-16.5A16.52,16.52,0,0,1,1741.5,755Zm0-25a8.5,8.5,0,1,0,8.5,8.5A8.51,8.51,0,0,0,1741.5,730Z"/>
    <path d="M1741.5,791a16.5,16.5,0,1,1,16.5-16.5A16.52,16.52,0,0,1,1741.5,791Zm0-25a8.5,8.5,0,1,0,8.5,8.5A8.51,8.51,0,0,0,1741.5,766Z"/>
    <g>
      <path class="cls-9" d="M1666,619a22,22,0,0,1,44,0"/>
      <path d="M1714,619h-8a18,18,0,0,0-36,0h-8a26,26,0,0,1,52,0Z"/>
    </g>
    <rect x="1658" y="549.22" width="8" height="54.56" transform="translate(-84.16 789.83) rotate(-26.1)"/>
    <rect x="1670" y="548.5" width="109" height="8" transform="translate(563.79 1942.43) rotate(-67.9)"/>
    <g>
      <path class="cls-7" d="M68.08,942.48l-1.08,0V499.57l1.08,0a50.68,50.68,0,0,0,50.83-50.53c0-.36,0-.71,0-1.07H493.12c0,.36,0,.71,0,1.07a50.68,50.68,0,0,0,50.83,50.53l1.08,0V942.5l-1.08,0A50.68,50.68,0,0,0,493.09,993H118.91A50.68,50.68,0,0,0,68.08,942.48Z"/>
      <path d="M497.09,997H114.91v-4a46.73,46.73,0,0,0-46.83-46.52h-.54l-4.54.1V495.48l4.54.1.54,0a46.73,46.73,0,0,0,46.83-46.53c0-.17,0-.34,0-.52l-.1-4.55H497.2l-.1,4.55c0,.18,0,.35,0,.52a46.73,46.73,0,0,0,46.83,46.53l.54,0,4.54-.1V946.59l-4.54-.1h-.54A46.73,46.73,0,0,0,497.09,993Zm-374.33-8H489.24A54.77,54.77,0,0,1,541,938.55v-435A54.74,54.74,0,0,1,489.17,452H122.83A54.74,54.74,0,0,1,71,503.52v435A54.77,54.77,0,0,1,122.76,989Z"/>
    </g>
    <g>
      <path class="cls-16" d="M86,927c-.34,0-.67,0-1,0V515c.33,0,.66,0,1,0a47,47,0,0,0,47-47c0-.34,0-.67,0-1H479c0,.33,0,.66,0,1a47,47,0,0,0,47,47c.34,0,.67,0,1,0V927c-.33,0-.66,0-1,0a47,47,0,0,0-47,47H133A47,47,0,0,0,86,927Z"/>
      <path d="M483,978H129v-4a43,43,0,0,0-43-43h-.48l-4.52.1V510.89l4.51.1H86a43,43,0,0,0,43-43c0-.16,0-.33,0-.49l-.1-4.51H483.11l-.1,4.52c0,.16,0,.32,0,.48a43,43,0,0,0,43,43h.49l4.51-.1V931.11l-4.52-.1H526a43,43,0,0,0-43,43Zm-346.16-8H475.16A51.07,51.07,0,0,1,523,923.09V518.91A51.07,51.07,0,0,1,475.09,471H136.91A51.07,51.07,0,0,1,89,518.91V923.09A51.07,51.07,0,0,1,136.84,970Z"/>
    </g>
    <g>
      <polyline class="cls-9" points="390.66 843.49 424 933 412 933 355.83 843.97"/>
      <polygon points="429.76 937 409.79 937 352.44 846.11 359.21 841.84 414.21 929 418.24 929 386.91 844.89 394.41 842.1 429.76 937"/>
    </g>
    <g>
      <polyline class="cls-9" points="232.17 842.49 198.83 932 210.83 932 267 842.97"/>
      <polygon points="213.03 936 193.07 936 228.42 841.1 235.92 843.89 204.58 928 208.62 928 263.62 840.84 270.38 845.11 213.03 936"/>
    </g>
    <g>
      <rect class="cls-9" x="131" y="623" width="355" height="220" transform="translate(617 1466) rotate(-180)"/>
      <path d="M490,847H127V619H490Zm-355-8H482V627H135Z"/>
    </g>
    <polygon class="cls-10" points="415 772 460 772 460 664 417 649 415 772"/>
    <polygon class="cls-11" points="274 772 229 772 229 664 272 649 274 772"/>
    <polygon class="cls-2" points="370 772 415 772 415 650.83 371 641 370 772"/>
    <polygon class="cls-7" points="321 772 276 772 276 650.83 320 641 321 772"/>
    <polygon class="cls-12" points="323 772 368 772 368 640 324 641 323 772"/>
    <polygon points="233 806 346 827 344 776 229 776 233 806"/>
    <polygon class="cls-13" points="392 821 442 807 439 775 392 775 392 821"/>
    <rect class="cls-11" x="347" y="776" width="42" height="47" transform="translate(736 1599) rotate(-180)"/>
    <rect class="cls-11" x="440" y="776" width="20" height="28" transform="translate(900 1580) rotate(-180)"/>
    <path d="M345,830v-8c53.29,0,101.2-19.79,112-24.57V666.59C446,661.81,397.45,642,345,642v-8c61.19,0,115.43,25.31,117.71,26.38l2.29,1.09v141l-2.26,1.09C460.5,804.68,407.2,830,345,830Z"/>
    <path d="M345,830c-62.2,0-115.5-25.32-117.74-26.4L225,802.51v-141l2.29-1.09C229.57,659.31,283.81,634,345,634v8c-52.45,0-101,19.81-112,24.59V797.43C243.8,802.21,291.71,822,345,822Z"/>
    <g>
      <circle class="cls-13" cx="210" cy="818" r="8"/>
      <path d="M210,830a12,12,0,1,1,12-12A12,12,0,0,1,210,830Zm0-16a4,4,0,1,0,4,4A4,4,0,0,0,210,814Z"/>
    </g>
    <g>
      <circle class="cls-13" cx="181" cy="818" r="8"/>
      <path d="M181,830a12,12,0,1,1,12-12A12,12,0,0,1,181,830Zm0-16a4,4,0,1,0,4,4A4,4,0,0,0,181,814Z"/>
    </g>
    <g>
      <circle class="cls-13" cx="152" cy="818" r="8"/>
      <path d="M152,830a12,12,0,1,1,12-12A12,12,0,0,1,152,830Zm0-16a4,4,0,1,0,4,4A4,4,0,0,0,152,814Z"/>
    </g>
    <g>
      <rect class="cls-13" x="145" y="715" width="67" height="85" rx="9.05" transform="translate(357 1515) rotate(-180)"/>
      <path d="M203,804h-48.9A13.07,13.07,0,0,1,141,791v-66.9a13.07,13.07,0,0,1,13.05-13H203a13.07,13.07,0,0,1,13.05,13V791A13.07,13.07,0,0,1,203,804Zm-48.9-85a5.06,5.06,0,0,0-5.05,5V791a5.06,5.06,0,0,0,5.05,5H203a5.06,5.06,0,0,0,5.05-5v-66.9a5.06,5.06,0,0,0-5.05-5Z"/>
    </g>
    <g>
      <rect class="cls-13" x="145" y="650" width="67" height="53" transform="translate(357 1353) rotate(-180)"/>
      <path d="M216,707H141V646h75Zm-67-8h59V654H149Z"/>
    </g>
    <rect x="186" y="649" width="8" height="54"/>
    <rect x="162" y="649" width="8" height="54"/>
    <rect x="146" y="663" width="66" height="8"/>
    <rect x="146" y="682" width="66" height="8"/>
    <rect x="413" y="649" width="8" height="123.98"/>
    <rect x="365" y="638" width="8" height="136"/>
    <rect x="317" y="638" width="8" height="136"/>
    <rect x="269" y="650.02" width="8" height="123.98"/>
    <rect x="230" y="769" width="230" height="8"/>
    <rect x="435" y="775" width="8" height="33"/>
    <rect x="388" y="773" width="8" height="47"/>
    <rect x="341" y="776.77" width="8" height="47"/>
    <path d="M178.5,755A16.5,16.5,0,1,1,195,738.5,16.52,16.52,0,0,1,178.5,755Zm0-25a8.5,8.5,0,1,0,8.5,8.5A8.51,8.51,0,0,0,178.5,730Z"/>
    <path d="M178.5,791A16.5,16.5,0,1,1,195,774.5,16.52,16.52,0,0,1,178.5,791Zm0-25a8.5,8.5,0,1,0,8.5,8.5A8.51,8.51,0,0,0,178.5,766Z"/>
    <g>
      <path class="cls-9" d="M254,619a22,22,0,0,0-44,0"/>
      <path d="M258,619h-8a18,18,0,0,0-36,0h-8a26,26,0,0,1,52,0Z"/>
    </g>
    <rect x="230.72" y="572.5" width="54.56" height="8" transform="translate(-373.22 554.58) rotate(-63.9)"/>
    <rect x="191.5" y="498" width="8" height="109" transform="translate(-193.46 114.1) rotate(-22.09)"/>
  </g>
</svg>
