<svg xmlns="http://www.w3.org/2000/svg" xmlns:xlink="http://www.w3.org/1999/xlink" viewBox="0 0 1920 1080">
  <defs>
    <style>
      .cls-1, .cls-3 {
        fill: none;
      }

      .cls-2 {
        fill: #bd2121;
      }

      .cls-3 {
        stroke: #000;
        stroke-miterlimit: 10;
        stroke-width: 8px;
      }

      .cls-4 {
        fill: #ff4848;
      }

      .cls-5 {
        fill: url(#New_Pattern_Swatch_2);
      }

      .cls-6 {
        fill: #ffcd00;
      }

      .cls-7 {
        fill: #ffe500;
      }

      .cls-8 {
        fill: #787fff;
      }

      .cls-9 {
        fill: #5061ff;
      }

      .cls-10 {
        fill: #fff;
      }

      .cls-11 {
        fill: #ffbf7b;
      }

      .cls-12 {
        fill: #29a6dd;
      }

      .cls-13 {
        fill: #fff57d;
      }

      .cls-14 {
        fill: #2b293a;
      }

      .cls-15 {
        fill: #666;
      }

      .cls-16 {
        fill: #727272;
      }

      .cls-17 {
        fill: #7c7c7c;
      }

      .cls-18 {
        fill: #ffeda8;
      }

      .cls-19 {
        fill: #87ff76;
      }

      .cls-20 {
        fill: #c68238;
      }
    </style>
    <pattern id="New_Pattern_Swatch_2" data-name="New Pattern Swatch 2" width="116" height="200" patternTransform="translate(0 139.06) scale(1 1.01)" patternUnits="userSpaceOnUse" viewBox="0 0 116 200">
      <rect class="cls-1" width="116" height="200"/>
      <g>
        <polygon class="cls-2" points="59 33.5 117 33.5 112.79 -20.43 82.25 -28.39 59.99 -11.07 59 33.5"/>
        <line class="cls-3" x1="116" y1="-0.5" x2="116" y2="33.5"/>
      </g>
      <g>
        <polygon class="cls-4" points="1.34 33.5 57.18 33.5 57.18 -16.18 24.97 -30.39 2.06 -11.02 1.34 33.5"/>
        <polygon class="cls-2" points="-57 33.5 1 33.5 -3.21 -20.43 -33.75 -28.39 -56.01 -11.07 -57 33.5"/>
        <line class="cls-3" y1="-0.5" y2="33.5"/>
        <line class="cls-3" x1="58" y1="-0.5" x2="58" y2="33.5"/>
      </g>
      <g>
        <polygon class="cls-4" points="88.34 83.5 144.18 83.5 144.18 33.82 111.97 19.61 89.06 38.98 88.34 83.5"/>
        <polygon class="cls-2" points="30 83.5 88 83.5 83.79 29.57 53.25 21.61 30.99 38.93 30 83.5"/>
        <path class="cls-3" d="M29,49.5a29,29,0,0,1,58,0"/>
        <line class="cls-3" x1="87" y1="49.5" x2="87" y2="83.5"/>
        <path class="cls-3" d="M87,49.5a29,29,0,0,1,58,0"/>
      </g>
      <g>
        <polygon class="cls-4" points="-27.66 83.5 28.18 83.5 28.18 33.82 -4.03 19.61 -26.94 38.98 -27.66 83.5"/>
        <line class="cls-3" x1="29" y1="49.5" x2="29" y2="83.5"/>
        <path class="cls-3" d="M-29,49.5a29,29,0,0,1,29-29,29,29,0,0,1,29,29"/>
      </g>
      <path class="cls-3" d="M116,99.5a29,29,0,0,1,58,0"/>
      <g>
        <polygon class="cls-4" points="59.34 133.5 115.18 133.5 115.18 83.82 82.97 69.61 60.06 88.98 59.34 133.5"/>
        <polygon class="cls-2" points="1 133.5 59 133.5 54.79 79.57 24.25 71.61 1.99 88.93 1 133.5"/>
        <path class="cls-3" d="M0,99.5a29,29,0,0,1,58,0"/>
        <line class="cls-3" x1="58" y1="99.5" x2="58" y2="133.5"/>
        <line class="cls-3" x1="116" y1="99.5" x2="116" y2="133.5"/>
        <path class="cls-3" d="M58,99.5a29,29,0,0,1,58,0"/>
      </g>
      <g>
        <line class="cls-3" y1="99.5" y2="133.5"/>
        <path class="cls-3" d="M-58,99.5a29,29,0,0,1,29-29,29,29,0,0,1,29,29"/>
      </g>
      <g>
        <polygon class="cls-2" points="88 183.5 146 183.5 141.79 129.57 111.25 121.61 88.99 138.93 88 183.5"/>
        <path class="cls-3" d="M87,149.5a29,29,0,0,1,58,0"/>
      </g>
      <g>
        <polygon class="cls-4" points="30.34 183.5 86.18 183.5 86.18 133.82 53.97 119.61 31.06 138.98 30.34 183.5"/>
        <polygon class="cls-2" points="-28 183.5 30 183.5 25.79 129.57 -4.75 121.61 -27.01 138.93 -28 183.5"/>
        <path class="cls-3" d="M-29,149.5a29,29,0,0,1,29-29,29,29,0,0,1,29,29"/>
        <line class="cls-3" x1="29" y1="149.5" x2="29" y2="183.5"/>
        <line class="cls-3" x1="87" y1="149.5" x2="87" y2="183.5"/>
        <path class="cls-3" d="M29,149.5a29,29,0,0,1,58,0"/>
      </g>
      <g>
        <polygon class="cls-2" points="59 233.5 117 233.5 112.79 179.57 82.25 171.61 59.99 188.93 59 233.5"/>
        <path class="cls-3" d="M58,199.5a29,29,0,0,1,58,0"/>
        <line class="cls-3" x1="116" y1="199.5" x2="116" y2="233.5"/>
        <path class="cls-3" d="M116,199.5a29,29,0,0,1,58,0"/>
      </g>
      <g>
        <polygon class="cls-4" points="1.34 233.5 57.18 233.5 57.18 183.82 24.97 169.61 2.06 188.98 1.34 233.5"/>
        <polygon class="cls-2" points="-57 233.5 1 233.5 -3.21 179.57 -33.75 171.61 -56.01 188.93 -57 233.5"/>
        <path class="cls-3" d="M-58,199.5a29,29,0,0,1,29-29,29,29,0,0,1,29,29"/>
        <line class="cls-3" y1="199.5" y2="233.5"/>
        <line class="cls-3" x1="58" y1="199.5" x2="58" y2="233.5"/>
        <path class="cls-3" d="M0,199.5a29,29,0,0,1,58,0"/>
      </g>
    </pattern>
  </defs>
  <title>Illustration1</title>
  <g id="Layer_16" data-name="Layer 16">
    <rect class="cls-5" width="1920" height="1080"/>
  </g>
  <g id="Layer_15" data-name="Layer 15">
    <polyline class="cls-6" points="1524 0 1547 0 1574.77 98.03 1551.51 99.66 1525 3"/>
    <polyline class="cls-6" points="1563 209 1589 210 1573.45 316.78 1551.49 308.93 1563 209"/>
    <polyline class="cls-7" points="1553.45 102.93 1576.4 100.47 1583.25 205.99 1560.13 202.94 1553.45 102.93"/>
    <polyline class="cls-7" points="1552.94 313.63 1576.93 323.87 1569.61 366 1547.65 352.66 1552.94 313.63"/>
    <polyline class="cls-6" points="1200.49 760.87 1227.89 744.32 1228.83 777.77 1198.81 788.1 1200.49 760.87"/>
    <polyline class="cls-7" points="692.25 746.94 722.1 762.98 721.21 785.25 693.14 773.67 692.25 746.94"/>
    <path class="cls-6" d="M347.6,318.93c1.4.07,23-5,23-5L379,352l-21,12-10.4-45.07"/>
    <polygon class="cls-7" points="341 210 361 210 369.71 311.85 344 314 341 210"/>
    <polyline class="cls-6" points="346.78 100.4 371.1 105.35 360.79 207.14 335 204 346.78 100.4"/>
    <polyline class="cls-7" points="376 0 398 0 370.81 102.41 347 95 374 0"/>
  </g>
  <g id="Layer_14" data-name="Layer 14">
    <rect x="959" y="203" width="627" height="8"/>
    <rect x="953.78" y="147.99" width="627" height="8" transform="translate(-7.14 222.37) rotate(-10)"/>
    <rect x="959" y="202" width="627" height="10" transform="translate(164.66 866.38) rotate(-40)"/>
    <polygon points="961.5 210.15 958.77 202.63 1516 0 1539 0 961.5 210.15"/>
    <rect x="1262.5" y="-51.5" width="8" height="627" transform="translate(788.55 1463.76) rotate(-80)"/>
    <rect x="336.76" y="203" width="627" height="8"/>
    <rect x="651.49" y="-161.51" width="8" height="627" transform="translate(391.98 771.13) rotate(-80)"/>
    <polygon points="961.26 210.15 384 0 409 0 964 202.63 961.26 210.15"/>
    <rect x="342.76" y="258" width="627" height="8" transform="translate(-35.53 117.94) rotate(-10)"/>
  </g>
  <g id="Layer_13" data-name="Layer 13">
    <polygon class="cls-7" points="1315.45 82.07 1522.7 8.21 1552 104 1561.89 203.84 1336 204 1315.45 82.07"/>
    <path class="cls-6" d="M1184,209h374c1,0-1.52,71.45-1.52,71.45L1544,350l-74-21-76,8-48.3,23.38L1164,291Z"/>
    <polyline class="cls-6" points="1311.29 81.87 1338.48 205.09 1046 204 1020.08 179.94 1311.29 81.87"/>
    <polyline class="cls-7" points="1042.32 200.87 1180 210 1167.49 291.33 1019.47 231.48 1045 208 1042.32 200.87"/>
    <polyline class="cls-7" points="1062.37 250.36 1307.4 346.64 1196.62 518.16 1020.61 291.77 1062.37 250.36"/>
    <polygon class="cls-6" points="1342.21 360.14 1307.4 346.64 1195.74 523.83 1229 569 1244 477 1284.27 413.73 1342.21 360.14"/>
    <polyline class="cls-6" points="993 249.65 1022.38 291.95 1061 250 1019.47 231.48 993 249.65"/>
    <polyline class="cls-6" points="959 261.26 991.1 251.68 1061.8 347.24 990.06 328.85 959 325.75 959 261.26"/>
    <polyline class="cls-7" points="925.58 251.42 957 261 956 325 859 346 925.58 251.42"/>
    <polyline class="cls-7" points="1197.9 536.55 1228.46 576.92 1227.6 748.76 1200.49 760.87 1197.9 536.55"/>
    <polygon class="cls-6" points="723 535 692.71 575.1 695.62 746.9 723.01 759.35 723 535"/>
    <polyline class="cls-6" points="701.08 295.63 783.39 407.3 853 350 927.91 250.19 889.58 225.35 699.77 292.81 701.08 295.63"/>
    <polyline class="cls-7" points="550.74 346.17 697.32 294.34 780.11 413.01 742 467 726.76 525.55 694 563 673 467 635.07 407.5 566.99 354.75 550.74 346.17"/>
    <polyline class="cls-7" points="493.92 209.53 867 205 889.5 228.57 546.29 345 518.59 333.75 493.92 209.53"/>
    <polyline class="cls-6" points="364.38 206.1 494.13 206.89 523.69 337.68 443 332 379 352 362 222 364.38 206.1"/>
    <polyline class="cls-6" points="619.06 79.44 612.85 207.41 870 203 892.84 183.37 619.06 79.44"/>
    <polyline class="cls-7" points="405 0 615.4 80.75 611 205 363.28 207.11 375.5 89.11 404 0"/>
    <polygon class="cls-7" points="962 0 961 156 990.2 162.85 1111 0 962 0"/>
    <polygon class="cls-6" points="1523 4 1022.74 181.47 992.83 161.1 1110 0 1521 0 1523 4"/>
    <polyline class="cls-6" points="840.94 46.37 961.91 29.63 955 161 922 161 840.94 46.37"/>
    <polyline class="cls-6" points="411 0 804 0 928.56 163.45 888 184 416 0"/>
    <path class="cls-7" d="M810,0s25.92,43.79,26.46,43.4S959,25.52,959,25.52L961,0H809"/>
  </g>
  <g id="Layer_12" data-name="Layer 12">
    <rect x="1322.5" y="78.97" width="8" height="129.07" transform="translate(-4.34 238.68) rotate(-10.27)"/>
    <rect x="1134.21" y="244" width="81.58" height="8" transform="translate(701.3 1351.51) rotate(-78.69)"/>
    <rect x="1147.27" y="428.5" width="209.46" height="8" transform="translate(217.07 1259.22) rotate(-57.68)"/>
    <rect x="1015.09" y="267" width="53.81" height="8" transform="translate(143.56 864.3) rotate(-48.02)"/>
    <rect x="734.5" y="278.68" width="8" height="142.64" transform="translate(-65.76 495.09) rotate(-35.58)"/>
    <rect x="502.5" y="204.41" width="8" height="134.17" transform="translate(-46.71 115.89) rotate(-12.48)"/>
    <rect x="548.93" y="138" width="128.14" height="8" transform="translate(442.42 747.67) rotate(-87.31)"/>
    <rect x="840.58" y="31" width="117.83" height="8" transform="translate(2.21 107.09) rotate(-6.82)"/>
    <path d="M1518.88,0A591.63,591.63,0,0,1,1557,210a595.65,595.65,0,0,1-363.4,548.24A594.51,594.51,0,0,1,541.27,630.73,595.77,595.77,0,0,1,405.12,0h-8.54A599.68,599.68,0,0,0,359,210,603.64,603.64,0,0,0,727.28,765.61a602.52,602.52,0,0,0,661.11-129.22A603.78,603.78,0,0,0,1527.42,0Z"/>
    <path d="M1545.53,0A616.66,616.66,0,0,1,1582,210a620.68,620.68,0,0,1-378.67,571.28A619.49,619.49,0,0,1,523.59,648.41,620.85,620.85,0,0,1,378.47,0H370a624.7,624.7,0,0,0-36,210A628.75,628.75,0,0,0,717.55,788.65a627.44,627.44,0,0,0,688.51-134.59A628.87,628.87,0,0,0,1554,0Z"/>
  </g>
  <g id="Layer_6" data-name="Layer 6">
    <polyline class="cls-8" points="1059.51 664.45 1175.35 776.51 1177.41 1054.94 1138.6 1054.94 1016.07 693.06 1059.51 664.45"/>
    <path class="cls-8" d="M1102.5,568h73s1-98-62-148l-53,51S1103.5,522,1102.5,568Z"/>
    <path class="cls-8" d="M965.5,434s-53,4-91,39l-61-61s28-30,74-46,79-12,79-12Z"/>
    <path class="cls-8" d="M745.5,569l86-1s2,55,40,93l-125,127Z"/>
    <polygon class="cls-8" points="796.5 1056 887.5 1058 910.5 836 870.5 840 796.5 1056"/>
    <path class="cls-8" d="M965.5,434s76,8,95,37l-14,15s-38-33-78-30Z"/>
    <path class="cls-8" d="M1082.5,567l17-1s7,47-37,96l-14-8S1079.5,610,1082.5,567Z"/>
    <polygon class="cls-8" points="887.5 649 913.5 669 906.5 685 871.5 661 887.5 649"/>
    <path class="cls-8" d="M874.5,473l14,14s-33,28-34,80h-19S841.5,495,874.5,473Z"/>
    <path class="cls-9" d="M1103.2,565.05h72.08V780.43L1062.5,662S1103.9,623.1,1103.2,565.05Z"/>
    <path class="cls-9" d="M1052.5,568c-.76-.64,28,0,28,0s2,36-13,52C1067.5,620,1071.5,584,1052.5,568Z"/>
    <path class="cls-9" d="M968.5,456l-2,43,35,28,45-41S1006.5,451,968.5,456Z"/>
    <path class="cls-9" d="M886.26,488.27l31.68,29.07L898.5,568l-44-1S848.28,526.71,886.26,488.27Z"/>
    <path class="cls-9" d="M874.5,473l14,14s35-36,80-31l-3-22S893.5,442,874.5,473Z"/>
    <path class="cls-9" d="M854.5,567s-7,44,33,82l-15.7,14.77S833.5,629,835.5,567Z"/>
    <path class="cls-9" d="M870.5,474s-36,40-38,91h-86s2-56,14-77,45-77,53-76Z"/>
    <path class="cls-9" d="M969.55,435.09s55,5.91,91,35.91l53-55s-60-60-143-63Z"/>
    <path class="cls-9" d="M1049.5,489s33,41,31,79l19-2s-2.59-64.36-40.8-91.68Z"/>
    <path class="cls-8" d="M1004.7,528.83l38.72-39.74S1082.5,507,1080.5,568l-24.85-1Z"/>
    <path class="cls-8" d="M913,512l-24.5-25s20.09-23.91,54-27.46S964.45,455,964.45,455l2,44s-15-15-17-14S913,512,913,512Z"/>
    <path class="cls-8" d="M895.16,568.06l-41.26,2s3.6,54.9,33.6,78.9l13-14Z"/>
    <polygon class="cls-9" points="900.5 635 887.5 649 902.86 661.74 910.5 660 900.5 635"/>
    <polygon class="cls-9" points="871.5 664 746.5 788 745.5 1056 796.5 1056 870.5 840 841.5 811 835.5 784 851.5 745 891.5 704 891.5 679 871.5 664"/>
    <polygon class="cls-9" points="1044.38 788.18 1138.5 1055 1048.5 1058 1050.5 829 1044.38 788.18"/>
    <polygon class="cls-9" points="1009.5 677 1038.5 659 1053.26 656.65 1056.3 667.77 1016.5 693 1009.5 677"/>
    <polygon class="cls-8" points="1008.5 674 1031.5 662 1017.5 657 1008.5 674"/>
    <polygon class="cls-8" points="1003.5 677 1009.5 683 1006.5 689 998.5 685 1003.5 677"/>
    <polyline class="cls-8" points="583.51 664.45 699.35 776.51 701.41 1054.94 662.6 1054.94 540.07 693.06 583.51 664.45"/>
    <path class="cls-8" d="M626.5,568h73s1-98-62-148l-53,51S627.5,522,626.5,568Z"/>
    <path class="cls-8" d="M489.5,434s-53,4-91,39l-61-61s28-30,74-46,79-12,79-12Z"/>
    <path class="cls-8" d="M269.5,569l86-1s2,55,40,93l-125,127Z"/>
    <polygon class="cls-8" points="320.5 1056 411.5 1058 434.5 836 394.5 840 320.5 1056"/>
    <path class="cls-8" d="M489.5,434s76,8,95,37l-14,15s-38-33-78-30Z"/>
    <path class="cls-8" d="M606.5,567l17-1s7,47-37,96l-14-8S603.5,610,606.5,567Z"/>
    <polygon class="cls-8" points="411.5 649 443.5 673 430.5 685 395.5 661 411.5 649"/>
    <path class="cls-8" d="M398.5,473l14,14s-33,28-34,80h-19S365.5,495,398.5,473Z"/>
    <path class="cls-9" d="M627.2,565.05h72.08V780.43L586.5,662S627.9,623.1,627.2,565.05Z"/>
    <path class="cls-9" d="M543.5,569c-.76-.64,61-1,61-1s2,36-13,52C591.5,620,562.5,585,543.5,569Z"/>
    <path class="cls-9" d="M492.5,456l-2,43,35,28,45-41S530.5,451,492.5,456Z"/>
    <path class="cls-9" d="M410.26,488.27,447.5,524l-25,44-44-1S372.28,526.71,410.26,488.27Z"/>
    <path class="cls-9" d="M398.5,473l14,14s35-36,80-31l-3-22S417.5,442,398.5,473Z"/>
    <path class="cls-9" d="M378.5,567s-7,44,33,82l-15.7,14.77S357.5,629,359.5,567Z"/>
    <path class="cls-9" d="M394.5,474s-36,40-38,91h-86s2-56,14-77,45-77,53-76Z"/>
    <path class="cls-9" d="M493.55,435.09S548.5,441,584.5,471l53-55s-60-60-143-63Z"/>
    <path class="cls-9" d="M573.5,489s33,41,31,79l19-2s-2.59-64.36-40.8-91.68Z"/>
    <path class="cls-8" d="M528.7,528.83l38.72-39.74S606.5,507,604.5,568l-61,1Z"/>
    <path class="cls-8" d="M448.5,523l-36-36s20.09-23.91,54-27.46S488.45,455,488.45,455l2.05,44s-15-2-17-1S448.5,523,448.5,523Z"/>
    <path class="cls-8" d="M419.16,568.06l-41.26,2s3.6,54.9,33.6,78.9l13-14Z"/>
    <polygon class="cls-9" points="424.5 635 411.5 649 449.5 674 458.5 654 424.5 635"/>
    <polygon class="cls-9" points="395.5 664 270.5 788 269.5 1056 320.5 1056 394.5 840 371.5 811 379.5 783 381.5 746 415.5 704 423.5 686 395.5 664"/>
    <polygon class="cls-9" points="568.38 788.18 662.5 1055 572.5 1058 574.5 829 568.38 788.18"/>
    <polygon class="cls-9" points="533.5 677 562.5 659 577.26 656.65 580.3 667.77 540.5 693 533.5 677"/>
    <polygon class="cls-8" points="532.5 674 555.5 662 541.5 657 532.5 674"/>
    <polygon class="cls-8" points="527.5 677 533.5 683 530.5 689 522.5 685 527.5 677"/>
    <polyline class="cls-9" points="543.5 569 540.5 582 566.15 589.59 581.5 590 543.5 569"/>
    <polyline class="cls-8" points="1537.51 664.45 1653.35 776.51 1655.41 1054.94 1616.6 1054.94 1494.07 693.06 1537.51 664.45"/>
    <path class="cls-8" d="M1580.5,568h73s1-98-62-148l-53,51S1581.5,522,1580.5,568Z"/>
    <path class="cls-8" d="M1443.5,434s-53,4-91,39l-61-61s28-30,74-46,79-12,79-12Z"/>
    <path class="cls-8" d="M1223.5,569l86-1s2,55,40,93l-125,127Z"/>
    <polygon class="cls-8" points="1274.5 1056 1365.5 1058 1388.5 836 1348.5 840 1274.5 1056"/>
    <path class="cls-8" d="M1443.5,434s76,8,95,37l-14,15s-38-33-78-30Z"/>
    <path class="cls-8" d="M1560.5,567l17-1s7,47-37,96l-14-8S1557.5,610,1560.5,567Z"/>
    <polygon class="cls-8" points="1365.5 649 1397.5 673 1384.5 685 1349.5 661 1365.5 649"/>
    <path class="cls-8" d="M1352.5,473l14,14s-33,28-34,80h-19S1319.5,495,1352.5,473Z"/>
    <path class="cls-9" d="M1581.2,565.05h72.08V780.43L1540.5,662S1581.9,623.1,1581.2,565.05Z"/>
    <path class="cls-9" d="M1446.5,456l-2,43,35,28,45-41S1484.5,451,1446.5,456Z"/>
    <path class="cls-9" d="M1364.26,488.27,1401.5,524l-6,43h-63S1326.28,526.71,1364.26,488.27Z"/>
    <path class="cls-9" d="M1352.5,473l14,14s35-36,80-31l-3-22S1371.5,442,1352.5,473Z"/>
    <path class="cls-9" d="M1332.5,567s-7,44,33,82l-15.7,14.77S1311.5,629,1313.5,567Z"/>
    <path class="cls-9" d="M1348.5,474s-36,40-38,91h-86s2-56,14-77,45-77,53-76Z"/>
    <path class="cls-9" d="M1447.55,435.09s55,5.91,91,35.91l53-55s-60-60-143-63Z"/>
    <path class="cls-9" d="M1527.5,489s33,41,31,79l19-2s-2.59-64.36-40.8-91.68Z"/>
    <path class="cls-8" d="M1482.7,528.83l38.72-39.74S1560.5,507,1558.5,568h-71Z"/>
    <path class="cls-8" d="M1402.5,523l-36-36s20.09-23.91,54-27.46,21.91-4.58,21.91-4.58l2,44s-15-2-17-1S1402.5,523,1402.5,523Z"/>
    <path class="cls-8" d="M1395.5,567l-63.6,3.1s3.6,54.9,33.6,78.9l38-41Z"/>
    <polygon class="cls-9" points="1378.5 635 1365.5 649 1403.5 674 1412.5 654 1378.5 635"/>
    <polygon class="cls-9" points="1349.5 664 1224.5 788 1223.5 1056 1274.5 1056 1348.5 840 1325.5 811 1333.5 783 1335.5 746 1369.5 704 1377.5 686 1349.5 664"/>
    <polygon class="cls-9" points="1522.38 788.18 1616.5 1055 1526.5 1058 1528.5 829 1522.38 788.18"/>
    <polygon class="cls-9" points="1487.5 677 1516.5 659 1531.26 656.65 1534.3 667.77 1494.5 693 1487.5 677"/>
    <polygon class="cls-8" points="1486.5 674 1509.5 662 1495.5 657 1486.5 674"/>
    <polygon class="cls-8" points="1481.5 677 1487.5 683 1484.5 689 1476.5 685 1481.5 677"/>
    <polygon class="cls-9" points="1486.5 568 1561.23 569.5 1551.5 611 1528.53 646.55 1478.63 602.57 1486.5 568"/>
    <polygon class="cls-8" points="1479.5 606 1508.01 636.02 1467.5 632 1479.5 606"/>
    <polyline class="cls-9" points="1405.02 612.52 1373.06 643 1414.58 633.44 1405.02 612.52"/>
    <rect class="cls-9" x="1676" y="851" width="16" height="111"/>
    <rect class="cls-8" x="1678" y="961" width="12" height="115"/>
    <rect class="cls-9" x="1694" y="1066" width="102" height="13"/>
    <rect class="cls-8" x="1799" y="1064" width="101" height="13"/>
    <rect class="cls-9" x="1902" y="962" width="12" height="115"/>
    <rect class="cls-8" x="1903" y="852" width="14" height="108"/>
    <polyline class="cls-9" points="1871.49 745.92 1893.78 780.37 1903.91 829 1901.38 848.75 1917.09 848.25 1912.53 787.96 1885.17 740.34 1877 740 1871.49 745.92"/>
    <polyline class="cls-8" points="1722.09 744.92 1699.8 779.37 1689.66 828 1692.2 847.75 1676.49 847.25 1681.05 786.96 1708.41 739.34 1716.58 739 1722.09 744.92"/>
    <polyline class="cls-9" points="1713 737 1757 708 1795 705 1793 716 1742 730 1723 749 1713 737"/>
    <polyline class="cls-8" points="1880 736 1836 707 1798 704 1800 715 1851 729 1870 748 1880 736"/>
    <polygon class="cls-8" points="1692.35 866.92 1717 867 1736 812 1702 780 1690 808 1692.35 866.92"/>
    <polygon class="cls-9" points="1901.65 867 1877 867.08 1858 812.08 1892 780.08 1904 808.08 1901.65 867"/>
    <polygon class="cls-9" points="1704 776 1729.9 740.2 1778 718 1794 719 1796 789 1742 808 1718.45 792.41 1704 776"/>
    <polygon class="cls-8" points="1889 776 1863.1 740.2 1815 718 1799 719 1797 789 1854 810 1874.55 792.41 1889 776"/>
    <polygon class="cls-9" points="1692.77 873.08 1716 873 1727.76 910.27 1738.78 929.28 1691.39 975.29 1692.77 873.08"/>
    <polygon class="cls-8" points="1751 965 1707.09 1064 1691.11 1059.87 1693.32 972.53 1741.81 930.38 1751 965"/>
    <polyline class="cls-9" points="1713.43 1061.8 1755 969 1782 1003 1783 1025 1798 1040 1794.7 1063.45 1713.43 1061.8"/>
    <polygon class="cls-8" points="1900.62 873 1877.39 872.92 1865.63 910.19 1854.61 929.2 1902 975.21 1900.62 873"/>
    <polygon class="cls-9" points="1840.39 964.92 1884.3 1063.92 1900.28 1059.79 1898.07 972.46 1849.58 930.3 1840.39 964.92"/>
    <polyline class="cls-8" points="1879.96 1061.72 1838.39 968.92 1811.39 1002.92 1810.39 1024.92 1795.39 1039.92 1798.69 1063.37 1879.96 1061.72"/>
    <polyline class="cls-8" points="1858.12 845.91 1860 872 1855.28 896.08 1871.06 902.71 1875.79 860.42 1869.48 839.91 1858.12 845.91"/>
    <polyline class="cls-9" points="1856.92 897.37 1842.2 918.99 1823.55 934.94 1831.81 949.93 1861.76 919.72 1869.55 899.72 1856.92 897.37"/>
    <polyline class="cls-9" points="1822.49 809.3 1842.05 826.67 1855.48 847.21 1871.41 840.94 1845.28 807.36 1826.44 797.08 1822.49 809.3"/>
    <polyline class="cls-8" points="1735.17 845.91 1733.29 872 1738.01 896.08 1722.23 902.71 1717.49 860.42 1723.81 839.91 1735.17 845.91"/>
    <polyline class="cls-9" points="1736.37 897.37 1751.09 918.99 1769.74 934.94 1761.48 949.93 1731.52 919.72 1723.74 899.72 1736.37 897.37"/>
    <polyline class="cls-9" points="1770.79 809.3 1751.23 826.67 1737.8 847.21 1721.88 840.94 1748.01 807.36 1766.84 797.08 1770.79 809.3"/>
    <polyline class="cls-8" points="1788.12 791.55 1825.57 794.88 1817.62 806.94 1786 806 1788.12 791.55"/>
    <polygon class="cls-9" points="1843.27 828.49 1859.43 850.03 1860.2 868.24 1804 867 1843.27 828.49"/>
    <polygon class="cls-8" points="1860.54 874.32 1854.21 900.5 1839 916 1805.84 868.56 1860.54 874.32"/>
    <polygon class="cls-8" points="1802 862 1837.87 824.84 1797.35 824.84 1796.78 863.63 1802 862"/>
    <polygon class="cls-9" points="1756 825 1794 826 1794.21 865.63 1756 825"/>
    <polyline class="cls-8" points="1734.59 850.51 1751.23 826.67 1768 845 1765.97 855.36 1734.59 850.51"/>
    <rect class="cls-9" x="232.09" y="851" width="16" height="111" transform="translate(480.17 1813) rotate(-180)"/>
    <rect class="cls-8" x="234.09" y="961" width="12" height="115" transform="translate(480.17 2037) rotate(-180)"/>
    <rect class="cls-9" x="128.09" y="1066" width="102" height="13" transform="translate(358.17 2145) rotate(-180)"/>
    <rect class="cls-8" x="24.09" y="1064" width="101" height="13" transform="translate(149.17 2141) rotate(-180)"/>
    <rect class="cls-9" x="5" y="962" width="12" height="115" transform="translate(22 2039) rotate(-180)"/>
    <rect class="cls-8" x="7.09" y="852" width="14" height="108" transform="translate(28.17 1812) rotate(-180)"/>
    <polyline class="cls-9" points="52.59 745.92 30.3 780.37 20.17 829 22.7 848.75 7 848.25 4 789 38.91 740.34 47.09 740 52.59 745.92"/>
    <polyline class="cls-8" points="202 744.92 224.29 779.37 234.42 828 231.89 847.75 247.59 847.25 243.03 786.96 215.68 739.34 207.51 739 202 744.92"/>
    <polyline class="cls-9" points="211.09 737 167.09 708 129.09 705 131.09 716 182.09 730 201.09 749 211.09 737"/>
    <polyline class="cls-8" points="44.09 736 78 711 126.09 704 124.09 715 73.09 729 54.09 748 44.09 736"/>
    <polygon class="cls-8" points="231.74 866.92 207.09 867 188.09 812 222.09 780 234.09 808 231.74 866.92"/>
    <polygon class="cls-9" points="19.43 867 44.09 867.08 67 812 30 777 17.09 808.08 19.43 867"/>
    <polygon class="cls-9" points="220.09 776 194.18 740.2 146.09 718 130.09 719 128.09 789 182.09 808 205.63 792.41 220.09 776"/>
    <polygon class="cls-8" points="31 771 60 735 109.09 718 125.09 719 127.09 789 70.09 810 49.54 792.41 31 771"/>
    <polygon class="cls-9" points="231.32 873.08 208.09 873 196.33 910.27 185.31 929.28 232.7 975.29 231.32 873.08"/>
    <polygon class="cls-8" points="173.09 965 217 1064 232.97 1059.87 230.77 972.53 182.28 930.38 173.09 965"/>
    <polyline class="cls-9" points="210.66 1061.8 169.09 969 142.09 1003 141.09 1025 126.09 1040 129.38 1063.45 210.66 1061.8"/>
    <polygon class="cls-8" points="18 874 46.7 872.92 58.45 910.19 69.47 929.2 19 978 18 874"/>
    <polygon class="cls-9" points="83.7 964.92 39.79 1063.92 20 1061 19 978 74.5 930.3 83.7 964.92"/>
    <polyline class="cls-8" points="44.13 1061.72 85.7 968.92 112.7 1002.92 113.7 1024.92 128.7 1039.92 125.4 1063.37 44.13 1061.72"/>
    <polyline class="cls-8" points="65.97 845.91 64.09 872 68.81 896.08 53.03 902.71 48.29 860.42 54.6 839.91 65.97 845.91"/>
    <polyline class="cls-9" points="67.17 897.37 81.89 918.99 100.54 934.94 92.28 949.93 62.32 919.72 54.54 899.72 67.17 897.37"/>
    <polyline class="cls-9" points="101.59 809.3 82.03 826.67 68.6 847.21 52.68 840.94 78.81 807.36 97.64 797.08 101.59 809.3"/>
    <polyline class="cls-8" points="188.92 845.91 190.8 872 186.08 896.08 201.86 902.71 206.59 860.42 200.28 839.91 188.92 845.91"/>
    <polyline class="cls-9" points="187.72 897.37 173 918.99 154.35 934.94 162.6 949.93 192.56 919.72 200.35 899.72 187.72 897.37"/>
    <polyline class="cls-9" points="153.29 809.3 172.85 826.67 186.28 847.21 202.21 840.94 176.08 807.36 157.24 797.08 153.29 809.3"/>
    <polyline class="cls-8" points="135.97 791.55 98.52 794.88 106.47 806.94 138.09 806 135.97 791.55"/>
    <polygon class="cls-9" points="80.82 828.49 64.66 850.03 63.89 868.24 120.09 867 80.82 828.49"/>
    <polygon class="cls-8" points="63.55 874.32 69.88 900.5 85.09 916 118.25 868.56 63.55 874.32"/>
    <polygon class="cls-8" points="122.09 862 86.22 824.84 126.73 824.84 127.3 863.63 122.09 862"/>
    <polygon class="cls-9" points="168.09 825 130.09 826 129.87 865.63 168.09 825"/>
    <polyline class="cls-8" points="189.5 850.51 172.85 826.67 156.09 845 158.12 855.36 189.5 850.51"/>
  </g>
  <g id="Layer_5" data-name="Layer 5">
    <path d="M967.5,706c-75.54,0-137-61.46-137-137S892,432,967.5,432s137,61.46,137,137S1043,706,967.5,706Zm0-266a129,129,0,1,0,129,129A129.15,129.15,0,0,0,967.5,440Z"/>
    <path d="M967.5,686.43A117.43,117.43,0,1,1,1084.93,569,117.56,117.56,0,0,1,967.5,686.43Zm0-228A110.57,110.57,0,1,0,1078.07,569,110.69,110.69,0,0,0,967.5,458.43Z"/>
    <rect x="963" y="351" width="8" height="217.5"/>
    <rect x="886.05" y="380.8" width="8" height="219" transform="translate(-86.01 772.97) rotate(-45)"/>
    <rect x="744.5" y="563.25" width="223.75" height="8"/>
    <rect x="698.17" y="675.32" width="315.52" height="8" transform="translate(-229.65 804.29) rotate(-45)"/>
    <rect x="933.59" y="489.05" width="211.22" height="8" transform="translate(-44.27 879.24) rotate(-45)"/>
    <rect x="963.75" y="563.25" width="212.75" height="8"/>
    <rect x="1067.26" y="523.53" width="8.13" height="302.08" transform="translate(-163.21 955.12) rotate(-45)"/>
    <rect x="1050.01" y="551.92" width="8" height="519.93" transform="translate(-209.01 393.7) rotate(-19.29)"/>
    <rect x="622.04" y="807.89" width="519.93" height="8" transform="translate(-175.66 1376.2) rotate(-70.71)"/>
    <path d="M491.5,706c-75.54,0-137-61.46-137-137S416,432,491.5,432s137,61.46,137,137S567,706,491.5,706Zm0-266a129,129,0,1,0,129,129A129.15,129.15,0,0,0,491.5,440Z"/>
    <path d="M491.5,686.43A117.43,117.43,0,1,1,608.93,569,117.56,117.56,0,0,1,491.5,686.43Zm0-228A110.57,110.57,0,1,0,602.07,569,110.69,110.69,0,0,0,491.5,458.43Z"/>
    <rect x="487" y="351" width="8" height="217.5"/>
    <rect x="410.05" y="380.8" width="8" height="219" transform="translate(-225.42 436.39) rotate(-45)"/>
    <rect x="268.5" y="563.25" width="223.75" height="8"/>
    <rect x="222.17" y="675.32" width="315.52" height="8" transform="translate(-369.09 467.68) rotate(-45)"/>
    <rect x="457.59" y="489.05" width="211.22" height="8" transform="translate(-183.68 542.72) rotate(-45)"/>
    <rect x="487.75" y="563.25" width="212.75" height="8"/>
    <rect x="591.26" y="523.53" width="8.13" height="302.08" transform="translate(-302.63 618.53) rotate(-45)"/>
    <rect x="574.01" y="551.92" width="8" height="519.93" transform="translate(-235.73 236.48) rotate(-19.29)"/>
    <rect x="146.04" y="807.89" width="519.93" height="8" transform="translate(-494.42 926.92) rotate(-70.71)"/>
    <path d="M1445.5,706c-75.54,0-137-61.46-137-137s61.46-137,137-137,137,61.46,137,137S1521,706,1445.5,706Zm0-266a129,129,0,1,0,129,129A129.15,129.15,0,0,0,1445.5,440Z"/>
    <path d="M1445.5,686.43A117.43,117.43,0,1,1,1562.93,569,117.56,117.56,0,0,1,1445.5,686.43Zm0-228A110.57,110.57,0,1,0,1556.07,569,110.69,110.69,0,0,0,1445.5,458.43Z"/>
    <rect x="1441" y="351" width="8" height="217.5"/>
    <rect x="1364.05" y="380.8" width="8" height="219" transform="translate(54 1110.97) rotate(-45)"/>
    <rect x="1222.5" y="563.25" width="223.75" height="8"/>
    <rect x="1176.17" y="675.32" width="315.52" height="8" transform="translate(-89.65 1142.2) rotate(-45)"/>
    <rect x="1411.59" y="489.05" width="211.22" height="8" transform="translate(95.74 1217.23) rotate(-45)"/>
    <rect x="1441.75" y="563.25" width="212.75" height="8"/>
    <rect x="1545.26" y="523.53" width="8.13" height="302.08" transform="translate(-23.21 1293.11) rotate(-45)"/>
    <rect x="1528.01" y="551.92" width="8" height="519.93" transform="translate(-182.18 551.58) rotate(-19.29)"/>
    <rect x="1100.04" y="807.89" width="519.93" height="8" transform="translate(144.44 1827.37) rotate(-70.71)"/>
    <rect x="955" width="8" height="328"/>
    <polygon points="1224.77 576.36 803 0 813 0 1231.23 571.64 1224.77 576.36"/>
    <polygon points="1356.56 366.73 404.08 -0.13 427 0 1359.44 359.27 1356.56 366.73"/>
    <rect x="508.43" y="173.5" width="1046.14" height="8" transform="translate(-1.52 345.91) rotate(-19.02)"/>
    <polygon points="697.23 571.36 690.77 566.64 1104 0 1114 0 697.23 571.36"/>
    <rect x="367" y="203" width="1193" height="8"/>
    <path d="M1797,953a83,83,0,1,1,83-83A83.09,83.09,0,0,1,1797,953Zm0-158a75,75,0,1,0,75,75A75.08,75.08,0,0,0,1797,795Z"/>
    <path d="M1797,939a69,69,0,1,1,69-69A69.07,69.07,0,0,1,1797,939Zm0-130a61,61,0,1,0,61,61A61.06,61.06,0,0,0,1797,809Z"/>
    <path d="M1797,878a8,8,0,1,1,8-8A8,8,0,0,1,1797,878Zm0-8Z"/>
    <rect x="1797" y="866" width="65" height="8"/>
    <rect x="1877" y="866" width="25" height="8"/>
    <rect x="1694" y="866" width="25" height="8"/>
    <rect x="1793" y="868" width="8" height="65"/>
    <rect x="1793" y="802" width="8" height="67"/>
    <rect x="1793" y="720" width="8" height="69"/>
    <rect x="1793" y="997" width="8" height="67"/>
    <rect x="1788.52" y="842.98" width="65" height="8" transform="translate(-65.54 1535.73) rotate(-45)"/>
    <rect x="1680.14" y="948.5" width="70.71" height="8" transform="translate(-171.06 1492.02) rotate(-45)"/>
    <rect x="1846.59" y="791.98" width="50.86" height="8" transform="translate(-14.54 1556.85) rotate(-45)"/>
    <rect x="1768.02" y="813.48" width="8" height="65" transform="translate(-79.19 1500.79) rotate(-45)"/>
    <rect x="1720.01" y="768.99" width="8" height="57.96" transform="translate(-59.29 1452.8) rotate(-45)"/>
    <rect x="1813.52" y="859.98" width="8" height="65" transform="translate(-98.74 1546.58) rotate(-45)"/>
    <rect x="1873.53" y="918.56" width="8" height="67.86" transform="translate(-123.6 1606.57) rotate(-45)"/>
    <rect x="1649.15" y="963.09" width="207.85" height="8" transform="translate(161.07 2181.2) rotate(-66.21)"/>
    <rect x="1834.08" y="863.17" width="8" height="207.85" transform="translate(-233.93 823.67) rotate(-23.79)"/>
    <rect x="1853.53" y="837.7" width="18" height="8" transform="translate(-180.33 776.83) rotate(-22.5)"/>
    <rect x="1853.53" y="894.7" width="18" height="8" transform="translate(3239.37 2441.74) rotate(-157.5)"/>
    <rect x="1722.53" y="837.7" width="18" height="8" transform="translate(3009.15 2281.95) rotate(-157.5)"/>
    <rect x="1722.53" y="894.7" width="18" height="8" transform="translate(-212.11 731.04) rotate(-22.5)"/>
    <rect x="1813.58" y="798.6" width="18" height="8" transform="translate(383.6 2179.3) rotate(-67.5)"/>
    <path d="M127.09,953a83,83,0,1,1,83-83A83.09,83.09,0,0,1,127.09,953Zm0-158a75,75,0,1,0,75,75A75.08,75.08,0,0,0,127.09,795Z"/>
    <path d="M127.09,939a69,69,0,1,1,69-69A69.07,69.07,0,0,1,127.09,939Zm0-130a61,61,0,1,0,61,61A61.06,61.06,0,0,0,127.09,809Z"/>
    <path d="M127.09,878a8,8,0,1,1,8-8A8,8,0,0,1,127.09,878Zm0-8Z"/>
    <rect x="62.09" y="866" width="65" height="8"/>
    <rect x="22.09" y="866" width="25" height="8"/>
    <rect x="205.09" y="866" width="25" height="8"/>
    <rect x="123.09" y="868" width="8" height="65"/>
    <rect x="123.09" y="802" width="8" height="67"/>
    <rect x="123.09" y="720" width="8" height="69"/>
    <rect x="123.09" y="997" width="8" height="67"/>
    <rect x="99.07" y="814.48" width="8" height="65" transform="translate(-568.72 320.95) rotate(-45)"/>
    <rect x="204.59" y="917.14" width="8" height="70.71" transform="translate(-612.43 426.47) rotate(-45)"/>
    <rect x="46.55" y="766.88" width="8" height="55.16" transform="translate(-546.97 268.44) rotate(-45)"/>
    <rect x="119.57" y="841.98" width="65" height="8" transform="translate(-553.7 355.37) rotate(-45)"/>
    <rect x="171.1" y="793.97" width="57.96" height="8" transform="translate(-505.69 375.26) rotate(-45)"/>
    <rect x="74.07" y="888.48" width="65" height="8" transform="translate(-599.91 336.82) rotate(-45)"/>
    <rect x="7.15" y="950.76" width="74.28" height="8" transform="translate(-662.2 311.02) rotate(-45)"/>
    <rect x="167.01" y="863.17" width="8" height="207.85" transform="translate(-375.6 151.17) rotate(-23.79)"/>
    <rect x="-17.91" y="963.09" width="207.85" height="8" transform="translate(-833.62 655.74) rotate(-66.21)"/>
    <rect x="52.56" y="837.7" width="18" height="8" transform="translate(-203.68 1642.88) rotate(-157.5)"/>
    <rect x="52.56" y="894.7" width="18" height="8" transform="translate(-339.23 91.97) rotate(-22.5)"/>
    <rect x="183.56" y="837.7" width="18" height="8" transform="translate(-307.45 137.76) rotate(-22.5)"/>
    <rect x="183.56" y="894.7" width="18" height="8" transform="translate(26.54 1802.67) rotate(-157.5)"/>
    <rect x="92.51" y="798.6" width="18" height="8" transform="translate(-601.16 1203.53) rotate(-112.5)"/>
  </g>
  <g id="Layer_9" data-name="Layer 9">
    <rect x="1005" y="676" width="8" height="382"/>
    <rect x="1005.5" y="359" width="8" height="84"/>
    <rect x="1047.5" y="673" width="8" height="385"/>
    <rect x="1047.5" y="374" width="8" height="92"/>
    <rect x="1090" y="611" width="8" height="447"/>
    <rect x="1090.5" y="397" width="8" height="130"/>
    <rect x="1132.5" y="440" width="8" height="618"/>
    <rect x="785" y="440" width="8" height="618"/>
    <rect x="829.5" y="395" width="8" height="663"/>
    <rect x="873.5" y="367" width="8" height="103"/>
    <rect x="873.5" y="668" width="8" height="103"/>
    <rect x="920.5" y="353" width="8" height="88"/>
    <rect x="529" y="676" width="8" height="382"/>
    <rect x="529.5" y="359" width="8" height="84"/>
    <rect x="571.5" y="673" width="8" height="385"/>
    <rect x="571.5" y="374" width="8" height="92"/>
    <rect x="614" y="611" width="8" height="447"/>
    <rect x="614.5" y="397" width="8" height="130"/>
    <rect x="656.5" y="440" width="8" height="618"/>
    <rect x="309" y="440" width="8" height="618"/>
    <rect x="353.5" y="395" width="8" height="663"/>
    <rect x="397.5" y="367" width="8" height="103"/>
    <rect x="397.5" y="668" width="8" height="103"/>
    <rect x="444.5" y="353" width="8" height="88"/>
    <rect x="1483" y="676" width="8" height="382"/>
    <rect x="1483.5" y="359" width="8" height="84"/>
    <rect x="1525.5" y="673" width="8" height="385"/>
    <rect x="1525.5" y="374" width="8" height="92"/>
    <rect x="1568" y="611" width="8" height="447"/>
    <rect x="1568.5" y="397" width="8" height="130"/>
    <rect x="1610.5" y="440" width="8" height="618"/>
    <rect x="1263" y="440" width="8" height="618"/>
    <rect x="1307.5" y="395" width="8" height="663"/>
    <rect x="1351.5" y="367" width="8" height="103"/>
    <rect x="1351.5" y="668" width="8" height="103"/>
    <rect x="1398.5" y="353" width="8" height="88"/>
  </g>
  <g id="Layer_4" data-name="Layer 4">
    <polygon class="cls-10" points="1048.5 1054 1050.5 964 1072.5 975 1100.5 980 1113.5 961 1113.5 941 1101.5 933 1080.5 929 1068.5 919 1057.5 921 1050.5 917 1046.5 806 1027.5 707 1018.5 705 1011.89 693.62 994.11 679.94 1004.5 672 1011.5 658 1026.5 661 1052.5 659 1068.5 640 1067.5 601 1054.5 571 1033.5 552 951.5 488 916.5 510 901.5 540 896.5 595 903.5 646 908.5 655 899.5 666 891.5 691 891.5 705 847.5 749 838.5 780 838.5 804 859.5 831 875.5 839 846.5 1054 1048.5 1054"/>
  </g>
  <g id="Layer_7" data-name="Layer 7">
    <path class="cls-11" d="M1033.5,558s13,31-5,69-40,63-40,63v20s18,4,19,16-4,7-4,7-28-22-41-18,8-17-26-26l3-26,21-42,35-43S1024.5,554,1033.5,558Z"/>
    <path class="cls-11" d="M1053.5,921l8-1,17,1,6,13,17-1,11,10s3,14,2,16-6.27,16.39-6.27,16.39L1088.5,978l-23-7-17.83-11.61L1060.5,947Z"/>
    <polygon class="cls-4" points="1048.94 1050.65 1047.5 959 1037.5 965 1024.5 958 1041.5 943 1032.5 913 1047.5 917 1049.86 842.12 1031.57 725.97 1011.5 752 988.5 736 962.5 732 931.5 746 909.5 774 891.5 815 881.5 863 873.5 906 868.5 964 860.54 1058.88 1048.5 1058 1048.94 1050.65"/>
    <polygon class="cls-2" points="1032.5 913 1041.5 943 1024.5 958 1038.5 962 1060.5 947 1047.5 917 1032.5 913"/>
    <polygon class="cls-2" points="1009.21 748.09 1030.5 721 1024.5 706 1003.5 733 973.26 716.4 942.5 722 909.5 751 890.5 789 872.5 866 846.5 1054 862.09 1055.1 870.61 931.16 891.5 815 914.5 761 939.2 741.47 956.5 732 982.5 732 1009.21 748.09"/>
    <polygon class="cls-4" points="955.75 720.18 935.5 699 904.5 706 861.5 751 846.5 777 854.5 805 878.5 831 894.26 781.21 909.5 751 933.52 727.28 955.75 720.18"/>
    <polygon class="cls-4" points="1008.48 722.93 1019.77 704.4 998.5 685 987.93 692.54 988.8 708.17 1008.48 722.93"/>
    <polygon class="cls-4" points="939.6 666.2 932.5 662 922.5 668 913.5 669 903.5 695 933.5 689 939.6 666.2"/>
    <path class="cls-2" d="M962.5,715l-21-24.66-29,.66-36,24-27.42,38-12.19,26.57,7.32,34.12L873.5,842l5-11s-25.06-29.47-25-30.24-6-30.76-6-30.76l12-17,23-28,25-18,25-6.42,19,12.42,4,7,7-5"/>
    <polygon class="cls-2" points="918.5 667 908.5 678 903.5 695 894.91 702.53 893.5 687 907.5 659 918.5 667"/>
    <path class="cls-11" d="M496,669.35,513.5,658l5-23-13,9s-15,4-16,4-4,9-4,9l4,7Z"/>
    <polygon class="cls-10" points="1014.5 590 1035.5 588 1034.5 603 1021.5 604 1014.5 590"/>
    <polygon class="cls-11" points="502.65 645.66 525.5 621 508.5 607 500.5 571 501.5 559 480.5 529 463.5 556 443.5 572 455.5 616 484.5 646 502.65 645.66"/>
    <ellipse class="cls-10" cx="466.5" cy="573.5" rx="8" ry="6.5"/>
    <polygon class="cls-12" points="581.5 706 605.5 734 660.5 1058 336.5 1053 383.5 745 407.5 702 411.5 709 404.5 742 415.5 764 445.5 771 465.5 759 461.5 734 443.5 719 432.5 717 450.5 704 476.5 682 481.5 664 490.5 667 500.97 667.68 510.67 661.36 515.5 671 525.5 695 548.5 707 581.5 706"/>
    <polygon class="cls-11" points="485.5 932 511.5 950 516.5 962 494.5 973 472.5 950 485.5 932"/>
    <polygon class="cls-13" points="525.5 621 505.5 603 500.43 578.17 504.5 562 488.4 543.46 479.5 524 468.03 549.47 443.5 572 453.22 605.01 476.5 643 487.01 650.83 471.74 685.08 434.5 713 438.88 720.25 463.87 742 461.09 762.37 433.78 771.16 409.5 756 406.5 717 435.5 682 461.5 661 464.5 650 430.5 642 403.5 610 399.5 580 413.5 551 445.5 529 465.5 504 488.5 492 507.5 496 535.5 524 541.5 562 540.5 582 577.5 601 598.5 640 600.5 678 573.55 704.98 541.62 704.98 518.5 685 513.39 651.29 525.5 621"/>
    <polyline class="cls-10" points="1472.93 633.07 1444.5 662 1458.44 679.01 1476.32 657.12 1480.5 642 1472.93 633.07"/>
    <polygon class="cls-10" points="1407.5 636 1439.5 662 1430.49 677.83 1406.91 649.23 1407.5 636"/>
    <polyline class="cls-10" points="1461.11 675.7 1447.5 687 1455.5 716 1470.77 673.82 1461.11 675.7"/>
    <polygon class="cls-10" points="1409.5 656 1438.5 690 1428.49 722.5 1413.81 693.01 1409.5 656"/>
    <polyline class="cls-11" points="1401.73 590.54 1397.27 563.03 1415.62 543.11 1418.5 526 1459.9 527.39 1482.5 567 1478.5 591 1465.5 604 1441.5 620 1424.5 611 1401.73 590.54"/>
    <polygon class="cls-11" points="1435.5 653 1452.96 652.73 1439.5 662 1435.5 653"/>
    <polyline class="cls-14" points="1478.12 634.52 1476.5 717 1475.5 814 1482.5 886 1484.5 1008 1489.5 1057 1522.5 1057 1528.5 1055 1546.5 1058"/>
    <polyline class="cls-14" points="1540.5 1056 1551.5 1056 1561.41 1054.46 1552.5 988 1541.46 940.14 1540.5 905 1562.99 918.92 1575.5 916 1580.6 800.77 1570.07 686.95 1543.5 652 1517.2 639.95 1474.5 633"/>
    <line class="cls-14" x1="1384.67" y1="644.73" x2="1395.87" y2="916.67"/>
    <polyline class="cls-11" points="1541.47 913.09 1573.28 921.15 1576.5 958 1545.95 961.92 1542.37 944 1541.47 913.09"/>
    <polyline class="cls-11" points="1325.53 928.32 1348.38 927.42 1356.45 947.13 1352.86 959.68 1343.01 941.76 1327.77 942.65 1328.67 957.89 1334.49 966.4 1317.5 964 1317.47 939.97 1325.53 928.32"/>
    <polygon class="cls-14" points="1444.52 664.41 1451.57 682.03 1441.45 687.57 1432.5 677 1439.5 664 1444.52 664.41"/>
    <polygon class="cls-14" points="1444.5 691 1451.5 721 1444.5 738 1429.5 723 1439.5 691 1444.5 691"/>
    <polyline class="cls-15" points="1473.5 663 1446.7 740.13 1417.5 712 1404.99 633.02 1385.31 641.03 1393.5 883 1395.05 958.7 1418.5 963 1448.5 956 1461.07 968.98 1482.5 965 1479.5 873 1478.17 817.22 1481.44 768.09 1475.5 692 1474.5 662"/>
    <path class="cls-15" d="M1391.86,961.55l58.68-1.38,22,11.83,10-6s1,90,0,91-32-1-32-1l-4-44h-6l-2,44-40,1-4-22-2.64-73.45"/>
    <polyline class="cls-16" points="1404.07 596.83 1410.5 597 1429.5 618 1462.5 613 1477.5 590 1465.57 633.51 1441.5 654 1410.5 628 1400.5 599 1404.07 596.83"/>
    <polyline class="cls-17" points="1473.3 502.95 1484.17 535.12 1484.17 563.6 1461.5 537 1459.38 525.77 1420.5 528 1399.38 562.51 1396.77 534.25 1406.5 503 1429.16 489.68 1458.5 490 1473.3 502.95"/>
    <polygon class="cls-14" points="1378.62 645.62 1336.77 655.64 1330.87 673.91 1315.5 703 1321.5 925 1352.5 926 1359.12 940.89 1352.5 963 1356.5 1056 1395.5 1057 1391.29 879.57 1386.48 650.8 1379.87 641.78 1378.62 645.62"/>
    <circle class="cls-10" cx="1426.5" cy="572" r="8"/>
    <circle class="cls-12" cx="957" cy="206" r="29"/>
    <polyline class="cls-18" points="1032.01 189.04 1099 119 1145.64 101.19 1230.65 90.14 1294.41 58.69 1258 98 1257.57 108.28 1201 135 1233 149 1200.89 162.12 1157.54 162.4 1192.68 180.54 1205.71 185.64 1170 196 1133.45 185.35 1160.37 208.59 1096.33 209.72 1090.95 212.84 1115.32 241.74 1072 226 1074 251 1054.11 232.39 1050.43 244.29 1040 219 1048 204 1032.01 189.04"/>
    <polyline class="cls-18" points="889.26 189.92 822.27 119.88 775.63 102.08 690.62 91.03 626.86 59.57 663.27 98.88 663.7 109.16 720.27 135.88 688.27 149.88 720.37 163 763.73 163.28 728.59 181.42 715.56 186.52 751.27 196.88 787.82 186.24 760.9 209.47 824.94 210.61 830.32 213.72 805.95 242.63 849.27 226.88 847.27 251.88 867.16 233.28 870.84 245.18 881.27 219.88 873.27 204.88 889.26 189.92"/>
    <polyline class="cls-11" points="1865.52 989.72 1854 959 1843 923 1827 908 1806 868 1800 873 1801.27 891.23 1759 850 1743.03 854.87 1737 861 1739.14 880.96 1736 889 1743.89 904.06 1742.43 933.31 1750.84 960.36 1801 1024 1813.87 1015.34 1844.01 1028.04 1865.52 989.72"/>
    <polyline class="cls-19" points="1794.48 1029.87 1802 1038 1828.5 1023.19 1812.92 1013.02 1794.48 1029.87"/>
    <polygon class="cls-19" points="1787 1011 1787.92 1026.63 1796.31 1027.12 1796.56 1020.21 1787 1011"/>
    <polyline class="cls-11" points="58.57 989.72 70.09 959 81.09 923 97.09 908 118.09 868 124.09 873 122.81 891.23 165.09 850 181.06 854.87 187.09 861 184.94 880.96 188.09 889 180.19 904.06 181.66 933.31 173.25 960.36 123.09 1024 110.21 1015.34 80.08 1028.04 58.57 989.72"/>
    <polyline class="cls-19" points="129.61 1029.87 122.09 1038 95.59 1023.19 111.17 1013.02 129.61 1029.87"/>
    <polygon class="cls-19" points="137.09 1011 136.17 1026.63 127.78 1027.12 127.53 1020.21 137.09 1011"/>
  </g>
  <g id="Layer_3" data-name="Layer 3">
    <path d="M922.5,671c-5.15,0-9.75-2.34-13.67-7-10-11.74-13.58-36.32-14.87-54.87-1.52-21.86-.53-47.07,2.59-65.82,7.32-43.91,51.85-58.55,53.74-59.15l2-.64L1049,558.84c1,.74,23.54,18.76,23.54,68.16,0,14.16-4.42,24.58-13.14,31-17.3,12.68-44.9,4.2-46.06,3.84l2.4-7.64c.25.08,24.93,7.63,38.94-2.67,6.54-4.8,9.86-13,9.86-24.51,0-23.64-5.58-39.22-10.26-48.12-5-9.58-10.15-13.69-10.2-13.73l-6-4.7-.08.51c-30.6-4.45-55.85,35.54-76.14,67.67C946.83,652.3,935,671,922.5,671Zm28.29-178.48c-8.27,3.24-40.65,18-46.34,52.14-3,18.17-4,42.67-2.51,63.94,1.71,24.54,6.33,42.39,13,50.26,2.36,2.79,4.84,4.14,7.57,4.14,8.11,0,20.52-19.64,32.51-38.64,19.31-30.57,42.85-67.85,73.29-71.47Z"/>
    <path d="M985.11,692.93c-20.06,0-48.19-25.61-51.68-28.86l5.46-5.86c13.34,12.43,38.77,30.5,50.16,26.06,6.93-2.69,21.07-22.35,31.83-49.42,12.14-30.51,15.6-58.61,9.51-77.07l7.6-2.51c9.47,28.72-3.61,67.29-9.67,82.54-12.85,32.33-27.86,50.61-36.37,53.92A18.86,18.86,0,0,1,985.11,692.93Z"/>
    <path d="M1002.43,648.16c-1.17,0-2.29-.08-3.31-.18-3.3-.31-13.35-1.27-15.61-8-2-5.92,3.64-11.3,4.29-11.9l5.4,5.9c-1.32,1.24-2.25,3-2.11,3.46,0,0,1.11,1.88,8.79,2.61,5.11.49,6.12-.49,6.22-.6,1-1.14-.22-6.77-1.13-10.88-1.44-6.58-3.25-14.78-2.46-23.89.65-7.42,3.56-13.06,8.64-16.75,9.69-7,23.66-3.93,24.25-3.8l-1.79,7.8c-.11,0-11.06-2.42-17.78,2.49-3.16,2.3-4.9,5.89-5.34,11-.69,7.88,1,15.42,2.3,21.48,1.68,7.66,3,13.71-.7,17.89C1009.64,647.49,1005.85,648.16,1002.43,648.16Z"/>
    <path d="M992.06,604.17c-.29-.22-7.1-5.3-13.62-1.67l-3.88-7c11.18-6.21,21.94,2,22.4,2.34Z"/>
    <path d="M1012.5,730h-8c0-12-17.16-18.17-17.33-18.23l-2.63-.93-.22-19.73,8-.08.15,14.28C998.48,708,1012.5,715.84,1012.5,730Z"/>
    <path d="M1016.57,710.75c-3.45-18.13-18.77-22.42-19.42-22.59l2-7.74c.85.21,20.84,5.6,25.27,28.83Z"/>
    <path d="M851.46,1055.53l-7.92-1.06c3.25-24.42,6.14-49.26,8.93-73.27,6.44-55.33,12.51-107.59,22.41-151.13,11.28-49.62,25.92-80.49,46.07-97.15,18.77-15.52,36.89-22.19,53.88-19.84a50.53,50.53,0,0,1,29.06,15l14.85-25.34,1.27-.5a8.31,8.31,0,0,1,6.67.4c2.75,1.41,4.67,4.22,5.7,8.34,1.16,4.62,28.23,114.19,23.11,205.19l-8-.44c5-89.82-21.75-198.24-22.89-202.81a8.47,8.47,0,0,0-1-2.6l-18.79,32.07-3.57-5.17c-.09-.13-9.89-13.88-27.6-16.28-14.64-2-30.64,4.1-47.56,18.09-41.34,34.19-53.14,135.64-65.63,243C857.62,1006.17,854.73,1031,851.46,1055.53Z"/>
    <path d="M865.21,1055.73l-8-.26c.34-10.34,8.95-253.81,61.52-304.35,17.88-17.2,36.23-25.39,54.53-24.34s31.43,11,37.54,16.75l16.12-26.08,6.8,4.21L1012,756.85l-3.55-4.3c-.14-.16-14.07-16.59-35.71-17.79-16-.89-32.25,6.56-48.44,22.12C874,805.19,865.29,1053.23,865.21,1055.73Z"/>
    <path d="M873.34,845.37c-26.22-16.83-39.57-36.64-39.7-58.88-.1-17.37,7.84-35.66,23.62-54.38,15.55-18.46,34.27-32,44-38.45,13.23-8.72,25.73-11.32,37.14-7.74,18.92,5.93,27.42,26.71,27.77,27.59l-7.42,3c-.07-.18-7.5-18.19-22.79-23-9-2.81-19.19-.52-30.3,6.8-31.09,20.48-64.25,53.85-64.06,86.1.11,19.36,12.23,36.92,36,52.19Z"/>
    <path d="M875.62,835.4a112.68,112.68,0,0,1-21.78-23.81c-12.78-19.21-14-37.48-3.65-52.83,16.46-24.34,52.09-65,81-63.14,11.36.75,20.39,7.68,26.85,20.59l-7.16,3.58c-5.16-10.33-11.78-15.63-20.21-16.18-10.52-.7-24.09,6.08-39.27,19.58-17.07,15.18-29.9,33.07-34.63,40-20.63,30.5,23.29,65.51,23.74,65.86Z"/>
    <path d="M905.34,699.14l-8-.5c2-32,22.67-35.46,23.55-35.6l1.2,7.92-.6-4,.64,4C921.52,671.06,906.93,673.91,905.34,699.14Z"/>
    <path d="M888.5,703.1c-1.08-44.38,20.86-46.05,21.79-46.09l.42,8h.09c-.15,0-15.18,2-14.3,37.91Z"/>
    <rect x="925.33" y="672.73" width="24.94" height="8" transform="translate(-4.86 1346.67) rotate(-71.22)"/>
    <path d="M1021.5,609a9.16,9.16,0,0,1-7.52-3.48c-4.17-5.29-2.22-14.5-1.79-16.3l7.78,1.88-3.89-.94,3.89.93c-.7,2.94-1,7.87.29,9.48.13.16.34.43,1.24.43a17.58,17.58,0,0,0,11.59-4.21l5.61,5.69A25.6,25.6,0,0,1,1021.5,609Z"/>
    <circle cx="1025.5" cy="596" r="4"/>
    <rect x="837.44" y="949.54" width="207.37" height="8" transform="translate(-141.36 1742.95) rotate(-81.48)"/>
    <polygon points="1040.41 967.24 942.27 948.68 943.76 940.82 1038.59 958.76 1057.37 945.69 1044.66 920.27 953.24 889.79 955.76 882.21 1050.34 913.73 1067.63 948.31 1040.41 967.24"/>
    <polygon points="1024.44 962.41 1019.58 956.06 1039.49 940.8 1026.48 913.5 1033.7 910.06 1049.51 943.2 1024.44 962.41"/>
    <path d="M1083.71,943.69a12.25,12.25,0,0,1-2-.18c-5.61-1-11.5-5.73-17.48-14.2l6.54-4.62c4.13,5.86,7.48,8.74,9.86,10-2.87-6.57-6.42-10.67-10.4-12-4.91-1.6-9.35,1.45-9.39,1.48l-1.72,1.24-13-4.72,2.74-7.52,9.24,3.36a19.15,19.15,0,0,1,14.61-1.44c7.64,2.5,13.55,10.11,17.59,22.61l.9,2.78-2.38,1.7A8.94,8.94,0,0,1,1083.71,943.69Z"/>
    <path d="M1066.38,973.32c-3.7,0-8.13-1.71-13.43-5.15a71.34,71.34,0,0,1-8.13-6.2l5.36-5.94c5.71,5.15,13.89,10.07,16.94,9.2l2.2,7.69A10.82,10.82,0,0,1,1066.38,973.32Z"/>
    <path d="M1090.5,983.05a34.74,34.74,0,0,1-9.06-1.19c-12.38-3.41-18.61-8.21-19-14.68-.38-5.71,3.92-11.35,13.15-17.26a94.5,94.5,0,0,1,11.66-6.28,15.51,15.51,0,0,0,2-2.58c-.16,0-.36-.06-.58-.08l.72-7.19a32.74,32.74,0,0,0-4.3.18l-1-7.93c.67-.1,16.6-2.1,26.67,6.72,5.21,4.57,7.86,11,7.86,19.24,0,14.45-5.81,21.91-10.68,25.62A28.38,28.38,0,0,1,1090.5,983.05Zm3-49a6.67,6.67,0,0,1,3.68,3.94c1.72,5-3.37,10.37-5,11.88l-.52.5-.66.28c-10.22,4.36-21,11.82-20.69,16,.12,1.9,3.66,4.87,13.18,7.49,5.55,1.53,13.56,1.57,19.41-2.88,5-3.81,7.53-10.29,7.53-19.26,0-5.86-1.67-10.18-5.11-13.2S1097.49,934.58,1093.54,934.08Z"/>
    <path d="M1087.66,971.07c-12.37,0-17-8.24-17.76-12.83l7.91-1.25-4,.63,3.94-.69c1.28,6.61,10.39,6.16,11.42,6.08l.58,8C1089.05,971,1088.35,971.07,1087.66,971.07Z"/>
    <path d="M1089.64,960.94a9.09,9.09,0,0,1-4.68-1.24c-4.62-2.71-5.28-8.67-5.34-9.34l8-.72-4,.36,4-.39c.11,1,.69,2.77,1.44,3.2.5.29,1.56.11,2.86-.47l3.24,7.32A13.54,13.54,0,0,1,1089.64,960.94Z"/>
    <rect x="1044.56" y="958" width="8" height="98.04" transform="translate(-1.22 1.27) rotate(-0.07)"/>
    <path d="M339.45,1057.61l-7.9-1.22,48-311.85c.32-3.7,5.43-47.23,71.32-77.18l3.32,7.28c-18.15,8.25-42.8,23-57.2,46.22-8.58,13.84-9.46,24.32-9.47,24.43l0,.32Z"/>
    <path d="M656.56,1055.67l-53-310.26v-.27c0-.2-2.45-27.13-63.33-70.89l4.66-6.5c61.87,44.47,66.33,73.16,66.64,76.76l53,309.82Z"/>
    <rect x="308.81" y="905.5" width="203.38" height="8" transform="translate(-564.18 1123.29) rotate(-78.08)"/>
    <path d="M472.08,953.09l-59.19-55.58,5.47-5.83L472.8,942.8a29.13,29.13,0,0,0,9.39-14l-60-87.53,6.6-4.52,61.91,90.33-.26,1.59a36.79,36.79,0,0,1-15.73,22.67Z"/>
    <rect x="570.5" y="807.81" width="8" height="203.38" transform="translate(-175.43 138.24) rotate(-11.92)"/>
    <path d="M512.92,953.09l-2.64-1.76a36.79,36.79,0,0,1-15.73-22.67l-.26-1.59,61.91-90.33,6.6,4.52-60,87.53a29.18,29.18,0,0,0,9.4,14l54.44-51.12,5.47,5.83Z"/>
    <path d="M501.81,984c-.91-.83-22.39-20.4-31.51-32.56l6.4-4.8c3.86,5.15,10.3,11.92,16.26,17.86l2.22-1.83-.93-1.3,4.19-4.38,2.06-7c2.89,0,6.32,1.84,9.74,4.5-9.38-12.11-23-17.71-23.23-17.79l3-7.42c1.31.52,32.19,13.2,36.47,43.14l-2,.86a5.74,5.74,0,0,1,0,.71l-6.19,3.35-5.22-3.41,2.66,3.73L509.84,983l-3.26-2.9Z"/>
    <rect x="492.67" y="928" width="5.66" height="8" transform="translate(-513.92 623.44) rotate(-45)"/>
    <path d="M492.5,653c-20.93,0-53-42.11-53-94,0-28.74,10.91-45.55,20.06-54.6C471.07,493,484.5,489,492.5,489s21.43,4,32.94,15.4c9.15,9.05,20.06,25.86,20.06,54.6C545.5,610.89,513.43,653,492.5,653Zm0-156c-14.1,0-45,15.61-45,62,0,48.82,30,86,45,86s45-37.18,45-86C537.5,512.61,506.6,497,492.5,497Z"/>
    <path d="M539.64,576.8c-20.55-1.58-36.71-9.11-48-22.38-20-23.43-17.58-56.11-17.47-57.49l8,.65-4-.32,4,.32c0,.31-2.23,30.83,15.61,51.69,9.89,11.57,24.2,18.15,42.52,19.55Z"/>
    <path d="M541,563c-30.85-3.86-44.33-22-50.21-36.6a75.83,75.83,0,0,1-5.28-30.66l8,.58-4-.29,4,.28c-.15,2.13-3,52.32,48.51,58.75Z"/>
    <path d="M538.2,547c-43.46-3.26-40.72-49.8-40.69-50.27l8,.56-4-.28,4,.27c-.1,1.6-2.18,39.08,33.31,41.74Z"/>
    <path d="M530.44,529.56a18.5,18.5,0,0,1-12.67-4.6c-9.06-8-8.77-23.57-8.75-24.23l8,.21-4-.11,4,.1c-.08,3.47.86,13.48,6.06,18.05,2.55,2.24,5.89,3,10.22,2.35l1.2,7.91A27.36,27.36,0,0,1,530.44,529.56Z"/>
    <path d="M526.21,622.22c-11.53-3.71-19.81-10.45-24.61-20-9.52-19-1.74-42.22-1.4-43.19l7.56,2.59-3.78-1.3,3.78,1.29c-.07.21-7,21.09,1,37.06,3.81,7.57,10.5,12.94,19.89,16Z"/>
    <path d="M529.49,610.87c-11.1-2.89-18-11.78-19.91-25.7A66.89,66.89,0,0,1,509.9,566l7.87,1.46-3.93-.73,3.93.72c-.06.31-5.37,30.67,13.74,35.66Z"/>
    <path d="M535.53,598.88c-15.4-3.85-17.29-21-16.14-29.6l7.93,1.05c-.09.73-2.15,17.71,10.15,20.79Z"/>
    <path d="M537.72,585.92c-6.66-1.33-8-8.93-7.7-13.21l8,.5-4-.25,4,.23c-.11,2,.5,4.73,1.28,4.89Z"/>
    <path d="M444.82,573.66,442.44,566l1.19,3.82-1.2-3.81c1.58-.51,38.65-12.92,32.13-66.13l7.94-1c2.11,17.21,1.08,41.57-15.84,59.94C456.45,570,445.29,573.52,444.82,573.66Z"/>
    <path d="M444.77,553.86l-1-7.93c.77-.12,19.75-3.45,16.48-38.67l8-.74c1.65,17.74-1.61,31.05-9.66,39.58C452.27,552.71,445.52,553.76,444.77,553.86Z"/>
    <path d="M450.24,620.55a28,28,0,0,1-5.7-55.41l1.63,7.83a20,20,0,0,0,8.16,39.16L456,620A28,28,0,0,1,450.24,620.55Z"/>
    <path d="M456.43,637.82a47.35,47.35,0,0,1-10.74-93.45l1.83,7.79a39.34,39.34,0,0,0,18,76.6l1.83,7.78A47.74,47.74,0,0,1,456.43,637.82Z"/>
    <path d="M458.74,654.34c-25.28,0-53.59-17.62-61.22-50.14A65.18,65.18,0,0,1,446,525.93l1.83,7.78a57.19,57.19,0,0,0-42.54,68.66C412.55,633.24,440.85,648.8,464,646l1,7.94A51.63,51.63,0,0,1,458.74,654.34Z"/>
    <path d="M437.3,774.38c-23.65,0-31.66-16.4-34.09-23.94-6.9-21.42,2.66-53.77,27.9-67.77,34.52-19.15,31.57-46,31.42-47.15l7.93-1.06c.19,1.35,4,33.3-35.46,55.2C413.51,701.58,405,730,410.83,748c4.37,13.56,15.81,20,32.2,18,8.59-1.08,14.32-4.63,16.53-10.28,2.64-6.75.19-16.28-6.08-23.71s-14.45-10.72-22.17-9.12l-1.62-7.84c10.64-2.2,21.81,2.21,29.9,11.8,8.24,9.76,11.15,22.23,7.42,31.78-2.33,6-8.22,13.46-23,15.31A56.85,56.85,0,0,1,437.3,774.38Z"/>
    <path d="M437.15,762.49a23.91,23.91,0,0,1-24.63-22.09c-.84-8.41-3.4-34,31.06-52.91A54.91,54.91,0,0,0,472.5,642h8a62.93,62.93,0,0,1-33.08,52.51c-29.81,16.35-27.73,37.23-26.94,45.09a16.7,16.7,0,0,0,6.31,11.7c3.84,2.91,8.89,3.84,15,2.76,13.94-2.46,16.65-16.19,16.75-16.77l7.88,1.41c-.14.8-3.71,19.79-23.24,23.24A35.11,35.11,0,0,1,437.15,762.49Z"/>
    <path d="M438.12,749.59a14.5,14.5,0,0,1-7.74-2.2c-4.29-2.68-7-9.2-6.81-16.24.22-7.24,3.77-21.13,25-32.67C481,680.91,481.49,650.29,481.5,649h8c0,1.49-.42,36.61-37.09,56.52-17.74,9.63-20.67,20.35-20.84,25.88-.17,5.36,2,8.57,3.05,9.21a7.36,7.36,0,0,0,7.55-.11c4.44-2.39,7.18-7.84,7.33-14.59l8,.18c-.22,9.66-4.53,17.68-11.53,21.46A16.59,16.59,0,0,1,438.12,749.59Z"/>
    <path d="M555.38,680.59l-7.17-3.54c5.79-11.73,6.88-22.37,3.23-31.6-6.19-15.7-24.17-22.64-24.35-22.7l2.81-7.5c.87.33,21.42,8.19,29,27.2C563.4,653.88,562.23,666.72,555.38,680.59Z"/>
    <path d="M564.84,688.19l-5.63-5.68c.53-.55,13.48-14.1,4.52-39.16-9.12-25.56-31.18-31.79-32.12-32l2.06-7.73c1.09.29,27,7.43,37.6,37.07C582,670.7,565.55,687.49,564.84,688.19Z"/>
    <path d="M574.58,696l-5.2-6.07c.9-.78,22-19.63,8.44-51.37C572,624.91,563.26,614.08,552,606.4a53.59,53.59,0,0,0-15.4-7.51l1.89-7.78c1.26.31,31.13,7.89,46.74,44.31,8.31,19.41,5.05,34.81.84,44.32A48.5,48.5,0,0,1,574.58,696Z"/>
    <path d="M582.29,702.58l-3.58-7.16c1.16-.59,28.55-15.22,13-59.09-16.36-46.17-49.25-50.2-50.64-50.35l.8-8c1.6.16,39.25,4.45,57.38,55.65,5.13,14.48,9,35.5-1.45,53.36A41.75,41.75,0,0,1,582.29,702.58Z"/>
    <path d="M558.55,712.22a49,49,0,0,1-22.5-92.58l3.67,7.11a41,41,0,0,0,37.56,72.89l3.67,7.11A48.81,48.81,0,0,1,558.55,712.22Z"/>
    <path d="M560.66,700.74a38,38,0,0,1-17.46-71.82l3.67,7.11a30,30,0,1,0,27.49,53.35L578,696.5A37.94,37.94,0,0,1,560.66,700.74Z"/>
    <path d="M564.06,691l-1.38-.15c-8.59-.93-16.7-1.8-23.48-15a28.17,28.17,0,0,1,12.14-38L555,645a20.19,20.19,0,0,0-8.69,27.18c4.81,9.33,9.22,9.8,17.22,10.66l1.41.15Z"/>
    <polygon points="493.5 932 485.5 932 485.5 666.58 482.79 665.35 486.1 658.06 493.5 661.42 493.5 932"/>
    <rect x="485.5" y="966" width="8" height="88"/>
    <path d="M447.66,606.7a12.92,12.92,0,0,1-2.61-25.57l1.63,7.83a4.92,4.92,0,1,0,2,9.63l1.63,7.83A12.59,12.59,0,0,1,447.66,606.7Z"/>
    <path d="M493.68,674.82l-2.36-7.64a43.83,43.83,0,0,0,18.84-12.11l6.16,5.1A51.1,51.1,0,0,1,493.68,674.82Z"/>
    <path d="M465.5,586c-7.72,0-14-5.61-14-12.5s6.28-12.5,14-12.5,14,5.61,14,12.5S473.22,586,465.5,586Zm0-17c-3.25,0-6,2.06-6,4.5s2.75,4.5,6,4.5,6-2.06,6-4.5S468.75,569,465.5,569Z"/>
    <circle cx="466" cy="572.5" r="4"/>
    <rect x="491.88" y="561.36" width="11.91" height="8" transform="translate(-198.94 279.05) rotate(-26.3)"/>
    <path d="M485.21,615.88a30.12,30.12,0,0,1-11.5-2.3c-4.71-2.36-3-8.57-.07-18.87,2-7.16,5.38-19.15,3.36-22.77-2.93-5.27-14.12-4.64-17.81-4l-1.39-7.88a45.26,45.26,0,0,1,10.13-.42c7.78.6,13.34,3.51,16.07,8.42,3.61,6.5.28,18.36-2.66,28.82a99.41,99.41,0,0,0-2.5,10.13c3.37,1,8.76,1.24,9.93.26a.91.91,0,0,0-.19.29l7.88-1.13a7.46,7.46,0,0,1-3,7.34C491.28,615.33,488.27,615.88,485.21,615.88Z"/>
    <path d="M477.6,632.85l-2.2-7.7c.07,0,7-2,9.83-2.94l3.49.46a2.08,2.08,0,0,0,.6.22,1.14,1.14,0,0,0-.65.28l4.41-.85,7,3-3.16,7.36-5.16-2.22a8.13,8.13,0,0,1-5.57-.16C482.83,631.35,477.85,632.78,477.6,632.85Z"/>
    <path d="M1384.5,788.07c-.51-29.12-10.57-71.72-13.23-82.51-2.5,0-6.83.15-10.46.43l-4.23-4.8,4.9-23.69c-16.85-.42-31.41-18.14-32.09-19l3.11-6.52c5.35,0,33-8.61,49.1-14,9.12-3.27,20.1-7.88,21.8-9.48a3.65,3.65,0,0,0-.23.29l7.33,2.31c0,.84-1.48,84,36.06,106.48l-4.12,6.86c-17.61-10.57-29.69-33-35.87-66.71a261.49,261.49,0,0,1-4-39.62,189.79,189.79,0,0,1-18.31,7.43c-3.59,1.2-29.28,9.78-43.65,13.13,5.75,5.36,15.62,12.65,25,10.45l4.84,4.7-4.94,23.86c9.85-.5,10.83.48,11.85,1.5l1,1.83c.55,2.13,13.53,52.58,14.13,86.93Z"/>
    <path d="M1462.38,972.86c-6.79,0-9.53-1.63-11.05-3.18a6.37,6.37,0,0,1-1.81-3.65c-18.93-36.67-33.39-173.75-34-179.62l-.22-2.1,1.62-1.36c24.77-21,53.44-122,53.73-123l7.7,2.16c-1.17,4.17-28.5,100.45-54.66,125.52,1.91,17.53,16.12,143.8,33.33,175.49l.69,1.28c1.76.58,7.51,1.43,23.91-2.27l1.76,7.8C1473.79,972.07,1467.1,972.86,1462.38,972.86Z"/>
    <path d="M1417.58,969.27a83.13,83.13,0,0,1-24.34-3.48l2.52-7.59c.25.09,25.88,8.33,50.06-2.83l3.36,7.26A75.34,75.34,0,0,1,1417.58,969.27Z"/>
    <path d="M1434,766c-25.48-14-50.11-70-51.15-72.36l7.34-3.2a326.23,326.23,0,0,0,15.31,29.81c11.77,20.17,23,33.57,32.36,38.75Z"/>
    <path d="M1423.75,789.64l-4.54-6.59c.3-.21,30.41-21.49,52.61-73.62l7.36,3.14C1456,767,1425.06,788.74,1423.75,789.64Z"/>
    <rect x="1555.5" y="1046.17" width="8" height="11.66" transform="matrix(0.86, -0.51, 0.51, 0.86, -319.01, 952.27)"/>
    <path d="M1480.45,740.62l-7.9-1.24c4.32-27.53,24.82-61.54,34.12-75.87-2.79-.24-6.35-.72-10.91-1.58l-.52-7.72c4-1.34,11.08-7.76,17.14-14-11.7-.27-26.82-3.42-30.73-4.27l1.7-7.82c21.13,4.62,34.57,4.73,37.36,3.33l4.84,6.17a165.35,165.35,0,0,1-17.81,17.94,18.86,18.86,0,0,0,4.85,0,2.6,2.6,0,0,0-.92.61l6.1,5.13C1517.45,661.75,1485.67,707.37,1480.45,740.62Z"/>
    <path d="M1352.84,933.64c-19.31-8.78-30.46-.79-30.93-.45l-6.41-3c-.06-1.46-6-145.79-4-200.32,2.06-56.61,23.17-68.86,24.07-69.35l3.86,7-1.93-3.5,2,3.47c-.18.11-18.12,11.34-20,62.68-1.74,47.77,2.64,165.26,3.75,193.51,5.58-2,14.73-3.63,26.73.28l-13.47-160.61,8-.66,14,167Z"/>
    <polygon points="1430.02 687.3 1404.22 653.3 1410.6 648.46 1428.98 672.7 1434.43 662.88 1404.87 637.01 1410.13 630.99 1444.57 661.12 1430.02 687.3"/>
    <polygon points="1455.94 687.6 1439.41 661.43 1474.11 626.73 1486.68 628.69 1485.44 636.6 1476.89 635.27 1449.59 662.57 1457.06 674.4 1471.53 658.32 1477.47 663.68 1455.94 687.6"/>
    <path d="M1563.83,923.55c-13.12,0-23.33-10-27.46-16.45l-.57-.88-10-167.1,8-.48,9.91,165c2.33,3.21,11.59,14.51,24.39,11.46,2.07-15.26,12.48-97.29,6.69-169.55-6.39-79.65-17.15-83.79-57.19-99.22l2.88-7.46c20.34,7.83,35,13.49,44.91,28.45,9.13,13.84,14,35.6,17.37,77.59,6.46,80.56-7,172.94-7.1,173.86l-.35,2.37-2.25.81A26.87,26.87,0,0,1,1563.83,923.55Z"/>
    <polygon points="1442.38 694.27 1429.82 682.97 1435.18 677.03 1442.62 683.73 1450.97 676.9 1456.03 683.1 1442.38 694.27"/>
    <rect x="1412.26" y="702" width="41.48" height="8" transform="translate(372.29 1900.5) rotate(-74.62)"/>
    <rect x="1446.5" y="685.55" width="8" height="35.9" transform="translate(-120.29 340.89) rotate(-12.88)"/>
    <path d="M1440.7,648h-.2c-34.45-.17-43.2-44.91-46.78-78.58s.62-57,12.88-71c8-9.19,19.48-14,34-14.42v0c14.51.38,26,5.23,34,14.42,12.26,14,16.47,37.22,12.88,71-2.7,25.41-7.31,43.91-14.08,56.59-7.75,14.52-18.76,21.92-32.7,22Zm-.1-156c-12.26.37-21.42,4.19-28,11.69-10.56,12.05-14.24,33.89-10.95,64.89,6.8,63.86,25.45,71.38,38.93,71.42s32.13-7.56,38.92-71.42c3.3-31-.38-52.84-10.94-64.89C1462,496.19,1452.86,492.37,1440.6,492Z"/>
    <path d="M1442.5,656l-1.23,0-1.23,0v-.12c-30.09-3-40.5-60.29-40.94-62.79l-.83-4.69H1403c11.2,0,15.34,7.18,19,13.52,3.91,6.79,7.3,12.69,19.24,13.06,11.94-.37,15.33-6.27,19.24-13.06,3.65-6.34,7.78-13.52,19-13.52h4.76l-.82,4.69c-.44,2.5-10.85,59.8-40.94,62.79Zm-34.33-58.52c4.08,17.68,15.06,49.1,33.1,50.47,18-1.37,29-32.79,33.1-50.47-2.77,1.43-4.53,4.26-6.92,8.43-4,6.86-9.3,16.14-25,17V623H1440v-.07c-15.65-.88-21-10.16-25-17C1412.7,601.75,1410.93,598.91,1408.17,597.48Z"/>
    <path d="M1439.5,610.14a21.25,21.25,0,0,1-7.4-1.39c-7.43-2.79-5-12.75-2.6-22.39,1.43-5.8,3.59-14.57,1.8-17-3.09-4.12-15.2-.84-20.25,1.29l-3.1-7.38c2.24-.94,22.1-8.91,29.75,1.29,4.07,5.42,1.78,14.7-.43,23.67-1,4.19-2.73,11.09-2.06,13.09,4.23,1.5,7.69.63,9.13-.85.28-.28.58-.69.45-1l7.42-3a8.8,8.8,0,0,1-2.15,9.6A14.59,14.59,0,0,1,1439.5,610.14Z"/>
    <path d="M1424.5,584a12,12,0,1,1,12-12A12,12,0,0,1,1424.5,584Zm0-16a4,4,0,1,0,4,4A4,4,0,0,0,1424.5,568Z"/>
    <path d="M1449.28,571.58l-3.57-7.16c.66-.33,16.27-8,28.08.3l-4.58,6.56C1461.32,565.75,1449.4,571.52,1449.28,571.58Z"/>
    <path d="M1397.36,567.54l-3.72-7.08,1.86,3.54-1.87-3.54c.78-.41,19.08-10.43,20.88-34.76l.42-5.69,5.21,2.34a56.32,56.32,0,0,0,39.9-.08l4.9-1.91.54,5.23c0,.26,3,26.66,18.47,32.68l-2.9,7.46c-15.4-6-20.94-25.21-22.75-34.39a64.33,64.33,0,0,1-36.42.08A51.34,51.34,0,0,1,1397.36,567.54Z"/>
    <path d="M1440.4,523.09A65.26,65.26,0,0,1,1403,511.15l4.92-6.31c1.22,1,30.31,22.87,65.44-.18l4.39,6.68C1464.12,520.31,1451.19,523.09,1440.4,523.09Z"/>
    <path d="M1483.6,550.9c-7.1-1.64-11.88-9.06-14.2-22a104,104,0,0,1-1.47-17.36l8,.1c-.14,11.8,2.76,30,9.47,31.51Z"/>
    <path d="M1396.82,551.9l-1.77-7.8c8.55-1.94,10.11-26.1,9.55-30.81a4,4,0,0,0,4.34,3.23l-.88-7.95a4.06,4.06,0,0,1,4.44,3.46C1413,515,1413.21,548.18,1396.82,551.9Z"/>
    <path d="M1441.37,512.79a62.48,62.48,0,0,1-32.08-8.95l4.41-6.68c1.06.7,26.38,16.84,54.75-.09l4.1,6.87A60.13,60.13,0,0,1,1441.37,512.79Z"/>
    <path d="M1442.43,502.12a49.21,49.21,0,0,1-25.11-6.77l4.35-6.71a41.93,41.93,0,0,0,40,.78l3.58,7.16A50.73,50.73,0,0,1,1442.43,502.12Z"/>
    <path d="M1437.5,820a10,10,0,1,1,10-10A10,10,0,0,1,1437.5,820Zm0-12a2,2,0,1,0,2,2A2,2,0,0,0,1437.5,808Z"/>
    <path d="M1442.5,857.35a10,10,0,1,1,10-10A10,10,0,0,1,1442.5,857.35Zm0-12a2,2,0,1,0,2,2A2,2,0,0,0,1442.5,845.35Z"/>
    <path d="M1448.5,894a10,10,0,1,1,10-10A10,10,0,0,1,1448.5,894Zm0-12a2,2,0,1,0,2,2A2,2,0,0,0,1448.5,882Z"/>
    <path d="M1455.5,927a10,10,0,1,1,10-10A10,10,0,0,1,1455.5,927Zm0-12a2,2,0,1,0,2,2A2,2,0,0,0,1455.5,915Z"/>
    <path d="M1565,969.12l-5.27-3.46a16.51,16.51,0,0,1-1.9,1.59l-3.76-2.49c-2.43,2.86-4.92,4.24-7.57,4.24a5.89,5.89,0,0,1-5.11-2.55c-2.48-3.67-.36-8.92,2.57-16.19,1.57-3.92,3.54-8.8,3.54-11.26h8c0,4-2.1,9.21-4.12,14.25-.42,1-.9,2.22-1.36,3.42a79.54,79.54,0,0,0,6.65-15.84l6.87,1.83c1-1.7,2-2.66,4-2.66l3.23,1.6a3.33,3.33,0,0,1,.75,1.42l.9.12c0-2.11-.09-4.11-.24-5.79a100.49,100.49,0,0,0-3.47-18.18l7.66-2.34c1.22,4,11.46,39.42-5.95,48.7l-1.8-1.22A14.83,14.83,0,0,1,1565,969.12Zm-18.65-8.1Z"/>
    <path d="M1544.84,951c-.61-.11-3.81-.82-6.37-4.76-4.47-6.87-4.42-19.38.16-37.19l7.74,2c-5.43,21.14-2.65,28.6-1.2,30.83a12.28,12.28,0,0,0,1,1.22Z"/>
    <path d="M1329.86,971.89c-4,0-7.95-2.51-9.52-3.53-6.28-4-9.31-11.41-8.78-21.34.48-8.85,4.41-21.73,8.15-23.6l3.58,7.16a3,3,0,0,0,1-.77c-1.34,1.8-6.16,14.23-4.42,23.81.68,3.76,2.25,6.38,4.79,8,4,2.56,5.4,2.22,5.41,2.22a4.93,4.93,0,0,0,.51-2.2,16.63,16.63,0,0,1-7.26-14.38c.2-2.41,1.81-10.28,14.18-10.28,7,0,10.67,3,12.51,5.61a17.09,17.09,0,0,1,2.91,9.4,10.58,10.58,0,0,0,.94-2.65c1.83-8.59-6.37-18.72-6.45-18.82l6.17-5.09c.44.53,10.73,13.16,8.11,25.55-1.31,6.21-5.49,11.12-12.4,14.58l-5.58-4.84c.77-2.35,2.4-9.88-.19-13.46-.41-.56-1.65-2.28-6-2.28-3.88,0-6,.94-6.19,2.79-.38,3.07,2.64,7,3.86,7.27l3.29,3.41c.2,1.47.92,8.94-4.15,12.16A8.13,8.13,0,0,1,1329.86,971.89Z"/>
    <g>
      <circle cx="1339" cy="952.5" r="9.5"/>
      <path d="M1339,966a13.5,13.5,0,1,1,13.5-13.5A13.52,13.52,0,0,1,1339,966Zm0-19a5.5,5.5,0,1,0,5.5,5.5A5.51,5.51,0,0,0,1339,947Z"/>
    </g>
    <rect x="1338.5" y="961" width="8" height="96"/>
    <rect x="1331.5" y="961" width="8" height="96"/>
    <polygon points="1444.53 1058.5 1444.1 1055.06 1437.5 1054.91 1438.5 1009.91 1446.47 1009.5 1452.47 1057.5 1444.53 1058.5"/>
    <path d="M1428.44,647.43c-2.18-1.31-5-4.43-10.55-25-2.8-10.36-5-20.48-5-20.58l7.82-1.71c4.88,22.38,10.13,38.54,12.19,40.68a2.36,2.36,0,0,0-.3-.22Z"/>
    <rect x="1432.12" y="617.58" width="8" height="27.62" transform="translate(-87.45 257.44) rotate(-9.94)"/>
    <path d="M1456.82,644.43l-4.12-6.86a2.36,2.36,0,0,0-.3.22c2.06-2.14,7.31-18.3,12.19-40.68l7.82,1.71c0,.1-2.24,10.22-5,20.58C1461.79,640,1459,643.12,1456.82,644.43Z"/>
    <rect x="1435.33" y="627.4" width="27.62" height="8" transform="translate(577.06 1949.79) rotate(-80.06)"/>
    <polygon points="1480.6 1061.06 1470.5 634.1 1478.5 633.9 1488.4 1052.94 1551.13 1052.06 1543.52 968.36 1551.48 967.64 1559.88 1059.94 1480.6 1061.06"/>
    <polygon points="1400.62 1060 1350.66 1060 1346.5 959.16 1354.5 958.84 1358.34 1052 1392.38 1052 1380.5 638.12 1388.5 637.88 1400.62 1060"/>
    <g>
      <path class="cls-10" d="M959,259c40,0,88-52,88-52s-35-49-88-49-88,49-88,49S919,259,959,259Z"/>
      <path d="M959,263c-41.28,0-88.93-51.11-90.94-53.29l-2.21-2.39,1.9-2.64C869.22,202.61,904.57,154,959,154s89.78,48.61,91.25,50.68l1.9,2.64-2.21,2.39C1047.93,211.89,1000.28,263,959,263Zm-82.71-56.28C886.26,216.83,926.07,255,959,255s72.74-38.17,82.71-48.28c-8-9.92-39.4-44.72-82.71-44.72S884.34,196.8,876.29,206.72Z"/>
    </g>
    <g>
      <circle class="cls-12" cx="959" cy="207" r="29"/>
      <path d="M959,240a33,33,0,1,1,33-33A33,33,0,0,1,959,240Zm0-58a25,25,0,1,0,25,25A25,25,0,0,0,959,182Z"/>
    </g>
    <circle cx="959" cy="207" r="15"/>
    <rect x="955" y="179" width="8" height="24"/>
    <g>
      <line x1="933.61" y1="192" x2="954.39" y2="204"/>
      <rect x="940" y="186" width="8" height="24" transform="translate(300.52 916.52) rotate(-60)"/>
    </g>
    <g>
      <line x1="935.61" y1="221" x2="956.39" y2="209"/>
      <rect x="934" y="211" width="24" height="8" transform="translate(19.25 501.83) rotate(-30)"/>
    </g>
    <g>
      <line x1="985.39" y1="192" x2="964.61" y2="204"/>
      <rect x="963" y="194" width="24" height="8" transform="translate(31.62 514) rotate(-30)"/>
    </g>
    <g>
      <line x1="983.39" y1="221" x2="962.61" y2="209"/>
      <rect x="969" y="203" width="8" height="24" transform="translate(300.31 950.15) rotate(-60)"/>
    </g>
    <rect x="955" y="212" width="8" height="24"/>
    <path d="M1039,196l-5.62-5a20.24,20.24,0,0,1-2.27,1.45l-3.77-7.06c3.57-1.9,9.81-9.13,17-17.5C1068.34,140.2,1108.25,94,1167.58,94h1.47c75.53,1,125.74-44.48,126.24-44.94l13.58-12.51-7.19,17c-9.42,22.31-26.37,38.54-51.84,49.61-21.42,9.32-48.6,15-85.53,17.82-32.55,2.5-64.79,22.66-86.1,39.12A315.1,315.1,0,0,0,1039,196Zm128.57-94c-55.54,0-93.89,44.22-116.94,70.91,23.51-21.85,67.38-56.38,113-59.89,36-2.77,62.38-8.23,83-17.18,16.59-7.22,29.25-16.75,38.28-28.9a209.1,209.1,0,0,1-20.35,12c-20.52,10.6-53.18,23.08-93.18,23.09l-2.46,0Z"/>
    <path d="M1070.33,166.25l-4.66-6.5c1.34-1,33.75-23.73,100.21-25.75,33.12-1,57.78-10.93,72.62-19.08A130.92,130.92,0,0,0,1254,105l-11.62,1-.66-8,34.42-2.86-7.18,7.6C1267.47,104.27,1233,140,1166.12,142c-33.34,1-57.61,7.55-72.1,12.86C1078.33,160.61,1070.41,166.2,1070.33,166.25Z"/>
    <path d="M1058.75,176.54l-4.64-6.53c1.22-.86,30.39-21.1,77.41-15,45,5.88,77.92,3.62,98.07-6.69-11.12-.3-26.42-2.12-36-9.11l4.74-6.46c13.59,10,44,7.28,44.26,7.25l11.91-1.11-8.85,8.05c-20.09,18.26-57.77,23.5-115.21,16C1086.54,157.24,1059,176.35,1058.75,176.54Z"/>
    <path d="M1174.57,197.28c-16.29,0-31.78-4.57-45.36-8.58-9.86-2.91-18.37-5.42-25.37-5.7-20.67-.83-47.54,4.62-56.37,6.41a19.12,19.12,0,0,1-3.47.59v-8a3.11,3.11,0,0,0-.45,0c.32-.05,1.12-.22,2.33-.46,9.07-1.84,36.65-7.44,58.28-6.57,8,.32,17.37,3.09,27.31,6,19.56,5.78,43.33,12.79,66.79,4.09-12.72-3.57-34.06-10.52-50.38-20.72l4.24-6.78c23.12,14.45,58.39,22.41,58.75,22.49l10.05,2.23-8.93,5.14A73.41,73.41,0,0,1,1174.57,197.28Z"/>
    <path d="M1139,215.9c-7.93,0-17.7-.23-29.2-.91-34.85-2.05-64-24.89-65.25-25.86l5-6.27c.28.23,28.47,22.25,60.76,24.15,19.7,1.16,34.39,1,43.11.59-9-7.84-25.25-20.52-38-22.65l1.32-7.9c21.1,3.54,48,30,49.15,31.11l6,5.93-8.39.89C1162.9,215,1154.44,215.9,1139,215.9Z"/>
    <path d="M1134.41,251.09l-14-2.14c-31.68-4.83-51.23-20.72-62.05-33.21-11.76-13.57-16-26-16.14-26.47l7.58-2.54c0,.11,4,11.64,14.84,24a89,89,0,0,0,42.6,27.09c-8.33-8-19-19.44-23.84-29.08l7.16-3.56c7.52,15.07,32.78,36.51,33,36.72Z"/>
    <path d="M1083.32,265.63a13.72,13.72,0,0,1-2.06-1.17c-7.49-4.51-34.56-23-38.24-57l8-.86c1.83,16.91,10.47,29.71,18.82,38.36-.41-1.42-.79-2.92-1.15-4.48a125.86,125.86,0,0,1-2.8-18.6l8-.5c.74,11.67,4.5,31,11.52,36.22.94.58,1.49.88,1.53.9Z"/>
    <path d="M1055.46,252.36l-5.33-2.82c-8.37-4.44-12.7-12.73-12.5-24a51.1,51.1,0,0,1,2.61-14.91l7.53,2.7c-.07.18-5.32,15.3.93,24.51l.71-8.18,8,.7Z"/>
    <path d="M879.22,196a314.22,314.22,0,0,0-39.17-35.87C818.74,143.65,786.5,123.49,754,121c-36.93-2.84-64.11-8.5-85.54-17.82C643,92.1,626,75.87,616.58,53.56l-7.18-17L623,49.06c.49.46,50.85,45.89,126.23,44.94,60.13-.79,100.52,46,124.63,73.9,7.23,8.37,13.47,15.6,17,17.5l-3.76,7.06a19.38,19.38,0,0,1-2.27-1.45Zm-245.89-129c9,12.15,21.68,21.68,38.28,28.9,20.59,9,46.95,14.41,83,17.18,45.64,3.51,89.51,38,113,59.89-23.23-26.9-62-71.65-118.27-70.9-41.11.55-74.71-12.26-95.64-23.07A209.1,209.1,0,0,1,633.33,66.93Z"/>
    <path d="M847.94,166.25c-.32-.22-32-22.32-95.8-24.25-66.88-2-101.35-37.73-102.78-39.25l-7.18-7.6L676.6,98l-.67,8-11.54-1c14,10.39,43.67,27.64,88,29,66.45,2,98.86,24.78,100.21,25.75Z"/>
    <path d="M859.53,176.54c-.07,0-7-4.89-19.33-9a118.42,118.42,0,0,0-52.42-4.6c-57.43,7.49-95.12,2.25-115.21-16l-8.85-8.05L675.64,140c.3,0,30.67,2.72,44.26-7.25l4.73,6.46c-9.54,7-24.84,8.81-36,9.11,20.16,10.31,53,12.57,98.08,6.69,47-6.13,76.18,14.12,77.4,15l-4.63,6.53,2.31-3.26Z"/>
    <path d="M743.7,197.28a73.47,73.47,0,0,1-37.43-9.81l-8.93-5.14,10.06-2.23c.35-.08,35.62-8,58.74-22.49l4.24,6.78c-16.31,10.2-37.66,17.15-50.37,20.72,23.46,8.7,47.22,1.69,66.78-4.09,9.94-2.93,19.32-5.7,27.31-6,21.62-.87,49.22,4.73,58.29,6.57,1.21.24,2,.41,2.33.46a3.15,3.15,0,0,0-.46,0v8a19.24,19.24,0,0,1-3.46-.59c-8.84-1.79-35.72-7.23-56.38-6.41-7,.28-15.5,2.79-25.36,5.7C775.47,192.71,760,197.28,743.7,197.28Z"/>
    <path d="M779.31,215.9c-15.49,0-23.94-.87-24.46-.92l-8.4-.89,6-5.93c1.14-1.13,28-27.57,49.15-31.11l1.33,7.9c-12.76,2.13-29,14.81-38,22.65,8.73.36,23.41.57,43.12-.59,32.29-1.9,60.47-23.92,60.75-24.15l5,6.27c-1.22,1-30.39,23.81-65.25,25.86C797,215.67,787.24,215.9,779.31,215.9Z"/>
    <path d="M783.86,251.09l10.82-9.15c.26-.21,25.52-21.65,33-36.72l7.16,3.56c-4.79,9.62-15.47,21-23.8,29.05,44.28-13.26,57.26-50.68,57.4-51.1l7.59,2.54c-.17.52-4.39,12.9-16.15,26.47-10.82,12.49-30.36,28.38-62,33.21Z"/>
    <path d="M834.94,265.63l-3.55-7.17s.59-.31,1.53-.89c7-5.24,10.78-24.56,11.51-36.22l8,.5a129,129,0,0,1-2.8,18.6c-.37,1.56-.75,3.06-1.16,4.48,8.35-8.65,17-21.45,18.83-38.36l8,.86c-3.67,34-30.74,52.52-38.23,57A13.34,13.34,0,0,1,834.94,265.63Z"/>
    <path d="M862.8,252.36l-1.91-22,8-.7.71,8.2c6.31-9.21,1-24.34.93-24.53l7.53-2.7a51.48,51.48,0,0,1,2.61,14.91c.19,11.25-4.13,19.54-12.5,24Z"/>
    <g>
      <path class="cls-19" d="M1843,1038s-2-33,35-59l9,7s-26,34-27,53Z"/>
      <path d="M1863.78,1043.23l-24.56-1.44-.21-3.55c-.09-1.44-1.7-35.54,36.69-62.51l2.42-1.7,14.47,11.25-2.41,3.15c-7,9.19-25.42,36.22-26.19,50.78Zm-16.67-9,9.39.56c3.08-16.61,18.87-39.63,25-48l-3.55-2.76C1852.2,1003.2,1847.82,1025.7,1847.11,1034.23Z"/>
    </g>
    <path d="M1863.5,988.12l-6.08-4.86L1848,943.53a25.43,25.43,0,0,0-3.11-7.81c-3.48-6-8.84-11.15-15.93-15.26-8.59-5-21.84-18.1-35.87-32-12.52-12.41-31.35-31.06-36.6-31.75l-.33.11a2.81,2.81,0,0,0-1,.6,2.46,2.46,0,0,0,.27.68l-7,3.8a8.46,8.46,0,0,1-.67-7.46,9.71,9.71,0,0,1,5.61-5.13c7.12-3.4,18.28,6.65,45.34,33.47,13,12.93,26.55,26.3,34.24,30.76,19.37,11.21,22.56,26.49,22.93,28.69l8.65,36.51,3.92,3.14Z"/>
    <path d="M1840.87,1031c-1.36,0-33.66-1.63-57.45-49.21-22-44.09-47.16-86.86-48.78-89.62-1.09-1.56-4-6.23-3-10.36a6.64,6.64,0,0,1,3.54-4.39c5-2.51,10.8-.09,15.09,6.31l41,58-6.54,4.62-41.06-58.09c-1.16-1.74-2.83-3.36-4-3.68a13.7,13.7,0,0,0,1.62,3.13l.19.29c.26.45,26.34,44.65,49.14,90.25,11.28,22.57,24.46,33.54,33.53,38.78,9.75,5.63,17,6,17,6Z"/>
    <path d="M1796.89,934.51l-50-61.94c-1.34-1.53-3.31-2.81-4-2.81h0l-.06.07c-1,1,.08,5.34,1.67,8.24l-7,3.87c-.66-1.19-6.29-11.81-.33-17.77a7.89,7.89,0,0,1,6-2.4c4.94.19,9.06,4.72,9.84,5.63l.07.09,50,62Z"/>
    <path d="M1808.17,921.83l-61-61c-1.9-1.88-4.54-3.28-5.28-3.05-1.34,1.33,1.17,4.65,1.2,4.68l-6.16,5.1c-3.54-4.24-5.28-10.87-.76-15.39,3.4-3.4,9.87-3.79,16.66,3l61,61Z"/>
    <path d="M1830.42,920.79c-.55-1.1-1.2-2.43-2-3.94-3.38-6.85-8.49-17.2-13.59-26.26-5.44-9.65-8.63-13.8-10.3-15.57-.29,3.32,1,10.4,3.2,16.66l-7.56,2.64a84.06,84.06,0,0,1-2.9-11c-.63-3.4-2.55-13.72,3.89-16.94a5.68,5.68,0,0,1,4.48-.24c5.92,2,13.75,14.32,30,47.13.74,1.49,1.39,2.81,1.94,3.9Z"/>
    <path d="M1796.57,1029.06,1782,1004.78c-19.47-14.07-40.67-56.18-41.58-58-6.41-12.83-1-43.12-.35-46.53l7.86,1.48c-1.6,8.53-4.77,32.63-.35,41.47,6,12,24.76,45.23,39.69,55.49l.71.5,15.45,25.74Z"/>
    <path d="M1792,1033a9.79,9.79,0,0,1-7.43-3.37c-1.14-1.27-6.71-8.61-4.55-28.07l8,.88-4-.44,4,.44c-.78,7-.49,18.45,2.56,21.85a1.76,1.76,0,0,0,1.46.71c7.07,0,13.61-8.66,15.53-12l6.94,4C1814.1,1017.64,1805.17,1033,1792,1033Z"/>
    <path d="M1799.46,1044.12l-12.93-13,5.67-5.65,10.18,10.23c3.57-.82,12-3.84,18.13-14.68l7,3.92c-9.94,17.67-25.55,19-26.2,19Z"/>
    <g>
      <polygon class="cls-20" points="1840 806 1786 806 1786 760 1769 760 1769 806 1715 806 1715 823 1769 823 1769 859 1786 875 1786 823 1840 823 1840 806"/>
      <path d="M1790,884.26l-25-23.53V827h-54V802h54V756h25v46h54v25h-54Zm-17-27,9,8.47V819h54v-9h-54V764h-9v46h-54v9h54Z"/>
    </g>
    <g>
      <path class="cls-19" d="M81.09,1038s2-33-35-59l-9,7s26,34,27,53Z"/>
      <path d="M60.3,1043.23l-.21-4c-.76-14.56-19.16-41.59-26.18-50.78l-2.41-3.15L46,974l2.42,1.7c38.38,27,36.78,61.07,36.69,62.51l-.22,3.55ZM42.63,986.76c6.08,8.4,21.88,31.42,25,48l9.41-.56c-.64-8.55-4.9-30.9-30.83-50.23Z"/>
    </g>
    <path d="M60.59,988.12l-5-6.24,3.92-3.14,8.65-36.51c.36-2.2,3.56-17.48,22.92-28.69,7.7-4.46,21.19-17.83,34.24-30.76,27.07-26.82,38.23-36.88,45.34-33.47a9.69,9.69,0,0,1,5.62,5.13,8.5,8.5,0,0,1-.67,7.46l-7.05-3.8a2.4,2.4,0,0,0,.28-.68,3,3,0,0,0-1-.6l-.33-.11c-5.25.69-24.08,19.34-36.6,31.75-14,13.9-27.28,27-35.87,32-7.1,4.11-12.46,9.24-15.93,15.26a24.81,24.81,0,0,0-3.11,7.84l-.07.36-9.32,39.34Z"/>
    <path d="M83.22,1031l-.26-8,.13,4-.16-4c.08,0,7.3-.38,17-6,9.07-5.24,22.25-16.21,33.53-38.78,22.8-45.6,48.87-89.8,49.13-90.25l.19-.29a13.38,13.38,0,0,0,1.62-3.13c-1.21.32-2.88,1.94-4,3.68l-.07.09-41,58-6.53-4.62,41-58c4.29-6.4,10.06-8.82,15.09-6.31a6.67,6.67,0,0,1,3.54,4.39c1,4.13-1.88,8.8-3,10.36-1.62,2.76-26.75,45.54-48.79,89.62C116.87,1029.37,84.58,1031,83.22,1031Z"/>
    <path d="M127.2,934.51l-6.23-5,50.08-62.09c.78-.91,4.9-5.44,9.84-5.63a8,8,0,0,1,6,2.4c6,6,.33,16.58-.34,17.77l-7-3.88,3.5,1.94-3.5-1.93c1.59-2.9,2.69-7.22,1.67-8.24l-.1-.09c-.57-.07-2.63,1.26-4,2.83Z"/>
    <path d="M115.92,921.83l-5.66-5.66,61-61c6.79-6.79,13.26-6.4,16.66-3,4.52,4.52,2.77,11.15-.76,15.39L181,862.44l3.08,2.56L181,862.46s2.54-3.35,1.26-4.63c-.88-.3-3.64,1.29-5.34,3Z"/>
    <path d="M93.66,920.79l-7.15-3.58,1.93-3.9c16.2-32.81,24-45.14,30-47.13a5.72,5.72,0,0,1,4.48.24c6.44,3.22,4.52,13.54,3.89,16.94a81.49,81.49,0,0,1-2.91,11l-7.55-2.64c2.19-6.26,3.48-13.34,3.2-16.66-1.67,1.77-4.87,5.92-10.3,15.57C104.11,899.65,99,910,95.62,916.85Z"/>
    <path d="M127.52,1029.06l-6.86-4.12L136.1,999.2l.72-.5c14.93-10.26,33.71-43.53,39.69-55.49,4.42-8.84,1.24-32.94-.35-41.47l7.86-1.48c.64,3.41,6.06,33.7-.36,46.53-.9,1.81-22.1,43.92-41.58,58Z"/>
    <path d="M132.09,1033c-13.17,0-22.1-15.36-22.48-16l7-4c1.92,3.32,8.46,12,15.53,12a1.76,1.76,0,0,0,1.46-.71c3-3.4,3.33-14.82,2.56-21.85l7.95-.88c2.17,19.46-3.41,26.8-4.55,28.07A9.75,9.75,0,0,1,132.09,1033Z"/>
    <path d="M124.63,1044.12l-1.83-.13c-.66,0-16.26-1.36-26.2-19l7-3.92c6.09,10.82,14.55,13.86,18.14,14.68l10.17-10.23,5.67,5.65Z"/>
    <g>
      <polygon class="cls-20" points="84.09 806 138.09 806 138.09 760 155.09 760 155.09 806 209.09 806 209.09 823 155.09 823 155.09 859 138.09 875 138.09 823 84.09 823 84.09 806"/>
      <path d="M134.09,884.26V827h-54V802h54V756h25v46h54v25h-54v33.73ZM88.09,819h54v46.74l9-8.47V819h54v-9h-54V764h-9v46h-54Z"/>
    </g>
    <circle cx="1425" cy="570" r="4"/>
  </g>
  <g id="Layer_8" data-name="Layer 8">
    <rect class="cls-8" x="1177.5" y="960" width="23" height="117"/>
    <rect class="cls-9" x="1177.5" y="854" width="23" height="107"/>
    <rect class="cls-9" x="1177.5" y="631" width="23" height="107"/>
    <rect class="cls-8" x="1177.5" y="742" width="23" height="107"/>
    <rect class="cls-9" x="721.5" y="854" width="23" height="107"/>
    <rect class="cls-9" x="1073.5" y="1056" width="104" height="22"/>
    <rect class="cls-8" x="966.5" y="1056" width="104" height="22"/>
    <rect class="cls-8" x="856.5" y="1056" width="104" height="22"/>
    <rect class="cls-8" x="678.5" y="1009" width="114" height="22" transform="translate(1755.5 284.5) rotate(90)"/>
    <rect class="cls-8" x="678.5" y="785" width="114" height="22" transform="translate(1531.5 60.5) rotate(90)"/>
    <rect class="cls-9" x="679.5" y="675" width="114" height="22" transform="translate(1422.5 -50.5) rotate(90)"/>
    <rect class="cls-9" x="744.5" y="1056" width="109" height="22"/>
    <polygon class="cls-8" points="1177.5 631 1200.5 631 1197.5 535 1190.5 518 1174.5 523 1178.5 579 1177.5 631"/>
    <path class="cls-8" d="M727.5,518l21,8s-2.52,80.16-5.26,105.08L719.5,631Z"/>
    <polygon class="cls-9" points="779.5 409 797.11 428.06 768.5 469 748.5 526 727.5 518 739.5 478 760.5 439 779.5 409"/>
    <polygon class="cls-8" points="779.5 409 817.5 378 874.5 346 884.23 365.68 834.22 394.71 801.41 423.75 791.74 421.6 779.5 409"/>
    <polygon class="cls-9" points="874.5 346 926.5 331 991.5 333 1044.5 345 1037.21 367.25 974.34 352.83 921.27 356.86 887.5 366 874.5 346"/>
    <path class="cls-8" d="M1035.5,364l9-19,67,39,30,29-16.26,14.74S1089.5,380,1035.5,364Z"/>
    <path class="cls-9" d="M1141.5,413l-16,15,18.12,25.65S1174.5,498,1174.5,523l16-5-11-49Z"/>
    <rect class="cls-9" x="701.5" y="960" width="23" height="117"/>
    <rect class="cls-8" x="701.5" y="854" width="23" height="107"/>
    <rect class="cls-8" x="701.5" y="631" width="23" height="107"/>
    <rect class="cls-9" x="701.5" y="742" width="23" height="107"/>
    <rect class="cls-8" x="245.5" y="851" width="23" height="110"/>
    <rect class="cls-8" x="597.5" y="1056" width="104" height="22"/>
    <rect class="cls-9" x="490.5" y="1056" width="104" height="22"/>
    <rect class="cls-9" x="380.5" y="1056" width="104" height="22"/>
    <rect class="cls-9" x="202.5" y="1009" width="114" height="22" transform="translate(1279.5 760.5) rotate(90)"/>
    <rect class="cls-9" x="202.5" y="785" width="114" height="22" transform="translate(1055.5 536.5) rotate(90)"/>
    <rect class="cls-8" x="203.5" y="675" width="114" height="22" transform="translate(946.5 425.5) rotate(90)"/>
    <rect class="cls-8" x="268.5" y="1056" width="109" height="22"/>
    <polygon class="cls-9" points="701.5 631 724.5 631 721.5 535 714.5 518 698.5 523 702.5 579 701.5 631"/>
    <path class="cls-9" d="M251.5,518l21,8s-2.52,80.16-5.26,105.08L243.5,631Z"/>
    <polygon class="cls-8" points="303.5 409 321.11 428.06 292.5 469 272.5 526 251.5 518 263.5 478 284.5 439 303.5 409"/>
    <polygon class="cls-9" points="303.5 409 341.5 378 398.5 346 408.23 365.68 358.22 394.71 325.42 423.75 315.74 421.6 303.5 409"/>
    <polygon class="cls-8" points="398.5 346 450.5 331 515.5 333 568.5 345 561.21 367.25 498.34 352.83 445.27 356.86 411.5 366 398.5 346"/>
    <path class="cls-9" d="M559.5,364l9-19,67,39,30,29-16.26,14.74S613.5,380,559.5,364Z"/>
    <path class="cls-8" d="M665.5,413l-16,15,18.12,25.65S698.5,498,698.5,523l16-5-11-49Z"/>
    <rect class="cls-9" x="1655.5" y="960" width="23" height="117"/>
    <rect class="cls-8" x="1655.5" y="854" width="23" height="107"/>
    <rect class="cls-8" x="1655.5" y="631" width="23" height="107"/>
    <rect class="cls-9" x="1655.5" y="742" width="23" height="107"/>
    <rect class="cls-8" x="1199.5" y="854" width="23" height="107"/>
    <rect class="cls-8" x="1551.5" y="1056" width="104" height="22"/>
    <rect class="cls-9" x="1444.5" y="1056" width="104" height="22"/>
    <rect class="cls-9" x="1334.5" y="1056" width="104" height="22"/>
    <rect class="cls-9" x="1156.5" y="1009" width="114" height="22" transform="translate(2233.5 -193.5) rotate(90)"/>
    <rect class="cls-9" x="1156.5" y="785" width="114" height="22" transform="translate(2009.5 -417.5) rotate(90)"/>
    <rect class="cls-8" x="1157.5" y="675" width="114" height="22" transform="translate(1900.5 -528.5) rotate(90)"/>
    <rect class="cls-8" x="1222.5" y="1056" width="109" height="22"/>
    <polygon class="cls-9" points="1655.5 631 1678.5 631 1675.5 535 1668.5 518 1652.5 523 1656.5 579 1655.5 631"/>
    <path class="cls-9" d="M1205.5,518l21,8s-2.52,80.16-5.26,105.08L1197.5,631Z"/>
    <polygon class="cls-8" points="1257.5 409 1275.11 428.06 1246.5 469 1226.5 526 1205.5 518 1217.5 478 1238.5 439 1257.5 409"/>
    <polygon class="cls-9" points="1257.5 409 1295.5 378 1352.5 346 1362.22 365.68 1312.22 394.71 1279.41 423.75 1269.74 421.6 1257.5 409"/>
    <polygon class="cls-8" points="1352.5 346 1404.5 331 1469.5 333 1522.5 345 1515.21 367.25 1452.34 352.83 1399.27 356.86 1365.5 366 1352.5 346"/>
    <path class="cls-9" d="M1513.5,364l9-19,67,39,30,29-16.26,14.74S1567.5,380,1513.5,364Z"/>
    <path class="cls-8" d="M1619.5,413l-16,15,18.12,25.65S1652.5,498,1652.5,523l16-5-11-49Z"/>
    <rect x="1680" y="957" width="7" height="8"/>
    <rect x="1680" y="847" width="7" height="8"/>
    <rect x="1685.5" y="1066.5" width="11" height="8" transform="translate(620.5 2761.5) rotate(-90)"/>
    <rect x="1791.5" y="1066.5" width="11" height="8" transform="translate(726.5 2867.5) rotate(-90)"/>
    <rect x="1791.5" y="704.5" width="11" height="8" transform="translate(1088.5 2505.5) rotate(-90)"/>
    <rect x="1896.5" y="1066.5" width="11" height="8" transform="translate(831.5 2972.5) rotate(-90)"/>
    <rect x="1713" y="736.93" width="8" height="14.14" transform="translate(-23.19 1432.01) rotate(-45)"/>
    <rect x="1905" y="957" width="7" height="8" transform="translate(3817 1922) rotate(-180)"/>
    <rect x="1905" y="847" width="7" height="8" transform="translate(3817 1702) rotate(-180)"/>
    <rect x="1867.93" y="740" width="14.14" height="8" transform="translate(23.09 1543.74) rotate(-45)"/>
    <rect x="237.09" y="955" width="7" height="8" transform="translate(481.17 1918) rotate(-180)"/>
    <rect x="237.09" y="845" width="7" height="8" transform="translate(481.17 1698) rotate(-180)"/>
    <rect x="227.59" y="1066.5" width="11" height="8" transform="translate(-837.41 1303.59) rotate(-90)"/>
    <rect x="121.59" y="1066.5" width="11" height="8" transform="translate(-943.41 1197.59) rotate(-90)"/>
    <rect x="121.59" y="704.5" width="11" height="8" transform="translate(-581.41 835.59) rotate(-90)"/>
    <rect x="12.59" y="1066.5" width="11" height="8" transform="translate(-1052.41 1088.59) rotate(-90)"/>
    <rect x="200.02" y="740" width="14.14" height="8" transform="translate(-465.47 364.4) rotate(-45)"/>
    <rect x="8" y="957" width="7" height="8"/>
    <rect x="6" y="847" width="13.09" height="8"/>
    <rect x="43.54" y="733.28" width="8" height="18.45" transform="translate(-512.74 252.96) rotate(-45.19)"/>
  </g>
  <g id="Layer_2" data-name="Layer 2">
    <path d="M1203,1081.5H719v-514a242,242,0,1,1,484,0Zm-476-8h468v-506a234,234,0,0,0-468,0Z"/>
    <path d="M1181.5,1061h-441V569.5a220.5,220.5,0,1,1,441,0Zm-433-8h425V569.5c0-117.17-95.33-212.5-212.5-212.5S748.5,452.33,748.5,569.5Z"/>
    <rect x="720.5" y="957" width="21" height="8"/>
    <rect x="720.5" y="847" width="21" height="8"/>
    <rect x="720.5" y="737" width="21" height="8"/>
    <rect x="720.5" y="627" width="21" height="8"/>
    <rect x="733" y="510.5" width="8" height="21" transform="translate(61.83 1119.96) rotate(-76.83)"/>
    <rect x="786" y="408.5" width="8" height="21" transform="translate(-64.89 681.34) rotate(-45)"/>
    <rect x="876" y="344.5" width="8" height="21" transform="translate(-66 429.22) rotate(-26.46)"/>
    <rect x="1179.25" y="957" width="21" height="8"/>
    <rect x="1179.25" y="847" width="21" height="8"/>
    <rect x="1179.25" y="737" width="21" height="8"/>
    <rect x="1179.25" y="627" width="21" height="8"/>
    <rect x="1173.25" y="517" width="21" height="8" transform="translate(-87.55 283.32) rotate(-13.17)"/>
    <rect x="1120.25" y="415" width="21" height="8" transform="translate(34.87 922.19) rotate(-45)"/>
    <rect x="1030.25" y="351" width="21" height="8" transform="translate(285.51 1154.25) rotate(-65.46)"/>
    <rect x="740.5" y="1060" width="8" height="15"/>
    <rect x="850.5" y="1060" width="8" height="15"/>
    <rect x="960.5" y="1060" width="8" height="15"/>
    <rect x="1070.5" y="1060" width="8" height="15"/>
    <rect x="1173.5" y="1060" width="8" height="15"/>
    <path d="M727,1081.5H243v-514a242,242,0,1,1,484,0Zm-476-8H719v-506a234,234,0,0,0-468,0Z"/>
    <path d="M705.5,1061h-441V569.5a220.5,220.5,0,1,1,441,0Zm-433-8h425V569.5C697.5,452.33,602.17,357,485,357S272.5,452.33,272.5,569.5Z"/>
    <rect x="244.5" y="955" width="21" height="8"/>
    <rect x="244.5" y="845" width="21" height="8"/>
    <rect x="244.5" y="735" width="21" height="8"/>
    <rect x="244.5" y="625" width="21" height="8"/>
    <rect x="257" y="510.5" width="8" height="21" transform="translate(-305.75 656.47) rotate(-76.83)"/>
    <rect x="310" y="408.5" width="8" height="21" transform="translate(-204.31 344.75) rotate(-45)"/>
    <rect x="400" y="344.5" width="8" height="21" transform="translate(-115.85 217.16) rotate(-26.46)"/>
    <rect x="703.25" y="957" width="21" height="8"/>
    <rect x="703.25" y="847" width="21" height="8"/>
    <rect x="703.25" y="737" width="21" height="8"/>
    <rect x="703.25" y="627" width="21" height="8"/>
    <rect x="697.25" y="517" width="21" height="8" transform="translate(-100.07 174.9) rotate(-13.17)"/>
    <rect x="644.25" y="415" width="21" height="8" transform="translate(-104.51 585.7) rotate(-45)"/>
    <rect x="554.25" y="351" width="21" height="8" transform="translate(7.23 721.26) rotate(-65.46)"/>
    <rect x="264.5" y="1060" width="8" height="15"/>
    <rect x="374.5" y="1060" width="8" height="15"/>
    <rect x="484.5" y="1060" width="8" height="15"/>
    <rect x="594.5" y="1060" width="8" height="15"/>
    <rect x="697.5" y="1060" width="8" height="15"/>
    <path d="M1681,1081.5H1197v-514a242,242,0,1,1,484,0Zm-476-8h468v-506a234,234,0,0,0-468,0Z"/>
    <path d="M1920,1082H1673V821.5a123.5,123.5,0,0,1,247,0Zm-239-8h231V821.5a115.5,115.5,0,0,0-231,0Z"/>
    <path d="M1659.5,1061h-441V569.5a220.5,220.5,0,1,1,441,0Zm-433-8h425V569.5c0-117.17-95.33-212.5-212.5-212.5s-212.5,95.33-212.5,212.5Z"/>
    <rect x="1198.5" y="957" width="21" height="8"/>
    <rect x="1198.5" y="847" width="21" height="8"/>
    <rect x="1198.5" y="737" width="21" height="8"/>
    <rect x="1198.5" y="627" width="21" height="8"/>
    <rect x="1211" y="510.5" width="8" height="21" transform="translate(430.94 1585.39) rotate(-76.83)"/>
    <rect x="1264" y="408.5" width="8" height="21" transform="translate(75.11 1019.33) rotate(-45)"/>
    <rect x="1354" y="344.5" width="8" height="21" transform="translate(-15.94 642.17) rotate(-26.46)"/>
    <rect x="1657.25" y="957" width="21" height="8"/>
    <rect x="1657.25" y="847" width="21" height="8"/>
    <rect x="1657.25" y="737" width="21" height="8"/>
    <rect x="1657.25" y="627" width="21" height="8"/>
    <rect x="1651.25" y="517" width="21" height="8" transform="translate(-74.99 392.2) rotate(-13.17)"/>
    <rect x="1598.25" y="415" width="21" height="8" transform="translate(174.84 1260.16) rotate(-45)"/>
    <rect x="1508.25" y="351" width="21" height="8" transform="translate(564.95 1589.05) rotate(-65.46)"/>
    <rect x="1218.5" y="1060" width="8" height="15"/>
    <rect x="1328.5" y="1060" width="8" height="15"/>
    <rect x="1438.5" y="1060" width="8" height="15"/>
    <rect x="1548.5" y="1060" width="8" height="15"/>
    <rect x="1651.5" y="1060" width="8" height="15"/>
    <path d="M1906,1067.84H1687V822.5a109.5,109.5,0,0,1,219,0Zm-211-8h203V822.5a101.5,101.5,0,0,0-203,0Z"/>
    <path d="M251.09,1082H0V821.5A123.64,123.64,0,0,1,123.5,698h4.09a123.64,123.64,0,0,1,123.5,123.5ZM8,1074H243.09V821.5A115.63,115.63,0,0,0,127.59,706H123.5A115.63,115.63,0,0,0,8,821.5Z"/>
    <path d="M237.09,1067.84H14V822.5A109.62,109.62,0,0,1,123.5,713h4.09a109.62,109.62,0,0,1,109.5,109.5Zm-215.09-8H229.09V822.5A101.62,101.62,0,0,0,127.59,721H123.5A101.61,101.61,0,0,0,22,822.5Z"/>
  </g>
</svg>
