<svg id="Layer_1" data-name="Layer 1" xmlns="http://www.w3.org/2000/svg" viewBox="0 0 531 721">
  <defs>
    <style>
      .cls-1 {
        fill: #ff4848;
      }

      .cls-2 {
        fill: #ffbf7b;
      }

      .cls-3 {
        fill: #fff;
      }

      .cls-4 {
        fill: #29a6dd;
      }

      .cls-5 {
        fill: #969696;
      }

      .cls-6 {
        fill: #2b293a;
      }

      .cls-7 {
        fill: #ffeca7;
      }

      .cls-8 {
        fill: #ffce00;
      }
    </style>
  </defs>
  <title>MargeretAtwood</title>
  <path class="cls-1" d="M96.65,721.78h423S552.71,609,478.15,462.34,305.8,318.84,305.8,318.84s-7.22,56.12-88.18,51.31c0,0-42.49-31.27-36.08-48.9l-44.83,16.48-2.46,16.38s20-1.6,23.24,5.62c0,0,4.81-8,10.43-2.41s-2.41,9.62-2.41,9.62,25.14,13,23.79,20.94c0,0,.2,6.29-4.18,8.71s-25.22-3.19-25.22-3.19L153.49,407s0,64.94-32.07,64.14,0-.81,0-.81l.8,18.44s2.41,25.65-10.42,33.67c0,0-8.82,24.85-26.45,26.46,0,0-26.46-56.92-21.65-67.34l23.63-27.41s8.44-32.72,9.24-52.76,7.21-34.47,12.83-36.07L115,346.79S33.24,399,7.59,500C-2.84,590.6,17.21,637.9,74.12,637.1c0,0,18.44,1.6,32.87-16Z"/>
  <path class="cls-2" d="M179.14,327.66s18.44,40.08,40.08,40.88c0,0,.8-30.46,28.86-25.65S285,348.5,285,348.5,309,335.68,305.8,318.84c0,0-15.23,2.41-24.85-52.91l18.44-30.46s-9.62-16.83-3.21-24.05c0,0,19.24-14.43,16.83-46.49,0,0-.8-10.43-11.22-10.43,0,0-17.64-19.24-15.23-34.47,0,0-40.08,17.64-60.12-8,0,0-29.67,24.85-58.52-8.82,0,0-13.63,29.66-40.09,23.25,0,0,4.81,15.23.8,24,0,0,13.63,17.63,12.83,27.25s-7.21,64.13,35.27,105L196,300.4l-17.63,28.86"/>
  <path class="cls-3" d="M152.68,174.55s9.62-13.63,23.25-10.43,15.23,11.23,15.23,11.23l-18.43,11.22Z"/>
  <path class="cls-3" d="M231.25,170.54s12.82-12,24.85-9.62a22.42,22.42,0,0,1,16,12.82l-20.84,10.43Z"/>
  <polygon class="cls-4" points="161.84 166.59 171.12 173.74 178.34 164.12 161.84 166.59"/>
  <polygon class="cls-4" points="241.67 161.72 250.49 172.14 261.71 162.52 241.67 161.72"/>
  <path class="cls-5" d="M287.47,293.32s24.74-4.14,30.35-40.21c0,0,22.45-1.61,32.07-22.45s-1.6-34.47-1.6-34.47S398,163.32,362.72,120c0,0,23.24-12,2.4-53.71,0,0-10.42-19.24-33.67-17.63,0,0-13.63-29.66-36.07-32.07s-35.28,7.22-35.28,7.22S244.87,4.6,214.41,5.4a54.19,54.19,0,0,0-44.09,24A48,48,0,0,0,131,22.23C107.79,27.84,87,62.31,91,84c0,0-21.65,14.43-19.24,49.7l10.42,29.66S63.7,177.75,68.51,198.59s21.65,30.47,29.66,30.47c0,0-11.22,13.63,5.61,33.67s29.66,12,29.66,12,4,18.44,24.05,17.64,19.24-9.62,19.24-9.62-42.59-34.83-35.72-100c0,0-4.36-19.47-11.57-29.09l.52-26.18s20.51,5.09,27.63-10,15.94-10.29,15.94-10.29,20.84,26.45,56.11,3.2c0,0,9.74,17.82,28.12,15.73a102.49,102.49,0,0,0,31.2-8.51s-5.8,24.32,14.74,38.21c0,0,13.32,2.67,10.92,18.71s-11.23,37.67-18.44,36.87-.8,24.85-.8,24.85l-16,32.07Z"/>
  <path class="cls-2" d="M80.54,463.94s.8,40.88,27.25,36.88l16-28.86s23.25-9.62,29.67-42.49-3.21-32.87,7.21-35.27c0,0,25.65,8,27.26-1.61s0-12-3.21-14.43-17.64-10.42-17.64-10.42V354.92l-9.62,4.81-23.24-7.22,4-31.26,8.82-21.65s-14.43.8-23.25,21.65S111,366.94,111,366.94s-17.64,4-15.23,42.49S80.54,463.94,80.54,463.94Z"/>
  <path class="cls-2" d="M327.44,629.08S303.39,612.25,305.8,597l62.53,27.26,20,20s2.4,30.46-7.22,36.88-68.94-9.62-68.94-9.62-21.64,12.82-42.49,4-29.66-34.48-29.66-34.48l-13.62-9.61s13.43-10.27,34,2.91l.46.29c20.84,13.63-24.05-24.05-16.84-26.45s27.26,3.2,40.08,28Z"/>
  <path class="cls-6" d="M221.63,356.52a25.35,25.35,0,0,1,26.45-13.63c19.24,2.41,164.68,29.85,164.68,29.85L383.56,637.1s-11.19-13.75-22.83-15.7S328.6,609.9,322,603.86s-20.22-11.66-17,.37,25.65,27.26,25.65,27.26L216,599.42l-23.24,2.4,3.2-31.26s15.23-5.61,21.65,4.81l2.4-16s-13.63-10.42-22.44-6.42L203.19,500s18.44-3.2,22.44,6.42l5.62-17.64s-20.05-8.82-26.46-5.61l9.62-66.54s18.44,1.61,23.25,9.62l.8-20S220.82,399,216,401.41Z"/>
  <path class="cls-7" d="M234.45,639.5s-47.3-6.41-44.09-32.06,53.71.8,53.71.8L258,634.15s-25.12-11.48-29.93-4.27S234.45,639.5,234.45,639.5Z"/>
  <polygon class="cls-7" points="269.46 614.02 285.76 637.1 324.46 629.98 269.46 614.02"/>
  <path class="cls-7" d="M86.45,548.77s25.71-13.19,26.33-26.56c0,0,13.45-26.2,8.64-36.62,0,0-11.22,16.83-15.23,16.83s-28.06-10.42-24-37.68l-20,20.85S73.93,543.82,86.45,548.77Z"/>
  <path class="cls-7" d="M383.75,680.56s11.7-26.17,1.34-45.64l14.5-5.84s24.85,10.42,21.65,59.32H398.79S384.75,686.34,383.75,680.56Z"/>
  <path d="M387.54,636.72l-8-.85,28.05-260.38c-21-3.54-110.77-20.54-155.7-29.08l-31.11,250.4,26.64,6.75-2,7.75L212,602.83,245,337l4.19.8c62.73,11.92,157.48,29.77,162.94,30.39h4.3ZM412,368.15h0Z"/>
  <path d="M220.77,399.63l-7.9-1.25c0-.23,3.66-23.22,6.4-42.43,2.32-16.25,19-19.3,27.51-18.65l-.6,8c-.7,0-17.15-1.08-19,11.81C224.44,376.35,220.8,399.4,220.77,399.63Z"/>
  <path d="M235.93,428.76c-5.72-4.66-12.41-8.83-14.31-8.92a19.39,19.39,0,0,0-7.15,1.24l-.78.35h-.88c-3.87,0-9.61-3-9.61-11.21,0-8.49,7.57-14.42,18.43-14.42,8.52,0,18.43,8.86,19.53,9.87l-5.4,5.9c-3.29-3-10-7.77-14.13-7.77-1.07,0-10.43.18-10.43,6.42,0,1.7.4,2.73,1.19,3.09a28.14,28.14,0,0,1,9.24-1.48c1.87,0,7.51,1.05,19.36,10.73Z"/>
  <path d="M226.31,511.33c-5.72-4.67-12.41-8.83-14.31-8.92a19.33,19.33,0,0,0-7.15,1.24l-.78.35h-.88c-3.87,0-9.61-3-9.61-11.21,0-8.49,7.58-14.42,18.43-14.42,8.52,0,18.43,8.86,19.53,9.87l-5.4,5.9c-3.29-3-10-7.77-14.13-7.77-1.07,0-10.43.18-10.43,6.42,0,1.7.4,2.73,1.19,3.08a28.48,28.48,0,0,1,9.24-1.47c1.87,0,7.51,1,19.36,10.73Z"/>
  <path d="M218.3,581.08c-5.72-4.67-12.41-8.84-14.32-8.93a19.26,19.26,0,0,0-7.15,1.25l-.78.34-.88,0c-3.86,0-9.61-3-9.61-11.22,0-8.49,7.58-14.42,18.43-14.42,8.52,0,18.44,8.86,19.54,9.87l-5.41,5.9c-3.29-3-10-7.77-14.13-7.77-1.07,0-10.43.18-10.43,6.42q0,2.55,1.2,3.09a28.35,28.35,0,0,1,9.23-1.48c1.87,0,7.52,1.05,19.37,10.73Z"/>
  <rect x="176.84" y="446.31" width="66.32" height="8" transform="translate(-264.25 598.53) rotate(-82.35)"/>
  <rect x="172.9" y="522.83" width="54.03" height="8" transform="translate(-347.25 661.48) rotate(-83.05)"/>
  <rect x="176.2" y="584.18" width="35.53" height="8" transform="translate(-412.33 714.57) rotate(-83.52)"/>
  <path d="M237.21,643.48c-1.35-.16-33.18-3.91-45.36-19.37a21.39,21.39,0,0,1-4.66-16.37,12.69,12.69,0,0,1,5.12-8.75c8.22-6.12,23.45-3.8,25.16-3.52l-1.31,7.89c-3.47-.57-14.43-1.42-19.07,2a4.58,4.58,0,0,0-2,3.32,13.46,13.46,0,0,0,3,10.43c8.4,10.67,31.7,15.43,40,16.37Z"/>
  <path d="M388,645.09a15.58,15.58,0,0,1-13.81-11.3c-4.46-7.53-10.21-8.59-18.83-10.18s-19.26-3.56-31.21-13c-9.58-7.6-14.05-9.29-15.8-9.65,4.72,24.61,45,31.36,45.37,31.43l-1.27,7.89c-1.95-.31-47.86-8-52.23-39.47l0-.26a7.19,7.19,0,0,1,3.66-6.81c4.94-2.61,12.73.66,25.26,10.6,10.39,8.25,19.58,9.94,27.69,11.44,9.4,1.74,18.28,3.38,24.61,14.58l.31.56.13.62a7.49,7.49,0,0,0,6.86,5.62Z"/>
  <path d="M290.26,657.58c-16.19,0-26.33-7.59-28.34-13.61-1.45-4.35-5.14-11.82-14.47-22.71-5.38-6.27-7.23-10.9-5.81-14.57a6.43,6.43,0,0,1,5.14-4c15.29-1.63,35,22.52,40.77,30.14,3.85-.4,9.1-.49,11.48-.51,8.29-4.61,30.19-5.48,34.71-5.61l.23,8c-10.79.32-27.66,2-31.38,4.81l-1.07.8h-1.33c-2.79,0-10.68.14-13.65.73l-2.51.5-1.51-2.08A153.34,153.34,0,0,0,269.32,624c-9.91-10-16.11-12.8-19.61-13.33a27.81,27.81,0,0,0,3.81,5.38c10.18,11.87,14.32,20.36,16,25.38,1,3,10.78,9.84,26.95,7.72,15.2-2,22.49-.81,23.64,3.8l-7.76,1.94a3,3,0,0,0,1.26,1.89c-.12-.06-3-1.4-16.1.31A55.9,55.9,0,0,1,290.26,657.58Z"/>
  <path d="M289.64,670.19c-15.48,0-29.9-8.14-37.49-17.79-3.33-4.24-10-6.76-15.84-9-6.53-2.48-11.69-4.43-13-8.93a7.73,7.73,0,0,1,1.52-7c3.87-5.32,11.78-5.82,24.19-1.53a115.91,115.91,0,0,1,15.43,6.78l-3.82,7c-11.79-6.39-26.84-11-29.33-7.58l-.08.12c1.31,1.07,5.26,2.56,8,3.59,6.5,2.46,14.58,5.52,19.29,11.51,7.61,9.69,23.53,17.55,39.22,13.81,17.08-4.06,22.85-2.63,23.83-2.31L319,666.54a1,1,0,0,0,.18.06s-4.84-1.08-19.63,2.45A42.86,42.86,0,0,1,289.64,670.19Z"/>
  <path d="M287.18,682.6a52.57,52.57,0,0,1-11.95-1.53c-10.79-2.51-20.82-9.88-29-21.3a80,80,0,0,1-9.11-16.45l7.49-2.83c.1.27,10.79,27.74,32.44,32.79,12.18,2.85,17.36.64,23.36-1.92,5-2.14,10.69-4.57,20.15-3.78l-.66,8c-7.48-.62-11.59,1.13-16.35,3.16C299.2,680.57,294.45,682.6,287.18,682.6Z"/>
  <path d="M370.58,686.42a31.47,31.47,0,0,1-9.93-1.44c-4.92-1.64-9.9-2.15-15.17-2.68a94.23,94.23,0,0,1-13.4-2c-9.3-2.33-21.22-4-21.34-4.07l1.14-7.92c.5.07,12.44,1.8,22.15,4.23a86.58,86.58,0,0,0,12.26,1.84c5.47.56,11.13,1.13,16.89,3,6.89,2.3,16.76.19,20-.82l2.38,7.63A55.47,55.47,0,0,1,370.58,686.42Z"/>
  <path d="M394.21,693.12c-8,0-14-8.85-14.76-9.93l-1.4-2.13,1.34-2.18c13-21,3.33-36.23,3.23-36.38l-.43-.65-.15-.76c-1.76-8.81,1.89-12.8,5.54-13.53l.33-.06c9.16-1.87,13.86,3.54,18,20.69l-7.78,1.87c-2.45-10.2-4.66-13.44-5.76-14.47-.63-.59-.9-.64-2.56-.31a11.48,11.48,0,0,0,0,3.63c2.12,3.77,9.85,20.21-2.19,41.77,1.94,2.22,4.89,4.79,7.1,4.39,1.12-.21,5-2,8.21-16l7.8,1.77c-3.1,13.65-7.87,20.87-14.59,22.09A10.37,10.37,0,0,1,394.21,693.12Zm-5-57.71h0Z"/>
  <path d="M411,695a41.84,41.84,0,0,1-14.58-2.92l3.1-7.37L398,688.4l1.54-3.69c3.64,1.52,14.31,4.43,20-.21l5.07,6.2C420.55,694,415.63,695,411,695Z"/>
  <path d="M482.91,656.26c-22-30.76-33.89-28.39-46.52-25.88-5,1-10.17,2-15.84,1-16.82-2.93-26.89,2.68-27,2.74l-4-6.95c.51-.29,12.7-7.09,32.33-3.67,4.21.73,8.44-.11,12.91-1,16.79-3.34,31.46-3.32,54.59,29.07Z"/>
  <rect x="402.81" y="512.39" width="8" height="114.74" transform="matrix(0.99, -0.13, 0.13, 0.99, -68.42, 55.68)"/>
  <rect x="289.8" y="590.95" width="8" height="61.49" transform="translate(-383.68 739.33) rotate(-74.56)"/>
  <rect x="217.63" y="581.67" width="8" height="57.94" transform="translate(-424.97 673.21) rotate(-75.58)"/>
  <rect x="287.49" y="613.37" width="8" height="32.87" transform="translate(-391.05 755.35) rotate(-75.59)"/>
  <rect x="220.03" y="589.09" width="8" height="64.76" transform="translate(-434.31 676.23) rotate(-74.93)"/>
  <rect x="207.92" y="612.97" width="8" height="30.23" transform="translate(-450.32 657.18) rotate(-73.87)"/>
  <path d="M220.18,318.06l-.73-.27c-.68-.25-16.71-6.24-34.88-21.65a141.66,141.66,0,0,1-47-79.07l-.07-.46c-1.93-20.28-.67-28.59.08-33.55,1-6.59,1.06-7-12.48-33.13l7.11-3.68c14,27.13,14.67,28.9,13.28,38-.74,4.88-1.86,12.23-.05,31.36,14.56,67.2,69.19,91.56,76.07,94.38,40.6-2.45,71.48-76.11,71.79-76.86l7.4,3.05C299.33,239.47,267.1,316.35,221,318Z"/>
  <path d="M211.07,274.43a13.63,13.63,0,0,1-3.53-.46,15.92,15.92,0,0,1-9.53-7.85l7.15-3.58-3.58,1.79,3.57-1.82a8,8,0,0,0,4.5,3.74c2.06.53,4.53-.16,7.35-2l1.53-1,1.76.49c.12,0,12.79,3.39,21.51-2.64l4.55,6.58c-9.65,6.68-21.88,5.09-26.42,4.18A17.73,17.73,0,0,1,211.07,274.43Z"/>
  <path d="M194.92,275.88a35.59,35.59,0,0,1-5.17-.38l1.21-7.91c4.12.62,9,.15,9.91-.95l6.24,5C204.32,275.12,199,275.88,194.92,275.88Z"/>
  <path d="M212.32,287.12a17.77,17.77,0,0,1-5-.72,16,16,0,0,1-7.06-4.16l5.95-5.35-3,2.67,2.93-2.72c.53.55,5.51,5.25,15-.67l4.24,6.78C220.27,286.12,215.86,287.12,212.32,287.12Z"/>
  <path d="M170.31,190.2a16.39,16.39,0,0,1-9.53-2.78c-5.61-4-11.26-8.83-11.5-9l-1-4.83c.31-.62,7.71-15,23.62-15,15.59,0,24.6,13.24,25,13.81l-2.55,6.14c-1.66.34-6.83,1.94-8.68,4.71-2.17,3.25-6.44,5.74-11.41,6.66A22.41,22.41,0,0,1,170.31,190.2Zm-13.16-15.68c2.13,1.74,5.24,4.22,8.28,6.39,1.68,1.2,4.44,1.6,7.38,1.06,3.19-.59,5.42-2.05,6.21-3.23a18.2,18.2,0,0,1,7.55-6c-3.16-2.86-8.21-6.19-14.65-6.19C164.4,166.52,159.52,171.37,157.15,174.52Z"/>
  <path d="M253.7,187.8a21.42,21.42,0,0,1-3.94-.37c-5-.91-9.25-3.4-11.42-6.66-1.73-2.59-6.6-4.29-8.68-4.71l-2.54-6.14c.37-.56,9.38-13.8,25-13.8,15.92,0,23.31,14.42,23.62,15l-1,4.83c-.24.21-5.89,5-11.5,9A16.39,16.39,0,0,1,253.7,187.8Zm-16.25-17.49a18.24,18.24,0,0,1,7.55,6c.79,1.18,3,2.64,6.2,3.22,2.94.54,5.7.15,7.38-1.05,3-2.17,6.15-4.65,8.28-6.39-2.37-3.15-7.25-8-14.77-8C245.65,164.12,240.6,167.44,237.45,170.31Z"/>
  <path d="M203.19,245.88c-4.51,0-8-1.5-10.25-4.48-5.74-7.45-1.94-21.87,2.47-38.56s9.38-35.52,3.05-43.43c-5.46-6.82-15.25-7.86-29.1-3.08a103.52,103.52,0,0,0-20.86,10.31L144,160c1.72-1.16,42.54-28.25,60.67-5.59,8.84,11.05,3.55,31.09-1.56,50.47-3.38,12.8-7.21,27.31-3.88,31.64.29.37,1,1.36,3.92,1.36,8.43,0,10.52-1.13,11.77-1.81,2.54-1.37,4.49-1.77,9.32-.45,5.16,1.41,7,.72,7.22.46.56-.68,0-4-1.41-6.8l7.12-3.66c.84,1.65,4.86,10.13.51,15.5s-12.76,3-15.54,2.22a9.07,9.07,0,0,0-2.84-.53l-.57.3C216.18,244.51,212.84,245.88,203.19,245.88Z"/>
  <path d="M277.52,162.33c-22.32-19.44-48-5-49.08-4.37l-4-6.91c.31-.18,31.65-18,58.35,5.25Z"/>
  <path d="M121.71,168.68l-5.39-5.91,2.69,3-2.7-2.95c.66-.61,16.17-15.23,7.87-33.91l7.31-3.25C140,144.83,128.83,162.19,121.71,168.68Z"/>
  <path d="M135.91,132.26A38.81,38.81,0,0,1,116,126.57l4.43-6.67c.6.4,15,9.6,30.12,0,15.55-9.9,16.55-25.05,16.59-25.69l8,.38c0,.81-1.12,19.86-20.29,32.05A34.69,34.69,0,0,1,135.91,132.26Z"/>
  <path d="M200.4,125.66c-.46,0-.93,0-1.39,0-20.29-.88-32.36-19.49-32.87-20.28l6.75-4.3-3.37,2.15,3.37-2.16c.1.16,10.39,15.9,26.46,16.6,16.49.7,32.91-15.5,33.08-15.67l5.65,5.66C237.33,108.38,219.82,125.66,200.4,125.66Z"/>
  <path d="M257.36,130.52a42.71,42.71,0,0,1-31.63-14.38l6.22-5-3.11,2.52,3.1-2.53a34.52,34.52,0,0,0,33,10.64c20.79-4.3,26.29-11.86,26.34-11.93l6.7,4.36c-.67,1-7.22,10.39-31.42,15.4A45.05,45.05,0,0,1,257.36,130.52Z"/>
  <path d="M311.08,162.35c-23.95-7-29.12-31.94-28.52-44.12l8,.39A48.37,48.37,0,0,0,293,134.43c3.57,10.52,10.4,17.33,20.3,20.24Z"/>
  <path d="M295,214.74c-3.34,0-6.2-2-8-5.54l7.16-3.58c.41.83.75,1.09.82,1.11a3.32,3.32,0,0,0,1.77-.75c3.33-2.25,6.38-7.44,6.69-10.23a70.94,70.94,0,0,1,2.2-9.17c1.89-6.78,5.82-20.88,3.43-24.53-.12-.19-.21-.29-.62-.35-8.35-1.18-13.4,7.27-13.61,7.63l-6.93-4c.32-.55,7.9-13.49,21.65-11.56a8.61,8.61,0,0,1,6.2,3.89c4.05,6.18,1.31,17.73-2.41,31.06a73.59,73.59,0,0,0-2,7.9c-.69,6.15-7.34,16.63-14.79,18A8.94,8.94,0,0,1,295,214.74Z"/>
  <path d="M300.76,240.94c-12.42-3.31-12.18-20.15-10.09-29.58l7.81,1.73-3.9-.87,3.9.87c-1,4.64-2.41,18.32,4.34,20.12Z"/>
  <path d="M306.18,325.86c-9.59-3.07-17.65-14.12-24-32.85a177.23,177.23,0,0,1-6.53-26.17l7.9-1.24a172,172,0,0,0,6.24,24.95c5.3,15.67,12,25.51,18.8,27.69Z"/>
  <path d="M288.26,296.39l-.19-8,.09,4-.12-4c.33,0,8.23-.42,15.13-8.22,8.21-9.27,11.62-25.45,9.87-46.78l8-.65c2,24.06-2.08,41.87-12,53C299.7,296,288.72,296.38,288.26,296.39Z"/>
  <path d="M319.7,257.9l-.55-8,.28,4-.3-4c.85-.07,20.82-1.91,29.39-26.2,8.46-24-19.81-43.25-20.09-43.44l4.44-6.66a71.79,71.79,0,0,1,15.38,14.72c9.52,12.4,12.22,25.56,7.82,38C345.69,255.78,320.76,257.83,319.7,257.9Z"/>
  <path d="M353.18,198.21,349.8,191l1.69,3.63-1.7-3.62c.88-.42,21.67-10.65,20.95-38.77-.73-28.58-20.37-34.82-35.07-37l1.18-7.91c11.43,1.71,20.21,5.13,26.86,10.45,9.59,7.67,14.64,19.2,15,34.29C379.6,185.5,354.26,197.71,353.18,198.21Z"/>
  <path d="M359.9,124.65l-.53-8a9.48,9.48,0,0,0,6.25-4.33c3-4.47,5.44-14.09-.34-34.5C362,66.26,356.39,58.6,348.57,55.05c-12.91-5.86-28.07,1.18-28.22,1.26l-3.45-7.22c.75-.36,18.57-8.73,34.92-1.35C361.91,52.29,369,61.69,373,75.65c5.38,19,5,33-1,41.48A17.07,17.07,0,0,1,359.9,124.65Z"/>
  <path d="M328.66,49.64c-.11-.23-11.44-22.91-32.88-28.14-13.59-3.32-28.57,1-44.52,12.77l-4.76-6.44c18-13.28,35.22-18,51.25-14.09,25.1,6.17,37.58,31.33,38.1,32.4l-7.19,3.49,3.59-1.75Z"/>
  <path d="M172.71,39.27l-8-.41c.77-14.88,13.75-28.52,33.07-34.75s48.38-5.3,66.81,17.74l-6.24,5C242.46,7,217.12,6.29,200.24,11.73,184.11,16.93,173.3,27.74,172.71,39.27Z"/>
  <path d="M87,83.64C84.57,63.82,96.16,40,114.53,27.07c17.55-12.38,38.28-13.66,58.38-3.61l-3.58,7.16C152,22,134.17,23,119.15,33.6,103,45,92.85,65.6,94.93,82.67Z"/>
  <path d="M88.41,172.53C70.83,164,64.77,133.27,70.13,109.9,74.78,89.65,87.06,77.55,103,77.55v8a20.91,20.91,0,0,0-16,7.26c-4.09,4.51-7.21,11-9,18.88-5.16,22.47,1.37,47.53,14,53.64Z"/>
  <path d="M100.42,232.15c-12.77,0-24.68-6.83-31.59-18.82-7.62-13.22-9.63-35,9.79-53l5.43,5.88c-16,14.73-14.44,32.41-8.29,43.07,5.37,9.32,17.3,18.44,33.25,13.5l2.37,7.64A36.77,36.77,0,0,1,100.42,232.15Z"/>
  <path d="M128.41,279.22c-10,0-19.71-5-27.48-14.56-9.18-11.31-14.34-28.72-7.09-38.27l6.37,4.84c-4.15,5.46-.91,18.73,6.94,28.38,4.26,5.26,15.89,16.66,31.8,9.12l3.42,7.23A32.4,32.4,0,0,1,128.41,279.22Z"/>
  <path d="M156.07,295.67a28.65,28.65,0,0,1-7.69-1c-8.21-2.31-14.62-8.31-19-17.86l7.25-3.37c3.4,7.32,8.08,11.86,13.93,13.51,11.32,3.19,23.88-5,24-5.09L179,288.5C178.43,288.85,168.06,295.67,156.07,295.67Z"/>
  <path d="M219.61,373.32c-25.28-2.61-41.84-40.07-42.54-41.66l-.71-1.64,14.93-32.55,7.28,3.33-13.42,29.26A110.6,110.6,0,0,0,195,346.57c5.81,8,14.94,17.71,25.44,18.8Z"/>
  <path d="M119.59,475.51a20.65,20.65,0,0,1-4.85-.5l2.1-7.72c.8.2,19.75,4.64,29.61-27.76,5.77-19,4.7-24.51,3.92-28.55-.92-4.78-1.24-8.19,3.55-17.77l7.15,3.58c-3.82,7.64-3.47,9.42-2.85,12.67.94,4.87,2.23,11.54-4.11,32.4C145.05,471.6,128,475.51,119.59,475.51Z"/>
  <path d="M115.46,463.36l-4.11-6.86,2.05,3.43-2.07-3.42a21.27,21.27,0,0,0,9.3-18.81c-.44-8.43,2.59-15.5,5-21.18s3.79-9.12,2.55-11.85a38.9,38.9,0,0,1-3-11.58,15.19,15.19,0,0,0-.67-3.41.72.72,0,0,0,.25.21l3-7.42c4.31,1.72,4.88,5.88,5.37,9.55a31.15,31.15,0,0,0,2.39,9.34c2.77,6.08.22,12-2.48,18.32-2.32,5.42-4.72,11-4.38,17.6A29.27,29.27,0,0,1,115.46,463.36Z"/>
  <path d="M126.24,390.29a17.5,17.5,0,0,1-2.11-.14l1-7.94-.49,4,.47-4a6.13,6.13,0,0,0,3-.35.68.68,0,0,0-.2.33l7.84,1.57C135.08,387.16,131.9,390.29,126.24,390.29Z"/>
  <path d="M106.19,506.42c-8.65,0-15.53-2.92-20.46-8.69-11.13-13-7.69-35.85-7.54-36.81l.18-1.18.8-.89c.13-.14,14.1-16.31,12.6-50.85-.85-19.51,2.21-32.42,9.34-39.47,6.46-6.39,14.82-6.7,20.53-6.38,13.36.74,22.77,9.77,28.4,15.16,1.1,1.06,2.06,2,2.8,2.59,1,.82,2.29,1.68,3.55,2.52,3.64,2.4,7.41,4.89,7.36,9,0,2.42-1.42,4.5-4.14,6.2-3.93,2.46-10,1.72-18.63-2.27a91.6,91.6,0,0,1-10.52-5.79l4.37-6.7c7.77,5.06,16.91,8.77,19.94,8.19-.84-.64-1.94-1.37-2.79-1.93a49.12,49.12,0,0,1-4.26-3c-1-.8-2-1.8-3.21-3-5.15-4.93-12.91-12.38-23.31-13-6.77-.37-11.23.89-14.47,4.09-5.36,5.3-7.7,16.54-7,33.43,1.46,33.43-10.43,51.2-13.8,55.53-.48,4.24-1.73,20.51,5.86,29.37,3.38,3.95,8.09,5.87,14.37,5.87,2.69-.33,8.64-12.31,12.26-27.26l7.78,1.88C123.8,483.08,117,506.42,106.19,506.42Z"/>
  <path d="M180.4,400.94c-7.13,0-16.12-2.07-22.14-3.71l2.11-7.72c9.48,2.59,19.46,4,23.14,3.31-1.39-1.7-5.56-3.72-9.31-5.53-6.59-3.19-14.79-7.16-21.94-14.31-9-9-10.95-8.87-16.82-8.53a70,70,0,0,1-8.64.07c-11-.66-15.47,5.93-15.66,6.21l-6.72-4.33c.28-.44,7.06-10.79,22.85-9.87a61.53,61.53,0,0,0,7.71-.07c7.93-.45,11.9-.18,22.94,10.86,6.2,6.2,13.72,9.84,19.76,12.77,7.31,3.53,13.62,6.59,14.26,12.91a6.36,6.36,0,0,1-2.26,5.64C187.7,400.31,184.33,400.94,180.4,400.94Z"/>
  <path d="M187.84,392.3l-2.69-6.73a.88.88,0,0,0,0,.17c-.38-1.29-4.94-5.71-16.55-11.17A36.49,36.49,0,0,1,155.53,365a21.07,21.07,0,0,0-9.14-6.38c-9.87-3.95-23.38,5.11-23.52,5.2l-4.51-6.6c.69-.48,17.15-11.56,31-6a28.62,28.62,0,0,1,12,8.39A29,29,0,0,0,172,367.33c14.18,6.67,21.29,12.86,21.13,18.38C193.1,387.4,192.34,390.5,187.84,392.3Z"/>
  <path d="M169.69,369.09l-6.75-4.3,3.37,2.15-3.38-2.14c1.65-2.62,2.41-5.63,2.08-6.4a12.84,12.84,0,0,0-3,4.47l-7.39-3.08c.54-1.27,3.44-7.71,8.37-9.21a7.43,7.43,0,0,1,6.36,1C174.91,355.3,173.53,363.05,169.69,369.09Z"/>
  <path d="M114.65,367.76l-7.31-3.25c1.57-3.53,3.11-9.71,4.89-16.86,5.22-21,12.37-49.81,31.17-52,1.45-.17,5.88-.69,8,2.68,2.47,3.84-.3,8.42-4.13,14.76-3.33,5.51-7.47,12.37-7.47,17.8a80.44,80.44,0,0,1-4.48,26.7l-7.45-2.9a73.89,73.89,0,0,0,3.93-23.8c0-7.66,4.78-15.57,8.62-21.93,1-1.64,2.21-3.66,3-5.23-12.74,2.57-19.2,28.55-23.5,45.87C118.12,357.1,116.51,363.59,114.65,367.76Z"/>
  <path d="M139.24,340.3l-4.46-6.64c12.89-8.66,45.4-15.26,46.78-15.53l1.57,7.84C182.81,326,150.81,332.53,139.24,340.3Z"/>
  <path d="M71.68,642c-12.2,0-29.6-1.46-44.23-15.83C10,609,1.18,577.37,1.18,532.08,1.18,472.47,32,423.93,57.86,393.7c27.9-32.62,55.39-51,56.54-51.74l4.42,6.67c-.28.18-27.85,18.62-55,50.44C38.88,428.24,9.18,475,9.18,532.08c0,43.07,8,72.8,23.88,88.37,14.23,14,31.65,13.69,43.17,13.49,1.26,0,2.43,0,3.5,0,5.28,0,15.35-6,25-19.24,11.26-15.41,34.94-59.13,11.68-132l7.62-2.43c24.37,76.38-.86,122.76-12.84,139.16C101.05,633.27,89,641.9,79.73,641.9c-1,0-2.15,0-3.36,0C74.92,642,73.35,642,71.68,642Z"/>
  <path d="M45.23,531.75l-7.95-.94c1.75-14.66,9.25-31.14,22.29-49a194.31,194.31,0,0,1,19-22.34l5.59,5.72C83.78,465.54,49,499.9,45.23,531.75Z"/>
  <path d="M105.39,566.54c-14.87,0-27.24-14.26-36.76-42.4a250.71,250.71,0,0,1-9.69-40.4l7.92-1.12c3,21.12,15.75,75.92,38.53,75.92,5.93,0,10.4-1.88,13.63-5.75,8-9.53,6.53-29.23,5.3-36l7.87-1.43c.21,1.15,4.94,28.25-7,42.57C120.38,563.64,113.72,566.54,105.39,566.54Z"/>
  <path d="M94.44,531.15a47.53,47.53,0,0,1-8.18-.74l1.37-7.88c9.07,1.58,16.3.13,21.47-4.29,10.09-8.63,9.93-26,9.92-26.17l8-.15c0,.86.27,21.26-12.68,32.37C109,528.86,102.34,531.15,94.44,531.15Z"/>
  <path d="M85,552.28l-.5-8c19.39-1.22,25.77-25.77,25.83-26l7.77,1.92a56.18,56.18,0,0,1-6.76,15.19C104.68,545.78,95.57,551.62,85,552.28Z"/>
  <path d="M82.05,514.06c-13.2-6.16-22.43-25.82-22.82-26.66L66.49,484h0c.14.29,8.44,17.87,18.94,22.77Z"/>
  <path d="M169.92,177.74a11.63,11.63,0,0,1-11.62-11.61h8a3.62,3.62,0,0,0,7.24,0h8A11.63,11.63,0,0,1,169.92,177.74Z"/>
  <path d="M250.89,175.34a11.63,11.63,0,0,1-11.62-11.62h8a3.62,3.62,0,1,0,7.23,0h8A11.63,11.63,0,0,1,250.89,175.34Z"/>
  <polygon points="101.28 721.78 109.68 618.9 101.71 618.25 93.25 721.78 101.28 721.78"/>
  <g>
    <path d="M401,635.47c5.23,2.77,12.18,11,15.5,34.26,2.37,16.54,3,35.89.89,52h8.13c2-15.22,1.7-33.61-1.1-53.18-3.07-21.53-9.76-35.08-19.87-40.3a20.64,20.64,0,0,0-18-.37l3.64,7.13A12.47,12.47,0,0,1,401,635.47Z"/>
    <path d="M378.24,721.78c-2.49-10.46-4.19-23.54-4.63-39.42l-8,.22a210,210,0,0,0,4.39,39.2Z"/>
  </g>
  <path d="M310.17,323.8c30.75,1.77,60.38,14.79,88.12,38.74,24.93,21.52,47.89,51.33,68.24,88.59,36.71,67.23,56.52,144.75,56.52,183.56s-2.06,66.4-6.59,87.09h8.11c5.24-24.89,6.48-55.49,6.48-87.09,0-20.72-5.34-51-14.65-82.92a532.93,532.93,0,0,0-42.85-104.48c-20.81-38.1-44.37-68.65-70-90.8-30.28-26.14-62.85-39.88-96.81-40.84l-4.07-.1,0,4.07c0,.69-.39,16.88-18.52,25.25l3.35,7.27C304.45,344.28,309,330.65,310.17,323.8Z"/>
  <g>
    <path class="cls-1" d="M326.25,394.63a3.27,3.27,0,0,1-.53.78,5.74,5.74,0,0,1-.78.7,5.3,5.3,0,0,1-.89.52,3.35,3.35,0,0,1-.91.3l-2.34,11.83A11.49,11.49,0,0,0,323,407c-.66,3.35-2.85,5.34-6.54,5.95a8.45,8.45,0,0,1-3,0,9.72,9.72,0,0,1-3.29-1.18,7.84,7.84,0,0,1-3-3.47,7.6,7.6,0,0,1-.43-4.6l0-.13,0,0a10.6,10.6,0,0,1,3.38-5.84A5.6,5.6,0,0,1,314.5,396q-3.54,2.67-4.1,5.53a8.86,8.86,0,0,0-.14,2.83,7.24,7.24,0,0,0,.78,2.49v0a5.78,5.78,0,0,0,4.16,3.08h0l.07,0a6.85,6.85,0,0,0,4.13-.39l2.45-12.33h-.07a1.26,1.26,0,0,1-.43,0,5.12,5.12,0,0,1-1.53-.17l0,0-.09,0c-.42-.08-.81-.17-1.18-.26s-.69-.19-1-.3l-.38-.16-.68-.25-.76-.29-1-.38a16.44,16.44,0,0,0-2.8-.88l-.16,0a5,5,0,0,1-.73-.11,3.38,3.38,0,0,0-2.65,1l.09-.41a3.37,3.37,0,0,1,.89-1.56,5.66,5.66,0,0,1,5.45-1.57l.17,0c.68.18,1.79.53,3.32,1.05l1.66.66a2.22,2.22,0,0,0,.44.22l.74.28.65.19.64.23.79.15,0,0,.44.08,0,0a4,4,0,0,0,2.32-.16ZM316.1,407.89a3.67,3.67,0,0,1-2.67.58l-.19,0v0l-.28,0,.27-.21,0-.1.06,0a.12.12,0,0,1,.05-.08l.12-.08a.39.39,0,0,1,.21-.25l0-.1,0,0v-.06l0,0,1.55-7.8-1,.26.25-1.29,4.21-1.45.66.13-1.69,8.52A3.28,3.28,0,0,1,316.1,407.89Z"/>
    <path class="cls-1" d="M338.16,404.42a1.68,1.68,0,0,1-.08.25,2.65,2.65,0,0,1-1.42,1.41l-1.59,8.19v0a4.71,4.71,0,0,0,.44,1.42v0l.05.08v0l.05.07-.2.19a3.64,3.64,0,0,0-1.57-.64c-1.09-.21-1.71-.15-1.84.19l.18.27-.19,0a1.92,1.92,0,0,0,.18.3l.35.46a3.51,3.51,0,0,1,1,2.85,2.17,2.17,0,0,1-1.51,1.67,1.38,1.38,0,0,1-.68.15l-.07,0-.19,0,0,0-.12,0a1.37,1.37,0,0,1-1.14-1.18c.72-.12,1.12-.41,1.21-.87a1.44,1.44,0,0,0-.15-1c-.06,0-.08-.15-.06-.34l0,0a3.42,3.42,0,0,1-.21-2c.09-.48.28-.77.56-.87v0a1.07,1.07,0,0,0,.49-.69L333.3,406a1.86,1.86,0,0,1-.81-.56,7.27,7.27,0,0,1-.65-.68l0,0-1.59.77L328.94,412l.26.15.36.2a5.14,5.14,0,0,1,.75.7,3.9,3.9,0,0,1,.5.72l-3.42,2.07a5.05,5.05,0,0,0-2.87-2.33l-.16,0h-.19a1.78,1.78,0,0,0-.41.08,2.13,2.13,0,0,1-.37,0l-.25,0a3.42,3.42,0,0,1,2.45-2l2.62-13.18a5.3,5.3,0,0,0-.23-2,4.87,4.87,0,0,0,1.9,0,9.8,9.8,0,0,0,2.14-.72,7.64,7.64,0,0,0,.8-.43l0,0,.24.08-.22.38-.17.29-.14.17a4.21,4.21,0,0,0-.43.9.08.08,0,0,0-.05,0v0q-.13.33-.21.54a2.48,2.48,0,0,0-.09.31L330.54,404l4.56-2.23c.34,1.27.82,2,1.45,2.09a.57.57,0,0,0,.19.07,4.25,4.25,0,0,0,1.71-.42l-.08.44a1,1,0,0,1-.05.16l-.08.15A.84.84,0,0,0,338.16,404.42Z"/>
    <path class="cls-1" d="M348.12,410.09c-.27.07-.83.25-1.66.54l-3.39,1.17a6.7,6.7,0,0,0-.71.29l-.46,2.35a14.53,14.53,0,0,1,1.72.77,10.12,10.12,0,0,1,1.44.91l.91-.64.65.88-3.49,2.58-.28-.22-1.16-.9a6.48,6.48,0,0,0-1.36-.74,11.62,11.62,0,0,0-2.34-.76,4.79,4.79,0,0,0-.76-.1l-.78,0,.18-.25a.94.94,0,0,1,.16-.14v0l.47-.5.22-.21a5,5,0,0,1,1-.59l1.51-7.61a4.71,4.71,0,0,0-.19-1.68l.09-.44.23.34.18,0,0,0,.09,0,.09,0,.13,0a10.62,10.62,0,0,0,6-1c0,.4.08.83.16,1.3a13.54,13.54,0,0,0,.4,1.62c.18.54.35,1,.51,1.49a12.33,12.33,0,0,0,.47,1.19Zm-4.41-3.46h-.27l-.79,4,1.91-.76c-.06-.15-.12-.33-.2-.55a7.9,7.9,0,0,1-.24-.85q-.14-.45-.24-.93C343.81,407.26,343.75,407,343.71,406.63Z"/>
    <path class="cls-1" d="M273.24,441.52c-.31.12-.68.28-1.13.48l-1.49.7a5.58,5.58,0,0,0-1.41,1l-.13-.19,0,0-.05-.07-.06,0-.08-.11v-.07a14.14,14.14,0,0,0-2.44-2.9l1.64-1.15,1.15-5.82-3.8-.75-1.16,5.82.35-.26.73.93L261,441.91a8.6,8.6,0,0,0-4.25-2.32,6.3,6.3,0,0,0-3.95.46,5,5,0,0,1,1.51-1.73,6.93,6.93,0,0,1,2.14-1,11.11,11.11,0,0,1,2.13-.28,9.77,9.77,0,0,1,2.2.19,8.29,8.29,0,0,1,2.38.87l3-15.32a.93.93,0,0,1-.34-1.08,1.11,1.11,0,0,1,2.06-.43,1.2,1.2,0,0,1,.17.87,1.05,1.05,0,0,1-.8.92L266,429.37l3.8.76.94-4.75a.12.12,0,0,1-.11-.09h0a2.32,2.32,0,0,0-.22-.21,1.64,1.64,0,0,1-.26-.31h0a.89.89,0,0,1-.16-.19l-.6.2-.33-.94,4-1.7c.85,1.53,1.7,2.37,2.53,2.54h.07a4.64,4.64,0,0,1,.47-.07.89.89,0,0,1,.42,0,5.07,5.07,0,0,1-1.43,1.25l-.28.09-.32.15h0l-.11.07-.23,0-2.7,13.59.6.93.7-.25.38.89ZM265.67,422a6.12,6.12,0,0,1-1.94,1.3,3.74,3.74,0,0,1-2.11.31,1.25,1.25,0,0,1-.44,0l0,0-.09,0a6.15,6.15,0,0,1-1.71-.79,5.6,5.6,0,0,0-1.48-.75l-.07,0-.22,0s-.09,0-.2,0a1.11,1.11,0,0,0-.68.14,3.12,3.12,0,0,0-.75.65l.09-.44,0,0,0-.12,0-.07,0-.16a2.65,2.65,0,0,1,1.41-1.91,3.58,3.58,0,0,1,2.5-.35,5.83,5.83,0,0,1,2.44,1.07.45.45,0,0,0,.17.1h0l.22.14.13.09h0a1.09,1.09,0,0,0,.23.14l.62.35.06,0,.34.11a1.64,1.64,0,0,0,.28.07,2,2,0,0,0,1,0,.18.18,0,0,1,.13,0,.06.06,0,0,0,.06,0h.05Zm-.34,1.73v.06a2.57,2.57,0,0,0-.63,1.51l-1.75,8.84a3.25,3.25,0,0,1-.74,1.26,3.89,3.89,0,0,1-.81.69,4.89,4.89,0,0,1-1,.49,5,5,0,0,1-1.07.24,3.73,3.73,0,0,1-1.06,0l-.16,0,0,0-.32-.07.38-.25a1.15,1.15,0,0,0,.26-.14l.31-.4v0l.17-.19.22-.29a.17.17,0,0,1,.06-.12l.78-3.93-1.07-.21-.34.06h-.13a1.11,1.11,0,0,0-.61.89l0,0-.09.44a1.73,1.73,0,0,1-.43-.39,4.3,4.3,0,0,1-.35-.55,3.46,3.46,0,0,1-.24-.57,1,1,0,0,1-.05-.5,1.36,1.36,0,0,1,0-.51,2.3,2.3,0,0,1,.34-.85,2.85,2.85,0,0,1,1.46-1.15,1.57,1.57,0,0,1,.86-.06l1.21.18.53-2.68a4.51,4.51,0,0,1,2.44-1.77,3.72,3.72,0,0,1,2.14-.23Z"/>
    <path class="cls-1" d="M273.74,441.79c-.06,0-.09.08-.11.07s0-.06.08-.11Zm11.67,2.12,1.14.39-3.43,2.62-1.95-2.71L278.62,446c-1.56-2.27-3.18-3.68-4.88-4.23l.13-.14.23-.18.44-.44,1.65-8.3a2,2,0,0,1-.28-1.07l0-.06a24.78,24.78,0,0,0,5.51-1.26q2.4,1.43,4.87,2.79l-1.86,9.38A1.55,1.55,0,0,0,285.41,443.91Zm-3.12-9.81a27.82,27.82,0,0,0-2.54-1.68v0l.11.12-1.58,8a16.29,16.29,0,0,1,2.32,2.13Z"/>
    <path class="cls-1" d="M300,436.5c.06,0,.08.1.06.21a2.56,2.56,0,0,1-.56.87l-1.81,9.12,1.22.24c-.21,0-1.35.75-3.44,2.36,0-.37-.75-1.6-2.21-3.68l.72.15,1.74-8.75-1-1.28-1.84.91-1.71,8.62,1.35.27a8.6,8.6,0,0,0-3.26,1.77,4.39,4.39,0,0,1-.79.69,0,0,0,0,1,0,0l.05-.06c0-.88-.82-2-2.37-3.38l0-.2,1.23.24,1.62-8.18c-.07-1.21-.44-1.9-1.12-2.08l3.18-1.53a8.36,8.36,0,0,1,2,2.13,11.06,11.06,0,0,0,3.59-1.09l.47-.23A16.47,16.47,0,0,0,300,436.5Z"/>
    <path class="cls-1" d="M313.71,439.22l-.08,0,0,.06-.14.1-.13.11,0,.06a1,1,0,0,0-.3.4l-1.79,9a.1.1,0,0,0,0,.1l0,.07,0,.1v0a.11.11,0,0,1,0,.07v.17l0,0c0,.09,0,.14,0,.17l0,.07v0l0,0a.62.62,0,0,0,0,.13l.13.48a4.47,4.47,0,0,0-2.17-1.05,5.46,5.46,0,0,0-4.75,1.18l-.23-.3a.85.85,0,0,1-.09-.15,1.09,1.09,0,0,0-.08-.15,4,4,0,0,0-2.76-2.11,3.09,3.09,0,0,0-2,.22,3.19,3.19,0,0,1,2.18-2.08l1.49-7.52a2.77,2.77,0,0,0-.35-1.51l.37.08.06,0,.38.08.05,0,.1,0a6.73,6.73,0,0,0,4.12-.33l-1-1.71c-.28-.44-.57-.88-.88-1.32s-.62-.83-.94-1.2l-.31-.33c-.13-.15-.28-.33-.43-.53a16.88,16.88,0,0,1-1.12-1.79l.09-.44a.81.81,0,0,0,.51.39s.13.06.34.1a6.26,6.26,0,0,0,1.68.11,8.18,8.18,0,0,0,1.73-.31,5.75,5.75,0,0,0,.52,1.64v0l.63.94,2.63,3.89,0,.1.58.9.22.34c.09.13.19.27.31.42l.12.16.11.15h0a1.57,1.57,0,0,0,.92.68l.31-.27Zm-5.9,8.8,1.71-8.62-1-1.53a4,4,0,0,1-2.1.66l-1.52,7.67.21.11.3.14c.14.06.34.16.59.3a5.79,5.79,0,0,1,1.3,1.37l.07-.05h0l.07-.05.1,0,0,0,.16,0Zm5.49-8.42a.24.24,0,0,1,.09-.08l-.09.11Z"/>
    <path class="cls-1" d="M328.26,455.51l-.19,0a1.78,1.78,0,0,1-.72-.32,2.13,2.13,0,0,1-.57-.59,2.43,2.43,0,0,1-.34-.73,1.5,1.5,0,0,1-.05-.75l1.68-8.46-.1,0-.11-.09-.13-.09-.13-.09a2.64,2.64,0,0,1-.91-1l-1.41.67L324,450.7a4.55,4.55,0,0,1,.59.54l1.11,1.11-3.22,2.07a5.29,5.29,0,0,0-2.79-2.28,1.92,1.92,0,0,0-1.17.16,4.06,4.06,0,0,1,2.13-2l1.31-6.64a1.86,1.86,0,0,0-.57-1.75L319,443.08l-1.27,6.39.25.16.27.17a2.76,2.76,0,0,1,.66.57,1.94,1.94,0,0,1,.32.6l-3.34,2.15a3.43,3.43,0,0,0-2.4-2.21,2.35,2.35,0,0,0-1.25,0,3.59,3.59,0,0,1,.9-1.15,2.82,2.82,0,0,1,1.23-.68l1.35-6.83c.11-.55-.43-1.09-1.61-1.63l0-.22,3.64-2.51a4.13,4.13,0,0,1,1.82,3.5l4.37-2.27a4.45,4.45,0,0,1,1.71,3.25l3.92-2c.66,1.31,1.25,2,1.77,2.12a3,3,0,0,0,1.69-.26l-.11.54a.13.13,0,0,1,0,.07.36.36,0,0,0,0,.11,1,1,0,0,1,0,.14.69.69,0,0,0-.05.17,1.9,1.9,0,0,1-.44.71,4.77,4.77,0,0,1-.7.57l-1.43,7.23a.81.81,0,0,0,.18.64.91.91,0,0,0,.56.39,2.61,2.61,0,0,0,.62,0h0l.07,0h.06l.08-.05.41.08Z"/>
    <path class="cls-1" d="M332.37,453.42c-.06.05-.1.08-.12.07a.53.53,0,0,1,.09-.11ZM344,455.54l1.13.39-3.42,2.62-1.95-2.71-2.55,1.82c-1.56-2.27-3.18-3.69-4.88-4.24l.12-.14.24-.18.44-.44,1.65-8.3a1.92,1.92,0,0,1-.28-1.07v-.06a24.73,24.73,0,0,0,5.52-1.26c1.59.95,3.22,1.88,4.87,2.79l-1.86,9.38A1.53,1.53,0,0,0,344,455.54Zm-3.12-9.81a29.57,29.57,0,0,0-2.54-1.68v0l.11.12-1.59,8a15.87,15.87,0,0,1,2.33,2.13Z"/>
    <path class="cls-1" d="M349,459.3a3.69,3.69,0,0,1-1-.4,2.9,2.9,0,0,1-.83-.74,2.23,2.23,0,0,1-.6-1.92l1.57-7.92a.86.86,0,0,1-.61-.71l-.49.16-.32-.71.13-.14,0,0,.08-.06h.07l.82-.51c.3-.19.69-.42,1.18-.7a6.07,6.07,0,0,0,1-.52l.14-.07.23-.15.07-.38c.62,1.39,1.26,2.14,1.91,2.27a3.13,3.13,0,0,0,1.09-.24l-.08.38a2,2,0,0,0-.15.43,3.48,3.48,0,0,1-.89,1.05,2.38,2.38,0,0,1-1,.47l-1.33,6.7a1.42,1.42,0,0,0,.06.54c.11.43.5.72,1.17.85a2.13,2.13,0,0,0,.86,0l.08.25Zm2.07-14.92-.25-.05v0l-.32-.06,0,0a1.39,1.39,0,0,1-1.29-1.27l-.55.15-.27-.77A2,2,0,0,1,349,442l.59-.16-.08.05.31-.15.38-.21.6-.27.74-.34c.38.9.87,1.41,1.46,1.53l.28,0a.94.94,0,0,0,.28,0h0l.08-.05h0l0,0h0l0,0,.22.05-.06.28a1.8,1.8,0,0,1-.37.79,2.52,2.52,0,0,1-.67.59,3.15,3.15,0,0,1-.85.34A2.15,2.15,0,0,1,351.09,444.38Z"/>
    <path class="cls-1" d="M366.86,449.77l-.07.05-.05.05-.13.11-.14.1v.06a1.24,1.24,0,0,0-.31.4l-1.78,9a.11.11,0,0,0,0,.1v.13a.19.19,0,0,1,0,.07V460l0,0c0,.08,0,.14,0,.16l0,.07v0l0,0a.2.2,0,0,0,0,.13l.13.49a4.6,4.6,0,0,0-2.18-1.06,5.48,5.48,0,0,0-4.75,1.19l-.23-.31a1.09,1.09,0,0,1-.08-.15l-.09-.14a4,4,0,0,0-2.75-2.12,3.09,3.09,0,0,0-2,.23,3.19,3.19,0,0,1,2.17-2.09l1.5-7.51a2.88,2.88,0,0,0-.36-1.51l.38.07.06.05.37.07.06.05h.09a6.79,6.79,0,0,0,4.12-.32l-1-1.71c-.28-.45-.58-.89-.88-1.32s-.62-.83-.94-1.2l-.31-.34a6.87,6.87,0,0,1-.44-.53,16.26,16.26,0,0,1-1.11-1.79l.09-.44a.84.84,0,0,0,.5.4,1,1,0,0,0,.34.1,6.28,6.28,0,0,0,1.68.1,8.07,8.07,0,0,0,1.73-.31,5.72,5.72,0,0,0,.53,1.64v0l.63.94,2.63,3.89.05.11.57.9.23.34c.08.12.18.26.31.42l.11.15a1.58,1.58,0,0,1,.12.15h0a1.51,1.51,0,0,0,.91.67l.31-.27Zm-5.9,8.8,1.71-8.62-1-1.54a3.93,3.93,0,0,1-2.09.66l-1.53,7.68.21.11.3.14.6.29a5.73,5.73,0,0,1,1.29,1.37l.08-.05h0l.08-.05.09,0,0,0,.16,0Zm5.5-8.43s0,0,.08-.08l-.09.12Z"/>
    <path class="cls-1" d="M369.87,448.44l-.25-.55c.77-.34,1.2-.78,1.3-1.31s-.31-1.37-1.34-2.09a19.24,19.24,0,0,0,3.22-2.08c1.1,1.16,1.56,2.17,1.39,3Q373.74,447.7,369.87,448.44Z"/>
    <path class="cls-1" d="M386.81,452.19a14.11,14.11,0,0,1-4.49,4.53l3,.53s0,.06-.05.12l0,.12a.34.34,0,0,0-.06.15l0,0v.06l-.07,0,0,.06,0,.06a.19.19,0,0,1,0,.09.14.14,0,0,0,0,.06v0a2.09,2.09,0,0,0-.1.21l-.06.12-1.06,5.34a.19.19,0,0,0,0,.11l0,.09,0,.07v0a.1.1,0,0,1,0,.07v.16l0-.07,0,0a.43.43,0,0,0,0,.14c0,.12.09.24.13.35l.07.28a1.64,1.64,0,0,1-.4-.11h0a.13.13,0,0,0-.09,0c-.25-.05-.46-.09-.62-.14a.79.79,0,0,1-.39-.19,3.16,3.16,0,0,1-.56-.14l-.19,0a5.23,5.23,0,0,0-4.25.86l-.73-1.1a2.35,2.35,0,0,0-.41-.42,1.17,1.17,0,0,0-.48-.21,1.2,1.2,0,0,0-.52-.2,2.09,2.09,0,0,0-2.29,1l-.91-.18a9.15,9.15,0,0,1,1.33-2.07,17.23,17.23,0,0,1,2.19-2.13l.15-.1.28-.21.4-.28-2.05-.51.26-.17-.05.09a1.38,1.38,0,0,0,.44-.73l0-.06,1.06-5.48a.07.07,0,0,0,0-.05.07.07,0,0,1,0-.05v0s0-.08,0-.16l-.05-.24v0a.26.26,0,0,1,0-.2l.05-.29a1.06,1.06,0,0,0,.61.42,3.07,3.07,0,0,0,1.07.34s.12.06.31.1a6.06,6.06,0,0,0,2.95-.17,16,16,0,0,0,1.49-.95,2.78,2.78,0,0,0,1.66,1.54,1.74,1.74,0,0,0,1.66-.62l.86.11Zm-6.32,10.61.79-4,0-.08-1.61-.32-2,1.32a6.61,6.61,0,0,0-.61.45q-.35.27-.84.6l.68,0a2.31,2.31,0,0,1,.45,0,3.52,3.52,0,0,1,2.51,2l.14,0h.1a.77.77,0,0,0,.24,0l.12,0Zm2.69-8.13a2.88,2.88,0,0,1-1.17,0,3.56,3.56,0,0,1-1.9-1.33.34.34,0,0,0-.14,0l-.12,0a1,1,0,0,1-.37,0l-.78,4,.34.07a5.24,5.24,0,0,0,.83-.45l1.41-.93Z"/>
    <path class="cls-1" d="M312.09,470.28a3.27,3.27,0,0,1-.53.78,5.74,5.74,0,0,1-.78.7,4.93,4.93,0,0,1-.89.52,3.35,3.35,0,0,1-.91.3l-2.34,11.82a10.43,10.43,0,0,0,2.2-1.72q-1,5-6.54,6a8.4,8.4,0,0,1-3,0,9.7,9.7,0,0,1-3.3-1.18,7.87,7.87,0,0,1-3-3.48,7.64,7.64,0,0,1-.43-4.59l0-.13,0,0a10.49,10.49,0,0,1,3.38-5.84,5.58,5.58,0,0,1,4.4-1.77c-2.36,1.78-3.72,3.62-4.1,5.53a8.86,8.86,0,0,0-.14,2.83,7.24,7.24,0,0,0,.78,2.49v0a5.8,5.8,0,0,0,4.16,3.08h0l.07,0a6.84,6.84,0,0,0,4.13-.39l2.45-12.33h-.07a1.21,1.21,0,0,1-.42,0,5.15,5.15,0,0,1-1.54-.17l0,0-.09,0c-.42-.08-.81-.17-1.17-.26l-1-.3-.37-.16-.69-.25-.76-.29c-.28-.12-.61-.24-1-.38a16.17,16.17,0,0,0-2.8-.88l-.16,0a5,5,0,0,1-.73-.11,3.36,3.36,0,0,0-2.64,1l.08-.41a3.37,3.37,0,0,1,.89-1.56,5.65,5.65,0,0,1,5.45-1.57l.17,0c.68.18,1.79.53,3.32,1.05l1.67.66a2.74,2.74,0,0,0,.43.22l.74.28.65.19.64.23.79.15,0,0,.44.08,0,0a4,4,0,0,0,2.32-.16Zm-10.15,13.26a3.67,3.67,0,0,1-2.67.58l-.19,0v0l-.28-.05.27-.21,0-.1.07,0a.08.08,0,0,1,.05-.08l.11-.08a.47.47,0,0,1,.21-.25l0-.1,0,0v-.06l0,0,1.55-7.8-1,.26.25-1.29,4.21-1.45.67.13-1.7,8.52A3.3,3.3,0,0,1,301.94,483.54Z"/>
    <path class="cls-1" d="M309.06,488c-.06.06-.09.08-.11.08s0-.06.08-.11Zm11.67,2.12,1.14.39-3.43,2.62-1.95-2.7-2.55,1.81c-1.56-2.27-3.18-3.68-4.88-4.24l.12-.14.24-.18.44-.43,1.65-8.31a2,2,0,0,1-.28-1.07v-.06a24.73,24.73,0,0,0,5.52-1.26q2.4,1.43,4.87,2.8l-1.86,9.37A1.51,1.51,0,0,0,320.73,490.14Zm-3.12-9.8a24.62,24.62,0,0,0-2.54-1.68v0l.11.12-1.59,8a15.31,15.31,0,0,1,2.33,2.12Z"/>
    <path class="cls-1" d="M325,493.8a9.12,9.12,0,0,0-3.48-2.71,4.18,4.18,0,0,1,1.82-1.28L325.89,477v-1a.07.07,0,0,0,0-.05,0,0,0,0,1,0-.05v0a.63.63,0,0,1,0-.23l0-.11,0,0a.25.25,0,0,0,0-.17l0-.07.09-.41a1,1,0,0,0,.26.17l.18.05c.74.15,2-.25,3.84-1.2l.13.16a3.48,3.48,0,0,0-.34.55c-.11.22-.23.47-.38.75a6,6,0,0,0-.48,1.31l-2.67,13.43a6.7,6.7,0,0,1,.88.86l0,0h0l.06.05a1,1,0,0,1,.14.26l.08.11.56-.35.47.94Z"/>
    <path class="cls-1" d="M340.54,487c-.28.08-.83.26-1.66.54l-3.39,1.17a7.14,7.14,0,0,0-.71.29l-.47,2.36a13.22,13.22,0,0,1,1.73.77,11.35,11.35,0,0,1,1.44.9l.91-.63.64.87-3.48,2.58-.29-.22c-.39-.32-.78-.62-1.16-.9a6,6,0,0,0-1.36-.74,13,13,0,0,0-2.33-.76,6.59,6.59,0,0,0-.76-.1l-.78,0a1.25,1.25,0,0,1,.18-.24.71.71,0,0,1,.16-.15v0c.19-.2.35-.37.48-.49l.22-.22a4.72,4.72,0,0,1,1-.59l1.51-7.61a4.66,4.66,0,0,0-.19-1.67l.08-.44.23.34.19,0,0,0,.09,0,.09.05.12,0a10.71,10.71,0,0,0,6-1c0,.4.09.83.17,1.31a12.12,12.12,0,0,0,.4,1.61c.17.54.34,1,.5,1.49s.32.86.47,1.19Zm-4.42-3.45h-.26l-.8,4,1.92-.76c-.06-.14-.13-.33-.2-.55a7.28,7.28,0,0,1-.24-.85,7,7,0,0,1-.24-.93C336.23,484.22,336.17,483.9,336.12,483.59Z"/>
  </g>
  <g>
    <path class="cls-8" d="M426.22,72.69c-3.24-2.53-7.7-4.86-13.63-7.11-10.86-4.11-26.25-7.78-45.76-10.9q-6.56-1.05-13.58-2c5.69,4.07,11.56,10.48,13.4,14.09,35,5.54,46.08,10.69,51.11,13.94l4.95,3.2-4.95,3.2c-5.35,3.46-20.34,10.13-60.63,15.94-38,5.48-87.2,8.5-138.48,8.5s-100.47-3-138.49-8.5C39.88,97.25,24.89,90.58,19.54,87.12l-5-3.2,5-3.2c5.35-3.46,20.34-10.14,60.62-15.94,5.68-.82,6.33-1.29,12.49-2,1.2-3.63,3.57-7.7,6-12C87,52,80.61,53.05,70.47,54.68,51,57.8,35.56,61.47,24.71,65.58c-5,1.88-20.06,7.6-20.06,18.34,0,2.83,1.11,7.07,6.42,11.23,3.24,2.53,7.7,4.85,13.64,7.1C35.56,106.36,51,110,70.47,113.16,110.1,119.5,162.72,123,218.65,123s108.55-3.5,148.18-9.84c19.51-3.13,34.9-6.8,45.76-10.91,5-1.88,20.06-7.59,20.06-18.33C432.65,81.09,431.53,76.85,426.22,72.69Z"/>
    <path d="M218.65,127c-56.14,0-109-3.51-148.82-9.89C50.06,113.94,34.4,110.2,23.29,106c-6.32-2.39-11.13-4.91-14.68-7.7C2,93.15.65,87.63.65,83.92c0-13.5,17-20,22.64-22.08,11.11-4.2,26.77-7.94,46.54-11.11l.64-.1c9.76-1.57,16.22-2.6,27.75-3.83L106,46l-4.31,7.62A66,66,0,0,0,96.44,64l-.8,2.42-2.54.3c-3.37.38-5,.69-6.83,1-1.42.27-3,.57-5.54.93C40.52,74.53,26.34,81.17,22,83.92c4.38,2.74,18.56,9.38,58.77,15.18,37.84,5.46,86.82,8.46,137.92,8.46s100.08-3,137.91-8.46c40.22-5.8,54.39-12.44,58.78-15.18-7.67-4.83-23.81-9.15-49.32-13.19l-2-.32-.93-1.81c-1.49-2.94-6.86-8.86-12.16-12.66l-13.05-9.36,15.92,2.14c4.74.64,9.34,1.32,13.67,2C387.24,53.9,402.9,57.64,414,61.84c6.32,2.4,11.13,4.91,14.69,7.7,6.58,5.15,8,10.66,8,14.38,0,13.5-17,20-22.65,22.07-11.1,4.21-26.76,8-46.54,11.12C327.63,123.49,274.78,127,218.65,127ZM8.72,84.89c.34,2.45,2,4.89,4.82,7.11s7,4.41,12.58,6.51c10.61,4,25.74,7.61,45,10.7,39.42,6.31,91.82,9.79,147.55,9.79s108.12-3.48,147.55-9.79c19.24-3.09,34.37-6.68,45-10.7,10.89-4.12,16.74-8.7,17.41-13.62l-8.65,5.59c-6.87,4.44-23.25,10.92-62.23,16.54-38.2,5.51-87.58,8.54-139,8.54s-100.86-3-139.06-8.54c-39-5.62-55.35-12.1-62.23-16.54ZM91.4,55.63c-7,.87-12.43,1.74-19.66,2.9l-.64.1c-19.24,3.08-34.37,6.68-45,10.69C15.24,73.45,9.39,78,8.71,83l8.65-5.59c6.88-4.45,23.25-10.92,62.23-16.54,2.35-.34,3.79-.62,5.19-.88s2.83-.54,5-.83C90.25,58,90.8,56.81,91.4,55.63Zm277.73,7.5c34.38,5.57,45.46,10.77,50.8,14.23L428.58,83c-.35-2.46-2-4.9-4.82-7.11h0c-2.92-2.28-7-4.41-12.59-6.52-10.6-4-25.73-7.61-45-10.69l-.65-.1A41.47,41.47,0,0,1,369.13,63.13Z"/>
  </g>
</svg>
