<svg id="Layer_1" data-name="Layer 1" xmlns="http://www.w3.org/2000/svg" viewBox="0 0 485 760">
  <defs>
    <style>
      .cls-1 {
        fill: #787fff;
      }

      .cls-2 {
        fill: #5061ff;
      }

      .cls-3 {
        fill: #87ff76;
      }

      .cls-4 {
        fill: #ffbd7b;
      }

      .cls-5 {
        fill: #fff;
      }
    </style>
  </defs>
  <title>Martas</title>
  <polyline class="cls-1" points="341.49 342.61 457.33 454.68 459.39 733.11 420.57 733.11 298.05 371.22 341.49 342.61"/>
  <path class="cls-1" d="M384.48,246.17h73s1-98-62-148l-53,51S385.48,200.17,384.48,246.17Z"/>
  <path class="cls-1" d="M247.48,112.17s-53,4-91,39l-61-61s28-30,74-46,79-12,79-12Z"/>
  <path class="cls-1" d="M27.48,247.17l86-1s2,55,40,93l-125,127Z"/>
  <polygon class="cls-1" points="78.48 734.17 169.48 736.17 192.48 514.17 152.48 518.17 78.48 734.17"/>
  <path class="cls-1" d="M247.48,112.17s76,8,95,37l-14,15s-38-33-78-30Z"/>
  <path class="cls-1" d="M364.48,245.17l17-1s7,47-37,96l-14-8S361.48,288.17,364.48,245.17Z"/>
  <polygon class="cls-1" points="169.48 327.17 203.34 352.79 188.48 363.17 153.48 339.17 169.48 327.17"/>
  <path class="cls-1" d="M156.48,151.17l14,14s-33,28-34,80h-19S123.48,173.17,156.48,151.17Z"/>
  <path class="cls-2" d="M385.18,243.22h72.07V458.6L344.48,340.17S385.88,301.26,385.18,243.22Z"/>
  <path class="cls-2" d="M284.34,246.79c.81-.58,78.14-.62,78.14-.62s-1.14,61.62-33.14,80.62C329.34,326.79,256.34,266.79,284.34,246.79Z"/>
  <path class="cls-2" d="M250.48,134.17l-2,43,35,28,45-41S288.48,129.17,250.48,134.17Z"/>
  <path class="cls-2" d="M168.24,166.43l31.68,29.07-2.58,53.29-60.86-3.62S130.26,204.87,168.24,166.43Z"/>
  <path class="cls-2" d="M156.48,151.17l14,14s35-36,80-31l-3-22S175.48,120.17,156.48,151.17Z"/>
  <path class="cls-2" d="M136.48,245.17s-7,44,33,82l-15.7,14.76s-38.3-34.76-36.3-96.76Z"/>
  <path class="cls-2" d="M152.48,152.16s-36,40-38,91h-86s2-56,14-77,45-77,53-76Z"/>
  <path class="cls-2" d="M251.53,113.25s55,5.92,91,35.92l53-55s-60-60-143-63Z"/>
  <path class="cls-2" d="M331.48,167.17s33,41,31,79l19-2s-2.59-64.37-40.8-91.69Z"/>
  <path class="cls-1" d="M247.68,314.62l33.66-26.83s37.85,18,46,41l-34,27Z"/>
  <path class="cls-1" d="M195,190.18l-24.49-25s20.09-23.92,54-27.46,21.91-4.59,21.91-4.59l2,44s-33.14,25.62-35.14,26.62S195,190.18,195,190.18Z"/>
  <path class="cls-1" d="M198.34,245.79l-62.46,2.47s3.6,54.91,33.6,78.91l36.86-36.38Z"/>
  <path class="cls-1" d="M299.73,249.17l62.46-2.48s-3.61-54.9-33.61-78.9l-36.85,36.38Z"/>
  <polygon class="cls-2" points="209.34 289.79 169.48 327.17 201.34 350.79 214.34 326.79 209.34 289.79"/>
  <polygon class="cls-2" points="153.48 342.17 28.48 466.17 27.48 734.17 78.48 734.17 152.48 518.17 123.48 489.17 117.48 462.17 133.48 423.17 173.48 382.17 176.34 357.79 153.48 342.17"/>
  <polygon class="cls-2" points="326.36 466.35 420.48 733.17 330.48 736.17 284.33 518.79 326.36 466.35"/>
  <polygon class="cls-2" points="291.48 355.17 320.48 337.17 330.33 327.79 338.28 345.94 298.48 371.17 291.48 355.17"/>
  <polygon class="cls-1" points="290.48 352.17 313.48 340.17 299.48 335.17 290.48 352.17"/>
  <polygon class="cls-1" points="285.48 355.17 291.48 361.17 288.48 367.17 280.48 363.17 285.48 355.17"/>
  <path d="M249.48,384.17c-75.54,0-137-61.46-137-137s61.46-137,137-137,137,61.45,137,137S325,384.17,249.48,384.17Zm0-266a129,129,0,1,0,129,129A129.14,129.14,0,0,0,249.48,118.17Z"/>
  <path d="M249.48,364.59A117.43,117.43,0,1,1,366.91,247.17,117.56,117.56,0,0,1,249.48,364.59Zm0-228A110.58,110.58,0,1,0,360.05,247.17,110.7,110.7,0,0,0,249.48,136.59Z"/>
  <rect x="244.98" y="29.17" width="8" height="217.5"/>
  <rect x="168.03" y="58.97" width="8" height="219" transform="translate(-68.74 170.99) rotate(-45)"/>
  <rect x="26.48" y="241.42" width="223.75" height="8"/>
  <rect x="-19.85" y="353.49" width="315.52" height="8" transform="translate(-212.4 202.25) rotate(-45)"/>
  <rect x="215.57" y="167.22" width="211.22" height="8" transform="translate(-27.01 277.22) rotate(-45)"/>
  <rect x="245.73" y="241.42" width="212.75" height="8"/>
  <rect x="349.23" y="201.7" width="8.13" height="302.08" transform="translate(-145.94 353.13) rotate(-45)"/>
  <rect x="331.99" y="230.09" width="8" height="519.94" transform="translate(-143.01 138.48) rotate(-19.29)"/>
  <rect x="-95.98" y="486.06" width="519.94" height="8" transform="translate(-352.73 482.96) rotate(-70.71)"/>
  <rect x="286.98" y="354.17" width="8" height="382"/>
  <rect x="287.48" y="37.17" width="8" height="84"/>
  <rect x="329.48" y="351.17" width="8" height="385"/>
  <rect x="329.48" y="52.17" width="8" height="92"/>
  <rect x="371.98" y="289.17" width="8" height="447"/>
  <rect x="372.48" y="75.17" width="8" height="130"/>
  <rect x="414.48" y="118.17" width="8" height="618"/>
  <rect x="66.98" y="118.17" width="8" height="618"/>
  <rect x="111.48" y="73.17" width="8" height="663"/>
  <rect x="155.48" y="45.17" width="8" height="103"/>
  <rect x="155.48" y="346.17" width="8" height="103"/>
  <rect x="202.48" y="31.17" width="8" height="88"/>
  <rect class="cls-1" x="459.48" y="638.17" width="23" height="117"/>
  <rect class="cls-2" x="459.48" y="532.17" width="23" height="107"/>
  <rect class="cls-2" x="459.48" y="309.17" width="23" height="107"/>
  <rect class="cls-1" x="459.48" y="420.17" width="23" height="107"/>
  <rect class="cls-2" x="3.48" y="532.17" width="23" height="107"/>
  <rect class="cls-2" x="355.48" y="734.17" width="104" height="22"/>
  <rect class="cls-1" x="248.48" y="734.17" width="104" height="22"/>
  <rect class="cls-1" x="138.48" y="734.17" width="104" height="22"/>
  <rect class="cls-1" x="-39.52" y="687.17" width="114" height="22" transform="translate(715.64 680.69) rotate(90)"/>
  <rect class="cls-1" x="-39.52" y="463.17" width="114" height="22" transform="translate(491.64 456.69) rotate(90)"/>
  <rect class="cls-2" x="-38.52" y="353.17" width="114" height="22" transform="translate(382.64 345.69) rotate(90)"/>
  <rect class="cls-2" x="26.48" y="734.17" width="109" height="22"/>
  <polygon class="cls-1" points="459.48 309.17 482.48 309.17 479.48 213.17 472.48 196.17 456.48 201.17 460.48 257.17 459.48 309.17"/>
  <path class="cls-1" d="M9.48,196.17l21,8S28,284.33,25.22,309.25l-23.74-.08Z"/>
  <polygon class="cls-2" points="61.48 87.17 79.09 106.22 50.48 147.17 30.48 204.17 9.48 196.17 21.48 156.17 42.48 117.17 61.48 87.17"/>
  <polygon class="cls-1" points="61.48 87.17 99.48 56.17 156.48 24.17 166.2 43.84 116.19 72.88 83.39 101.92 73.71 99.77 61.48 87.17"/>
  <polygon class="cls-2" points="156.48 24.17 208.48 9.17 273.48 11.17 326.48 23.17 319.19 45.41 256.32 30.99 203.25 35.03 169.48 44.17 156.48 24.17"/>
  <path class="cls-1" d="M317.48,42.17l9-19,67,39,30,29-16.26,14.74S371.48,58.17,317.48,42.17Z"/>
  <path class="cls-2" d="M423.48,91.17l-16,15,18.11,25.65s30.89,44.35,30.89,69.35l16-5-11-49Z"/>
  <path d="M485,759.67H1v-514a242,242,0,0,1,242-242h0a242,242,0,0,1,242,242Zm-476-8H477v-506A234,234,0,0,0,77.52,80.2,232.47,232.47,0,0,0,9,245.67Z"/>
  <path d="M463.48,739.17h-441V247.67A220.49,220.49,0,0,1,243,27.17h0a220.49,220.49,0,0,1,220.5,220.5Zm-433-8h425V247.67c0-117.18-95.33-212.5-212.5-212.5s-212.5,95.32-212.5,212.5Z"/>
  <rect x="2.48" y="635.17" width="21" height="8"/>
  <rect x="2.48" y="525.17" width="21" height="8"/>
  <rect x="2.48" y="415.17" width="21" height="8"/>
  <rect x="2.48" y="305.17" width="21" height="8"/>
  <rect x="14.98" y="188.67" width="8" height="21" transform="translate(-179.27 172.28) rotate(-76.83)"/>
  <rect x="67.98" y="86.67" width="8" height="21" transform="translate(-47.62 79.35) rotate(-45)"/>
  <rect x="157.98" y="22.67" width="8" height="21" transform="translate(2.19 75.63) rotate(-26.46)"/>
  <rect x="461.23" y="635.17" width="21" height="8"/>
  <rect x="461.23" y="525.17" width="21" height="8"/>
  <rect x="461.23" y="415.17" width="21" height="8"/>
  <rect x="461.23" y="305.17" width="21" height="8"/>
  <rect x="455.23" y="195.17" width="21" height="8" transform="translate(-33.12 111.32) rotate(-13.17)"/>
  <rect x="402.23" y="93.17" width="21" height="8" transform="translate(52.16 320.27) rotate(-45)"/>
  <rect x="312.23" y="29.17" width="21" height="8" transform="translate(158.5 312.96) rotate(-65.46)"/>
  <rect x="22.48" y="738.17" width="8" height="15"/>
  <rect x="132.48" y="738.17" width="8" height="15"/>
  <rect x="242.48" y="738.17" width="8" height="15"/>
  <rect x="352.48" y="738.17" width="8" height="15"/>
  <rect x="455.48" y="738.17" width="8" height="15"/>
  <path class="cls-3" d="M420.34,732.79s-27-265-67-347l-49-25-16-17-23,13-12,31-9,1-12-33-24-10-16,19s-41,11-47,22-65,224-68,343Z"/>
  <path class="cls-4" d="M226.34,638.79l24,19,19-17,16,23s-15,44-31,46l8-52-15,5-11-6,9,53s-29-17-31-48Z"/>
  <path class="cls-4" d="M214.69,347.12l5.65-25.33s-26-28-24-58,34-57,53-56,54,35,54,55-25,58-25,58l6.44,26.33-19.44,9.67-13,28-10.18-2.45-9.82-26.55Z"/>
  <path class="cls-3" d="M180.34,365.79l19.2-9.16,15.8-15.84,2.52-22.2s-29.52-44.8-22.52-58.8,28-54,54-52,55.34,38.65,55.17,52.32-16.17,54.68-22.17,59.68,2,27,2,27-4.43-9.64,6.78.68,23.22,22.32,28.22,18.32,25-35,2-99-29-71-29-71-32-24-43-24-39,12-47,32-15,43-15,43l-24,71Z"/>
  <path d="M258.64,392.89l-9.35-.1c-47.7-.53-58.76-28.91-59.21-30.11l-.89-2.41L208.51,341l29.83,14.31v2.52c0,13.21,13.78,28.12,13.92,28.26Zm-60-30.79c3.13,5.52,13.76,19.51,42,22.23-4.22-5.95-9.35-14.87-10.2-24l-20.3-9.74Z"/>
  <path d="M189.24,737.79H72.16l.18-4.17c2.21-51.35,13.83-131,31.08-213,2.71-12.87,26.81-126.08,39.8-137.33,15.38-13.33,47.87-25.23,49.25-25.73l2.73,7.52c-.32.11-32.48,11.9-46.74,24.26-5.57,4.82-21,55.86-37.21,132.93-16.7,79.44-28.1,156.52-30.72,207.55h100.9l2.41-95.6,8,.2Z"/>
  <polygon points="129.38 662.14 122.29 658.44 182.8 542.38 178.84 441.44 186.83 441.13 190.87 544.19 129.38 662.14"/>
  <polygon points="213.14 669.86 155 600.78 161.13 595.63 212.53 656.72 224.23 639.9 181.39 548.96 188.63 545.55 233.44 640.67 213.14 669.86"/>
  <path d="M246.65,718.63c-1.12-.72-27.37-18.22-37.66-54.24l7.69-2.2A96.08,96.08,0,0,0,242,704.33c-1.39-3.87-3.17-9.72-5.52-18.65-2.78-10.51-5.15-20.83-5.49-22.32-.72-2.23-1.54-6.16.39-8.83a5.4,5.4,0,0,1,4.47-2.24,5.66,5.66,0,0,1,2.37.51,124.57,124.57,0,0,0-11.67-9.24l4.59-6.55c8.11,5.67,21.7,16.24,21.7,23.28v6L246,669.12c-2.33-2.33-4.88-4.63-6.95-6.31,4.37,19,10.29,40.73,12.51,43.59a2,2,0,0,0-.33-.31l1.59,3.2v6Zm-11.36-58.41Z"/>
  <path d="M249.33,331.79c-17.52,0-32.37-7.43-42.94-21.47-11.49-15.28-17.57-37.64-18-66.46-.41-23.72,6.51-43,20.54-57.26,14.2-14.43,32.35-19.81,40.45-19.81v8c-5.51,0-21.93,4.38-34.74,17.42-12.48,12.69-18.62,30-18.26,51.51.87,50.88,20.19,80.07,53,80.07Z"/>
  <rect x="203.55" y="329.34" width="27.28" height="8" transform="translate(-149.61 487.41) rotate(-79.7)"/>
  <path d="M240,392.89l6.41-6.84c.23-.25,13.91-15.09,13.91-28.26v-2.52L290.16,341l19.32,19.31-.89,2.41c-.45,1.2-11.51,29.58-59.21,30.11Zm28.2-32.53c-.85,9.1-6,18-10.2,24,28.2-2.72,38.84-16.69,42-22.23l-11.48-11.48Z"/>
  <path d="M427.51,738.79h-117l-3.63-104.36,8-.28,3.37,96.64H419.14c-2.63-50.93-14.21-128.2-31.22-208-16.47-77.35-32.11-128.59-37.71-133.44-14.27-12.37-46.42-24.15-46.74-24.26l2.73-7.52c1.38.5,33.87,12.4,49.26,25.73,13,11.3,37.54,124.9,40.29,137.82,17.57,82.47,29.37,162.3,31.58,213.54Z"/>
  <polygon points="369.29 662.14 307.8 544.19 311.84 441.13 319.83 441.44 315.87 542.38 376.38 658.44 369.29 662.14"/>
  <polygon points="285.53 669.86 265.23 640.67 310.05 545.55 317.28 548.96 274.44 639.9 286.14 656.72 337.55 595.63 343.67 600.78 285.53 669.86"/>
  <path d="M252,718.63l-6.19-3.34v-6l1.6-3.2a2,2,0,0,0-.33.31c2.22-2.86,8.14-24.55,12.51-43.59-2.07,1.68-4.62,4-7,6.31l-6.83-2.83v-6c0-7,13.6-17.61,21.71-23.28l4.59,6.55a127.58,127.58,0,0,0-11.67,9.23,5.75,5.75,0,0,1,2.37-.5,5.4,5.4,0,0,1,4.47,2.24c1.93,2.67,1.11,6.6.39,8.83-.34,1.49-2.71,11.81-5.49,22.32-2.34,8.9-4.12,14.73-5.5,18.61A96.44,96.44,0,0,0,282,662.19l7.69,2.2C279.39,700.41,253.14,717.91,252,718.63Zm11.36-58.41Z"/>
  <path d="M249.33,331.79v-8c32.83,0,52.14-29.19,53-80.07.36-21.49-5.78-38.82-18.26-51.51-12.81-13-29.23-17.42-34.75-17.42v-8c8.11,0,26.26,5.38,40.46,19.81,14,14.28,20.95,33.54,20.54,57.26-.48,28.82-6.56,51.18-18.05,66.46C281.71,324.36,266.86,331.79,249.33,331.79Z"/>
  <rect x="277.48" y="319.7" width="8" height="27.28" transform="translate(-55.09 55.73) rotate(-10.31)"/>
  <path d="M177.76,368.41c-.89-1-21.66-23.76-15.36-57.36,6-32.1,25.35-75,26.16-76.83l7.29,3.3c-.19.43-19.74,43.86-25.58,75-5.54,29.53,13.16,50.24,13.35,50.45Z"/>
  <path d="M191.38,274.37c-2.17-14.66,4.42-33,17.2-47.8,11.94-13.84,26.8-21.78,40.75-21.78v8c-11.62,0-24.27,6.93-34.69,19-11.14,12.91-17.16,29.16-15.35,41.4Z"/>
  <path d="M320.81,368.41,314.94,363c.19-.21,18.89-20.92,13.36-50.45-5.84-31.14-25.39-74.57-25.59-75l7.29-3.3c.82,1.81,20.14,44.73,26.16,76.83C342.46,344.65,321.69,367.45,320.81,368.41Z"/>
  <path d="M307.19,274.37l-7.92-1.17c1.82-12.24-4.21-28.49-15.34-41.4-10.43-12.08-23.07-19-34.7-19v-8c14,0,28.81,7.94,40.76,21.78C302.77,241.39,309.36,259.71,307.19,274.37Z"/>
  <path d="M237.5,297.25c-4.09,0-6.73-1.08-8.36-3.24-3.73-4.92.31-11.64,5-19.42,2.75-4.58,7.88-13.11,6.11-15.27-5.82-7.11-21-3-26.39-.83l-3-7.4c1-.42,24.86-10,35.61,3.16,5.33,6.52-.39,16.05-5.45,24.46-1.9,3.16-5,8.29-5.27,10.41,1.1.26,4.63.52,14.57-2.19l2.11,7.72C246,296.38,241.18,297.25,237.5,297.25Z"/>
  <path d="M232.6,315.58,230.07,308l15.05-5,1.54,2.6a3.55,3.55,0,0,0,2.67,1.22v8a11.27,11.27,0,0,1-7.06-2.43Z"/>
  <path d="M266.07,315.58l-9.66-3.22a11.33,11.33,0,0,1-7.08,2.43v-8a3.5,3.5,0,0,0,2.73-1.3l1.65-2.77L256.6,304l12,4Z"/>
  <path d="M280.38,259.48c-7.83-8.61-25.23-1.12-25.4-1l-3.29-7.3c.93-.42,22.79-10,34.6,3Z"/>
  <g>
    <circle class="cls-5" cx="228.87" cy="260.71" r="8"/>
    <path d="M228.87,272.71a12,12,0,1,1,12-12A12,12,0,0,1,228.87,272.71Zm0-16a4,4,0,1,0,4,4A4,4,0,0,0,228.87,256.71Z"/>
  </g>
  <circle cx="229.37" cy="258.71" r="4"/>
</svg>
