<svg width="74" height="72" viewBox="0 0 74 72" fill="none" xmlns="http://www.w3.org/2000/svg">
<path d="M0 6.99999C0 3.134 3.13401 0 7 0H66.3807C70.2467 0 73.3807 3.13401 73.3807 7V64.852C73.3807 68.718 70.2467 71.852 66.3807 71.852H7.00001C3.13402 71.852 0 68.7179 0 64.852V6.99999Z" fill="#FFFDEE"/>
<path fill-rule="evenodd" clip-rule="evenodd" d="M66.3807 3H7C4.79086 3 3 4.79086 3 6.99999V64.852C3 67.0611 4.79087 68.852 7.00001 68.852H66.3807C68.5899 68.852 70.3807 67.0611 70.3807 64.852V7C70.3807 4.79087 68.5899 3 66.3807 3ZM7 0C3.13401 0 0 3.134 0 6.99999V64.852C0 68.7179 3.13402 71.852 7.00001 71.852H66.3807C70.2467 71.852 73.3807 68.718 73.3807 64.852V7C73.3807 3.13401 70.2467 0 66.3807 0H7Z" fill="#2C2A39"/>
<path d="M60.7392 66.6795C60.5472 66.6795 60.4512 66.6035 60.4512 66.4515V66.4035C60.4512 66.3155 60.5072 66.2155 60.6192 66.1035C60.7392 65.9915 60.8552 65.8635 60.9672 65.7195C61.0872 65.5755 61.1472 65.4195 61.1472 65.2515V60.4755C61.1472 60.2995 61.1032 60.1635 61.0152 60.0675C60.9272 59.9635 60.8272 59.8955 60.7152 59.8635C60.6112 59.8315 60.5152 59.7875 60.4272 59.7315C60.3392 59.6675 60.2952 59.5875 60.2952 59.4915V59.4315C60.2952 59.2875 60.4152 59.1595 60.6552 59.0475L62.5512 58.2315C62.8552 58.1195 63.0952 58.1075 63.2712 58.1955C63.4552 58.2755 63.5472 58.4035 63.5472 58.5795C63.5472 58.6835 63.5032 58.8315 63.4152 59.0235C63.3272 59.2155 63.2832 59.4395 63.2832 59.6955V65.2515C63.2832 65.4195 63.3432 65.5755 63.4632 65.7195C63.5912 65.8635 63.7152 65.9915 63.8352 66.1035C63.9552 66.2155 64.0152 66.3155 64.0152 66.4035V66.4515C64.0152 66.6035 63.9192 66.6795 63.7272 66.6795H60.7392Z" fill="#2C2A39"/>
<path d="M36.5701 56.64C30.3407 56.64 25.0074 54.464 20.5701 50.112C16.1327 45.76 13.9141 40.2347 13.9141 33.536C13.9141 26.496 15.9834 20.8 20.1221 16.448C24.3034 12.096 29.7647 9.92 36.5061 9.92C42.7354 9.92 48.0474 12.1813 52.4421 16.704C56.8794 21.184 59.0981 26.816 59.0981 33.6C59.0981 40.4267 56.9221 45.9733 52.5701 50.24C48.2607 54.5067 42.9274 56.64 36.5701 56.64ZM39.8981 51.84C42.2021 51.84 43.9941 51.0293 45.2741 49.408C46.5541 47.7867 47.1941 45.5467 47.1941 42.688C47.1941 39.0187 46.5114 35.0293 45.1461 30.72C43.7807 26.368 41.9034 22.6133 39.5141 19.456C37.1674 16.2987 34.7781 14.72 32.3461 14.72C30.0847 14.72 28.3141 15.5307 27.0341 17.152C25.7967 18.7733 25.1781 21.0773 25.1781 24.064C25.1781 28.1173 25.8607 32.2987 27.2261 36.608C28.5914 40.8747 30.4261 44.48 32.7301 47.424C35.0767 50.368 37.4661 51.84 39.8981 51.84Z" fill="#2C2A39"/>
</svg>
