<svg id="Layer_1" data-name="Layer 1" xmlns="http://www.w3.org/2000/svg" viewBox="0 0 485 760">
  <defs>
    <style>
      .cls-1 {
        fill: #787fff;
      }

      .cls-2 {
        fill: #5061ff;
      }

      .cls-3 {
        fill: #2b293a;
      }

      .cls-4 {
        fill: #7f3300;
      }

      .cls-5 {
        fill: #ffbd7b;
      }

      .cls-6 {
        fill: #fff;
      }
    </style>
  </defs>
  <title>Ogen</title>
  <polyline class="cls-1" points="341.19 343.55 457.03 455.61 459.1 734.05 420.28 734.05 297.75 372.16 341.19 343.55"/>
  <path class="cls-1" d="M384.18,247.1h73s1-98-62-148l-53,51S385.18,201.1,384.18,247.1Z"/>
  <path class="cls-1" d="M247.18,113.1s-53,4-91,39l-61-61s28-30,74-46,79-12,79-12Z"/>
  <path class="cls-1" d="M27.18,248.1l86-1s2,55,40,93l-125,127Z"/>
  <polygon class="cls-1" points="78.18 735.1 169.18 737.1 192.18 515.1 152.18 519.1 78.18 735.1"/>
  <path class="cls-1" d="M247.18,113.1s76,8,95,37l-14,15s-38-33-78-30Z"/>
  <path class="cls-1" d="M364.18,246.1l17-1s7,47-37,96l-14-8S361.18,289.1,364.18,246.1Z"/>
  <polygon class="cls-1" points="169.18 328.1 195.18 348.1 188.18 364.1 153.18 340.1 169.18 328.1"/>
  <path class="cls-1" d="M156.18,152.1l14,14s-33,28-34,80h-19S123.18,174.1,156.18,152.1Z"/>
  <path class="cls-2" d="M384.88,244.15H457V459.53L344.18,341.1S385.58,302.2,384.88,244.15Z"/>
  <path class="cls-2" d="M284,247.72c.81-.58,78.14-.62,78.14-.62S361,308.72,329,327.72C329,327.72,256,267.72,284,247.72Z"/>
  <path class="cls-2" d="M250.18,135.1l-2,43,35,28,45-41S288.18,130.1,250.18,135.1Z"/>
  <path class="cls-2" d="M167.94,167.37l31.69,29.07L197,249.72l-60.86-3.62S130,205.81,167.94,167.37Z"/>
  <path class="cls-2" d="M156.18,152.1l14,14s35-36,80-31l-3-22S175.18,121.1,156.18,152.1Z"/>
  <path class="cls-2" d="M136.18,246.1s-7,44,33,82l-15.7,14.77s-38.3-34.77-36.3-96.77Z"/>
  <path class="cls-2" d="M152.18,153.1s-36,40-38,91h-86s2-56,14-77,45-77,53-76Z"/>
  <path class="cls-2" d="M251.23,114.19s55,5.91,91,35.91l53-55s-60-60-143-63Z"/>
  <path class="cls-2" d="M331.18,168.1s33,41,31,79l19-2s-2.59-64.36-40.79-91.68Z"/>
  <path class="cls-1" d="M247.38,315.56,281,288.72s37.86,18,46,41l-34,27Z"/>
  <path class="cls-1" d="M194.68,191.12l-24.5-25s20.09-23.91,54-27.45,21.91-4.59,21.91-4.59l2,44s-15-15-17-14S194.68,191.12,194.68,191.12Z"/>
  <path class="cls-1" d="M198,246.72l-62.46,2.48s3.6,54.9,33.6,78.9L206,291.72Z"/>
  <path class="cls-1" d="M299.43,250.1l62.46-2.47s-3.6-54.91-33.6-78.91L291.43,205.1Z"/>
  <polygon class="cls-2" points="209.04 290.73 169.18 328.1 184.54 340.84 209.04 332.73 209.04 290.73"/>
  <polygon class="cls-2" points="153.18 343.1 28.18 467.1 27.18 735.1 78.18 735.1 152.18 519.1 123.18 490.1 117.18 463.1 133.18 424.1 173.18 383.1 173.18 358.1 153.18 343.1"/>
  <polygon class="cls-2" points="326.06 467.29 420.18 734.1 330.18 737.1 312.04 505.73 326.06 467.29"/>
  <polygon class="cls-2" points="291.18 356.1 320.18 338.1 330.04 328.73 337.98 346.87 298.18 372.1 291.18 356.1"/>
  <polygon class="cls-1" points="290.18 353.1 313.18 341.1 299.18 336.1 290.18 353.1"/>
  <polygon class="cls-1" points="285.18 356.1 291.18 362.1 288.18 368.1 280.18 364.1 285.18 356.1"/>
  <path d="M249.18,385.1c-75.54,0-137-61.46-137-137s61.46-137,137-137,137,61.46,137,137S324.73,385.1,249.18,385.1Zm0-266a129,129,0,1,0,129,129A129.15,129.15,0,0,0,249.18,119.1Z"/>
  <path d="M249.18,365.53A117.43,117.43,0,1,1,366.61,248.1,117.56,117.56,0,0,1,249.18,365.53Zm0-228A110.57,110.57,0,1,0,359.75,248.1,110.69,110.69,0,0,0,249.18,137.53Z"/>
  <rect x="244.68" y="30.1" width="8" height="217.5"/>
  <rect x="167.74" y="59.91" width="8" height="219" transform="translate(-69.49 171.05) rotate(-45)"/>
  <rect x="26.18" y="242.35" width="223.75" height="8"/>
  <rect x="-20.15" y="354.42" width="315.52" height="8" transform="translate(-213.15 202.32) rotate(-45)"/>
  <rect x="215.27" y="168.16" width="211.22" height="8" transform="translate(-27.76 277.29) rotate(-45)"/>
  <rect x="245.43" y="242.35" width="212.75" height="8"/>
  <rect x="348.94" y="202.63" width="8.13" height="302.08" transform="translate(-146.69 353.2) rotate(-45)"/>
  <rect x="331.69" y="231.03" width="8" height="519.94" transform="translate(-143.33 138.43) rotate(-19.29)"/>
  <rect x="-96.28" y="486.99" width="519.94" height="8" transform="translate(-353.81 483.31) rotate(-70.71)"/>
  <rect x="286.68" y="355.1" width="8" height="382"/>
  <rect x="287.18" y="38.1" width="8" height="84"/>
  <rect x="329.18" y="352.1" width="8" height="385"/>
  <rect x="329.18" y="53.1" width="8" height="92"/>
  <rect x="371.68" y="290.1" width="8" height="447"/>
  <rect x="372.18" y="76.1" width="8" height="130"/>
  <rect x="414.18" y="119.1" width="8" height="618"/>
  <rect x="66.68" y="119.1" width="8" height="618"/>
  <rect x="111.18" y="74.1" width="8" height="663"/>
  <rect x="155.18" y="46.1" width="8" height="103"/>
  <rect x="155.18" y="347.1" width="8" height="103"/>
  <rect x="202.18" y="32.1" width="8" height="88"/>
  <rect class="cls-1" x="459.18" y="639.1" width="23" height="117"/>
  <rect class="cls-2" x="459.18" y="533.1" width="23" height="107"/>
  <rect class="cls-2" x="459.18" y="310.1" width="23" height="107"/>
  <rect class="cls-1" x="459.18" y="421.1" width="23" height="107"/>
  <rect class="cls-2" x="3.18" y="533.1" width="23" height="107"/>
  <rect class="cls-2" x="355.18" y="735.1" width="104" height="22"/>
  <rect class="cls-1" x="248.18" y="735.1" width="104" height="22"/>
  <rect class="cls-1" x="138.18" y="735.1" width="104" height="22"/>
  <rect class="cls-1" x="-39.82" y="688.1" width="114" height="22" transform="translate(716.29 681.92) rotate(90)"/>
  <rect class="cls-1" x="-39.82" y="464.1" width="114" height="22" transform="translate(492.29 457.92) rotate(90)"/>
  <rect class="cls-2" x="-38.82" y="354.1" width="114" height="22" transform="translate(383.29 346.92) rotate(90)"/>
  <rect class="cls-2" x="26.18" y="735.1" width="109" height="22"/>
  <polygon class="cls-1" points="459.18 310.1 482.18 310.1 479.18 214.1 472.18 197.1 456.18 202.1 460.18 258.1 459.18 310.1"/>
  <path class="cls-1" d="M9.18,197.1l21,8s-2.52,80.16-5.26,105.08L1.18,310.1Z"/>
  <polygon class="cls-2" points="61.18 88.1 78.8 107.16 50.18 148.1 30.18 205.1 9.18 197.1 21.18 157.1 42.18 118.1 61.18 88.1"/>
  <polygon class="cls-1" points="61.18 88.1 99.18 57.1 156.18 25.1 165.91 44.78 115.9 73.82 83.1 102.86 73.42 100.7 61.18 88.1"/>
  <polygon class="cls-2" points="156.18 25.1 208.18 10.1 273.18 12.1 326.18 24.1 318.89 46.35 256.02 31.93 202.96 35.97 169.18 45.1 156.18 25.1"/>
  <path class="cls-1" d="M317.18,43.1l9-19,67,39,30,29-16.25,14.75S371.18,59.1,317.18,43.1Z"/>
  <path class="cls-2" d="M423.18,92.1l-16,15,18.12,25.66s30.88,44.34,30.88,69.34l16-5-11-49Z"/>
  <path d="M484.68,760.6H.68v-514a242,242,0,0,1,242-242h0a242,242,0,0,1,242,242Zm-476-8h468v-506A234,234,0,0,0,77.22,81.14,232.46,232.46,0,0,0,8.68,246.6Z"/>
  <path d="M463.18,740.1h-441V248.6A220.52,220.52,0,0,1,242.68,28.1h0a220.51,220.51,0,0,1,220.5,220.5Zm-433-8h425V248.6c0-117.17-95.32-212.5-212.5-212.5S30.18,131.43,30.18,248.6Z"/>
  <rect x="2.18" y="636.1" width="21" height="8"/>
  <rect x="2.18" y="526.1" width="21" height="8"/>
  <rect x="2.18" y="416.1" width="21" height="8"/>
  <rect x="2.18" y="306.1" width="21" height="8"/>
  <rect x="14.68" y="189.6" width="8" height="21" transform="translate(-180.42 172.72) rotate(-76.83)"/>
  <rect x="67.68" y="87.6" width="8" height="21" transform="translate(-48.37 79.42) rotate(-45)"/>
  <rect x="157.68" y="23.6" width="8" height="21" transform="translate(1.74 75.6) rotate(-26.46)"/>
  <rect x="460.93" y="636.1" width="21" height="8"/>
  <rect x="460.93" y="526.1" width="21" height="8"/>
  <rect x="460.93" y="416.1" width="21" height="8"/>
  <rect x="460.93" y="306.1" width="21" height="8"/>
  <rect x="454.93" y="196.1" width="21" height="8" transform="translate(-33.34 111.27) rotate(-13.17)"/>
  <rect x="401.93" y="94.1" width="21" height="8" transform="translate(51.43 320.37) rotate(-45)"/>
  <rect x="311.93" y="30.1" width="21" height="8" transform="translate(157.48 313.24) rotate(-65.46)"/>
  <rect x="22.18" y="739.1" width="8" height="15"/>
  <rect x="132.18" y="739.1" width="8" height="15"/>
  <rect x="242.18" y="739.1" width="8" height="15"/>
  <rect x="352.18" y="739.1" width="8" height="15"/>
  <rect x="455.18" y="739.1" width="8" height="15"/>
  <path class="cls-3" d="M373,400.72l-28-35-47-31L261.22,367l-8.66,15.59-9.81-5.77L197,333.72l-12,11c-23,9-63,58-63,58l-3,146,47,59-2,27,13,18-16,80H332l-13-82,13-20v-20l79-84Zm-28,144,2-67,14,45Z"/>
  <polygon class="cls-4" points="199.04 180.72 188.04 220.72 197.04 240.72 216.04 235.72 219.04 207.72 254.04 224.72 278.04 227.72 278.04 247.72 294.04 257.73 297.04 201.72 275.04 169.72 235.04 165.72 199.04 180.72"/>
  <polygon class="cls-5" points="219.32 211.88 222.04 227.72 212.92 238.03 197.04 240.72 188.04 254.72 191.04 269.73 202.04 282.73 213.04 318.73 237.04 344.73 266.04 342.73 292.04 304.73 297.04 275.73 307.04 265.73 307.04 253.72 296.13 244.71 296.04 259.73 281.66 249.16 275.54 228.57 219.32 211.88"/>
  <polygon class="cls-5" points="250.04 393.73 256.04 370.73 292.04 336.73 282.04 324.73 257.14 342.68 236.04 341.73 211.04 319.73 204.04 339.73 242.04 372.73 250.04 393.73"/>
  <polygon class="cls-5" points="210.04 656.73 228.04 640.73 256.04 660.73 253.04 636.73 284.04 609.73 304.04 606.73 312.04 624.73 295.04 662.73 284.04 671.73 261.04 654.73 257.04 667.73 265.04 703.73 228.04 688.73 210.04 656.73"/>
  <path d="M248,348.72c-18.17,0-33-12.92-42.83-37.38C197.47,292.15,193,266.05,193,239.72h8c0,25.34,4.22,50.36,11.59,68.63,6,14.77,16.92,32.37,35.41,32.37Z"/>
  <polygon points="246.04 636.73 238.04 636.73 238.04 411.82 192.49 334.89 195.46 328.94 202.62 332.51 201.59 334.56 246.04 409.63 246.04 636.73"/>
  <polygon points="213.92 447.58 181.46 343.48 194.35 331.76 199.73 337.69 190.62 345.97 216.16 427.87 228.02 407.53 245.19 422.51 239.93 428.54 230.06 419.92 213.92 447.58"/>
  <path d="M208.55,663.41,115,550.07,116,529.6l1-117.91c0-1.53,1.82-35.81,67.12-70.5l3.76,7.07C128.16,380,125.13,410.66,125,411.85l-1,118.08-.91,17.45L209.53,652l15.4-13.21L164,531.62l7-78.88L160.68,436.9l6.72-4.35,11.75,18.16-7,79.12,63,110.78Z"/>
  <polygon points="205.13 659.73 178 659.73 159.93 634.87 162.29 607.91 170.25 608.61 168.16 632.58 182.08 651.73 205.13 651.73 205.13 659.73"/>
  <rect x="126.21" y="688.28" width="84.15" height="8" transform="translate(-542.63 738.9) rotate(-80.09)"/>
  <path d="M199.57,284.57c-.64-.39-15.53-9.79-15.53-24.85,0-8.51,3.71-12.7,6.82-14.72a14.17,14.17,0,0,1,7.18-2.28v4l.06,4c-1.42.05-6.06.85-6.06,9,0,10.57,11.63,18,11.75,18Z"/>
  <path d="M248,348.72v-8c15,0,26.59-9.23,34.45-27.45,6.8-15.78,10.55-38.35,10.55-63.55h8c0,18.59-1.94,45.24-11.2,66.71C280.73,337.56,266.27,348.72,248,348.72Z"/>
  <polygon points="248.04 406.92 237.57 374.01 199.28 340.9 209.31 315.27 216.76 318.18 208.79 338.55 244.51 369.44 248.04 380.53 251.57 369.44 287.98 337.82 278.54 320.65 285.55 316.8 298.1 339.63 258.51 374.01 248.04 406.92"/>
  <polygon points="258.04 627.73 250.04 627.73 250.04 409.63 294.49 334.56 293.46 332.51 300.62 328.94 303.59 334.89 258.04 411.82 258.04 627.73"/>
  <polygon points="282.16 447.58 266.02 419.92 256.15 428.54 250.89 422.51 268.06 407.53 279.92 427.87 305.46 345.97 296.35 337.69 301.73 331.76 314.62 343.48 282.16 447.58"/>
  <path d="M314.24,634.22l-17-28.72L357.64,522l-17.43-58.11,7.66-2.29,18.57,61.89L306.82,606l9,15.27,90-90.94-2.72-22.67-32.06-95.17,0-.59c0-.28-2.23-31.37-62.88-63.59l3.76-7.07C373,373.65,378.5,405.75,379,410.93l32,94.91,3.28,27.33Z"/>
  <polygon points="318.08 659.73 296.04 659.73 296.04 651.73 314 651.73 328.04 632.42 328.04 612.73 336.04 612.73 336.04 635.02 318.08 659.73"/>
  <rect x="323.8" y="650.21" width="8" height="85.14" transform="translate(-113.08 65.86) rotate(-9.79)"/>
  <path d="M296.51,284.57l-4.21-6.8c.11-.07,11.74-7.48,11.74-18,0-8.15-4.64-9-6.06-9l.06-8c3.89,0,14,3.06,14,17C312,274.78,297.15,284.18,296.51,284.57Z"/>
  <path d="M292.34,231.79c-68.93,0-92.22-39-96.26-47-.5-1-.73-1.56-.73-1.56l-1.09-2.65,2.16-1.9c1-.87,24.81-21.12,65.13-16,17.66,2.26,30.1,14.45,36,35.25A101.93,101.93,0,0,1,301,227.94l-.19,3.69-3.7.09C295.52,231.77,293.91,231.79,292.34,231.79ZM204.13,182.9c5.6,9.87,28,40.89,88.2,40.89h.74c-.2-12-3.23-49.33-32.54-53.09a85.71,85.71,0,0,0-43.26,5.22A69.46,69.46,0,0,0,204.13,182.9Z"/>
  <path d="M298.73,262.5l-4.44-.85c-19.51-3.71-22.41-23.47-21.22-33.4l7.94.95-4-.48,4,.47c-.09.79-1.86,17.6,10.38,23.22l1.66-24.95,8,.53Z"/>
  <path d="M202,242.72c-5.08,0-9.15-2-11.77-5.87-4.39-6.43-4.6-17.54-.66-34a180.61,180.61,0,0,1,6.71-21.61l7.44,2.93c-5.61,14.29-12.44,40-6.88,48.15.75,1.11,2,2.38,5.16,2.38,7.13,0,11.74-1.74,13.7-5.18,4.07-7.15-2.33-21-5.14-25.77l6.88-4.09a67.32,67.32,0,0,1,5.24,11.62c3.11,9.22,3.11,16.68,0,22.18C219.21,239.62,212.26,242.72,202,242.72Z"/>
  <path d="M289.59,217.88c-51,0-79.63-39.41-80.86-41.15l6.52-4.63c.29.4,29.48,40.45,79.56,37.63l.46,8C293.34,217.83,291.45,217.88,289.59,217.88Z"/>
  <path d="M292,202c-50.48-2.77-65.93-30.71-66.57-31.89l7.05-3.79c.57,1,14.28,25.18,60,27.69Z"/>
  <path d="M287.75,187.71c-29.75-2.12-39.67-18.45-40.07-19.15l6.88-4.07c.33.54,8.48,13.44,33.77,15.24Z"/>
  <path d="M200.8,229.64a23.34,23.34,0,0,1-9.55-2.34l3.57-7.16c2,1,6.83,2.44,8.88.61,1.27-1.13,4.75-6.59-3.43-29.69l7.54-2.67c7.15,20.19,7.54,32.74,1.18,38.36A12.05,12.05,0,0,1,200.8,229.64Z"/>
  <path d="M194.44,219.47l-2.8-7.49a1.09,1.09,0,0,0-.2.08s4.49-2.52.76-15.21l7.68-2.25c2.36,8,2.41,14.49.14,19.23A10.84,10.84,0,0,1,194.44,219.47Z"/>
  <path d="M292.75,249c-12.06-8.44-9.72-19.67-9.61-20.14l7.8,1.73-3.9-.87,3.92.81c0,.27-1.16,6.64,6.37,11.92Z"/>
  <path d="M246,302a32.41,32.41,0,0,1-3.74-.22c-7.61-.9-13.07-4.43-15-9.69-2.55-7,1.24-14.76,4.91-22.23,2.91-5.93,5.92-12.05,4.27-15.35-2.39-4.79-18.81-4.73-29.74-2.84l-1.36-7.89c5.33-.92,32.23-4.89,38.26,7.16,3.42,6.83-.48,14.77-4.25,22.44-2.93,6-6,12.15-4.57,16,1,2.8,5.1,3.89,6.81,4.22,5.64,1.12,11.13-.24,12.12-1.32a1.53,1.53,0,0,0-.16,1.45l6.94-4a6.47,6.47,0,0,1-.15,7C257.88,300.48,251.75,302,246,302Z"/>
  <path d="M251.65,254.68l-1.22-7.91a221.35,221.35,0,0,1,29.42-2.29v8A216.56,216.56,0,0,0,251.65,254.68Z"/>
  <g>
    <circle class="cls-6" cx="224.42" cy="256.24" r="8"/>
    <path d="M224.42,268.24a12,12,0,1,1,12-12A12,12,0,0,1,224.42,268.24Zm0-16a4,4,0,1,0,4,4A4,4,0,0,0,224.42,252.24Z"/>
  </g>
  <circle cx="224.92" cy="254.24" r="4"/>
  <path d="M235.31,322.52l-2.54-7.59,12.3-4.1,1.31,2.63a4.09,4.09,0,0,0,1.66.26v8a11.14,11.14,0,0,1-5.92-1.47Zm10.94-9.13Z"/>
  <path d="M260.78,322.52,254,320.25a11.14,11.14,0,0,1-5.92,1.47v-8a4.09,4.09,0,0,0,1.66-.26l1.31-2.63,12.29,4.1Zm-10.95-9.13Z"/>
  <polygon points="345.04 551.85 337.04 551.6 340.03 458 334.1 423.4 341.98 422.05 348.05 457.45 348.04 457.85 345.04 551.85"/>
  <path d="M285.46,675.15a8.08,8.08,0,0,1-2.88-.54,10.33,10.33,0,0,1-4.41-3.49l-.56.56a7.47,7.47,0,0,1-6.47-2.06,8.36,8.36,0,0,1-1.39-1.9l-1.49.93c-3.72-.75-6-4.71-7.32-9.39l-1.4.59-10-8-1.48-2.74c-1.4-14.41,7.58-27.22,26-37a121,121,0,0,1,27.13-10.25l1.76,7.81-.88-3.91.89,3.9c-.49.12-47.57,11.13-47,37.09l2.87,2.29.27-2.67,8,.16a62.07,62.07,0,0,0,.88,7.18l.27-1,7.82,1.58a29.73,29.73,0,0,0-.15,5.86l6.11-.17c.73,3.55,2.56,7,3.49,7.2a2.53,2.53,0,0,0,1.19-.62c5.12-3.84,12.31-19.92,15.64-29.15l.66-1.18,9-11,6.2,5.07-8.57,10.47c-1.72,4.66-9.92,26-18.13,32.19A9.89,9.89,0,0,1,285.46,675.15Z"/>
  <path d="M240.17,647.61a5,5,0,0,1-3.59-1.27c-.9-.74-2.83-2.91-1.29-7,1.63-4.33,6.06-8.34,13.56-12.26a78.67,78.67,0,0,1,10-4.35l2.61,7.56h0a65.56,65.56,0,0,0-9.08,4l4.06,6.58C247.72,646.21,242.94,647.61,240.17,647.61Z"/>
  <path d="M265.58,708.05c-20,0-39.31-17.52-40.25-18.38l-.64-.75-19-29,6.7-4.39,18.71,28.56A85.18,85.18,0,0,0,243,692.63l3-4.81c1.86.43,3.69.79,5.46,1.1a98,98,0,0,1-13.5-6.82l3.08-7.27c3.79.91,7.87,1.82,11.69,2.61L238.79,668l4.5-6.61,28,19L270,687.5c2.54.88,4.16,1.39,4.22,1.41l1,7.14a12.93,12.93,0,0,1-4.83,1.76c1.5.36,3,.7,4.43,1l.44,7.71A30.51,30.51,0,0,1,265.58,708.05Z"/>
  <polygon points="259.71 681.48 254.56 664.08 227.57 642.87 232.51 636.58 261.51 659.37 267.38 679.22 259.71 681.48"/>
  <rect x="244.04" y="709.72" width="8" height="26.35"/>
</svg>
