<svg id="Layer_1" data-name="Layer 1" xmlns="http://www.w3.org/2000/svg" viewBox="0 0 485 760">
  <defs>
    <style>
      .cls-1 {
        fill: #787fff;
      }

      .cls-2 {
        fill: #5061ff;
      }

      .cls-3 {
        fill: #6a726d;
      }

      .cls-4 {
        fill: #617c73;
      }

      .cls-5 {
        fill: #2b293a;
      }

      .cls-6 {
        fill: #ffbd7b;
      }

      .cls-7 {
        fill: #7f3300;
      }

      .cls-8 {
        fill: #fff;
      }
    </style>
  </defs>
  <title>Onvrouwen</title>
  <polyline class="cls-1" points="341.15 342.81 456.99 454.88 459.05 733.31 420.24 733.31 297.71 371.42 341.15 342.81"/>
  <path class="cls-1" d="M384.14,246.36h73s1-98-62-148l-53,51S385.14,200.36,384.14,246.36Z"/>
  <path class="cls-1" d="M247.14,112.36s-53,4-91,39l-61-61s28-30,74-46,79-12,79-12Z"/>
  <path class="cls-1" d="M27.14,247.36l86-1s2,55,40,93l-125,127Z"/>
  <polygon class="cls-1" points="78.14 734.37 169.14 736.37 192.14 514.37 152.14 518.37 78.14 734.37"/>
  <path class="cls-1" d="M247.14,112.36s76,8,95,37l-14,15s-38-33-78-30Z"/>
  <path class="cls-1" d="M364.14,245.36l17-1s7,47-37,96l-14-8S361.14,288.36,364.14,245.36Z"/>
  <polygon class="cls-1" points="169.14 327.37 203 352.99 188.14 363.37 153.14 339.37 169.14 327.37"/>
  <path class="cls-1" d="M156.14,151.36l14,14s-33,28-34,80h-19S123.14,173.36,156.14,151.36Z"/>
  <path class="cls-2" d="M384.84,243.41h72.08V458.8L344.14,340.36S385.54,301.46,384.84,243.41Z"/>
  <path class="cls-2" d="M284,247c.81-.58,78.14-.63,78.14-.63S361,308,329,327C329,327,256,267,284,247Z"/>
  <path class="cls-2" d="M250.14,134.36l-2,43,35,28,45-41S288.14,129.36,250.14,134.36Z"/>
  <path class="cls-2" d="M167.9,166.63l31.68,29.07L197,249l-60.86-3.63S129.92,205.07,167.9,166.63Z"/>
  <path class="cls-2" d="M156.14,151.36l14,14s35-36,80-31l-3-22S175.14,120.36,156.14,151.36Z"/>
  <path class="cls-2" d="M136.14,245.36s-7,44,33,82l-15.7,14.77s-38.3-34.77-36.3-96.77Z"/>
  <path class="cls-2" d="M152.14,152.36s-36,40-38,91h-86s2-56,14-77,45-77,53-76Z"/>
  <path class="cls-2" d="M251.19,113.45s54.95,5.91,90.95,35.91l53-55s-60-60-143-63Z"/>
  <path class="cls-2" d="M331.14,167.36s33,41,31,79l19-2s-2.59-64.36-40.8-91.68Z"/>
  <path class="cls-1" d="M247.34,314.82,281,288s37.85,18,46,41l-34,27Z"/>
  <path class="cls-1" d="M194.64,190.38l-24.5-25s20.09-23.91,54.05-27.45,21.9-4.59,21.9-4.59l2,44S222,201,220,202,194.64,190.38,194.64,190.38Z"/>
  <path class="cls-1" d="M198,246l-62.46,2.47s3.6,54.9,33.6,78.9L206,291Z"/>
  <path class="cls-1" d="M299.39,249.36l62.46-2.47s-3.6-54.9-33.6-78.9l-36.86,36.37Z"/>
  <polygon class="cls-2" points="209 289.99 169.14 327.37 201 350.99 214 326.99 209 289.99"/>
  <polygon class="cls-2" points="153.14 342.37 28.14 466.37 27.14 734.37 78.14 734.37 152.14 518.37 123.14 489.37 117.14 462.37 133.14 423.37 173.14 382.37 176 357.99 153.14 342.37"/>
  <polygon class="cls-2" points="326.02 466.55 420.14 733.37 330.14 736.37 284 518.99 326.02 466.55"/>
  <polygon class="cls-2" points="291.14 355.37 320.14 337.37 330 327.99 337.94 346.13 298.14 371.37 291.14 355.37"/>
  <polygon class="cls-1" points="290.14 352.37 313.14 340.37 299.14 335.37 290.14 352.37"/>
  <polygon class="cls-1" points="285.14 355.37 291.14 361.37 288.14 367.37 280.14 363.37 285.14 355.37"/>
  <path d="M249.14,384.37c-75.54,0-137-61.46-137-137s61.46-137,137-137,137,61.46,137,137S324.68,384.37,249.14,384.37Zm0-266a129,129,0,1,0,129,129A129.15,129.15,0,0,0,249.14,118.36Z"/>
  <path d="M249.14,364.79A117.43,117.43,0,1,1,366.57,247.36,117.56,117.56,0,0,1,249.14,364.79Zm0-228A110.58,110.58,0,1,0,359.71,247.36,110.7,110.7,0,0,0,249.14,136.79Z"/>
  <rect x="244.64" y="29.36" width="8" height="217.5"/>
  <rect x="167.69" y="59.17" width="8" height="219" transform="translate(-68.98 170.81) rotate(-45)"/>
  <rect x="26.14" y="241.62" width="223.75" height="8"/>
  <rect x="-20.19" y="353.69" width="315.52" height="8" transform="translate(-212.64 202.07) rotate(-45)"/>
  <rect x="215.23" y="167.42" width="211.22" height="8" transform="translate(-27.25 277.04) rotate(-45)"/>
  <rect x="245.39" y="241.62" width="212.75" height="8"/>
  <rect x="348.89" y="201.9" width="8.13" height="302.08" transform="translate(-146.18 352.95) rotate(-45)"/>
  <rect x="331.65" y="230.29" width="8" height="519.94" transform="translate(-143.09 138.38) rotate(-19.29)"/>
  <rect x="-96.32" y="486.26" width="519.94" height="8" transform="translate(-353.15 482.77) rotate(-70.71)"/>
  <rect x="286.64" y="354.36" width="8" height="382"/>
  <rect x="287.14" y="37.36" width="8" height="84"/>
  <rect x="329.14" y="351.36" width="8" height="385"/>
  <rect x="329.14" y="52.36" width="8" height="92"/>
  <rect x="371.64" y="289.36" width="8" height="447"/>
  <rect x="372.14" y="75.36" width="8" height="130"/>
  <rect x="414.14" y="118.36" width="8" height="618"/>
  <rect x="66.64" y="118.36" width="8" height="618"/>
  <rect x="111.14" y="73.36" width="8" height="663"/>
  <rect x="155.14" y="45.36" width="8" height="103"/>
  <rect x="155.14" y="346.36" width="8" height="103"/>
  <rect x="202.14" y="31.36" width="8" height="88"/>
  <rect class="cls-1" x="459.14" y="638.36" width="23" height="117"/>
  <rect class="cls-2" x="459.14" y="532.36" width="23" height="107"/>
  <rect class="cls-2" x="459.14" y="309.36" width="23" height="107"/>
  <rect class="cls-1" x="459.14" y="420.36" width="23" height="107"/>
  <rect class="cls-2" x="3.14" y="532.36" width="23" height="107"/>
  <rect class="cls-2" x="355.14" y="734.36" width="104" height="22"/>
  <rect class="cls-1" x="248.14" y="734.36" width="104" height="22"/>
  <rect class="cls-1" x="138.14" y="734.36" width="104" height="22"/>
  <rect class="cls-1" x="-39.86" y="687.36" width="114" height="22" transform="translate(715.51 681.22) rotate(90)"/>
  <rect class="cls-1" x="-39.86" y="463.36" width="114" height="22" transform="translate(491.51 457.22) rotate(90)"/>
  <rect class="cls-2" x="-38.86" y="353.36" width="114" height="22" transform="translate(382.51 346.22) rotate(90)"/>
  <rect class="cls-2" x="26.14" y="734.36" width="109" height="22"/>
  <polygon class="cls-1" points="459.14 309.37 482.14 309.37 479.14 213.37 472.14 196.37 456.14 201.37 460.14 257.37 459.14 309.37"/>
  <path class="cls-1" d="M9.14,196.36l21,8s-2.52,80.17-5.26,105.09l-23.74-.09Z"/>
  <polygon class="cls-2" points="61.14 87.36 78.75 106.42 50.14 147.37 30.14 204.37 9.14 196.37 21.14 156.37 42.14 117.36 61.14 87.36"/>
  <polygon class="cls-1" points="61.14 87.36 99.14 56.37 156.14 24.36 165.87 44.04 115.86 73.08 83.06 102.12 73.38 99.97 61.14 87.36"/>
  <polygon class="cls-2" points="156.14 24.36 208.14 9.37 273.14 11.37 326.14 23.36 318.85 45.61 255.98 31.19 202.91 35.23 169.14 44.37 156.14 24.36"/>
  <path class="cls-1" d="M317.14,42.36l9-19,67,39,30,29-16.26,14.75S371.14,58.36,317.14,42.36Z"/>
  <path class="cls-2" d="M423.14,91.36l-16,15L425.26,132s30.88,44.34,30.88,69.34l16-5-11-49Z"/>
  <path d="M484.64,759.87H.64v-514a242,242,0,0,1,242-242h0a242,242,0,0,1,242,242Zm-476-8h468v-506A234,234,0,0,0,77.18,80.4,232.46,232.46,0,0,0,8.64,245.86Z"/>
  <path d="M463.14,739.37h-441V247.86A220.5,220.5,0,0,1,398.56,92a219.07,219.07,0,0,1,64.58,155.91Zm-433-8h425V247.86c0-117.17-95.33-212.5-212.5-212.5s-212.5,95.33-212.5,212.5Z"/>
  <rect x="2.14" y="635.37" width="21" height="8"/>
  <rect x="2.14" y="525.37" width="21" height="8"/>
  <rect x="2.14" y="415.37" width="21" height="8"/>
  <rect x="2.14" y="305.36" width="21" height="8"/>
  <rect x="14.64" y="188.86" width="8" height="21" transform="translate(-179.73 172.11) rotate(-76.84)"/>
  <rect x="67.64" y="86.86" width="8" height="21" transform="translate(-47.86 79.18) rotate(-45)"/>
  <rect x="157.64" y="22.86" width="8" height="21" transform="translate(2.06 75.5) rotate(-26.45)"/>
  <rect x="460.89" y="635.37" width="21" height="8"/>
  <rect x="460.89" y="525.37" width="21" height="8"/>
  <rect x="460.89" y="415.37" width="21" height="8"/>
  <rect x="460.89" y="305.36" width="21" height="8"/>
  <rect x="454.89" y="195.36" width="21" height="8" transform="translate(-33.18 111.24) rotate(-13.17)"/>
  <rect x="401.89" y="93.37" width="21" height="8" transform="translate(51.92 320.09) rotate(-45)"/>
  <rect x="311.89" y="29.36" width="21" height="8" transform="translate(158.12 312.76) rotate(-65.46)"/>
  <rect x="22.14" y="738.36" width="8" height="15"/>
  <rect x="132.14" y="738.36" width="8" height="15"/>
  <rect x="242.14" y="738.36" width="8" height="15"/>
  <rect x="352.14" y="738.36" width="8" height="15"/>
  <rect x="455.14" y="738.36" width="8" height="15"/>
  <polygon class="cls-3" points="153 731.99 358 731.99 355 652.99 388 658.99 410 655.99 407 622.99 387 413.99 341 373.99 252 422.99 250 405.99 192 372.99 184 386.99 167 375.99 123 413.99 104 622.99 99 643.99 108 657.99 154 653.99 153 731.99"/>
  <polygon class="cls-4" points="198 313.99 163.39 379.55 185.12 382.49 190 372.99 248 406.99 250 424.99 344.28 375.74 321 346.99 313 320.99 306 236.99 294 196.99 260 173.99 215 179.99 211 186.99 270 200.99 298 233.99 295 308.99 265 337.99 243 346.99 198 313.99"/>
  <polygon class="cls-5" points="370 657.99 362 696.99 358 724.99 373 734.99 373 714.99 380 710.99 384 724.99 389 728.99 403 733.99 413 715.99 402 688.99 398.63 659.11 370 657.99"/>
  <polygon class="cls-5" points="140 657.99 148 696.99 152 724.99 139 734.99 137 714.99 130 710.99 126 724.99 126 734.99 108 729.99 97 715.99 108 688.99 111.37 659.11 140 657.99"/>
  <path class="cls-6" d="M189,236l-1,36,10,42,45,33,41.59-23.15s17.11-41,14.26-61.42L285,238s-41-12-44-19C241,219,199,223,189,236Z"/>
  <path class="cls-7" d="M189,236s22-17,52-17c0,0,21.92,15.28,36.46,14.64s21.67,34.1,21.67,34.1L296,228s-14-36-85-41C211,187,185,203,189,236Z"/>
  <rect x="26.36" y="599.49" width="263.27" height="8" transform="translate(-452.07 733.77) rotate(-87.38)"/>
  <polygon points="122.93 664.08 98.85 658.35 93.67 641.51 100.06 630.31 114.05 634.13 111.94 641.85 103.93 639.66 102.33 642.47 105.15 651.63 123.07 655.89 153.36 649.79 154.94 657.63 122.93 664.08"/>
  <path d="M99.28,635.47l-5.36-13.41,7.24-3.63c.69-10.26,3.63-53.43,7.1-97.13,8.07-101.6,11.09-107.14,12.23-109.23,6.22-11.42,41.12-38.24,45.08-41.26l4.85,6.36c-10.38,7.92-38.33,30.33-42.91,38.73C123.37,424.5,114,546.43,109,621.25l-.15,2.29-4.76,2.38,2.63,6.58Z"/>
  <path d="M141.54,739l-.7,0H134l-2.73-3.71L128,739a11.06,11.06,0,0,1-6.89-2.75,4.86,4.86,0,0,1-.6,1A4.38,4.38,0,0,1,117,739c-1.82,0-4.17-1.57-6.57-3.7a5.67,5.67,0,0,1-4.91,3.7c-4.4.14-6.84-4.81-9.34-12.81-5-16,4.85-36.37,6.94-40.42l3.69-28.19,7.94,1L111,687.51l-.45,1.39c-.11.21-11.12,20.73-6.7,34.89l.25.77,4.91-2.25c.81.9,1.68,1.84,2.56,2.75a6.17,6.17,0,0,1,1.64-4.9l6.4,1a35.6,35.6,0,0,0,3.34,5.35l-.88-7.07.3-2.1c3.67-8.38,7.53-12.63,11.48-12.63H134c1.5,0,4.24.72,5.78,4.83,2.32,6.19.82,15.55-.54,21.41l2.22,0a6.26,6.26,0,0,0,4.34-1.65c2-1.88,3.12-5.43,3.14-10.26.09-15.76-10.21-32.86-10.32-33l-.58-2-1-30,8-.27,1,29c2.33,4.06,11,20.31,10.94,36.3,0,7.33-2,12.8-5.89,16.26A14.36,14.36,0,0,1,141.54,739Zm-11.43-19.39,1.23,9.85c1.1-4.74,2-10.62,1.46-14.69A40.42,40.42,0,0,0,130.11,719.62Z"/>
  <rect x="348.5" y="471.83" width="8" height="261.32" transform="translate(-29.54 18.28) rotate(-2.85)"/>
  <polygon points="387.07 664.08 355.06 657.63 356.64 649.79 386.93 655.89 404.85 651.63 407.66 642.47 406.06 639.66 398.05 641.85 395.94 634.13 409.93 630.31 416.33 641.51 411.15 658.35 387.07 664.08"/>
  <path d="M370.32,739A17.09,17.09,0,0,1,359,734.76c-3.87-3.51-5.85-8.76-5.89-15.62-.09-16,8.62-32.24,10.94-36.3l1-29,8,.27-1,30-.59,2c-.1.17-10.41,17.27-10.32,33,0,4.48,1.1,7.73,3.21,9.68a9.34,9.34,0,0,0,6.37,2.22h.12c-1.35-5.86-2.86-15.23-.54-21.42,1.54-4.11,4.29-4.79,5.79-4.83h.15c3.94,0,7.8,4.25,11.47,12.63l.22,2.58-1.59,6.35a46.46,46.46,0,0,0,4.38-5.54l6.16-.61a6,6,0,0,1,1.65,4.6c.92-.86,1.84-1.75,2.69-2.6l5,1.71,0-.08c4.44-14.21-6.58-34.68-6.69-34.89l-.46-1.39-3.78-28.9,7.93-1,3.69,28.19c2.09,4,11.93,24.46,6.95,40.42-2.45,7.82-4.22,13.47-8.84,12.76-.92-.14-3.85-1-4-5.63-5.37,4.68-7,4.68-8,4.68a4.37,4.37,0,0,1-3.56-1.78,4.49,4.49,0,0,1-.65-1.19c-2.7,2.26-5.75,4-8.79,4l-2.06-2.64L376,739h-4.86Zm6.87-24.23a41.39,41.39,0,0,0,.82,11.65l1.77-7A40.82,40.82,0,0,0,377.19,714.78Z"/>
  <path d="M254,447h-8V410.23c-21.41-13.14-54.43-33.2-57.43-34.51l.16.06,2.53-7.59c3.1,1,43.57,25.79,60.83,36.39l1.91,1.17Z"/>
  <rect x="246" y="478.99" width="8" height="59"/>
  <rect x="246" y="475.99" width="8" height="64"/>
  <rect x="246" y="570.99" width="8" height="64"/>
  <rect x="246" y="663.99" width="8" height="69"/>
  <path d="M280,478H220V446h60Zm-52-8h44V454H228Z"/>
  <path d="M280,571H220V539h60Zm-52-8h44V547H228Z"/>
  <path d="M280,666H220V634h60Zm-52-8h44V642H228Z"/>
  <path d="M410.71,635.47l-7.43-3,2.64-6.58-4.76-2.38-.15-2.29c-5-74.82-14.39-196.75-18.54-205.37-4.29-7.88-29.22-28.13-40.83-37.12l-87.7,48.72-3.89-7,92.29-51.27,2.08,1.59c4,3,38.86,29.84,45.09,41.26,1.14,2.09,4.16,7.63,12.22,109.23,3.48,43.7,6.41,86.87,7.1,97.13l7.25,3.63Z"/>
  <path d="M253.79,411.57l-3.58-7.16,80.41-40.2-8.17-6.54L244.61,394.6l-67.74-47.31,20.75-41.49,46.5,36.77c3.49,1.62,31.59,14.09,49.11,3.72,9-5.35,14-16.28,14.77-32.49,2-42.88-5.94-73.45-24.2-93.46-16.39-18-42-27.83-76-29.36l.36-8c36.22,1.63,63.65,12.38,81.53,32,19.77,21.66,28.37,54.11,26.28,99.22-.88,19.08-7.17,32.21-18.71,39-22.34,13.2-55.64-2.92-57-3.61l-.38-.19-39.47-31.21-13.26,26.51,58.26,40.69,78.16-37.08,21.84,17.47Z"/>
  <path d="M195.31,313.55c-17.7-41.78-17.14-90.46,1.35-118.38C208,178,225.41,169,247,169c16,0,29.48,5.45,40.08,16.21,11,11.17,18.65,27.65,22.74,49a154.73,154.73,0,0,1,2.86,28.58l-8-.12c0-.47.38-47.82-23.32-71.85-9-9.17-20.6-13.81-34.36-13.81-19,0-33.74,7.6-43.67,22.6C186.23,225.4,186,271,202.68,310.43Z"/>
  <path d="M242.73,349.92l-1.46-7.87c18.88-3.49,33-12.5,41.91-26.76,21.45-34.25,6.95-88.15,6.8-88.7l7.71-2.13c.65,2.35,15.59,57.79-7.71,95C279.81,335.77,263.91,346,242.73,349.92Z"/>
  <rect x="313" y="318.93" width="8" height="35.11" transform="translate(-95.91 128.59) rotate(-19.98)"/>
  <polygon points="188.45 389.46 159.9 376.71 178.52 344.01 185.47 347.97 171.22 373 183.54 378.51 191.2 354.45 198.83 356.88 188.45 389.46"/>
  <rect x="335.03" y="365.61" width="8" height="10.53" transform="translate(-152.63 267.15) rotate(-35.66)"/>
  <path d="M244.11,312.06c-1.11,0-2.22,0-3.29-.08-5.55-.25-9.24-1.89-11.29-5-3.36-5.12-.73-12,1.81-18.73,2.13-5.62,4.55-12,2.42-14.9-5.19-7.14-23.66-4.11-29.73-2.49L202,263.12a79.14,79.14,0,0,1,14.84-2.25c11.38-.58,19.27,2,23.43,7.76,4.67,6.42,1.44,14.94-1.41,22.45-1.57,4.13-3.72,9.79-2.6,11.5.19.28,1.1,1.24,5,1.41,5.68.26,8.21-.29,9.26-.67a7.86,7.86,0,0,0-1.13-1.37l5.38-5.92c.95.86,5.6,5.44,3.55,10.4C256.32,311.09,250.15,312.06,244.11,312.06Z"/>
  <path d="M182.41,253.43c-.06-.54-1.45-13.43,7.17-23.41,6-7,15.2-10.68,27.3-11,30.51-.9,37.07-18.55,37.33-19.3l7.58,2.56c-.32,1-8.3,23.67-44.68,24.73-9.72.29-16.93,3.05-21.42,8.2-6.34,7.28-5.34,17.24-5.33,17.34Z"/>
  <path d="M192.79,222.25l-4.66-6.5A59.09,59.09,0,0,1,220,206c13.93,0,19.05-12.88,19.26-13.42l7.48,2.82c-.28.76-7.2,18.6-26.74,18.6A51.9,51.9,0,0,0,192.79,222.25Z"/>
  <path d="M199.8,206.8l-4.56-6.57A34.91,34.91,0,0,1,214,195a9.06,9.06,0,0,0,8.76-6.17l7.69,2.21A17.06,17.06,0,0,1,214,203,27.38,27.38,0,0,0,199.8,206.8Z"/>
  <path d="M294.66,267.92a61.53,61.53,0,0,0-4.91-15.81c-4.66-9.69-11-14.78-18.93-15.13-25.32-1.1-31.65-16.68-31.91-17.35l7.46-2.89-3.73,1.45,3.71-1.5c.19.47,5,11.44,24.82,12.3,11,.48,19.93,7.34,25.88,19.85a68.45,68.45,0,0,1,5.53,18Z"/>
  <path d="M292,232.78c-.93-2.23-11.31-9.79-21-9.79-13.42,0-19.4-12.8-19.64-13.35l7.27-3.33c.17.36,4.15,8.68,12.37,8.68,12.24,0,27.06,9.18,28.78,15.78Z"/>
  <path d="M283.32,271.62c-11.52-5.32-26.21-1.79-26.36-1.75L255,262.11c.71-.18,17.53-4.27,31.64,2.24Z"/>
  <path d="M247,333a11.21,11.21,0,0,1-7.46-2.46l-8.49,2.32-2.11-7.72,14.65-4,1.1,3.29A3.34,3.34,0,0,0,247,325Z"/>
  <path d="M247,333v-8a3.33,3.33,0,0,0,2.3-.57l1.1-3.29,14.65,4-2.11,7.72-8.49-2.32A11.18,11.18,0,0,1,247,333Z"/>
  <g>
    <circle class="cls-8" cx="219.4" cy="273.05" r="8"/>
    <path d="M219.4,285.05a12,12,0,1,1,12-12A12,12,0,0,1,219.4,285.05Zm0-16a4,4,0,1,0,4,4A4,4,0,0,0,219.4,269.05Z"/>
  </g>
  <circle cx="219.9" cy="271.05" r="4"/>
</svg>
