<svg width="74" height="72" viewBox="0 0 74 72" fill="none" xmlns="http://www.w3.org/2000/svg">
<path d="M0 6.99999C0 3.134 3.13401 0 7 0H66.3807C70.2467 0 73.3807 3.13401 73.3807 7V64.852C73.3807 68.718 70.2467 71.852 66.3807 71.852H7.00001C3.13402 71.852 0 68.7179 0 64.852V6.99999Z" fill="#FFFDEE"/>
<path fill-rule="evenodd" clip-rule="evenodd" d="M66.3807 3H7C4.79086 3 3 4.79086 3 6.99999V64.852C3 67.0611 4.79087 68.852 7.00001 68.852H66.3807C68.5899 68.852 70.3807 67.0611 70.3807 64.852V7C70.3807 4.79087 68.5899 3 66.3807 3ZM7 0C3.13401 0 0 3.134 0 6.99999V64.852C0 68.7179 3.13402 71.852 7.00001 71.852H66.3807C70.2467 71.852 73.3807 68.718 73.3807 64.852V7C73.3807 3.13401 70.2467 0 66.3807 0H7Z" fill="#2C2A39"/>
<path d="M60.7392 66.6795C60.5472 66.6795 60.4512 66.6035 60.4512 66.4515V66.4035C60.4512 66.3155 60.5072 66.2155 60.6192 66.1035C60.7392 65.9915 60.8552 65.8635 60.9672 65.7195C61.0872 65.5755 61.1472 65.4195 61.1472 65.2515V60.4755C61.1472 60.2995 61.1032 60.1635 61.0152 60.0675C60.9272 59.9635 60.8272 59.8955 60.7152 59.8635C60.6112 59.8315 60.5152 59.7875 60.4272 59.7315C60.3392 59.6675 60.2952 59.5875 60.2952 59.4915V59.4315C60.2952 59.2875 60.4152 59.1595 60.6552 59.0475L62.5512 58.2315C62.8552 58.1195 63.0952 58.1075 63.2712 58.1955C63.4552 58.2755 63.5472 58.4035 63.5472 58.5795C63.5472 58.6835 63.5032 58.8315 63.4152 59.0235C63.3272 59.2155 63.2832 59.4395 63.2832 59.6955V65.2515C63.2832 65.4195 63.3432 65.5755 63.4632 65.7195C63.5912 65.8635 63.7152 65.9915 63.8352 66.1035C63.9552 66.2155 64.0152 66.3155 64.0152 66.4035V66.4515C64.0152 66.6035 63.9192 66.6795 63.7272 66.6795H60.7392Z" fill="#2C2A39"/>
<path d="M29.44 56C28.4586 56 27.968 55.5947 27.968 54.784V54.528C27.968 54.016 28.416 53.248 29.312 52.224C30.2506 51.1573 30.72 50.0907 30.72 49.024V15.36H27.328C26.3466 15.36 25.4506 15.7653 24.64 16.576C23.872 17.3867 23.2533 18.2827 22.784 19.264C22.3573 20.2027 21.824 21.0773 21.184 21.888C20.544 22.6987 19.904 23.104 19.264 23.104H18.176C16.9813 23.104 16.448 22.4853 16.576 21.248L17.856 12.544C17.984 11.2213 18.7093 10.56 20.032 10.56H52.928C54.208 10.56 54.9333 11.2213 55.104 12.544L56.448 21.312C56.5333 21.8667 56.4266 22.3147 56.128 22.656C55.8293 22.9547 55.4026 23.104 54.848 23.104H53.76C53.12 23.104 52.48 22.6987 51.84 21.888C51.2 21.0773 50.6453 20.2027 50.176 19.264C49.7066 18.2827 49.0666 17.3867 48.256 16.576C47.4453 15.7653 46.5493 15.36 45.568 15.36H42.24V49.024C42.24 50.0907 42.688 51.1573 43.584 52.224C44.5226 53.248 44.992 54.016 44.992 54.528V54.784C44.992 55.5947 44.48 56 43.456 56H29.44Z" fill="#2C2A39"/>
</svg>
