<svg id="Layer_1" data-name="Layer 1" xmlns="http://www.w3.org/2000/svg" viewBox="0 0 485 760">
  <defs>
    <style>
      .cls-1 {
        fill: #787fff;
      }

      .cls-2 {
        fill: #5061ff;
      }

      .cls-3 {
        fill: #ffbd7b;
      }

      .cls-4 {
        fill: #7f3300;
      }

      .cls-5 {
        fill: #a47c52;
      }

      .cls-6 {
        fill: #2b293a;
      }

      .cls-7 {
        fill: #fff;
      }
    </style>
  </defs>
  <title>Tantes</title>
  <polyline class="cls-1" points="341.46 342.72 457.3 454.79 459.36 733.22 420.55 733.22 298.02 371.33 341.46 342.72"/>
  <path class="cls-1" d="M384.45,246.28h73s1-98-62-148l-53,51S385.45,200.28,384.45,246.28Z"/>
  <path class="cls-1" d="M247.45,112.28s-53,4-91,39l-61-61s28-30,74-46,79-12,79-12Z"/>
  <path class="cls-1" d="M27.45,247.28l86-1s2,55,40,93l-125,127Z"/>
  <polygon class="cls-1" points="78.45 734.27 169.45 736.27 192.45 514.27 152.45 518.27 78.45 734.27"/>
  <path class="cls-1" d="M247.45,112.28s76,8,95,37l-14,15s-38-33-78-30Z"/>
  <path class="cls-1" d="M364.45,245.28l17-1s7,47-37,96l-14-8S361.45,288.28,364.45,245.28Z"/>
  <polygon class="cls-1" points="169.45 327.27 203.31 352.9 188.45 363.27 153.45 339.27 169.45 327.27"/>
  <path class="cls-1" d="M156.45,151.28l14,14s-33,28-34,80h-19S123.45,173.28,156.45,151.28Z"/>
  <path class="cls-2" d="M385.15,243.32h72.07V458.71L344.45,340.28S385.85,301.37,385.15,243.32Z"/>
  <path class="cls-2" d="M284.31,246.9c.81-.58,78.14-.62,78.14-.62s-1.14,61.62-33.14,80.62C329.31,326.9,256.31,266.9,284.31,246.9Z"/>
  <path class="cls-2" d="M250.45,134.28l-2,43,35,28,45-41S288.45,129.28,250.45,134.28Z"/>
  <path class="cls-2" d="M168.21,166.54l31.68,29.07-2.58,53.29-60.86-3.62S130.23,205,168.21,166.54Z"/>
  <path class="cls-2" d="M156.45,151.28l14,14s35-36,80-31l-3-22S175.45,120.28,156.45,151.28Z"/>
  <path class="cls-2" d="M136.45,245.28s-7,44,33,82L153.75,342s-38.3-34.76-36.3-96.76Z"/>
  <path class="cls-2" d="M152.45,152.27s-36,40-38,91h-86s2-56,14-77,45-77,53-76Z"/>
  <path class="cls-2" d="M251.5,113.36s54.95,5.92,90.95,35.92l53-55s-60-60-143-63Z"/>
  <path class="cls-2" d="M331.45,167.28s33,41,31,79l19-2s-2.59-64.37-40.8-91.69Z"/>
  <path class="cls-1" d="M247.65,314.73l33.66-26.83s37.85,18,46,41l-34,27Z"/>
  <path class="cls-1" d="M204.31,198.9l-33.86-33.62s20.09-23.92,54-27.46,21.91-4.59,21.91-4.59l2,44.05s-16.14,6.62-18.14,7.62S204.31,198.9,204.31,198.9Z"/>
  <path class="cls-1" d="M198.31,245.9l-62.46,2.47s3.6,54.91,33.6,78.91l36.86-36.38Z"/>
  <path class="cls-1" d="M299.7,249.28l62.46-2.48s-3.61-54.9-33.61-78.9L291.7,204.28Z"/>
  <polygon class="cls-2" points="209.31 289.9 169.45 327.27 201.31 350.9 214.31 326.9 209.31 289.9"/>
  <polygon class="cls-2" points="153.45 342.27 28.45 466.27 27.45 734.27 78.45 734.27 152.45 518.27 123.45 489.27 117.45 462.27 133.45 423.27 173.45 382.27 176.31 357.9 153.45 342.27"/>
  <polygon class="cls-2" points="326.33 466.46 420.45 733.27 330.45 736.27 284.31 518.9 326.33 466.46"/>
  <polygon class="cls-2" points="291.45 355.27 320.45 337.27 330.31 327.9 338.25 346.05 298.45 371.27 291.45 355.27"/>
  <polygon class="cls-1" points="290.45 352.27 313.45 340.27 299.45 335.27 290.45 352.27"/>
  <polygon class="cls-1" points="285.45 355.27 291.45 361.27 288.45 367.27 280.45 363.27 285.45 355.27"/>
  <path d="M249.45,384.28c-75.54,0-137-61.46-137-137s61.46-137,137-137,137,61.45,137,137S325,384.28,249.45,384.28Zm0-266a129,129,0,1,0,129,129A129.14,129.14,0,0,0,249.45,118.28Z"/>
  <path d="M249.45,364.7A117.43,117.43,0,1,1,366.88,247.28,117.56,117.56,0,0,1,249.45,364.7Zm0-228A110.58,110.58,0,1,0,360,247.28,110.7,110.7,0,0,0,249.45,136.7Z"/>
  <rect x="244.95" y="29.28" width="8" height="217.5"/>
  <rect x="168" y="59.08" width="8" height="219" transform="translate(-68.82 171) rotate(-45)"/>
  <rect x="26.45" y="241.53" width="223.75" height="8"/>
  <rect x="-19.88" y="353.6" width="315.52" height="8" transform="translate(-212.49 202.26) rotate(-45)"/>
  <rect x="215.54" y="167.33" width="211.22" height="8" transform="translate(-27.09 277.24) rotate(-45)"/>
  <rect x="245.7" y="241.53" width="212.75" height="8"/>
  <rect x="349.21" y="201.81" width="8.13" height="302.08" transform="translate(-146.03 353.15) rotate(-45)"/>
  <rect x="331.96" y="230.2" width="8" height="519.94" transform="translate(-143.04 138.47) rotate(-19.29)"/>
  <rect x="-96.01" y="486.17" width="519.94" height="8" transform="translate(-352.85 483) rotate(-70.71)"/>
  <rect x="286.95" y="354.28" width="8" height="382"/>
  <rect x="287.45" y="37.28" width="8" height="84"/>
  <rect x="329.45" y="351.28" width="8" height="385"/>
  <rect x="329.45" y="52.28" width="8" height="92"/>
  <rect x="371.95" y="289.28" width="8" height="447"/>
  <rect x="372.45" y="75.28" width="8" height="130"/>
  <rect x="414.45" y="118.28" width="8" height="618"/>
  <rect x="66.95" y="118.28" width="8" height="618"/>
  <rect x="111.45" y="73.28" width="8" height="663"/>
  <rect x="155.45" y="45.28" width="8" height="103"/>
  <rect x="155.45" y="346.28" width="8" height="103"/>
  <rect x="202.45" y="31.28" width="8" height="88"/>
  <rect class="cls-1" x="459.45" y="638.28" width="23" height="117"/>
  <rect class="cls-2" x="459.45" y="532.28" width="23" height="107"/>
  <rect class="cls-2" x="459.45" y="309.28" width="23" height="107"/>
  <rect class="cls-1" x="459.45" y="420.28" width="23" height="107"/>
  <rect class="cls-2" x="3.45" y="532.28" width="23" height="107"/>
  <rect class="cls-2" x="355.45" y="734.28" width="104" height="22"/>
  <rect class="cls-1" x="248.45" y="734.28" width="104" height="22"/>
  <rect class="cls-1" x="138.45" y="734.28" width="104" height="22"/>
  <rect class="cls-1" x="-39.55" y="687.28" width="114" height="22" transform="translate(715.73 680.83) rotate(90)"/>
  <rect class="cls-1" x="-39.55" y="463.28" width="114" height="22" transform="translate(491.73 456.83) rotate(90)"/>
  <rect class="cls-2" x="-38.55" y="353.28" width="114" height="22" transform="translate(382.73 345.83) rotate(90)"/>
  <rect class="cls-2" x="26.45" y="734.28" width="109" height="22"/>
  <polygon class="cls-1" points="459.45 309.27 482.45 309.27 479.45 213.28 472.45 196.28 456.45 201.28 460.45 257.27 459.45 309.27"/>
  <path class="cls-1" d="M9.45,196.28l21,8s-2.52,80.16-5.26,105.08l-23.74-.08Z"/>
  <polygon class="cls-2" points="61.45 87.28 79.06 106.33 50.45 147.28 30.45 204.28 9.45 196.28 21.45 156.28 42.45 117.28 61.45 87.28"/>
  <polygon class="cls-1" points="61.45 87.28 99.45 56.27 156.45 24.27 166.18 43.95 116.17 72.99 83.36 102.03 73.69 99.88 61.45 87.28"/>
  <polygon class="cls-2" points="156.45 24.27 208.45 9.28 273.45 11.28 326.45 23.27 319.16 45.52 256.29 31.1 203.22 35.14 169.45 44.27 156.45 24.27"/>
  <path class="cls-1" d="M317.45,42.28l9-19,67,39,30,29L407.19,106S371.45,58.28,317.45,42.28Z"/>
  <path class="cls-2" d="M423.45,91.28l-16,15,18.11,25.65s30.89,44.35,30.89,69.35l16-5-11-49Z"/>
  <path d="M485,759.78H1v-514a242,242,0,0,1,242-242h0a242,242,0,0,1,242,242Zm-476-8H477v-506A234,234,0,0,0,77.49,80.31,232.46,232.46,0,0,0,9,245.77Z"/>
  <path d="M463.45,739.28h-441V247.77A220.49,220.49,0,0,1,243,27.28h0a220.49,220.49,0,0,1,220.5,220.49Zm-433-8h425V247.77c0-117.17-95.33-212.49-212.5-212.49S30.45,130.6,30.45,247.77Z"/>
  <rect x="2.45" y="635.28" width="21" height="8"/>
  <rect x="2.45" y="525.28" width="21" height="8"/>
  <rect x="2.45" y="415.28" width="21" height="8"/>
  <rect x="2.45" y="305.28" width="21" height="8"/>
  <rect x="14.95" y="188.78" width="8" height="21" transform="translate(-179.4 172.34) rotate(-76.83)"/>
  <rect x="67.95" y="86.78" width="8" height="21" transform="translate(-47.71 79.37) rotate(-45)"/>
  <rect x="157.95" y="22.78" width="8" height="21" transform="translate(2.13 75.63) rotate(-26.46)"/>
  <rect x="461.2" y="635.28" width="21" height="8"/>
  <rect x="461.2" y="525.28" width="21" height="8"/>
  <rect x="461.2" y="415.28" width="21" height="8"/>
  <rect x="461.2" y="305.28" width="21" height="8"/>
  <rect x="455.2" y="195.28" width="21" height="8" transform="translate(-33.15 111.31) rotate(-13.17)"/>
  <rect x="402.2" y="93.28" width="21" height="8" transform="translate(52.07 320.28) rotate(-45)"/>
  <rect x="312.2" y="29.28" width="21" height="8" transform="translate(158.38 312.99) rotate(-65.46)"/>
  <rect x="22.45" y="738.28" width="8" height="15"/>
  <rect x="132.45" y="738.28" width="8" height="15"/>
  <rect x="242.45" y="738.28" width="8" height="15"/>
  <rect x="352.45" y="738.28" width="8" height="15"/>
  <rect x="455.45" y="738.28" width="8" height="15"/>
  <path class="cls-3" d="M191.31,248.9l2,30,11,4s2,54,42,56,44-57,44-57l12-3,2-27-4-1-9,8-6-2s3-51-38-51-40,48-40,48Z"/>
  <path class="cls-4" d="M192.31,241.9l12,15s7-50,43-51,38,51,38,51h12l3-41s-10-37-54-36S192.31,217.9,192.31,241.9Z"/>
  <polygon class="cls-4" points="199.31 283.9 200.31 316.9 208.31 333.9 218.75 324.91 199.31 283.9"/>
  <polygon class="cls-4" points="296.75 284.9 295.75 317.9 287.75 334.9 277.31 325.91 296.75 284.9"/>
  <path class="cls-3" d="M222.33,329.23s7,27.67,25,27.67,23.11-25.76,23.11-25.76-7.11,6.76-23.11,6.76S222.33,329.23,222.33,329.23Z"/>
  <path class="cls-4" d="M102.31,620.9l51-19,10,21-57,15S92.31,624.9,102.31,620.9Z"/>
  <path class="cls-3" d="M142.31,588.9s-3-24,22-24l23,17s23,21,18,33-22,4-22,4l2,10-12-2s-17.43-7.87-18.72-20.44S145.31,598.9,142.31,588.9Z"/>
  <path class="cls-3" d="M335.31,566.9s22,11,20,25-34,26-39,6S335.31,566.9,335.31,566.9Z"/>
  <path class="cls-5" d="M215.81,326.84l-31.5,27.06-67,20-48,170,15,20,43,24-3,20,25-7-11-11s11-27,29-26l37,34,3,18-44,9-46,12-11,95h282l-21-145L353.24,596,329,607.7l-24.69-14.8,18-29,17,1,17.56,24.21,57.44-26.21,9-26-49-162-70-21-28-25-29,32Z"/>
  <polygon class="cls-6" points="203.15 593.8 322.31 563.9 313.31 589.9 207 610.93 203.15 593.8"/>
  <polygon class="cls-6" points="333.31 560.9 356.31 556.9 362.31 576.9 349.73 577.91 333.31 560.9"/>
  <polygon class="cls-6" points="249.31 531.9 266.31 531.9 301.31 523.9 307.31 552.9 247.31 560.9 249.31 531.9"/>
  <polygon class="cls-6" points="193.31 520.9 221.31 530.9 219.31 560.9 186.31 550.9 193.31 520.9"/>
  <polygon points="186.25 576.59 178.37 575.2 220.14 338.5 217.13 332.5 193.38 354.9 203.31 354.9 205.57 362.19 175.33 382.99 177.31 569.86 169.31 569.94 167.31 380.94 169.04 377.6 190.43 362.9 183.31 362.9 180.56 355.99 215.56 322.99 221.88 324.11 227.88 336.11 228.25 338.59 186.25 576.59"/>
  <rect x="112.61" y="678.09" width="109.53" height="8" transform="translate(-531.75 748.96) rotate(-81.68)"/>
  <rect x="62.88" y="682.4" width="99.85" height="8" transform="translate(-582.43 708.92) rotate(-82.52)"/>
  <path d="M136.52,595.48l-56-28-1.73-1.67-12-22-.32-3,49-167,2.61-2.68,69.84-22.55,2.46,7.62-67.83,21.89L74.61,541.44l10.61,19.44,50.63,25.32c2.72-7.47,9.81-21.31,26.06-26.64-9.11-9.7-31.27-30.1-51.42-23.84l-2.37-7.64c31.25-9.7,63,29.65,64.32,31.33l-2.52,6.44c-22.81,3.51-27.5,25.86-27.69,26.81Z"/>
  <polygon points="147.1 537.02 139.29 535.29 146.25 503.7 137.34 430.38 145.28 429.41 154.28 503.41 154.21 504.76 147.1 537.02"/>
  <polygon points="113.97 698 113.13 690.04 139.14 687.31 137.53 651.84 120.35 655.68 118.61 647.87 145.09 641.95 147.47 694.48 113.97 698"/>
  <rect x="114.9" y="709.47" width="41.37" height="8" transform="translate(-590.36 734.29) rotate(-80.88)"/>
  <polygon points="308.37 576.59 266.37 338.59 266.73 336.11 272.73 324.11 279.05 322.99 314.05 355.99 311.31 362.9 304.19 362.9 325.57 377.6 327.31 380.94 325.31 569.94 317.31 569.86 319.28 382.99 289.04 362.19 291.31 354.9 301.23 354.9 277.48 332.5 274.48 338.5 316.25 575.2 308.37 576.59"/>
  <rect x="321.88" y="604.46" width="8" height="132.25" transform="translate(-74.64 41.73) rotate(-6.58)"/>
  <rect x="374.31" y="586.22" width="8" height="149.35" transform="translate(-85.1 56.62) rotate(-7.7)"/>
  <path d="M358.1,595.48l-5.72-2.83c-.19-.94-4.87-23.29-27.68-26.8l-2.52-6.44c1.33-1.68,33.06-41,64.31-31.33l-2.37,7.64c-20.16-6.26-42.3,14.14-51.41,23.84C349,564.89,356,578.73,358.76,586.2l50.64-25.32L420,541.44,372.06,378.05l-67.82-21.89,2.46-7.62,69.84,22.55,2.6,2.68,49,167-.32,3-12,22-1.72,1.67Z"/>
  <polygon points="347.51 537.02 340.4 504.76 340.34 503.41 349.34 429.41 357.28 430.38 348.36 503.7 355.32 535.29 347.51 537.02"/>
  <polygon points="380.65 698 347.14 694.48 349.53 641.95 376.01 647.87 374.26 655.68 357.09 651.84 355.47 687.31 381.48 690.04 380.65 698"/>
  <rect x="355.03" y="692.79" width="8" height="41.37" transform="translate(-108.53 65.91) rotate(-9.12)"/>
  <polygon points="247.31 385.28 218.4 359.26 221.92 332.59 247.31 354.6 267.08 337.46 272.32 343.5 247.31 365.19 227.91 348.37 226.88 356.13 247.31 374.52 269.3 354.73 274.65 360.67 247.31 385.28"/>
  <path d="M247.31,342.9c-33.45,0-46.45-40.42-48.38-57.1a13.26,13.26,0,0,1-5.87-2.51c-3.56-2.71-5.63-7.1-6.12-13.06-.91-10.77-1.71-20.3,4.25-23.94-1.1-9-2.56-34.09,12-51.67,9.73-11.76,24.58-17.72,44.12-17.72s34.38,6,44.12,17.72c14.55,17.58,13.1,42.65,12,51.67,6,3.64,5.16,13.17,4.26,23.94-.5,6-2.56,10.35-6.13,13.06a13.22,13.22,0,0,1-5.86,2.51C293.76,302.48,280.75,342.9,247.31,342.9Zm-40.64-65.83v4.83c0,5.77,2.94,19.23,9.48,31.06,5.54,10,15.43,21.94,31.16,21.94S272.93,323,278.46,313C285,301.13,288,287.67,288,281.9v-4.83l4.74.9h0a5.9,5.9,0,0,0,4.08-1.09c2.06-1.62,2.73-4.87,2.94-7.32,1.17-14,.55-16.39-1.39-16.72l-4-.68.76-4c.06-.29,5.44-30.07-9.82-48.46-8.14-9.81-20.91-14.79-37.93-14.79s-29.79,5-37.94,14.79c-15.25,18.39-9.88,48.17-9.82,48.46l.75,4-4,.69c-1.94.33-2.56,2.73-1.38,16.72.2,2.48.89,5.77,3,7.36a5.93,5.93,0,0,0,4,1.05Z"/>
  <path d="M296.83,260.9H282.6l-.28-3.7a92.52,92.52,0,0,0-6.15-24.93c-6.46-15.51-16.17-23.37-28.86-23.37s-22.63,7.72-29.4,22.95a90.32,90.32,0,0,0-6.62,24.44l-.36,3.6h-9.54l-9.74-12.11,6.23-5,6.18,7.69a97.33,97.33,0,0,1,6.46-21.68c8-18.24,20.77-27.88,36.79-27.88s28.62,9.84,36.32,28.47a99.67,99.67,0,0,1,6.24,23.53h1.91l4.62-9.67,7.22,3.45Z"/>
  <path d="M205.37,249.61c-.54-.58-13.06-14.35-13.06-31.71h8c0,14.18,10.83,26.17,10.94,26.29Z"/>
  <path d="M209.7,234.63c-1.31-2.73-12.65-27-7-39.39l7.28,3.31c-3.07,6.76,2.64,23.6,7,32.62Z"/>
  <path d="M219.06,219.08a68.09,68.09,0,0,1-5.43-12.38c-3.14-9.92-2.37-17.33,2.3-22l5.68,5.64c-4.79,4.82.87,18.74,4.36,24.73Z"/>
  <path d="M227.76,209.54A49,49,0,0,1,226.34,196c.47-10.15,5.07-16.89,12.94-19l2.06,7.73c-11,2.92-5.91,22.52-5.85,22.72Z"/>
  <path d="M242.48,205.07c-.38-1.25-3.59-12.47,1.9-20.36,2-2.86,6-6.37,13.7-6.81l.45,8c-3.65.21-6.12,1.31-7.57,3.38-2.8,4-1.54,11.07-.83,13.47Z"/>
  <path d="M257.43,208.83c-.36-1.46-3.35-14.49,3.54-21.66,3.74-3.9,9.31-5.12,16.56-3.63l-1.61,7.84c-4.38-.9-7.46-.45-9.17,1.32-3.27,3.39-2.19,11.6-1.55,14.21Z"/>
  <path d="M268.9,219.45c-.23-1.94-1.93-19.12,6.63-25.42,2.7-2,7.48-3.67,14.94-.38L287.24,201c-3.17-1.4-5.52-1.57-7-.5-3.81,2.8-3.95,13.39-3.43,18.07Z"/>
  <path d="M276.87,232.87c-.26-3.27-1.14-19.82,7.39-24.76,4.19-2.43,9.34-1.6,15.31,2.49l-4.52,6.6c-3.07-2.1-5.54-2.89-6.78-2.17-3,1.72-3.9,11.1-3.42,17.2Z"/>
  <path d="M289.28,249.38l-7.94-1c2.13-17.47,8.84-20.68,10.85-21.24,3.88-1.1,7.74.74,11.49,5.46l-6.26,5c-2.06-2.59-3.11-2.73-3.12-2.74C292.81,235.42,290.19,242,289.28,249.38Z"/>
  <path d="M206.25,338.18c-15.77-13.91-12.12-53.06-12-54.72l8,.78c-1,10.18-1.25,38.64,9.29,47.94Z"/>
  <path d="M288.47,338.18l-5.29-6c10.54-9.3,10.28-37.76,9.28-47.94l8-.78C300.59,285.12,304.24,324.27,288.47,338.18Z"/>
  <path d="M178.54,631.93c-4.52,0-20-1.89-28.7-26.8l-15.27-14.31L140,585l16,15,1.06,1.65c4.16,12.47,9.94,18,14.49,20.42l-.29-.53c-4.14-4.49-8-10.31-9-17.06l7.47-2.47,8,14.83c.72.75,1.45,1.45,2.17,2.1-.74-2.24-1.66-4.79-2.68-7.42a33.76,33.76,0,0,1-3.94-9.69l7.56-2.52c.09.19,1.68,3.84,3.5,8.46a30.52,30.52,0,0,0,7.35,7.88A141.36,141.36,0,0,0,181,597.15l3.31-6.25c5.9,0,12.15,6.25,17.09,12.83-5.06-15.07-21.65-21.76-22.54-22.11l-1.08-.62-16-13,5.05-6.21,15.52,12.62c11.88,4.84,32.22,20.1,27.9,45.17l-7.46,1.22c-.39-.71-.79-1.42-1.2-2.14a13.35,13.35,0,0,1,.68,5.8L197,627.67a37.84,37.84,0,0,1-7.37-3.79c.61,3.92-.11,6-2.08,7.35l-4.25.11c-.16-.09-1.07-.63-2.42-1.57l-1.09,2.1A11.38,11.38,0,0,1,178.54,631.93Z"/>
  <path d="M330.44,610.53c-9.92,0-19.75-6.1-29.27-18.15l4.47-6.25,1.9.67c-2.67-4.36-3.31-8.21-1.91-11.48l6.24-1.5,2.36,2c-1.07-3.15-1.62-6.15-1.16-8.53a7,7,0,0,1,3-4.69l5.44.95,3.05,4.15a9.17,9.17,0,0,1,1-3.77,5.79,5.79,0,0,1,4-2.92l4.32,2,8,15-6.5,3.47q.35,1,.72,2l-7,3.75-.31-.41c.59.92,1.2,1.85,1.83,2.78L324.75,595l-1.48-1.23-3.12,5.62a19.29,19.29,0,0,0,11.68,3.11c12-1,19.88-15.33,20-15.48l7,3.8c-.4.75-10,18.23-26.27,19.65C331.85,610.5,331.15,610.53,330.44,610.53Z"/>
  <path d="M330.48,624.91a10.61,10.61,0,0,1-1.12,0c-7.58-.7-13.11-7.87-16.91-21.92l7.72-2.09c2.67,9.86,6.29,15.71,9.93,16s9.19-4.17,15-12.38a112.33,112.33,0,0,0,8.56-14.36l7.21,3.48C358.34,599,345.05,624.91,330.48,624.91Z"/>
  <rect x="112.32" y="595.63" width="24.68" height="8" transform="translate(-485.03 657.81) rotate(-83.71)"/>
  <path d="M108.71,641.64a14.53,14.53,0,0,1-13.92-10.55,14.52,14.52,0,0,1,10-17.91l50.7-14L168,625.46l-55.26,15.62A14.28,14.28,0,0,1,108.71,641.64Zm42.42-33-44.19,12.24a6.5,6.5,0,0,0,3.57,12.5l46.16-13.06Z"/>
  <path d="M199.78,597.87l-.94-8,.47,4L198.5,590c2.1-.46,74.16-18.2,112-27.52L362.21,549l6.94,27.77-17.44,4.48-2-7.74,9.74-2.51-3-12.23-44,11.43C200.61,597.77,200.11,597.83,199.78,597.87Z"/>
  <path d="M204.78,615.87l-.47-4L203.5,608c2.1-.46,74.16-18.2,112-27.52l1.92,7.77C205.61,615.77,205.11,615.83,204.78,615.87Z"/>
  <rect x="363.12" y="553.4" width="12.37" height="8" transform="translate(-124.11 106.15) rotate(-14.03)"/>
  <rect x="366.12" y="563.4" width="12.37" height="8" transform="translate(-126.44 107.18) rotate(-14.03)"/>
  <polygon points="223.99 564.88 185.87 555.86 187.71 548.07 216.62 554.91 218.09 532.06 194.44 526.8 196.17 518.99 226.52 525.74 223.99 564.88"/>
  <polygon points="260.31 565.87 260.31 526.58 300.56 518.97 302.05 526.83 268.31 533.21 268.31 555.92 307.03 547.4 308.75 555.21 260.31 565.87"/>
  <polygon points="243.31 565.22 243.31 527.9 261.31 527.9 261.31 535.9 251.31 535.9 251.31 556.57 263.75 555.61 264.37 563.58 243.31 565.22"/>
  <path d="M247.27,563.92a24.89,24.89,0,0,1-16.89-7.53,15.06,15.06,0,0,1-4-11.89C227.62,531.56,243,529,243.7,528.94l1.22,7.91-.61-4,.62,4c-.1,0-10,1.69-10.64,8.45a7.08,7.08,0,0,0,2,5.72,16.83,16.83,0,0,0,11,4.9l0,8Z"/>
  <path d="M241.31,557.65l-31.51-5.48,3.14-22,28.37,5.41Zm-22.49-12,14.49,2.52v-5.93l-13.64-2.6Z"/>
  <rect x="243.31" y="619.9" width="8" height="115"/>
  <rect x="281.31" y="626.45" width="8" height="108.9" transform="translate(-85.16 42.33) rotate(-7.39)"/>
  <rect x="154.42" y="676.9" width="108.78" height="8" transform="translate(-492.15 806.92) rotate(-83.14)"/>
  <path d="M242.48,300.92c-3.8,0-6.64-1.18-8.43-3.52-3.72-4.86-1.24-12.45,1.39-20.49,2-6.2,4.8-14.69,2.19-17-7.83-7-21.41-.46-21.54-.39l-3.57-7.16c.75-.38,18.57-9.1,30.46,1.6,6.48,5.83,3.07,16.27.06,25.48-1.32,4.06-3.8,11.62-2.64,13.13.08.1.77.48,2.7.37,6.73-.35,8.85-1.57,9.4-2a4,4,0,0,0-.2-.36l6-5.27a8.46,8.46,0,0,1,1.67,8.67c-2.36,5.59-10.53,6.65-16.47,7Z"/>
  <path d="M247.31,319.9a11.41,11.41,0,0,1-5.95-1.73l-8.27,1.65L231.52,312l12.1-2.42,1.51,1.51h0a3.76,3.76,0,0,0,2.18.83Z"/>
  <path d="M247.31,319.9v-8a3.68,3.68,0,0,0,2.23-.89l1.51-1.51,2,.48,10,2-1.57,7.84-8.27-1.65A11.37,11.37,0,0,1,247.31,319.9Z"/>
  <path d="M279.63,260.87c-7.88-7.09-22.48-.42-22.63-.35l-3.4-7.24c.79-.37,19.54-9,31.38,1.64Z"/>
  <g>
    <circle class="cls-7" cx="229.99" cy="260.88" r="8"/>
    <path d="M230,272.88a12,12,0,1,1,12-12A12,12,0,0,1,230,272.88Zm0-16a4,4,0,1,0,4,4A4,4,0,0,0,230,256.88Z"/>
  </g>
  <circle cx="230.49" cy="258.88" r="4"/>
</svg>
