<svg width="122" height="110" viewBox="0 0 122 110" fill="none" xmlns="http://www.w3.org/2000/svg">
<path d="M61 29L121.622 110H0.378235L61 29Z" fill="#FFFDEE"/>
<path fill-rule="evenodd" clip-rule="evenodd" d="M61 29L0.378235 110H121.622L61 29ZM61 34.0068L6.37064 107H115.629L61 34.0068Z" fill="#FFE6A6"/>
<path fill-rule="evenodd" clip-rule="evenodd" d="M33.6944 81.9728C33.8944 81.9895 34.1567 82 34.5 82C35.3862 82 36.1179 82.5327 36.5637 82.8965C37.0796 83.3176 37.643 83.8896 38.2219 84.4916C38.3666 84.6421 38.5149 84.7973 38.6671 84.9565C39.7703 86.1106 41.078 87.4787 42.7139 88.8507C46.3989 91.9414 51.6946 95 59.5 95C65.7462 95 72.1975 92.6243 77.7918 89.5595C82.5228 86.9676 86.5435 83.9366 89.1764 81.6045C86.5552 79.6707 82.6283 77.1802 78.0757 75.0456C72.6208 72.488 66.3911 70.5 60.5 70.5C54.622 70.5 48.822 72.4806 43.9143 75.0197C39.488 77.3098 35.8738 80.0096 33.6944 81.9728ZM42.5357 72.3553C47.6946 69.6861 53.978 67.5 60.5 67.5C67.0088 67.5 73.6959 69.6787 79.3493 72.3294C85.0153 74.986 89.7673 78.1757 92.4416 80.3324L93.7626 81.3977L92.5431 82.5779C89.8683 85.1665 85.0607 88.9979 79.2332 92.1905C73.4191 95.3757 66.4538 98 59.5 98C50.8054 98 44.851 94.5586 40.7861 91.1493C39.0147 89.6636 37.5916 88.1739 36.492 87.0229C36.3418 86.8656 36.1976 86.7147 36.0594 86.5709C35.4663 85.9542 35.0219 85.5105 34.6668 85.2207C34.5095 85.0923 34.41 85.0287 34.3602 84.9995C33.7607 84.9952 33.2227 84.9617 32.7605 84.8693C32.2624 84.7697 31.7015 84.5728 31.2518 84.1232C30.7844 83.6558 30.6212 83.1008 30.556 82.67C30.4995 82.2974 30.4998 81.8836 30.5 81.5558C30.5 81.5369 30.5 81.5183 30.5 81.5V80.8614L30.9603 80.4188C33.2303 78.2361 37.3731 75.0263 42.5357 72.3553Z" fill="#FFE6A6"/>
<path fill-rule="evenodd" clip-rule="evenodd" d="M35.8546 81.1715C35.9197 81.8036 36.1536 82.4533 36.3416 82.8293L33.6584 84.1709C33.3463 83.5469 32.9803 82.5466 32.8704 81.4787C32.7637 80.4427 32.8711 79.0077 33.9393 77.9395L36.0607 80.0608C35.9289 80.1926 35.7863 80.5075 35.8546 81.1715Z" fill="#FFE6A6"/>
<path fill-rule="evenodd" clip-rule="evenodd" d="M60 90C64.9706 90 69 85.9706 69 81C69 76.0294 64.9706 72 60 72C55.0294 72 51 76.0294 51 81C51 85.9706 55.0294 90 60 90ZM60 93C66.6274 93 72 87.6274 72 81C72 74.3726 66.6274 69 60 69C53.3726 69 48 74.3726 48 81C48 87.6274 53.3726 93 60 93Z" fill="#FFE6A6"/>
<path d="M66 81C66 84.3137 63.3137 87 60 87C56.6863 87 54 84.3137 54 81C54 77.6863 56.6863 75 60 75C63.3137 75 66 77.6863 66 81Z" fill="#FFE6A6"/>
<path fill-rule="evenodd" clip-rule="evenodd" d="M121 53.9999L99 63.9999L97.7586 61.2688L119.759 51.2688L121 53.9999Z" fill="#FFE6A6"/>
<path fill-rule="evenodd" clip-rule="evenodd" d="M110 28.9999L91 45.9999L88.9996 43.7642L108 26.7642L110 28.9999Z" fill="#FFE6A6"/>
<path fill-rule="evenodd" clip-rule="evenodd" d="M92 10.9999L80 31.9999L77.3953 30.5115L89.3953 9.51148L92 10.9999Z" fill="#FFE6A6"/>
<path fill-rule="evenodd" clip-rule="evenodd" d="M-1.47406e-05 53.9999L22 63.9999L23.2414 61.2688L1.24139 51.2688L-1.47406e-05 53.9999Z" fill="#FFE6A6"/>
<path fill-rule="evenodd" clip-rule="evenodd" d="M11 28.9999L30 45.9999L32.0004 43.7642L13.0004 26.7642L11 28.9999Z" fill="#FFE6A6"/>
<path fill-rule="evenodd" clip-rule="evenodd" d="M29 10.9999L41 31.9999L43.6047 30.5115L31.6047 9.51148L29 10.9999Z" fill="#FFE6A6"/>
<path fill-rule="evenodd" clip-rule="evenodd" d="M63 -5.48367e-07L63 25L60 25L60 -4.17232e-07L63 -5.48367e-07Z" fill="#FFE6A6"/>
</svg>
