<svg width="74" height="72" viewBox="0 0 74 72" fill="none" xmlns="http://www.w3.org/2000/svg">
<path d="M0 6.99999C0 3.134 3.13401 0 7 0H66.3807C70.2467 0 73.3807 3.13401 73.3807 7V64.852C73.3807 68.718 70.2467 71.852 66.3807 71.852H7.00001C3.13402 71.852 0 68.7179 0 64.852V6.99999Z" fill="#FFFDEE"/>
<path fill-rule="evenodd" clip-rule="evenodd" d="M66.3807 3H7C4.79086 3 3 4.79086 3 6.99999V64.852C3 67.0611 4.79087 68.852 7.00001 68.852H66.3807C68.5899 68.852 70.3807 67.0611 70.3807 64.852V7C70.3807 4.79087 68.5899 3 66.3807 3ZM7 0C3.13401 0 0 3.134 0 6.99999V64.852C0 68.7179 3.13402 71.852 7.00001 71.852H66.3807C70.2467 71.852 73.3807 68.718 73.3807 64.852V7C73.3807 3.13401 70.2467 0 66.3807 0H7Z" fill="#2C2A39"/>
<path d="M60.7392 66.6795C60.5472 66.6795 60.4512 66.6035 60.4512 66.4515V66.4035C60.4512 66.3155 60.5072 66.2155 60.6192 66.1035C60.7392 65.9915 60.8552 65.8635 60.9672 65.7195C61.0872 65.5755 61.1472 65.4195 61.1472 65.2515V60.4755C61.1472 60.2995 61.1032 60.1635 61.0152 60.0675C60.9272 59.9635 60.8272 59.8955 60.7152 59.8635C60.6112 59.8315 60.5152 59.7875 60.4272 59.7315C60.3392 59.6675 60.2952 59.5875 60.2952 59.4915V59.4315C60.2952 59.2875 60.4152 59.1595 60.6552 59.0475L62.5512 58.2315C62.8552 58.1195 63.0952 58.1075 63.2712 58.1955C63.4552 58.2755 63.5472 58.4035 63.5472 58.5795C63.5472 58.6835 63.5032 58.8315 63.4152 59.0235C63.3272 59.2155 63.2832 59.4395 63.2832 59.6955V65.2515C63.2832 65.4195 63.3432 65.5755 63.4632 65.7195C63.5912 65.8635 63.7152 65.9915 63.8352 66.1035C63.9552 66.2155 64.0152 66.3155 64.0152 66.4035V66.4515C64.0152 66.6035 63.9192 66.6795 63.7272 66.6795H60.7392Z" fill="#2C2A39"/>
<path d="M37.3095 56.64C31.4215 56.64 26.6855 55.104 23.1015 52.032C19.5602 48.96 17.7895 44.5653 17.7895 38.848V17.536C17.7895 16.4693 17.3628 15.424 16.5095 14.4C15.6562 13.3333 15.2295 12.544 15.2295 12.032V11.776C15.2295 10.9653 15.7415 10.56 16.7655 10.56H30.8455C31.8695 10.56 32.3815 10.9653 32.3815 11.776V12.032C32.3815 12.544 31.9122 13.3333 30.9735 14.4C30.0348 15.424 29.5655 16.4693 29.5655 17.536V38.848C29.5655 47.5093 33.0215 51.84 39.9335 51.84C41.0002 51.84 42.0455 51.648 43.0695 51.264C44.0935 50.8373 45.0962 50.176 46.0775 49.28C47.1015 48.384 47.9122 47.04 48.5095 45.248C49.1068 43.456 49.4055 41.3227 49.4055 38.848V17.536C49.4055 16.4693 48.9575 15.424 48.0615 14.4C47.2082 13.3333 46.7815 12.544 46.7815 12.032V11.776C46.7815 10.9653 47.2935 10.56 48.3175 10.56H56.4455C57.4695 10.56 57.9815 10.9653 57.9815 11.776V12.032C57.9815 12.544 57.4908 13.3333 56.5095 14.4C55.5708 15.424 55.1015 16.4693 55.1015 17.536V38.976C55.1015 44.6507 53.4802 49.024 50.2375 52.096C47.0375 55.1253 42.7282 56.64 37.3095 56.64Z" fill="#2C2A39"/>
</svg>
